<svg width="565" height="547" viewBox="0 0 565 547" fill="none" xmlns="http://www.w3.org/2000/svg">
<rect width="565" height="547" rx="32" fill="#A8C0FF"/>
<path d="M324.315 358.291L287.503 340.273C279.354 334.858 265.25 340.05 264.97 352.368H264.887L221.967 309.996C213.373 316.869 187.194 317.963 167.739 298.066C154.615 284.573 154.533 267.377 158.329 249.03L195.224 285.725L223.37 257.586L185.485 219.822C204.881 215.873 222.792 217.107 236.824 229.777C250.855 242.365 255.23 266.637 249.287 284.573L324.315 358.291Z" fill="#D6DEFF"/>
<path d="M312.527 284.168C311.798 287.316 308.883 289.494 305.563 289.494H294.714L288.399 304.506L268.806 286.912C274.878 256.083 268.968 222.186 241.359 207.095C213.588 192.084 174.564 194.343 154.89 218.877C142.583 234.211 134.406 254.146 137.563 273.596C140.721 292.965 151.894 312.496 168.41 323.23C184.927 333.882 205.33 335.255 224.276 330.17L242.25 348.087C237.635 349.539 232.372 351.88 227.676 353.333V368.425C227.676 371.895 225.166 374.8 221.766 375.527C210.107 377.948 197.072 376.576 186.385 371.491C183.956 370.281 182.579 367.779 182.579 365.116V355.108C172.945 357.368 161.691 352.041 156.347 343.81L146.307 353.898C143.879 356.319 139.993 356.641 137.24 354.705C126.756 347.626 116.98 339.565 112.303 327.83C111.169 325.086 111.817 322.019 113.841 320.001L121.937 311.769C115.541 305.636 113.679 295.628 116.594 287.154H103.235C100.077 287.154 97.4054 285.137 96.3529 282.15C92.8715 272.062 91.6568 260.602 93.843 250.353C94.4909 246.963 97.4865 244.542 100.887 244.542H113.841C112.708 234.938 116.351 225.011 123.476 218.474L115.056 210.081C112.708 207.74 112.303 204.27 113.841 201.364C119.913 190.227 130.034 181.35 141.773 176.669C144.283 175.7 147.279 176.427 149.303 178.444L157.157 186.272C163.053 180.004 171.371 177.695 179.908 178.525V166.258C179.908 163.594 181.527 161.012 184.037 159.801C196.613 153.532 210.196 154.435 223.142 159.156C225.814 160.124 227.596 162.868 227.596 165.774V177.556C236.016 177.556 243.869 180.865 249.455 187.16L259.414 177.395C261.762 174.893 265.648 174.489 268.482 176.427C274.15 180.462 279.088 185.142 283.46 190.389C279.867 196.966 269.685 214.396 270.263 221.621C270.907 230.435 276.844 231.644 279.493 233.405C283.298 235.018 287.671 235.906 291.8 236.31C292.205 238.166 292.447 240.103 292.447 241.959L306.616 243.17C309.774 243.493 312.446 245.672 313.012 248.9C315.279 260.522 315.36 272.627 312.527 284.168Z" fill="#7696EA"/>
<path d="M411.739 201.906C406.638 189.558 399.757 177.533 393.441 165.831C384.085 148.154 373.271 129.845 360.651 114.341C357.413 110.467 351.178 110.306 348.183 114.341C332.297 135.576 319.494 158.439 307.296 181.569C299.875 196.194 288.726 209.939 302.276 215.868C306.648 217.805 312.397 218.128 316.202 218.128C402.077 216.764 418.049 220.758 411.739 201.906ZM357.493 201.664C352.231 204.731 346.32 199.566 348.506 194.078C350.53 188.751 357.979 187.621 360.327 193.432C361.418 196.211 360.413 199.872 357.493 201.664ZM354.255 182.94C351.34 182.456 349.882 171.48 349.316 169.22C347.857 163.111 346.574 156.215 346.968 149.932C347.13 144.847 350.773 136.616 357.413 139.44C361.137 141.054 361.784 145.574 361.947 149.125C362.027 152.111 358.789 183.667 354.255 182.94Z" fill="#FE6B8F"/>
<path d="M170.28 179.017C173.356 178.372 176.595 178.21 179.915 178.533V178.372C172.304 168.607 167.527 159.971 164.855 151.335C156.852 125.124 171.712 104.042 190.359 104.042H190.44C190.359 104.123 190.197 104.285 190.116 104.446C167.87 130.983 193.457 153.403 210.681 139.714C222.18 130.545 221.709 110.957 206.147 100.734C223.078 89.2469 246.935 87.9361 264.531 98.5509L252.895 102.23C248.514 103.615 249.507 110.111 254.12 110.111C255.266 110.111 254.094 110.246 275.421 103.574C280.773 101.872 282.23 97.6864 279.398 93.0797L271.167 79.6301C270.001 77.7189 267.506 77.1239 265.605 78.2864C263.695 79.4449 263.09 81.9276 264.257 83.8309L269.239 92.001C247.621 78.6021 217.439 81.0783 197.727 96.9401C184.387 92.9998 166.978 100.655 159.188 116.39C148.949 136.956 156.666 160.123 170.28 179.017ZM199.427 106.221C212.297 112.553 213.469 127.192 205.661 133.419C194.879 141.748 179.049 126.534 199.427 106.221Z" fill="#1A468F"/>
<path d="M462.835 397.243C433.741 392.297 412.905 364.304 385.742 335.244C367.575 318.256 348.647 308.913 318.16 307.442C307.414 306.908 289.088 309.057 281.95 310.994L253.894 283.428C259.512 263.303 253.566 239.363 239.564 226.804C226.126 214.675 208.186 211.097 184.696 215.888C181.526 216.531 180.373 220.439 182.644 222.694L217.67 257.608L195.239 280.035L161.209 246.188C158.93 243.934 155.037 245.084 154.386 248.23C151.057 264.316 149.242 284.839 164.862 300.901C184.172 320.64 210.029 321.085 221.446 315.15L247.318 340.699C243.77 346.589 239.835 353.507 238.821 360.528C236.655 375.339 247.396 385.333 259.466 383.156C260.968 393.21 269.773 398.829 279.923 397.159C280.315 409.642 292.926 419.538 304.937 412.693C305.553 414.917 306.387 417.037 307.513 418.629C312.229 425.283 324.741 427.412 331.722 419.029C346.247 437.913 355.074 436.042 372.945 436.473C390.351 436.863 407.501 444.007 419.989 456.07C423.8 459.754 429.508 453.999 425.642 450.269C411.025 436.177 391.718 428.163 367.944 428.378C338.725 428.555 344.267 414.919 317.104 389.509C316.717 388.818 316.096 388.3 315.361 387.93C309.062 382.256 302.268 377.177 294.941 372.888C296.039 361.955 292.485 351.408 284.643 343.462C318.87 360.05 322.102 361.759 352.431 376.574C354.455 377.543 356.867 376.724 357.851 374.734C358.835 372.732 358.009 370.316 356.005 369.331C353.315 368.014 325.894 354.587 326.737 355L288.822 317.746C298.243 316.444 308.299 315.035 317.764 315.505C345.639 316.847 362.934 324.982 380.053 340.986C410.767 375.315 432.648 400.298 461.475 405.195C466.745 406.101 468.12 398.14 462.835 397.243ZM248.759 371.558C243.462 364.338 248.968 353.904 253.256 346.563L260.925 354.136C261.123 356.996 262.093 359.873 263.318 361.969C263.422 362.15 263.454 362.363 263.564 362.541C264.366 363.789 265.331 364.844 266.337 365.844C266.027 366.314 265.794 366.842 265.703 367.436C264.407 375.799 253.53 378.308 248.759 371.558ZM272.143 388.491C268.091 386.649 267.27 382.752 267.383 379.339C270.085 377.076 272.07 374.098 273.059 370.694C280.111 374.549 278.048 372.749 288.831 378.79C287.939 381.437 286.876 384.008 285.122 385.898C281.959 389.295 276.377 390.414 272.143 388.491ZM288.355 393.708C291.281 391.599 293.769 388.786 295.951 383.066C300.522 386.071 304.835 389.417 308.944 393.023C302.011 416.711 285.281 405.238 288.355 393.708ZM321.109 416.383C318.397 416.726 315.313 415.658 314.127 413.975C312.487 411.654 311.621 406.996 312.498 405.231C312.902 404.419 314.119 402.745 315.519 398.974C318.494 402.014 322.443 406.512 326.6 412.157C325.728 414.36 323.47 416.1 321.109 416.383ZM284.031 367.049L282.516 366.364C276.411 363.608 270.159 360.875 269.168 354.58C268.627 351.176 270.037 347.261 271.965 345.391C272.277 345.088 272.709 344.919 273.063 344.658C281.552 349.715 286.885 358.381 287.089 368.686C286.051 368.174 285.084 367.532 284.031 367.049ZM285.24 334.93C276.767 332.502 266.707 336.443 262.748 344.574L224.842 307.143C223.371 305.7 221.056 305.583 219.457 306.863C213.16 311.895 189.234 314.254 170.665 295.274C161.672 286.029 158.647 274.447 161.003 257.384L192.389 288.598C193.963 290.159 196.52 290.179 198.113 288.59L226.257 260.454C227.834 258.877 227.834 256.324 226.253 254.751L193.923 222.525C211.104 220.345 224.019 223.655 234.14 232.794C246.273 243.678 251.25 265.876 245.466 283.325C244.98 284.783 245.371 286.387 246.466 287.463L303.751 343.749C285.406 334.667 287.129 335.459 285.24 334.93Z" fill="#1A468F"/>
<path d="M266.228 221.916C267.324 236.972 284.145 240.669 298.685 240.669C382.041 239.964 399.696 240.203 418.984 238.317C424.926 237.86 443.016 236.473 442.558 220.655C442.558 209.714 416.788 165.207 408.334 149.139C405.861 144.387 398.684 148.149 401.163 152.875C406.476 163.025 431.615 207.521 434.094 218.558C437.486 232.222 421.845 231.724 334.482 232.315C299.828 232.55 290.511 233.482 281.753 230.057C280.42 229.166 274.819 228.392 274.301 221.301C273.817 215.288 285.335 195.363 288.244 190.075C301.993 164.899 319.871 128.682 348.655 90.2139C351.228 86.751 356.902 86.3182 360.175 90.3873C371.424 103.945 381.111 118.917 390.267 134.046C391.422 135.953 393.916 136.56 395.826 135.418C397.739 134.267 398.356 131.784 397.201 129.877C387.867 114.462 377.969 99.1699 366.449 85.288C360.176 77.4949 348.097 77.401 342.155 85.4023C311.563 126.275 290.725 168.703 281.136 186.209C276.653 194.358 265.522 213.141 266.228 221.916Z" fill="#1A468F"/>
<path d="M395.428 445.015C394.422 453.484 397.86 462.98 406.055 467.081C414.559 471.336 425.64 468.504 432.947 462.689C441.851 455.603 444.637 448.649 466.765 406.488C471.076 398.275 475.417 388.634 471.08 380.433C465.524 369.928 443.105 364.485 434.167 373.758C428.592 379.542 425.125 388.565 421.087 395.304C403.9 423.984 396.759 433.795 395.428 445.015Z" fill="#7696EA"/>
</svg>
