<svg width="565" height="547" viewBox="0 0 565 547" fill="none" xmlns="http://www.w3.org/2000/svg">
<rect width="565" height="547" rx="32" fill="#A8C0FF"/>
<path d="M346.329 181.238H430.91V358.894H346.329V181.238Z" fill="#2F61B5"/>
<path d="M240.226 229.755H324.806V359.063H240.226V229.755Z" fill="#7696EA"/>
<path d="M134.121 278.258H218.702V359.218H134.121V278.258Z" fill="#BF5299"/>
<path d="M100 378.125H465.032V399.148H100V378.125Z" fill="#F2F4FF"/>
<path fill-rule="evenodd" clip-rule="evenodd" d="M136.844 243.218L199.276 161.373C200.185 160.181 201.575 159.552 202.981 159.55V159.533H308.537L414.244 96.1594L419.074 103.95L312.515 167.834C311.755 168.367 310.825 168.681 309.82 168.681H205.282L144.253 248.685L136.844 243.217V243.218Z" fill="#F2F4FF"/>
<path fill-rule="evenodd" clip-rule="evenodd" d="M141.488 261.244C149.762 261.244 156.511 254.604 156.511 246.462C156.511 238.321 149.762 231.681 141.488 231.681C133.213 231.681 126.463 238.321 126.463 246.462C126.463 254.603 133.212 261.244 141.488 261.244Z" fill="#BF5299"/>
<path fill-rule="evenodd" clip-rule="evenodd" d="M203.491 178.832C211.766 178.832 218.516 172.192 218.516 164.051C218.516 155.909 211.767 149.27 203.491 149.27C195.216 149.27 188.467 155.91 188.467 164.051C188.467 172.192 195.216 178.832 203.491 178.832Z" fill="#1A468F"/>
<path fill-rule="evenodd" clip-rule="evenodd" d="M309.595 178.832C317.87 178.832 324.619 172.192 324.619 164.051C324.619 155.909 317.87 149.27 309.595 149.27C301.321 149.27 294.571 155.91 294.571 164.051C294.571 172.192 301.321 178.832 309.595 178.832Z" fill="#5C85DA"/>
<path fill-rule="evenodd" clip-rule="evenodd" d="M415.7 114.336C423.975 114.336 430.724 107.696 430.724 99.554C430.724 91.4122 423.975 84.7729 415.7 84.7729C407.426 84.7729 400.676 91.4129 400.676 99.554C400.676 107.695 407.425 114.336 415.7 114.336Z" fill="#FE6B8F"/>
<path d="M134.308 278.258H166.172V359.218H134.308V278.258Z" fill="#FE6B8F"/>
<path d="M234.907 229.755H266.772V359.063H234.907V229.755Z" fill="#D6DEFF"/>
<path d="M346.516 181.238H378.381V358.894H346.516V181.238Z" fill="#1A468F"/>
<path fill-rule="evenodd" clip-rule="evenodd" d="M234.6 442.458L281.979 401.645L287.874 407.444L293.769 413.244L252.285 459.857C244.578 468.516 225.799 450.04 234.601 442.459L234.6 442.458Z" fill="#4677D5"/>
<path fill-rule="evenodd" clip-rule="evenodd" d="M287.857 407.465L293.752 413.265L252.268 459.878C248.414 464.207 241.793 461.753 237.235 457.269L287.857 407.465Z" fill="#5C85DA"/>
<path fill-rule="evenodd" clip-rule="evenodd" d="M280.667 426.244L268.429 414.204C266.142 411.954 266.142 408.274 268.429 406.025L287.986 386.784L308.538 407.004L288.982 426.244C286.696 428.494 282.953 428.494 280.667 426.244Z" fill="#1A468F"/>
<path fill-rule="evenodd" clip-rule="evenodd" d="M280.634 426.277L274.515 420.256L298.229 396.926L308.505 407.036L288.948 426.277C286.662 428.526 282.92 428.526 280.634 426.277Z" fill="#1A468F"/>
<path d="M335.6 426.715C373.332 426.715 403.92 396.622 403.92 359.5C403.92 322.378 373.332 292.285 335.6 292.285C297.869 292.285 267.281 322.378 267.281 359.5C267.281 396.622 297.869 426.715 335.6 426.715Z" fill="#4677D5"/>
<path fill-rule="evenodd" clip-rule="evenodd" d="M383.846 311.969C372.826 301.127 358.978 294.768 344.638 292.883C330.298 294.769 316.45 301.128 305.43 311.969C278.75 338.218 278.75 380.775 305.43 407.025C316.45 417.867 330.298 424.226 344.638 426.111C358.978 424.225 372.826 417.866 383.846 407.025C410.527 380.776 410.527 338.218 383.846 311.969Z" fill="#5C85DA"/>
<path d="M335.601 408.807C363.28 408.807 385.718 386.732 385.718 359.5C385.718 332.268 363.28 310.192 335.601 310.192C307.922 310.192 285.483 332.268 285.483 359.5C285.483 386.732 307.922 408.807 335.601 408.807Z" fill="#DBE2EC"/>
<path fill-rule="evenodd" clip-rule="evenodd" d="M370.977 324.631C363.415 317.191 354.036 312.629 344.246 310.938C334.455 312.629 325.077 317.191 317.515 324.631C297.943 343.887 297.943 375.107 317.515 394.363C325.077 401.803 334.455 406.365 344.246 408.056C354.036 406.365 363.414 401.802 370.977 394.363C390.549 375.107 390.549 343.886 370.977 324.631Z" fill="#F3F5FB"/>
</svg>
