<svg width="565" height="547" viewBox="0 0 565 547" fill="none" xmlns="http://www.w3.org/2000/svg">
<rect width="565" height="547" rx="32" fill="#A8C0FF"/>
<g clip-path="url(#clip0_64_5969)">
<path fill-rule="evenodd" clip-rule="evenodd" d="M116.264 262.817C115.926 266.257 112.857 268.771 109.411 268.432C105.965 268.094 103.447 265.03 103.787 261.59C106.246 236.967 114.102 213.376 126.534 192.434C136.457 175.715 149.298 160.669 164.639 148.115L155.912 147.377C152.453 147.093 149.879 144.063 150.165 140.609C150.449 137.156 153.485 134.587 156.944 134.872L182.268 137.012C185.727 137.296 188.301 140.327 188.015 143.78C187.977 144.247 187.888 144.697 187.754 145.127L182.394 169.39C181.648 172.762 178.305 174.892 174.927 174.147C171.549 173.402 169.416 170.065 170.162 166.693L172.023 158.273C158.085 169.791 146.401 183.546 137.341 198.809C125.817 218.223 118.538 240.058 116.264 262.817ZM466.315 239.071C468.296 236.228 472.211 235.525 475.059 237.502C477.908 239.479 478.612 243.388 476.631 246.231L462.113 267.056C460.132 269.899 456.217 270.602 453.369 268.625C452.981 268.355 452.632 268.049 452.324 267.716L433.974 250.965C431.423 248.636 431.247 244.683 433.581 242.138C435.914 239.591 439.873 239.416 442.423 241.745L448.795 247.562C446.46 233.797 442.293 220.528 436.501 208.072C428.647 191.182 417.81 175.79 404.504 162.684C402.035 160.26 402.002 156.296 404.43 153.832C406.858 151.367 410.828 151.334 413.297 153.758C427.694 167.939 439.413 184.579 447.898 202.824C454.263 216.512 458.81 231.108 461.308 246.252L466.315 239.071ZM231.551 461.615C233.016 464.744 231.663 468.466 228.53 469.928C225.396 471.391 221.668 470.04 220.203 466.912L209.397 443.948C207.932 440.819 209.284 437.098 212.418 435.635C212.67 435.517 212.927 435.418 213.186 435.336L213.18 435.316L237.411 427.661C240.72 426.618 244.25 428.452 245.295 431.756C246.34 435.061 244.503 438.585 241.193 439.627L232.97 442.225C249.928 448.512 267.691 451.736 285.447 451.936C308.03 452.192 330.618 447.56 351.535 438.129C354.695 436.707 358.412 438.112 359.836 441.267C361.261 444.422 359.853 448.133 356.692 449.555C334.139 459.724 309.754 464.718 285.349 464.442C265.859 464.221 246.369 460.638 227.799 453.644L231.551 461.615Z" fill="#1A468F"/>
<path fill-rule="evenodd" clip-rule="evenodd" d="M149.778 278.35H175.087V291.028C183.467 292.695 191.259 295.987 198.123 300.559L207.107 291.59L225.003 309.456L216.019 318.425C220.6 325.277 223.895 333.056 225.567 341.421H238.266V366.688H225.567C223.897 375.053 220.599 382.832 216.02 389.685L225.003 398.654L207.107 416.52L198.124 407.552C191.26 412.125 183.467 415.415 175.088 417.083V429.76H149.778V417.084C141.398 415.417 133.606 412.125 126.741 407.553L117.758 416.521L99.8618 398.654L108.845 389.686C104.264 382.835 100.968 375.055 99.2974 366.689H86.5996V341.423H99.2982C100.968 333.058 104.266 325.278 108.846 318.426L99.8618 309.457L117.758 291.591L126.742 300.56C133.606 295.987 141.399 292.697 149.778 291.028L149.778 278.35Z" fill="#1A468F"/>
<path d="M162.434 393.425C184.212 393.425 201.867 375.799 201.867 354.058C201.867 332.316 184.212 314.691 162.434 314.691C140.655 314.691 123 332.316 123 354.058C123 375.799 140.655 393.425 162.434 393.425Z" fill="#EFF4F7"/>
<path d="M177.547 342.589C178.057 334.323 171.757 327.303 163.477 326.909C155.197 326.515 148.071 332.898 147.561 341.164C147.052 349.43 153.351 356.451 161.632 356.844C169.912 357.238 177.038 350.856 177.547 342.589Z" fill="#7696EA"/>
<path fill-rule="evenodd" clip-rule="evenodd" d="M189.048 383.284C185.655 371.815 174.982 363.383 162.433 363.383C150.149 363.383 139.284 371.558 135.817 383.285C142.831 389.693 152.174 393.604 162.432 393.604C172.69 393.604 182.034 389.694 189.048 383.284Z" fill="#7696EA"/>
<path fill-rule="evenodd" clip-rule="evenodd" d="M387.789 277.521L475.44 311.545V383.549L387.789 417.573L300.139 383.549V311.545L387.789 277.521Z" fill="#FE6B8F"/>
<path fill-rule="evenodd" clip-rule="evenodd" d="M328.861 322.747C348.608 330.412 358.481 334.244 358.481 334.244V358.54C358.481 359.532 357.318 360.068 356.562 359.425L343.028 347.918L330.371 351.848C329.619 352.082 328.861 351.525 328.861 350.738V322.747Z" fill="#BF5299"/>
<path fill-rule="evenodd" clip-rule="evenodd" d="M388.075 277.521L475.726 311.545V383.549L388.075 417.573V277.521Z" fill="#BF5299"/>
<path fill-rule="evenodd" clip-rule="evenodd" d="M387.789 277.24L475.44 311.264L387.789 345.287L300.139 311.264L387.789 277.24Z" fill="#F699B0"/>
<path fill-rule="evenodd" clip-rule="evenodd" d="M358.766 334.039C339.019 326.372 329.146 322.539 329.146 322.539L416.795 288.515C436.544 296.181 446.418 300.014 446.418 300.014C417.202 311.356 387.984 322.698 358.766 334.039Z" fill="#BF5299"/>
<path fill-rule="evenodd" clip-rule="evenodd" d="M388.216 195.858V140.487C388.216 137.228 387.125 134.423 384.922 132.017L355.427 99.8121C352.957 97.1152 349.807 95.7295 346.147 95.7295H198.934V187.491C198.934 194.405 204.582 200.044 211.507 200.044H384.022C386.333 200.043 388.216 198.163 388.216 195.858Z" fill="#1A468F"/>
<path fill-rule="evenodd" clip-rule="evenodd" d="M382.323 140.286C382.323 138.595 381.818 137.299 380.676 136.05L351.181 103.845C349.903 102.45 348.434 101.803 346.54 101.803H324.025V140.285L382.323 140.286Z" fill="#E6F8FF"/>
<path fill-rule="evenodd" clip-rule="evenodd" d="M198.709 87.937C198.709 81.0233 204.357 75.3846 211.283 75.3846H305.996C312.921 75.3846 318.57 81.0233 318.57 87.937V199.96H211.284C204.358 199.96 198.71 194.322 198.71 187.407V87.937H198.709Z" fill="#7696EA"/>
<path fill-rule="evenodd" clip-rule="evenodd" d="M240.87 119.822C237.872 121.555 234.034 120.534 232.298 117.542C230.561 114.549 231.584 110.717 234.582 108.984L260.71 93.9239C263.708 92.1906 267.546 93.2114 269.282 96.2042C271.018 99.1969 269.996 103.028 266.998 104.762L240.87 119.822ZM256.546 146.97L282.674 131.911C285.672 130.191 286.705 126.37 284.983 123.377C283.26 120.385 279.433 119.353 276.435 121.072L250.307 136.131C247.309 137.851 246.276 141.672 247.998 144.665C249.721 147.657 253.548 148.69 256.546 146.97ZM235.04 141.267L288.48 110.466C291.478 108.746 292.512 104.925 290.789 101.932C289.067 98.9395 285.239 97.9077 282.242 99.6269L228.802 130.428C225.804 132.148 224.77 135.969 226.492 138.962C228.215 141.954 232.042 142.986 235.04 141.267Z" fill="#7696EA"/>
<path fill-rule="evenodd" clip-rule="evenodd" d="M198.709 187.772C198.709 194.686 204.357 200.325 211.283 200.325H318.57V170.306H198.709V187.772Z" fill="#6784CF"/>
<path fill-rule="evenodd" clip-rule="evenodd" d="M354.661 183.697C363.92 183.697 371.426 191.191 371.426 200.434C371.426 209.678 363.92 217.171 354.661 217.171C345.402 217.171 337.895 209.678 337.895 200.434C337.895 191.191 345.402 183.697 354.661 183.697ZM248.866 183.697C258.126 183.697 265.631 191.191 265.631 200.434C265.631 209.678 258.125 217.171 248.866 217.171C239.607 217.171 232.1 209.678 232.1 200.434C232.1 191.191 239.607 183.697 248.866 183.697Z" fill="white"/>
<path fill-rule="evenodd" clip-rule="evenodd" d="M354.661 193.112C350.607 193.112 347.326 196.388 347.326 200.434C347.326 204.482 350.608 207.757 354.661 207.757C358.715 207.757 361.996 204.481 361.996 200.434C361.996 196.388 358.715 193.112 354.661 193.112ZM248.866 193.112C244.812 193.112 241.531 196.387 241.531 200.434C241.531 204.482 244.812 207.758 248.866 207.758C252.92 207.758 256.201 204.482 256.201 200.434C256.202 196.387 252.92 193.112 248.866 193.112Z" fill="#1A468F"/>
</g>
<defs>
<clipPath id="clip0_64_5969">
<rect width="405.092" height="393" fill="white" transform="translate(80 77)"/>
</clipPath>
</defs>
</svg>
