<svg width="72" height="72" viewBox="0 0 72 72" fill="none" xmlns="http://www.w3.org/2000/svg">
<path d="M49.5 9H42L40.5 7.5H25.5" stroke="#1A468F" stroke-width="2" stroke-miterlimit="10"/>
<path d="M18 51L9 69" stroke="#1A468F" stroke-width="2" stroke-linejoin="round"/>
<path d="M40.62 56.595L33 69" stroke="#1A468F" stroke-width="2" stroke-linejoin="round"/>
<path d="M31.9194 62.8447C38.4612 61.7828 42.9035 55.6189 41.8416 49.0771C40.7798 42.5353 34.6158 38.0929 28.074 39.1548C21.5322 40.2167 17.0898 46.3807 18.1517 52.9225C19.2136 59.4643 25.3776 63.9066 31.9194 62.8447Z" stroke="#1A468F" stroke-width="2" stroke-linejoin="round"/>
<path d="M25.5 51C25.5 53.49 27.51 55.5 30 55.5C32.49 55.5 34.5 53.49 34.5 51C34.5 48.51 32.49 46.5 30 46.5C27.51 46.5 25.5 48.51 25.5 51Z" stroke="#1A468F" stroke-width="2" stroke-linejoin="round"/>
<path d="M49.5 16.5H42L40.5 18H27" stroke="#1A468F" stroke-width="2" stroke-miterlimit="10"/>
<path d="M55.5 21C59.6421 21 63 17.6421 63 13.5C63 9.35786 59.6421 6 55.5 6C51.3579 6 48 9.35786 48 13.5C48 17.6421 51.3579 21 55.5 21Z" stroke="#A8C0FF" stroke-width="2" stroke-miterlimit="10"/>
<path d="M6 13.5C6 19.305 10.695 24 16.5 24C22.305 24 27 19.305 27 13.5C27 7.695 22.305 3 16.5 3C10.695 3 6 7.695 6 13.5Z" stroke="#1A468F" stroke-width="2" stroke-linejoin="round"/>
<path d="M6.73535 17.3699L18.4654 47.6849" stroke="#1A468F" stroke-width="2" stroke-linejoin="round"/>
<path d="M25.5 19.5L39.96 44.31" stroke="#1A468F" stroke-width="2" stroke-linejoin="round"/>
<path d="M51 19.5V24L49.5 25.5V34.5L51 36V39L54 42H57L60 39V36L61.5 34.5V25.5L60 24V19.5" stroke="#A8C0FF" stroke-width="2" stroke-miterlimit="10"/>
<path d="M55.5 42V52.5" stroke="#A8C0FF" stroke-width="2" stroke-linejoin="round"/>
</svg>
