<svg width="72" height="72" viewBox="0 0 72 72" fill="none" xmlns="http://www.w3.org/2000/svg">
<path d="M46.53 8.48999H25.47C18 8.48999 16.35 12.21 15.39 16.77L12 33H60L56.61 16.77C55.65 12.21 54 8.48999 46.53 8.48999Z" stroke="#1A468F" stroke-width="1.5" stroke-linecap="round" stroke-linejoin="round"/>
<path d="M65.97 59.46C66.3 62.97 63.48 66 59.88 66H54.24C51 66 50.55 64.62 49.98 62.91L49.38 61.11C48.54 58.65 48 57 43.68 57H28.32C24 57 23.37 58.86 22.62 61.11L22.02 62.91C21.45 64.62 21 66 17.76 66H12.12C8.52 66 5.7 62.97 6.03 59.46L7.71 41.19C8.13 36.69 9 33 16.86 33H55.14C63 33 63.87 36.69 64.29 41.19L65.97 59.46Z" stroke="#1A468F" stroke-width="1.5" stroke-linecap="round" stroke-linejoin="round"/>
<path d="M12 24H9" stroke="#1A468F" stroke-width="1.5" stroke-linecap="round" stroke-linejoin="round"/>
<path d="M63 24H60" stroke="#1A468F" stroke-width="1.5" stroke-linecap="round" stroke-linejoin="round"/>
<path d="M36 9V15" stroke="#A8C0FF" stroke-width="1.5" stroke-linecap="round" stroke-linejoin="round"/>
<path d="M31.5 15H40.5" stroke="#A8C0FF" stroke-width="1.5" stroke-linecap="round" stroke-linejoin="round"/>
<path d="M18 45H27" stroke="#A8C0FF" stroke-width="1.5" stroke-linecap="round" stroke-linejoin="round"/>
<path d="M45 45H54" stroke="#A8C0FF" stroke-width="1.5" stroke-linecap="round" stroke-linejoin="round"/>
</svg>
