<svg width="562" height="301" viewBox="0 0 562 301" fill="none" xmlns="http://www.w3.org/2000/svg">
<g clip-path="url(#clip0_89_10911)">
<path d="M546.94 196.575L547.084 196.758C547.777 196.238 548.477 195.593 549.164 194.841L548.988 194.686C548.31 195.425 547.621 196.062 546.94 196.573V196.575Z" fill="black"/>
<path d="M549.342 194.136L548.869 196.019L548.392 197.902L547.082 196.78L545.768 195.658L547.555 194.897L549.342 194.136Z" fill="black"/>
<path d="M112.86 117.714C112.664 118.375 112.966 119.08 113.577 119.395C114.188 119.71 114.94 119.543 115.362 118.999C118.975 114.477 126.797 103.566 134.102 96.8767C137.754 93.531 141.315 91.4092 143.548 91.3831C144.665 91.3701 145.471 91.7005 146.322 92.7484C147.172 93.7962 147.974 95.6658 148.478 98.542C150.693 111.225 153.348 120.582 156.335 127.025C159.32 133.469 162.674 137.2 166.65 137.908C168.64 138.263 170.664 137.761 172.507 136.611C174.351 135.461 176.068 133.687 177.72 131.365C181.025 126.719 184.081 119.832 186.825 110.964C186.988 110.473 186.871 109.931 186.523 109.551C186.173 109.168 185.644 109.005 185.14 109.123C184.636 109.24 184.236 109.621 184.09 110.118C181.401 118.81 178.396 125.475 175.388 129.706C173.883 131.821 172.381 133.317 170.992 134.182C169.603 135.047 168.379 135.311 167.15 135.091C164.694 134.652 161.742 131.889 158.931 125.821C156.12 119.754 153.487 110.584 151.298 98.0485C150.746 94.8854 149.861 92.5657 148.545 90.944C147.23 89.3222 145.387 88.5004 143.517 88.5221C139.776 88.5635 136.017 91.244 132.171 94.7658C124.477 101.81 116.588 112.884 113.129 117.214C113.007 117.362 112.916 117.532 112.862 117.717L112.86 117.714Z" fill="#212E5C"/>
<path d="M44.6489 234.744H64.3473C65.3278 234.744 66.1169 235.444 66.1169 236.316V247.621C66.1169 248.49 65.3278 249.19 64.3473 249.19H44.6489C43.6684 249.19 42.8771 248.49 42.8771 247.621V236.316C42.8771 235.446 43.6662 234.744 44.6489 234.744Z" fill="#212E5C"/>
<path d="M2.60192 242.699H102.542C103.938 242.699 105.062 243.694 105.062 244.934V261.015C105.062 262.251 103.938 263.247 102.542 263.247H2.60192C1.20622 263.247 0.0822754 262.251 0.0822754 261.015V244.934C0.0822754 243.694 1.20622 242.699 2.60192 242.699Z" fill="#FFBD12"/>
<path d="M3.51062 243.897L101.635 243.727C102.892 243.723 103.903 244.623 103.903 245.736V260.21C103.903 261.325 102.892 262.219 101.635 262.221L3.51062 262.393C2.25406 262.395 1.24316 261.495 1.24316 260.382V245.908C1.24316 244.794 2.25406 243.899 3.51062 243.897Z" fill="#FFE212"/>
<path d="M11.4174 255.747V256.845C11.4174 257.749 12.0848 258.477 12.9131 258.477H32.2354C33.0637 258.477 33.7311 257.749 33.7311 256.845V255.747C33.7311 256.651 33.0637 257.379 32.2354 257.379H12.9131C12.0848 257.379 11.4174 256.651 11.4174 255.747Z" fill="#212E5C"/>
<path d="M11.4174 253.008V254.106C11.4174 255.01 12.0848 255.738 12.9131 255.738H32.2354C33.0637 255.738 33.7311 255.01 33.7311 254.106V253.008C33.7311 253.912 33.0637 254.64 32.2354 254.64H12.9131C12.0848 254.64 11.4174 253.912 11.4174 253.008Z" fill="#212E5C"/>
<path d="M11.4174 250.269V251.366C11.4174 252.271 12.0848 252.999 12.9131 252.999H32.2354C33.0637 252.999 33.7311 252.271 33.7311 251.366V250.269C33.7311 251.173 33.0637 251.901 32.2354 251.901H12.9131C12.0848 251.901 11.4174 251.173 11.4174 250.269Z" fill="#212E5C"/>
<path d="M11.4174 247.527V248.627C11.4174 249.532 12.0848 250.26 12.9131 250.26H32.2354C33.0637 250.26 33.7311 249.532 33.7311 248.627V247.527C33.7311 248.434 33.0637 249.162 32.2354 249.162H12.9131C12.0848 249.162 11.4174 248.434 11.4174 247.527Z" fill="#212E5C"/>
<path d="M76.6324 255.747V256.845C76.6324 257.749 77.2999 258.477 78.1281 258.477H97.4505C98.2788 258.477 98.9462 257.749 98.9462 256.845V255.747C98.9462 256.651 98.2788 257.379 97.4505 257.379H78.1281C77.2999 257.379 76.6324 256.651 76.6324 255.747Z" fill="#212E5C"/>
<path d="M76.6324 253.008V254.106C76.6324 255.01 77.2999 255.738 78.1281 255.738H97.4505C98.2788 255.738 98.9462 255.01 98.9462 254.106V253.008C98.9462 253.912 98.2788 254.64 97.4505 254.64H78.1281C77.2999 254.64 76.6324 253.912 76.6324 253.008Z" fill="#212E5C"/>
<path d="M76.6324 250.269V251.366C76.6324 252.271 77.2999 252.999 78.1281 252.999H97.4505C98.2788 252.999 98.9462 252.271 98.9462 251.366V250.269C98.9462 251.173 98.2788 251.901 97.4505 251.901H78.1281C77.2999 251.901 76.6324 251.173 76.6324 250.269Z" fill="#212E5C"/>
<path d="M76.6324 247.527V248.627C76.6324 249.532 77.2999 250.26 78.1281 250.26H97.4505C98.2788 250.26 98.9462 249.532 98.9462 248.627V247.527C98.9462 248.434 98.2788 249.162 97.4505 249.162H78.1281C77.2999 249.162 76.6324 248.434 76.6324 247.527Z" fill="#212E5C"/>
<path d="M43.8575 251.005H62.9972C63.2646 251.005 63.4798 251.197 63.4798 251.434V254.514C63.4798 254.751 63.2646 254.942 62.9972 254.942H43.8575C43.5901 254.942 43.3749 254.751 43.3749 254.514V251.434C43.3749 251.197 43.5901 251.005 43.8575 251.005Z" fill="#FFEEAA"/>
<path d="M42.4292 206.858H66.6126C67.817 206.858 68.7866 207.719 68.7866 208.787V235.457C67.83 238.492 58.6189 238.359 53.4057 238.281C48.9229 238.216 40.3531 238.255 40.2552 235.457V208.787C40.2552 207.719 41.2248 206.858 42.4292 206.858Z" fill="#FFBD12"/>
<path d="M39.2769 195.345H69.7648C71.2844 195.345 72.5062 196.43 72.5062 197.775V222.372C71.3018 226.196 59.6863 226.031 53.1165 225.933C47.4641 225.848 36.6616 225.9 36.5377 222.372V197.775C36.5377 196.43 37.7595 195.345 39.2791 195.345H39.2769Z" fill="#FFE212"/>
<path d="M39.4726 193.295H69.9605C71.4779 193.295 72.7171 194.38 72.7019 195.725L72.5062 211.545C71.3018 215.37 59.6863 215.204 53.1165 215.106C47.4641 215.022 36.6616 215.074 36.5377 211.545L36.7334 195.725C36.7508 194.38 37.9552 193.295 39.4748 193.295H39.4726Z" fill="#FFBD12"/>
<path d="M185.558 114.956C184.864 115.478 184.727 116.458 185.249 117.151L194.749 129.758C195.273 130.452 200.962 136.839 201.656 136.317C202.349 135.793 197.777 128.565 197.254 127.871L187.753 115.264C187.229 114.571 186.251 114.434 185.558 114.956Z" fill="#FFE212"/>
<path d="M185.557 114.956C186.251 114.432 187.231 114.571 187.753 115.264L192.123 121.062C191.788 121.382 191.397 121.699 190.966 122.015C190.497 122.36 190.034 122.665 189.586 122.906L185.247 117.149C184.725 116.456 184.862 115.477 185.555 114.954L185.557 114.956Z" fill="#FFBD12"/>
<path d="M183.67 105.542L189.795 113.864C190.766 115.184 189.612 116.534 187.825 117.849C186.038 119.164 184.314 119.932 183.342 118.612L177.218 110.29C176.246 108.971 176.903 106.849 178.69 105.534C180.477 104.218 182.697 104.223 183.668 105.542H183.67Z" fill="#FFE212"/>
<path d="M179.455 98.127L187.112 108.529C188.327 110.18 186.884 111.867 184.651 113.51C182.418 115.154 180.262 116.115 179.049 114.464L171.392 104.062C170.177 102.412 170.998 99.7618 173.231 98.1161C175.466 96.4726 178.24 96.477 179.455 98.127Z" fill="#FFBD12"/>
<path d="M149.187 102.249L161.735 99.1878C163.724 98.703 165.857 100.481 166.513 103.175C167.17 105.868 166.098 108.429 164.107 108.914L151.559 111.975C149.569 112.46 147.437 110.682 146.78 107.988C146.124 105.294 147.195 102.734 149.187 102.249Z" fill="#212E5C"/>
<path d="M147.15 99.103C139.043 98.8595 127.482 99.2748 119.09 105.947C117.486 107.221 116.39 110.482 117.499 115.025C118.608 119.569 121.093 121.908 123.09 122.352C132.515 124.447 143.552 119.571 151.15 115.508C152.957 114.543 153.85 110.973 152.741 106.429C151.633 101.886 149.196 99.1639 147.15 99.103Z" fill="#FFE212"/>
<path d="M131.497 104.862C127.486 105.884 123.553 107.562 120.145 110.271C118.814 111.327 117.838 113.753 118.175 117.143C119.438 120.304 121.432 121.982 123.093 122.352C132.517 124.447 143.554 119.571 151.152 115.508C152.654 114.704 153.522 112.097 153.133 108.629C151.88 105.375 149.909 103.477 148.204 103.425C143.391 103.279 137.358 103.366 131.497 104.86V104.862Z" fill="#FFBD12"/>
<path d="M172.555 91.7419C169.581 92.4723 167.116 94.5485 165.892 97.3573L162.794 98.1138C160.483 98.6769 160.424 101.362 161.187 104.49C161.95 107.621 163.237 109.975 165.55 109.412L168.464 108.701C170.864 110.782 174.122 111.573 177.207 110.825C182.477 109.54 185.708 104.227 184.421 98.9573C183.136 93.6876 177.822 90.4592 172.553 91.7441L172.555 91.7419Z" fill="#FFE212"/>
<path d="M177.503 96.7531C180.118 98.3422 180.949 101.751 179.359 104.364C177.77 106.979 174.361 107.81 171.748 106.221C169.133 104.632 168.303 101.223 169.892 98.6096C170.655 97.3552 171.885 96.4531 173.314 96.1052C174.742 95.7574 176.249 95.99 177.503 96.7531Z" fill="#FFEEAA"/>
<path d="M177.886 96.9877C179.142 97.7508 180.042 98.9812 180.39 100.41C180.738 101.838 180.505 103.344 179.742 104.601C178.153 107.216 174.744 108.047 172.131 106.458C169.516 104.868 168.685 101.46 170.274 98.8465C171.037 97.5921 172.268 96.6899 173.696 96.342C175.125 95.9942 176.631 96.2268 177.886 96.9899V96.9877Z" fill="#FFBD12"/>
<path d="M174.972 91.7115C176.685 91.7289 178.362 92.2028 179.829 93.0876C176.262 91.468 172.066 92.1789 169.231 94.8833C165.398 98.5465 165.261 104.623 168.924 108.455C169.52 109.073 170.194 109.608 170.933 110.047C169.816 109.542 168.805 108.829 167.957 107.945C164.294 104.112 164.431 98.0356 168.263 94.3724C170.068 92.6463 172.474 91.6919 174.972 91.7115Z" fill="#FFEEAA"/>
<path d="M174.942 104.207C174.507 104.203 174.081 104.081 173.707 103.857C174.614 104.268 175.679 104.088 176.401 103.401C177.375 102.47 177.409 100.927 176.479 99.9529C176.327 99.7964 176.157 99.6595 175.968 99.5486C176.253 99.6768 176.509 99.8573 176.725 100.083C177.655 101.057 177.62 102.601 176.646 103.531C176.188 103.97 175.577 104.212 174.942 104.207Z" fill="#FFEEAA"/>
<path d="M122.984 129.68C131.751 129.68 138.858 122.573 138.858 113.806C138.858 105.038 131.751 97.9312 122.984 97.9312C114.216 97.9312 107.109 105.038 107.109 113.806C107.109 122.573 114.216 129.68 122.984 129.68Z" fill="#FFEEAA"/>
<path d="M124.586 130.526C133.354 130.526 140.46 123.419 140.46 114.651C140.46 105.884 133.354 98.7769 124.586 98.7769C115.818 98.7769 108.712 105.884 108.712 114.651C108.712 123.419 115.818 130.526 124.586 130.526Z" fill="#FFBD12"/>
<path d="M132.117 110.334C131.415 109.01 130.369 107.899 129.091 107.116C131.786 109.236 132.925 112.779 131.965 116.071C130.662 120.523 125.997 123.078 121.545 121.778C120.825 121.564 120.138 121.256 119.499 120.858C120.34 121.523 121.303 122.019 122.332 122.323C126.784 123.625 131.449 121.071 132.752 116.616C133.365 114.519 133.136 112.264 132.115 110.334H132.117Z" fill="#FFEEAA"/>
<path d="M84.074 202.295C95.7265 202.295 105.17 192.849 105.17 181.199C105.17 169.549 95.7243 160.103 84.074 160.103C72.4236 160.103 62.9777 169.549 62.9777 181.199C62.9777 192.849 72.4236 202.295 84.074 202.295Z" fill="#FFBD12"/>
<path d="M97.8766 186.973L133.412 122.38C136.684 116.434 134.53 109.014 128.584 105.745C122.638 102.473 115.218 104.627 111.949 110.573L76.4107 175.166C73.1389 181.112 75.2933 188.532 81.2391 191.802C87.1849 195.073 94.6047 192.919 97.8744 186.973H97.8766Z" fill="#FFBD12"/>
<path d="M97.0635 186.256L132.371 122.078C135.36 116.645 133.393 109.866 127.96 106.877C122.527 103.888 115.749 105.855 112.76 111.288L77.4498 175.466C74.4606 180.899 76.428 187.677 81.8608 190.667C87.2936 193.656 94.0721 191.688 97.0613 186.256H97.0635Z" fill="#FFE212"/>
<path d="M96.1831 183.545L129.61 122.786C132.043 118.365 130.441 112.845 126.019 110.412C121.597 107.979 116.077 109.582 113.644 114.004L80.2173 174.762C77.7847 179.184 79.3869 184.704 83.8088 187.136C88.2306 189.569 93.7504 187.969 96.1831 183.545Z" fill="#FFBD12"/>
<path d="M95.5786 183.01L128.836 122.56C131.06 118.519 129.595 113.477 125.556 111.253C121.514 109.029 116.473 110.495 114.249 114.534L80.9912 174.984C78.7672 179.025 80.2325 184.067 84.2718 186.29C88.3132 188.514 93.3547 187.049 95.5786 183.01Z" fill="#FFE212"/>
<path d="M93.2025 175.731L121.416 124.449C122.147 123.121 121.666 121.464 120.338 120.734C119.01 120.004 117.353 120.484 116.623 121.812L88.4089 173.094C87.6784 174.423 88.1589 176.079 89.4872 176.81C90.8155 177.54 92.472 177.06 93.2025 175.731Z" fill="#FFBD12"/>
<path d="M134.065 115.612C134.13 117.603 133.662 119.575 132.71 121.325C134.415 117.097 133.378 112.258 130.091 109.099C125.64 104.829 118.573 104.975 114.301 109.425C113.612 110.147 113.025 110.96 112.553 111.838C113.084 110.514 113.862 109.305 114.849 108.273C119.119 103.823 126.188 103.677 130.638 107.947C132.734 109.958 133.965 112.708 134.067 115.61L134.065 115.612Z" fill="#FFEEAA"/>
<path d="M122.762 125.502C127.697 125.502 131.697 121.502 131.697 116.567C131.697 111.632 127.697 107.632 122.762 107.632C117.827 107.632 113.827 111.632 113.827 116.567C113.827 121.502 117.827 125.502 122.762 125.502Z" fill="#FFEEAA"/>
<path d="M122.325 126.423C127.26 126.423 131.26 122.423 131.26 117.488C131.26 112.553 127.26 108.553 122.325 108.553C117.39 108.553 113.39 112.553 113.39 117.488C113.39 122.423 117.39 126.423 122.325 126.423Z" fill="#FFBD12"/>
<path d="M124.936 121.617C125.662 121.188 126.262 120.575 126.671 119.838C125.545 121.406 123.58 122.132 121.706 121.673C119.171 121.049 117.621 118.488 118.245 115.954C118.347 115.543 118.503 115.149 118.712 114.782C118.36 115.271 118.103 115.823 117.958 116.41C117.334 118.945 118.884 121.506 121.419 122.13C122.612 122.423 123.875 122.241 124.936 121.619V121.617Z" fill="#FFEEAA"/>
<path d="M142.441 112.219C141.361 108.49 134.373 104.905 129.288 104.162C127.488 103.87 125.612 103.797 123.734 104.033C119.816 104.525 115.777 106.418 113.277 110.11C109.97 115.634 108.594 118.575 106.759 121.914C105.118 124.895 103.322 128.402 101.425 131.682C101.311 131.86 101.127 131.971 100.796 132.063C100.468 132.156 100.022 132.21 99.5223 132.291C98.5244 132.452 97.2831 132.739 96.2939 133.841L96.2657 133.874L96.2439 133.91C96.2439 133.91 83.6088 155.957 80.0695 162.492L80.8282 162.903C84.337 156.426 96.8983 134.502 96.957 134.402C97.757 133.521 98.7157 133.291 99.6614 133.139C100.138 133.063 100.603 133.01 101.033 132.889C101.464 132.767 101.89 132.556 102.153 132.141L102.159 132.132L102.164 132.123C104.081 128.812 105.883 125.293 107.518 122.323C110.99 116.58 109.766 116.953 113.997 110.586C118.025 105.751 123.523 104.142 129.091 104.999C133.504 105.973 140.904 108.438 141.715 113.34C142.108 115.712 140.406 117.099 139.093 117.621L138.804 118.993C140.989 117.982 143.526 115.938 142.445 112.21L142.441 112.219ZM140.732 112.164C139.017 109.231 134.276 106.329 128.978 105.42C123.68 104.512 117.766 105.703 114.014 111.227C111.184 115.395 111.688 115.336 107.77 122.506C106.062 125.628 103.983 129.369 102.016 132.793C101.907 132.96 101.727 133.06 101.388 133.137C101.048 133.213 100.59 133.245 100.079 133.304C99.0614 133.421 97.7983 133.678 96.8787 134.837L96.857 134.863L96.8418 134.891C96.8418 134.891 84.3392 157.083 80.8021 163.614L81.5609 164.024C85.0784 157.529 97.5374 135.415 97.5679 135.358C98.2896 134.46 99.2201 134.269 100.177 134.16C100.657 134.106 101.133 134.078 101.579 133.978C102.022 133.878 102.47 133.68 102.742 133.258L102.748 133.25L102.755 133.241C104.729 129.806 106.816 126.052 108.529 122.921C112.455 115.732 111.984 115.756 114.729 111.714C118.279 106.488 123.758 105.403 128.832 106.273C133.886 107.164 138.41 109.638 140.169 113.266C140.443 113.834 140.156 114.575 139.369 114.979L139.287 116.371C141.224 115.093 141.83 114.453 140.73 112.166L140.732 112.164Z" fill="#164450"/>
<path d="M81.6217 162.52H30.6006C20.572 162.52 12.4979 170.594 12.4979 180.623C12.4979 190.652 20.572 198.726 30.6006 198.726H81.6195C91.6481 198.726 99.7223 190.652 99.7223 180.623C99.7223 170.594 91.6481 162.52 81.6195 162.52H81.6217Z" fill="#FFBD12"/>
<path d="M81.2717 164.083H30.9506C21.7873 164.083 14.411 171.46 14.411 180.623C14.411 189.786 21.7873 197.163 30.9506 197.163H81.2717C90.4351 197.163 97.8114 189.786 97.8114 180.623C97.8114 171.46 90.4351 164.083 81.2717 164.083Z" fill="#FFE212"/>
<path d="M92.9786 168.918C95.9678 171.907 97.8113 176.042 97.8113 180.623C97.8113 181.534 97.7352 182.429 97.5939 183.299C97.6483 182.751 97.6765 182.197 97.6765 181.634C97.6765 172.47 90.3002 165.094 81.1369 165.094H30.818C22.5699 165.094 15.7741 171.07 14.4979 178.947C15.3327 170.577 22.3569 164.083 30.9528 164.083H81.2739C85.8544 164.083 89.9893 165.929 92.9807 168.918H92.9786Z" fill="#FFEEAA"/>
<path d="M78.3869 167.157H33.8355C26.3766 167.157 20.3699 173.162 20.3699 180.623C20.3699 188.084 26.3744 194.088 33.8355 194.088H78.3869C85.8458 194.088 91.8525 188.084 91.8525 180.623C91.8525 173.164 85.8479 167.157 78.3869 167.157Z" fill="#FFBD12"/>
<path d="M78.1282 168.32H34.0986C27.2831 168.32 21.796 173.807 21.796 180.623C21.796 187.438 27.2831 192.925 34.0986 192.925H78.1282C84.9436 192.925 90.4307 187.438 90.4307 180.623C90.4307 173.807 84.9436 168.32 78.1282 168.32Z" fill="#FFE212"/>
<path d="M70.9062 180.623C70.9062 182.482 71.6453 184.262 72.9584 185.577C74.2715 186.891 76.0542 187.63 77.9129 187.63C79.7717 187.63 81.5522 186.891 82.8674 185.577C84.1805 184.264 84.9197 182.482 84.9197 180.623C84.9197 178.764 84.1805 176.982 82.8674 175.668C81.5543 174.355 79.7717 173.616 77.9129 173.616C76.0542 173.616 74.2737 174.355 72.9584 175.668C71.6453 176.982 70.9062 178.764 70.9062 180.623Z" fill="#FFBD12"/>
<path d="M81.4717 182.021C81.7587 181.39 81.8718 180.692 81.7978 180.003C81.7805 181.588 80.8022 183.005 79.326 183.582C77.326 184.36 75.0759 183.371 74.2954 181.371C74.1715 181.047 74.0911 180.708 74.0563 180.362C74.0498 180.858 74.1389 181.351 74.3194 181.814C75.0976 183.814 77.3499 184.803 79.3499 184.025C80.2913 183.658 81.0543 182.938 81.4739 182.021H81.4717Z" fill="#FFEEAA"/>
<path d="M55.7818 180.623C55.7818 182.482 56.521 184.262 57.834 185.577C59.1471 186.891 60.9298 187.63 62.7885 187.63C64.6473 187.63 66.4299 186.891 67.743 185.577C69.0561 184.264 69.7953 182.482 69.7953 180.623C69.7953 178.764 69.0561 176.982 67.743 175.668C66.4299 174.355 64.6473 173.616 62.7885 173.616C60.9298 173.616 59.1493 174.355 57.834 175.668C56.521 176.982 55.7818 178.764 55.7818 180.623Z" fill="#FFBD12"/>
<path d="M58.2623 180.623C58.2623 183.123 60.2885 185.149 62.7886 185.149C65.2886 185.149 67.3148 183.123 67.3148 180.623C67.3148 178.123 65.2886 176.097 62.7886 176.097C60.2885 176.097 58.2623 178.123 58.2623 180.623Z" fill="#FFE212"/>
<path d="M28.2353 174.67H47.375C47.6424 174.67 47.8576 174.862 47.8576 175.099V178.179C47.8576 178.416 47.6424 178.607 47.375 178.607H28.2353C27.9679 178.607 27.7527 178.416 27.7527 178.179V175.099C27.7527 174.862 27.9679 174.67 28.2353 174.67Z" fill="#212E5C"/>
<path d="M28.4462 179.971H37.7552C38.14 179.971 38.4487 180.245 38.4487 180.586V185.012C38.4487 185.353 38.14 185.627 37.7552 185.627H28.4462C28.0614 185.627 27.7527 185.353 27.7527 185.012V180.586C27.7527 180.245 28.0614 179.971 28.4462 179.971Z" fill="#212E5C"/>
<path d="M63.2146 103.218L63.1429 103.512V104.805L63.382 105.307L63.9233 105.438L64.3647 105.099L64.4364 104.805V103.512L64.1973 103.01L63.6559 102.879L63.2146 103.218ZM63.2146 107.097L63.1429 107.39V108.684L63.382 109.186L63.9233 109.316L64.3647 108.977L64.4364 108.684V107.39L64.1973 106.888L63.6559 106.758L63.2146 107.097ZM63.2146 110.975L63.1429 111.269V112.562L63.382 113.064L63.9233 113.195L64.3647 112.856L64.4364 112.562V111.269L64.1973 110.766L63.6559 110.636L63.2146 110.975ZM63.2146 114.853L63.1429 115.147V116.44L63.382 116.943L63.9233 117.073L64.3647 116.734L64.4364 116.44V115.147L64.1973 114.645L63.6559 114.514L63.2146 114.853ZM63.2146 118.732L63.1429 119.025V120.319L63.382 120.821L63.9233 120.951L64.3647 120.612L64.4364 120.319V119.025L64.1973 118.523L63.6559 118.393L63.2146 118.732ZM63.2146 122.61L63.1429 122.904V124.197L63.382 124.699L63.9233 124.83L64.3647 124.491L64.4364 124.197V122.904L64.1973 122.401L63.6559 122.271L63.2146 122.61ZM63.2146 126.489L63.1429 126.782V128.076L63.382 128.578L63.9233 128.708L64.3647 128.369L64.4364 128.073V126.78L64.1973 126.278L63.6559 126.147L63.2146 126.486V126.489ZM63.2146 130.367L63.1429 130.66V131.954L63.382 132.456L63.9233 132.587L64.3647 132.247L64.4364 131.954V130.66L64.1973 130.158L63.6559 130.028L63.2146 130.367ZM63.2146 134.245L63.1429 134.539V135.832L63.382 136.335L63.9233 136.465L64.3647 136.126L64.4364 135.832V134.539L64.1973 134.037L63.6559 133.906L63.2146 134.245ZM63.2146 138.124L63.1429 138.417V139.711L63.382 140.213L63.9233 140.343L64.3647 140.004L64.4364 139.711V138.417L64.1973 137.915L63.6559 137.785L63.2146 138.124ZM63.2146 142.002L63.1429 142.296V143.589L63.382 144.091L63.9233 144.222L64.3647 143.883L64.4364 143.589V142.296L64.1973 141.793L63.6559 141.663L63.2146 142.002ZM63.2146 145.88L63.1429 146.174V147.467L63.382 147.97L63.9233 148.1L64.3647 147.761L64.4364 147.465V146.172L64.1973 145.67L63.6559 145.539L63.2146 145.878V145.88ZM63.2146 149.757L63.1429 150.05V151.344L63.382 151.846L63.9233 151.976L64.3647 151.637L64.4364 151.344V150.05L64.1973 149.548L63.6559 149.418L63.2146 149.757ZM63.2146 153.637L63.1429 153.931V155.224L63.382 155.726L63.9233 155.857L64.3647 155.518L64.4364 155.224V153.931L64.1973 153.429L63.6559 153.298L63.2146 153.637ZM63.2146 157.513L63.1429 157.807V159.1L63.382 159.603L63.9233 159.733L64.3647 159.394L64.4364 159.1V157.807L64.1973 157.305L63.6559 157.174L63.2146 157.513Z" fill="#FFE212"/>
<path d="M56.7383 88.6288C59.1276 84.4917 64.4168 83.0743 68.5518 85.4635C70.5388 86.6113 71.9866 88.5005 72.5823 90.7158C73.1758 92.9311 72.8649 95.292 71.7192 97.2791C69.33 101.416 64.0407 102.834 59.9058 100.444C55.7688 98.0552 54.3513 92.7659 56.7405 88.631L56.7383 88.6288Z" fill="#212E5C"/>
<path d="M50.9251 87.7549C51.9469 88.3245 53.2382 87.9593 53.81 86.9375C56.0992 82.9721 60.4276 80.6547 64.9951 80.946C69.5648 81.2373 73.5628 84.0874 75.328 88.3114C75.6128 89.0223 76.2585 89.5267 77.0172 89.6289C77.7759 89.731 78.5325 89.4136 78.9934 88.8028C79.4543 88.1919 79.5499 87.3788 79.2412 86.6766C76.8564 80.9743 71.4344 77.1089 65.2647 76.7154C59.0949 76.3219 53.2252 79.4655 50.1338 84.82C49.8403 85.3113 49.7577 85.9027 49.9077 86.457C50.0555 87.0114 50.4229 87.481 50.923 87.7592L50.9251 87.7549Z" fill="#FFE212"/>
<path d="M44.5554 84.2157C45.5815 84.7809 46.8706 84.407 47.4359 83.3809C51.086 76.9763 58.0492 73.211 65.406 73.6588C72.7649 74.1088 79.2173 78.6938 82.0608 85.494C82.3478 86.2027 82.9913 86.7027 83.75 86.8049C84.5087 86.9049 85.2609 86.5896 85.7218 85.9809C86.1827 85.37 86.2784 84.5591 85.9762 83.8591C82.5109 75.5741 74.628 69.9739 65.6669 69.4261C56.7036 68.8782 48.1989 73.4806 43.751 81.2808C43.4597 81.7743 43.3814 82.3656 43.5336 82.9178C43.6858 83.47 44.0553 83.9396 44.5575 84.2157H44.5554Z" fill="#FFE212"/>
<path d="M50.9251 87.7549C51.9469 88.3245 53.2382 87.9593 53.81 86.9375C56.0992 82.9721 60.4276 80.6547 64.9951 80.946C69.5648 81.2373 73.5628 84.0874 75.328 88.3114C75.6128 89.0223 76.2585 89.5267 77.0172 89.6289C77.7759 89.731 78.5325 89.4136 78.9934 88.8028C79.4543 88.1919 79.5499 87.3788 79.2412 86.6766C76.8564 80.9743 71.4344 77.1089 65.2647 76.7154C59.0949 76.3219 53.2252 79.4655 50.1338 84.82C49.8403 85.3113 49.7577 85.9027 49.9077 86.457C50.0555 87.0114 50.4229 87.481 50.923 87.7592L50.9251 87.7549Z" fill="#FFE212"/>
<path d="M37.99 79.8372C38.9661 80.3938 40.2096 80.0568 40.7683 79.0807C46.0185 70.2022 55.8166 65.0498 66.1082 65.7607C76.3976 66.4716 85.3979 72.9196 89.3763 82.4352C89.6502 83.1178 90.2698 83.5982 90.9981 83.6961C91.7264 83.7939 92.4503 83.4895 92.8916 82.9047C93.3329 82.3178 93.4264 81.5395 93.1329 80.8655C88.5632 69.9369 78.2064 62.515 66.3886 61.6997C54.5709 60.8845 43.2923 66.8108 37.2639 77.0089C36.9769 77.4785 36.8921 78.0437 37.0291 78.5763C37.166 79.109 37.5139 79.5633 37.99 79.8372Z" fill="#FFE212"/>
<path d="M201.854 131.4L199.927 119.58L203.269 120.223L201.856 131.402L201.854 131.4Z" fill="#FFE212"/>
<path d="M197.071 136.059L189.281 136.172L190.162 139.13L197.073 136.061L197.071 136.059Z" fill="#FFE212"/>
<path d="M203.138 131.656L205.323 126.517L206.993 127.93L203.138 131.656Z" fill="#FFE212"/>
<path d="M196.986 135.085L185.255 130.734L184.801 133.787L196.986 135.085Z" fill="#FFE212"/>
<path d="M558.454 254.345H0.0627441V296.346H558.454V254.345Z" fill="#A8C0FF"/>
<path d="M0.0605469 245.503V255.366H558.128C560.26 255.366 561.98 253.166 561.98 250.434C561.98 247.701 560.26 245.501 558.128 245.501H0.0605469V245.503Z" fill="#212E5C"/>
<path d="M6.71727 250.19C6.71727 250.849 6.51291 251.482 6.14986 251.947C5.78681 252.412 5.29331 252.673 4.78025 252.673C3.71066 252.673 2.84106 251.562 2.84106 250.19C2.84106 248.818 3.70848 247.71 4.78025 247.71C5.85203 247.71 6.71944 248.821 6.71944 250.19H6.71727Z" fill="#7696EA"/>
<path d="M21.6547 250.19C21.6547 250.849 21.4503 251.482 21.0873 251.947C20.7242 252.412 20.2307 252.673 19.7177 252.673C19.2046 252.673 18.7111 252.412 18.348 251.947C17.985 251.482 17.7806 250.849 17.7806 250.19C17.7806 248.821 18.6481 247.71 19.7198 247.71C20.7916 247.71 21.659 248.821 21.659 250.19H21.6547Z" fill="#7696EA"/>
<path d="M36.5899 250.19C36.5899 250.849 36.3856 251.482 36.0225 251.947C35.6594 252.412 35.166 252.673 34.6529 252.673C34.1398 252.673 33.6463 252.412 33.2833 251.947C32.9202 251.482 32.7159 250.849 32.7159 250.19C32.7159 248.821 33.5833 247.71 34.6551 247.71C35.7268 247.71 36.5943 248.821 36.5943 250.19H36.5899Z" fill="#7696EA"/>
<path d="M51.5251 250.19C51.5251 251.562 50.6577 252.673 49.5859 252.673C49.0729 252.673 48.5794 252.412 48.2163 251.947C47.8533 251.482 47.6489 250.849 47.6489 250.19C47.6489 248.821 48.5163 247.71 49.5881 247.71C50.6599 247.71 51.5273 248.821 51.5273 250.19H51.5251Z" fill="#7696EA"/>
<path d="M66.4604 250.19C66.4604 250.849 66.256 251.482 65.893 251.947C65.5299 252.412 65.0364 252.673 64.5234 252.673C63.4538 252.673 62.5842 251.562 62.5842 250.19C62.5842 248.818 63.4516 247.71 64.5234 247.71C65.5951 247.71 66.4625 248.821 66.4625 250.19H66.4604Z" fill="#7696EA"/>
<path d="M81.3978 250.19C81.3978 250.849 81.1935 251.482 80.8304 251.947C80.4674 252.412 79.9739 252.673 79.4608 252.673C78.9478 252.673 78.4543 252.412 78.0912 251.947C77.7282 251.482 77.5238 250.849 77.5238 250.19C77.5238 248.821 78.3912 247.71 79.463 247.71C80.5348 247.71 81.4022 248.821 81.4022 250.19H81.3978Z" fill="#7696EA"/>
<path d="M96.333 250.19C96.333 250.849 96.1287 251.482 95.7656 251.947C95.4026 252.412 94.9091 252.673 94.396 252.673C93.8829 252.673 93.3895 252.412 93.0264 251.947C92.6633 251.482 92.459 250.849 92.459 250.19C92.459 248.821 93.3264 247.71 94.3982 247.71C95.4699 247.71 96.3374 248.821 96.3374 250.19H96.333Z" fill="#7696EA"/>
<path d="M111.268 250.19C111.268 251.562 110.401 252.673 109.329 252.673C108.816 252.673 108.323 252.412 107.96 251.947C107.596 251.482 107.392 250.849 107.392 250.19C107.392 248.821 108.26 247.71 109.331 247.71C110.403 247.71 111.27 248.821 111.27 250.19H111.268Z" fill="#7696EA"/>
<path d="M126.203 250.19C126.203 250.849 125.999 251.482 125.636 251.947C125.273 252.412 124.78 252.673 124.266 252.673C123.197 252.673 122.327 251.562 122.327 250.19C122.327 248.818 123.195 247.71 124.266 247.71C125.338 247.71 126.206 248.821 126.206 250.19H126.203Z" fill="#7696EA"/>
<path d="M141.139 250.19C141.139 250.849 140.934 251.482 140.571 251.947C140.208 252.412 139.715 252.673 139.202 252.673C138.689 252.673 138.195 252.412 137.832 251.947C137.469 251.482 137.265 250.849 137.265 250.19C137.265 248.821 138.132 247.71 139.204 247.71C140.276 247.71 141.141 248.821 141.141 250.19H141.139Z" fill="#7696EA"/>
<path d="M156.076 250.19C156.076 250.849 155.872 251.482 155.509 251.947C155.146 252.412 154.652 252.673 154.139 252.673C153.626 252.673 153.133 252.412 152.77 251.947C152.406 251.482 152.202 250.849 152.202 250.19C152.202 248.821 153.07 247.71 154.141 247.71C155.213 247.71 156.081 248.821 156.081 250.19H156.076Z" fill="#7696EA"/>
<path d="M171.011 250.19C171.011 251.562 170.144 252.673 169.072 252.673C168.559 252.673 168.066 252.412 167.703 251.947C167.34 251.482 167.135 250.849 167.135 250.19C167.135 248.821 168.003 247.71 169.072 247.71C170.142 247.71 171.011 248.821 171.011 250.19Z" fill="#7696EA"/>
<path d="M185.947 250.19C185.947 250.849 185.742 251.482 185.379 251.947C185.016 252.412 184.523 252.673 184.01 252.673C182.94 252.673 182.073 251.562 182.073 250.19C182.073 248.818 182.94 247.71 184.01 247.71C185.079 247.71 185.949 248.821 185.949 250.19H185.947Z" fill="#7696EA"/>
<path d="M200.882 250.19C200.882 250.849 200.677 251.482 200.314 251.947C199.951 252.412 199.458 252.673 198.945 252.673C198.432 252.673 197.938 252.412 197.575 251.947C197.212 251.482 197.008 250.849 197.008 250.19C197.008 248.821 197.875 247.71 198.945 247.71C200.014 247.71 200.882 248.821 200.882 250.19Z" fill="#7696EA"/>
<path d="M215.817 250.19C215.817 250.849 215.613 251.482 215.25 251.947C214.887 252.412 214.393 252.673 213.88 252.673C213.367 252.673 212.874 252.412 212.51 251.947C212.147 251.482 211.943 250.849 211.943 250.19C211.943 248.821 212.81 247.71 213.882 247.71C214.954 247.71 215.819 248.821 215.819 250.19H215.817Z" fill="#7696EA"/>
<path d="M230.754 250.19C230.754 250.849 230.55 251.482 230.185 251.947C229.822 252.412 229.328 252.673 228.815 252.673C228.302 252.673 227.809 252.412 227.446 251.947C227.08 251.482 226.876 250.849 226.876 250.19C226.876 248.821 227.746 247.71 228.815 247.71C229.885 247.71 230.754 248.821 230.754 250.19Z" fill="#7696EA"/>
<path d="M245.69 250.19C245.69 250.849 245.485 251.482 245.122 251.947C244.757 252.412 244.266 252.673 243.751 252.673C242.681 252.673 241.814 251.562 241.814 250.19C241.814 248.818 242.681 247.71 243.751 247.71C244.82 247.71 245.69 248.821 245.69 250.19Z" fill="#7696EA"/>
<path d="M260.625 250.19C260.625 250.849 260.421 251.482 260.058 251.947C259.695 252.412 259.201 252.673 258.686 252.673C258.171 252.673 257.679 252.412 257.316 251.947C256.953 251.482 256.749 250.849 256.749 250.19C256.749 248.821 257.616 247.71 258.686 247.71C259.755 247.71 260.625 248.821 260.625 250.19Z" fill="#7696EA"/>
<path d="M275.56 250.19C275.56 250.849 275.356 251.482 274.993 251.947C274.63 252.412 274.136 252.673 273.623 252.673C273.11 252.673 272.615 252.412 272.251 251.947C271.888 251.482 271.684 250.849 271.684 250.19C271.684 248.821 272.551 247.71 273.623 247.71C274.695 247.71 275.56 248.821 275.56 250.19Z" fill="#7696EA"/>
<path d="M290.495 250.19C290.495 250.849 290.291 251.482 289.928 251.947C289.565 252.412 289.072 252.673 288.558 252.673C288.045 252.673 287.552 252.412 287.187 251.947C286.824 251.482 286.619 250.849 286.619 250.19C286.619 248.821 287.487 247.71 288.558 247.71C289.63 247.71 290.495 248.821 290.495 250.19Z" fill="#7696EA"/>
<path d="M305.433 250.19C305.433 250.849 305.229 251.482 304.863 251.947C304.5 252.412 304.007 252.673 303.494 252.673C302.981 252.673 302.487 252.412 302.124 251.947C301.759 251.482 301.557 250.849 301.557 250.19C301.557 248.821 302.424 247.71 303.494 247.71C304.563 247.71 305.433 248.821 305.433 250.19Z" fill="#7696EA"/>
<path d="M320.368 250.19C320.368 250.849 320.164 251.482 319.801 251.947C319.436 252.412 318.944 252.673 318.429 252.673C317.914 252.673 317.422 252.412 317.059 251.947C316.696 251.482 316.492 250.849 316.492 250.19C316.492 248.821 317.359 247.71 318.429 247.71C319.499 247.71 320.368 248.821 320.368 250.19Z" fill="#7696EA"/>
<path d="M335.303 250.19C335.303 250.849 335.099 251.482 334.736 251.947C334.373 252.412 333.879 252.673 333.364 252.673C332.849 252.673 332.358 252.412 331.995 251.947C331.631 251.482 331.427 250.849 331.427 250.19C331.427 248.821 332.295 247.71 333.364 247.71C334.434 247.71 335.303 248.821 335.303 250.19Z" fill="#7696EA"/>
<path d="M350.239 250.19C350.239 250.849 350.034 251.482 349.671 251.947C349.308 252.412 348.815 252.673 348.302 252.673C347.788 252.673 347.293 252.412 346.93 251.947C346.567 251.482 346.362 250.849 346.362 250.19C346.362 248.821 347.23 247.71 348.302 247.71C349.373 247.71 350.239 248.821 350.239 250.19Z" fill="#7696EA"/>
<path d="M365.174 250.19C365.174 251.562 364.306 252.673 363.237 252.673C362.722 252.673 362.23 252.412 361.865 251.947C361.502 251.482 361.298 250.849 361.298 250.19C361.298 248.821 362.165 247.71 363.237 247.71C364.309 247.71 365.174 248.821 365.174 250.19Z" fill="#7696EA"/>
<path d="M380.111 250.19C380.111 250.849 379.907 251.482 379.544 251.947C379.179 252.412 378.687 252.673 378.172 252.673C377.102 252.673 376.235 251.562 376.235 250.19C376.235 248.818 377.102 247.71 378.172 247.71C379.242 247.71 380.111 248.821 380.111 250.19Z" fill="#7696EA"/>
<path d="M395.046 250.19C395.046 250.849 394.842 251.482 394.479 251.947C394.114 252.412 393.623 252.673 393.107 252.673C392.592 252.673 392.101 252.412 391.738 251.947C391.375 251.482 391.17 250.849 391.17 250.19C391.17 248.821 392.038 247.71 393.107 247.71C394.177 247.71 395.046 248.821 395.046 250.19Z" fill="#7696EA"/>
<path d="M409.982 250.19C409.982 250.849 409.777 251.482 409.414 251.947C409.051 252.412 408.558 252.673 408.042 252.673C407.527 252.673 407.036 252.412 406.673 251.947C406.31 251.482 406.105 250.849 406.105 250.19C406.105 248.821 406.973 247.71 408.042 247.71C409.112 247.71 409.982 248.821 409.982 250.19Z" fill="#7696EA"/>
<path d="M424.917 250.19C424.917 250.849 424.713 251.482 424.35 251.947C423.987 252.412 423.493 252.673 422.98 252.673C422.467 252.673 421.973 252.412 421.608 251.947C421.245 251.482 421.041 250.849 421.041 250.19C421.041 248.821 421.908 247.71 422.98 247.71C424.052 247.71 424.917 248.821 424.917 250.19Z" fill="#7696EA"/>
<path d="M439.852 250.19C439.852 250.849 439.648 251.482 439.285 251.947C438.922 252.412 438.428 252.673 437.915 252.673C436.843 252.673 435.976 251.562 435.976 250.19C435.976 248.818 436.843 247.71 437.915 247.71C438.987 247.71 439.852 248.821 439.852 250.19Z" fill="#7696EA"/>
<path d="M454.79 250.19C454.79 250.849 454.585 251.482 454.22 251.947C453.857 252.412 453.364 252.673 452.85 252.673C451.781 252.673 450.913 251.562 450.913 250.19C450.913 248.818 451.781 247.71 452.85 247.71C453.92 247.71 454.79 248.821 454.79 250.19Z" fill="#7696EA"/>
<path d="M469.725 250.19C469.725 250.849 469.52 251.482 469.157 251.947C468.794 252.412 468.301 252.673 467.786 252.673C467.27 252.673 466.779 252.412 466.416 251.947C466.053 251.482 465.849 250.849 465.849 250.19C465.849 248.821 466.716 247.71 467.786 247.71C468.855 247.71 469.725 248.821 469.725 250.19Z" fill="#7696EA"/>
<path d="M484.66 250.19C484.66 250.849 484.456 251.482 484.093 251.947C483.73 252.412 483.236 252.673 482.723 252.673C482.21 252.673 481.714 252.412 481.351 251.947C480.988 251.482 480.784 250.849 480.784 250.19C480.784 248.821 481.651 247.71 482.723 247.71C483.795 247.71 484.66 248.821 484.66 250.19Z" fill="#7696EA"/>
<path d="M499.595 250.19C499.595 251.562 498.728 252.673 497.658 252.673C497.143 252.673 496.652 252.412 496.287 251.947C495.923 251.482 495.719 250.849 495.719 250.19C495.719 248.821 496.587 247.71 497.658 247.71C498.73 247.71 499.595 248.821 499.595 250.19Z" fill="#7696EA"/>
<path d="M514.531 250.19C514.531 250.849 514.328 251.482 513.963 251.947C513.6 252.412 513.107 252.673 512.594 252.673C511.524 252.673 510.654 251.562 510.654 250.19C510.654 248.818 511.524 247.71 512.594 247.71C513.663 247.71 514.531 248.821 514.531 250.19Z" fill="#7696EA"/>
<path d="M529.468 250.19C529.468 250.849 529.264 251.482 528.898 251.947C528.535 252.412 528.042 252.673 527.529 252.673C527.016 252.673 526.522 252.412 526.159 251.947C525.794 251.482 525.592 250.849 525.592 250.19C525.592 248.821 526.459 247.71 527.529 247.71C528.598 247.71 529.468 248.821 529.468 250.19Z" fill="#7696EA"/>
<path d="M544.403 250.19C544.403 250.849 544.199 251.482 543.836 251.947C543.473 252.412 542.979 252.673 542.464 252.673C541.949 252.673 541.457 252.412 541.094 251.947C540.731 251.482 540.527 250.849 540.527 250.19C540.527 248.821 541.394 247.71 542.464 247.71C543.534 247.71 544.403 248.821 544.403 250.19Z" fill="#7696EA"/>
<path d="M559.338 250.19C559.338 251.562 558.471 252.673 557.401 252.673C556.886 252.673 556.393 252.412 556.03 251.947C555.666 251.482 555.462 250.849 555.462 250.19C555.462 248.821 556.33 247.71 557.401 247.71C558.473 247.71 559.338 248.821 559.338 250.19Z" fill="#7696EA"/>
<path d="M558.454 254.345H0.0714111V262.197H558.454V254.345Z" fill="#CEE1F2"/>
<path d="M558.447 286.469H0.125793V296.298H558.447V286.469Z" fill="#212E5C"/>
<path d="M0.871468 286.469L0.125793 287.417V293.335L5.53031 286.469H0.871468ZM9.77174 286.469L2.03455 296.298H6.69338L14.4306 286.469H9.77174ZM18.6698 286.469L10.9326 296.298H15.5915L23.3287 286.469H18.6698ZM27.5679 286.469L19.8307 296.298H24.4896L32.2268 286.469H27.5679ZM36.466 286.469L28.7288 296.298H33.3877L41.1249 286.469H36.466ZM45.3663 286.469L37.6291 296.298H42.2879L50.0251 286.469H45.3663ZM54.2644 286.469L46.5272 296.298H51.186L58.9232 286.469H54.2644ZM63.1625 286.469L55.4253 296.298H60.0841L67.8213 286.469H63.1625ZM72.0628 286.469L64.3256 296.298H68.9844L76.7216 286.469H72.0628ZM80.9609 286.469L73.2237 296.298H77.8825L85.6197 286.469H80.9609ZM89.859 286.469L82.1218 296.298H86.7806L94.5178 286.469H89.859ZM98.757 286.469L91.0199 296.298H95.6787L103.416 286.469H98.757ZM107.657 286.469L99.9201 296.298H104.579L112.316 286.469H107.657ZM116.555 286.469L108.818 296.298H113.477L121.214 286.469H116.555ZM125.454 286.469L117.716 296.298H122.375L130.112 286.469H125.454ZM134.352 286.469L126.614 296.298H131.273L139.01 286.469H134.352ZM143.252 286.469L135.515 296.298H140.174L147.911 286.469H143.252ZM152.15 286.469L144.413 296.298H149.072L156.809 286.469H152.15ZM161.048 286.469L153.311 296.298H157.97L165.707 286.469H161.048ZM169.948 286.469L162.211 296.298H166.87L174.607 286.469H169.948ZM178.846 286.469L171.109 296.298H175.768L183.505 286.469H178.846ZM187.745 286.469L180.007 296.298H184.666L192.403 286.469H187.745ZM196.643 286.469L188.905 296.298H193.564L201.301 286.469H196.643ZM205.541 286.469L197.804 296.298H202.462L210.2 286.469H205.541ZM214.441 286.469L206.704 296.298H211.363L219.1 286.469H214.441ZM223.339 286.469L215.602 296.298H220.261L227.998 286.469H223.339ZM232.237 286.469L224.5 296.298H229.159L236.896 286.469H232.237ZM241.137 286.469L233.4 296.298H238.059L245.796 286.469H241.137ZM250.036 286.469L242.298 296.298H246.957L254.694 286.469H250.036ZM258.934 286.469L251.196 296.298H255.855L263.592 286.469H258.934ZM267.832 286.469L260.095 296.298H264.753L272.491 286.469H267.832ZM276.732 286.469L268.995 296.298H273.654L281.391 286.469H276.732ZM285.63 286.469L277.893 296.298H282.552L290.289 286.469H285.63ZM294.528 286.469L286.791 296.298H291.45L299.187 286.469H294.528ZM303.426 286.469L295.689 296.298H300.348L308.087 286.469H303.426ZM312.327 286.469L304.589 296.298H309.248L316.985 286.469H312.327ZM321.225 286.469L313.487 296.298H318.146L325.883 286.469H321.225ZM330.123 286.469L322.386 296.298H327.044L334.782 286.469H330.123ZM339.023 286.469L331.286 296.298H335.943L343.682 286.469H339.023ZM347.921 286.469L340.184 296.298H344.843L352.58 286.469H347.921ZM356.819 286.469L349.082 296.298H353.741L361.478 286.469H356.819ZM365.717 286.469L357.98 296.298H362.639L370.378 286.469H365.717ZM374.618 286.469L366.88 296.298H371.539L379.276 286.469H374.618ZM383.516 286.469L375.778 296.298H380.437L388.174 286.469H383.516ZM392.414 286.469L384.677 296.298H389.335L397.073 286.469H392.414ZM401.314 286.469L393.577 296.298H398.234L405.973 286.469H401.314ZM410.212 286.469L402.475 296.298H407.134L414.871 286.469H410.212ZM419.11 286.469L411.373 296.298H416.032L423.769 286.469H419.11ZM428.008 286.469L420.271 296.298H424.93L432.667 286.469H428.008ZM436.909 286.469L429.171 296.298H433.83L441.567 286.469H436.909ZM445.807 286.469L438.07 296.298H442.728L450.466 286.469H445.807ZM454.705 286.469L446.968 296.298H451.626L459.364 286.469H454.705ZM463.605 286.469L455.866 296.298H460.525L468.262 286.469H463.605ZM472.503 286.469L464.766 296.298H469.425L477.162 286.469H472.503ZM481.401 286.469L473.664 296.298H478.323L486.06 286.469H481.401ZM490.299 286.469L482.562 296.298H487.221L494.958 286.469H490.299ZM499.2 286.469L491.46 296.298H496.119L503.858 286.469H499.2ZM508.098 286.469L500.361 296.298H505.019L512.757 286.469H508.098ZM516.996 286.469L509.259 296.298H513.917L521.655 286.469H516.996ZM525.894 286.469L518.157 296.298H522.816L530.553 286.469H525.894ZM534.794 286.469L527.057 296.298H531.714L539.453 286.469H534.794ZM543.692 286.469L535.955 296.298H540.614L548.351 286.469H543.692ZM552.59 286.469L544.853 296.298H549.512L557.249 286.469H552.59ZM558.447 290.333L553.751 296.298H558.41L558.447 296.25V290.333Z" fill="#FFE212"/>
<path d="M84.9109 188.864C85.8849 189.149 66.1582 197.997 62.5776 218.23C63.9907 227.463 90.5263 245.688 90.5263 245.688C90.5263 245.688 121.777 246.503 151.393 246.812C218.658 243.314 242.964 249.781 347.965 244.949C364.187 243.449 387.251 244.388 395.268 233.009C401.771 221.272 408.429 177.062 371.304 175.292C328.925 173.27 84.9131 188.864 84.9131 188.864H84.9109Z" fill="#1F48DA"/>
<path d="M259.442 127.358C249.455 127.295 239.018 127.928 229.207 128.221C192.392 128.278 163.681 157.972 154.735 168.394C151.904 165.794 145.452 160.113 132.767 150.078C114.416 135.567 105.194 135.504 105.194 135.504C105.194 135.504 106.316 133.297 96.6939 137.661C115.577 144.204 141.865 166.679 148.406 172.436C138.184 173.897 106.577 179.001 82.6978 189.219C92.5829 217.722 62.3581 217.83 61.8472 217.507L61.3624 234.824C61.3276 240.068 84.4414 245.953 92.0503 245.807C91.0111 242.181 90.4937 238.425 90.5111 234.651C90.6589 212.646 108.618 194.925 130.623 195.073C152.628 195.221 170.348 213.18 170.2 235.185C170.164 238.829 169.627 242.449 168.605 245.944L294.715 246.283C293.839 242.931 293.404 239.479 293.422 236.014C293.569 214.009 311.527 196.288 333.534 196.436C355.539 196.584 373.257 214.543 373.109 236.548C373.072 239.812 372.633 243.057 371.802 246.214C375.278 245.825 382.018 245.031 388.555 244.031C397.788 242.618 402.734 220.513 402.734 220.513C392.394 223.311 382.696 206.806 383.757 189.395C384.016 185.149 396.196 184.606 394.901 182.077C390.644 173.77 388.016 172.264 387.272 172.107C364.861 168.103 357.808 167.522 347.371 166.618C345.873 166.333 344.049 166.083 341.856 165.87C341.203 165.807 340.532 165.748 339.86 165.69C348.425 158.472 372.713 138.856 390.407 132.991C380.846 128.499 381.937 130.721 381.937 130.721C381.937 130.721 372.713 130.66 354.171 144.924C344.271 152.539 338.095 157.635 334.464 160.75C317.111 141.335 306.609 136.4 290.115 131.76C281.51 128.395 270.767 127.43 259.447 127.358H259.442ZM61.8429 217.507V217.487C61.8298 217.493 61.832 217.5 61.8429 217.507ZM256.142 133.461C281.589 133.552 297.196 139.104 315.32 164.592C296.08 164.311 273.536 164.996 251.827 166.048L252.046 133.482C253.41 133.463 254.775 133.454 256.142 133.458V133.461ZM240.974 133.813L240.755 166.618C203.373 168.655 172.011 171.409 166.7 171.886C180.494 153.285 196.158 136.6 225.843 134.469C230.781 134.293 235.844 134.028 240.974 133.813Z" fill="#A8C0FF"/>
<path d="M132.18 181.921C116.825 181.823 102.627 190.069 95.1069 203.456C104.327 192.743 117.89 186.606 132.147 186.699C146.398 186.812 159.868 193.139 168.931 203.976C161.602 190.488 147.528 182.043 132.18 181.921Z" fill="#7696EA"/>
<path d="M333.614 183.273C318.259 183.175 304.063 191.421 296.541 204.808C305.761 194.095 319.325 187.958 333.582 188.051C347.834 188.164 361.304 194.491 370.367 205.328C363.037 191.84 348.965 183.395 333.614 183.273Z" fill="#EFEFEF"/>
<path d="M151 181.56C151 181.56 311.933 170.833 377.215 173.855C341.854 165.501 204.919 173.805 151 181.56Z" fill="#7696EA"/>
<path d="M504.963 257.51H485.265C484.284 257.51 483.495 258.21 483.495 259.08V270.386C483.495 271.256 484.284 271.956 485.265 271.956H504.963C505.943 271.956 506.733 271.256 506.733 270.386V259.08C506.733 258.21 505.943 257.51 504.963 257.51Z" fill="#212E5C"/>
<path d="M547.007 265.465H447.07C445.674 265.465 444.55 266.46 444.55 267.697V283.78C444.55 285.017 445.674 286.013 447.07 286.013H547.007C548.403 286.013 549.527 285.017 549.527 283.78V267.697C549.527 266.46 548.403 265.465 547.007 265.465Z" fill="#FFBD12"/>
<path d="M546.101 266.662L447.976 266.491C446.72 266.491 445.709 267.389 445.709 268.502V282.976C445.709 284.089 446.72 284.985 447.976 284.987L546.101 285.159C547.358 285.161 548.368 284.261 548.368 283.148V268.673C548.368 267.558 547.358 266.665 546.101 266.662Z" fill="#FFE212"/>
<path d="M538.192 278.511V279.611C538.192 280.515 537.525 281.243 536.696 281.243H517.374C516.546 281.243 515.878 280.515 515.878 279.611V278.511C515.878 279.417 516.546 280.146 517.374 280.146H536.696C537.525 280.146 538.192 279.417 538.192 278.511Z" fill="#212E5C"/>
<path d="M538.192 275.771V276.872C538.192 277.776 537.525 278.504 536.696 278.504H517.374C516.546 278.504 515.878 277.776 515.878 276.872V275.771C515.878 276.676 516.546 277.406 517.374 277.406H536.696C537.525 277.406 538.192 276.676 538.192 275.771Z" fill="#212E5C"/>
<path d="M538.192 273.032V274.13C538.192 275.037 537.525 275.765 536.696 275.765H517.374C516.546 275.765 515.878 275.037 515.878 274.13V273.032C515.878 273.937 516.546 274.665 517.374 274.665H536.696C537.525 274.665 538.192 273.937 538.192 273.032Z" fill="#212E5C"/>
<path d="M538.192 270.293V271.391C538.192 272.297 537.525 273.026 536.696 273.026H517.374C516.546 273.026 515.878 272.297 515.878 271.391V270.293C515.878 271.197 516.546 271.926 517.374 271.926H536.696C537.525 271.926 538.192 271.197 538.192 270.293Z" fill="#212E5C"/>
<path d="M472.977 278.511V279.611C472.977 280.515 472.31 281.243 471.481 281.243H452.159C451.331 281.243 450.663 280.515 450.663 279.611V278.511C450.663 279.417 451.331 280.146 452.159 280.146H471.481C472.31 280.146 472.977 279.417 472.977 278.511Z" fill="#212E5C"/>
<path d="M472.977 275.771V276.872C472.977 277.776 472.31 278.504 471.481 278.504H452.159C451.331 278.504 450.663 277.776 450.663 276.872V275.771C450.663 276.676 451.331 277.406 452.159 277.406H471.481C472.31 277.406 472.977 276.676 472.977 275.771Z" fill="#212E5C"/>
<path d="M472.977 273.032V274.13C472.977 275.037 472.31 275.765 471.481 275.765H452.159C451.331 275.765 450.663 275.037 450.663 274.13V273.032C450.663 273.937 451.331 274.665 452.159 274.665H471.481C472.31 274.665 472.977 273.937 472.977 273.032Z" fill="#212E5C"/>
<path d="M472.977 270.293V271.391C472.977 272.297 472.31 273.026 471.481 273.026H452.159C451.331 273.026 450.663 272.297 450.663 271.391V270.293C450.663 271.197 451.331 271.926 452.159 271.926H471.481C472.31 271.926 472.977 271.197 472.977 270.293Z" fill="#212E5C"/>
<path d="M505.752 273.771H486.612C486.345 273.771 486.13 273.963 486.13 274.2V277.278C486.13 277.515 486.345 277.706 486.612 277.706H505.752C506.019 277.706 506.235 277.515 506.235 277.278V274.2C506.235 273.963 506.019 273.771 505.752 273.771Z" fill="#FFEEAA"/>
<path d="M507.18 229.624H482.999C481.795 229.624 480.825 230.485 480.825 231.553V258.223C481.78 261.256 490.993 261.125 496.204 261.047C500.687 260.98 509.256 261.021 509.354 258.223V231.553C509.354 230.485 508.385 229.624 507.18 229.624Z" fill="#FFBD12"/>
<path d="M510.335 218.109H479.847C478.327 218.109 477.105 219.194 477.105 220.539V245.136C478.31 248.962 489.925 248.797 496.495 248.697C502.148 248.612 512.95 248.664 513.074 245.136V220.539C513.074 219.194 511.852 218.109 510.335 218.109Z" fill="#FFE212"/>
<path d="M510.139 216.061H479.651C478.132 216.061 476.892 217.146 476.91 218.492L477.106 234.312C478.31 238.136 489.925 237.97 496.495 237.873C502.148 237.788 512.95 237.838 513.074 234.312L512.88 218.492C512.863 217.144 511.657 216.061 510.139 216.061Z" fill="#FFBD12"/>
<path d="M453.842 119.439C454.396 119.847 454.583 120.591 454.283 121.212C453.985 121.832 453.287 122.152 452.622 121.973C447.013 120.547 434.191 116.565 424.33 115.638C419.399 115.175 415.278 115.63 413.482 116.958C412.584 117.621 412.138 118.371 412.093 119.721C412.047 121.069 412.534 123.045 413.871 125.641C419.756 137.091 423.284 146.155 424.791 153.096C426.297 160.035 425.874 165.033 423.13 167.999C421.758 169.481 419.841 170.303 417.678 170.499C415.512 170.694 413.073 170.316 410.354 169.46C404.916 167.746 398.325 164.101 390.786 158.683C390.359 158.39 390.127 157.888 390.175 157.372C390.222 156.857 390.546 156.407 391.018 156.198C391.492 155.987 392.042 156.05 392.455 156.359C399.844 161.668 406.262 165.17 411.212 166.729C413.688 167.507 415.788 167.794 417.419 167.646C419.049 167.499 420.184 166.97 421.03 166.053C422.726 164.222 423.413 160.238 421.993 153.7C420.576 147.165 417.141 138.263 411.325 126.947C409.856 124.091 409.162 121.708 409.234 119.621C409.303 117.534 410.277 115.767 411.782 114.656C414.791 112.432 419.404 112.301 424.597 112.788C434.983 113.764 447.955 117.836 453.327 119.202C453.514 119.245 453.687 119.325 453.842 119.439Z" fill="#212E5C"/>
<path d="M395.314 152.611C395.918 153.235 395.903 154.224 395.279 154.829L383.937 165.809C383.314 166.414 376.702 171.842 376.098 171.218C375.494 170.594 381.131 164.162 381.757 163.557L393.096 152.576C393.72 151.972 394.71 151.987 395.314 152.613V152.611Z" fill="#FFE212"/>
<path d="M395.314 152.611C394.71 151.987 393.72 151.972 393.096 152.576L387.881 157.627C388.162 157.994 388.499 158.368 388.875 158.746C389.283 159.159 389.694 159.533 390.099 159.842L395.279 154.829C395.903 154.224 395.918 153.235 395.314 152.611Z" fill="#FFBD12"/>
<path d="M398.638 143.604L391.296 150.876C390.131 152.029 391.062 153.542 392.622 155.118C394.183 156.694 395.768 157.72 396.931 156.566L404.275 149.294C405.438 148.142 405.119 145.944 403.558 144.367C401.997 142.791 399.801 142.45 398.638 143.602V143.604Z" fill="#FFE212"/>
<path d="M403.953 136.932L394.775 146.022C393.32 147.463 394.481 149.354 396.434 151.324C398.386 153.294 400.366 154.576 401.821 153.135L410.999 144.046C412.454 142.604 412.054 139.859 410.104 137.887C408.151 135.917 405.408 135.491 403.953 136.932Z" fill="#FFBD12"/>
<path d="M431.117 130.528L418.465 133.126C416.458 133.539 415.293 136.056 415.849 138.774C416.408 141.491 418.473 143.346 420.48 142.935L433.132 140.337C435.137 139.926 436.304 137.406 435.745 134.689C435.189 131.971 433.124 130.117 431.117 130.528Z" fill="#212E5C"/>
<path d="M431.613 126.813C438.839 123.126 449.468 118.558 459.907 121.004C461.901 121.471 464.286 123.949 465.227 128.53C466.166 133.113 464.92 136.287 463.303 137.543C455.679 143.467 443.615 143.776 435.011 143.352C432.965 143.252 430.63 140.406 429.691 135.826C428.75 131.243 429.789 127.743 431.613 126.813Z" fill="#FFE212"/>
<path d="M448.226 125.326C452.29 124.534 456.561 124.369 460.801 125.362C462.455 125.749 464.375 127.526 465.52 130.732C465.729 134.128 464.646 136.5 463.303 137.543C455.679 143.467 443.615 143.776 435.011 143.352C433.309 143.267 431.411 141.283 430.278 137.98C430.021 134.504 430.991 131.945 432.509 131.169C436.798 128.98 442.289 126.48 448.226 125.323V125.326Z" fill="#FFBD12"/>
<path d="M405.501 131.019C408.503 130.408 411.619 131.232 413.925 133.248L417.047 132.606C419.378 132.128 420.58 134.528 421.228 137.685C421.876 140.841 421.717 143.52 419.386 143.998L416.449 144.6C415.169 147.507 412.562 149.615 409.451 150.259C404.14 151.35 398.949 147.926 397.858 142.613C396.766 137.3 400.19 132.108 405.501 131.017V131.019Z" fill="#FFE212"/>
<path d="M403.171 137.663C401.486 140.217 402.192 143.654 404.747 145.337C407.301 147.022 410.736 146.315 412.421 143.761C414.106 141.207 413.399 137.769 410.845 136.087C409.619 135.278 408.121 134.989 406.682 135.285C405.242 135.58 403.979 136.435 403.171 137.661V137.663Z" fill="#FFEEAA"/>
<path d="M402.923 138.039C402.114 139.265 401.825 140.763 402.121 142.202C402.416 143.641 403.273 144.904 404.499 145.713C407.053 147.398 410.49 146.691 412.173 144.137C413.858 141.582 413.151 138.145 410.597 136.463C409.371 135.654 407.873 135.365 406.434 135.661C404.995 135.956 403.732 136.811 402.923 138.039Z" fill="#FFBD12"/>
<path d="M403.303 132.023C401.762 132.771 400.449 133.917 399.501 135.343C402.034 132.352 406.129 131.202 409.849 132.437C414.88 134.11 417.602 139.543 415.928 144.574C415.654 145.387 415.271 146.159 414.793 146.872C415.586 145.939 416.195 144.861 416.584 143.698C418.256 138.667 415.536 133.232 410.506 131.56C408.136 130.771 405.551 130.939 403.303 132.023Z" fill="#FFEEAA"/>
<path d="M408.671 143.309C409.062 143.12 409.397 142.828 409.638 142.465C408.995 143.224 407.953 143.517 407.008 143.204C405.729 142.778 405.038 141.398 405.462 140.12C405.532 139.913 405.629 139.717 405.751 139.537C405.549 139.774 405.395 140.048 405.297 140.343C404.871 141.622 405.562 143.002 406.84 143.428C407.442 143.628 408.099 143.587 408.671 143.311V143.309Z" fill="#FFEEAA"/>
<path d="M459.744 145.648C468.512 145.648 475.618 138.541 475.618 129.774C475.618 121.006 468.512 113.899 459.744 113.899C450.976 113.899 443.872 121.006 443.872 129.774C443.872 138.541 450.979 145.648 459.744 145.648Z" fill="#FFEEAA"/>
<path d="M458.659 147.098C467.427 147.098 474.534 139.991 474.534 131.224C474.534 122.456 467.427 115.349 458.659 115.349C449.892 115.349 442.785 122.456 442.785 131.224C442.785 139.991 449.892 147.098 458.659 147.098Z" fill="#FFBD12"/>
<path d="M450.007 130.539C450.076 129.041 450.546 127.591 451.366 126.336C449.833 129.404 450.32 133.095 452.596 135.661C455.674 139.13 460.985 139.446 464.453 136.365C465.014 135.865 465.503 135.291 465.91 134.661C465.433 135.621 464.775 136.482 463.975 137.195C460.505 140.276 455.196 139.961 452.118 136.491C450.666 134.856 449.909 132.721 450.007 130.539Z" fill="#FFEEAA"/>
<path d="M466.02 226.274C477.673 226.274 487.117 216.828 487.117 205.178C487.117 193.528 477.673 184.082 466.02 184.082C454.368 184.082 444.924 193.528 444.924 205.178C444.924 216.828 454.37 226.274 466.02 226.274Z" fill="#FFBD12"/>
<path d="M451.094 204.176L448.161 130.51C447.889 123.73 453.131 118.053 459.911 117.784C466.692 117.514 472.368 122.756 472.638 129.534L475.571 203.2C475.84 209.98 470.601 215.656 463.82 215.926C457.04 216.196 451.363 210.954 451.094 204.176Z" fill="#FFBD12"/>
<path d="M452.14 203.898L449.226 130.704C448.979 124.508 453.768 119.323 459.964 119.078C466.157 118.83 471.345 123.619 471.59 129.815L474.505 203.008C474.751 209.204 469.962 214.389 463.768 214.635C457.572 214.883 452.387 210.093 452.14 203.898Z" fill="#FFE212"/>
<path d="M454.142 201.865L451.383 132.574C451.181 127.53 455.081 123.308 460.125 123.108C465.166 122.908 469.388 126.806 469.59 131.85L472.349 201.141C472.549 206.185 468.651 210.406 463.607 210.606C458.564 210.807 454.342 206.909 454.142 201.865Z" fill="#FFBD12"/>
<path d="M454.92 201.658L452.174 132.719C451.992 128.11 455.553 124.254 460.161 124.071C464.77 123.889 468.627 127.45 468.809 132.058L471.555 200.997C471.738 205.606 468.177 209.463 463.568 209.646C458.961 209.83 455.103 206.267 454.92 201.658Z" fill="#FFE212"/>
<path d="M460.296 196.208L457.968 137.724C457.907 136.211 459.079 134.943 460.592 134.882C462.107 134.822 463.372 135.993 463.433 137.506L465.764 195.991C465.823 197.504 464.653 198.771 463.138 198.832C461.625 198.893 460.357 197.723 460.296 196.208Z" fill="#FFBD12"/>
<path d="M450.6 124.167C449.652 125.919 449.189 127.893 449.261 129.884C449.626 125.341 452.716 121.473 457.068 120.117C462.955 118.284 469.214 121.573 471.047 127.463C471.34 128.417 471.503 129.406 471.534 130.404C471.651 128.982 471.494 127.552 471.073 126.189C469.24 120.299 462.981 117.01 457.092 118.843C454.318 119.706 451.989 121.615 450.6 124.167Z" fill="#FFEEAA"/>
<path d="M460.285 139.004C465.22 139.004 469.221 135.004 469.221 130.069C469.221 125.134 465.22 121.134 460.285 121.134C455.351 121.134 451.353 125.134 451.353 130.069C451.353 135.004 455.353 139.004 460.285 139.004Z" fill="#FFEEAA"/>
<path d="M460.266 140.024C465.201 140.024 469.201 136.024 469.201 131.089C469.201 126.154 465.201 122.154 460.266 122.154C455.331 122.154 451.331 126.154 451.331 131.089C451.331 136.024 455.331 140.024 460.266 140.024Z" fill="#FFBD12"/>
<path d="M456.085 133.615C455.624 132.908 455.363 132.089 455.327 131.247C455.633 133.154 457.068 134.68 458.951 135.106C461.496 135.68 464.027 134.082 464.603 131.534C464.694 131.121 464.729 130.7 464.709 130.278C464.805 130.874 464.788 131.482 464.657 132.071C464.081 134.619 461.551 136.217 459.003 135.641C457.803 135.371 456.757 134.643 456.085 133.613V133.615Z" fill="#FFEEAA"/>
<path d="M444.622 117.386C447.255 114.534 455.109 114.449 459.988 116.054C461.729 116.597 463.44 117.371 465.016 118.421C468.301 120.61 471.068 124.11 471.655 128.528C472.144 134.948 472.062 138.193 472.214 142C472.349 145.4 472.39 149.339 472.623 153.122C472.644 153.333 472.762 153.513 473.014 153.744C473.268 153.974 473.64 154.222 474.051 154.516C474.873 155.105 475.855 155.918 476.247 157.346L476.258 157.39L476.262 157.433C476.262 157.433 477.714 182.801 477.962 190.23L477.101 190.258C476.855 182.895 475.412 157.67 475.405 157.555C475.081 156.409 474.327 155.774 473.549 155.218C473.157 154.937 472.766 154.683 472.434 154.383C472.103 154.081 471.816 153.703 471.764 153.213V153.194C471.527 149.374 471.488 145.42 471.351 142.035C470.812 135.343 471.74 136.228 470.799 128.641C469.355 122.515 465.155 118.621 459.792 116.899C455.409 115.799 447.687 114.697 444.77 118.721C443.359 120.667 444.261 122.669 445.202 123.723L444.848 125.08C443.348 123.199 441.991 120.239 444.622 117.386ZM446.178 118.101C449.022 116.245 454.561 115.767 459.707 117.321C464.851 118.875 469.61 122.582 470.499 129.202C471.168 134.195 470.742 133.919 471.044 142.08C471.177 145.637 471.366 149.913 471.597 153.855C471.618 154.053 471.736 154.224 472.005 154.444C472.273 154.663 472.671 154.898 473.101 155.179C473.96 155.737 474.975 156.533 475.279 157.979L475.286 158.011V158.044C475.286 158.044 476.558 183.484 476.805 190.906L475.942 190.934C475.697 183.551 474.431 158.201 474.429 158.137C474.184 157.014 473.436 156.427 472.629 155.9C472.225 155.635 471.81 155.4 471.457 155.111C471.105 154.822 470.792 154.446 470.738 153.948V153.937L470.736 153.926C470.503 149.972 470.316 145.681 470.181 142.113C469.879 133.928 470.292 134.161 469.642 129.317C468.801 123.056 464.383 119.636 459.457 118.149C454.535 116.688 449.383 116.88 446.187 119.341C445.689 119.725 445.615 120.519 446.139 121.23L445.591 122.51C444.428 120.499 444.172 119.658 446.178 118.104V118.101Z" fill="#164450"/>
<path d="M467.988 185.286H519.009C529.037 185.286 537.109 193.36 537.109 203.389C537.109 213.417 529.037 221.489 519.009 221.489H467.988C457.959 221.489 449.885 213.417 449.885 203.389C449.885 193.36 457.959 185.286 467.988 185.286Z" fill="#FFBD12"/>
<path d="M468.338 186.849H518.659C527.822 186.849 535.199 194.225 535.199 203.389C535.199 212.552 527.822 219.928 518.659 219.928H468.338C459.175 219.928 451.798 212.55 451.798 203.389C451.798 194.228 459.175 186.849 468.338 186.849Z" fill="#FFE212"/>
<path d="M456.633 191.682C453.642 194.671 451.798 198.806 451.798 203.387C451.798 204.297 451.874 205.193 452.016 206.063C451.961 205.515 451.933 204.961 451.933 204.397C451.933 195.234 459.311 187.858 468.473 187.858H518.792C527.04 187.858 533.835 193.834 535.114 201.71C534.277 193.341 527.255 186.847 518.659 186.847H468.338C463.757 186.847 459.622 188.693 456.633 191.682Z" fill="#FFEEAA"/>
<path d="M471.223 189.923H515.774C523.233 189.923 529.237 195.928 529.237 203.389C529.237 210.85 523.233 216.854 515.774 216.854H471.223C463.764 216.854 457.757 210.85 457.757 203.389C457.757 195.928 463.764 189.923 471.223 189.923Z" fill="#FFBD12"/>
<path d="M471.484 191.086H515.513C522.329 191.086 527.816 196.573 527.816 203.389C527.816 210.204 522.329 215.691 515.513 215.691H471.484C464.668 215.691 459.181 210.204 459.181 203.389C459.181 196.573 464.668 191.086 471.484 191.086Z" fill="#FFE212"/>
<path d="M478.703 203.389C478.703 205.248 477.966 207.028 476.651 208.343C475.338 209.656 473.555 210.396 471.699 210.396C469.842 210.396 468.057 209.656 466.744 208.343C465.429 207.03 464.692 205.248 464.692 203.389C464.692 201.53 465.429 199.747 466.744 198.434C468.057 197.121 469.84 196.382 471.699 196.382C473.557 196.382 475.338 197.121 476.651 198.434C477.966 199.747 478.703 201.53 478.703 203.389Z" fill="#FFBD12"/>
<path d="M468.14 204.787C467.853 204.156 467.74 203.458 467.812 202.769C467.829 204.354 468.807 205.772 470.286 206.348C472.284 207.126 474.536 206.137 475.314 204.137C475.44 203.813 475.521 203.474 475.555 203.128C475.56 203.624 475.471 204.117 475.292 204.58C474.514 206.58 472.262 207.569 470.264 206.791C469.32 206.424 468.56 205.704 468.14 204.787Z" fill="#FFEEAA"/>
<path d="M493.828 203.389C493.828 205.248 493.091 207.028 491.775 208.343C490.462 209.656 488.68 210.396 486.821 210.396C484.962 210.396 483.182 209.656 481.869 208.343C480.553 207.03 479.814 205.248 479.814 203.389C479.814 201.53 480.553 199.747 481.869 198.434C483.182 197.121 484.964 196.382 486.821 196.382C488.678 196.382 490.462 197.121 491.775 198.434C493.091 199.747 493.828 201.53 493.828 203.389Z" fill="#FFBD12"/>
<path d="M491.347 203.389C491.347 205.889 489.321 207.915 486.821 207.915C484.321 207.915 482.297 205.889 482.297 203.389C482.297 200.889 484.323 198.863 486.821 198.863C489.319 198.863 491.347 200.889 491.347 203.389Z" fill="#FFE212"/>
<path d="M521.374 197.434H502.235C501.967 197.434 501.752 197.626 501.752 197.863V200.943C501.752 201.18 501.967 201.371 502.235 201.371H521.374C521.642 201.371 521.857 201.18 521.857 200.943V197.863C521.857 197.626 521.642 197.434 521.374 197.434Z" fill="#212E5C"/>
<path d="M521.163 202.734H511.856C511.472 202.734 511.163 203.008 511.163 203.35V207.776C511.163 208.117 511.472 208.391 511.856 208.391H521.163C521.548 208.391 521.857 208.117 521.857 207.776V203.35C521.857 203.008 521.548 202.734 521.163 202.734Z" fill="#212E5C"/>
<path d="M507.337 113.593C504.948 109.456 499.658 108.038 495.523 110.427C493.536 111.575 492.086 113.462 491.493 115.68C490.899 117.895 491.21 120.256 492.356 122.243C494.745 126.38 500.034 127.797 504.172 125.408C508.309 123.019 509.726 117.73 507.337 113.595V113.593Z" fill="#212E5C"/>
<path d="M513.152 112.719C512.128 113.288 510.837 112.923 510.265 111.901C507.978 107.936 503.65 105.618 499.08 105.91C494.513 106.201 490.515 109.051 488.747 113.275C488.465 113.986 487.819 114.49 487.058 114.592C486.299 114.695 485.543 114.379 485.082 113.766C484.621 113.153 484.525 112.342 484.834 111.64C487.219 105.938 492.641 102.073 498.811 101.679C504.98 101.286 510.85 104.429 513.939 109.784C514.235 110.275 514.315 110.866 514.168 111.421C514.018 111.975 513.652 112.445 513.152 112.723V112.719Z" fill="#FFE212"/>
<path d="M519.52 109.177C518.494 109.743 517.205 109.369 516.639 108.343C512.989 101.938 506.026 98.1727 498.669 98.6205C491.31 99.0705 484.858 103.655 482.014 110.456C481.727 111.164 481.084 111.664 480.325 111.767C479.566 111.869 478.814 111.551 478.353 110.943C477.893 110.332 477.797 109.521 478.101 108.821C481.564 100.536 489.447 94.9356 498.411 94.3878C507.374 93.8399 515.878 98.4422 520.326 106.242C520.618 106.736 520.696 107.327 520.544 107.879C520.392 108.432 520.022 108.901 519.52 109.177Z" fill="#FFE212"/>
<path d="M513.152 112.719C512.128 113.288 510.837 112.923 510.265 111.901C507.978 107.936 503.65 105.618 499.08 105.91C494.513 106.201 490.515 109.051 488.747 113.275C488.465 113.986 487.819 114.49 487.058 114.592C486.299 114.695 485.543 114.379 485.082 113.766C484.621 113.153 484.525 112.342 484.834 111.64C487.219 105.938 492.641 102.073 498.811 101.679C504.98 101.286 510.85 104.429 513.939 109.784C514.235 110.275 514.315 110.866 514.168 111.421C514.018 111.975 513.652 112.445 513.152 112.723V112.719Z" fill="#FFE212"/>
<path d="M526.085 104.801C525.109 105.358 523.868 105.021 523.309 104.045C518.059 95.166 508.259 90.0137 497.969 90.7246C487.68 91.4355 478.682 97.8835 474.701 107.399C474.427 108.082 473.808 108.562 473.079 108.66C472.351 108.758 471.629 108.453 471.186 107.869C470.744 107.282 470.651 106.503 470.944 105.829C475.514 94.9008 485.871 87.4788 497.689 86.6636C509.506 85.8484 520.785 91.7746 526.813 101.973C527.1 102.442 527.185 103.008 527.048 103.54C526.911 104.073 526.563 104.527 526.085 104.801Z" fill="#FFE212"/>
<path d="M500.706 127.382L500.778 127.676V128.969L500.539 129.471L499.997 129.602L499.556 129.263L499.484 128.969V127.676L499.723 127.173L500.265 127.043L500.706 127.382ZM500.706 131.26L500.778 131.554V132.847L500.539 133.35L499.997 133.48L499.556 133.141L499.484 132.847V131.554L499.723 131.052L500.265 130.921L500.706 131.26ZM500.706 135.139L500.778 135.432V136.726L500.539 137.228L499.997 137.359L499.556 137.019L499.484 136.724V135.43L499.723 134.928L500.265 134.798L500.706 135.137V135.139ZM500.706 139.017L500.778 139.311V140.604L500.539 141.106L499.997 141.237L499.556 140.898L499.484 140.604V139.311L499.723 138.809L500.265 138.678L500.706 139.017ZM500.706 142.896L500.778 143.189V144.483L500.539 144.985L499.997 145.115L499.556 144.776L499.484 144.48V143.187L499.723 142.685L500.265 142.554L500.706 142.893V142.896ZM500.706 146.774L500.778 147.067V148.361L500.539 148.863L499.997 148.994L499.556 148.654L499.484 148.361V147.067L499.723 146.565L500.265 146.435L500.706 146.774ZM500.706 150.652L500.778 150.946V152.239L500.539 152.742L499.997 152.872L499.556 152.533L499.484 152.239V150.946L499.723 150.444L500.265 150.313L500.706 150.652ZM500.706 154.531L500.778 154.824V156.118L500.539 156.62L499.997 156.75L499.556 156.411L499.484 156.116V154.822L499.723 154.32L500.265 154.189L500.706 154.529V154.531ZM500.706 158.409L500.778 158.703V159.996L500.539 160.498L499.997 160.629L499.556 160.29L499.484 159.996V158.703L499.723 158.2L500.265 158.07L500.706 158.409ZM500.706 162.288L500.778 162.581V163.875L500.539 164.377L499.997 164.507L499.556 164.168L499.484 163.872V162.579L499.723 162.077L500.265 161.946L500.706 162.285V162.288ZM500.706 166.166L500.778 166.459V167.753L500.539 168.255L499.997 168.386L499.556 168.046L499.484 167.753V166.459L499.723 165.957L500.265 165.827L500.706 166.166ZM500.706 170.044L500.778 170.338V171.631L500.539 172.133L499.997 172.264L499.556 171.925L499.484 171.631V170.338L499.723 169.836L500.265 169.705L500.706 170.044ZM500.706 173.923L500.778 174.216V175.51L500.539 176.012L499.997 176.142L499.556 175.803L499.484 175.51V174.216L499.723 173.714L500.265 173.584L500.706 173.923ZM500.706 177.801L500.778 178.095V179.388L500.539 179.89L499.997 180.021L499.556 179.682L499.484 179.388V178.095L499.723 177.592L500.265 177.462L500.706 177.801ZM500.706 181.679L500.778 181.973V183.266L500.539 183.769L499.997 183.899L499.556 183.56L499.484 183.264V181.971L499.723 181.469L500.265 181.338L500.706 181.677V181.679Z" fill="#FFE212"/>
<path d="M381.966 170.964L397.314 163.546L397.79 168.364L381.966 170.964Z" fill="#FFE212"/>
<path d="M375.518 169.277L372.209 158.694L368.531 161.092L375.518 169.277Z" fill="#FFE212"/>
<path d="M387.485 173.557L395.381 174.455L394.131 177.305L387.485 173.555V173.557Z" fill="#FFE212"/>
<path d="M377.287 164.312L379.537 146.646L375.159 147L377.287 164.312Z" fill="#FFE212"/>
<path d="M314.835 58.0345C316.979 54.3191 321.729 53.0474 325.444 55.1909C327.227 56.2214 328.529 57.9171 329.062 59.9063C329.595 61.8955 329.316 64.0151 328.286 65.7999C326.142 69.5153 321.392 70.787 317.677 68.6435C313.964 66.4999 312.69 61.7498 314.835 58.0345Z" fill="#212E5C"/>
<path d="M309.613 57.2517C310.533 57.7648 311.692 57.4343 312.205 56.5169C314.259 52.956 318.146 50.8755 322.249 51.1363C326.351 51.3972 329.94 53.956 331.527 57.7496C331.782 58.3887 332.362 58.8409 333.045 58.9322C333.725 59.0235 334.403 58.7387 334.819 58.1909C335.232 57.6409 335.319 56.9104 335.042 56.28C332.899 51.1581 328.031 47.6884 322.492 47.334C316.953 46.9797 311.681 49.8037 308.905 54.6103C308.642 55.0517 308.568 55.5821 308.703 56.08C308.835 56.5778 309.163 56.9996 309.613 57.2496V57.2517Z" fill="#FFE212"/>
<path d="M303.894 54.0713C304.815 54.5778 305.974 54.243 306.481 53.3213C309.759 47.5711 316.011 44.1884 322.618 44.5928C329.225 44.9971 335.019 49.1125 337.573 55.2213C337.83 55.8583 338.41 56.3083 339.09 56.3975C339.771 56.4866 340.447 56.204 340.86 55.6561C341.275 55.1083 341.362 54.38 341.088 53.7496C337.977 46.3102 330.899 41.2818 322.851 40.7883C314.803 40.2948 307.166 44.4275 303.172 51.4343C302.911 51.8778 302.839 52.4082 302.976 52.9039C303.113 53.3995 303.444 53.8213 303.894 54.0691V54.0713Z" fill="#FFE212"/>
<path d="M309.613 57.2517C310.533 57.7648 311.692 57.4343 312.205 56.5169C314.259 52.956 318.146 50.8755 322.249 51.1363C326.351 51.3972 329.94 53.956 331.527 57.7496C331.782 58.3887 332.362 58.8409 333.045 58.9322C333.725 59.0235 334.403 58.7387 334.819 58.1909C335.232 57.6409 335.319 56.9104 335.042 56.28C332.899 51.1581 328.031 47.6884 322.492 47.334C316.953 46.9797 311.681 49.8037 308.905 54.6103C308.642 55.0517 308.568 55.5821 308.703 56.08C308.835 56.5778 309.163 56.9996 309.613 57.2496V57.2517Z" fill="#FFE212"/>
<path d="M297.998 50.1406C298.876 50.6407 299.991 50.3363 300.494 49.4624C305.207 41.4904 314.005 36.8642 323.246 37.5033C332.486 38.1403 340.567 43.9318 344.141 52.4777C344.386 53.0907 344.943 53.5234 345.595 53.6103C346.249 53.6973 346.899 53.4255 347.297 52.8994C347.695 52.3733 347.778 51.6733 347.512 51.0689C343.41 41.2556 334.11 34.5923 323.499 33.8597C312.885 33.1271 302.759 38.449 297.346 47.6058C297.087 48.0275 297.011 48.5362 297.135 49.0145C297.259 49.4928 297.57 49.9015 297.998 50.1472V50.1406Z" fill="#FFE212"/>
<path d="M321.209 71.4521L321.144 71.7151V72.876L321.362 73.3282L321.846 73.4456L322.242 73.1412L322.305 72.876V71.7151L322.092 71.2651L321.605 71.1477L321.209 71.4521ZM321.209 74.9348L321.144 75.1978V76.3587L321.362 76.8109L321.846 76.9283L322.242 76.624L322.305 76.3587V75.1978L322.092 74.7478L321.605 74.6304L321.209 74.9348ZM321.209 78.4175L321.144 78.6805V79.8415L321.362 80.2915L321.846 80.4089L322.242 80.1045L322.305 79.8393V78.6784L322.092 78.2284L321.605 78.111L321.209 78.4153V78.4175ZM321.209 81.9002L321.144 82.1633V83.3242L321.362 83.7763L321.846 83.8937L322.242 83.5894L322.305 83.3242V82.1633L322.092 81.7132L321.605 81.5958L321.209 81.9002ZM321.209 85.3829L321.144 85.646V86.8069L321.362 87.2569L321.846 87.3743L322.242 87.0699L322.305 86.8047V85.6438L322.092 85.1938L321.605 85.0764L321.209 85.3807V85.3829ZM321.209 88.8656L321.144 89.1287V90.2896L321.362 90.7418L321.846 90.8592L322.242 90.5548L322.305 90.2896V89.1287L322.092 88.6787L321.605 88.5613L321.209 88.8656ZM321.209 92.3484L321.144 92.6114V93.7723L321.362 94.2223L321.846 94.3397L322.242 94.0354L322.305 93.7701V92.6092L322.092 92.1592L321.605 92.0418L321.209 92.3462V92.3484ZM321.209 95.8311L321.144 96.0941V97.255L321.362 97.7072L321.846 97.8246L322.242 97.5202L322.305 97.255V96.0941L322.092 95.6441L321.605 95.5267L321.209 95.8311ZM321.209 99.3138L321.144 99.5768V100.738L321.362 101.188L321.846 101.305L322.242 101.001L322.305 100.736V99.5747L322.092 99.1246L321.605 99.0073L321.209 99.3116V99.3138ZM321.209 102.796L321.144 103.06V104.22L321.362 104.673L321.846 104.79L322.242 104.486L322.305 104.22V103.06L322.092 102.61L321.605 102.492L321.209 102.796ZM321.209 106.277L321.144 106.54V107.701L321.362 108.153L321.846 108.271L322.242 107.966L322.305 107.701V106.54L322.092 106.09L321.605 105.973L321.209 106.277ZM321.209 109.762L321.144 110.025V111.186L321.362 111.638L321.846 111.755L322.242 111.451L322.305 111.186V110.025L322.092 109.575L321.605 109.458L321.209 109.762ZM321.209 113.242L321.144 113.506V114.666L321.362 115.119L321.846 115.236L322.242 114.932L322.305 114.666V113.506L322.092 113.055L321.605 112.938L321.209 113.242ZM321.209 116.725L321.144 116.988V118.149L321.362 118.601L321.846 118.719L322.242 118.414L322.305 118.149V116.988L322.092 116.538L321.605 116.421L321.209 116.725ZM321.209 120.208L321.144 120.471V121.632L321.362 122.084L321.846 122.201L322.242 121.897L322.305 121.632V120.471L322.092 120.021L321.605 119.904L321.209 120.208Z" fill="#FFE212"/>
<path d="M268.221 124.252H367.272C370.152 124.252 373.074 126.593 373.822 129.502L388.992 188.369C389.74 191.278 388.027 193.619 385.146 193.619H286.095C283.215 193.619 280.293 191.278 279.543 188.369L264.375 129.502C263.625 126.593 265.34 124.252 268.221 124.252Z" fill="#7696EA"/>
<path d="M271.869 126.8H364.937C367.641 126.8 370.38 128.969 371.074 131.665L385.129 186.208C385.822 188.904 384.203 191.073 381.498 191.073H288.43C285.724 191.073 282.987 188.904 282.293 186.208L268.238 131.665C267.543 128.969 269.162 126.8 271.869 126.8Z" fill="#212E5C"/>
<path d="M278.819 150.076H322.327C323.714 150.076 325.131 151.237 325.503 152.678L334.103 186.06C334.475 187.501 333.658 188.662 332.271 188.662H288.763C287.376 188.662 285.961 187.501 285.589 186.06L276.986 152.678C276.615 151.237 277.432 150.076 278.819 150.076Z" fill="white"/>
<path d="M328.201 150.076H371.709C373.096 150.076 374.511 151.237 374.883 152.678L383.485 186.06C383.857 187.501 383.04 188.662 381.653 188.662H338.145C336.758 188.662 335.342 187.501 334.971 186.06L326.368 152.678C325.996 151.237 326.814 150.076 328.201 150.076Z" fill="white"/>
<path d="M341.821 161.94C342.501 161.94 343.195 162.509 343.377 163.216L348.445 182.886C348.628 183.593 348.228 184.162 347.547 184.162C346.867 184.162 346.173 183.593 345.991 182.886L340.923 163.216C340.74 162.509 341.14 161.94 341.821 161.94Z" fill="#9EA0A9"/>
<path d="M343.562 168.694C344.243 168.694 344.936 169.264 345.119 169.97L348.445 182.884C348.628 183.59 348.228 184.16 347.547 184.16C346.867 184.16 346.173 183.59 345.991 182.884L342.664 169.97C342.482 169.264 342.882 168.694 343.562 168.694Z" fill="#7696EA"/>
<path d="M349.041 161.94C349.721 161.94 350.415 162.509 350.597 163.216L355.665 182.884C355.847 183.59 355.447 184.16 354.767 184.16C354.087 184.16 353.393 183.59 353.21 182.884L348.143 163.216C347.96 162.509 348.36 161.94 349.041 161.94Z" fill="#9EA0A9"/>
<path d="M352.252 174.401C352.932 174.401 353.626 174.97 353.808 175.677L355.665 182.884C355.847 183.59 355.447 184.16 354.767 184.16C354.087 184.16 353.393 183.59 353.21 182.884L351.354 175.677C351.171 174.97 351.571 174.401 352.252 174.401Z" fill="#7696EA"/>
<path d="M356.261 161.94C356.941 161.94 357.634 162.509 357.817 163.216L362.885 182.884C363.067 183.59 362.665 184.16 361.987 184.16C361.309 184.16 360.613 183.59 360.43 182.884L355.363 163.216C355.18 162.509 355.58 161.94 356.261 161.94Z" fill="#9EA0A9"/>
<path d="M357.267 165.842C357.945 165.842 358.667 166.516 358.882 167.353L362.824 182.647C363.039 183.484 362.665 184.158 361.987 184.158C361.308 184.158 360.585 183.484 360.369 182.647L356.428 167.353C356.213 166.516 356.587 165.842 357.267 165.842Z" fill="#7696EA"/>
<path d="M363.48 161.94C364.159 161.94 364.854 162.509 365.037 163.216L370.104 182.884C370.287 183.59 369.885 184.16 369.207 184.16C368.528 184.16 367.833 183.59 367.65 182.884L362.58 163.216C362.4 162.509 362.8 161.94 363.48 161.94Z" fill="#9EA0A9"/>
<path d="M365.622 170.947H365.98C366.561 170.947 367.154 171.433 367.309 172.038L370.152 183.071C370.309 183.675 369.965 184.162 369.385 184.162H369.026C368.446 184.162 367.852 183.675 367.698 183.071L364.854 172.038C364.7 171.433 365.041 170.947 365.622 170.947Z" fill="#7696EA"/>
<path d="M272.165 129.206H366.885C367.565 129.206 368.259 129.776 368.441 130.482L372.659 146.848C372.842 147.554 372.439 148.124 371.761 148.124H277.041C276.36 148.124 275.667 147.554 275.484 146.848L271.267 130.482C271.084 129.776 271.486 129.206 272.165 129.206Z" fill="white"/>
<path d="M277.086 142.42C281.697 142.133 283.861 139.711 288.798 139.117C295.896 138.263 285.748 140.17 295.343 139.867C304.942 139.567 301.635 136.263 307.448 136.413C313.264 136.563 313.692 140.467 321.662 140.017C325.486 139.802 330.155 135.602 335.977 137.306C341.019 138.783 341.971 140.502 344.588 138.215C348.689 134.632 361.161 142.57 367.148 142.27L277.086 142.42Z" fill="#7696EA"/>
<path d="M367.185 142.419C363.574 143.161 358.424 136.856 353.182 136.263C345.643 135.408 348.867 141.367 339.114 141.067C329.364 140.767 327.818 137.013 322.081 137.163C316.344 137.313 316.379 141.367 308.176 140.917C299.974 140.467 296.189 134.817 289.976 134.16C283.743 133.502 283.008 141.745 277.047 142.267L367.185 142.417V142.419Z" fill="#7696EA"/>
<path d="M281.476 153.298C281.354 153.298 281.284 153.405 281.317 153.531L289.326 184.612C289.358 184.738 289.485 184.84 289.606 184.84H326.857C326.938 184.84 327.001 184.799 327.023 184.727C327.044 184.656 327.02 184.569 326.962 184.497C326.903 184.425 326.818 184.382 326.74 184.384H289.708L281.758 153.533C281.743 153.472 281.704 153.411 281.649 153.368C281.597 153.324 281.534 153.3 281.476 153.3V153.298Z" fill="#7696EA"/>
<path d="M318.777 154.05C318.703 154.05 318.646 154.092 318.625 154.155L311.661 172.064L306.32 162.029C306.272 161.94 306.179 161.874 306.087 161.864C305.996 161.853 305.922 161.901 305.9 161.983L301.961 177.416L296.03 170.968C295.976 170.907 295.9 170.87 295.828 170.868C295.759 170.868 295.7 170.901 295.672 170.96L289.958 182.971C289.911 183.071 289.967 183.214 290.082 183.292C290.2 183.369 290.332 183.351 290.38 183.249L295.974 171.488L301.952 177.984C302.013 178.049 302.096 178.088 302.172 178.084C302.248 178.079 302.304 178.034 302.322 177.962L306.218 162.698L311.524 172.664C311.57 172.749 311.655 172.814 311.744 172.827C311.831 172.84 311.907 172.803 311.935 172.729L319.055 154.411C319.085 154.339 319.066 154.248 319.007 154.172C318.948 154.096 318.859 154.05 318.777 154.052V154.05Z" fill="#FFE212"/>
<path d="M341.491 155.333C341.684 156.079 341.258 156.685 340.538 156.685C340.195 156.685 339.827 156.542 339.519 156.289C339.21 156.035 338.984 155.692 338.89 155.335C338.799 154.976 338.847 154.633 339.025 154.379C339.204 154.124 339.497 153.983 339.843 153.983C340.56 153.983 341.299 154.587 341.491 155.335V155.333Z" fill="#7696EA"/>
<path d="M348.758 155.333C348.952 156.079 348.525 156.685 347.806 156.685C347.086 156.685 346.351 156.081 346.16 155.333C345.967 154.587 346.393 153.981 347.11 153.981C347.828 153.981 348.567 154.585 348.758 155.333Z" fill="#7696EA"/>
<path d="M356.026 155.333C356.219 156.079 355.793 156.685 355.073 156.685C354.354 156.685 353.619 156.081 353.428 155.333C353.234 154.587 353.66 153.981 354.378 153.981C355.095 153.981 355.834 154.585 356.026 155.333Z" fill="#7696EA"/>
<path d="M363.293 155.333C363.487 156.079 363.061 156.685 362.341 156.685C361.998 156.685 361.63 156.542 361.321 156.289C361.013 156.035 360.787 155.692 360.693 155.335C360.602 154.976 360.65 154.633 360.828 154.379C361.006 154.124 361.3 153.983 361.645 153.983C362.363 153.983 363.102 154.587 363.293 155.335V155.333Z" fill="#7696EA"/>
<path d="M327.627 169.896C327.862 170.809 327.342 171.549 326.466 171.549C326.044 171.549 325.594 171.375 325.218 171.066C324.84 170.757 324.564 170.336 324.451 169.899C324.338 169.462 324.397 169.04 324.616 168.731C324.833 168.422 325.192 168.249 325.614 168.249C326.492 168.249 327.392 168.988 327.627 169.901V169.896Z" fill="#7696EA"/>
<path d="M329.088 175.001C329.323 175.914 328.803 176.653 327.925 176.653C327.503 176.653 327.055 176.479 326.677 176.17C326.299 175.862 326.025 175.44 325.912 175.003C325.799 174.566 325.857 174.144 326.075 173.836C326.294 173.527 326.653 173.353 327.075 173.353C327.951 173.353 328.853 174.092 329.088 175.005V175.001Z" fill="#7696EA"/>
<path d="M330.325 179.806C330.56 180.719 330.04 181.458 329.164 181.458C328.742 181.458 328.292 181.284 327.916 180.973C327.538 180.664 327.262 180.243 327.149 179.806C327.036 179.369 327.094 178.947 327.314 178.638C327.531 178.327 327.89 178.153 328.312 178.153C329.19 178.153 330.09 178.892 330.325 179.806Z" fill="#7696EA"/>
<path d="M378.618 43.547C378.618 43.547 375.818 78.1959 389.825 95.8856C393.929 100.151 400.731 96.5095 400.731 96.5095C400.731 96.5095 404.536 100.464 404.334 107.227C404.134 113.99 400.831 122.73 400.831 122.73L449.863 116.486C449.863 116.486 436.856 91.5137 434.254 83.1895C430.452 72.7849 447.042 57.4887 439.437 38.7599C431.832 20.0311 426.247 21.7985 426.247 21.7985C426.247 21.7985 387.625 3.90234 378.618 43.5448V43.547Z" fill="#F8A6B3"/>
<path d="M448.796 43.1687C448.92 43.1144 449.472 55.2582 445.489 65.2107C440.806 76.9176 435.378 85.5396 437.128 89.881C436.232 86.4527 421.195 87.5701 417.682 91.9028C406.066 86.9744 410.188 77.1676 398.625 68.2434C393.957 67.8391 388.318 60.8628 388.318 60.8628C386.703 60.304 390.54 53.3082 386.957 43.5731C404.847 32.0467 448.796 43.1687 448.796 43.1687Z" fill="#936234"/>
<path d="M384.844 38.249C384.331 38.3186 383.524 38.7751 383.164 39.4425C382.803 40.1121 382.831 40.6621 382.868 41.0035C382.87 41.0187 382.872 41.023 382.874 41.0361C382.853 41.2687 382.833 41.4861 382.807 41.823C382.74 42.7905 382.666 44.1818 382.633 45.9253C382.568 49.4124 382.672 54.3039 383.327 59.9932C384.637 71.3739 386.938 85.7766 395.847 98.5769L400.729 97.053C400.729 97.053 399.703 90.8397 399.547 83.2243C399.401 76.2632 400.262 68.1238 403.371 62.3215C411.54 67.5347 425.087 68.5043 435.006 66.6108C445.891 64.6085 451.153 51.2103 451.326 45.3123C451.772 44.0883 451.207 42.7057 450.074 42.2404C448.942 41.7752 447.674 42.4035 447.261 43.6405C447.261 53.4473 441.672 59.8975 435.363 61.9867C424.313 64.715 411.984 63.202 403.549 56.9257H403.547C398.925 53.4473 394.442 48.995 391.299 45.4405C390.307 44.3188 389.509 43.3448 388.825 42.4709L392.522 41.9752L386.081 38.4795C386.081 38.4795 385.405 38.7143 384.729 38.9643L384.844 38.249ZM386.996 47.3384C387.383 47.795 387.729 48.2211 388.164 48.7124C391.175 52.1147 395.29 56.2061 399.738 59.7345C395.796 66.8368 395.042 75.8567 395.199 83.3373C395.225 84.6852 395.318 85.8874 395.396 87.1201C390.775 77.598 388.59 67.6521 387.642 59.4127C387.088 54.5973 386.979 50.5342 386.996 47.3384Z" fill="#7696EA"/>
<path d="M409.703 2.41968C396.325 2.41968 384.394 8.85683 376.618 18.9158C372.157 24.6834 369.459 31.7227 367.848 39.2599C367.385 41.423 361.313 41.9948 362.226 46.6862C360.263 46.8319 458.444 46.1036 455.359 46.5406C455.542 41.6404 452.281 40.4926 451.313 37.8555C448.455 30.0749 446.229 22.292 440.952 16.4331C433.172 7.79375 421.963 2.41968 409.703 2.41968Z" fill="#EABA10"/>
<path d="M390.064 7.42631C397.555 4.61536 402.073 2.19137 410.269 2.63921C416.678 3.80446 420.586 9.43724 422.939 13.7569C425.469 18.4658 427.204 23.4877 427.204 23.4877C427.965 25.9964 430.552 27.3747 432.954 26.5508C435.359 25.7269 437.489 23.3094 436.665 20.8202C436.665 20.8202 434.717 14.7352 430.661 9.02419C426.858 3.66968 419.778 0.176092 411.001 0C402.673 0.758719 397.638 1.67614 390.064 7.42631Z" fill="#FFE212"/>
<path d="M385.842 12.3286C384.548 12.3242 383.294 12.5873 382.098 13.0373C380.103 14.8178 378.266 16.7852 376.618 18.9157C372.157 24.6833 369.459 31.7227 367.848 39.2598C367.385 41.423 361.313 41.9947 362.226 46.6862C361.491 46.7405 375.902 46.6666 392.629 46.584C402.566 40.8447 407.895 35.1054 396.583 19.3027C392.918 14.1852 389.24 12.3373 385.842 12.3264V12.3286Z" fill="#FFE212"/>
<path d="M389.679 62.1758C389.679 62.1758 388.514 46.3014 395.027 48.7297C401.542 51.1559 398.431 67.5346 396.096 70.4673C393.764 73.4 389.679 62.1758 389.679 62.1758Z" fill="#F8A6B3"/>
<path d="M390.992 120.175L393.759 113.158C393.759 113.158 404.488 95.3465 431.306 95.166C440.65 95.3465 444.457 97.8639 444.457 97.8639L451.205 111.358L390.992 120.173V120.175Z" fill="#212E5C"/>
<path d="M292.193 202.76C292.193 202.76 292.491 187.656 287.695 179.01C281.489 167.825 282.895 162.438 280.428 161.737C275.28 160.279 275.338 169.516 277.312 175.412C271.941 165.068 273.678 159.059 271.669 159.066C267.166 159.172 266.858 164.411 267.197 173.418C267.501 181.449 269.854 188.741 273.854 195.023C277.852 201.308 281.467 205.819 281.467 205.819C283.05 201.95 294.904 201.941 292.193 202.76Z" fill="#F8A6B3"/>
<path d="M433.313 105.39C420.232 105.386 408.99 111.666 400.427 115.167C386.722 120.765 370.085 127.38 368.126 128.397C361.785 130.452 357.63 134.304 355.095 139.359C337.288 156.796 329.99 208.126 317.577 221.422C316.644 222.42 315.768 223.337 314.933 224.187C313.174 221.885 310.885 219.6 307.946 217.387C295.602 208.091 296.663 202.006 296.663 202.006C296.663 202.006 284.369 195.382 276.632 206.839C275.758 215.928 295.254 249.784 305.665 257.858C310.009 261.58 316.735 262.634 326.497 256.447C341.049 247.223 357.215 231.466 366.561 221.785C372.037 243.283 371.615 255.403 371.552 278.524C371.526 288.407 371.226 295.209 371.526 300.022H471.29C471.323 299.981 471.357 299.94 471.388 299.898C467.318 287.778 469.177 275.997 473.344 257.66C477.568 239.077 486.069 228.653 496.836 199.136C507.602 169.62 503.198 138.067 490.965 131.961C478.729 125.854 471.877 121.273 458.664 114.149C449.672 107.66 441.161 105.394 433.313 105.39Z" fill="#7696EA"/>
</g>
<defs>
<clipPath id="clip0_89_10911">
<rect width="561.919" height="300.02" fill="white" transform="translate(0.0605469)"/>
</clipPath>
</defs>
</svg>
