<svg width="72" height="72" viewBox="0 0 72 72" fill="none" xmlns="http://www.w3.org/2000/svg">
<path d="M66 50.22V14.01C66 10.41 63.06 7.74002 59.49 8.04002H59.31C53.01 8.58002 43.44 11.79 38.1 15.15L37.59 15.48C36.72 16.02 35.28 16.02 34.41 15.48L33.66 15.03C28.32 11.7 18.78 8.52002 12.48 8.01002C8.91 7.71002 6 10.41 6 13.98V50.22C6 53.1 8.34 55.8 11.22 56.16L12.09 56.28C18.6 57.15 28.65 60.45 34.41 63.6L34.53 63.66C35.34 64.11 36.63 64.11 37.41 63.66C43.17 60.48 53.25 57.15 59.79 56.28L60.78 56.16C63.66 55.8 66 53.1 66 50.22Z" stroke="#1A468F" stroke-width="2" stroke-linecap="round" stroke-linejoin="round"/>
<path d="M36 16.47V61.47" stroke="#A8C0FF" stroke-width="2" stroke-linecap="round" stroke-linejoin="round"/>
<path d="M23.25 25.47H16.5" stroke="#A8C0FF" stroke-width="2" stroke-linecap="round" stroke-linejoin="round"/>
<path d="M25.5 34.47H16.5" stroke="#A8C0FF" stroke-width="2" stroke-linecap="round" stroke-linejoin="round"/>
</svg>
