<svg width="72" height="72" viewBox="0 0 72 72" fill="none" xmlns="http://www.w3.org/2000/svg">
<path d="M36 42C39.3137 42 42 39.3137 42 36C42 32.6863 39.3137 30 36 30C32.6863 30 30 32.6863 30 36C30 39.3137 32.6863 42 36 42Z" stroke="#A8C0FF" stroke-width="2" stroke-linecap="round" stroke-linejoin="round"/>
<path d="M60 54C63.78 48.99 66 42.75 66 36C66 29.25 63.78 23.01 60 18" stroke="#1A468F" stroke-width="2" stroke-linecap="round" stroke-linejoin="round"/>
<path d="M12 18C8.22 23.01 6 29.25 6 36C6 42.75 8.22 48.99 12 54" stroke="#1A468F" stroke-width="2" stroke-linecap="round" stroke-linejoin="round"/>
<path d="M50.3999 46.8C52.6499 43.8 53.9999 40.05 53.9999 36C53.9999 31.95 52.6499 28.2 50.3999 25.2" stroke="#1A468F" stroke-width="2" stroke-linecap="round" stroke-linejoin="round"/>
<path d="M21.6 25.2C19.35 28.2 18 31.95 18 36C18 40.05 19.35 43.8 21.6 46.8" stroke="#1A468F" stroke-width="2" stroke-linecap="round" stroke-linejoin="round"/>
</svg>
