<svg width="72" height="72" viewBox="0 0 72 72" fill="none" xmlns="http://www.w3.org/2000/svg">
<path d="M33 48.45V56.55C33 63.3 30.3 66 23.55 66H15.45C8.7 66 6 63.3 6 56.55V48.45C6 41.7 8.7 39 15.45 39H23.55C30.3 39 33 41.7 33 48.45Z" stroke="#A8C0FF" stroke-width="2" stroke-linecap="round" stroke-linejoin="round"/>
<path d="M66 45C66 56.61 56.61 66 45 66L48.15 60.75" stroke="#1A468F" stroke-width="2" stroke-linecap="round" stroke-linejoin="round"/>
<path d="M6 27C6 15.39 15.39 6 27 6L23.85 11.25" stroke="#A8C0FF" stroke-width="2" stroke-linecap="round" stroke-linejoin="round"/>
<path d="M52.5 33C59.9558 33 66 26.9558 66 19.5C66 12.0442 59.9558 6 52.5 6C45.0442 6 39 12.0442 39 19.5C39 26.9558 45.0442 33 52.5 33Z" stroke="#1A468F" stroke-width="2" stroke-linecap="round" stroke-linejoin="round"/>
</svg>
