<svg width="72" height="72" viewBox="0 0 72 72" fill="none" xmlns="http://www.w3.org/2000/svg">
<path d="M61.5 33.9V21.12C61.5 9.03003 58.68 6 47.34 6H24.66C13.32 6 10.5 9.03003 10.5 21.12V54.9C10.5 62.88 14.88 64.77 20.19 59.07L20.22 59.04C22.68 56.43 26.43 56.64 28.56 59.49L31.59 63.54" stroke="#1A468F" stroke-width="2" stroke-linecap="round" stroke-linejoin="round"/>
<path d="M54.6 64.2C59.902 64.2 64.2 59.902 64.2 54.6C64.2 49.2981 59.902 45 54.6 45C49.2981 45 45 49.2981 45 54.6C45 59.902 49.2981 64.2 54.6 64.2Z" stroke="#A8C0FF" stroke-width="2" stroke-linecap="round" stroke-linejoin="round"/>
<path d="M66 66L63 63" stroke="#A8C0FF" stroke-width="2" stroke-linecap="round" stroke-linejoin="round"/>
<path d="M24 21H48" stroke="#A8C0FF" stroke-width="2" stroke-linecap="round" stroke-linejoin="round"/>
<path d="M27 33H45" stroke="#A8C0FF" stroke-width="2" stroke-linecap="round" stroke-linejoin="round"/>
</svg>
