<svg width="72" height="72" viewBox="0 0 72 72" fill="none" xmlns="http://www.w3.org/2000/svg">
<path d="M54 56.58H51.72C49.32 56.58 47.04 57.5099 45.36 59.1899L40.2299 64.2599C37.8899 66.5699 34.0801 66.5699 31.7401 64.2599L26.61 59.1899C24.93 57.5099 22.62 56.58 20.25 56.58H18C13.02 56.58 9 52.59 9 47.67V14.9399C9 10.0199 13.02 6.03003 18 6.03003H54C58.98 6.03003 63 10.0199 63 14.9399V47.67C63 52.56 58.98 56.58 54 56.58Z" stroke="#1A468F" stroke-width="2" stroke-miterlimit="10" stroke-linecap="round" stroke-linejoin="round"/>
<path d="M36.0001 30C39.8605 30 42.9901 26.8704 42.9901 23.0099C42.9901 19.1495 39.8605 16.0201 36.0001 16.0201C32.1396 16.0201 29.01 19.1495 29.01 23.0099C29.01 26.8704 32.1396 30 36.0001 30Z" stroke="#A8C0FF" stroke-width="2" stroke-linecap="round" stroke-linejoin="round"/>
<path d="M48 46.9799C48 41.5799 42.63 37.2001 36 37.2001C29.37 37.2001 24 41.5799 24 46.9799" stroke="#A8C0FF" stroke-width="2" stroke-linecap="round" stroke-linejoin="round"/>
</svg>
