<svg width="627" height="332" viewBox="0 0 627 332" fill="none" xmlns="http://www.w3.org/2000/svg">
<g clip-path="url(#clip0_89_8367)">
<path d="M95.6055 130.427C95.6055 137.468 101.309 143.181 108.36 143.181H567.287C574.328 143.181 580.041 137.477 580.041 130.427C580.041 123.385 574.337 117.672 567.287 117.672H322.899C315.858 117.672 310.145 111.968 310.145 104.918C310.145 97.8769 315.849 92.1639 322.899 92.1639H466.135C473.176 92.1639 478.889 86.4599 478.889 79.4096C478.889 72.3684 473.185 66.6553 466.135 66.6553H381.34C374.298 66.6553 368.585 60.9514 368.585 53.901C368.585 46.8598 374.289 41.1467 381.34 41.1467H403.946C410.987 41.1467 416.7 35.4428 416.7 28.3925C416.7 21.3512 410.997 15.6382 403.946 15.6382H202.143C195.102 15.6382 189.389 21.3421 189.389 28.3925C189.389 35.4337 195.093 41.1467 202.143 41.1467H271.473C278.514 41.1467 284.227 46.8507 284.227 53.901C284.227 60.9423 278.523 66.6553 271.473 66.6553H34.7543C27.713 66.6553 22 72.3593 22 79.4096C22 86.4508 27.704 92.1639 34.7543 92.1639H228.588C235.63 92.1639 241.343 97.8678 241.343 104.918C241.343 111.959 235.639 117.672 228.588 117.672H108.351C101.309 117.672 95.5964 123.376 95.5964 130.427H95.6055Z" fill="#CEE1F2" fill-opacity="0.2"/>
<path d="M506.259 216.268C506.259 209.227 500.556 203.514 493.505 203.514H12.7543C5.71305 203.514 0 209.218 0 216.268C0 223.309 5.70395 229.022 12.7543 229.022H278.975C286.016 229.022 291.729 234.726 291.729 241.777C291.729 248.818 286.025 254.531 278.975 254.531H113.906C106.865 254.531 101.152 260.235 101.152 267.285C101.152 274.326 106.856 280.039 113.906 280.039H220.534C227.576 280.039 233.289 285.743 233.289 292.794C233.289 299.835 227.585 305.548 220.534 305.548H181.553C174.512 305.548 168.799 311.252 168.799 318.302C168.799 325.343 174.503 331.056 181.553 331.056H399.731C406.772 331.056 412.486 325.353 412.486 318.302C412.486 311.261 406.782 305.548 399.731 305.548H330.401C323.36 305.548 317.647 299.844 317.647 292.794C317.647 285.752 323.351 280.039 330.401 280.039H567.111C574.152 280.039 579.865 274.335 579.865 267.285C579.865 260.244 574.161 254.531 567.111 254.531H373.277C366.235 254.531 360.522 248.827 360.522 241.777C360.522 234.735 366.226 229.022 373.277 229.022H493.514C500.556 229.022 506.269 223.318 506.269 216.268H506.259Z" fill="#CEE1F2" fill-opacity="0.2"/>
<path d="M334.623 237.947H283.469V272.316H334.623V237.947Z" fill="#2C3456"/>
<g style="mix-blend-mode:multiply" opacity="0.6">
<path d="M334.623 237.947H283.469V260.28H334.623V237.947Z" fill="#ABB2D3"/>
</g>
<path d="M349.296 269.114H268.786V275.618H349.296V269.114Z" fill="#252B47"/>
<path d="M417.58 98.45H200.511C194.206 98.45 189.094 103.562 189.094 109.867V243.814C189.094 250.12 194.206 255.231 200.511 255.231H417.58C423.885 255.231 428.997 250.12 428.997 243.814V109.867C428.997 103.562 423.885 98.45 417.58 98.45Z" fill="#252B47"/>
<path d="M422.502 109.649H195.572V229.304H422.502V109.649Z" fill="#7696EA"/>
<path style="mix-blend-mode:multiply" opacity="0.61" d="M422.502 109.649H195.572V117.381H422.502V109.649Z" fill="#7696EA"/>
<path d="M314.081 242.268C314.081 245.051 311.825 247.308 309.041 247.308C306.257 247.308 304.001 245.051 304.001 242.268C304.001 239.484 306.257 237.228 309.041 237.228C311.825 237.228 314.081 239.484 314.081 242.268Z" fill="#90CAF9"/>
<g style="mix-blend-mode:overlay" opacity="0.2">
<path d="M417.571 255.24C423.875 255.24 428.988 250.128 428.988 243.823V109.867C428.988 103.563 423.875 98.45 417.571 98.45H222.527L379.308 255.231H417.562L417.571 255.24Z" fill="white"/>
</g>
<path d="M439.741 87.0876H229.495C224.888 87.0876 221.153 90.8225 221.153 95.4298V202.395C221.153 207.002 224.888 210.737 229.495 210.737H439.741C444.348 210.737 448.083 207.002 448.083 202.395V95.4298C448.083 90.8225 444.348 87.0876 439.741 87.0876Z" fill="#1D2238"/>
<path d="M228.422 203.468H440.814V98.832H228.422V203.468Z" fill="#E1E6FF"/>
<g style="mix-blend-mode:overlay" opacity="0.27">
<path d="M281.204 93.1644L285.716 97.6766C287.053 99.0139 288.4 100.36 289.764 101.725L303.292 115.252L304.911 116.872L309.441 121.402C310.033 121.993 310.633 122.594 311.234 123.194L318.912 130.872C321.777 133.738 324.67 136.631 327.59 139.551L331.902 143.863C332.703 144.664 333.503 145.464 334.313 146.274L341.864 153.825C342.755 154.716 343.647 155.608 344.538 156.499L362.141 174.102C363.206 175.167 364.279 176.24 365.353 177.314L396.229 208.189C397.075 209.036 397.93 209.891 398.776 210.737H439.75C444.353 210.737 448.092 207.007 448.092 202.395V95.4205C448.092 90.8173 444.362 87.0784 439.75 87.0784H275.127L277.501 89.4527C278.72 90.6718 279.948 91.8999 281.195 93.1462L281.204 93.1644Z" fill="white"/>
</g>
<path d="M256.869 236.445V229.422C268.786 229.422 278.493 225.702 285.725 218.378C297.469 206.461 299.917 188.03 300.426 180.425H280.913C279.284 188.23 272.352 194.116 264.065 194.116V187.093C269.678 187.093 274.244 182.526 274.244 176.913V173.402H307.531L307.576 176.868C307.595 178.051 307.795 205.997 290.719 223.318C282.123 232.033 270.733 236.455 256.869 236.455V236.445Z" fill="url(#paint0_linear_89_8367)"/>
<path d="M177.295 236.446C163.422 236.446 152.033 232.024 143.445 223.309C126.369 205.988 126.579 178.041 126.597 176.859L126.642 173.393H159.929V176.904C159.929 182.517 164.496 187.084 170.109 187.084V194.107C161.821 194.107 154.889 188.221 153.261 180.416H133.747C134.266 188.039 136.731 206.516 148.466 218.397C155.69 225.711 165.387 229.413 177.295 229.413V236.436V236.446Z" fill="url(#paint1_linear_89_8367)"/>
<g style="mix-blend-mode:multiply">
<g style="mix-blend-mode:multiply" opacity="0.58">
<path d="M307.576 176.859C307.576 176.75 307.549 176.65 307.54 176.55C307.285 183.518 305.32 206.097 290.719 220.908C282.123 229.623 270.733 234.044 256.869 234.044V236.446C270.742 236.446 282.132 232.024 290.719 223.309C307.795 205.988 307.586 178.041 307.576 176.859Z" fill="#BBDEFB"/>
</g>
</g>
<g style="mix-blend-mode:multiply" opacity="0.58">
<path d="M126.624 176.55C126.615 176.65 126.588 176.75 126.588 176.859C126.569 178.041 126.369 205.988 143.436 223.309C152.033 232.024 163.422 236.446 177.286 236.446V234.044C163.413 234.044 152.023 229.623 143.436 220.908C128.835 206.097 126.87 183.518 126.615 176.55H126.624Z" fill="#BBDEFB"/>
</g>
<path d="M187.566 309.46V318.066C187.566 318.066 196.099 323.242 217.087 323.242C236.864 323.242 246.607 318.066 246.607 318.066V309.46C246.607 309.46 234.799 314.636 217.087 314.636C199.374 314.636 187.566 309.46 187.566 309.46Z" fill="url(#paint2_linear_89_8367)"/>
<path d="M217.087 315.682C233.39 315.682 246.607 312.855 246.607 309.369C246.607 305.882 233.39 303.055 217.087 303.055C200.783 303.055 187.566 305.882 187.566 309.369C187.566 312.855 200.783 315.682 217.087 315.682Z" fill="url(#paint3_linear_89_8367)"/>
<path d="M217.087 315.682C233.39 315.682 246.607 312.855 246.607 309.369C246.607 305.882 233.39 303.055 217.087 303.055C200.783 303.055 187.566 305.882 187.566 309.369C187.566 312.855 200.783 315.682 217.087 315.682Z" fill="#1D2238"/>
<path d="M226.948 286.953V267.549L217.077 268.55L207.207 267.549V286.953C207.207 296.15 203.195 299.999 197.837 302.337V308.695C197.837 308.695 205.533 311.37 217.068 311.37C228.604 311.37 236.3 308.695 236.3 308.695V302.337C230.951 299.999 226.93 296.15 226.93 286.953H226.948Z" fill="url(#paint4_linear_89_8367)"/>
<path d="M197.846 302.491V308.695C197.846 308.695 205.542 311.37 217.077 311.37C228.613 311.37 236.309 308.695 236.309 308.695V302.491C236.309 302.491 228.613 305.166 217.077 305.166C205.542 305.166 197.846 302.491 197.846 302.491Z" fill="url(#paint5_linear_89_8367)"/>
<path d="M202.531 272.088C207.134 273.489 212.019 274.244 217.078 274.244C222.136 274.244 227.021 273.489 231.624 272.088V230.423H202.522V272.088H202.531Z" fill="#7696EA"/>
<path d="M167.079 168.881H267.094V218.551C267.094 246.152 244.688 268.559 217.087 268.559C189.486 268.559 167.079 246.152 167.079 218.551V168.881Z" fill="#E1E6FF"/>
<g style="mix-blend-mode:multiply" opacity="0.58">
<path d="M246.607 168.881V209.19C246.607 236.809 224.219 259.198 196.6 259.198C193.179 259.198 189.85 258.852 186.62 258.197C195.053 264.692 205.615 268.559 217.087 268.559C244.706 268.559 267.094 246.17 267.094 218.551V168.881H246.607Z" fill="#BBDEFB"/>
</g>
<path d="M266.848 168.881C259.261 164.578 239.848 161.521 217.078 161.521C194.307 161.521 174.894 164.578 167.307 168.881H163.886V172.893C163.886 179.179 187.694 184.264 217.069 184.264C246.443 184.264 270.251 179.17 270.251 172.893V168.881H266.83H266.848Z" fill="#1D2238"/>
<path d="M217.087 180.252C246.458 180.252 270.269 175.161 270.269 168.881C270.269 162.6 246.458 157.509 217.087 157.509C187.715 157.509 163.904 162.6 163.904 168.881C163.904 175.161 187.715 180.252 217.087 180.252Z" fill="url(#paint6_linear_89_8367)"/>
<path d="M217.087 176.904C243.414 176.904 264.756 173.312 264.756 168.88C264.756 164.449 243.414 160.857 217.087 160.857C190.76 160.857 169.417 164.449 169.417 168.88C169.417 173.312 190.76 176.904 217.087 176.904Z" fill="url(#paint7_linear_89_8367)"/>
<path d="M217.087 176.904C243.414 176.904 264.756 173.312 264.756 168.88C264.756 164.449 243.414 160.857 217.087 160.857C190.76 160.857 169.417 164.449 169.417 168.88C169.417 173.312 190.76 176.904 217.087 176.904Z" fill="#637DC4"/>
<path d="M174.503 172.483C182.344 175.103 198.465 176.904 217.078 176.904C235.69 176.904 251.811 175.103 259.653 172.483C251.811 169.863 235.69 168.062 217.078 168.062C198.465 168.062 182.344 169.863 174.503 172.483Z" fill="#7696EA"/>
<path d="M217.087 197.209L222.399 213.557H239.584L225.674 223.664L230.987 240.012L217.087 229.905L203.177 240.012L208.49 223.664L194.58 213.557H211.774L217.087 197.209Z" fill="#1F48DA"/>
<path d="M323.36 111.468C323.542 111.45 323.715 111.441 323.897 111.441H336.469C337.852 111.441 338.771 110.003 338.189 108.748C337.525 107.32 337.133 105.773 337.133 104.536C337.133 101.343 339.726 98.7501 342.919 98.7501C346.112 98.7501 348.705 101.343 348.705 104.536C348.705 105.773 348.314 107.32 347.65 108.748C347.067 110.003 347.977 111.441 349.369 111.441H362.032C362.214 111.441 362.396 111.45 362.569 111.468C365.207 111.195 367.263 108.966 367.263 106.264V68.138C367.263 65.2451 364.916 62.9072 362.032 62.9072H349.369C347.986 62.9072 347.067 61.4698 347.65 60.2144C348.314 58.7861 348.705 57.2396 348.705 56.0024C348.705 52.8093 346.112 50.2166 342.919 50.2166C339.726 50.2166 337.133 52.8093 337.133 56.0024C337.133 57.2396 337.525 58.7861 338.189 60.2144C338.771 61.4698 337.861 62.9072 336.469 62.9072H323.897C321.004 62.9072 318.666 65.2542 318.666 68.138V106.264C318.666 108.975 320.722 111.195 323.36 111.468Z" fill="#A8C0FF"/>
<path d="M372.185 67.565C372.203 67.7469 372.212 67.9198 372.212 68.1017V80.6741C372.212 82.0569 373.649 82.9757 374.905 82.3934C376.333 81.7294 377.88 81.3382 379.117 81.3382C382.31 81.3382 384.903 83.9309 384.903 87.124C384.903 90.3171 382.31 92.9098 379.117 92.9098C377.88 92.9098 376.333 92.5186 374.905 91.8545C373.649 91.2723 372.212 92.182 372.212 93.5739V106.237C372.212 106.419 372.203 106.601 372.185 106.774C372.458 109.412 374.687 111.468 377.388 111.468H415.515C418.408 111.468 420.746 109.121 420.746 106.237V93.5739C420.746 92.1911 422.183 91.2723 423.438 91.8545C424.867 92.5186 426.413 92.9098 427.65 92.9098C430.844 92.9098 433.436 90.3171 433.436 87.124C433.436 83.9309 430.844 81.3382 427.65 81.3382C426.413 81.3382 424.867 81.7294 423.438 82.3934C422.183 82.9757 420.746 82.0569 420.746 80.6741V68.1017C420.746 65.2088 418.399 62.8708 415.515 62.8708H377.388C374.677 62.8708 372.458 64.9268 372.185 67.565Z" fill="#FE6B8F" fill-opacity="0.960784"/>
<path d="M367.263 159.92C367.245 159.738 367.236 159.565 367.236 159.383V146.811C367.236 145.428 365.799 144.509 364.543 145.091C363.115 145.755 361.568 146.147 360.331 146.147C357.138 146.147 354.545 143.554 354.545 140.361C354.545 137.168 357.138 134.575 360.331 134.575C361.568 134.575 363.115 134.966 364.543 135.63C365.799 136.212 367.236 135.303 367.236 133.911V121.247C367.236 121.066 367.245 120.884 367.263 120.711C366.99 118.073 364.761 116.017 362.06 116.017H323.933C321.04 116.017 318.702 118.364 318.702 121.247V133.911C318.702 135.294 317.265 136.212 316.01 135.63C314.581 134.966 313.035 134.575 311.798 134.575C308.604 134.575 306.012 137.168 306.012 140.361C306.012 143.554 308.604 146.147 311.798 146.147C313.035 146.147 314.581 145.755 316.01 145.091C317.265 144.509 318.702 145.419 318.702 146.811V159.383C318.702 162.276 321.049 164.614 323.933 164.614H362.06C364.771 164.614 366.99 162.558 367.263 159.92Z" fill="#FE6B8F"/>
<path d="M416.088 116.017C415.906 116.035 415.733 116.044 415.551 116.044H402.979C401.596 116.044 400.677 117.481 401.259 118.737C401.924 120.165 402.315 121.711 402.315 122.949C402.315 126.142 399.722 128.734 396.529 128.734C393.336 128.734 390.743 126.142 390.743 122.949C390.743 121.711 391.134 120.165 391.798 118.737C392.381 117.481 391.471 116.044 390.079 116.044H377.416C377.234 116.044 377.052 116.035 376.879 116.017C374.241 116.29 372.185 118.518 372.185 121.22V159.347C372.185 162.24 374.532 164.577 377.416 164.577H390.079C391.462 164.577 392.381 166.015 391.798 167.27C391.134 168.699 390.743 170.245 390.743 171.482C390.743 174.675 393.336 177.268 396.529 177.268C399.722 177.268 402.315 174.675 402.315 171.482C402.315 170.245 401.924 168.699 401.259 167.27C400.677 166.015 401.596 164.577 402.979 164.577H415.551C418.444 164.577 420.782 162.23 420.782 159.347V121.22C420.782 118.509 418.726 116.28 416.088 116.017Z" fill="#A8C0FF"/>
<g style="mix-blend-mode:overlay" opacity="0.25">
<path d="M362.032 62.8981H349.369C347.986 62.8981 347.067 61.4608 347.65 60.2053C348.314 58.7771 348.705 57.2306 348.705 55.9933C348.705 52.8002 346.112 50.2075 342.919 50.2075C339.726 50.2075 337.133 52.8002 337.133 55.9933C337.133 57.2306 337.524 58.7771 338.189 60.2053C338.771 61.4608 337.861 62.8981 336.469 62.8981H331.557L367.263 98.6046V68.129C367.263 65.2361 364.916 62.8981 362.032 62.8981Z" fill="white"/>
</g>
<g style="mix-blend-mode:overlay" opacity="0.25">
<path d="M391.807 118.737C392.39 117.481 391.48 116.044 390.088 116.044H384.712L390.816 122.148C390.943 121.075 391.289 119.874 391.817 118.746L391.807 118.737Z" fill="white"/>
</g>
<g style="mix-blend-mode:overlay" opacity="0.25">
<path d="M420.782 121.22C420.782 118.509 418.726 116.28 416.088 116.017C415.906 116.035 415.733 116.044 415.551 116.044H402.979C401.596 116.044 400.677 117.481 401.26 118.737C401.924 120.165 402.315 121.711 402.315 122.949C402.315 125.869 400.15 128.28 397.339 128.671L420.782 152.114V121.211V121.22Z" fill="white"/>
</g>
<g style="mix-blend-mode:overlay" opacity="0.3">
<path d="M423.448 91.8453C424.876 92.5094 426.422 92.9005 427.66 92.9005C430.853 92.9005 433.445 90.3078 433.445 87.1147C433.445 83.9216 430.853 81.3289 427.66 81.3289C426.422 81.3289 424.876 81.7201 423.448 82.3842C422.192 82.9664 420.755 82.0567 420.755 80.6648V68.0925C420.755 65.1996 418.408 62.8616 415.524 62.8616H392.799L421.81 91.8726C422.301 91.6269 422.893 91.5723 423.457 91.8362L423.448 91.8453Z" fill="white"/>
</g>
<g style="mix-blend-mode:overlay" opacity="0.25">
<path d="M367.236 159.374V146.802C367.236 145.419 365.799 144.5 364.543 145.082C363.115 145.746 361.568 146.138 360.331 146.138C357.138 146.138 354.545 143.545 354.545 140.352C354.545 137.159 357.138 134.566 360.331 134.566C361.568 134.566 363.115 134.957 364.543 135.621C365.799 136.203 367.236 135.294 367.236 133.902V121.238C367.236 121.057 367.245 120.875 367.263 120.702C366.99 118.064 364.762 116.008 362.06 116.008H323.933C323.933 116.008 323.842 116.008 323.806 116.008L367.245 159.447C367.245 159.447 367.245 159.392 367.245 159.356L367.236 159.374Z" fill="white"/>
</g>
<path d="M212.098 106.861C214.469 92.3827 204.654 78.7241 190.176 76.3532C175.698 73.9824 162.039 83.7971 159.669 98.2751C157.298 112.753 167.112 126.412 181.59 128.783C196.068 131.153 209.727 121.339 212.098 106.861Z" fill="url(#paint8_linear_89_8367)"/>
<path d="M200.875 92.746C197.746 89.6166 192.679 89.6166 189.549 92.746L185.892 96.4031L182.235 92.746C179.106 89.6166 174.039 89.6166 170.909 92.746C167.78 95.8754 167.78 100.943 170.909 104.072L174.566 107.729L185.892 119.055L197.218 107.729L200.875 104.072C204.005 100.943 204.005 95.8754 200.875 92.746Z" fill="#7696EA"/>
<path d="M374.741 47.3964C387.829 47.3964 398.439 36.7864 398.439 23.6982C398.439 10.6101 387.829 0 374.741 0C361.653 0 351.043 10.6101 351.043 23.6982C351.043 36.7864 361.653 47.3964 374.741 47.3964Z" fill="url(#paint9_linear_89_8367)"/>
<path d="M387.859 21.3056C389.242 21.3056 390.352 20.1139 390.225 18.7038C390.106 17.4666 388.996 16.566 387.759 16.566H377.761C378.516 13.3001 379.19 9.60662 377.598 6.92294C376.779 5.54926 375.76 5.1217 374.914 5.03982C374.132 4.96704 373.504 5.67662 373.622 6.44989C373.768 7.44148 373.813 8.00551 373.276 10.9439C372.922 12.9271 371.693 14.51 370.402 15.9747C368.701 17.9033 367.782 19.9683 367.391 20.9872C367.236 21.3875 367.163 21.806 367.163 22.2244V31.1852C367.163 32.4679 367.854 33.6596 368.983 34.2782C370.092 34.8968 371.493 35.5337 372.485 35.5337H384.793C386.031 35.5337 387.141 34.6239 387.259 33.3958C387.395 31.9766 386.285 30.794 384.894 30.794H386.677C387.914 30.794 389.024 29.8843 389.142 28.6562C389.278 27.237 388.169 26.0544 386.777 26.0544H387.75C388.987 26.0544 390.097 25.1446 390.215 23.9165C390.352 22.4974 389.242 21.3147 387.85 21.3147L387.859 21.3056Z" fill="#3C7DB2"/>
<path d="M364.288 19.3406H361.041C360.051 19.3406 359.249 20.1429 359.249 21.1327V32.668C359.249 33.6578 360.051 34.4601 361.041 34.4601H364.288C365.278 34.4601 366.081 33.6578 366.081 32.668V21.1327C366.081 20.1429 365.278 19.3406 364.288 19.3406Z" fill="#3C7DB2"/>
<path d="M127.616 41.8291L129.808 46.2685C129.981 46.6142 130.308 46.8598 130.699 46.9144L135.594 47.624C136.567 47.7604 136.949 48.9522 136.249 49.6436L132.71 53.1005C132.428 53.3734 132.301 53.7646 132.373 54.1467L133.21 59.0228C133.374 59.9871 132.364 60.724 131.5 60.2691L127.124 57.9675C126.779 57.7856 126.369 57.7856 126.024 57.9675L121.648 60.2691C120.784 60.724 119.765 59.9871 119.937 59.0228L120.774 54.1467C120.838 53.7646 120.711 53.3734 120.438 53.1005L116.899 49.6436C116.199 48.9613 116.581 47.7695 117.554 47.624L122.448 46.9144C122.83 46.8598 123.167 46.6142 123.34 46.2685L125.532 41.8291C125.969 40.9466 127.215 40.9466 127.652 41.8291H127.616Z" fill="#7696EA"/>
<g style="mix-blend-mode:overlay" opacity="0.12">
<path d="M132.71 53.1005L136.249 49.6436C136.949 48.9613 136.567 47.7695 135.594 47.624L130.699 46.9144C130.317 46.8598 129.981 46.6142 129.808 46.2685L127.616 41.8291C127.179 40.9466 125.933 40.9466 125.496 41.8291L123.303 46.2685C123.194 46.4868 123.031 46.6597 122.821 46.7779L132.81 56.7667L132.364 54.1376C132.301 53.7555 132.428 53.3643 132.701 53.0914L132.71 53.1005Z" fill="#A8C0FF"/>
</g>
<path d="M154.634 41.8291L156.827 46.2685C157 46.6142 157.327 46.8598 157.718 46.9144L162.613 47.624C163.586 47.7604 163.968 48.9522 163.268 49.6436L159.729 53.1005C159.447 53.3734 159.319 53.7646 159.392 54.1467L160.229 59.0228C160.393 59.9871 159.383 60.724 158.519 60.2691L154.143 57.9675C153.797 57.7856 153.388 57.7856 153.042 57.9675L148.667 60.2691C147.802 60.724 146.783 59.9871 146.956 59.0228L147.793 54.1467C147.857 53.7646 147.73 53.3734 147.457 53.1005L143.918 49.6436C143.217 48.9613 143.599 47.7695 144.573 47.624L149.467 46.9144C149.849 46.8598 150.186 46.6142 150.359 46.2685L152.551 41.8291C152.988 40.9466 154.234 40.9466 154.671 41.8291H154.634Z" fill="#A8C0FF"/>
<g style="mix-blend-mode:overlay" opacity="0.12">
<path d="M159.72 53.1005L163.259 49.6436C163.959 48.9613 163.577 47.7695 162.604 47.624L157.709 46.9144C157.327 46.8598 156.991 46.6142 156.818 46.2685L154.625 41.8291C154.189 40.9466 152.942 40.9466 152.506 41.8291L150.313 46.2685C150.204 46.4868 150.04 46.6597 149.831 46.7779L159.82 56.7667L159.374 54.1376C159.31 53.7555 159.438 53.3643 159.711 53.0914L159.72 53.1005Z" fill="white"/>
</g>
<path d="M181.644 41.8291L183.836 46.2685C184.009 46.6142 184.337 46.8598 184.728 46.9144L189.622 47.624C190.595 47.7604 190.978 48.9522 190.277 49.6436L186.738 53.1005C186.456 53.3734 186.329 53.7646 186.402 54.1467L187.239 59.0228C187.402 59.9871 186.393 60.724 185.528 60.2691L181.153 57.9675C180.807 57.7856 180.398 57.7856 180.052 57.9675L175.676 60.2691C174.812 60.724 173.793 59.9871 173.966 59.0228L174.803 54.1467C174.866 53.7646 174.739 53.3734 174.466 53.1005L170.927 49.6436C170.227 48.9613 170.609 47.7695 171.582 47.624L176.477 46.9144C176.859 46.8598 177.195 46.6142 177.368 46.2685L179.561 41.8291C179.997 40.9466 181.244 40.9466 181.68 41.8291H181.644Z" fill="#A8C0FF"/>
<g style="mix-blend-mode:overlay" opacity="0.12">
<path d="M186.729 53.1005L190.268 49.6436C190.969 48.9613 190.586 47.7695 189.613 47.624L184.719 46.9144C184.337 46.8598 184 46.6142 183.827 46.2685L181.635 41.8291C181.198 40.9466 179.952 40.9466 179.515 41.8291L177.323 46.2685C177.214 46.4868 177.05 46.6597 176.841 46.7779L186.829 56.7667L186.384 54.1376C186.32 53.7555 186.447 53.3643 186.72 53.0914L186.729 53.1005Z" fill="white"/>
</g>
<path d="M208.654 41.8291L210.846 46.2685C211.019 46.6142 211.346 46.8598 211.738 46.9144L216.632 47.624C217.605 47.7604 217.987 48.9522 217.287 49.6436L213.748 53.1005C213.466 53.3734 213.339 53.7646 213.411 54.1467L214.248 59.0228C214.412 59.9871 213.402 60.724 212.538 60.2691L208.162 57.9675C207.817 57.7856 207.407 57.7856 207.062 57.9675L202.686 60.2691C201.822 60.724 200.803 59.9871 200.976 59.0228L201.813 54.1467C201.876 53.7646 201.749 53.3734 201.476 53.1005L197.937 49.6436C197.237 48.9613 197.619 47.7695 198.592 47.624L203.486 46.9144C203.868 46.8598 204.205 46.6142 204.378 46.2685L206.57 41.8291C207.007 40.9466 208.253 40.9466 208.69 41.8291H208.654Z" fill="#A8C0FF"/>
<g style="mix-blend-mode:overlay" opacity="0.12">
<path d="M213.748 53.1005L217.287 49.6436C217.987 48.9613 217.605 47.7695 216.632 47.624L211.738 46.9144C211.355 46.8598 211.019 46.6142 210.846 46.2685L208.654 41.8291C208.217 40.9466 206.971 40.9466 206.534 41.8291L204.342 46.2685C204.232 46.4868 204.069 46.6597 203.859 46.7779L213.848 56.7667L213.402 54.1376C213.339 53.7555 213.466 53.3643 213.739 53.0914L213.748 53.1005Z" fill="white"/>
</g>
<path d="M235.672 41.8291L237.865 46.2685C238.037 46.6142 238.365 46.8598 238.756 46.9144L243.65 47.624C244.624 47.7604 245.006 48.9522 244.305 49.6436L240.767 53.1005C240.485 53.3734 240.357 53.7646 240.43 54.1467L241.267 59.0228C241.431 59.9871 240.421 60.724 239.557 60.2691L235.181 57.9675C234.835 57.7856 234.426 57.7856 234.08 57.9675L229.704 60.2691C228.84 60.724 227.821 59.9871 227.994 59.0228L228.831 54.1467C228.895 53.7646 228.767 53.3734 228.494 53.1005L224.956 49.6436C224.255 48.9613 224.637 47.7695 225.611 47.624L230.505 46.9144C230.887 46.8598 231.224 46.6142 231.396 46.2685L233.589 41.8291C234.026 40.9466 235.272 40.9466 235.709 41.8291H235.672Z" fill="#A8C0FF"/>
<g style="mix-blend-mode:overlay" opacity="0.46">
<path d="M240.758 53.1005L244.296 49.6436C244.997 48.9613 244.615 47.7695 243.641 47.624L238.747 46.9144C238.365 46.8598 238.028 46.6142 237.856 46.2685L235.663 41.8291C235.226 40.9466 233.98 40.9466 233.543 41.8291L231.351 46.2685C231.242 46.4868 231.078 46.6597 230.869 46.7779L240.858 56.7667L240.412 54.1376C240.348 53.7555 240.476 53.3643 240.748 53.0914L240.758 53.1005Z" fill="#A8C0FF"/>
</g>
<path d="M493.632 171.373H457.034V178.442C457.034 181.362 457.89 184.227 459.5 186.665L468.306 200.029C470.144 202.822 470.144 206.434 468.306 209.227L459.5 222.59C457.89 225.028 457.034 227.894 457.034 230.814V237.883H493.632V230.814C493.632 227.894 492.777 225.028 491.167 222.59L482.361 209.227C480.523 206.434 480.523 202.822 482.361 200.029L491.167 186.665C492.777 184.227 493.632 181.362 493.632 178.442V171.373Z" fill="url(#paint10_linear_89_8367)"/>
<path d="M494.178 166.824H456.498C455.242 166.824 454.223 167.843 454.223 169.099C454.223 170.354 455.242 171.373 456.498 171.373H494.178C495.434 171.373 496.453 170.354 496.453 169.099C496.453 167.843 495.434 166.824 494.178 166.824Z" fill="url(#paint11_linear_89_8367)"/>
<path d="M494.178 237.892H456.498C455.242 237.892 454.223 238.911 454.223 240.166C454.223 241.422 455.242 242.44 456.498 242.44H494.178C495.434 242.44 496.453 241.422 496.453 240.166C496.453 238.911 495.434 237.892 494.178 237.892Z" fill="#3C7DB2"/>
<path d="M482.279 213.02H468.379L461.283 223.782C459.9 225.875 459.172 228.313 459.172 230.823V235.745H491.477V230.823C491.477 228.313 490.749 225.875 489.366 223.782L482.27 213.02H482.279Z" fill="#7696EA"/>
<path style="mix-blend-mode:multiply" opacity="0.19" d="M482.361 209.227C480.524 206.434 480.524 202.822 482.361 200.029L491.167 186.665C492.777 184.227 493.633 181.362 493.633 178.442V171.373H488.42V178.442C488.42 182.572 487.719 185.765 486.118 188.212L480.214 199.474C478.377 202.267 480.524 206.443 482.361 209.227Z" fill="#3C7DB2"/>
<path d="M449.984 262.911C453.362 241.817 439.001 221.977 417.907 218.599C396.813 215.22 376.974 229.581 373.595 250.675C370.216 271.77 384.577 291.609 405.672 294.988C426.766 298.366 446.605 284.005 449.984 262.911Z" fill="#7696EA"/>
<path d="M423.059 283.396C437.773 277.159 444.646 260.174 438.409 245.459C432.172 230.744 415.187 223.871 400.472 230.108C385.757 236.345 378.885 253.33 385.122 268.045C391.359 282.76 408.344 289.633 423.059 283.396Z" fill="url(#paint12_linear_89_8367)"/>
<path d="M411.767 275.973C422.373 275.973 430.971 267.375 430.971 256.769C430.971 246.162 422.373 237.564 411.767 237.564C401.161 237.564 392.562 246.162 392.562 256.769C392.562 267.375 401.161 275.973 411.767 275.973Z" fill="#7696EA"/>
<path d="M411.767 266.23C416.992 266.23 421.228 261.994 421.228 256.769C421.228 251.543 416.992 247.308 411.767 247.308C406.542 247.308 402.306 251.543 402.306 256.769C402.306 261.994 406.542 266.23 411.767 266.23Z" fill="url(#paint13_linear_89_8367)"/>
<path d="M451.522 292.812L447.664 296.669L410.994 259.998C409.929 258.934 409.929 257.205 410.994 256.141C412.058 255.076 413.786 255.076 414.851 256.141L451.522 292.812Z" fill="#A8C0FF"/>
<path d="M447.664 278.666L438.658 279.948L448.301 289.6L457.307 288.318L447.664 278.666Z" fill="#CEE1F2"/>
<path d="M433.509 292.812L434.801 283.815L444.444 293.458L443.161 302.464L433.509 292.812Z" fill="#CEE1F2"/>
</g>
<defs>
<linearGradient id="paint0_linear_89_8367" x1="282.232" y1="236.445" x2="282.232" y2="173.393" gradientUnits="userSpaceOnUse">
<stop stop-color="#BBDEFB"/>
<stop offset="1" stop-color="white"/>
</linearGradient>
<linearGradient id="paint1_linear_89_8367" x1="151.942" y1="236.446" x2="151.942" y2="173.393" gradientUnits="userSpaceOnUse">
<stop stop-color="#BBDEFB"/>
<stop offset="1" stop-color="white"/>
</linearGradient>
<linearGradient id="paint2_linear_89_8367" x1="248.081" y1="316.355" x2="186.711" y2="316.355" gradientUnits="userSpaceOnUse">
<stop stop-color="#BBDEFB"/>
<stop offset="1" stop-color="white"/>
</linearGradient>
<linearGradient id="paint3_linear_89_8367" x1="217.087" y1="340.272" x2="217.087" y2="296.132" gradientUnits="userSpaceOnUse">
<stop stop-color="#C98080"/>
<stop offset="1" stop-color="#BBDEFB"/>
</linearGradient>
<linearGradient id="paint4_linear_89_8367" x1="217.087" y1="266.466" x2="217.087" y2="317.82" gradientUnits="userSpaceOnUse">
<stop stop-color="#BBDEFB"/>
<stop offset="1" stop-color="white"/>
</linearGradient>
<linearGradient id="paint5_linear_89_8367" x1="217.087" y1="302.273" x2="217.087" y2="312.68" gradientUnits="userSpaceOnUse">
<stop stop-color="#BBDEFB"/>
<stop offset="1" stop-color="white"/>
</linearGradient>
<linearGradient id="paint6_linear_89_8367" x1="269.068" y1="176.859" x2="172.474" y2="162.03" gradientUnits="userSpaceOnUse">
<stop stop-color="white"/>
<stop offset="1" stop-color="#BBDEFB"/>
</linearGradient>
<linearGradient id="paint7_linear_89_8367" x1="169.417" y1="168.88" x2="264.747" y2="168.88" gradientUnits="userSpaceOnUse">
<stop stop-color="white"/>
<stop offset="1" stop-color="#BBDEFB"/>
</linearGradient>
<linearGradient id="paint8_linear_89_8367" x1="159.314" y1="102.572" x2="212.442" y2="102.572" gradientUnits="userSpaceOnUse">
<stop stop-color="white"/>
<stop offset="1" stop-color="#BBDEFB"/>
</linearGradient>
<linearGradient id="paint9_linear_89_8367" x1="351.043" y1="23.6982" x2="398.43" y2="23.6982" gradientUnits="userSpaceOnUse">
<stop stop-color="white"/>
<stop offset="1" stop-color="#BBDEFB"/>
</linearGradient>
<linearGradient id="paint10_linear_89_8367" x1="457.034" y1="204.632" x2="493.632" y2="204.632" gradientUnits="userSpaceOnUse">
<stop stop-color="white"/>
<stop offset="1" stop-color="#BBDEFB"/>
</linearGradient>
<linearGradient id="paint11_linear_89_8367" x1="454.214" y1="169.099" x2="496.453" y2="169.099" gradientUnits="userSpaceOnUse">
<stop stop-color="#64B5F6"/>
<stop offset="1" stop-color="#1E88E5"/>
</linearGradient>
<linearGradient id="paint12_linear_89_8367" x1="391.294" y1="236.306" x2="432.223" y2="277.234" gradientUnits="userSpaceOnUse">
<stop stop-color="white"/>
<stop offset="1" stop-color="#BBDEFB"/>
</linearGradient>
<linearGradient id="paint13_linear_89_8367" x1="405.08" y1="250.082" x2="418.462" y2="263.464" gradientUnits="userSpaceOnUse">
<stop stop-color="white"/>
<stop offset="1" stop-color="#BBDEFB"/>
</linearGradient>
<clipPath id="clip0_89_8367">
<rect width="626.87" height="331.02" fill="white"/>
</clipPath>
</defs>
</svg>
