<svg width="517" height="404" viewBox="0 0 517 404" fill="none" xmlns="http://www.w3.org/2000/svg">
<g clip-path="url(#clip0_89_10193)">
<g style="mix-blend-mode:multiply">
<path d="M402.954 389.719C418.876 365.598 423.401 334.289 414.972 306.652C409.644 289.173 399.414 272.934 398.113 254.712C395.497 218.269 428.462 188.82 435.298 152.925C438.302 137.148 435.03 118.78 422.136 109.195C409.413 99.7318 391.252 101.666 376.838 108.295C362.436 114.925 350.236 125.531 336.405 133.28C322.575 141.04 305.545 145.833 290.936 139.654C276.145 133.402 267.752 117.637 263.045 102.286C258.349 86.9232 256.038 70.5627 248.01 56.6472C234.788 33.7183 206.592 21.2137 180.318 24.4494C154.044 27.685 130.567 45.4078 117.978 68.7017C105.388 91.9834 103.187 120.155 109.451 145.87C112.626 158.909 117.868 171.402 120.727 184.526C123.585 197.651 123.841 212.005 117.467 223.828C104.135 248.545 68.9573 251.987 50.5289 273.177C35.3241 290.669 34.8497 317.356 43.4739 338.862C52.0981 360.368 68.3126 377.823 84.4784 394.427C159.883 396.957 236.649 397.127 312.053 399.67C341.356 400.655 373.651 391.435 402.93 389.719H402.954Z" fill="#E0E8FF"/>
</g>
<g style="mix-blend-mode:multiply">
<path d="M376.315 115.983C376.12 137.318 396.385 155.881 392.858 176.912C390.972 188.164 382.397 199.573 387.384 209.84C391.8 218.926 404.426 220.495 414.084 217.539C436.684 210.618 450.43 187.519 456.998 164.809C463.177 143.449 464.71 119.596 454.809 99.6832C446.829 83.639 428.437 69.4803 409.741 70.794C392.627 71.9982 376.461 99.9144 376.303 115.971L376.315 115.983Z" fill="#E0E8FF"/>
</g>
<g style="mix-blend-mode:multiply">
<path d="M80.8049 76.6934C65.7094 101.885 65.0283 135.092 79.0776 160.88C83.5174 169.03 89.5142 176.62 97.6154 181.157C105.717 185.694 116.165 186.704 124.218 182.106C136.443 175.136 139.143 158.69 138.17 144.641C137.197 130.604 134.01 115.886 139.423 102.882C142.95 94.4162 149.713 87.8112 155.722 80.8778C161.731 73.9444 167.327 65.8432 167.643 56.6716C168.446 32.9033 143.218 34.6793 128.001 39.6178C108.587 45.9187 91.3266 59.1409 80.7927 76.7056L80.8049 76.6934Z" fill="#E0E8FF"/>
</g>
<path d="M470.78 404H30.4584C25.9456 404 22.2964 400.339 22.2964 395.838C22.2964 391.325 25.9577 387.676 30.4584 387.676H470.78C475.293 387.676 478.942 391.337 478.942 395.838C478.942 400.351 475.28 404 470.78 404Z" fill="#A8C0FF"/>
<path d="M161.841 276.912C152.84 271.62 146.235 262.388 144.142 252.158C142.05 241.928 144.483 230.847 150.674 222.442C155.491 215.91 162.717 210.314 163.617 202.249C164.553 193.893 158.301 186.643 155.418 178.737C151.903 169.103 153.715 157.717 160.053 149.653C164.626 143.826 171.39 139.593 174.455 132.842C176.377 128.597 176.608 123.817 177.143 119.182C177.678 114.548 178.651 109.719 181.705 106.191C184.758 102.664 190.475 101.058 194.185 103.88C201.228 96.6181 209.511 87.7992 218.841 83.8824C228.171 79.9657 239.374 79.4183 248.107 84.5271C255.016 88.5777 259.614 95.572 265.672 100.79C270.878 105.279 277.118 108.393 282.738 112.358C288.358 116.324 293.6 121.505 295.315 128.159C298.15 139.107 290.839 150.091 290.499 161.391C290.17 172.363 296.41 182.483 297.797 193.382C299.208 204.439 295.474 215.654 289.586 225.105C283.699 234.569 275.756 242.536 267.886 250.419C264.699 264.662 254.201 274.746 240.809 280.549C227.417 286.351 212.443 287.348 197.858 286.813C185.986 286.387 172.095 282.933 161.841 276.899V276.912Z" fill="#1A468F"/>
<path d="M178.116 248.119C175.087 244.105 175.173 238.498 176.438 233.632C177.703 228.767 180.002 224.181 180.999 219.254C182.349 212.589 181.267 205.692 179.892 199.026C178.505 192.372 176.815 185.694 176.936 178.895C177.058 172.095 179.284 164.991 184.49 160.612C202.724 145.261 232.258 150.601 255.965 153.095C267.947 154.36 276.145 165.916 279.94 177.35C283.735 188.784 282.446 201.519 277.921 212.686C273.396 223.852 265.818 233.571 257.206 242.001C252.073 247.025 242.974 242.998 235.919 244.373C229.01 245.735 223.05 249.944 216.542 252.669C206.166 257.023 194.185 257.449 183.529 253.849C180.403 252.79 177.763 251.404 178.116 248.119Z" fill="#2158B3"/>
<path d="M309.036 259.967C300.473 248.874 288.09 240.785 274.491 237.379C268.239 235.822 261.767 235.214 255.612 233.292C253.873 232.744 252.158 232.051 250.504 231.236C248.095 221.833 246.903 212.127 246.976 202.432H210.959C211.032 212.127 209.84 221.845 207.431 231.236C205.777 232.051 204.062 232.744 202.322 233.292C196.18 235.214 189.696 235.822 183.444 237.379C169.845 240.785 157.474 248.874 148.898 259.967C140.323 271.061 135.628 285.074 135.774 299.098V388.102L296.447 385.754C310.703 385.547 322.137 373.931 322.137 359.675V299.098C322.283 285.086 317.575 271.061 309.012 259.967H309.036Z" fill="#F8A6B3"/>
<path d="M246.562 382.348C249.628 374.308 249.895 365.526 251.002 356.987C253.131 340.614 258.471 324.862 262.266 308.793C266.049 292.725 269.406 275.209 265.258 259.237C241.831 262.047 218.062 262.011 194.647 259.128C185.779 262.85 181.181 274.029 179.539 283.504C177.897 292.968 179.101 302.675 179.284 312.284C179.478 322.794 178.457 333.316 178.955 343.813C179.454 354.311 181.619 365.063 187.555 373.736C191.229 379.101 196.155 383.394 201.507 387.141L244.616 386.508C245.37 385.17 246.039 383.772 246.575 382.348H246.562Z" fill="#1A468F"/>
<path d="M179.539 291.873C181.181 282.41 185.792 271.219 194.647 267.497C218.062 270.38 241.831 270.428 265.258 267.606C266.268 271.486 266.828 275.464 267.046 279.49C267.387 272.618 266.961 265.794 265.258 259.225C241.831 262.035 218.062 261.999 194.647 259.116C185.779 262.838 181.181 274.017 179.539 283.492C178.639 288.686 178.603 293.953 178.773 299.232C178.882 296.763 179.114 294.306 179.539 291.873Z" fill="#EDEDED"/>
<path d="M179.272 320.641C179.272 320.312 179.247 319.984 179.247 319.656C179.089 326.869 178.688 334.082 178.87 341.283C179.016 334.41 179.406 327.526 179.284 320.641H179.272Z" fill="#EDEDED"/>
<path d="M210.022 217.746C222.952 217.625 235.846 214.121 247.073 207.711C247 205.947 246.964 204.196 246.976 202.432H210.959C210.995 207.553 210.679 212.674 210.022 217.746Z" fill="#E399A5"/>
<path d="M194.951 155.893C193.504 153.192 191.74 150.492 189.076 148.971C186.424 147.439 182.653 147.451 180.61 149.738C178.955 151.599 178.834 154.336 178.992 156.829C179.296 161.853 180.403 167.023 183.432 171.049C186.461 175.075 191.764 177.678 196.63 176.389C197.323 169.541 198.199 161.962 194.939 155.905L194.951 155.893Z" fill="#F8A6B3"/>
<path d="M194.61 161.245C194.781 161.269 194.963 161.306 195.133 161.33C194.452 159.676 193.771 157.997 192.822 156.489C191.861 154.98 190.608 153.606 189.015 152.791C187.422 151.976 185.463 151.757 183.821 152.475C182.179 153.192 180.962 154.932 181.108 156.72C182.082 155.576 183.833 155.236 185.293 155.54C186.752 155.844 188.018 156.987 188.455 158.411C187.178 158.557 186.242 159.846 185.986 161.111C185.719 162.364 186.059 163.678 186.558 164.87C186.85 165.563 187.203 166.232 187.738 166.767C188.261 167.303 188.978 167.667 189.733 167.655C189.064 168.555 187.92 169.261 186.801 169.322C189.21 170.502 192.36 170.331 194.574 168.823C194.902 166.317 194.854 163.799 194.635 161.269L194.61 161.245Z" fill="#D6A56D"/>
<path d="M260.77 158.52C262.217 155.82 263.981 153.119 266.645 151.599C269.297 150.066 273.068 150.078 275.111 152.365C276.765 154.226 276.887 156.963 276.729 159.457C276.425 164.48 275.318 169.65 272.289 173.676C269.26 177.703 263.957 180.306 259.091 179.016C258.398 172.168 257.522 164.59 260.782 158.532L260.77 158.52Z" fill="#F8A6B3"/>
<path d="M261.098 163.872C260.928 163.897 260.746 163.933 260.575 163.957C261.256 162.303 261.938 160.625 262.886 159.116C263.847 157.608 265.1 156.233 266.694 155.418C268.287 154.603 270.246 154.384 271.888 155.102C273.53 155.82 274.746 157.559 274.6 159.347C273.627 158.204 271.876 157.863 270.416 158.167C268.956 158.472 267.691 159.615 267.253 161.038C268.531 161.184 269.467 162.473 269.723 163.739C269.99 164.991 269.65 166.305 269.151 167.497C268.859 168.19 268.506 168.86 267.971 169.395C267.436 169.93 266.73 170.295 265.976 170.283C266.645 171.183 267.789 171.888 268.908 171.949C266.499 173.129 263.349 172.959 261.135 171.45C260.806 168.932 260.855 166.427 261.074 163.897L261.098 163.872Z" fill="#D6A56D"/>
<path d="M191.509 171.414C197.232 171.414 201.872 166.774 201.872 161.05C201.872 155.326 197.232 150.687 191.509 150.687C185.785 150.687 181.145 155.326 181.145 161.05C181.145 166.774 185.785 171.414 191.509 171.414Z" fill="#7696EA"/>
<path d="M264.893 171.414C270.617 171.414 275.257 166.774 275.257 161.05C275.257 155.326 270.617 150.687 264.893 150.687C259.17 150.687 254.53 155.326 254.53 161.05C254.53 166.774 259.17 171.414 264.893 171.414Z" fill="#7696EA"/>
<path d="M228.146 212.722C248.441 212.722 264.894 190.595 264.894 163.3C264.894 136.005 248.441 113.878 228.146 113.878C207.851 113.878 191.399 136.005 191.399 163.3C191.399 190.595 207.851 212.722 228.146 212.722Z" fill="#F8A6B3"/>
<path d="M193.576 144.726C192.433 144.191 194.416 142.208 197.396 141.393C205.315 139.252 214.073 138.352 220.666 143.242C220.921 144.604 219.182 146.222 217.807 146.393C216.432 146.563 215.082 146.003 213.781 145.529C207.419 143.23 200.169 143.133 193.589 144.714L193.576 144.726Z" fill="#1A468F"/>
<path d="M262.363 144.726C263.507 144.191 261.524 142.208 258.544 141.393C250.625 139.252 241.867 138.352 235.274 143.242C235.019 144.604 236.758 146.222 238.133 146.393C239.507 146.563 240.858 146.003 242.159 145.529C248.521 143.23 255.771 143.133 262.351 144.714L262.363 144.726Z" fill="#1A468F"/>
<path d="M217.783 175.282C217.783 176.705 213.233 177.861 207.638 177.861C202.043 177.861 197.493 176.705 197.493 175.282C197.493 173.859 202.043 172.703 207.638 172.703C213.233 172.703 217.783 173.859 217.783 175.282Z" fill="#E399A5"/>
<path d="M258.228 175.282C258.228 176.705 253.678 177.861 248.083 177.861C242.488 177.861 237.938 176.705 237.938 175.282C237.938 173.859 242.488 172.703 248.083 172.703C253.678 172.703 258.228 173.859 258.228 175.282Z" fill="#E399A5"/>
<g style="mix-blend-mode:multiply">
<path d="M227.185 152.608C228.158 159.299 226.492 166.341 222.624 171.888C221.809 173.056 220.86 174.284 220.909 175.708C220.97 177.313 222.368 178.639 223.913 179.089C225.458 179.539 227.125 179.296 228.694 178.968" stroke="#D9D9D9" stroke-width="2" stroke-linecap="round" stroke-linejoin="round"/>
</g>
<path d="M207.881 171.037C198.856 171.037 191.509 163.69 191.509 154.664C191.509 145.639 198.856 138.292 207.881 138.292C216.907 138.292 224.254 145.639 224.254 154.664C224.254 163.69 216.907 171.037 207.881 171.037ZM207.881 140.955C200.327 140.955 194.173 147.11 194.173 154.664C194.173 162.218 200.327 168.373 207.881 168.373C215.435 168.373 221.59 162.218 221.59 154.664C221.59 147.11 215.435 140.955 207.881 140.955Z" fill="#CEE1F2"/>
<path d="M248.971 171.037C239.945 171.037 232.598 163.69 232.598 154.664C232.598 145.639 239.945 138.292 248.971 138.292C257.997 138.292 265.344 145.639 265.344 154.664C265.344 163.69 257.997 171.037 248.971 171.037ZM248.971 140.955C241.417 140.955 235.262 147.11 235.262 154.664C235.262 162.218 241.417 168.373 248.971 168.373C256.525 168.373 262.68 162.218 262.68 154.664C262.68 147.11 256.525 140.955 248.971 140.955Z" fill="#CEE1F2"/>
<path d="M223.694 155.747L222.15 153.569C224.327 152.025 229.752 150.042 234.703 153.569L233.158 155.735C228.487 152.414 223.743 155.698 223.694 155.735V155.747Z" fill="#CEE1F2"/>
<g style="mix-blend-mode:multiply">
<path d="M217.588 185.95C224.509 189.976 233.754 189.635 240.359 185.098" stroke="#D9D9D9" stroke-width="2" stroke-linecap="round" stroke-linejoin="round"/>
</g>
<g style="mix-blend-mode:multiply">
<path d="M224.801 194.002C226.991 194.744 229.375 194.939 231.662 194.55" stroke="#D9D9D9" stroke-width="2" stroke-linecap="round" stroke-linejoin="round"/>
</g>
<path d="M177.849 165.879C190.256 156.854 199.853 144.021 204.998 129.57C213.708 137.683 226.139 142.05 238.023 141.539C235.676 140.481 233.949 138.377 232.525 136.236C244.008 138.948 253.885 145.918 261.451 154.98C264.529 158.654 267.132 162.753 270.598 166.05C274.077 169.346 278.712 171.852 283.48 171.341C280.512 158.703 277.617 145.626 272.849 133.548C269.929 126.128 266.475 118.574 260.369 113.441C252.778 107.055 242.171 105.437 232.282 106.167C221.724 106.945 211.324 110.132 202.286 115.618C189.988 123.075 180.342 134.801 175.404 148.302C174.309 151.283 173.433 154.421 173.579 157.596C173.725 160.77 175.282 163.97 177.836 165.867L177.849 165.879Z" fill="#1A468F"/>
<path d="M191.46 173.98C191.46 175.829 189.964 177.325 188.115 177.325C186.266 177.325 184.77 175.829 184.77 173.98C184.77 172.131 186.266 170.635 188.115 170.635C189.964 170.635 191.46 172.131 191.46 173.98Z" fill="#7696EA"/>
<path d="M271.584 173.98C271.584 175.829 270.088 177.325 268.239 177.325C266.39 177.325 264.894 175.829 264.894 173.98C264.894 172.131 266.39 170.635 268.239 170.635C270.088 170.635 271.584 172.131 271.584 173.98Z" fill="#7696EA"/>
<path d="M208.66 149.762C207.468 149.762 206.434 150.735 205.838 152.195L208.66 155.017L205.838 157.839C206.434 159.299 207.468 160.272 208.66 160.272C210.509 160.272 212.005 157.924 212.005 155.017C212.005 152.11 210.509 149.762 208.66 149.762Z" fill="#453E18"/>
<path d="M247.755 149.762C246.575 149.762 245.529 150.735 244.932 152.195L247.755 155.017L244.932 157.839C245.529 159.299 246.562 160.272 247.755 160.272C249.603 160.272 251.1 157.924 251.1 155.017C251.1 152.11 249.603 149.762 247.755 149.762Z" fill="#453E18"/>
<path d="M185.11 143.06C184.381 137.696 185.013 132.088 186.728 126.772C188.504 121.481 191.399 116.482 195.267 112.285C199.099 108.052 203.879 104.658 209.171 102.335C214.462 100.012 220.252 98.8197 226.042 98.7954C231.832 98.8076 237.622 99.9996 242.913 102.323C248.192 104.646 252.997 108.04 256.817 112.273C260.685 116.457 263.58 121.469 265.356 126.76C267.071 132.076 267.691 137.683 266.961 143.048C265.575 132.331 260.6 122.71 253.143 115.947C245.674 109.196 235.907 105.437 226.042 105.449C216.177 105.425 206.409 109.196 198.941 115.934C191.472 122.697 186.497 132.319 185.123 143.036L185.11 143.06Z" fill="#CEE1F2"/>
<path d="M274.491 237.379C269.309 236.089 263.981 235.433 258.812 234.167C247.925 284.441 240.225 335.396 235.773 386.63L296.471 385.742C310.727 385.535 322.161 373.919 322.161 359.663V299.086C322.307 285.073 317.6 271.048 309.036 259.955C300.473 248.861 288.09 240.772 274.491 237.367V237.379Z" fill="#7696EA"/>
<path d="M200.303 233.875C194.768 235.359 189.027 235.992 183.468 237.379C169.869 240.785 157.498 248.874 148.923 259.967C140.347 271.061 135.652 285.073 135.798 299.098V388.102L223.415 386.825C218.963 335.42 211.238 284.307 200.303 233.888V233.875Z" fill="#7696EA"/>
<g style="mix-blend-mode:multiply" opacity="0.18">
<path d="M183.468 237.379C181.583 237.853 179.722 238.425 177.885 239.07C173.652 251.088 169.784 263.191 166.305 275.379C172.922 279.198 179.332 283.954 186.534 286.983C183.93 293.321 181.157 300.339 178.554 306.689C191.813 332.172 203.21 359.955 212.503 386.946L223.414 386.812C218.05 335.773 208.757 285.025 195.62 234.946C191.569 235.761 187.47 236.381 183.468 237.379Z" fill="#7696EA"/>
</g>
<g style="mix-blend-mode:multiply" opacity="0.18">
<path d="M280.682 306.689C278.14 300.351 275.415 293.333 272.873 286.983C279.916 283.966 286.18 279.198 292.652 275.379C289.306 263.373 285.584 251.452 281.522 239.605C279.223 238.729 276.875 237.975 274.491 237.379C270.671 236.418 266.767 235.822 262.899 235.055C250.09 285.037 241.028 335.687 235.773 386.63L247.645 386.46C256.695 359.614 267.788 332.014 280.682 306.689Z" fill="#7696EA"/>
</g>
<path d="M200.303 233.875C195.815 235.08 191.18 235.724 186.619 236.673C182.86 249.482 179.442 262.388 176.401 275.379C181.85 279.198 187.13 283.954 193.053 286.983C190.913 293.321 188.626 300.339 186.485 306.689C197.408 332.172 206.786 359.954 214.438 386.946L223.427 386.812C218.975 335.408 211.251 284.295 200.315 233.875H200.303Z" fill="#CEE1F2"/>
<path d="M273.603 237.184C268.701 236.029 263.677 235.372 258.799 234.167C247.913 284.441 240.213 335.396 235.761 386.63L245.748 386.484C253.374 359.638 262.716 332.026 273.566 306.689C271.426 300.351 269.139 293.333 266.998 286.983C272.934 283.967 278.201 279.198 283.65 275.379C280.646 262.558 277.289 249.822 273.591 237.184H273.603Z" fill="#CEE1F2"/>
<path d="M203.441 234.508C202.918 234.508 202.407 234.301 202.03 233.924C201.933 233.827 201.86 233.729 201.775 233.62C201.714 233.511 201.641 233.389 201.605 233.279C201.556 233.158 201.507 233.024 201.483 232.902C201.459 232.769 201.447 232.635 201.447 232.513C201.447 232.379 201.459 232.245 201.483 232.112C201.507 231.99 201.544 231.856 201.605 231.735C201.641 231.613 201.714 231.491 201.775 231.394C201.86 231.285 201.933 231.175 202.03 231.09C202.493 230.64 203.186 230.421 203.831 230.543C203.964 230.567 204.086 230.616 204.208 230.664C204.342 230.713 204.451 230.774 204.548 230.847C204.67 230.92 204.767 231.005 204.852 231.09C204.95 231.187 205.023 231.285 205.108 231.394C205.181 231.503 205.242 231.625 205.29 231.735C205.327 231.856 205.375 231.99 205.4 232.112C205.424 232.245 205.436 232.379 205.436 232.513C205.436 232.635 205.424 232.769 205.4 232.902C205.375 233.024 205.339 233.158 205.29 233.279C205.242 233.401 205.169 233.523 205.108 233.62C205.023 233.729 204.95 233.839 204.852 233.924C204.755 234.021 204.67 234.094 204.548 234.167C204.439 234.252 204.342 234.301 204.208 234.35C204.086 234.398 203.964 234.447 203.831 234.471C203.709 234.496 203.575 234.508 203.441 234.508Z" fill="#A8C0FF"/>
<path d="M226.65 245.991C225.653 245.954 224.838 245.176 224.74 244.203C224.485 245.139 223.573 245.784 222.587 245.662H222.575C221.59 245.541 220.848 244.714 220.811 243.741C220.495 244.665 219.534 245.237 218.549 245.042C217.564 244.86 216.883 243.959 216.919 242.974C216.518 243.886 215.496 244.361 214.523 244.069C213.537 243.777 212.954 242.792 213.136 241.806C212.601 242.658 211.494 243.011 210.569 242.548C209.633 242.098 209.207 241.004 209.572 240.043C208.867 240.797 207.699 240.906 206.872 240.274C206.045 239.617 205.862 238.449 206.446 237.586C205.57 238.169 204.39 237.987 203.746 237.148C203.077 236.272 203.235 235.019 204.123 234.338C204.998 233.669 206.251 233.839 206.92 234.715H206.932C207.456 235.42 207.468 236.357 206.993 237.05C207.699 236.588 208.635 236.6 209.341 237.136C210.046 237.683 210.278 238.62 209.986 239.41C210.569 238.79 211.518 238.571 212.321 238.972C213.16 239.374 213.586 240.262 213.428 241.125C213.89 240.371 214.815 239.994 215.703 240.262C216.591 240.529 217.162 241.381 217.114 242.269C217.491 241.442 218.391 240.955 219.315 241.125C220.264 241.296 220.909 242.111 220.945 243.035C221.249 242.171 222.113 241.6 223.062 241.697C224.011 241.806 224.728 242.561 224.826 243.473C225.069 242.597 225.884 241.952 226.833 241.989C227.781 242.025 228.548 242.719 228.706 243.619C228.864 242.731 229.642 242.038 230.579 241.977C231.528 241.94 232.343 242.561 232.586 243.424C232.671 242.524 233.365 241.758 234.289 241.624C235.226 241.49 236.102 242.025 236.43 242.865C236.418 241.952 237.014 241.137 237.938 240.906C238.838 240.675 239.763 241.101 240.189 241.904C240.079 241.016 240.59 240.128 241.454 239.799C242.329 239.471 243.29 239.775 243.813 240.505C243.594 239.641 243.984 238.705 244.811 238.267C245.638 237.829 246.623 238.023 247.219 238.692C246.903 237.853 247.171 236.88 247.925 236.345C248.679 235.797 249.689 235.87 250.358 236.442C249.932 235.652 250.066 234.666 250.735 234.034C251.538 233.28 252.803 233.304 253.557 234.095C254.335 234.897 254.287 236.162 253.496 236.917C252.766 237.622 251.623 237.646 250.844 237.014C251.319 237.878 251.087 238.997 250.248 239.593C249.421 240.189 248.29 240.043 247.609 239.313C247.973 240.249 247.596 241.308 246.684 241.794C245.784 242.269 244.677 241.989 244.118 241.186C244.361 242.147 243.838 243.157 242.889 243.534C241.928 243.899 240.882 243.485 240.408 242.609C240.529 243.582 239.897 244.531 238.911 244.787C237.926 245.042 236.929 244.507 236.564 243.582C236.564 244.568 235.846 245.431 234.849 245.577C233.839 245.723 232.902 245.103 232.635 244.142C232.55 245.127 231.759 245.918 230.737 245.967C229.728 246.003 228.864 245.297 228.669 244.337C228.511 245.273 227.684 245.979 226.711 245.979H226.626L226.65 245.991Z" fill="#1A468F"/>
<path d="M254.761 234.544C254.238 234.544 253.727 234.325 253.35 233.961C252.973 233.583 252.766 233.085 252.766 232.55C252.766 232.014 252.985 231.516 253.35 231.139C254.092 230.397 255.43 230.397 256.172 231.139C256.549 231.516 256.756 232.026 256.756 232.55C256.756 233.073 256.549 233.583 256.172 233.961C255.795 234.338 255.284 234.544 254.761 234.544Z" fill="#A8C0FF"/>
<path d="M216.128 196.812C216.128 196.812 216.08 196.812 216.068 196.812C212.285 196.593 208.368 196.362 204.56 195.474C200.194 194.452 196.617 192.701 193.941 190.244C189.745 186.412 187.969 181.096 187.215 177.313C186.266 172.569 186.339 167.704 186.412 163.009C186.412 162.4 186.971 161.926 187.531 161.926C188.139 161.926 188.626 162.437 188.614 163.045C188.541 167.631 188.48 172.375 189.38 176.888C190.073 180.342 191.679 185.196 195.425 188.626C197.834 190.827 201.069 192.409 205.071 193.345C208.696 194.185 212.516 194.416 216.214 194.635C216.822 194.671 217.284 195.194 217.247 195.79C217.211 196.374 216.724 196.824 216.153 196.824L216.128 196.812Z" fill="#7696EA"/>
<path d="M219.34 195.632C219.34 197.274 217.491 198.612 215.204 198.612C212.917 198.612 211.068 197.274 211.068 195.632C211.068 193.99 212.917 192.652 215.204 192.652C217.491 192.652 219.34 193.978 219.34 195.632Z" fill="#7696EA"/>
<path d="M151.842 258.605C139.411 271.377 130.847 287.518 124.863 304.305C118.878 321.103 115.338 338.643 111.811 356.123C110.801 361.146 109.791 366.377 111.057 371.352C113.66 381.533 124.911 387.104 135.348 388.321C145.784 389.537 156.477 387.785 166.804 389.72C174.491 346.282 171.28 298.186 151.83 258.605H151.842Z" fill="#7696EA"/>
<path d="M187.312 366.62C194.975 364.382 202.699 362.12 210.655 361.317C218.598 360.514 226.881 361.22 234.082 364.686C241.283 368.153 247.268 374.636 248.91 382.446C249.433 384.939 244.641 385.608 242.183 386.302C239.739 387.007 237.135 386.861 234.593 386.727C226.127 386.253 217.649 385.779 209.183 385.316C203.137 384.976 196.532 386.472 191.472 383.151C188.93 381.497 187.434 378.578 186.826 375.61C186.217 372.642 187.117 369.649 187.312 366.62Z" fill="#F8A6B3"/>
<path d="M134.691 353.605C156.817 352.352 179.028 352.315 201.155 353.508C203.174 363.896 205.899 375.257 204.986 385.791C187.239 390.595 168.75 390.717 150.893 386.326C138.705 383.321 134.521 366.158 134.679 353.605H134.691Z" fill="#7696EA"/>
<g style="mix-blend-mode:multiply" opacity="0.18">
<path d="M188.918 353.301C181.242 349.275 172.18 346.866 163.556 345.978C164.943 333.328 165.247 320.568 164.444 307.869C167.667 318.086 170.003 328.584 169.869 339.3C177.362 342.025 184.758 346.489 188.918 353.289V353.301Z" fill="#7696EA"/>
</g>
<path d="M155.552 380.487H408.306V382.579C408.306 385.389 406.019 387.676 403.209 387.676H160.637C157.827 387.676 155.54 385.389 155.54 382.579V380.487H155.552Z" fill="#E0E8FF"/>
<g style="mix-blend-mode:multiply">
<path d="M155.552 380.487H408.306V382.579C408.306 385.389 406.019 387.676 403.209 387.676H160.637C157.827 387.676 155.54 385.389 155.54 382.579V380.487H155.552Z" fill="#D0D8ED"/>
</g>
<g style="mix-blend-mode:multiply">
<path d="M243.607 382.579V380.487H155.552V382.579C155.552 385.389 157.827 387.676 160.649 387.676H238.522C241.332 387.676 243.619 385.401 243.619 382.579H243.607Z" fill="#D0D8ED"/>
</g>
<path d="M408.306 380.487H243.607L280.33 279.587C281.692 275.829 285.852 272.788 289.611 272.788H440.711C444.469 272.788 446.403 275.829 445.041 279.587L408.318 380.487H408.306Z" fill="#1A468F"/>
<path d="M356.135 326.625C354.006 332.464 347.547 337.208 341.709 337.208C335.87 337.208 332.853 332.476 334.982 326.625C337.111 320.787 343.57 316.043 349.408 316.043C355.247 316.043 358.264 320.774 356.135 326.625Z" fill="#C5CCE0"/>
<g style="mix-blend-mode:multiply">
<path d="M225.957 385.401H220.24C219.522 385.401 218.938 384.818 218.938 384.1C218.938 383.382 219.522 382.798 220.24 382.798H225.957C226.674 382.798 227.258 383.382 227.258 384.1C227.258 384.818 226.674 385.401 225.957 385.401Z" fill="#D0D8ED"/>
</g>
<g style="mix-blend-mode:multiply">
<path d="M214.365 385.401H208.648C207.93 385.401 207.346 384.818 207.346 384.1C207.346 383.382 207.93 382.798 208.648 382.798H214.365C215.082 382.798 215.666 383.382 215.666 384.1C215.666 384.818 215.082 385.401 214.365 385.401Z" fill="#D0D8ED"/>
</g>
<g style="mix-blend-mode:multiply">
<path d="M202.772 385.401H197.055C196.338 385.401 195.754 384.818 195.754 384.1C195.754 383.382 196.338 382.798 197.055 382.798H202.772C203.49 382.798 204.074 383.382 204.074 384.1C204.074 384.818 203.49 385.401 202.772 385.401Z" fill="#D0D8ED"/>
</g>
<path d="M132.818 373.931C123.233 373.931 115.448 366.134 115.448 356.549C115.448 346.963 123.245 339.178 132.818 339.178C142.391 339.178 150.188 346.976 150.188 356.549C150.188 366.122 142.391 373.931 132.818 373.931ZM132.818 344.604C126.237 344.604 120.873 349.956 120.873 356.549C120.873 363.141 126.225 368.494 132.818 368.494C139.411 368.494 144.763 363.129 144.763 356.549C144.763 349.968 139.411 344.604 132.818 344.604Z" fill="#1A468F"/>
<path d="M84.3446 372.714C84.3446 374.855 84.6365 376.923 85.1718 378.882C86.6071 384.1 91.4483 387.664 96.8613 387.664H118.197C123.61 387.664 128.439 384.1 129.886 378.882C130.434 376.911 130.713 374.843 130.713 372.714V337.33H84.3446V372.714Z" fill="#1A468F"/>
<path opacity="0.1" d="M118.27 337.33V372.714C118.27 374.855 117.978 376.923 117.443 378.882C116.007 384.1 111.166 387.664 105.753 387.664H118.185C123.598 387.664 128.427 384.1 129.874 378.882C130.421 376.911 130.701 374.843 130.701 372.714V337.33H118.27Z" fill="black"/>
<g style="mix-blend-mode:screen">
<path d="M343.533 80.817C343.533 79.7709 343.46 78.7492 343.351 77.7395L347.73 75.8541C347.499 74.3337 347.146 72.8375 346.708 71.4021L341.915 71.5968C341.234 69.6384 340.334 67.7895 339.251 66.0622L342.39 62.4495C341.526 61.1845 340.565 59.9924 339.531 58.8733L335.335 61.1115C333.887 59.664 332.257 58.3989 330.518 57.292L331.771 52.6819C330.457 51.9277 329.082 51.2587 327.647 50.6992L324.825 54.5551C322.915 53.8861 320.908 53.4117 318.84 53.1806L317.977 48.4975C317.223 48.4488 316.456 48.4124 315.69 48.4124C314.924 48.4124 314.157 48.4488 313.403 48.4975L312.54 53.1806C310.46 53.4117 308.465 53.8861 306.555 54.5551L303.733 50.6992C302.31 51.2709 300.935 51.9277 299.609 52.6819L300.862 57.292C299.123 58.3868 297.493 59.664 296.045 61.1115L291.849 58.8733C290.815 59.9924 289.866 61.1845 288.99 62.4495L292.129 66.0622C291.046 67.7895 290.146 69.6384 289.465 71.5968L284.672 71.4021C284.234 72.8497 283.894 74.3337 283.65 75.8541L288.029 77.7395C287.92 78.7492 287.847 79.7709 287.847 80.817C287.847 81.8631 287.92 82.8849 288.029 83.8945L283.65 85.7799C283.881 87.3004 284.234 88.7965 284.672 90.2319L289.465 90.0373C290.146 91.9956 291.046 93.8446 292.129 95.5718L288.99 99.1845C289.854 100.45 290.815 101.642 291.849 102.761L296.045 100.523C297.493 101.97 299.123 103.235 300.862 104.342L299.609 108.952C300.923 109.706 302.298 110.375 303.733 110.935L306.555 107.079C308.465 107.748 310.472 108.222 312.54 108.453L313.403 113.137C314.157 113.185 314.924 113.222 315.69 113.222C316.456 113.222 317.223 113.185 317.977 113.137L318.84 108.453C320.92 108.222 322.915 107.748 324.825 107.079L327.647 110.935C329.07 110.363 330.445 109.706 331.771 108.952L330.518 104.342C332.257 103.247 333.887 101.97 335.335 100.523L339.531 102.761C340.565 101.642 341.514 100.45 342.39 99.1845L339.251 95.5718C340.334 93.8446 341.234 91.9956 341.915 90.0373L346.708 90.2319C347.146 88.7844 347.486 87.3004 347.73 85.7799L343.351 83.8945C343.46 82.8849 343.533 81.8631 343.533 80.817ZM315.714 100.498C304.84 100.498 296.021 91.6794 296.021 80.8049C296.021 69.9303 304.84 61.1115 315.714 61.1115C326.589 61.1115 335.408 69.9303 335.408 80.8049C335.408 91.6794 326.589 100.498 315.714 100.498Z" fill="#E0E8FF"/>
</g>
<g style="mix-blend-mode:screen">
<path d="M111.92 201.97C111.92 201.094 111.859 200.242 111.774 199.391L115.448 197.81C115.253 196.532 114.961 195.279 114.596 194.075L110.582 194.246C110.01 192.603 109.256 191.059 108.344 189.611L110.971 186.582C110.242 185.524 109.439 184.527 108.575 183.578L105.06 185.463C103.843 184.247 102.481 183.189 101.021 182.264L102.08 178.396C100.973 177.763 99.8171 177.204 98.625 176.729L96.253 179.965C94.6474 179.406 92.9688 179.004 91.2293 178.81L90.4995 174.881C89.867 174.832 89.2223 174.808 88.5776 174.808C87.9329 174.808 87.2882 174.844 86.6557 174.881L85.9259 178.81C84.1864 179.004 82.5078 179.406 80.9022 179.965L78.5302 176.729C77.3381 177.204 76.1826 177.763 75.0757 178.396L76.1339 182.264C74.6742 183.189 73.3119 184.247 72.0955 185.463L68.5801 183.578C67.7165 184.514 66.9137 185.524 66.1838 186.582L68.8112 189.611C67.899 191.059 67.157 192.616 66.5731 194.246L62.559 194.075C62.1941 195.292 61.9021 196.532 61.7075 197.81L65.381 199.391C65.2837 200.242 65.2351 201.094 65.2351 201.97C65.2351 202.845 65.2959 203.697 65.381 204.548L61.7075 206.13C61.9021 207.407 62.1941 208.66 62.559 209.864L66.5731 209.694C67.1448 211.336 67.899 212.881 68.8112 214.328L66.1838 217.357C66.9137 218.415 67.7165 219.413 68.5801 220.361L72.0955 218.476C73.3119 219.692 74.6742 220.751 76.1339 221.675L75.0757 225.543C76.1826 226.176 77.3381 226.735 78.5302 227.21L80.9022 223.974C82.5078 224.534 84.1864 224.935 85.9259 225.13L86.6557 229.059C87.2882 229.107 87.9329 229.132 88.5776 229.132C89.2223 229.132 89.867 229.095 90.4995 229.059L91.2293 225.13C92.9688 224.935 94.6474 224.534 96.253 223.974L98.625 227.21C99.8171 226.735 100.973 226.176 102.08 225.543L101.021 221.675C102.481 220.751 103.843 219.692 105.06 218.476L108.575 220.361C109.439 219.425 110.242 218.415 110.971 217.357L108.344 214.328C109.256 212.881 109.998 211.324 110.582 209.694L114.596 209.864C114.961 208.648 115.253 207.407 115.448 206.13L111.774 204.548C111.871 203.697 111.92 202.845 111.92 201.97ZM88.5776 218.476C79.4547 218.476 72.0712 211.08 72.0712 201.97C72.0712 192.859 79.4668 185.463 88.5776 185.463C97.6884 185.463 105.084 192.859 105.084 201.97C105.084 211.08 97.6884 218.476 88.5776 218.476Z" fill="#E0E8FF"/>
</g>
<g style="mix-blend-mode:screen">
<path d="M445.029 239.738C445.029 239.106 444.992 238.473 444.919 237.853L447.608 236.697C447.462 235.761 447.255 234.849 446.987 233.961L444.056 234.082C443.63 232.89 443.083 231.747 442.426 230.688L444.348 228.475C443.812 227.708 443.229 226.966 442.596 226.285L440.017 227.66C439.129 226.772 438.132 225.993 437.061 225.324L437.828 222.49C437.025 222.028 436.173 221.614 435.298 221.274L433.57 223.646C432.403 223.232 431.174 222.94 429.897 222.806L429.362 219.936C428.899 219.899 428.425 219.875 427.963 219.875C427.501 219.875 427.026 219.899 426.564 219.936L426.029 222.806C424.752 222.952 423.535 223.244 422.355 223.646L420.628 221.274C419.752 221.626 418.913 222.028 418.098 222.49L418.864 225.324C417.794 226.005 416.796 226.772 415.908 227.66L413.33 226.285C412.697 226.978 412.113 227.708 411.578 228.475L413.5 230.688C412.831 231.747 412.284 232.878 411.87 234.082L408.938 233.961C408.671 234.849 408.464 235.761 408.318 236.697L411.006 237.853C410.933 238.473 410.897 239.106 410.897 239.738C410.897 240.371 410.933 241.003 411.006 241.624L408.318 242.779C408.464 243.716 408.671 244.628 408.938 245.516L411.87 245.395C412.296 246.587 412.843 247.73 413.5 248.788L411.578 251.002C412.113 251.769 412.697 252.511 413.33 253.192L415.908 251.817C416.796 252.705 417.794 253.484 418.864 254.153L418.098 256.987C418.901 257.449 419.752 257.863 420.628 258.203L422.355 255.831C423.523 256.245 424.752 256.537 426.029 256.671L426.564 259.541C427.026 259.578 427.501 259.602 427.963 259.602C428.425 259.602 428.899 259.578 429.362 259.541L429.897 256.671C431.174 256.525 432.391 256.233 433.57 255.831L435.298 258.203C436.173 257.851 437.013 257.449 437.828 256.987L437.061 254.153C438.132 253.471 439.129 252.705 440.017 251.817L442.596 253.192C443.229 252.498 443.812 251.769 444.348 251.002L442.426 248.788C443.095 247.73 443.642 246.599 444.056 245.395L446.987 245.516C447.255 244.628 447.462 243.716 447.608 242.779L444.919 241.624C444.992 241.003 445.029 240.371 445.029 239.738ZM427.963 251.805C421.297 251.805 415.884 246.404 415.884 239.726C415.884 233.048 421.285 227.647 427.963 227.647C434.641 227.647 440.042 233.048 440.042 239.726C440.042 246.404 434.641 251.805 427.963 251.805Z" fill="#E0E8FF"/>
</g>
<path d="M369.163 186.874H326.844C319.984 186.874 314.425 192.433 314.425 199.294V219.522C314.425 226.383 319.984 231.942 326.844 231.942H328.267L325.385 236.004C324.448 237.33 325.835 239.07 327.343 238.425L340.845 232.708C342.049 232.197 343.351 231.929 344.652 231.929H369.163C376.023 231.929 381.582 226.37 381.582 219.51V199.281C381.582 192.421 376.023 186.862 369.163 186.862V186.874Z" fill="#1A468F"/>
<path d="M373.067 201.97H322.928C321.735 201.97 320.774 201.009 320.774 199.817C320.774 198.625 321.735 197.664 322.928 197.664H373.067C374.259 197.664 375.22 198.625 375.22 199.817C375.22 201.009 374.259 201.97 373.067 201.97Z" fill="#EDEDED"/>
<path d="M373.067 211.567H322.928C321.735 211.567 320.774 210.606 320.774 209.414C320.774 208.222 321.735 207.261 322.928 207.261H373.067C374.259 207.261 375.22 208.222 375.22 209.414C375.22 210.606 374.259 211.567 373.067 211.567Z" fill="#EDEDED"/>
<path d="M351.123 221.152H322.94C321.748 221.152 320.787 220.191 320.787 218.999C320.787 217.807 321.748 216.846 322.94 216.846H351.123C352.315 216.846 353.276 217.807 353.276 218.999C353.276 220.191 352.315 221.152 351.123 221.152Z" fill="#EDEDED"/>
<path d="M436.028 65.9285H395.741C382.076 65.9285 370.999 77.0056 370.999 90.6699V130.957C370.999 144.621 382.076 155.698 395.741 155.698H436.028C449.692 155.698 460.769 144.621 460.769 130.957V90.6699C460.769 77.0056 449.692 65.9285 436.028 65.9285Z" fill="#A8C0FF"/>
<path d="M392.079 133.694C380.511 120.569 381.764 100.474 394.889 88.906C408.014 77.3381 428.109 78.591 439.677 91.7158C440.601 92.7619 440.504 94.3676 439.458 95.292C438.412 96.2165 436.806 96.1192 435.882 95.0731C426.163 84.0404 409.267 82.9822 398.246 92.7133C387.214 102.432 386.155 119.328 395.887 130.348C405.606 141.381 422.501 142.439 433.522 132.708C440.771 126.31 443.995 116.469 441.939 107.006C441.647 105.644 442.511 104.293 443.873 103.989C445.236 103.697 446.586 104.561 446.89 105.923C449.335 117.175 445.503 128.889 436.867 136.491C423.742 148.059 403.647 146.806 392.079 133.681V133.694Z" fill="#1A468F"/>
<path d="M422.234 96.095C421.881 95.6935 421.65 95.1827 421.613 94.611C421.504 93.2121 422.55 91.9957 423.949 91.8862L435.042 91.0226L434.179 79.9291C434.069 78.5303 435.115 77.3139 436.514 77.2044C437.913 77.0949 439.129 78.141 439.239 79.5399L440.297 93.1634C440.346 93.8325 440.127 94.5015 439.701 95.0124C439.263 95.5232 438.643 95.8395 437.974 95.8882L424.35 96.9464C423.523 97.0072 422.757 96.6667 422.258 96.095H422.234Z" fill="#1A468F"/>
<path d="M395.72 115.41C396.076 115.127 396.238 114.996 396.206 115.017C397.232 114.17 398.037 113.474 398.623 112.931C399.219 112.387 399.721 111.817 400.129 111.22C400.537 110.624 400.741 110.044 400.741 109.479C400.741 109.05 400.641 108.715 400.443 108.475C400.244 108.234 399.946 108.114 399.548 108.114C399.151 108.114 398.837 108.265 398.607 108.569C398.387 108.862 398.278 109.28 398.278 109.824H395.689C395.71 108.935 395.898 108.192 396.254 107.596C396.62 107 397.096 106.56 397.681 106.278C398.278 105.996 398.937 105.854 399.658 105.854C400.903 105.854 401.839 106.173 402.467 106.811C403.105 107.449 403.424 108.281 403.424 109.306C403.424 110.425 403.042 111.466 402.278 112.428C401.515 113.38 400.542 114.311 399.36 115.221H403.596V117.402H395.72V115.41ZM404.84 115.519V113.354L409.799 106.262H412.795V113.197H414.082V115.519H412.795V117.559H410.112V115.519H404.84ZM410.301 109.212L407.665 113.197H410.301V109.212ZM421.641 102.654L417.436 120.493H414.847L419.052 102.654H421.641ZM429.817 108.114L425.879 117.559H423.133L427.118 108.412H422.239V106.121H429.817V108.114Z" fill="#1A468F"/>
<g style="mix-blend-mode:multiply">
<path d="M35.6402 139.678C37.8974 139.678 39.7272 137.848 39.7272 135.591C39.7272 133.334 37.8974 131.504 35.6402 131.504C33.3829 131.504 31.5531 133.334 31.5531 135.591C31.5531 137.848 33.3829 139.678 35.6402 139.678Z" fill="#E0E8FF"/>
<path d="M5.59534 239.739C7.0397 239.739 8.21058 238.568 8.21058 237.123C8.21058 235.679 7.0397 234.508 5.59534 234.508C4.15099 234.508 2.9801 235.679 2.9801 237.123C2.9801 238.568 4.15099 239.739 5.59534 239.739Z" fill="#E0E8FF"/>
<path d="M31.5531 355.259C31.5531 356.342 30.6773 357.218 29.5947 357.218C28.5122 357.218 27.6364 356.342 27.6364 355.259C27.6364 354.177 28.5122 353.301 29.5947 353.301C30.6773 353.301 31.5531 354.177 31.5531 355.259Z" fill="#E0E8FF"/>
<path d="M41.098 104.427C41.1131 103.534 40.4012 102.798 39.5078 102.782C38.6144 102.767 37.878 103.479 37.8628 104.373C37.8477 105.266 38.5597 106.002 39.453 106.018C40.3464 106.033 41.0829 105.321 41.098 104.427Z" fill="#E0E8FF"/>
<path d="M141.953 15.4847C143.505 15.4847 144.763 14.2267 144.763 12.6749C144.763 11.123 143.505 9.86499 141.953 9.86499C140.401 9.86499 139.143 11.123 139.143 12.6749C139.143 14.2267 140.401 15.4847 141.953 15.4847Z" fill="#E0E8FF"/>
<path d="M243.607 13.1249C243.607 14.9252 242.147 16.3848 240.347 16.3848C238.546 16.3848 237.087 14.9252 237.087 13.1249C237.087 11.3247 238.546 9.86499 240.347 9.86499C242.147 9.86499 243.607 11.3247 243.607 13.1249Z" fill="#E0E8FF"/>
<path d="M264.212 44.6172C264.212 46.6729 262.546 48.3393 260.49 48.3393C258.434 48.3393 256.768 46.6729 256.768 44.6172C256.768 42.5615 258.434 40.895 260.49 40.895C262.546 40.895 264.212 42.5615 264.212 44.6172Z" fill="#E0E8FF"/>
<path d="M363.008 40.8951C365.265 40.8951 367.095 39.0653 367.095 36.808C367.095 34.5508 365.265 32.7209 363.008 32.7209C360.75 32.7209 358.92 34.5508 358.92 36.808C358.92 39.0653 360.75 40.8951 363.008 40.8951Z" fill="#E0E8FF"/>
<path d="M317.709 20.0462C317.709 20.9585 316.967 21.6883 316.067 21.6883C315.167 21.6883 314.425 20.9463 314.425 20.0462C314.425 19.1461 315.167 18.4041 316.067 18.4041C316.967 18.4041 317.709 19.1461 317.709 20.0462Z" fill="#E0E8FF"/>
<path d="M408.306 47.2689C408.306 48.7286 407.114 49.9207 405.654 49.9207C404.194 49.9207 403.002 48.7286 403.002 47.2689C403.002 45.8093 404.194 44.6172 405.654 44.6172C407.114 44.6172 408.306 45.8093 408.306 47.2689Z" fill="#E0E8FF"/>
<path d="M478.954 96.8614C478.954 98.4427 477.665 99.7321 476.083 99.7321C474.502 99.7321 473.213 98.4427 473.213 96.8614C473.213 95.2801 474.502 93.9907 476.083 93.9907C477.665 93.9907 478.954 95.2801 478.954 96.8614Z" fill="#E0E8FF"/>
<path d="M476.521 168.191C476.521 170.684 474.502 172.703 472.008 172.703C469.515 172.703 467.495 170.684 467.495 168.191C467.495 165.697 469.515 163.678 472.008 163.678C474.502 163.678 476.521 165.697 476.521 168.191Z" fill="#E0E8FF"/>
<path d="M505.678 206.495C506.928 206.495 507.941 205.482 507.941 204.232C507.941 202.983 506.928 201.97 505.678 201.97C504.428 201.97 503.416 202.983 503.416 204.232C503.416 205.482 504.428 206.495 505.678 206.495Z" fill="#E0E8FF"/>
<path d="M464.138 210.959C465.999 210.959 467.508 209.45 467.508 207.589C467.508 205.729 465.999 204.22 464.138 204.22C462.277 204.22 460.769 205.729 460.769 207.589C460.769 209.45 462.277 210.959 464.138 210.959Z" fill="#E0E8FF"/>
<path d="M486.897 347.414C488.59 347.414 489.962 346.041 489.962 344.348C489.962 342.655 488.59 341.283 486.897 341.283C485.204 341.283 483.832 342.655 483.832 344.348C483.832 346.041 485.204 347.414 486.897 347.414Z" fill="#E0E8FF"/>
<path d="M461.997 371.085C464.369 371.085 466.291 369.162 466.291 366.791C466.291 364.419 464.369 362.497 461.997 362.497C459.626 362.497 457.704 364.419 457.704 366.791C457.704 369.162 459.626 371.085 461.997 371.085Z" fill="#E0E8FF"/>
</g>
<g style="mix-blend-mode:multiply">
<path d="M68.9937 30.2759C69.7721 35.774 74.1025 40.1043 79.6006 40.8828C74.1025 41.6613 69.7721 45.9917 68.9937 51.4897C68.2152 45.9917 63.8848 41.6613 58.3867 40.8828C63.8848 40.1043 68.2152 35.774 68.9937 30.2759Z" fill="#E0E8FF"/>
</g>
<g style="mix-blend-mode:multiply">
<path d="M503.416 136.601C504.024 140.87 507.369 144.215 511.638 144.824C507.369 145.432 504.024 148.777 503.416 153.046C502.807 148.777 499.462 145.432 495.193 144.824C499.462 144.215 502.807 140.87 503.416 136.601Z" fill="#E0E8FF"/>
</g>
<g style="mix-blend-mode:multiply">
<path d="M8.2228 322.259C8.831 326.528 12.1761 329.873 16.4456 330.481C12.1761 331.09 8.831 334.435 8.2228 338.704C7.61461 334.435 4.26953 331.09 0 330.481C4.26953 329.873 7.61461 326.528 8.2228 322.259Z" fill="#E0E8FF"/>
</g>
<g style="mix-blend-mode:multiply">
<path d="M507.941 308.89C508.549 313.16 511.894 316.505 516.163 317.113C511.894 317.721 508.549 321.066 507.941 325.336C507.332 321.066 503.987 317.721 499.718 317.113C503.987 316.505 507.332 313.16 507.941 308.89Z" fill="#E0E8FF"/>
</g>
<g style="mix-blend-mode:multiply">
<path d="M8.22275 159.323C8.70931 162.778 11.4219 165.49 14.8764 165.977C11.4219 166.463 8.70931 169.176 8.22275 172.63C7.7362 169.176 5.02364 166.463 1.56909 165.977C5.02364 165.49 7.7362 162.778 8.22275 159.323Z" fill="#E0E8FF"/>
</g>
<g style="mix-blend-mode:multiply">
<path d="M282.166 3.21118C282.653 6.66573 285.365 9.37828 288.82 9.86484C285.365 10.3514 282.653 13.0639 282.166 16.5185C281.68 13.0639 278.967 10.3514 275.513 9.86484C278.967 9.37828 281.68 6.66573 282.166 3.21118Z" fill="#E0E8FF"/>
</g>
<g style="mix-blend-mode:multiply">
<path d="M464.71 32.7209C465.489 38.219 469.807 42.5372 475.305 43.3157C469.807 44.0942 465.489 48.4124 464.71 53.9105C463.932 48.4124 459.613 44.0942 454.115 43.3157C459.613 42.5372 463.932 38.219 464.71 32.7209Z" fill="#E0E8FF"/>
</g>
<path d="M129.424 59.1653H64.9188C53.4445 59.1653 44.1428 68.467 44.1428 79.9412V113.793C44.1428 125.268 53.4445 134.569 64.9188 134.569H129.424C140.898 134.569 150.2 125.268 150.2 113.793V79.9412C150.2 68.467 140.898 59.1653 129.424 59.1653Z" fill="#A8C0FF"/>
<path d="M74.1534 87.2456C76.2761 82.8546 74.4373 77.5741 70.0462 75.4514C65.6552 73.3287 60.3747 75.1675 58.252 79.5586C56.1293 83.9496 57.9681 89.2301 62.3592 91.3528C66.7502 93.4755 72.0307 91.6367 74.1534 87.2456Z" fill="#1A468F"/>
<path d="M129.144 80.002H84.454C82.9579 80.002 81.7415 78.7856 81.7415 77.2895C81.7415 75.7933 82.9579 74.5769 84.454 74.5769H129.144C130.64 74.5769 131.857 75.7933 131.857 77.2895C131.857 78.7856 130.64 80.002 129.144 80.002Z" fill="#1A468F"/>
<path d="M129.144 92.3484H84.454C82.9579 92.3484 81.7415 91.1321 81.7415 89.6359C81.7415 88.1397 82.9579 86.9233 84.454 86.9233H129.144C130.64 86.9233 131.857 88.1397 131.857 89.6359C131.857 91.1321 130.64 92.3484 129.144 92.3484Z" fill="#1A468F"/>
<path d="M74.5135 113.22C76.1672 108.632 73.7882 103.572 69.1999 101.918C64.6116 100.264 59.5514 102.643 57.8977 107.231C56.244 111.82 58.623 116.88 63.2113 118.534C67.7996 120.187 72.8598 117.808 74.5135 113.22Z" fill="#1A468F"/>
<path d="M129.144 106.811H84.454C82.9579 106.811 81.7415 105.595 81.7415 104.099C81.7415 102.603 82.9579 101.386 84.454 101.386H129.144C130.64 101.386 131.857 102.603 131.857 104.099C131.857 105.595 130.64 106.811 129.144 106.811Z" fill="#1A468F"/>
<path d="M129.144 119.17H84.454C82.9579 119.17 81.7415 117.953 81.7415 116.457C81.7415 114.961 82.9579 113.745 84.454 113.745H129.144C130.64 113.745 131.857 114.961 131.857 116.457C131.857 117.953 130.64 119.17 129.144 119.17Z" fill="#1A468F"/>
<path d="M79.9291 244.044H48.3759C37.681 244.044 29.011 252.714 29.011 263.409V294.963C29.011 305.658 37.681 314.328 48.3759 314.328H79.9291C90.6241 314.328 99.2941 305.658 99.2941 294.963V263.409C99.2941 252.714 90.6241 244.044 79.9291 244.044Z" fill="#A8C0FF"/>
<path d="M63.0126 262.63C66.0229 262.63 68.4283 263.418 70.2288 264.994C72.0575 266.569 72.9718 268.792 72.9718 271.661C72.9718 274.306 72.0997 276.374 70.3554 277.865C68.6393 279.328 66.3605 280.073 63.519 280.101L63.308 283.266H56.978L56.767 275.417H59.299C61.4653 275.417 63.1111 275.15 64.2364 274.615C65.3899 274.081 65.9666 273.11 65.9666 271.703C65.9666 270.719 65.6994 269.945 65.1648 269.382C64.6303 268.82 63.8848 268.538 62.9282 268.538C61.9154 268.538 61.1277 268.834 60.565 269.425C60.0024 269.987 59.721 270.761 59.721 271.746H52.9268C52.8706 270.029 53.2222 268.482 53.9818 267.104C54.7696 265.725 55.923 264.642 57.4422 263.854C58.9896 263.038 60.8464 262.63 63.0126 262.63ZM60.2274 294.238C58.9614 294.238 57.9205 293.873 57.1046 293.141C56.3169 292.381 55.923 291.453 55.923 290.356C55.923 289.231 56.3169 288.288 57.1046 287.528C57.9205 286.769 58.9614 286.389 60.2274 286.389C61.4653 286.389 62.4781 286.769 63.2658 287.528C64.0817 288.288 64.4896 289.231 64.4896 290.356C64.4896 291.453 64.0817 292.381 63.2658 293.141C62.4781 293.873 61.4653 294.238 60.2274 294.238Z" fill="#1A468F"/>
<path d="M255.394 0H215.107C201.442 0 190.365 11.0771 190.365 24.7414V40.7004C190.365 54.3647 201.442 65.4418 215.107 65.4418H255.394C269.058 65.4418 280.135 54.3647 280.135 40.7004V24.7414C280.135 11.0771 269.058 0 255.394 0Z" fill="#A8C0FF"/>
<path d="M259.967 32.7209C259.967 36.3457 257.023 39.2894 253.399 39.2894C249.774 39.2894 246.83 36.3457 246.83 32.7209C246.83 29.096 249.774 26.1523 253.399 26.1523C257.023 26.1523 259.967 29.096 259.967 32.7209Z" fill="#1A468F"/>
<path d="M235.25 39.2894C238.878 39.2894 241.819 36.3485 241.819 32.7209C241.819 29.0932 238.878 26.1523 235.25 26.1523C231.622 26.1523 228.682 29.0932 228.682 32.7209C228.682 36.3485 231.622 39.2894 235.25 39.2894Z" fill="#1A468F"/>
<path d="M217.101 39.2894C220.729 39.2894 223.67 36.3485 223.67 32.7209C223.67 29.0932 220.729 26.1523 217.101 26.1523C213.474 26.1523 210.533 29.0932 210.533 32.7209C210.533 36.3485 213.474 39.2894 217.101 39.2894Z" fill="#1A468F"/>
</g>
<defs>
<clipPath id="clip0_89_10193">
<rect width="516.163" height="404" fill="white"/>
</clipPath>
</defs>
</svg>
