<svg width="864" height="499" viewBox="0 0 864 499" fill="none" xmlns="http://www.w3.org/2000/svg">
<path d="M849.105 466.178C848.959 466.622 848.81 467.067 848.66 467.516C847.366 471.303 845.948 475.15 844.392 479.054C844.176 479.597 843.954 480.144 843.732 480.687C841.84 485.336 839.751 490.068 837.454 494.884C837.454 494.884 837.453 494.886 837.45 494.891C837.425 494.946 837.399 495.008 837.37 495.062H102.901C102.901 495.062 -36.4888 458.393 9.19571 275.27C34.1322 175.314 61.5167 229.587 79.4775 139.783C93.9243 90.5853 105.158 66.8981 115.151 53.8319C115.679 53.1319 116.219 52.4393 116.769 51.7612C118.169 50.0039 119.613 48.3014 121.093 46.6463C121.505 46.1869 121.917 45.7312 122.333 45.2791C126.106 41.196 130.116 37.4154 134.337 33.9301C135.187 33.2301 136.04 32.5374 136.911 31.863H136.915C188.762 -8.70624 270.258 -6.97454 328.473 17.1526C405.788 49.1909 547.294 -6.49696 668.209 34.1962C670.214 34.867 672.212 35.567 674.203 36.2998H674.206C678.395 37.8273 682.551 39.4752 686.678 41.2579C695.667 45.1297 703.524 49.53 710.388 54.3715C711.365 55.0605 712.32 55.7605 713.257 56.4641H713.265C797.028 119.662 722.561 252.179 765.826 272.672C792.971 285.53 833.047 314.4 850.381 361.273C850.6 361.867 850.819 362.465 851.03 363.067C851.267 363.734 851.497 364.405 851.723 365.075C851.927 365.681 852.127 366.289 852.317 366.895C861.059 394.121 862.113 427.103 849.102 466.185L849.105 466.178Z" fill="#2B5EB4"/>
<g opacity="0.4">
<path d="M287.978 152.328H363.306V90.2123H287.978V152.328Z" fill="#77A7ED"/>
<path d="M325.644 152.328H400.972V90.2123H325.644V152.328Z" fill="#6588BD"/>
<path d="M288.022 136.574H299.957L298.904 133.217L299.957 130.814H288.022V136.574Z" fill="#5D82B0"/>
<path d="M325.641 109.436H337.577L336.527 106.075L337.577 103.676H325.641V109.436Z" fill="#4B75A6"/>
<path d="M325.64 103.676H313.705L314.755 107.033L313.705 109.436H325.64V103.676Z" fill="#5D82B0"/>
<path d="M400.971 137.242H389.036L390.086 140.599L389.036 143.002H400.971V137.242Z" fill="#4B75A6"/>
<path d="M396.036 94.423H374.359V102.856H396.036V94.423Z" fill="white"/>
<path d="M154.944 152.328H230.272V90.2123H154.944V152.328Z" fill="#77A7ED"/>
<path d="M192.611 152.328H267.939V90.2123H192.611V152.328Z" fill="#6588BD"/>
<path d="M154.988 136.574H166.924L165.874 133.217L166.924 130.814H154.988V136.574Z" fill="#5D82B0"/>
<path d="M192.61 109.436H204.546L203.496 106.075L204.546 103.676H192.61V109.436Z" fill="#4B75A6"/>
<path d="M192.611 103.676H180.671L181.725 107.033L180.671 109.436H192.611V103.676Z" fill="#5D82B0"/>
<path d="M267.943 137.242H256.003L257.057 140.599L256.003 143.002H267.943V137.242Z" fill="#4B75A6"/>
<path d="M263.006 94.423H241.329V102.856H263.006V94.423Z" fill="white"/>
<path d="M135.193 152.328H106.218V497.924H135.193V152.328Z" fill="#77A7ED"/>
<path d="M447.955 152.328H423.873V497.924H447.955V152.328Z" fill="#77A7ED"/>
<path d="M447.959 152.328H135.193V161.321H447.959V152.328Z" fill="#77A7ED"/>
<path d="M447.959 316.132H135.193V325.126H447.959V316.132Z" fill="#77A7ED"/>
<path d="M447.959 453.516H135.193V462.51H447.959V453.516Z" fill="#77A7ED"/>
<path d="M293.195 316.132H371.075V251.913H293.195V316.132Z" fill="#61A9FF"/>
<path d="M332.132 316.132H410.012V251.913H332.132V316.132Z" fill="#6588BD"/>
<path d="M293.238 299.843H305.578L304.492 296.372L305.578 293.89H293.238V299.843Z" fill="#5D82B0"/>
<path d="M332.133 271.786H344.473L343.387 268.311L344.473 265.832H332.133V271.786Z" fill="#4B75A6"/>
<path d="M332.134 265.832H319.793L320.88 269.303L319.793 271.786H332.134V265.832Z" fill="#5D82B0"/>
<path d="M410.016 300.532H397.676L398.763 304.006L397.676 306.489H410.016V300.532Z" fill="#4B75A6"/>
<path d="M404.916 256.266H382.503V264.987H404.916V256.266Z" fill="white"/>
<path d="M193.248 316.132H271.128V251.913H193.248V316.132Z" fill="#77A7ED"/>
<path d="M232.186 316.132H310.066V251.913H232.186V316.132Z" fill="#6588BD"/>
<path d="M193.292 299.843H205.632L204.546 296.372L205.632 293.89H193.292V299.843Z" fill="#5D82B0"/>
<path d="M232.186 271.786H244.526L243.44 268.311L244.526 265.832H232.186V271.786Z" fill="#4B75A6"/>
<path d="M232.186 265.832H219.846L220.933 269.303L219.846 271.786H232.186V265.832Z" fill="#5D82B0"/>
<path d="M310.07 300.532H297.73L298.816 304.006L297.73 306.489H310.07V300.532Z" fill="#4B75A6"/>
<path d="M310.07 264.983H297.73L298.816 268.457L297.73 270.94H310.07V264.983Z" fill="#4B75A6"/>
<path d="M276.582 295.042H240.053V309.253H276.582V295.042Z" fill="white"/>
<path d="M293.191 453.308H360.506V397.803H293.191V453.308Z" fill="#77A7ED"/>
<path d="M326.847 453.308H394.162V397.803H326.847V453.308Z" fill="#6588BD"/>
<path d="M293.231 439.232H303.898L302.958 436.228L303.898 434.085H293.231V439.232Z" fill="#5D82B0"/>
<path d="M326.851 414.981H337.517L336.577 411.977L337.517 409.834H326.851V414.981Z" fill="#4B75A6"/>
<path d="M326.85 409.834H316.183L317.124 412.834L316.183 414.981H326.85V409.834Z" fill="#5D82B0"/>
<path d="M394.165 439.827H383.499L384.439 442.831L383.499 444.974H394.165V439.827Z" fill="#4B75A6"/>
<path d="M389.754 401.565H370.385V409.101H389.754V401.565Z" fill="white"/>
<path d="M165.35 453.308H243.229V389.089H165.35V453.308Z" fill="#77A7ED"/>
<path d="M204.291 453.308H282.17V389.089H204.291V453.308Z" fill="#6588BD"/>
<path d="M165.392 437.023H177.736L176.646 433.549L177.736 431.066H165.392V437.023Z" fill="#4D74C2"/>
<path d="M204.291 408.962H216.631L215.544 405.488L216.631 403.009H204.291V408.962Z" fill="#174F90"/>
<path d="M204.291 403.009H191.947L193.037 406.479L191.947 408.962H204.291V403.009Z" fill="#4D74C2"/>
<path d="M282.17 437.712H269.83L270.916 441.183L269.83 443.665H282.17V437.712Z" fill="#174F90"/>
<path d="M277.074 393.442H254.661V402.163H277.074V393.442Z" fill="white"/>
<path d="M187.27 251.614H246.809V202.518H187.27V251.614Z" fill="#77A7ED"/>
<path d="M217.039 251.614H276.578V202.518H217.039V251.614Z" fill="#6588BD"/>
<path d="M187.306 239.164H196.74L195.909 236.51L196.74 234.614H187.306V239.164Z" fill="#5D82B0"/>
<path d="M217.039 217.713H226.473L225.642 215.059L226.473 213.163H217.039V217.713Z" fill="#4B75A6"/>
<path d="M217.039 213.163H207.604L208.436 215.817L207.604 217.713H217.039V213.163Z" fill="#5D82B0"/>
<path d="M276.582 239.693H267.147L267.979 242.347L267.147 244.246H276.582V239.693Z" fill="#4B75A6"/>
<path d="M272.681 205.85H255.547V212.514H272.681V205.85Z" fill="white"/>
<path d="M293.65 251.614H353.189V202.518H293.65V251.614Z" fill="#77A7ED"/>
<path d="M323.42 251.614H382.959V202.518H323.42V251.614Z" fill="#6588BD"/>
<path d="M293.683 239.164H303.118L302.287 236.51L303.118 234.614H293.683V239.164Z" fill="#5D82B0"/>
<path d="M323.417 217.713H332.852L332.021 215.059L332.852 213.163H323.417V217.713Z" fill="#4B75A6"/>
<path d="M323.416 213.163H313.981L314.813 215.817L313.981 217.713H323.416V213.163Z" fill="#5D82B0"/>
<path d="M382.959 239.693H373.524L374.356 242.347L373.524 244.246H382.959V239.693Z" fill="#4B75A6"/>
<path d="M379.058 205.85H361.924V212.514H379.058V205.85Z" fill="white"/>
</g>
<path d="M770.492 401.944L769.012 401.507C772.927 388.204 765.822 374.354 753.179 370.631L721.328 361.258C714.773 359.33 711.091 352.148 713.118 345.25C719.677 322.96 707.774 299.752 686.586 293.518L687.045 291.957C709.05 298.432 721.412 322.537 714.602 345.688C712.827 351.725 716.049 358.01 721.787 359.698L753.638 369.071C767.102 373.034 774.662 387.777 770.496 401.941L770.492 401.944Z" fill="#2B478B"/>
<path d="M767.272 412.878L765.792 412.44C769.707 399.137 762.602 385.287 749.96 381.565L718.108 372.192C711.554 370.263 707.872 363.081 709.899 356.187C716.457 333.897 704.554 310.689 683.366 304.451L683.826 302.891C705.83 309.366 718.192 333.471 711.382 356.621C709.607 362.658 712.83 368.943 718.568 370.631L750.419 380.004C763.882 383.967 771.443 398.711 767.276 412.874L767.272 412.878Z" fill="#2B478B"/>
<path d="M601.798 251.374H534.734V306.675H601.798V251.374Z" fill="#A06E4D"/>
<path d="M568.266 251.374H501.202V306.675H568.266V251.374Z" fill="#EFC531"/>
<path d="M601.761 292.65H591.134L592.071 289.657L591.134 287.521H601.761V292.65Z" fill="#EFC531"/>
<path d="M568.266 268.486H557.639L558.576 265.497L557.639 263.361H568.266V268.486Z" fill="#EFC531"/>
<path d="M568.266 263.361H578.892L577.959 266.35L578.892 268.486H568.266V263.361Z" fill="#EFC531"/>
<path d="M501.202 293.244H511.829L510.892 296.234L511.829 298.37H501.202V293.244Z" fill="#EFC531"/>
<path d="M505.592 262.631H524.892V255.121H505.592V262.631Z" fill="white"/>
<path d="M604.208 100.993C594.591 100.993 584.508 99.465 578.912 96.2386C570.01 91.1018 558.716 93.2783 558.603 93.3001L558.329 91.9366C558.81 91.8382 570.243 89.6253 579.608 95.0318C588.839 100.358 611.773 100.832 622.155 97.2958C632.385 93.8142 645.964 90.0664 651.611 90.0664V91.4591C646.121 91.4591 632.727 95.1667 622.604 98.6156C618.014 100.18 611.233 100.993 604.205 100.993H604.208Z" fill="#2B478B"/>
<path d="M548.934 200.4H544.534V229.091H548.934V200.4Z" fill="#2B478B"/>
<path d="M557.643 200.4H553.243V229.091H557.643V200.4Z" fill="#2B478B"/>
<path d="M604.208 97.901C594.591 97.901 584.508 96.3735 578.912 93.1471C570.01 88.0103 558.716 90.1868 558.603 90.2086L558.329 88.8452C558.81 88.7467 570.243 86.5374 579.608 91.9403C588.839 97.2667 611.773 97.7406 622.155 94.2043C632.385 90.7227 645.964 86.9749 651.611 86.9749V88.3676C646.121 88.3676 632.727 92.0752 622.604 95.5241C618.014 97.0881 611.233 97.901 604.205 97.901H604.208Z" fill="#2B478B"/>
<path d="M696.83 265.617H695.004V264.225H696.83C705.288 264.225 712.171 257.342 712.171 248.884V90.0919C712.171 81.6339 705.288 74.7509 696.83 74.7509H683.291V73.3582H696.83C706.057 73.3582 713.563 80.8647 713.563 90.0883V248.88C713.563 258.107 706.057 265.61 696.83 265.61V265.617Z" fill="#2B478B"/>
<path d="M695.004 252.172V250.779C700.887 250.779 705.67 245.993 705.67 240.112V92.5054C705.67 86.7999 701.03 82.1589 695.324 82.1589H684.592V80.7663H695.324C701.795 80.7663 707.063 86.0307 707.063 92.5054V240.108C707.063 246.758 701.653 252.168 695.004 252.168V252.172Z" fill="#2B478B"/>
<path d="M531.475 102.301H569.472C574.875 102.301 579.261 106.687 579.261 112.09V196.98C579.261 202.383 574.875 206.769 569.472 206.769H531.475C526.072 206.769 521.687 202.383 521.687 196.98V112.09C521.687 106.687 526.072 102.301 531.475 102.301Z" fill="#497BCB"/>
<path d="M537.468 122.174C540.235 122.174 542.477 119.931 542.477 117.165C542.477 114.398 540.235 112.156 537.468 112.156C534.702 112.156 532.459 114.398 532.459 117.165C532.459 119.931 534.702 122.174 537.468 122.174Z" fill="#DDE7FE"/>
<path d="M532.459 188.606C532.459 185.839 534.702 183.597 537.468 183.597C540.235 183.597 542.477 185.839 542.477 188.606C542.477 191.373 540.235 193.615 537.468 193.615C534.702 193.615 532.459 191.373 532.459 188.606Z" fill="#DDE7FE"/>
<path d="M558.467 117.165C558.467 114.398 560.709 112.156 563.479 112.156C566.25 112.156 568.488 114.398 568.488 117.165C568.488 119.932 566.246 122.174 563.479 122.174C560.712 122.174 558.467 119.932 558.467 117.165Z" fill="#DDE7FE"/>
<path d="M558.467 188.606C558.467 185.839 560.709 183.597 563.479 183.597C566.25 183.597 568.488 185.839 568.488 188.606C568.488 191.373 566.246 193.615 563.479 193.615C560.712 193.615 558.467 191.373 558.467 188.606Z" fill="#DDE7FE"/>
<path d="M571.857 234.02C571.857 235.052 571.627 236.054 571.201 237.006H531.851C531.424 236.051 531.194 235.052 531.194 234.02C531.194 227.502 540.301 222.212 551.526 222.212C562.75 222.212 571.857 227.498 571.857 234.02Z" fill="#EFC531"/>
<path d="M605.935 247.48V300.959C605.935 305.25 603.824 309.267 600.295 311.699L583.985 322.946C582.815 323.751 581.215 323.46 580.409 322.289C579.603 321.119 579.895 319.519 581.065 318.713L597.375 307.466C599.512 305.99 600.791 303.562 600.791 300.959V247.48C600.791 241.694 596.103 237.006 590.317 237.006H512.729C506.944 237.006 502.256 241.694 502.256 247.48V300.652C502.256 303.394 503.645 305.898 505.97 307.353L524.191 318.746C525.394 319.497 525.759 321.083 525.008 322.286C524.257 323.489 522.667 323.857 521.464 323.106L503.24 311.717C499.398 309.314 497.104 305.18 497.104 300.652V247.48C497.104 238.854 504.097 231.862 512.722 231.862H590.31C598.936 231.862 605.928 238.854 605.928 247.48H605.935Z" fill="#2B478B"/>
<path d="M655.828 70.1428H548.915V73.3619H655.828V70.1428Z" fill="#2B478B"/>
<path d="M655.828 79.1586H548.915V82.3777H655.828V79.1586Z" fill="#2B478B"/>
<path d="M564.336 102.301H532.456V79.9351C532.456 70.8464 539.823 63.4748 548.915 63.4748C558.004 63.4748 565.375 70.8427 565.375 79.9351V101.262C565.375 101.835 564.912 102.301 564.336 102.301Z" fill="#EFC531"/>
<path d="M661.264 63.4748H677.512C685.149 63.4748 691.35 69.6761 691.35 77.3138V367.314C691.35 374.952 685.149 381.153 677.512 381.153H661.264C653.626 381.153 647.425 374.952 647.425 367.314V77.3138C647.425 69.6761 653.626 63.4748 661.264 63.4748Z" fill="#497BCB"/>
<path d="M669.39 81.4626C670.801 81.4626 671.945 80.3184 671.945 78.9069C671.945 77.4955 670.801 76.3513 669.39 76.3513C667.978 76.3513 666.834 77.4955 666.834 78.9069C666.834 80.3184 667.978 81.4626 669.39 81.4626Z" fill="#2B478B"/>
<path d="M648.942 108.237H688.244C691.977 108.237 695.007 111.266 695.007 114.999V313.38C695.007 317.113 691.977 320.142 688.244 320.142H648.942C645.209 320.142 642.179 317.113 642.179 313.38V114.999C642.179 111.266 645.209 108.237 648.942 108.237Z" fill="#224A8A"/>
<path d="M648.72 361.554H691.533C695.142 361.554 698.077 364.485 698.077 368.098V397.219H648.72C645.107 397.219 642.176 394.288 642.176 390.675V368.098C642.176 364.485 645.107 361.554 648.72 361.554Z" fill="#224A8A"/>
<path d="M558.627 79.3791C558.749 74.0066 554.492 69.5524 549.12 69.4305C543.748 69.3086 539.294 73.565 539.172 78.9376C539.05 84.3101 543.306 88.7642 548.679 88.8862C554.051 89.0081 558.505 84.7516 558.627 79.3791Z" fill="#EFC531"/>
<path d="M548.916 89.1915C543.386 89.1915 538.883 84.6927 538.883 79.1585C538.883 73.6244 543.382 69.1256 548.916 69.1256C554.45 69.1256 558.948 73.6244 558.948 79.1585C558.948 84.6927 554.45 89.1915 548.916 89.1915ZM548.916 69.7272C543.717 69.7272 539.488 73.9562 539.488 79.1549C539.488 84.3537 543.717 88.5827 548.916 88.5827C554.114 88.5827 558.343 84.3537 558.343 79.1549C558.343 73.9562 554.114 69.7272 548.916 69.7272Z" fill="#2B478B"/>
<path d="M554.666 80.5114C555.42 77.3191 553.443 74.1205 550.251 73.3671C547.059 72.6136 543.86 74.5907 543.107 77.7829C542.353 80.9752 544.33 84.1737 547.522 84.9271C550.715 85.6806 553.913 83.7036 554.666 80.5114Z" fill="#A06E4D"/>
<path d="M779.864 395.57L817.929 378.27L803.665 346.882L765.6 364.182L779.864 395.57Z" fill="#C3DAFC"/>
<path d="M798.896 386.913L836.96 369.613L822.696 338.226L784.632 355.525L798.896 386.913Z" fill="#D4E4F8"/>
<path d="M789.044 365.243L795.078 362.501L793.776 361.047L793.754 359.592L787.725 362.334L789.044 365.243Z" fill="#618DC1"/>
<path d="M787.725 362.334L781.691 365.075L782.993 366.53L783.015 367.985L789.044 365.243L787.725 362.334Z" fill="#2A4E96"/>
<path d="M833.498 361.995L827.464 364.736L828.769 366.191L828.788 367.646L834.821 364.904L833.498 361.995Z" fill="#618DC1"/>
<path d="M821.17 341.479L810.218 346.456L812.154 350.718L823.107 345.74L821.17 341.479Z" fill="white"/>
<path d="M849.107 466.177C848.962 466.622 848.812 467.067 848.663 467.515C847.368 471.303 845.95 475.15 844.394 479.054C844.179 479.597 843.956 480.144 843.734 480.687C841.842 485.336 839.753 490.068 837.456 494.884H786.273L783.342 467.515L783.2 466.177L783.086 465.128L775.803 397.212L775.748 396.687L779.598 394.97L798.682 386.439L817.77 377.912L836.855 369.388L851.036 363.056C851.273 363.723 851.503 364.394 851.729 365.064C851.933 365.67 852.133 366.278 852.323 366.884C861.065 394.11 862.118 427.092 849.107 466.174V466.177Z" fill="#2B478B"/>
<path d="M849.108 466.178C848.963 466.622 848.813 467.067 848.664 467.516H788.454L788.322 466.178L788.217 465.128L781.64 398.572L784.677 397.212L852.324 366.884C861.066 394.11 862.119 427.092 849.108 466.174V466.178Z" fill="#D2E0FF"/>
<path d="M788.457 467.516H273.239C253.826 467.516 238.092 451.781 238.092 432.367C238.092 412.954 253.83 397.219 273.239 397.219H788.457C807.869 397.219 823.603 412.958 823.603 432.367C823.603 451.781 807.869 467.516 788.457 467.516Z" fill="#497BCB"/>
<path d="M823.605 432.364C823.605 442.069 819.671 450.858 813.31 457.22C806.952 463.578 798.162 467.516 788.458 467.516H701.096C699.222 467.516 697.706 465.999 697.706 464.125V400.606C697.706 398.732 699.222 397.216 701.096 397.216H788.458C807.87 397.216 823.605 412.954 823.605 432.364Z" fill="#C5D7FF"/>
<path d="M849.108 466.178C848.963 466.622 848.813 467.067 848.664 467.516C847.37 471.303 845.951 475.15 844.395 479.054C844.18 479.597 843.957 480.144 843.735 480.687C841.843 485.336 839.754 490.068 837.457 494.884C837.457 494.884 837.456 494.886 837.454 494.891L781.688 494.917L269.718 495.154V466.181H849.105L849.108 466.178Z" fill="#C5D7FF"/>
<path d="M424.202 428.569L420.239 426.728C419.911 426.571 419.696 426.246 419.688 425.885C419.677 425.422 419.645 424.952 419.594 424.486C419.502 423.614 419.346 422.765 419.123 421.948C419.018 421.569 419.156 421.164 419.47 420.927L423.101 418.16C423.487 417.869 423.589 417.322 423.323 416.903L421.088 413.373C420.837 412.972 420.323 412.834 419.9 413.038L416.127 414.89C415.762 415.08 415.314 414.999 415.022 414.693C413.79 413.41 412.354 412.327 410.775 411.489C410.392 411.284 410.195 410.836 410.297 410.417L410.91 407.934C411.023 407.464 410.768 406.975 410.305 406.8L406.408 405.393C406.327 405.36 406.247 405.342 406.163 405.338C405.777 405.298 405.391 405.51 405.226 405.878L403.845 408.838L403.513 409.564C402.737 409.535 401.945 409.564 401.154 409.651C400.086 409.768 399.051 409.979 398.067 410.278C397.691 410.391 397.283 410.267 397.046 409.95L394.822 407.023C394.516 406.622 393.958 406.523 393.535 406.797L390.837 408.499L390.065 408.991C389.642 409.257 389.485 409.804 389.707 410.249L391.253 413.406C391.435 413.771 391.37 414.212 391.082 414.489C390.243 415.346 389.489 416.286 388.851 417.293C388.785 417.376 388.738 417.46 388.687 417.544C388.672 417.577 388.65 417.602 388.628 417.628C388.399 417.938 388.009 418.073 387.633 417.978L383.597 416.99C383.554 416.979 383.506 416.975 383.463 416.964C383.036 416.924 382.624 417.18 382.471 417.591L381.06 421.478C380.892 421.944 381.104 422.466 381.56 422.681L385.697 424.599C386.051 424.755 386.262 425.116 386.24 425.503C386.204 426.352 386.229 427.216 386.324 428.091C386.375 428.558 386.445 429.013 386.532 429.466C386.601 429.83 386.456 430.206 386.16 430.428L382.668 433.093C382.285 433.381 382.183 433.924 382.445 434.336L384.662 437.825C384.932 438.244 385.471 438.405 385.927 438.182L388.913 436.717C389.317 436.52 389.791 436.622 390.076 436.961C391.187 438.303 392.5 439.462 393.965 440.403C394.319 440.618 394.487 441.041 394.385 441.442L393.491 445.076C393.375 445.565 393.645 446.064 394.111 446.239L397.983 447.647C398.446 447.814 398.967 447.596 399.168 447.151L399.248 446.979L400.848 443.538C401.02 443.17 401.391 442.955 401.8 442.98H401.803C402.777 443.042 403.768 443.028 404.771 442.918C405.307 442.863 405.828 442.776 406.349 442.67C406.71 442.594 407.078 442.732 407.301 443.024L409.561 445.995C409.871 446.403 410.443 446.505 410.87 446.236L414.34 444.03C414.439 443.964 414.519 443.884 414.588 443.8C414.803 443.516 414.851 443.126 414.694 442.794L413.451 440.275C413.301 439.969 413.331 439.601 413.516 439.32C413.567 439.247 413.629 439.181 413.695 439.119C415.412 437.683 416.819 435.926 417.844 433.939C418.015 433.6 418.376 433.407 418.748 433.428C418.802 433.432 418.857 433.439 418.912 433.458L422.175 434.256C422.652 434.373 423.133 434.117 423.308 433.654L423.341 433.563L424.723 429.779C424.891 429.298 424.672 428.78 424.212 428.561L424.202 428.569ZM411.358 429.823C410.957 430.942 409.951 432.313 408.919 433.206C408.679 433.41 408.438 433.592 408.212 433.735C407.14 434.405 406.043 434.85 404.96 435.094C398.767 436.469 392.985 431.27 394.06 424.668C394.17 424.008 394.344 423.33 394.596 422.648C395.081 421.339 396.437 419.644 397.611 418.9C397.735 418.82 397.862 418.744 397.986 418.667C405.715 414.135 414.421 421.263 411.358 429.819V429.823Z" fill="#224A8A"/>
<path d="M451.032 445.63L448.182 444.307C447.945 444.194 447.795 443.957 447.784 443.698C447.777 443.363 447.751 443.031 447.715 442.688C447.646 442.061 447.536 441.453 447.376 440.869C447.303 440.592 447.402 440.3 447.624 440.133L450.238 438.142C450.522 437.934 450.588 437.537 450.402 437.238L448.794 434.701C448.612 434.413 448.247 434.314 447.937 434.456L445.225 435.791C444.963 435.922 444.642 435.867 444.434 435.649C443.545 434.73 442.513 433.95 441.375 433.344C441.102 433.199 440.96 432.878 441.036 432.575L441.477 430.785C441.558 430.446 441.372 430.093 441.044 429.969L438.24 428.955C438.182 428.93 438.124 428.919 438.065 428.915C437.785 428.886 437.507 429.039 437.391 429.301L436.403 431.434L436.162 431.952C435.601 431.937 435.036 431.955 434.463 432.017C433.698 432.101 432.951 432.254 432.243 432.47C431.977 432.55 431.678 432.462 431.511 432.233L429.91 430.129C429.688 429.841 429.287 429.768 428.984 429.961L427.045 431.19L426.494 431.547C426.192 431.74 426.079 432.13 426.235 432.451L427.347 434.719C427.479 434.981 427.431 435.299 427.227 435.499C426.618 436.115 426.079 436.793 425.619 437.515C425.576 437.573 425.539 437.635 425.499 437.697C425.492 437.716 425.474 437.738 425.459 437.756C425.295 437.975 425.011 438.073 424.744 438.004L421.839 437.296C421.806 437.285 421.77 437.282 421.74 437.275C421.438 437.245 421.135 437.431 421.03 437.727L420.012 440.519C419.892 440.858 420.045 441.23 420.373 441.387L423.348 442.761C423.6 442.878 423.753 443.137 423.742 443.414C423.713 444.023 423.735 444.646 423.8 445.277C423.837 445.609 423.884 445.94 423.95 446.265C423.997 446.527 423.899 446.797 423.684 446.957L421.175 448.875C420.895 449.083 420.825 449.477 421.011 449.772L422.608 452.28C422.798 452.583 423.188 452.696 423.512 452.535L425.663 451.482C425.951 451.34 426.29 451.413 426.498 451.657C427.293 452.619 428.24 453.454 429.294 454.129C429.546 454.285 429.666 454.588 429.593 454.88L428.955 457.494C428.871 457.847 429.064 458.204 429.403 458.328L432.189 459.342C432.52 459.466 432.892 459.309 433.038 458.992L433.096 458.868L434.248 456.393C434.369 456.13 434.642 455.973 434.934 455.992H434.937C435.634 456.039 436.345 456.028 437.07 455.948C437.453 455.908 437.828 455.842 438.207 455.773C438.466 455.718 438.736 455.813 438.896 456.024L440.522 458.164C440.745 458.456 441.153 458.529 441.463 458.332L443.964 456.746C444.033 456.702 444.091 456.64 444.139 456.582C444.296 456.378 444.328 456.094 444.215 455.857L443.319 454.045C443.213 453.822 443.231 453.556 443.366 453.356C443.402 453.305 443.442 453.25 443.493 453.214C444.729 452.182 445.739 450.917 446.479 449.484C446.603 449.24 446.862 449.105 447.132 449.119C447.168 449.119 447.208 449.127 447.248 449.134L449.596 449.71C449.935 449.794 450.285 449.612 450.409 449.276L450.435 449.214L451.426 446.491C451.547 446.148 451.39 445.769 451.058 445.62L451.032 445.63ZM441.795 446.531C441.507 447.337 440.778 448.325 440.038 448.963C439.866 449.112 439.695 449.243 439.527 449.342C438.754 449.827 437.97 450.147 437.19 450.322C432.735 451.31 428.58 447.57 429.349 442.82C429.425 442.349 429.553 441.861 429.732 441.369C430.082 440.428 431.055 439.207 431.901 438.671C431.992 438.616 432.083 438.558 432.174 438.503C437.734 435.248 443.997 440.37 441.795 446.527V446.531Z" fill="#D2E0FF"/>
<path d="M576.25 428.569L572.287 426.728C571.959 426.571 571.748 426.246 571.737 425.885C571.726 425.422 571.697 424.952 571.646 424.486C571.551 423.614 571.398 422.765 571.176 421.948C571.07 421.569 571.205 421.164 571.518 420.927L575.149 418.16C575.543 417.869 575.641 417.322 575.372 416.903L573.141 413.373C572.885 412.972 572.375 412.834 571.952 413.038L568.175 414.89C567.811 415.08 567.366 414.999 567.074 414.693C565.842 413.41 564.406 412.327 562.824 411.489C562.444 411.284 562.244 410.836 562.346 410.417L562.962 407.934C563.072 407.464 562.816 406.975 562.357 406.8L558.456 405.393C558.376 405.36 558.3 405.342 558.216 405.338C557.829 405.298 557.443 405.51 557.275 405.878L555.897 408.838L555.565 409.564C554.789 409.535 553.998 409.564 553.207 409.651C552.139 409.768 551.103 409.979 550.119 410.278C549.743 410.391 549.335 410.267 549.098 409.95L546.871 407.023C546.568 406.622 546.007 406.523 545.587 406.797L542.886 408.499L542.117 408.991C541.694 409.257 541.537 409.804 541.756 410.249L543.305 413.406C543.484 413.771 543.422 414.212 543.134 414.489C542.288 415.346 541.537 416.286 540.903 417.293C540.837 417.376 540.79 417.46 540.739 417.544C540.724 417.577 540.699 417.602 540.681 417.628C540.451 417.938 540.057 418.073 539.685 417.978L535.65 416.99C535.606 416.979 535.559 416.975 535.515 416.964C535.088 416.924 534.676 417.18 534.523 417.591L533.112 421.478C532.941 421.944 533.156 422.466 533.612 422.681L537.75 424.599C538.099 424.755 538.315 425.116 538.293 425.503C538.253 426.352 538.282 427.216 538.377 428.091C538.424 428.558 538.497 429.013 538.581 429.466C538.65 429.83 538.508 430.206 538.213 430.428L534.72 433.093C534.337 433.381 534.235 433.924 534.494 434.336L536.711 437.825C536.973 438.244 537.516 438.405 537.972 438.182L540.961 436.717C541.362 436.52 541.836 436.622 542.124 436.961C543.232 438.303 544.548 439.462 546.014 440.403C546.36 440.618 546.535 441.041 546.433 441.442L545.54 445.076C545.42 445.565 545.693 446.064 546.16 446.239L550.028 447.647C550.494 447.814 551.012 447.596 551.213 447.151L551.296 446.979L552.897 443.538C553.064 443.17 553.44 442.955 553.845 442.98H553.852C554.822 443.042 555.813 443.028 556.816 442.918C557.352 442.863 557.877 442.776 558.394 442.67C558.759 442.594 559.127 442.732 559.349 443.024L561.61 445.995C561.916 446.403 562.488 446.505 562.918 446.236L566.389 444.03C566.484 443.964 566.568 443.884 566.637 443.8C566.848 443.516 566.899 443.126 566.735 442.794L565.496 440.275C565.346 439.969 565.375 439.601 565.561 439.32C565.609 439.247 565.671 439.181 565.74 439.119C567.457 437.683 568.861 435.926 569.889 433.939C570.056 433.6 570.421 433.407 570.793 433.428C570.844 433.432 570.902 433.439 570.953 433.458L574.223 434.256C574.697 434.373 575.178 434.117 575.35 433.654L575.383 433.563L576.764 429.779C576.932 429.298 576.713 428.78 576.254 428.561L576.25 428.569ZM563.407 429.823C563.002 430.942 562 432.313 560.968 433.206C560.727 433.41 560.487 433.592 560.261 433.735C559.185 434.405 558.092 434.85 557.005 435.094C550.812 436.469 545.033 431.27 546.105 424.668C546.218 424.008 546.393 423.33 546.645 422.648C547.13 421.339 548.482 419.644 549.656 418.9C549.783 418.82 549.907 418.744 550.035 418.667C557.764 414.135 566.466 421.263 563.407 429.819V429.823Z" fill="#224A8A"/>
<path d="M603.084 445.63L600.234 444.307C599.997 444.194 599.84 443.957 599.836 443.698C599.825 443.363 599.803 443.031 599.767 442.688C599.698 442.061 599.588 441.453 599.428 440.869C599.351 440.592 599.446 440.3 599.676 440.133L602.29 438.142C602.57 437.934 602.64 437.537 602.45 437.238L600.846 434.701C600.664 434.413 600.296 434.314 599.989 434.456L597.273 435.791C597.015 435.922 596.694 435.867 596.482 435.649C595.596 434.73 594.561 433.95 593.427 433.344C593.15 433.199 593.012 432.878 593.085 432.575L593.529 430.785C593.61 430.446 593.424 430.093 593.092 429.969L590.289 428.955C590.234 428.93 590.176 428.919 590.117 428.915C589.837 428.886 589.563 429.039 589.443 429.301L588.451 431.434L588.211 431.952C587.653 431.937 587.084 431.955 586.515 432.017C585.746 432.101 585.002 432.254 584.295 432.47C584.022 432.55 583.73 432.462 583.563 432.233L581.958 430.129C581.74 429.841 581.339 429.768 581.032 429.961L579.093 431.19L578.535 431.547C578.233 431.74 578.12 432.13 578.28 432.451L579.392 434.719C579.523 434.981 579.476 435.299 579.268 435.499C578.663 436.115 578.123 436.793 577.664 437.515C577.617 437.573 577.584 437.635 577.544 437.697C577.533 437.716 577.515 437.738 577.504 437.756C577.336 437.975 577.055 438.073 576.785 438.004L573.884 437.296C573.851 437.285 573.814 437.282 573.782 437.275C573.475 437.245 573.176 437.431 573.071 437.727L572.054 440.519C571.93 440.858 572.086 441.23 572.414 441.387L575.386 442.761C575.641 442.878 575.794 443.137 575.779 443.414C575.75 444.023 575.772 444.646 575.838 445.277C575.874 445.609 575.925 445.94 575.991 446.265C576.038 446.527 575.936 446.797 575.721 446.957L573.209 448.875C572.932 449.083 572.863 449.477 573.049 449.772L574.642 452.28C574.835 452.583 575.221 452.696 575.55 452.535L577.697 451.482C577.985 451.34 578.328 451.413 578.532 451.657C579.33 452.619 580.274 453.454 581.331 454.129C581.579 454.285 581.703 454.588 581.63 454.88L580.989 457.494C580.901 457.847 581.098 458.204 581.434 458.328L584.219 459.342C584.554 459.466 584.926 459.309 585.072 458.992L585.134 458.868L586.282 456.393C586.406 456.13 586.676 455.973 586.967 455.992H586.971C587.671 456.039 588.382 456.028 589.107 455.948C589.49 455.908 589.866 455.842 590.245 455.773C590.504 455.718 590.77 455.813 590.93 456.024L592.56 458.164C592.778 458.456 593.19 458.529 593.5 458.332L595.997 456.746C596.07 456.702 596.129 456.64 596.176 456.582C596.329 456.378 596.366 456.094 596.249 455.857L595.356 454.045C595.246 453.822 595.268 453.556 595.4 453.356C595.436 453.305 595.48 453.25 595.531 453.214C596.763 452.182 597.776 450.917 598.517 449.484C598.637 449.24 598.896 449.105 599.165 449.119C599.206 449.119 599.242 449.127 599.282 449.134L601.633 449.71C601.973 449.794 602.322 449.612 602.446 449.276L602.472 449.214L603.46 446.491C603.584 446.148 603.423 445.769 603.095 445.62L603.084 445.63ZM593.843 446.531C593.555 447.337 592.83 448.325 592.089 448.963C591.914 449.112 591.743 449.243 591.579 449.342C590.806 449.827 590.019 450.147 589.239 450.322C584.787 451.31 580.628 447.57 581.397 442.82C581.477 442.349 581.605 441.861 581.783 441.369C582.133 440.428 583.103 439.207 583.953 438.671C584.04 438.616 584.131 438.558 584.226 438.503C589.785 435.248 596.045 440.37 593.843 446.527V446.531Z" fill="#D2E0FF"/>
<path d="M490.962 424.927L486.656 424.168C486.299 424.099 486.008 423.84 485.909 423.494C485.778 423.046 485.625 422.601 485.457 422.163C485.14 421.347 484.779 420.566 484.352 419.834C484.152 419.491 484.181 419.068 484.425 418.758L487.229 415.153C487.528 414.77 487.484 414.216 487.119 413.88L484.054 411.04C483.704 410.719 483.179 410.716 482.821 411.018L479.646 413.778C479.347 414.052 478.895 414.088 478.534 413.866C477.014 412.947 475.352 412.265 473.602 411.861C473.182 411.762 472.876 411.376 472.869 410.945L472.825 408.39C472.814 407.901 472.442 407.493 471.954 407.446L467.824 407.081C467.74 407.074 467.659 407.074 467.576 407.088C467.193 407.154 466.876 407.457 466.806 407.858L466.234 411.069L466.099 411.853C465.345 412.025 464.583 412.258 463.839 412.542C462.84 412.929 461.892 413.403 461.014 413.942C460.678 414.146 460.252 414.132 459.946 413.888L457.04 411.627C456.643 411.321 456.078 411.365 455.739 411.737L453.566 414.077L452.946 414.748C452.607 415.116 452.592 415.681 452.921 416.057L455.225 418.714C455.498 419.017 455.542 419.458 455.338 419.801C454.743 420.844 454.258 421.945 453.898 423.086C453.857 423.18 453.832 423.275 453.803 423.37C453.799 423.406 453.785 423.436 453.77 423.465C453.628 423.822 453.278 424.052 452.895 424.055L448.739 424.136C448.695 424.132 448.648 424.139 448.604 424.147C448.181 424.219 447.85 424.569 447.802 425.007L447.434 429.123C447.39 429.619 447.729 430.067 448.225 430.155L452.713 430.949C453.092 431.011 453.387 431.307 453.467 431.682C453.646 432.513 453.894 433.341 454.211 434.165C454.379 434.602 454.565 435.025 454.762 435.441C454.922 435.776 454.882 436.177 454.652 436.469L451.954 439.936C451.659 440.315 451.703 440.862 452.06 441.197L455.097 444.001C455.461 444.34 456.019 444.355 456.406 444.026L458.917 441.843C459.256 441.551 459.741 441.526 460.106 441.777C461.52 442.794 463.092 443.574 464.747 444.11C465.14 444.231 465.414 444.595 465.417 445.011L465.49 448.755C465.498 449.254 465.888 449.666 466.387 449.714L470.488 450.086C470.981 450.129 471.425 449.787 471.509 449.305L471.546 449.116L472.209 445.383C472.278 444.982 472.585 444.675 472.986 444.599H472.989C473.944 444.409 474.896 444.143 475.84 443.779C476.343 443.585 476.828 443.37 477.306 443.133C477.634 442.966 478.024 443.006 478.319 443.228L481.268 445.525C481.669 445.842 482.249 445.795 482.592 445.419L485.384 442.397C485.464 442.309 485.519 442.207 485.563 442.112C485.698 441.784 485.643 441.387 485.402 441.11L483.558 438.995C483.332 438.737 483.266 438.372 483.375 438.055C483.408 437.971 483.448 437.891 483.499 437.814C484.786 435.991 485.701 433.932 486.183 431.744C486.259 431.372 486.558 431.092 486.923 431.019C486.974 431.008 487.032 431.004 487.087 431L490.451 430.938C490.94 430.931 491.341 430.556 491.388 430.067L491.396 429.972L491.76 425.958C491.8 425.455 491.458 425.007 490.955 424.916L490.962 424.927ZM478.87 429.429C478.764 430.61 478.14 432.193 477.379 433.323C477.196 433.582 477.01 433.819 476.828 434.015C475.964 434.941 475.02 435.652 474.032 436.163C468.4 439.079 461.48 435.532 460.824 428.879C460.766 428.211 460.758 427.511 460.828 426.786C460.959 425.401 461.834 423.414 462.785 422.393C462.884 422.28 462.986 422.178 463.088 422.068C469.402 415.707 479.639 420.373 478.873 429.429H478.87Z" fill="#224A8A"/>
<path d="M849.108 466.178C848.962 466.622 848.812 467.067 848.663 467.516C847.369 471.303 845.951 475.15 844.394 479.054C844.179 479.597 843.957 480.144 843.734 480.687C841.842 485.336 839.753 490.068 837.457 494.884C837.457 494.884 837.455 494.886 837.453 494.891L781.687 494.917V466.181H849.104L849.108 466.178Z" fill="#D2E0FF"/>
<path d="M788.457 469.094H273.243C252.992 469.094 236.514 452.616 236.514 432.364C236.514 422.557 240.335 413.333 247.272 406.396C254.21 399.458 263.429 395.641 273.239 395.641H788.454C808.705 395.641 825.179 412.116 825.179 432.367C825.179 442.174 821.358 451.402 814.425 458.339C807.487 465.277 798.268 469.094 788.457 469.094ZM273.243 398.791C264.275 398.791 255.847 402.283 249.503 408.623C243.16 414.967 239.668 423.395 239.668 432.364C239.668 450.877 254.727 465.937 273.243 465.937H788.457C797.425 465.937 805.854 462.444 812.197 456.104C818.537 449.761 822.029 441.328 822.029 432.36C822.029 413.847 806.969 398.791 788.461 398.791H273.247H273.243Z" fill="#2B478B"/>
<path d="M393.903 301.21H379.245V306.916H393.903V301.21Z" fill="white"/>
<g opacity="0.5">
<path d="M668.215 34.1889C670.22 34.8597 672.218 35.5597 674.208 36.2925L661.369 36.2378H661.365L657.986 36.2268H657.982L618.537 36.0518L615.151 36.0409H615.147L575.698 35.8659L572.312 35.855H572.308L532.86 35.68L529.473 35.6691H529.469L490.021 35.4941L486.634 35.4831H486.63L447.182 35.3081L443.795 35.2972H443.792L404.347 35.1222L400.96 35.1113H400.956L361.508 34.9363L358.114 34.9217H358.11L318.665 34.7503L315.271 34.7358H315.268L275.823 34.5644L272.429 34.5498H272.425L232.988 34.3785L229.594 34.3639H229.59L190.145 34.1925L186.751 34.178H186.748L147.303 34.0066L143.909 33.992H143.905L134.335 33.9519C135.185 33.252 136.038 32.5593 136.909 31.8848H136.913L144.036 31.914H144.04L186.871 32.1072H186.882L229.71 32.2968H229.721L272.546 32.4864H272.556L315.384 32.6759H315.395L358.223 32.8655H358.234L401.062 33.0551H401.073L443.897 33.2447H443.908L486.736 33.4342H486.747L529.575 33.6238H529.586L572.414 33.8134H572.425L615.253 34.003H615.264L658.091 34.1925L668.201 34.2363L668.215 34.1889Z" fill="#C3DAFC"/>
<path d="M710.399 54.3641C711.376 55.0532 712.331 55.7531 713.268 56.4568L115.158 53.8319C115.686 53.1319 116.226 52.4392 116.776 51.7611L129.146 51.8121L132.54 51.8267L171.988 51.9981L175.375 52.0127L214.823 52.184H214.827L218.214 52.1986L257.662 52.3699H257.666L261.053 52.3845L300.501 52.5559H300.505L303.891 52.5705H303.895L343.34 52.7418H343.344L346.734 52.7564H346.738L386.175 52.9277H386.179L389.565 52.9423H389.569L429.014 53.1137H429.018L432.408 53.1282H432.412L471.856 53.2996H471.86L475.247 53.3142H475.25L514.695 53.4855H514.699L518.086 53.5001H518.089L557.527 53.6714H557.53L560.917 53.686H560.921L600.369 53.861H600.373L603.756 53.872H603.76L643.208 54.047H643.212L646.595 54.0579H646.599L686.047 54.2329H686.051L689.434 54.2438H689.437L710.392 54.335L710.399 54.3641Z" fill="#C3DAFC"/>
<path d="M132.546 51.834L131.562 53.3652L129.145 51.8122L121.099 46.6426C121.511 46.1832 121.923 45.7275 122.339 45.2755L132.535 51.8268H132.543L132.546 51.834Z" fill="#C3DAFC"/>
<path d="M144.053 31.8928L143.069 33.4233L174.406 53.5572L175.389 52.0266L144.053 31.8928Z" fill="#C3DAFC"/>
<path d="M186.893 32.0813L185.91 33.6119L217.247 53.7457L218.23 52.2152L186.893 32.0813Z" fill="#C3DAFC"/>
<path d="M229.735 32.2699L228.751 33.8005L260.088 53.9343L261.071 52.4038L229.735 32.2699Z" fill="#C3DAFC"/>
<path d="M272.573 32.4603L271.589 33.9908L302.926 54.1247L303.909 52.5941L272.573 32.4603Z" fill="#C3DAFC"/>
<path d="M315.413 32.6489L314.43 34.1794L345.766 54.3133L346.749 52.7827L315.413 32.6489Z" fill="#C3DAFC"/>
<path d="M358.251 32.8356L357.268 34.3661L388.604 54.4999L389.587 52.9694L358.251 32.8356Z" fill="#C3DAFC"/>
<path d="M401.091 33.0241L400.108 34.5547L431.444 54.6885L432.428 53.1579L401.091 33.0241Z" fill="#C3DAFC"/>
<path d="M443.932 33.2128L442.949 34.7433L474.285 54.8771L475.268 53.3466L443.932 33.2128Z" fill="#C3DAFC"/>
<path d="M486.765 33.4025L485.782 34.933L517.118 55.0668L518.101 53.5363L486.765 33.4025Z" fill="#C3DAFC"/>
<path d="M529.61 33.591L528.626 35.1215L559.963 55.2553L560.946 53.7248L529.61 33.591Z" fill="#C3DAFC"/>
<path d="M572.448 33.7813L571.464 35.3118L602.801 55.4456L603.784 53.9151L572.448 33.7813Z" fill="#C3DAFC"/>
<path d="M615.281 33.9663L614.297 35.4968L645.634 55.6306L646.617 54.1001L615.281 33.9663Z" fill="#C3DAFC"/>
<path d="M658.125 34.1584L657.142 35.689L688.478 55.8228L689.461 54.2923L658.125 34.1584Z" fill="#C3DAFC"/>
</g>
<path d="M410.392 395.623H479.151V338.925H410.392V395.623Z" fill="#8DB0FF"/>
<path d="M444.771 395.623H513.529V338.925H444.771V395.623Z" fill="#497BCB"/>
<path d="M410.433 381.244H421.329L420.37 378.178L421.329 375.987H410.433V381.244Z" fill="#2A4E96"/>
<path d="M444.772 356.471H455.665L454.707 353.405L455.665 351.214H444.772V356.471Z" fill="#618DC1"/>
<path d="M444.774 351.214H433.877L434.836 354.28L433.877 356.471H444.774V351.214Z" fill="#2A4E96"/>
<path d="M513.532 381.853H502.635L503.594 384.919L502.635 387.11H513.532V381.853Z" fill="#618DC1"/>
<path d="M509.026 342.771H489.242V350.471H509.026V342.771Z" fill="white"/>
<path d="M751.671 495.059H804.801V451.248H751.671V495.059Z" fill="#7F9EF4"/>
<path d="M778.238 495.059H831.369V451.248H778.238V495.059Z" fill="#497BCB"/>
<path d="M751.704 483.95H760.121L759.381 481.581L760.121 479.885H751.704V483.95Z" fill="#5D86E2"/>
<path d="M778.235 464.807H786.656L785.912 462.437L786.656 460.746H778.235V464.807Z" fill="#7F9EF4"/>
<path d="M778.235 460.746H769.818L770.558 463.112L769.818 464.807H778.235V460.746Z" fill="#5D86E2"/>
<path d="M831.369 484.421H822.948L823.691 486.787L822.948 488.482H831.369V484.421Z" fill="#7F9EF4"/>
<path d="M827.887 454.22H812.598V460.17H827.887V454.22Z" fill="white"/>
<path d="M679.67 495.103H732.91V451.201H679.67V495.103Z" fill="#7F9EF4"/>
<path d="M706.29 495.103H759.529V451.201H706.29V495.103Z" fill="#D4E4F8"/>
<path d="M679.703 483.969H688.138L687.395 481.595L688.138 479.9H679.703V483.969Z" fill="#2A4E96"/>
<path d="M706.29 464.789H714.726L713.986 462.415L714.726 460.72H706.29V464.789Z" fill="#618DC1"/>
<path d="M706.29 460.72H697.854L698.598 463.093L697.854 464.789H706.29V460.72Z" fill="#2A4E96"/>
<path d="M759.53 484.443H751.094L751.837 486.816L751.094 488.511H759.53V484.443Z" fill="#618DC1"/>
<path d="M756.041 454.18H740.722V460.14H756.041V454.18Z" fill="white"/>
<path d="M707.259 451.249H757.174V410.089H707.259V451.249Z" fill="#A06E4D"/>
<path d="M732.214 451.249H782.129V410.089H732.214V451.249Z" fill="#EFC531"/>
<path d="M707.286 440.807H715.197L714.501 438.583L715.197 436.99H707.286V440.807Z" fill="#EFC531"/>
<path d="M732.218 422.823H740.125L739.429 420.599L740.125 419.006H732.218V422.823Z" fill="#EFC531"/>
<path d="M732.217 419.006H724.307L725.003 421.234L724.307 422.823H732.217V419.006Z" fill="#EFC531"/>
<path d="M782.132 441.248H774.225L774.921 443.476L774.225 445.065H782.132V441.248Z" fill="#EFC531"/>
<path d="M778.862 412.878H764.499V418.466H778.862V412.878Z" fill="white"/>
<path d="M107.43 495.095H862.886C863.445 495.095 863.898 495.727 863.898 496.509V497.586C863.898 498.368 863.445 499 862.886 499H107.43C106.87 499 106.417 498.368 106.417 497.586V496.509C106.417 495.727 106.87 495.095 107.43 495.095Z" fill="#2E3552"/>
<path d="M409.088 107.698H267.904C251.635 107.698 238.446 120.925 238.446 137.242V465.422C238.446 481.738 251.635 494.965 267.904 494.965H409.088C425.357 494.965 438.545 481.738 438.545 465.422V137.242C438.545 120.925 425.357 107.698 409.088 107.698Z" fill="#20154F"/>
<path d="M419.528 107.698H278.344C262.075 107.698 248.887 120.925 248.887 137.242V465.422C248.887 481.738 262.075 494.965 278.344 494.965H419.528C435.797 494.965 448.986 481.738 448.986 465.422V137.242C448.986 120.925 435.797 107.698 419.528 107.698Z" fill="#7696EA"/>
<path d="M278.546 484.491C267.95 484.491 259.327 475.844 259.327 465.215V137.442C259.327 126.813 267.948 118.167 278.546 118.167H313.042L314.053 121.529C315.338 125.803 319.352 128.788 323.814 128.788H374.062C378.524 128.788 382.532 125.807 383.808 121.537L384.815 118.165H419.328C429.925 118.165 438.547 126.812 438.547 137.441V465.214C438.547 475.842 429.926 484.489 419.328 484.489H278.546V484.491Z" fill="white"/>
<path d="M309.71 201.527H278.691C276.649 201.527 274.993 203.188 274.993 205.237V236.346C274.993 238.395 276.649 240.056 278.691 240.056H309.71C311.753 240.056 313.409 238.395 313.409 236.346V205.237C313.409 203.188 311.753 201.527 309.71 201.527Z" fill="#122D8C"/>
<path d="M419.182 201.527H331.772C329.73 201.527 328.074 203.188 328.074 205.237V212.244C328.074 214.293 329.73 215.953 331.772 215.953H419.182C421.224 215.953 422.88 214.293 422.88 212.244V205.237C422.88 203.188 421.224 201.527 419.182 201.527Z" fill="#D1DCF8"/>
<path d="M419.182 225.628H331.772C329.73 225.628 328.074 227.289 328.074 229.338V236.345C328.074 238.394 329.73 240.054 331.772 240.054H419.182C421.224 240.054 422.88 238.394 422.88 236.345V229.338C422.88 227.289 421.224 225.628 419.182 225.628Z" fill="#D1DCF8"/>
<path d="M310.191 307.988H308.989C308.431 307.988 307.98 307.535 307.98 306.977C307.98 306.419 308.432 305.966 308.989 305.966H310.191C310.389 305.966 310.587 305.944 310.778 305.901C311.333 305.778 311.862 306.122 311.984 306.668C312.104 307.214 311.763 307.754 311.219 307.876C310.881 307.951 310.537 307.99 310.19 307.99L310.191 307.988ZM302.936 307.988H300.918C300.36 307.988 299.91 307.535 299.91 306.977C299.91 306.419 300.361 305.966 300.918 305.966H302.936C303.494 305.966 303.944 306.419 303.944 306.977C303.944 307.535 303.493 307.988 302.936 307.988ZM294.865 307.988H292.847C292.29 307.988 291.839 307.535 291.839 306.977C291.839 306.419 292.291 305.966 292.847 305.966H294.865C295.423 305.966 295.874 306.419 295.874 306.977C295.874 307.535 295.422 307.988 294.865 307.988ZM286.793 307.988H284.775C284.218 307.988 283.767 307.535 283.767 306.977C283.767 306.419 284.219 305.966 284.775 305.966H286.793C287.351 305.966 287.802 306.419 287.802 306.977C287.802 307.535 287.35 307.988 286.793 307.988ZM278.723 307.988C277.842 307.988 277.01 307.758 276.283 307.324C275.805 307.037 275.646 306.416 275.932 305.936C276.219 305.453 276.841 305.298 277.316 305.585C277.731 305.833 278.206 305.964 278.691 305.964C279.249 305.964 279.715 306.418 279.715 306.976C279.715 307.534 279.279 307.987 278.723 307.987V307.988ZM313.889 303.22C313.332 303.22 312.881 302.767 312.881 302.209V300.185C312.881 299.625 313.333 299.173 313.889 299.173C314.446 299.173 314.898 299.627 314.898 300.185V302.209C314.898 302.768 314.446 303.22 313.889 303.22ZM274.992 302.045C274.434 302.045 273.984 301.592 273.984 301.034V299.01C273.984 298.45 274.436 297.998 274.992 297.998C275.549 297.998 276.001 298.452 276.001 299.01V301.034C276.001 301.593 275.549 302.045 274.992 302.045ZM313.889 295.126C313.332 295.126 312.881 294.672 312.881 294.114V292.09C312.881 291.531 313.333 291.079 313.889 291.079C314.446 291.079 314.898 291.532 314.898 292.09V294.114C314.898 294.674 314.446 295.126 313.889 295.126ZM274.992 293.951C274.434 293.951 273.984 293.497 273.984 292.939V290.915C273.984 290.356 274.436 289.904 274.992 289.904C275.549 289.904 276.001 290.357 276.001 290.915V292.939C276.001 293.499 275.549 293.951 274.992 293.951ZM313.889 287.03C313.332 287.03 312.881 286.577 312.881 286.019V283.995C312.881 283.435 313.333 282.983 313.889 282.983C314.446 282.983 314.898 283.437 314.898 283.995V286.019C314.898 286.578 314.446 287.03 313.889 287.03ZM274.992 285.855C274.434 285.855 273.984 285.402 273.984 284.844V282.82C273.984 282.26 274.436 281.808 274.992 281.808C275.549 281.808 276.001 282.262 276.001 282.82V284.844C276.001 285.403 275.549 285.855 274.992 285.855ZM313.889 278.936C313.332 278.936 312.881 278.483 312.881 277.924V275.901C312.881 275.341 313.333 274.889 313.889 274.889C314.446 274.889 314.898 275.342 314.898 275.901V277.924C314.898 278.484 314.446 278.936 313.889 278.936ZM274.992 277.761C274.434 277.761 273.984 277.308 273.984 276.749V274.725C273.984 274.166 274.436 273.714 274.992 273.714C275.549 273.714 276.001 274.167 276.001 274.725V276.749C276.001 277.309 275.549 277.761 274.992 277.761ZM313.445 270.915C313.088 270.915 312.741 270.724 312.558 270.386C312.323 269.952 311.973 269.591 311.55 269.341C311.237 269.158 311.059 268.833 311.049 268.496C310.872 268.783 310.555 268.975 310.192 268.975H308.174C307.616 268.975 307.166 268.522 307.166 267.964C307.166 267.406 307.617 266.952 308.174 266.952H310.192C310.74 266.952 311.185 267.39 311.2 267.937C311.488 267.47 312.096 267.319 312.566 267.596C313.309 268.032 313.92 268.662 314.332 269.421C314.597 269.912 314.417 270.525 313.927 270.794C313.774 270.877 313.608 270.916 313.445 270.916V270.915ZM276.152 269.988C275.884 269.988 275.618 269.881 275.419 269.67C275.036 269.265 275.054 268.623 275.457 268.24C276.086 267.644 276.863 267.233 277.702 267.055C278.242 266.934 278.782 267.285 278.9 267.833C279.016 268.379 278.668 268.916 278.125 269.034C277.646 269.136 277.204 269.371 276.846 269.71C276.651 269.895 276.4 269.988 276.152 269.988ZM302.12 268.975H300.102C299.544 268.975 299.094 268.522 299.094 267.964C299.094 267.406 299.546 266.952 300.102 266.952H302.12C302.678 266.952 303.128 267.406 303.128 267.964C303.128 268.522 302.677 268.975 302.12 268.975ZM294.049 268.975H292.031C291.474 268.975 291.023 268.522 291.023 267.964C291.023 267.406 291.475 266.952 292.031 266.952H294.049C294.607 266.952 295.058 267.406 295.058 267.964C295.058 268.522 294.606 268.975 294.049 268.975ZM285.979 268.975H283.961C283.403 268.975 282.952 268.522 282.952 267.964C282.952 267.406 283.404 266.952 283.961 266.952H285.979C286.536 266.952 286.987 267.406 286.987 267.964C286.987 268.522 286.535 268.975 285.979 268.975Z" fill="#20154F"/>
<path d="M364.686 267.964H333.184C331.141 267.964 329.485 269.625 329.485 271.673V303.268C329.485 305.316 331.141 306.977 333.184 306.977H364.686C366.729 306.977 368.385 305.316 368.385 303.268V271.673C368.385 269.625 366.729 267.964 364.686 267.964Z" fill="#EFB034"/>
<path d="M419.183 267.964H387.681C385.638 267.964 383.982 269.625 383.982 271.673V303.268C383.982 305.316 385.638 306.977 387.681 306.977H419.183C421.226 306.977 422.882 305.316 422.882 303.268V271.673C422.882 269.625 421.226 267.964 419.183 267.964Z" fill="#5CB8FC"/>
<path d="M313.904 447.425H311.886C311.328 447.425 310.878 446.972 310.878 446.414C310.878 445.856 311.33 445.403 311.886 445.403H313.904C314.117 445.403 314.315 445.468 314.478 445.582C314.592 445.419 314.754 445.288 314.955 445.215C315.428 445.039 315.854 444.744 316.186 444.361C316.55 443.936 317.187 443.893 317.609 444.262C318.03 444.63 318.074 445.268 317.707 445.689C317.153 446.327 316.442 446.818 315.652 447.112C315.333 447.232 314.989 447.179 314.73 446.996C314.547 447.257 314.245 447.427 313.904 447.427V447.425ZM305.832 447.425H303.814C303.256 447.425 302.806 446.972 302.806 446.414C302.806 445.856 303.258 445.403 303.814 445.403H305.832C306.39 445.403 306.84 445.856 306.84 446.414C306.84 446.972 306.39 447.425 305.832 447.425ZM297.761 447.425H295.743C295.186 447.425 294.735 446.972 294.735 446.414C294.735 445.856 295.187 445.403 295.743 445.403H297.761C298.319 445.403 298.77 445.856 298.77 446.414C298.77 446.972 298.319 447.425 297.761 447.425ZM289.691 447.425H287.673C287.115 447.425 286.664 446.972 286.664 446.414C286.664 445.856 287.116 445.403 287.673 445.403H289.691C290.248 445.403 290.699 445.856 290.699 446.414C290.699 446.972 290.248 447.425 289.691 447.425ZM281.62 447.425H279.602C279.044 447.425 278.593 446.972 278.593 446.414C278.593 445.856 279.045 445.403 279.602 445.403H281.62C282.178 445.403 282.628 445.856 282.628 446.414C282.628 446.972 282.178 447.425 281.62 447.425ZM275.081 444.234C274.616 444.234 274.198 443.91 274.096 443.434C274.022 443.085 273.984 442.724 273.984 442.366V441.206C273.984 440.647 274.436 440.195 274.992 440.195C275.549 440.195 276.001 440.648 276.001 441.206V442.366C276.001 442.581 276.024 442.797 276.07 443.01C276.186 443.556 275.84 444.093 275.294 444.212C275.224 444.225 275.153 444.234 275.081 444.234ZM317.939 440.208C317.381 440.208 316.93 439.755 316.93 439.197V437.173C316.93 436.613 317.382 436.162 317.939 436.162C318.495 436.162 318.947 436.615 318.947 437.173V439.197C318.947 439.756 318.497 440.208 317.939 440.208ZM274.992 436.147C274.434 436.147 273.984 435.694 273.984 435.136V433.112C273.984 432.552 274.436 432.1 274.992 432.1C275.549 432.1 276.001 432.553 276.001 433.112V435.136C276.001 435.695 275.549 436.147 274.992 436.147ZM317.939 432.114C317.381 432.114 316.93 431.661 316.93 431.102V429.079C316.93 428.519 317.382 428.067 317.939 428.067C318.495 428.067 318.947 428.52 318.947 429.079V431.102C318.947 431.662 318.497 432.114 317.939 432.114ZM274.992 428.053C274.434 428.053 273.984 427.599 273.984 427.041V425.017C273.984 424.458 274.436 424.006 274.992 424.006C275.549 424.006 276.001 424.459 276.001 425.017V427.041C276.001 427.601 275.549 428.053 274.992 428.053ZM317.939 424.018C317.381 424.018 316.93 423.565 316.93 423.007V420.983C316.93 420.424 317.382 419.972 317.939 419.972C318.495 419.972 318.947 420.425 318.947 420.983V423.007C318.947 423.566 318.497 424.018 317.939 424.018ZM274.992 419.957C274.434 419.957 273.984 419.504 273.984 418.946V416.922C273.984 416.362 274.436 415.91 274.992 415.91C275.549 415.91 276.001 416.364 276.001 416.922V418.946C276.001 419.505 275.549 419.957 274.992 419.957ZM317.939 415.924C317.381 415.924 316.93 415.471 316.93 414.913V412.889C316.93 412.329 317.382 411.877 317.939 411.877C318.495 411.877 318.947 412.33 318.947 412.889V414.913C318.947 415.472 318.497 415.924 317.939 415.924ZM274.992 411.863C274.434 411.863 273.984 411.409 273.984 410.851V408.827C273.984 408.268 274.436 407.816 274.992 407.816C275.549 407.816 276.001 408.269 276.001 408.827V410.851C276.001 411.411 275.549 411.863 274.992 411.863ZM317.896 407.831C317.402 407.831 316.971 407.466 316.899 406.96C316.828 406.459 316.631 405.979 316.329 405.574C315.996 405.127 316.086 404.491 316.533 404.158C316.973 403.821 317.611 403.914 317.944 404.362C318.448 405.04 318.777 405.84 318.895 406.677C318.972 407.23 318.588 407.742 318.036 407.82C317.989 407.827 317.941 407.83 317.895 407.83L317.896 407.831ZM277.357 404.715C276.975 404.715 276.608 404.495 276.439 404.123C276.209 403.613 276.432 403.013 276.94 402.781C277.597 402.48 278.301 402.328 279.028 402.328H279.322C279.88 402.328 280.33 402.781 280.33 403.34C280.33 403.898 279.878 404.351 279.322 404.351H279.028C278.591 404.351 278.17 404.441 277.775 404.622C277.639 404.684 277.497 404.712 277.357 404.712V404.715ZM311.606 404.352H309.588C309.03 404.352 308.58 403.899 308.58 403.341C308.58 402.783 309.031 402.329 309.588 402.329H311.606C312.164 402.329 312.614 402.783 312.614 403.341C312.614 403.899 312.163 404.352 311.606 404.352ZM303.535 404.352H301.517C300.959 404.352 300.509 403.899 300.509 403.341C300.509 402.783 300.961 402.329 301.517 402.329H303.535C304.093 402.329 304.544 402.783 304.544 403.341C304.544 403.899 304.092 404.352 303.535 404.352ZM295.464 404.352H293.446C292.889 404.352 292.438 403.899 292.438 403.341C292.438 402.783 292.89 402.329 293.446 402.329H295.464C296.022 402.329 296.473 402.783 296.473 403.341C296.473 403.899 296.021 404.352 295.464 404.352ZM287.393 404.352H285.375C284.817 404.352 284.366 403.899 284.366 403.341C284.366 402.783 284.818 402.329 285.375 402.329H287.393C287.95 402.329 288.401 402.783 288.401 403.341C288.401 403.899 287.949 404.352 287.393 404.352Z" fill="#20154F"/>
<path d="M419.182 403.34H383.632C381.589 403.34 379.933 405 379.933 407.049V442.703C379.933 444.752 381.589 446.413 383.632 446.413H419.182C421.225 446.413 422.881 444.752 422.881 442.703V407.049C422.881 405 421.225 403.34 419.182 403.34Z" fill="#20154F"/>
<path d="M421.032 332.999H276.843C275.821 332.999 274.993 333.83 274.993 334.855V340.49C274.993 341.515 275.821 342.346 276.843 342.346H421.032C422.054 342.346 422.882 341.515 422.882 340.49V334.855C422.882 333.83 422.054 332.999 421.032 332.999Z" fill="#D1DCF8"/>
<path d="M421.032 355.787H276.843C275.821 355.787 274.993 356.618 274.993 357.643V363.278C274.993 364.303 275.821 365.134 276.843 365.134H421.032C422.054 365.134 422.882 364.303 422.882 363.278V357.643C422.882 356.618 422.054 355.787 421.032 355.787Z" fill="#D1DCF8"/>
<path d="M421.032 378.575H276.843C275.821 378.575 274.993 379.406 274.993 380.431V386.066C274.993 387.091 275.821 387.922 276.843 387.922H421.032C422.054 387.922 422.882 387.091 422.882 386.066V380.431C422.882 379.406 422.054 378.575 421.032 378.575Z" fill="#D1DCF8"/>
<g clip-path="url(#clip0_3_1255)">
<path d="M350.339 139.817C349.487 139.817 348.636 139.817 347.785 139.817C347.786 140.213 347.788 140.61 347.789 141.006C347.279 140.188 346.391 139.693 345.423 139.786C344.583 139.866 343.775 140.355 343.372 141.106C343.29 141.259 343.226 141.421 343.181 141.587C342.977 142.352 343.065 143.164 343.046 143.947C343.015 145.307 343.1 147.308 344.668 147.789C346.626 148.389 347.784 147.141 347.784 147.141V150.734H350.337V144.557L349.254 143.87L350.337 143.183V139.815L350.339 139.817ZM347.576 144.958C347.576 145.496 347.14 145.932 346.603 145.932C346.065 145.932 345.63 145.496 345.63 144.958V142.85C345.63 142.312 346.065 141.877 346.603 141.877C347.14 141.877 347.576 142.312 347.576 142.85V144.958Z" fill="#1A468F"/>
<path d="M351.684 147.835V139.814H353.879V141.016C354.119 140.668 354.443 140.368 354.851 140.117C355.257 139.867 355.771 139.741 356.389 139.741C356.661 139.741 356.936 139.79 357.218 139.888C357.499 139.985 357.764 140.127 358.013 140.314C358.261 140.501 358.462 140.735 358.615 141.017C358.871 140.654 359.208 140.35 359.625 140.106C360.042 139.863 360.506 139.741 361.017 139.741C361.314 139.741 361.615 139.79 361.919 139.888C362.223 139.985 362.503 140.144 362.759 140.363C363.015 140.584 363.22 140.876 363.377 141.243C363.533 141.609 363.611 142.061 363.611 142.598V147.962H361.37V142.875C361.37 142.557 361.308 142.302 361.182 142.11C361.057 141.919 360.898 141.78 360.706 141.695C360.514 141.611 360.31 141.569 360.096 141.569C359.896 141.569 359.694 141.609 359.489 141.688C359.284 141.767 359.11 141.894 358.967 142.068C358.824 142.242 358.752 142.47 358.752 142.751V147.961H356.519V142.674C356.519 142.434 356.454 142.231 356.327 142.068C356.199 141.904 356.04 141.78 355.847 141.695C355.655 141.611 355.459 141.569 355.26 141.569C355.061 141.569 354.851 141.611 354.646 141.695C354.441 141.78 354.27 141.91 354.132 142.087C353.993 142.264 353.924 142.486 353.924 142.752V147.962H351.683L351.684 147.835Z" fill="#1A468F"/>
<path d="M334.423 143.184L335.506 143.871L334.423 144.557V150.732H336.976V147.139C336.976 147.139 338.134 148.386 340.092 147.787C341.879 147.239 341.702 144.5 341.702 143.421C341.702 141.753 341.79 140.436 340.019 139.936C337.943 139.349 336.976 141.008 336.976 141.008V139.817H334.423V143.185V143.184ZM337.186 142.85C337.186 142.312 337.621 141.877 338.159 141.877C338.697 141.877 339.132 142.312 339.132 142.85V144.958C339.132 145.496 338.697 145.931 338.159 145.931C337.621 145.931 337.186 145.496 337.186 144.958V142.85Z" fill="#1A468F"/>
</g>
<path d="M414.111 149.816H423.271" stroke="#1A468F" stroke-width="0.461693" stroke-miterlimit="10" stroke-linecap="round" stroke-linejoin="round"/>
<path d="M417.661 141.572V149.816H419.722V141.572C419.722 141.069 419.515 140.656 418.897 140.656H418.485C417.867 140.656 417.661 141.069 417.661 141.572Z" stroke="#1A468F" stroke-width="0.461693" stroke-linecap="round" stroke-linejoin="round"/>
<path opacity="0.4" d="M414.569 144.32V149.816H416.401V144.32C416.401 143.816 416.218 143.404 415.668 143.404H415.302C414.753 143.404 414.569 143.816 414.569 144.32Z" stroke="#A8C0FF" stroke-width="0.461693" stroke-linecap="round" stroke-linejoin="round"/>
<path opacity="0.4" d="M420.981 146.61V149.816H422.813V146.61C422.813 146.106 422.63 145.694 422.08 145.694H421.714C421.164 145.694 420.981 146.106 420.981 146.61Z" stroke="#A8C0FF" stroke-width="0.461693" stroke-linecap="round" stroke-linejoin="round"/>
<path d="M276.718 142.946H284.961" stroke="#1A468F" stroke-width="0.461693" stroke-linecap="round"/>
<path opacity="0.34" d="M276.718 145.236H284.961" stroke="#A8C0FF" stroke-width="0.461693" stroke-linecap="round"/>
<path d="M276.718 147.526H284.961" stroke="#1A468F" stroke-width="0.461693" stroke-linecap="round"/>
<rect x="289.994" y="159.777" width="10.4651" height="10.4651" rx="2.46237" fill="#CEE1F2"/>
<path d="M287.315 175.936H287.009V173.576H287.315V175.936ZM289.049 175.936V174.815C289.049 174.718 289.035 174.634 289.008 174.564C288.982 174.494 288.939 174.439 288.879 174.401C288.82 174.362 288.738 174.342 288.635 174.342C288.54 174.342 288.458 174.36 288.388 174.396C288.319 174.431 288.263 174.48 288.219 174.542C288.176 174.602 288.146 174.671 288.129 174.748L288.075 174.536H288.14C288.16 174.455 288.194 174.381 288.243 174.314C288.293 174.247 288.359 174.193 288.441 174.154C288.525 174.113 288.627 174.093 288.748 174.093C288.89 174.093 289.006 174.12 289.093 174.174C289.182 174.228 289.246 174.306 289.287 174.409C289.328 174.51 289.348 174.634 289.348 174.782V175.936H289.049ZM287.843 175.936V174.133H288.142L288.129 174.566L288.142 174.582V175.936H287.843ZM290.375 175.977C290.23 175.977 290.103 175.961 289.995 175.93C289.887 175.898 289.797 175.864 289.725 175.827L289.698 175.55C289.788 175.597 289.886 175.637 289.993 175.672C290.101 175.706 290.224 175.724 290.361 175.724C290.5 175.724 290.604 175.701 290.675 175.657C290.745 175.613 290.78 175.547 290.78 175.459V175.439C290.78 175.382 290.766 175.336 290.739 175.299C290.713 175.262 290.666 175.229 290.597 175.201C290.528 175.173 290.43 175.144 290.303 175.116C290.152 175.083 290.033 175.044 289.945 175C289.858 174.954 289.795 174.898 289.757 174.832C289.72 174.765 289.701 174.684 289.701 174.588V174.571C289.701 174.414 289.756 174.294 289.866 174.213C289.975 174.132 290.14 174.091 290.361 174.091C290.502 174.091 290.625 174.107 290.728 174.139C290.833 174.171 290.918 174.207 290.985 174.246L291.013 174.499C290.933 174.452 290.841 174.414 290.737 174.383C290.634 174.352 290.518 174.337 290.388 174.337C290.295 174.337 290.219 174.346 290.161 174.366C290.103 174.385 290.061 174.412 290.036 174.447C290.01 174.482 289.997 174.524 289.997 174.573V174.588C289.997 174.642 290.01 174.688 290.036 174.726C290.061 174.763 290.108 174.796 290.174 174.824C290.242 174.851 290.335 174.878 290.455 174.904C290.609 174.934 290.731 174.971 290.82 175.014C290.912 175.057 290.977 175.112 291.016 175.179C291.056 175.244 291.075 175.328 291.075 175.432V175.463C291.075 175.633 291.016 175.761 290.898 175.847C290.78 175.933 290.606 175.977 290.375 175.977ZM292.331 175.975C292.22 175.975 292.124 175.956 292.043 175.919C291.961 175.882 291.896 175.829 291.845 175.76C291.795 175.692 291.761 175.611 291.744 175.52H291.646L291.732 175.24C291.737 175.348 291.761 175.439 291.804 175.511C291.849 175.583 291.909 175.636 291.984 175.672C292.059 175.708 292.144 175.725 292.238 175.725C292.39 175.725 292.506 175.681 292.586 175.592C292.667 175.504 292.708 175.374 292.708 175.203V174.857C292.708 174.687 292.668 174.558 292.588 174.47C292.507 174.381 292.391 174.337 292.238 174.337C292.147 174.337 292.067 174.354 291.997 174.39C291.926 174.426 291.868 174.474 291.821 174.536C291.776 174.598 291.744 174.668 291.727 174.747L291.653 174.538H291.74C291.76 174.455 291.793 174.381 291.84 174.314C291.888 174.247 291.953 174.193 292.035 174.154C292.119 174.113 292.222 174.093 292.344 174.093C292.56 174.093 292.725 174.161 292.839 174.296C292.952 174.43 293.009 174.625 293.009 174.881V175.181C293.009 175.439 292.951 175.636 292.837 175.772C292.724 175.907 292.555 175.975 292.331 175.975ZM291.443 176.571V174.133H291.742L291.729 174.567L291.732 174.66V175.419L291.731 175.48L291.74 175.986V176.571H291.443ZM294.184 175.977C293.909 175.977 293.702 175.909 293.563 175.775C293.424 175.641 293.354 175.449 293.354 175.199V174.878C293.354 174.624 293.419 174.429 293.548 174.292C293.678 174.154 293.866 174.085 294.115 174.085C294.283 174.085 294.422 174.117 294.534 174.18C294.646 174.241 294.731 174.329 294.787 174.444C294.844 174.558 294.872 174.695 294.872 174.854V174.92C294.872 174.96 294.871 174.999 294.867 175.038C294.864 175.078 294.861 175.117 294.856 175.155H294.581C294.583 175.096 294.584 175.04 294.584 174.987C294.586 174.934 294.586 174.885 294.586 174.841C294.586 174.731 294.568 174.639 294.533 174.564C294.498 174.487 294.446 174.43 294.376 174.39C294.307 174.35 294.22 174.329 294.115 174.329C293.96 174.329 293.844 174.374 293.766 174.464C293.689 174.554 293.65 174.683 293.65 174.85V175.022L293.652 175.059V175.23C293.652 175.306 293.663 175.373 293.685 175.434C293.707 175.494 293.742 175.546 293.788 175.591C293.836 175.634 293.897 175.667 293.969 175.69C294.043 175.712 294.131 175.724 294.232 175.724C294.348 175.724 294.457 175.708 294.558 175.677C294.659 175.647 294.754 175.605 294.843 175.552L294.815 175.81C294.735 175.861 294.642 175.901 294.536 175.932C294.43 175.962 294.313 175.977 294.184 175.977ZM293.511 175.155V174.929H294.793V175.155H293.511ZM295.96 175.977C295.702 175.977 295.509 175.907 295.382 175.768C295.257 175.628 295.194 175.429 295.194 175.173V174.892C295.194 174.635 295.257 174.438 295.384 174.3C295.511 174.161 295.703 174.091 295.96 174.091C296.037 174.091 296.106 174.098 296.169 174.113C296.232 174.127 296.288 174.145 296.337 174.169C296.388 174.191 296.43 174.214 296.464 174.239L296.49 174.499C296.432 174.455 296.364 174.417 296.283 174.386C296.205 174.356 296.112 174.34 296.005 174.34C295.832 174.34 295.704 174.388 295.619 174.484C295.535 174.579 295.493 174.718 295.493 174.9V175.166C295.493 175.344 295.535 175.482 295.619 175.578C295.704 175.674 295.832 175.722 296.005 175.722C296.115 175.722 296.211 175.706 296.291 175.676C296.372 175.645 296.444 175.607 296.507 175.563L296.479 175.827C296.425 175.864 296.354 175.898 296.267 175.93C296.179 175.961 296.077 175.977 295.96 175.977ZM297.537 175.973C297.398 175.973 297.286 175.952 297.201 175.91C297.116 175.868 297.055 175.805 297.017 175.72C296.978 175.635 296.959 175.529 296.959 175.402V174.265H297.255V175.367C297.255 175.485 297.282 175.573 297.336 175.629C297.39 175.685 297.481 175.712 297.609 175.712C297.682 175.712 297.752 175.704 297.818 175.688C297.886 175.672 297.949 175.65 298.008 175.62L297.981 175.877C297.923 175.906 297.855 175.93 297.778 175.947C297.7 175.964 297.62 175.973 297.537 175.973ZM296.664 174.399V174.159H297.99L297.962 174.399H296.664ZM296.961 174.189L296.959 173.683L297.26 173.644L297.247 174.189H296.961ZM298.348 175.936V174.133H298.647V175.936H298.348ZM298.498 173.838C298.436 173.838 298.39 173.822 298.359 173.79C298.33 173.757 298.315 173.712 298.315 173.655V173.646C298.315 173.588 298.33 173.543 298.359 173.511C298.39 173.479 298.436 173.463 298.498 173.463C298.559 173.463 298.606 173.479 298.636 173.511C298.667 173.543 298.682 173.588 298.682 173.646V173.655C298.682 173.713 298.667 173.758 298.636 173.79C298.606 173.822 298.559 173.838 298.498 173.838ZM299.86 175.982C299.601 175.982 299.405 175.913 299.271 175.773C299.138 175.633 299.071 175.432 299.071 175.17V174.894C299.071 174.633 299.138 174.433 299.273 174.294C299.407 174.155 299.603 174.085 299.86 174.085C300.119 174.085 300.314 174.155 300.447 174.294C300.581 174.433 300.649 174.633 300.649 174.894V175.17C300.649 175.432 300.581 175.633 300.447 175.773C300.314 175.913 300.119 175.982 299.86 175.982ZM299.86 175.738C300.02 175.738 300.141 175.691 300.224 175.596C300.307 175.501 300.349 175.365 300.349 175.186V174.878C300.349 174.7 300.307 174.565 300.224 174.471C300.141 174.377 300.02 174.329 299.86 174.329C299.701 174.329 299.58 174.377 299.496 174.471C299.412 174.565 299.371 174.7 299.371 174.878V175.186C299.371 175.365 299.412 175.501 299.496 175.596C299.58 175.691 299.701 175.738 299.86 175.738ZM302.268 175.936V174.815C302.268 174.718 302.255 174.634 302.228 174.564C302.202 174.494 302.159 174.439 302.098 174.401C302.039 174.362 301.958 174.342 301.855 174.342C301.76 174.342 301.677 174.36 301.607 174.396C301.538 174.431 301.482 174.48 301.439 174.542C301.396 174.602 301.366 174.671 301.349 174.748L301.295 174.536H301.36C301.379 174.455 301.414 174.381 301.463 174.314C301.512 174.247 301.578 174.193 301.661 174.154C301.744 174.113 301.847 174.093 301.967 174.093C302.11 174.093 302.225 174.12 302.313 174.174C302.401 174.228 302.466 174.306 302.506 174.409C302.547 174.51 302.567 174.634 302.567 174.782V175.936H302.268ZM301.062 175.936V174.133H301.361L301.349 174.566L301.361 174.582V175.936H301.062Z" fill="#171A1F"/>
<rect x="344.532" y="159.777" width="10.4651" height="10.4651" rx="2.46237" fill="#A8C0FF"/>
<path d="M347.009 173.576L347.967 175.607H347.99L347.977 174.577V173.576H348.276V175.936H347.821L346.852 173.888H346.83L346.843 174.966V175.936H346.544V173.576H347.009ZM349.623 175.978C349.331 175.978 349.112 175.897 348.965 175.733C348.82 175.569 348.747 175.336 348.747 175.035V174.475C348.747 174.173 348.82 173.941 348.965 173.779C349.11 173.615 349.328 173.533 349.619 173.533C349.712 173.533 349.797 173.542 349.874 173.559C349.951 173.576 350.02 173.599 350.081 173.626C350.141 173.653 350.192 173.681 350.234 173.711L350.26 173.995C350.187 173.943 350.101 173.898 350.003 173.86C349.906 173.821 349.791 173.801 349.659 173.801C349.461 173.801 349.312 173.86 349.211 173.978C349.11 174.095 349.059 174.262 349.059 174.479V175.024C349.059 175.239 349.11 175.407 349.213 175.526C349.315 175.644 349.467 175.703 349.671 175.703C349.801 175.703 349.916 175.684 350.016 175.646C350.117 175.608 350.204 175.561 350.278 175.506L350.252 175.797C350.21 175.827 350.159 175.856 350.097 175.884C350.036 175.913 349.965 175.935 349.885 175.953C349.806 175.97 349.719 175.978 349.623 175.978ZM352.085 175.936L352.019 175.452C352.007 175.361 351.986 175.282 351.956 175.216C351.927 175.148 351.881 175.095 351.819 175.057C351.759 175.019 351.673 175 351.561 175L350.92 174.998V174.756L351.605 174.754C351.767 174.754 351.882 174.715 351.951 174.636C352.02 174.556 352.054 174.447 352.054 174.311V174.255C352.054 174.12 352.019 174.015 351.949 173.941C351.879 173.866 351.762 173.829 351.598 173.829H350.911V173.576H351.639C351.892 173.576 352.076 173.632 352.191 173.744C352.306 173.855 352.364 174.008 352.364 174.204V174.266C352.364 174.42 352.328 174.547 352.255 174.645C352.183 174.742 352.062 174.801 351.893 174.822V174.859L351.762 174.813C351.899 174.823 352.004 174.853 352.078 174.904C352.153 174.953 352.208 175.021 352.242 175.107C352.277 175.193 352.303 175.296 352.322 175.417L352.401 175.936H352.085ZM350.71 175.936V173.576H351.011V174.837L351.012 174.953V175.936H350.71Z" fill="#171A1F"/>
<rect x="399.071" y="159.777" width="10.4651" height="10.4651" rx="2.46237" fill="#A8C0FF"/>
<path d="M395.547 173.576L396.506 175.607H396.528L396.515 174.577V173.576H396.814V175.936H396.36L395.39 173.888H395.368L395.381 174.966V175.936H395.082V173.576H395.547ZM398.05 175.982C397.792 175.982 397.595 175.913 397.461 175.773C397.328 175.633 397.262 175.432 397.262 175.17V174.894C397.262 174.633 397.329 174.433 397.463 174.294C397.597 174.155 397.793 174.085 398.05 174.085C398.309 174.085 398.505 174.155 398.638 174.294C398.772 174.433 398.839 174.633 398.839 174.894V175.17C398.839 175.432 398.772 175.633 398.638 175.773C398.505 175.913 398.309 175.982 398.05 175.982ZM398.05 175.738C398.21 175.738 398.332 175.691 398.414 175.596C398.498 175.501 398.54 175.365 398.54 175.186V174.878C398.54 174.7 398.498 174.565 398.414 174.471C398.332 174.377 398.21 174.329 398.05 174.329C397.892 174.329 397.77 174.377 397.687 174.471C397.603 174.565 397.561 174.7 397.561 174.878V175.186C397.561 175.365 397.603 175.501 397.687 175.596C397.77 175.691 397.892 175.738 398.05 175.738ZM399.894 175.973C399.755 175.973 399.643 175.952 399.558 175.91C399.473 175.868 399.411 175.805 399.373 175.72C399.335 175.635 399.316 175.529 399.316 175.402V174.265H399.611V175.367C399.611 175.485 399.638 175.573 399.693 175.629C399.747 175.685 399.838 175.712 399.966 175.712C400.039 175.712 400.108 175.704 400.175 175.688C400.242 175.672 400.306 175.65 400.365 175.62L400.337 175.877C400.279 175.906 400.212 175.93 400.134 175.947C400.056 175.964 399.976 175.973 399.894 175.973ZM399.02 174.399V174.159H400.346L400.319 174.399H399.02ZM399.318 174.189L399.316 173.683L399.617 173.644L399.604 174.189H399.318ZM400.705 175.936V174.133H401.004V175.936H400.705ZM400.854 173.838C400.793 173.838 400.747 173.822 400.716 173.79C400.686 173.757 400.671 173.712 400.671 173.655V173.646C400.671 173.588 400.686 173.543 400.716 173.511C400.747 173.479 400.793 173.463 400.854 173.463C400.916 173.463 400.962 173.479 400.993 173.511C401.024 173.543 401.039 173.588 401.039 173.646V173.655C401.039 173.713 401.024 173.758 400.993 173.79C400.962 173.822 400.916 173.838 400.854 173.838ZM402.106 173.439C402.198 173.439 402.28 173.448 402.353 173.465C402.427 173.481 402.495 173.501 402.556 173.526L402.586 173.76C402.525 173.738 402.465 173.721 402.403 173.709C402.343 173.695 402.274 173.688 402.198 173.688C402.106 173.688 402.031 173.701 401.975 173.725C401.919 173.749 401.879 173.783 401.854 173.827C401.831 173.87 401.819 173.922 401.819 173.984V173.993C401.819 174.036 401.825 174.077 401.836 174.117C401.847 174.155 401.859 174.19 401.873 174.222L401.672 174.229V174.193C401.633 174.163 401.6 174.122 401.57 174.069C401.542 174.016 401.528 173.954 401.528 173.884V173.875C401.528 173.743 401.574 173.638 401.668 173.559C401.762 173.479 401.907 173.439 402.106 173.439ZM401.589 175.936V174.294H401.886V175.936H401.589ZM401.291 174.44V174.202L401.703 174.204L401.825 174.202H402.578L402.551 174.44H401.291ZM402.887 175.936V174.133H403.186V175.936H402.887ZM403.036 173.838C402.975 173.838 402.929 173.822 402.898 173.79C402.868 173.757 402.854 173.712 402.854 173.655V173.646C402.854 173.588 402.868 173.543 402.898 173.511C402.929 173.479 402.975 173.463 403.036 173.463C403.098 173.463 403.144 173.479 403.175 173.511C403.206 173.543 403.221 173.588 403.221 173.646V173.655C403.221 173.713 403.206 173.758 403.175 173.79C403.144 173.822 403.098 173.838 403.036 173.838ZM404.376 175.977C404.118 175.977 403.925 175.907 403.798 175.768C403.673 175.628 403.61 175.429 403.61 175.173V174.892C403.61 174.635 403.673 174.438 403.8 174.3C403.927 174.161 404.119 174.091 404.376 174.091C404.453 174.091 404.522 174.098 404.585 174.113C404.648 174.127 404.704 174.145 404.753 174.169C404.804 174.191 404.846 174.214 404.881 174.239L404.907 174.499C404.849 174.455 404.78 174.417 404.7 174.386C404.621 174.356 404.528 174.34 404.421 174.34C404.248 174.34 404.12 174.388 404.035 174.484C403.951 174.579 403.909 174.718 403.909 174.9V175.166C403.909 175.344 403.951 175.482 404.035 175.578C404.12 175.674 404.248 175.722 404.421 175.722C404.532 175.722 404.627 175.706 404.707 175.676C404.788 175.645 404.86 175.607 404.923 175.563L404.895 175.827C404.841 175.864 404.77 175.898 404.683 175.93C404.596 175.961 404.493 175.977 404.376 175.977ZM406.353 175.936L406.366 175.498L406.355 175.452V174.878L406.357 174.772C406.357 174.626 406.319 174.518 406.244 174.447C406.17 174.377 406.052 174.342 405.891 174.342C405.762 174.342 405.643 174.361 405.535 174.398C405.428 174.434 405.332 174.478 405.249 174.527L405.276 174.272C405.323 174.244 405.378 174.216 405.442 174.189C405.508 174.161 405.582 174.137 405.664 174.119C405.748 174.1 405.839 174.091 405.939 174.091C406.068 174.091 406.178 174.107 406.268 174.139C406.359 174.17 406.432 174.215 406.488 174.274C406.544 174.333 406.586 174.404 406.611 174.488C406.637 174.572 406.65 174.665 406.65 174.769V175.936H406.353ZM405.732 175.975C405.554 175.975 405.417 175.932 405.321 175.845C405.226 175.758 405.178 175.634 405.178 175.472V175.419C405.178 175.253 405.229 175.129 405.332 175.048C405.435 174.965 405.599 174.908 405.823 174.876L406.394 174.795L406.41 175.013L405.86 175.092C405.722 175.112 405.623 175.145 405.564 175.194C405.505 175.24 405.476 175.31 405.476 175.402V175.432C405.476 175.527 405.505 175.599 405.562 175.65C405.622 175.7 405.71 175.725 405.827 175.725C405.93 175.725 406.019 175.708 406.092 175.672C406.166 175.636 406.226 175.588 406.272 175.528C406.317 175.467 406.348 175.4 406.364 175.326L406.41 175.53H406.353C406.336 175.608 406.303 175.682 406.255 175.749C406.208 175.817 406.142 175.872 406.057 175.914C405.972 175.954 405.864 175.975 405.732 175.975ZM407.746 175.973C407.607 175.973 407.495 175.952 407.41 175.91C407.325 175.868 407.264 175.805 407.226 175.72C407.187 175.635 407.168 175.529 407.168 175.402V174.265H407.464V175.367C407.464 175.485 407.491 175.573 407.545 175.629C407.599 175.685 407.69 175.712 407.818 175.712C407.891 175.712 407.961 175.704 408.027 175.688C408.095 175.672 408.158 175.65 408.217 175.62L408.19 175.877C408.132 175.906 408.064 175.93 407.986 175.947C407.909 175.964 407.829 175.973 407.746 175.973ZM406.873 174.399V174.159H408.199L408.171 174.399H406.873ZM407.17 174.189L407.168 173.683L407.469 173.644L407.456 174.189H407.17ZM408.557 175.936V174.133H408.856V175.936H408.557ZM408.707 173.838C408.645 173.838 408.599 173.822 408.568 173.79C408.539 173.757 408.524 173.712 408.524 173.655V173.646C408.524 173.588 408.539 173.543 408.568 173.511C408.599 173.479 408.645 173.463 408.707 173.463C408.768 173.463 408.814 173.479 408.845 173.511C408.876 173.543 408.891 173.588 408.891 173.646V173.655C408.891 173.713 408.876 173.758 408.845 173.79C408.814 173.822 408.768 173.838 408.707 173.838ZM410.069 175.982C409.81 175.982 409.614 175.913 409.48 175.773C409.347 175.633 409.28 175.432 409.28 175.17V174.894C409.28 174.633 409.347 174.433 409.482 174.294C409.616 174.155 409.812 174.085 410.069 174.085C410.327 174.085 410.523 174.155 410.656 174.294C410.79 174.433 410.857 174.633 410.857 174.894V175.17C410.857 175.432 410.79 175.633 410.656 175.773C410.523 175.913 410.327 175.982 410.069 175.982ZM410.069 175.738C410.229 175.738 410.35 175.691 410.433 175.596C410.516 175.501 410.558 175.365 410.558 175.186V174.878C410.558 174.7 410.516 174.565 410.433 174.471C410.35 174.377 410.229 174.329 410.069 174.329C409.91 174.329 409.789 174.377 409.705 174.471C409.621 174.565 409.579 174.7 409.579 174.878V175.186C409.579 175.365 409.621 175.501 409.705 175.596C409.789 175.691 409.91 175.738 410.069 175.738ZM412.477 175.936V174.815C412.477 174.718 412.464 174.634 412.437 174.564C412.411 174.494 412.368 174.439 412.307 174.401C412.248 174.362 412.167 174.342 412.063 174.342C411.969 174.342 411.886 174.36 411.816 174.396C411.747 174.431 411.691 174.48 411.648 174.542C411.605 174.602 411.575 174.671 411.557 174.748L411.504 174.536H411.569C411.588 174.455 411.623 174.381 411.672 174.314C411.721 174.247 411.787 174.193 411.87 174.154C411.953 174.113 412.055 174.093 412.176 174.093C412.319 174.093 412.434 174.12 412.521 174.174C412.61 174.228 412.675 174.306 412.715 174.409C412.756 174.51 412.776 174.634 412.776 174.782V175.936H412.477ZM411.271 175.936V174.133H411.57L411.557 174.566L411.57 174.582V175.936H411.271Z" fill="#171A1F"/>
<path d="M145.827 250.709C145.827 250.709 149.963 274.244 154.489 298.824C159.403 325.547 164.78 353.51 165.793 353.862C167.741 354.533 167.584 350.281 168.921 347.037C169.994 344.427 173.266 322.086 172.192 308.148C171.933 304.747 171.059 262.819 165.242 257.867C159.431 252.916 145.827 250.709 145.827 250.709Z" fill="#FFB27D"/>
<path d="M170.193 340.79C170.193 340.79 169.184 344.64 170.646 348.411C172.108 352.182 172.418 353.261 169.711 355.375C167.004 357.49 164.08 360.465 162.049 359.586C160.017 358.707 161.276 341.442 161.276 341.442L170.188 340.785L170.193 340.79Z" fill="#FFB27D"/>
<path d="M164.571 495.099C162.059 493.567 163.488 482.133 163.488 482.133C163.488 482.133 175.186 472.772 176.796 479.94C178.406 487.107 187.911 490.323 193.32 491.203C197.054 491.809 198.211 493.877 198.572 495.099H164.571Z" fill="#2A4E96"/>
<path d="M112.62 495.099C110.108 493.567 111.538 482.133 111.538 482.133C111.538 482.133 123.235 472.772 124.845 479.94C126.456 487.107 135.96 490.323 141.369 491.203C145.103 491.809 146.26 493.877 146.621 495.099H112.62Z" fill="#2A4E96"/>
<path d="M128.875 362.404C133.04 379.998 138.282 400.09 140.332 411.417C140.573 412.732 140.767 413.926 140.911 414.981C141.054 416.04 141.151 416.966 141.193 417.734C142.28 438.95 159.049 487.455 162.048 488.588C166.689 490.337 173.995 486.617 177.822 485.4C179.404 484.891 180.478 483.295 180.121 481.67C171.816 443.494 166.698 388.854 165.587 356.305C165.028 339.911 164.283 328.25 164.283 328.25C164.283 328.25 123.383 317.338 123.138 331.142C123.045 336.491 125.632 348.689 128.875 362.404Z" fill="#91A6D7"/>
<path d="M128.876 362.404C133.041 379.998 138.283 400.09 140.333 411.417C140.574 412.732 141.828 423.86 141.971 424.92L149.129 343.566L138.977 344.501L128.876 362.409V362.404Z" fill="#788BB8"/>
<path d="M144.979 335.876L130.546 486.645C130.546 486.645 119.867 490.111 110.214 487.441C110.214 487.441 104.606 405.009 105.134 384.861C105.661 364.713 100.59 330.943 106.291 327.218C111.991 323.493 144.979 335.876 144.979 335.876Z" fill="#91A6D7"/>
<path d="M106.573 295.566C106.416 297.288 105.759 329.425 105.718 330.633C105.667 331.965 109.304 334.612 122.139 336.519C126.743 337.204 132.171 337.671 138.413 337.745C154.419 337.921 160.536 331.193 160.536 331.193C161.628 331.211 159.319 323.386 158.949 272.587C159.222 272.587 159.522 272.638 159.786 272.536C165.459 270.333 170.739 265.729 170.739 265.729C170.739 265.729 164.312 247.867 158.232 238.77C156.751 236.549 152.758 234.809 147.441 233.671C146.043 233.37 144.553 233.111 142.994 232.898C135.748 231.908 126.989 231.875 118.877 233.051C117.466 233.25 116.073 233.486 114.713 233.768C108.707 234.985 103.297 236.942 99.4615 239.733C93.8117 243.842 89.601 264.868 89.601 264.868C89.601 264.868 94.9268 270.912 106.907 273.855C107.536 285.955 107.281 287.603 106.578 295.566H106.573Z" fill="#2A4E96"/>
<path d="M164.283 328.25L159.397 267.386C159.115 263.883 156.112 261.231 152.6 261.389L119.316 262.694C116.577 262.8 114.365 264.98 114.222 267.719C113.814 275.715 112.287 291.24 106.568 295.571L103.551 339.633L140.749 373.311C140.749 373.311 144.974 348.629 150.786 341.771C154.034 337.935 164.283 328.254 164.283 328.254V328.25Z" fill="#91A6D7"/>
<path d="M114.707 233.763L118.724 264.864L122.897 264.202L118.872 233.046C117.461 233.245 116.068 233.481 114.707 233.763Z" fill="#91A6D7"/>
<path d="M142.989 232.893L148.144 260.796L148.574 263.138L149.037 263.031L152.706 262.208L147.436 233.666C146.038 233.365 144.548 233.106 142.989 232.893Z" fill="#91A6D7"/>
<path d="M89.5953 298.033C89.5953 298.033 92.0941 305.626 124.216 316.13C124.216 316.13 124.582 307.551 122.629 306.404C116.59 302.859 102.204 292.281 101.709 290.421C101.381 289.185 104.657 279.843 108.803 270.449C101.186 269.602 96.2817 268.917 90.6689 265.91C88.582 280.685 85.6992 291.022 89.5953 298.037V298.033Z" fill="#FFB27D"/>
<path d="M127.876 306.816C127.876 306.816 130.555 304.766 132.614 304.46C134.673 304.155 138.139 302.845 137.579 304.062C137.015 305.279 133.22 307.2 133.22 307.2L127.876 306.811V306.816Z" fill="#FFB27D"/>
<path d="M133.012 320.351L143.479 321.628C144.635 321.771 145.728 321.059 146.061 319.944L153.224 296.191C153.654 294.766 152.696 293.299 151.22 293.123L140.753 291.846C139.597 291.703 138.504 292.415 138.171 293.53L131.008 317.283C130.578 318.708 131.536 320.175 133.012 320.351Z" fill="#233862"/>
<path d="M136.719 320.804L147.186 322.081C148.343 322.22 149.435 321.512 149.768 320.392L156.931 296.64C157.361 295.215 156.403 293.748 154.927 293.572L144.46 292.295C143.304 292.156 142.212 292.864 141.878 293.984L134.715 317.736C134.285 319.161 135.243 320.628 136.719 320.804Z" fill="#192E4F"/>
<path d="M122.629 306.404C122.629 306.404 124.494 307.556 125.817 307.209C126.914 306.922 127.876 306.816 129.14 305.955C130.472 305.048 133.424 306.246 134.299 306.829C136.742 308.458 144.979 308.394 144.979 310.018C144.979 311.642 141.392 316.218 137.052 317.574C132.712 318.93 124.212 316.126 124.212 316.126L122.625 306.399L122.629 306.404Z" fill="#FFB27D"/>
<path d="M122.527 232.301C122.351 237.137 126.636 239.492 133.059 238.571C139.481 237.655 139.611 232.671 139.611 232.671L139.453 227.849L139.268 222.144L139.102 217.045L123.554 219.15C123.605 219.534 123.591 220.436 123.536 221.612C123.388 224.675 122.953 229.603 122.532 232.301H122.527Z" fill="#FFB27D"/>
<path d="M123.528 221.612H123.532C123.68 221.825 127.229 226.669 139.45 227.845L139.265 222.139L123.528 221.612Z" fill="#ED975D"/>
<path d="M142.257 224.832C142.257 224.832 123.128 228.696 120.903 216.748C118.682 204.796 114.712 197.249 126.835 194.273C138.954 191.302 142.183 195.416 143.895 199.225C145.607 203.033 147.176 223.518 142.257 224.832Z" fill="#FFB27D"/>
<path d="M121.787 219.404C121.787 219.404 115.133 220.904 114.504 208.794C114.263 204.129 113.102 187.762 126.419 188.322C139.741 188.882 145.807 196.67 147.019 198.035C156.112 208.294 133.989 200.659 131.046 203.042C128.103 205.425 130.907 209.349 127.539 210.756C124.175 212.158 121.509 212.158 122.069 215.244C122.629 218.331 121.782 219.404 121.782 219.404H121.787Z" fill="#233862"/>
<path d="M148.805 198.276C148.805 198.276 141.679 200.756 139.181 200.937C138.436 200.992 127.381 201.751 127.381 201.751L111.232 204.601C111.232 204.601 108.081 192.612 115.98 185.079C116.179 184.884 116.382 184.699 116.595 184.519C118.728 182.677 121.588 181.145 125.401 180.187C144.715 175.338 148.727 197.577 148.805 198.276Z" fill="#EFC531"/>
<path d="M139.393 200.599L136.344 201.006C133.956 197.85 125.128 186.911 115.822 185.287C115.878 185.204 115.929 185.134 115.98 185.079C116.142 184.88 116.271 184.782 116.503 184.491C116.535 184.5 116.563 184.505 116.6 184.514C128.506 187.365 137.385 197.79 139.398 200.599H139.393Z" fill="#D1AC29"/>
<path d="M127.377 201.751C127.377 201.751 125.299 204.102 124.753 206.36C124.212 208.623 113.722 209.978 113 208.803C112.278 207.628 111.223 204.597 111.223 204.597L127.372 201.746L127.377 201.751Z" fill="#EFC531"/>
<path d="M127.377 201.751C127.377 201.751 146.7 202.112 155.529 197.461C156.2 197.105 156.089 196.106 155.349 195.925C154.021 195.601 151.762 195.24 148.033 195.102C148.033 195.102 141.115 200.844 127.372 201.746L127.377 201.751Z" fill="#D1AC29"/>
<defs>
<clipPath id="clip0_3_1255">
<rect width="29.1872" height="10.9914" fill="white" transform="translate(334.423 139.74)"/>
</clipPath>
</defs>
</svg>
