<svg width="618" height="404" viewBox="0 0 618 404" fill="none" xmlns="http://www.w3.org/2000/svg">
<g clip-path="url(#clip0_90_3270)">
<path d="M583.791 32.0593H505.23V137.352H583.791V32.0593Z" fill="#E1E6FF"/>
<path d="M579.694 36.1919H509.318V133.21H579.694V36.1919Z" fill="#FAFAFA"/>
<path d="M558.988 69.7498H532.123V100.435H558.988V69.7498Z" fill="#E1E6FF"/>
<path d="M549.573 162.31V213.296H618V162.31H549.573Z" fill="#E1E6FF"/>
<path d="M615.306 164.973H552.265V210.652H615.306V164.973Z" fill="#FAFAFA"/>
<path d="M574.069 178.402V195.839H594.01V178.402H574.069Z" fill="#E1E6FF"/>
<path d="M51.7817 72.718H1.93872V139.528H51.7817V72.718Z" fill="#E1E6FF"/>
<path d="M49.1936 75.3428H4.53638V136.903H49.1936V75.3428Z" fill="#FAFAFA"/>
<path d="M36.0524 96.636H19.0051V116.106H36.0524V96.636Z" fill="#E1E6FF"/>
<path d="M600.962 403.752C600.962 403.885 466.418 404 300.491 404C134.564 404 -0.00952148 403.885 -0.00952148 403.752C-0.00952148 403.618 134.506 403.504 300.491 403.504C466.475 403.504 600.962 403.618 600.962 403.752Z" fill="#1A468F"/>
<path d="M437.948 24.9963H78.5986V261.38H437.948V24.9963Z" fill="#E1E6FF"/>
<path d="M437.948 261.38C437.948 259.767 437.872 169.182 437.747 24.9964L437.948 25.1969C339.265 25.2064 214.232 25.2255 78.6275 25.2446H78.5989L78.8472 24.9964C78.8472 109.091 78.8377 189.101 78.8281 261.38L78.5989 261.151C290.119 261.284 435.904 261.38 437.948 261.38C435.904 261.38 290.119 261.475 78.5989 261.609H78.3697V261.38C78.3697 189.101 78.3601 109.082 78.3506 24.9964V24.7483H78.6275C214.232 24.7674 339.265 24.7865 437.948 24.796H438.149V24.9964C438.024 169.182 437.948 259.767 437.948 261.38Z" fill="#1A468F"/>
<path d="M437.948 46.0321C437.948 46.1657 357.496 46.2802 258.278 46.2802C159.06 46.2802 78.5986 46.1657 78.5986 46.0321C78.5986 45.8985 159.031 45.7839 258.278 45.7839C357.525 45.7839 437.948 45.8985 437.948 46.0321Z" fill="#1A468F"/>
<path d="M413.337 81.0022H112.082V122.205H413.337V81.0022Z" fill="#7696EA"/>
<path d="M173.806 194.264H106.925V261.103H173.806V194.264Z" fill="#7696EA"/>
<path d="M252.863 194.264H185.982V261.103H252.863V194.264Z" fill="#7696EA"/>
<path d="M329.571 194.264H262.69V261.103H329.571V194.264Z" fill="#7696EA"/>
<path d="M226.514 165.937H154.018C147.915 165.937 142.968 160.993 142.968 154.894C142.968 148.795 147.915 143.851 154.018 143.851H226.514C232.617 143.851 237.564 148.795 237.564 154.894C237.564 160.993 232.617 165.937 226.514 165.937Z" fill="#566CC1"/>
<path d="M311.264 165.937C311.264 165.937 311.598 165.899 312.247 165.86C312.572 165.832 312.973 165.746 313.451 165.679C313.919 165.546 314.473 165.441 315.055 165.202C316.239 164.763 317.653 163.99 318.98 162.682C320.279 161.365 321.473 159.494 321.979 157.127C322.438 154.78 322.189 151.945 320.699 149.416C319.238 146.915 316.535 144.72 313.145 144.176C311.474 143.899 309.669 144.042 307.826 144.014C305.982 144.014 304.082 144.014 302.124 144.014C298.208 144.014 294.073 144.023 289.737 144.033C254.993 144.052 207.013 144.08 154.028 144.109C150.78 144.109 147.6 145.636 145.604 148.146C143.589 150.637 142.787 154.016 143.446 157.108C144.086 160.201 146.149 162.921 148.88 164.4C150.246 165.135 151.774 165.565 153.311 165.66C154.849 165.736 156.444 165.679 158 165.698C170.492 165.698 182.554 165.708 194.034 165.717C216.993 165.736 237.679 165.756 255.051 165.775C272.413 165.803 286.462 165.832 296.184 165.851C301.035 165.87 304.798 165.889 307.367 165.899C308.637 165.908 309.612 165.918 310.28 165.927C310.939 165.927 311.273 165.956 311.273 165.956C311.273 165.956 310.939 165.975 310.28 165.985C309.612 165.985 308.637 165.994 307.367 166.013C304.798 166.023 301.035 166.042 296.184 166.061C286.462 166.08 272.413 166.109 255.051 166.137C237.679 166.156 217.002 166.166 194.034 166.195C182.554 166.195 170.492 166.195 158 166.214C156.434 166.195 154.887 166.252 153.283 166.175C151.678 166.07 150.083 165.622 148.651 164.858C145.795 163.312 143.637 160.468 142.959 157.232C142.281 153.997 143.112 150.466 145.222 147.86C147.304 145.245 150.637 143.632 154.028 143.641C207.022 143.67 254.993 143.699 289.737 143.718C294.083 143.718 298.218 143.727 302.124 143.737C304.082 143.737 305.982 143.737 307.826 143.737C309.669 143.775 311.455 143.632 313.193 143.928C316.669 144.51 319.429 146.762 320.91 149.33C322.428 151.926 322.657 154.818 322.18 157.204C321.654 159.609 320.432 161.508 319.095 162.825C317.739 164.133 316.306 164.897 315.093 165.336C314.501 165.574 313.938 165.67 313.46 165.794C312.973 165.86 312.572 165.937 312.247 165.956C311.588 165.985 311.254 165.985 311.254 165.985L311.264 165.937Z" fill="#1A468F"/>
<path d="M214.538 173.649H215.36L214.347 178.698H217.48L217.336 179.413H213.373L214.529 173.639L214.538 173.649Z" fill="#1A468F"/>
<path d="M218.109 177.581C218.109 176.101 219.179 175.013 220.678 175.013C221.92 175.013 222.722 175.748 222.722 176.894C222.722 178.373 221.662 179.471 220.163 179.471C218.921 179.471 218.109 178.717 218.109 177.581ZM221.92 176.932C221.92 176.159 221.452 175.701 220.621 175.701C219.637 175.701 218.912 176.464 218.912 177.543C218.912 178.306 219.38 178.774 220.21 178.774C221.204 178.774 221.92 178.01 221.92 176.932Z" fill="#1A468F"/>
<path d="M228.329 175.052L227.46 179.423H226.705L226.81 178.888C226.419 179.261 225.893 179.471 225.263 179.471C224.146 179.471 223.334 178.764 223.334 177.581C223.334 176.082 224.394 175.013 225.808 175.013C226.562 175.013 227.106 175.281 227.383 175.796L227.536 175.052H228.329ZM227.154 176.932C227.154 176.159 226.686 175.701 225.855 175.701C224.872 175.701 224.146 176.464 224.146 177.543C224.146 178.306 224.614 178.774 225.445 178.774C226.438 178.774 227.154 178.01 227.154 176.932Z" fill="#1A468F"/>
<path d="M234.307 173.305L233.085 179.423H232.33L232.435 178.889C232.044 179.261 231.518 179.471 230.888 179.471C229.771 179.471 228.959 178.765 228.959 177.581C228.959 176.083 230.019 175.014 231.433 175.014C232.187 175.014 232.731 175.281 233.018 175.806L233.514 173.305H234.307ZM232.77 176.932C232.77 176.159 232.302 175.701 231.471 175.701C230.487 175.701 229.761 176.464 229.761 177.543C229.761 178.306 230.229 178.774 231.06 178.774C232.053 178.774 232.77 178.011 232.77 176.932Z" fill="#1A468F"/>
<path d="M235.453 175.052H236.246L235.377 179.423H234.584L235.453 175.052ZM235.587 173.734C235.587 173.429 235.816 173.181 236.16 173.181C236.446 173.181 236.666 173.391 236.666 173.639C236.666 173.973 236.427 174.212 236.093 174.212C235.806 174.212 235.596 174.002 235.596 173.734H235.587Z" fill="#1A468F"/>
<path d="M241.575 176.464C241.575 176.617 241.556 176.798 241.527 176.98L241.04 179.432H240.248L240.735 176.98C240.763 176.846 240.773 176.722 240.773 176.617C240.773 176.044 240.439 175.729 239.761 175.729C238.911 175.729 238.338 176.187 238.147 177.123L237.688 179.432H236.896L237.765 175.061H238.519L238.414 175.624C238.815 175.214 239.369 175.023 239.999 175.023C240.993 175.023 241.585 175.538 241.585 176.474L241.575 176.464Z" fill="#1A468F"/>
<path d="M247.572 175.052L246.818 178.831C246.503 180.416 245.653 181.074 244.201 181.074C243.37 181.074 242.673 180.855 242.205 180.454L242.644 179.843C242.979 180.158 243.58 180.368 244.258 180.368C245.29 180.368 245.806 179.9 245.997 178.946L246.063 178.631C245.672 179.013 245.127 179.232 244.478 179.232C243.322 179.232 242.53 178.554 242.53 177.447C242.53 176.063 243.561 175.004 245.022 175.004C245.739 175.004 246.369 175.271 246.656 175.844L246.808 175.042H247.563L247.572 175.052ZM246.359 176.836C246.359 176.14 245.882 175.71 245.061 175.71C244.067 175.71 243.342 176.426 243.342 177.419C243.342 178.125 243.829 178.554 244.64 178.554C245.643 178.554 246.359 177.839 246.359 176.836Z" fill="#1A468F"/>
<path d="M250.16 178.946C250.16 178.593 250.428 178.344 250.743 178.344C251.039 178.344 251.258 178.564 251.258 178.879C251.258 179.232 250.991 179.471 250.685 179.471C250.38 179.471 250.16 179.242 250.16 178.946Z" fill="#1A468F"/>
<path d="M252.032 178.946C252.032 178.593 252.3 178.344 252.615 178.344C252.911 178.344 253.131 178.564 253.131 178.879C253.131 179.232 252.863 179.471 252.558 179.471C252.252 179.471 252.032 179.242 252.032 178.946Z" fill="#1A468F"/>
<path d="M253.895 178.946C253.895 178.593 254.162 178.344 254.477 178.344C254.773 178.344 254.993 178.564 254.993 178.879C254.993 179.232 254.726 179.471 254.42 179.471C254.114 179.471 253.895 179.242 253.895 178.946Z" fill="#1A468F"/>
<path d="M92.3228 36.5258C92.3228 37.9766 91.1481 39.16 89.6869 39.16C88.2257 39.16 87.051 37.9861 87.051 36.5258C87.051 35.0656 88.2257 33.8916 89.6869 33.8916C91.1481 33.8916 92.3228 35.0656 92.3228 36.5258Z" fill="#1A468F"/>
<path d="M103.516 36.5258C103.516 37.9766 102.341 39.16 100.88 39.16C99.4188 39.16 98.2441 37.9861 98.2441 36.5258C98.2441 35.0656 99.4188 33.8916 100.88 33.8916C102.341 33.8916 103.516 35.0656 103.516 36.5258Z" fill="#1A468F"/>
<path d="M114.708 36.5258C114.708 37.9766 113.534 39.16 112.072 39.16C110.611 39.16 109.437 37.9861 109.437 36.5258C109.437 35.0656 110.611 33.8916 112.072 33.8916C113.534 33.8916 114.708 35.0656 114.708 36.5258Z" fill="#1A468F"/>
<path d="M400.493 250.872C469.757 250.872 525.907 194.757 525.907 125.536C525.907 56.3151 469.757 0.200439 400.493 0.200439C331.228 0.200439 275.078 56.3151 275.078 125.536C275.078 194.757 331.228 250.872 400.493 250.872Z" fill="#F5F5F5"/>
<path d="M525.907 125.536C525.907 125.536 525.869 124.849 525.831 123.503C525.811 122.825 525.783 121.995 525.754 121.002C525.725 120.01 525.706 118.855 525.573 117.547C525.468 116.24 525.353 114.779 525.229 113.166C525.066 111.554 524.809 109.807 524.57 107.908C524.035 104.109 523.204 99.7663 522.02 94.9274C520.74 90.1171 519.193 84.7913 516.882 79.1889C514.618 73.5768 511.83 67.5925 508.162 61.5415C500.914 49.4298 490.513 36.7645 476.331 25.9604C469.274 20.5392 461.251 15.6812 452.408 11.663C443.564 7.65444 433.909 4.42847 423.604 2.57688C413.318 0.677568 402.431 -0.0668859 391.314 0.7921C385.747 1.11661 380.15 2.02331 374.535 3.13999C368.929 4.33303 363.342 5.94601 357.793 7.91214C352.292 9.98324 346.81 12.3407 341.5 15.1944C336.219 18.0768 331.023 21.2837 326.076 24.9582C321.148 28.6519 316.421 32.7082 311.951 37.1176C307.539 41.5844 303.394 46.4042 299.584 51.5391C295.754 56.6643 292.402 62.2096 289.375 67.9552C288.658 69.4155 287.837 70.828 287.197 72.3265C286.529 73.8154 285.85 75.3043 285.172 76.8028C283.969 79.8474 282.718 82.892 281.715 86.0512C279.662 92.3218 277.962 98.7833 276.95 105.407C275.909 112.021 275.355 118.759 275.307 125.536C275.355 132.322 275.899 139.06 276.94 145.674C277.962 152.298 279.652 158.76 281.706 165.03L282.498 167.378L282.89 168.552L283.339 169.697C283.94 171.224 284.542 172.751 285.153 174.279C285.831 175.777 286.5 177.266 287.178 178.755C287.827 180.253 288.639 181.675 289.355 183.126C292.383 188.881 295.735 194.427 299.565 199.552C303.375 204.687 307.52 209.507 311.932 213.983C316.402 218.402 321.129 222.458 326.057 226.142C331.004 229.807 336.2 233.024 341.481 235.906C346.791 238.76 352.273 241.117 357.774 243.188C363.323 245.154 368.909 246.758 374.515 247.96C380.131 249.068 385.728 249.974 391.295 250.308C402.412 251.177 413.299 250.423 423.585 248.524C433.89 246.672 443.545 243.446 452.389 239.428C461.232 235.41 469.254 230.552 476.312 225.13C490.485 214.326 500.885 201.652 508.134 189.54C511.801 183.489 514.59 177.505 516.853 171.892C519.164 166.29 520.712 160.964 521.991 156.154C523.176 151.315 524.006 146.972 524.541 143.174C524.78 141.274 525.038 139.518 525.2 137.915C525.324 136.302 525.439 134.842 525.544 133.534C525.668 132.226 525.697 131.072 525.725 130.079C525.754 129.086 525.783 128.246 525.802 127.578C525.84 126.233 525.878 125.545 525.878 125.545C525.878 125.545 525.878 126.233 525.85 127.578C525.84 128.256 525.821 129.086 525.802 130.079C525.783 131.072 525.764 132.236 525.649 133.534C525.554 134.842 525.448 136.302 525.324 137.924C525.172 139.537 524.914 141.294 524.684 143.193C524.169 146.991 523.347 151.353 522.182 156.192C520.922 161.012 519.374 166.347 517.082 171.969C514.829 177.6 512.049 183.603 508.382 189.664C501.143 201.814 490.733 214.536 476.532 225.388C469.465 230.828 461.414 235.715 452.551 239.752C443.688 243.79 434.004 247.035 423.661 248.905C413.347 250.824 402.421 251.578 391.267 250.719C385.68 250.394 380.064 249.488 374.42 248.38C368.795 247.178 363.179 245.574 357.611 243.599C352.082 241.528 346.581 239.161 341.252 236.297C335.942 233.405 330.727 230.189 325.761 226.505C320.814 222.802 316.068 218.726 311.579 214.298C307.148 209.812 302.984 204.973 299.164 199.819C295.315 194.675 291.953 189.11 288.916 183.336C288.19 181.876 287.379 180.454 286.729 178.946C286.051 177.447 285.373 175.958 284.695 174.46C284.093 172.933 283.482 171.396 282.88 169.86L282.422 168.705L282.021 167.531L281.228 165.173C279.165 158.874 277.465 152.384 276.443 145.732C275.393 139.089 274.849 132.322 274.801 125.517C274.849 118.712 275.393 111.945 276.443 105.302C277.465 98.6496 279.175 92.1691 281.228 85.8698C282.231 82.7107 283.482 79.647 284.695 76.5928C285.373 75.0943 286.051 73.5959 286.729 72.107C287.379 70.599 288.2 69.1769 288.916 67.7166C291.953 61.9423 295.324 56.378 299.164 51.2336C302.993 46.0797 307.148 41.2408 311.579 36.755C316.068 32.3264 320.814 28.2605 325.761 24.5574C330.727 20.8828 335.942 17.6568 341.242 14.7649C346.571 11.9016 352.072 9.53466 357.592 7.46355C363.16 5.49743 368.766 3.88445 374.401 2.68187C380.036 1.57473 385.661 0.668024 391.238 0.343518C402.393 -0.515467 413.318 0.238531 423.633 2.15693C433.966 4.02761 443.66 7.27267 452.522 11.3004C461.385 15.3376 469.436 20.2243 476.503 25.6645C490.704 36.5164 501.114 49.2389 508.353 61.3888C512.021 67.4589 514.8 73.4623 517.054 79.0934C519.355 84.715 520.893 90.0502 522.163 94.8701C523.338 99.7186 524.15 104.071 524.675 107.879C524.904 109.788 525.152 111.534 525.315 113.147C525.429 114.76 525.544 116.23 525.639 117.538C525.754 118.845 525.773 120 525.792 121.002C525.811 121.995 525.83 122.835 525.84 123.503C525.869 124.849 525.869 125.536 525.869 125.536H525.907Z" fill="#1A468F"/>
<mask id="mask0_90_3270" style="mask-type:luminance" maskUnits="userSpaceOnUse" x="286" y="9" width="229" height="195">
<path d="M350.239 169.297C338.865 157.242 331.874 141.007 331.874 123.131C331.874 85.9654 362.024 55.8341 399.213 55.8341C436.402 55.8341 466.552 85.9654 466.552 123.131C466.552 141.733 458.998 158.569 446.792 170.757L480.677 203.818C501.43 183.212 514.284 154.675 514.284 123.131C514.284 60.3199 463.334 9.40112 400.483 9.40112C337.632 9.40112 286.682 60.3199 286.682 123.131C286.682 154.15 299.116 182.248 319.267 202.768L350.239 169.297Z" fill="white"/>
</mask>
<g mask="url(#mask0_90_3270)">
<path d="M350.239 169.297C338.865 157.242 331.874 141.007 331.874 123.131C331.874 85.9654 362.024 55.8341 399.213 55.8341C436.402 55.8341 466.552 85.9654 466.552 123.131C466.552 141.733 458.998 158.569 446.792 170.757L480.677 203.818C501.43 183.212 514.284 154.675 514.284 123.131C514.284 60.3199 463.334 9.40112 400.483 9.40112C337.632 9.40112 286.682 60.3199 286.682 123.131C286.682 154.15 299.116 182.248 319.267 202.768L350.239 169.297Z" fill="#566CC1"/>
<g opacity="0.8">
<path d="M460.049 122.549H521.256C521.256 122.549 515.068 172.341 513.826 173.267C512.585 174.193 476.38 215.949 476.38 215.949L435.218 167.082L460.049 122.549Z" fill="#171A1F"/>
</g>
<g opacity="0.7">
<path d="M443.536 81.3554L486.856 38.8738L517.341 84.3332L521.409 122.539L460.784 122.549L449.744 98.2488L443.536 81.3554Z" fill="#171A1F"/>
</g>
<g opacity="0.5">
<path d="M403.157 65.9415C402.412 64.7007 403.157 4.70532 403.157 4.70532L440.48 9.39157L486.426 39.0361L442.275 82.3385L414.474 78.3204L403.147 65.951L403.157 65.9415Z" fill="#171A1F"/>
</g>
<g opacity="0.3">
<path d="M314.263 41.2027C315.189 41.5081 355.425 84.5051 355.425 84.5051L391.324 70.2746L402.832 55.9199L403.167 4.70532L360.381 9.39157L314.272 41.2027H314.263Z" fill="#171A1F"/>
</g>
<g opacity="0.1">
<path d="M282.651 122.549C283.578 123.169 350.735 122.549 350.735 122.549L349.551 78.3778L317.138 44.0088L295.029 70.2747L282.651 122.539V122.549Z" fill="#171A1F"/>
</g>
</g>
<path d="M401.772 151.649C416.203 151.649 427.902 139.958 427.902 125.536C427.902 111.114 416.203 99.4229 401.772 99.4229C387.341 99.4229 375.642 111.114 375.642 125.536C375.642 139.958 387.341 151.649 401.772 151.649Z" fill="#7696EA"/>
<path d="M394.074 127.282C395.22 131.196 399.298 133.448 403.223 132.341L494.095 106.562L400.311 117.843C395.765 118.387 392.795 122.892 394.074 127.282Z" fill="#455A64"/>
<path d="M387.819 182.019L382.815 207.359H376.187L378.794 193.997L370.351 204.859H367.2L362.597 193.997L359.913 207.359H353.323L358.394 182.019H364.23L370.17 196.679L381.688 182.019H387.809H387.819Z" fill="#1A468F"/>
<path d="M412.23 187.746L408.314 207.369H401.791L402.192 205.527C400.674 206.939 398.783 207.703 396.5 207.703C392.26 207.703 388.201 204.477 388.201 198.76C388.201 192.241 392.986 187.431 398.85 187.431C401.495 187.431 403.634 188.232 404.866 190.113L405.334 187.755H412.22L412.23 187.746ZM403.568 196.689C403.568 194.408 402.192 192.919 399.833 192.919C397.121 192.919 395.163 195.123 395.163 198.426C395.163 200.707 396.539 202.157 398.897 202.157C401.648 202.157 403.568 199.953 403.568 196.689Z" fill="#1A468F"/>
<path d="M427.519 197.624L432.848 207.359H425.533L422.849 202.215L418.103 207.359H410.31L420.127 197.29L414.951 187.736H422.161L424.769 192.728L429.439 187.736H437.012L427.519 197.624Z" fill="#1A468F"/>
<path d="M434.653 203.923C434.653 201.279 436.649 199.542 439.075 199.542C441.501 199.542 442.953 201.06 442.953 203.312C442.953 205.956 440.928 207.693 438.569 207.693C436.21 207.693 434.653 206.099 434.653 203.923Z" fill="#1A468F"/>
<path d="M537.271 383.957L541.33 390.514L551.673 378.574L546.22 372.809L537.271 383.957Z" fill="#566CC1"/>
<path d="M550.747 377.352C550.795 377.4 550.27 378.106 549.353 379.194C548.436 380.282 547.128 381.743 545.647 383.327C544.224 384.825 542.935 386.19 541.837 387.355C540.853 388.376 540.232 388.996 540.175 388.958C540.127 388.91 540.653 388.204 541.569 387.126C542.486 386.038 543.804 384.577 545.275 382.993C546.698 381.495 547.978 380.13 549.086 378.965C550.069 377.944 550.69 377.314 550.738 377.362L550.747 377.352Z" fill="#1A468F"/>
<path d="M541.235 377.973C541.331 377.877 542.467 378.841 543.776 380.13C545.084 381.418 546.058 382.544 545.963 382.649C545.867 382.745 544.731 381.781 543.422 380.492C542.123 379.204 541.14 378.078 541.235 377.973Z" fill="#1A468F"/>
<g opacity="0.6">
<path d="M541.331 390.514L551.674 378.574L550.642 377.486L540.089 389.063L541.197 390.399" fill="white"/>
</g>
<path d="M455.75 399.6L455.779 397.987L472.1 398.111L472.072 403.418L471.059 403.475C466.571 403.685 448.234 404.229 445.245 403.37C441.912 402.406 455.741 399.6 455.741 399.6H455.75Z" fill="#566CC1"/>
<g opacity="0.6">
<path d="M466.18 403.275C466.428 402.015 467.192 400.85 468.281 400.068C469.379 399.285 470.716 398.884 472.091 398.989L472.053 403.208L466.18 403.275Z" fill="white"/>
</g>
<g opacity="0.6">
<path d="M448.989 401.194C448.989 401.194 444.138 402.463 444.73 403.208C445.322 403.952 463.878 404.048 472.063 403.427L472.044 403.093L450.403 403.15C450.403 403.15 449.935 401.242 448.989 401.203V401.194Z" fill="white"/>
</g>
<path d="M472.301 403.084C472.301 403.084 472.206 403.103 472.024 403.112C471.786 403.122 471.518 403.141 471.222 403.15C470.42 403.179 469.436 403.217 468.271 403.255C465.779 403.322 462.331 403.379 458.52 403.36C454.71 403.341 451.262 403.255 448.769 403.16C447.604 403.112 446.621 403.064 445.818 403.026C445.522 403.007 445.255 402.988 445.016 402.979C444.835 402.969 444.739 402.959 444.739 402.95C444.739 402.95 444.835 402.95 445.016 402.95C445.255 402.95 445.522 402.95 445.818 402.96C446.621 402.979 447.604 403.007 448.769 403.026C451.262 403.084 454.71 403.15 458.52 403.169C462.331 403.189 465.769 403.15 468.271 403.112C469.436 403.093 470.42 403.084 471.222 403.064C471.518 403.064 471.786 403.064 472.024 403.064C472.206 403.064 472.301 403.064 472.301 403.074V403.084Z" fill="#1A468F"/>
<path d="M450.402 403.38C450.345 403.38 450.306 402.731 449.867 402.063C449.437 401.394 448.836 401.051 448.874 401.003C448.883 400.955 449.581 401.242 450.039 401.967C450.507 402.683 450.459 403.389 450.411 403.37L450.402 403.38Z" fill="#1A468F"/>
<path d="M455.215 401.146C455.215 401.146 454.938 400.917 454.709 400.564C454.48 400.22 454.327 399.915 454.365 399.886C454.413 399.858 454.642 400.115 454.871 400.469C455.101 400.812 455.253 401.118 455.215 401.146Z" fill="#1A468F"/>
<path d="M456.543 400.507C456.543 400.507 456.247 400.383 455.97 400.144C455.693 399.905 455.493 399.686 455.531 399.648C455.569 399.609 455.827 399.772 456.104 400.01C456.381 400.249 456.582 400.468 456.543 400.507Z" fill="#1A468F"/>
<path d="M457.384 399.085C457.384 399.132 457.002 399.18 456.534 399.18C456.066 399.18 455.684 399.142 455.684 399.094C455.684 399.047 456.066 398.999 456.534 398.999C457.002 398.999 457.384 399.037 457.384 399.085Z" fill="#1A468F"/>
<path d="M457.68 398.083C457.68 398.083 457.278 398.302 456.734 398.331C456.18 398.369 455.75 398.254 455.76 398.207C455.76 398.159 456.199 398.188 456.725 398.149C457.25 398.121 457.67 398.035 457.689 398.083H457.68Z" fill="#1A468F"/>
<path d="M454.681 399.829C454.681 399.829 454.28 399.896 453.64 399.819C453.315 399.781 452.943 399.705 452.532 399.59C452.332 399.524 452.121 399.466 451.902 399.342C451.797 399.275 451.682 399.19 451.644 399.037C451.606 398.894 451.692 398.731 451.806 398.646C452.809 398.168 453.802 398.693 454.165 399.18C454.366 399.428 454.461 399.667 454.499 399.829C454.538 399.991 454.538 400.087 454.528 400.087C454.49 400.096 454.461 399.705 454.06 399.256C453.86 399.037 453.564 398.827 453.172 398.712C452.809 398.607 452.284 398.579 451.93 398.789C451.768 398.903 451.825 399.085 452.007 399.19C452.179 399.295 452.398 399.361 452.589 399.428C452.981 399.552 453.353 399.638 453.659 399.695C454.28 399.8 454.681 399.8 454.681 399.839V399.829Z" fill="#1A468F"/>
<path d="M454.413 399.877C454.413 399.877 454.251 399.638 454.299 399.199C454.327 398.989 454.413 398.732 454.595 398.493C454.786 398.283 455.024 397.987 455.464 398.006C455.702 398.035 455.817 398.293 455.779 398.455C455.76 398.627 455.674 398.77 455.597 398.884C455.445 399.123 455.263 399.323 455.101 399.467C454.767 399.762 454.509 399.877 454.499 399.858C454.48 399.839 454.709 399.686 454.996 399.381C455.139 399.228 455.301 399.037 455.435 398.798C455.578 398.598 455.683 398.226 455.416 398.178C455.158 398.149 454.881 398.398 454.728 398.588C454.566 398.798 454.47 399.027 454.423 399.218C454.337 399.61 454.432 399.867 454.404 399.877H454.413Z" fill="#1A468F"/>
<path d="M472.005 398.951C472.005 398.951 471.537 398.903 470.802 398.98C470.076 399.046 469.064 399.323 468.176 399.972C467.287 400.621 466.762 401.471 466.523 402.11C466.266 402.759 466.237 403.189 466.208 403.189C466.199 403.189 466.189 403.084 466.208 402.883C466.227 402.692 466.275 402.406 466.39 402.072C466.609 401.404 467.135 400.507 468.061 399.829C468.987 399.151 470.048 398.894 470.802 398.856C471.184 398.836 471.49 398.856 471.7 398.884C471.91 398.913 472.024 398.941 472.015 398.951H472.005Z" fill="#1A468F"/>
<path d="M464.145 401.795C464.145 401.795 463.094 401.996 461.767 402.005C460.449 402.005 459.389 401.862 459.389 401.814C459.389 401.757 460.458 401.824 461.767 401.814C463.075 401.814 464.135 401.738 464.145 401.795Z" fill="#1A468F"/>
<path d="M467.325 401.805C467.325 401.805 467.239 402.015 467.125 402.234C467.01 402.463 466.953 402.664 466.896 402.654C466.848 402.654 466.81 402.416 466.943 402.158C467.067 401.9 467.287 401.767 467.325 401.805Z" fill="#1A468F"/>
<path d="M468.538 400.421C468.538 400.421 468.471 400.612 468.299 400.774C468.128 400.936 467.965 401.032 467.927 400.993C467.889 400.955 467.994 400.802 468.166 400.64C468.338 400.488 468.5 400.383 468.538 400.421Z" fill="#1A468F"/>
<path d="M470.266 399.8C470.257 399.848 470.037 399.848 469.799 399.925C469.56 399.991 469.388 400.115 469.34 400.087C469.292 400.058 469.436 399.848 469.732 399.753C470.028 399.657 470.276 399.753 470.257 399.8H470.266Z" fill="#1A468F"/>
<path d="M471.49 399.505C471.49 399.505 471.413 399.629 471.279 399.676C471.146 399.724 471.022 399.724 471.002 399.676C470.983 399.629 471.079 399.552 471.213 399.505C471.346 399.457 471.47 399.457 471.49 399.505Z" fill="#1A468F"/>
<path d="M449.037 187.612L423.824 162.091L427.023 128.848L427.596 128.189C427.911 127.827 428.265 127.426 428.685 126.987C429.162 126.481 429.735 126.07 430.356 125.746C431.111 125.355 432.133 124.887 432.763 124.792C433.556 124.677 433.813 123.684 433.183 123.35C432.553 123.016 430.375 123.274 428.198 124.648C426.02 126.023 427.338 122.243 427.797 120.859C428.255 119.475 429.458 115.133 429.143 114.665C428.675 113.978 427.835 114.36 427.415 115.753C426.985 117.166 425.428 121.232 424.702 120.974C423.986 120.726 426.402 113.711 426.402 113.711C426.402 113.711 427.166 112.289 426.335 111.964C424.846 111.382 422.83 119.008 422.649 119.743C422.525 120.248 421.732 120 421.885 119.466C422.047 118.912 424.464 112.518 422.945 111.916C421.78 111.449 421.226 118.177 419.985 119.246C418.743 120.315 420.93 114.169 419.803 113.768C419.383 113.615 419.049 113.567 418.304 117.261C417.941 119.055 417.158 122.043 416.862 124.973L408.935 164.687L433.747 197.509L449.017 187.612H449.037Z" fill="#F8A6B3"/>
<path d="M461.892 114.541C460.851 115.142 464.107 120.783 462.694 119.962C461.28 119.132 459.523 112.613 458.472 113.281C457.097 114.15 460.612 120.01 460.87 120.525C461.127 121.031 460.383 121.413 460.172 120.936C459.867 120.248 456.515 113.1 455.159 113.949C454.404 114.417 455.407 115.677 455.407 115.677C455.407 115.677 459.046 122.148 458.387 122.52C457.718 122.902 455.455 119.17 454.786 117.862C454.118 116.564 453.229 116.345 452.895 117.099C452.666 117.614 454.633 121.671 455.33 122.949C456.028 124.228 458.005 127.703 455.617 126.748C453.229 125.784 451.042 125.927 450.479 126.366C449.915 126.805 450.355 127.741 451.147 127.712C451.787 127.683 452.876 127.97 453.688 128.218C454.356 128.418 454.987 128.733 455.55 129.144C456.037 129.497 456.457 129.831 456.83 130.127L457.517 130.671L471.136 164.219L458.759 192.995L477.936 200.134L486.56 162.081L466.8 125.049C465.989 122.224 464.68 119.428 464.002 117.729C462.608 114.226 462.283 114.341 461.901 114.56L461.892 114.541Z" fill="#F8A6B3"/>
<path d="M504.667 318.445L492.213 254.403L474.621 255.911V255.768L442.494 258.679C442.494 258.679 440.985 332.227 440.46 332.227L449.256 399.276L474.621 398.13L464.813 331.387L468.433 277.825C468.433 277.825 468.719 277.433 469.159 276.841L483.837 331.597L533.814 388.128L550.097 372.389L504.667 318.445Z" fill="#455A64"/>
<path d="M465.501 321.26C465.501 321.26 465.482 321.07 465.492 320.716C465.511 320.306 465.53 319.781 465.549 319.151C465.626 317.729 465.731 315.772 465.855 313.396C466.16 308.481 466.581 301.809 467.039 294.431C467.507 287.741 467.937 281.623 468.262 276.946V276.889L468.3 276.841C470.124 274.675 471.614 272.909 472.702 271.611C473.199 271.038 473.61 270.571 473.925 270.199C474.211 269.884 474.364 269.721 474.383 269.731C474.402 269.74 474.269 269.931 474.011 270.265C473.715 270.647 473.333 271.134 472.865 271.735C471.814 273.052 470.363 274.866 468.586 277.07L468.624 276.965C468.328 281.642 467.946 287.76 467.526 294.46C467.01 301.828 466.542 308.5 466.199 313.415C466.008 315.792 465.855 317.729 465.74 319.161C465.683 319.791 465.626 320.306 465.587 320.716C465.549 321.07 465.521 321.26 465.501 321.26Z" fill="#526B77"/>
<path d="M474.621 255.768C474.755 255.768 474.87 258.507 474.87 261.895C474.87 265.283 474.755 268.022 474.621 268.022C474.488 268.022 474.373 265.283 474.373 261.895C474.373 258.507 474.488 255.768 474.621 255.768Z" fill="#526B77"/>
<path d="M452.962 261.332C452.962 261.332 453.22 261.275 453.755 261.208C454.366 261.132 455.149 261.036 456.095 260.922C458.129 260.683 461.061 260.359 464.575 260.005L464.814 259.977V260.215C464.814 263.222 464.833 266.696 464.843 270.38V270.533L464.699 270.6C464.642 270.628 464.575 270.657 464.518 270.685C462.379 271.735 460.316 272.747 458.387 273.701L458.272 273.759L458.167 273.692C456.238 272.556 454.452 271.497 452.857 270.542L452.752 270.485V270.371C452.8 267.65 452.828 265.388 452.857 263.718C452.876 262.993 452.895 262.392 452.905 261.914C452.924 261.504 452.933 261.294 452.953 261.313C452.972 261.323 452.981 261.561 453 261.991C453.01 262.477 453.029 263.088 453.048 263.833C453.077 265.474 453.105 267.698 453.153 270.371L453.058 270.199C454.672 271.125 456.467 272.165 458.406 273.282H458.186C460.115 272.318 462.169 271.296 464.308 270.237C464.375 270.208 464.432 270.18 464.489 270.151L464.356 270.371C464.365 266.686 464.375 263.212 464.384 260.206L464.623 260.425C461.194 260.731 458.301 260.96 456.257 261.113C455.283 261.179 454.481 261.237 453.86 261.284C453.296 261.323 452.991 261.332 452.972 261.313L452.962 261.332Z" fill="#526B77"/>
<path d="M477.697 258.889C477.697 258.889 477.955 258.831 478.49 258.765C479.101 258.688 479.884 258.593 480.83 258.478C482.864 258.24 485.796 257.915 489.311 257.562L489.549 257.533V257.772C489.549 260.779 489.568 264.253 489.578 267.937V268.089L489.435 268.156C489.377 268.185 489.311 268.214 489.253 268.242C487.114 269.292 485.051 270.304 483.122 271.258L483.007 271.315L482.902 271.249C480.973 270.113 479.187 269.053 477.592 268.099L477.487 268.042V267.927C477.535 265.207 477.564 262.945 477.592 261.275C477.611 260.549 477.631 259.948 477.64 259.471C477.659 259.061 477.669 258.851 477.688 258.87C477.707 258.879 477.717 259.118 477.736 259.547C477.745 260.034 477.764 260.645 477.783 261.389C477.812 263.031 477.841 265.255 477.888 267.927L477.793 267.755C479.407 268.681 481.202 269.722 483.141 270.838H482.921C484.851 269.874 486.904 268.853 489.043 267.794C489.11 267.765 489.167 267.736 489.225 267.708L489.081 267.927C489.091 264.243 489.1 260.769 489.11 257.763L489.349 257.982C485.92 258.287 483.026 258.517 480.983 258.669C480.009 258.736 479.206 258.793 478.586 258.841C478.022 258.879 477.717 258.889 477.697 258.87V258.889Z" fill="#526B77"/>
<path d="M464.823 262.735C464.823 262.869 462.178 263.107 458.902 263.26C455.626 263.413 452.962 263.422 452.952 263.288C452.952 263.155 455.598 262.916 458.873 262.764C462.149 262.611 464.814 262.601 464.814 262.735H464.823Z" fill="#526B77"/>
<path d="M489.339 260.473C489.349 260.607 486.751 260.922 483.532 261.16C480.314 261.408 477.697 261.494 477.697 261.351C477.697 261.218 480.285 260.903 483.504 260.664C486.713 260.416 489.33 260.33 489.339 260.473Z" fill="#526B77"/>
<path d="M462.808 330.814C462.827 330.948 460.258 331.377 457.069 331.769C453.879 332.16 451.291 332.36 451.272 332.227C451.252 332.093 453.822 331.664 457.011 331.272C460.201 330.881 462.789 330.681 462.808 330.814Z" fill="#526B77"/>
<path d="M503.062 319.819C503.11 319.963 500.322 320.936 497.16 322.711C493.99 324.468 491.688 326.329 491.593 326.214C491.554 326.166 492.07 325.632 493.016 324.887C493.951 324.133 495.317 323.179 496.922 322.282C498.526 321.385 500.054 320.736 501.191 320.335C502.327 319.934 503.053 319.762 503.072 319.829L503.062 319.819Z" fill="#526B77"/>
<path d="M449.037 98.0769C449.037 98.0769 448.96 97.9624 448.846 97.7238C448.722 97.4661 448.55 97.1129 448.34 96.6739C448.11 96.2158 447.862 95.624 447.518 94.9655C447.155 94.3069 446.745 93.5434 446.277 92.6939C445.799 91.8445 445.198 90.9473 444.577 89.9356C443.918 88.9526 443.163 87.9027 442.342 86.7956C440.652 84.6099 438.56 82.2334 436.029 79.8473C430.929 75.142 423.881 70.3985 415.076 67.6593C410.692 66.304 405.889 65.4259 400.884 65.3591C395.88 65.2637 390.694 65.8649 385.556 67.2011C380.437 68.5946 375.633 70.6562 371.336 73.2236C367.028 75.7719 363.294 78.912 360.162 82.2716C353.878 89.0289 350.134 96.6453 348.052 103.269C347.049 106.6 346.409 109.692 346.037 112.432C345.874 113.806 345.75 115.085 345.664 116.268C345.626 117.452 345.559 118.53 345.559 119.513C345.578 120.487 345.598 121.346 345.617 122.1C345.645 122.854 345.722 123.484 345.75 123.99C345.789 124.486 345.817 124.868 345.836 125.154C345.855 125.421 345.855 125.555 345.846 125.555C345.846 125.555 345.817 125.421 345.789 125.164C345.76 124.877 345.712 124.495 345.655 123.999C345.607 123.484 345.521 122.854 345.473 122.1C345.445 121.346 345.407 120.477 345.378 119.504C345.359 118.53 345.416 117.442 345.435 116.249C345.502 115.066 345.617 113.768 345.769 112.393C346.123 109.635 346.734 106.524 347.727 103.164C349.781 96.4925 353.524 88.7903 359.837 81.9661C362.989 78.5684 366.742 75.3901 371.087 72.8132C375.414 70.2171 380.265 68.1365 385.432 66.7239C390.618 65.3782 395.851 64.7769 400.903 64.8723C405.955 64.9487 410.797 65.8363 415.219 67.2202C424.101 70.0072 431.178 74.827 436.278 79.5896C438.808 82.0139 440.89 84.4095 442.571 86.6238C443.393 87.75 444.128 88.8094 444.777 89.802C445.389 90.8232 445.981 91.7395 446.449 92.5985C446.898 93.4575 447.299 94.2306 447.652 94.8987C447.986 95.5763 448.225 96.168 448.435 96.6357C448.636 97.0938 448.789 97.447 448.903 97.7142C449.008 97.9528 449.056 98.0864 449.046 98.0864L449.037 98.0769Z" fill="#1A468F"/>
<path d="M438.236 95.4618C438.236 95.4618 438.064 95.2709 437.787 94.8891C437.5 94.5169 437.128 93.9156 436.564 93.2189C435.485 91.7777 433.814 89.7639 431.503 87.5305C429.201 85.2876 426.183 82.8824 422.525 80.735C418.868 78.578 414.522 76.7359 409.766 75.5906C404.991 74.4835 400.283 74.1971 396.042 74.4835C391.802 74.7698 388.03 75.5715 384.964 76.545C381.898 77.509 379.501 78.5589 377.897 79.3701C377.075 79.7519 376.483 80.1146 376.054 80.3246C375.633 80.5441 375.404 80.6491 375.395 80.6395C375.395 80.6204 375.595 80.4868 376.006 80.2387C376.416 80.0001 376.999 79.6087 377.811 79.2079C379.396 78.3393 381.784 77.2322 384.859 76.2205C387.934 75.1993 391.726 74.3498 396.014 74.0349C400.292 73.7104 405.048 73.9967 409.881 75.1134C414.704 76.2778 419.087 78.1485 422.764 80.3532C426.45 82.5484 429.468 85.0013 431.76 87.2919C434.062 89.573 435.695 91.6345 436.727 93.1139C437.271 93.8393 437.615 94.4501 437.882 94.851C438.14 95.2518 438.264 95.4713 438.245 95.4809L438.236 95.4618Z" fill="#1A468F"/>
<path d="M486.56 207.407L482.129 230.475C491.383 243.341 492.223 254.374 492.223 254.374L442.504 258.64C443.431 250.852 448.235 233.978 448.235 233.978L441.015 209.354L426.546 190.532L440.9 177.6C440.623 178.325 454.356 186.266 454.356 186.266L474.078 186.438C474.078 186.438 475.224 186.533 476.914 187.001L486.55 162.033C486.55 162.033 494 172.99 491.507 186.428C489.731 196.001 490.065 198.235 486.55 207.388" fill="#566CC1"/>
<path d="M450.498 189.884C450.498 189.884 450.803 190.16 451.224 190.752C451.644 191.344 452.207 192.251 452.713 193.463C453.21 194.675 453.64 196.202 453.707 197.948C453.783 199.695 453.43 201.642 452.532 203.456C451.625 205.259 450.249 206.729 448.712 207.598C447.184 208.476 445.579 208.791 444.261 208.791C442.934 208.791 441.883 208.495 441.215 208.199C440.881 208.046 440.623 207.922 440.46 207.817C440.298 207.712 440.212 207.655 440.222 207.645C440.25 207.531 441.673 208.514 444.252 208.447C445.513 208.399 447.031 208.065 448.473 207.206C449.915 206.367 451.204 204.964 452.074 203.236C452.933 201.499 453.286 199.647 453.239 197.968C453.201 196.288 452.819 194.789 452.37 193.596C451.453 191.201 450.393 189.95 450.479 189.893L450.498 189.884Z" fill="#1A468F"/>
<path d="M484.85 206.691C484.773 206.653 485.193 205.755 485.614 204.219C486.034 202.692 486.368 200.497 486.187 198.091C485.986 195.677 485.308 193.567 484.649 192.126C483.99 190.676 483.427 189.855 483.503 189.807C483.532 189.788 483.694 189.979 483.961 190.341C484.238 190.695 484.592 191.258 484.964 191.974C485.719 193.405 486.473 195.562 486.683 198.053C486.874 200.535 486.473 202.787 485.957 204.324C485.7 205.097 485.442 205.698 485.222 206.099C485.012 206.5 484.878 206.71 484.85 206.7V206.691Z" fill="#1A468F"/>
<g opacity="0.3">
<path d="M478.184 229.101C477.716 228.576 476.885 228.662 476.198 228.834C475.09 229.11 473.991 229.492 472.855 229.521C470.725 229.569 468.806 228.366 466.848 227.545C464.88 226.724 462.378 226.362 460.822 227.812C459.685 228.872 459.465 230.771 460.325 232.06C460.793 232.766 461.567 233.243 462.397 233.425C467.364 234.828 471.642 233.797 476.503 231.85C477.095 231.611 477.697 231.344 478.098 230.848C478.499 230.351 478.614 229.569 478.184 229.101Z" fill="#171A1F"/>
</g>
<g opacity="0.3">
<path d="M441.702 177.418C439.667 180.062 438.311 183.384 438.636 186.705C438.961 190.026 441.214 193.252 444.442 194.111C446.658 194.703 449.074 194.169 451.242 194.904C455.244 196.249 457.364 201.489 461.576 201.861C465.386 202.205 468.156 198.359 471.709 196.937C473.552 196.202 475.576 196.135 477.525 195.82C481.564 195.152 485.537 193.214 487.896 189.864C490.255 186.514 490.637 181.656 488.183 178.382C485.557 174.889 480.695 174.03 476.321 174.03C469.713 174.03 463.104 175.357 457.02 177.924C455.702 178.478 454.394 179.108 453.343 180.072C452.293 181.036 451.538 182.41 451.605 183.832" fill="#171A1F"/>
</g>
<path d="M498.555 174.784C498.345 173.038 497.103 171.463 495.461 170.833C493.541 170.098 491.297 170.623 489.425 169.793C487.085 168.752 486.101 166.013 485.509 163.522C484.917 161.031 484.354 158.282 482.338 156.708C480.954 155.62 479.101 155.295 477.601 154.369C475.376 152.995 474.163 150.504 472.645 148.375C472.072 147.583 471.384 146.801 470.611 146.171C470.582 146.133 470.553 146.085 470.525 146.047C467.287 142.153 458.663 141.637 454.939 145.064L455.082 144.939C448.129 145.464 443.717 156.679 443.65 163.799C443.602 168.228 445.035 172.857 443.354 176.951C442.38 179.337 440.432 181.255 439.687 183.727C438.674 187.078 440.365 191.038 443.497 192.623C446.62 194.207 450.822 193.224 452.924 190.418C452.809 192.222 454.299 193.806 455.999 194.427C457.699 195.037 459.561 194.904 461.366 194.751C465.224 194.436 469.675 193.768 471.652 190.447C472.979 192.432 475.586 193.253 477.974 193.071C480.362 192.89 482.596 192.67 484.774 191.687C484.678 191.563 484.592 191.43 484.525 191.296C484.879 191.162 485.223 191 485.557 190.8C487.391 189.674 488.527 187.249 487.668 185.283C488.365 186.085 489.052 186.887 489.749 187.688C493.35 185.789 494.983 180.864 493.226 177.19C494.448 177.686 495.575 178.44 496.502 179.375C497.944 178.373 498.765 176.541 498.555 174.804V174.784Z" fill="#1A468F"/>
<path d="M497.676 177.734C497.6 177.753 498.001 176.827 497.227 175.481C496.845 174.842 496.186 174.145 495.212 173.696C494.248 173.238 493.025 173.019 491.669 172.876C490.322 172.713 488.766 172.627 487.228 171.94C486.464 171.597 485.757 171.053 485.203 170.346C484.649 169.64 484.258 168.8 483.971 167.922C483.37 166.166 483.246 164.229 482.654 162.386C482.357 161.47 481.966 160.554 481.364 159.781C480.763 159.008 479.932 158.416 478.958 158.197C477.983 157.958 476.933 157.977 475.901 157.767C474.851 157.586 473.877 157.023 473.17 156.278C471.718 154.78 471.136 152.852 470.506 151.181C469.904 149.483 469.063 147.994 467.927 146.867C466.819 145.732 465.53 144.949 464.269 144.462C461.719 143.489 459.418 143.756 457.966 144.128C456.495 144.52 455.76 144.978 455.731 144.93C455.731 144.92 455.903 144.796 456.256 144.605C456.619 144.415 457.164 144.166 457.909 143.947C459.37 143.508 461.729 143.174 464.393 144.138C465.702 144.615 467.048 145.417 468.213 146.581C469.398 147.726 470.305 149.301 470.926 151.019C471.575 152.709 472.158 154.56 473.504 155.935C474.163 156.622 475.013 157.108 475.987 157.271C476.952 157.462 478.003 157.443 479.072 157.7C480.151 157.939 481.106 158.616 481.746 159.456C482.405 160.296 482.816 161.26 483.112 162.224C483.714 164.152 483.828 166.071 484.392 167.769C484.907 169.468 485.929 170.929 487.381 171.559C488.804 172.227 490.332 172.341 491.688 172.523C493.054 172.694 494.314 172.942 495.308 173.448C496.32 173.945 496.998 174.699 497.361 175.386C497.733 176.083 497.81 176.712 497.781 177.123C497.743 177.533 497.647 177.734 497.647 177.734H497.676Z" fill="#2054AB"/>
<path d="M485.471 191.487C485.471 191.487 485.671 191.401 485.996 191.181C486.321 190.962 486.731 190.504 486.96 189.788C487.19 189.082 487.237 188.099 486.788 187.144C486.33 186.18 485.423 185.312 484.267 184.605C483.121 183.88 481.698 183.327 480.304 182.448C479.607 182.009 478.919 181.465 478.375 180.75C477.83 180.043 477.439 179.184 477.19 178.287C476.675 176.483 476.703 174.527 476.455 172.599C476.216 170.699 475.615 168.59 473.924 167.426C472.282 166.261 470.066 165.908 468.586 164.372C467.134 162.864 466.58 160.878 466.265 159.084C465.959 157.271 465.835 155.543 465.434 153.997C465.042 152.451 464.317 151.124 463.514 150.027C461.862 147.841 459.895 146.676 458.51 146.066C457.097 145.474 456.237 145.359 456.256 145.302C456.256 145.283 456.466 145.312 456.877 145.388C457.278 145.464 457.861 145.617 458.596 145.884C460.029 146.447 462.082 147.593 463.81 149.807C464.651 150.914 465.415 152.289 465.845 153.882C466.284 155.476 466.418 157.213 466.733 158.998C467.048 160.745 467.611 162.644 468.949 164.018C470.276 165.421 472.425 165.765 474.23 167.006C475.137 167.636 475.806 168.552 476.207 169.525C476.617 170.499 476.828 171.52 476.952 172.513C477.19 174.508 477.162 176.416 477.639 178.144C477.869 179.003 478.231 179.795 478.728 180.463C479.234 181.122 479.874 181.647 480.533 182.076C481.87 182.945 483.284 183.517 484.458 184.281C485.633 185.025 486.578 185.961 487.046 187.001C487.505 188.06 487.409 189.091 487.142 189.826C486.874 190.58 486.406 191.038 486.053 191.239C485.69 191.449 485.471 191.468 485.471 191.468V191.487Z" fill="#2054AB"/>
<path d="M462.407 193.577C462.34 193.549 462.999 193.024 463.037 191.716C463.056 191.077 462.913 190.284 462.55 189.444C462.187 188.595 461.605 187.707 461.099 186.629C460.583 185.56 460.325 184.147 460.697 182.763C461.032 181.38 461.777 180.062 462.455 178.679C463.142 177.304 463.744 175.787 463.706 174.135C463.696 172.484 463.104 170.824 462.044 169.43C460.993 168.018 459.695 166.825 458.663 165.431C458.148 164.734 457.718 163.99 457.431 163.198C457.145 162.406 457.001 161.594 456.944 160.802C456.839 159.218 457.059 157.729 457.288 156.364C457.517 154.999 457.746 153.739 457.832 152.575C458.042 150.256 457.498 148.375 456.82 147.278C456.151 146.161 455.483 145.779 455.531 145.732C455.531 145.722 455.703 145.808 455.97 146.028C456.237 146.247 456.619 146.61 456.982 147.173C457.737 148.27 458.358 150.217 458.186 152.594C458.128 153.778 457.909 155.056 457.699 156.421C457.489 157.777 457.288 159.237 457.403 160.764C457.46 161.518 457.603 162.291 457.88 163.026C458.157 163.761 458.568 164.467 459.064 165.126C460.058 166.462 461.356 167.645 462.455 169.115C463.572 170.575 464.202 172.37 464.202 174.107C464.25 175.873 463.582 177.485 462.875 178.86C462.168 180.253 461.442 181.532 461.108 182.84C460.745 184.147 460.955 185.417 461.433 186.467C461.901 187.526 462.464 188.433 462.818 189.32C463.171 190.208 463.295 191.038 463.247 191.706C463.2 192.384 462.989 192.88 462.789 193.167C462.588 193.463 462.426 193.558 462.426 193.558L462.407 193.577Z" fill="#2054AB"/>
<path d="M445.675 192.795C445.675 192.795 445.522 192.67 445.398 192.336C445.264 192.002 445.207 191.449 445.417 190.79C445.608 190.132 446.124 189.416 446.869 188.824C447.595 188.204 448.55 187.679 449.314 186.81C450.078 185.951 450.679 184.777 450.88 183.441C451.119 182.095 450.784 180.654 450.202 179.213C449.658 177.781 448.941 176.14 449.199 174.345C449.409 172.58 450.259 170.957 451.014 169.335C451.778 167.712 452.389 166.051 452.293 164.391C452.217 162.73 451.682 161.165 451.262 159.647C450.345 156.622 450.307 153.634 451.033 151.325C451.739 148.996 453.096 147.469 454.146 146.657C454.671 146.247 455.13 145.989 455.445 145.837C455.76 145.693 455.942 145.627 455.942 145.646C455.97 145.693 455.264 145.961 454.261 146.81C453.277 147.65 451.997 149.168 451.357 151.43C450.698 153.673 450.765 156.555 451.692 159.523C452.112 161.022 452.685 162.606 452.771 164.362C452.886 166.147 452.227 167.913 451.453 169.535C450.689 171.177 449.877 172.752 449.677 174.403C449.438 176.054 450.087 177.59 450.622 179.051C450.89 179.786 451.147 180.53 451.272 181.284C451.405 182.038 451.386 182.792 451.272 183.508C451.033 184.93 450.383 186.152 449.552 187.049C448.722 187.956 447.738 188.461 447.022 189.044C446.277 189.607 445.79 190.246 445.58 190.857C445.35 191.458 445.379 191.983 445.475 192.308C445.57 192.632 445.675 192.785 445.656 192.804L445.675 192.795Z" fill="#2054AB"/>
</g>
<defs>
<clipPath id="clip0_90_3270">
<rect width="618" height="404" fill="white"/>
</clipPath>
</defs>
</svg>
