<svg width="601" height="404" viewBox="0 0 601 404" fill="none" xmlns="http://www.w3.org/2000/svg">
<g clip-path="url(#clip0_89_10304)">
<path d="M388.027 397.631H516.598V371.897H388.027C390.779 371.897 390.779 397.631 388.027 397.631Z" fill="url(#paint0_linear_89_10304)"/>
<path d="M516.598 391.191V379.414C516.598 375.262 514.057 371.897 510.924 371.897H388.571C386.107 371.897 384.108 369.898 384.108 367.434C384.108 366.685 384.715 366.078 385.465 366.078H519.188C522.255 366.078 527.122 370.9 527.122 376.846V393.295C527.122 398.903 522.395 403.448 519.503 403.448H386.165C385.028 403.448 384.105 402.525 384.105 401.388C384.105 399.312 385.789 397.628 387.865 397.628H511.737C514.423 397.628 516.598 394.745 516.598 391.188V391.191Z" fill="#FE6B8F"/>
<path d="M513.033 377.728H392.479C392.174 377.728 391.927 377.481 391.927 377.176C391.927 376.871 392.174 376.624 392.479 376.624H513.033C513.338 376.624 513.585 376.871 513.585 377.176C513.585 377.481 513.338 377.728 513.033 377.728Z" fill="#BF5299"/>
<path d="M513.033 381.548H392.479C392.174 381.548 391.927 381.301 391.927 380.996C391.927 380.691 392.174 380.444 392.479 380.444H513.033C513.338 380.444 513.585 380.691 513.585 380.996C513.585 381.301 513.338 381.548 513.033 381.548Z" fill="#BF5299"/>
<path d="M513.033 385.368H392.479C392.174 385.368 391.927 385.121 391.927 384.816C391.927 384.511 392.174 384.264 392.479 384.264H513.033C513.338 384.264 513.585 384.511 513.585 384.816C513.585 385.121 513.338 385.368 513.033 385.368Z" fill="#BF5299"/>
<path d="M513.033 389.189H392.479C392.174 389.189 391.927 388.941 391.927 388.636C391.927 388.332 392.174 388.084 392.479 388.084H513.033C513.338 388.084 513.585 388.332 513.585 388.636C513.585 388.941 513.338 389.189 513.033 389.189Z" fill="#BF5299"/>
<path d="M513.033 393.009H392.479C392.174 393.009 391.927 392.762 391.927 392.457C391.927 392.152 392.174 391.905 392.479 391.905H513.033C513.338 391.905 513.585 392.152 513.585 392.457C513.585 392.762 513.338 393.009 513.033 393.009Z" fill="#BF5299"/>
<path d="M510.896 338.037H406.247C403.198 338.037 400.727 340.508 400.727 343.557V360.442C400.727 363.491 403.198 365.962 406.247 365.962H510.896C513.945 365.962 516.416 363.491 516.416 360.442V343.557C516.416 340.508 513.945 338.037 510.896 338.037Z" fill="#7D97F4"/>
<path d="M501.355 341.244H491.74C490.642 341.244 489.752 342.135 489.752 343.233V360.763C489.752 361.861 490.642 362.752 491.74 362.752H501.355C502.453 362.752 503.344 361.861 503.344 360.763V343.233C503.344 342.135 502.453 341.244 501.355 341.244Z" fill="#E1E6FF"/>
<path d="M483.66 341.244H486.744C487.302 341.244 487.752 341.695 487.752 342.252V361.744C487.752 362.301 487.302 362.752 486.744 362.752H483.66C483.103 362.752 482.652 362.301 482.652 361.744V342.252C482.652 341.695 483.103 341.244 483.66 341.244Z" fill="#E1E6FF"/>
<path d="M306.939 113.465H407.977C414.104 113.465 419.078 118.439 419.078 124.566V404H295.836V124.566C295.836 118.439 300.809 113.465 306.937 113.465H306.939Z" fill="#7696EA"/>
<path d="M276.556 113.465H377.594C383.721 113.465 388.695 118.439 388.695 124.566V404H265.452V124.566C265.452 118.439 270.426 113.465 276.553 113.465H276.556Z" fill="#D6DEFF"/>
<path d="M240.924 190.659H338.334C344.461 190.659 349.435 195.632 349.435 201.76V404H229.82V201.76C229.82 195.632 234.794 190.659 240.921 190.659H240.924Z" fill="#BF5299"/>
<path d="M210.54 190.659H307.95C314.077 190.659 319.051 195.632 319.051 201.76V404H199.437V201.76C199.437 195.632 204.41 190.659 210.538 190.659H210.54Z" fill="#FE6B8F"/>
<path d="M188.514 253.01H269.379C275.507 253.01 280.48 257.984 280.48 264.111V403.695H177.413V264.111C177.413 257.984 182.387 253.01 188.514 253.01Z" fill="#7696EA"/>
<path d="M158.131 253.01H238.996C245.123 253.01 250.097 257.984 250.097 264.111V403.695H147.03V264.111C147.03 257.984 152.003 253.01 158.131 253.01Z" fill="#D6DEFF"/>
<path d="M127.832 328.812H208.697C214.825 328.812 219.798 333.785 219.798 339.913V403.695H116.731V339.913C116.731 333.785 121.705 328.812 127.832 328.812Z" fill="#BF5299"/>
<path d="M97.4485 328.812H178.314C184.441 328.812 189.415 333.785 189.415 339.913V403.695H86.3447V339.913C86.3447 333.785 91.3185 328.812 97.4457 328.812H97.4485Z" fill="#FE6B8F"/>
<path d="M399.688 404C400.628 404 401.391 403.003 401.391 401.773V135.552C401.391 134.322 400.63 133.325 399.688 133.325C398.746 133.325 397.986 134.322 397.986 135.552V401.773C397.986 403.003 398.746 404 399.688 404Z" fill="#1A468F"/>
<path d="M445.806 404C446.746 404 447.509 403.003 447.509 401.773V135.552C447.509 134.322 446.748 133.325 445.806 133.325C444.864 133.325 444.104 134.322 444.104 135.552V401.773C444.104 403.003 444.864 404 445.806 404Z" fill="#1A468F"/>
<path d="M559.112 404C559.335 404 559.56 403.942 559.777 403.822C560.642 403.341 561.046 402.034 560.678 400.899L473.652 132.99C473.284 131.858 472.284 131.331 471.419 131.811C470.554 132.292 470.15 133.599 470.518 134.734L557.544 402.643C557.819 403.492 558.45 404 559.112 404Z" fill="#1A468F"/>
<path d="M505.359 404C505.582 404 505.807 403.942 506.024 403.822C506.889 403.341 507.293 402.034 506.925 400.899L419.899 132.99C419.531 131.858 418.532 131.331 417.666 131.811C416.801 132.292 416.398 133.599 416.766 134.734L503.791 402.643C504.066 403.492 504.698 404 505.359 404Z" fill="#1A468F"/>
<path d="M397.046 136.313H476.764C478.088 136.313 479.161 134.907 479.161 133.174C479.161 131.441 478.088 130.034 476.764 130.034H397.046C395.723 130.034 394.649 131.441 394.649 133.174C394.649 134.907 395.723 136.313 397.046 136.313Z" fill="#1A468F"/>
<path d="M431.481 177.056H485.396C486.335 177.056 487.098 176.059 487.098 174.828C487.098 173.598 486.338 172.601 485.396 172.601H431.481C430.542 172.601 429.778 173.598 429.778 174.828C429.778 176.059 430.539 177.056 431.481 177.056Z" fill="#7696EA"/>
<path d="M501.937 223.27H448.023V227.724H501.937V223.27Z" fill="#7696EA"/>
<path d="M517.952 273.938H464.037V278.393H517.952V273.938Z" fill="#7696EA"/>
<path d="M480.831 329.061H534.746C535.685 329.061 536.449 328.064 536.449 326.834C536.449 325.604 535.688 324.607 534.746 324.607H480.831C479.892 324.607 479.128 325.604 479.128 326.834C479.128 328.064 479.889 329.061 480.831 329.061Z" fill="#7696EA"/>
<path d="M497.068 379.73H550.983C551.922 379.73 552.686 378.733 552.686 377.503C552.686 376.272 551.925 375.275 550.983 375.275H497.068C496.129 375.275 495.365 376.272 495.365 377.503C495.365 378.733 496.126 379.73 497.068 379.73Z" fill="#7696EA"/>
<path d="M531.184 257.828C531.184 257.828 534.452 259.418 535.054 261.244C535.537 262.711 539.151 262.898 539.508 265.781C539.692 267.27 540.794 268.462 542.277 268.687C545.968 269.253 551.656 271.17 552.568 277.577C553.262 282.468 550.769 284.325 548.151 284.965C546.229 285.437 544.952 287.305 545.342 289.247C545.715 291.109 545.158 293.259 541.933 294.962C534.708 298.774 527.49 285.929 527.49 285.929L526.01 263.499L531.187 257.828H531.184Z" fill="#1A468F"/>
<path d="M497.746 248.133C497.746 248.133 507.963 273.125 524.085 280.464C524.085 280.464 519.127 289.255 516.397 289.876C516.397 289.876 498.694 268.844 496.321 251.173L497.744 248.133H497.746Z" fill="#F8A6B3"/>
<path d="M560.889 398.477L561.356 402.322C561.444 403.052 562.018 403.629 562.748 403.712C563.982 403.852 565.959 403.997 567.893 403.791C568.741 403.701 569.293 402.841 569.035 402.028C568.563 400.545 567.7 398.318 566.456 397.005H562.191C561.403 397.005 560.79 397.694 560.886 398.477H560.889Z" fill="#566CC1"/>
<path d="M527.487 353.444L526.768 357.679C526.768 357.679 529.179 382.095 529.607 391.861C529.673 393.391 529.278 394.904 528.476 396.211L524.285 403.017L534.935 396.73L535.147 395.431L533.403 393.034L535.688 365.682C535.823 364.075 535.49 362.463 534.732 361.041L532.53 356.902L527.487 353.447V353.444Z" fill="#F8A6B3"/>
<path d="M523.582 404H526.982C527.619 404 528.218 403.709 528.605 403.203C529.665 401.827 531.86 399.139 532.911 399.07C534.326 398.977 534.145 404 534.145 404H534.935L535.938 397.757C536.191 396.186 535.408 394.629 533.999 393.893C533.999 393.893 533.675 396.282 531.925 397.34C530.173 398.397 524.796 402.182 524.796 402.182C524.796 402.182 524.137 402.088 523.414 402.217C522.34 402.412 522.492 404 523.582 404Z" fill="#566CC1"/>
<path d="M542.076 355.454C542.076 355.454 556.196 382.24 558.442 388.356C560.686 394.473 561.474 399.573 561.504 400.056C561.551 400.811 562.49 401.536 565.077 401.536C566.412 401.536 567.069 401.001 567.387 400.482C567.662 400.04 567.675 399.488 567.445 399.021C566.629 397.367 564.037 392.086 563.075 389.688C561.93 386.827 559.464 373.864 558.112 369.357C556.761 364.85 555.232 359.959 549.343 355.457C549.343 355.457 545.3 351.497 542.076 355.457V355.454Z" fill="#F8A6B3"/>
<path d="M533.156 311.567C529.514 296.132 538.742 287.401 538.742 287.401C532.92 281.812 522.31 279.269 522.31 279.269C522.31 279.269 512.187 286.671 513.387 292.463C514.09 295.857 520.503 312.797 520.503 312.797C520.503 312.797 526.433 315.604 533.156 311.564V311.567Z" fill="#566CC1"/>
<path d="M541.233 319.207C539.75 314.742 533.156 311.567 533.156 311.567C526.433 315.604 520.503 312.8 520.503 312.8C520.503 312.8 519.174 317.881 520.091 322.604C521.009 327.328 526.765 357.679 526.765 357.679C535.836 359.516 549.788 355.831 549.788 355.831C544.01 345.573 542.711 323.676 541.23 319.21L541.233 319.207Z" fill="#455A64"/>
<path d="M528.929 269.069L531.89 282.369C532.173 283.542 531.104 283.35 529.921 283.125C527.982 282.759 525.48 282.007 524.645 280.496C524.56 280.343 524.518 280.17 524.494 279.994L523.222 270.769C523.121 270.038 523.516 269.327 524.192 269.027L526.647 267.94C527.592 267.52 528.687 268.061 528.929 269.066V269.069Z" fill="#E399A5"/>
<path d="M538.742 287.401C538.742 287.401 559.411 302.188 541.387 317.727C541.387 317.727 540.7 318.504 539.346 318.908C538.662 319.111 536.644 320.641 535.619 321.437C535.29 321.693 534.815 321.605 534.592 321.253C534.419 320.976 534.397 320.63 534.537 320.336L537.097 314.926C537.808 314.264 538.896 314.214 539.659 314.816C540.148 315.198 540.862 315.038 541.137 314.481C542.529 311.644 545.16 303.295 534.392 293.863C533.988 293.509 533.884 292.921 534.134 292.446C534.889 290.993 536.622 288.107 538.739 287.404L538.742 287.401Z" fill="#F8A6B3"/>
<path d="M523.258 256.943C523.258 256.943 520.105 259.077 518.751 264.512C517.397 269.948 519.597 271.898 521.854 271.777C524.112 271.656 527.383 270.958 530.217 267.061C533.052 263.161 527.388 254.334 523.258 256.943Z" fill="#F8A6B3"/>
<path d="M527.358 264.869C527.358 264.869 528.514 257.081 522.047 258.273L520.739 259.635C520.739 259.635 517.576 256.07 521.077 253.376C524.579 250.681 529.44 251.371 532.129 256.276C534.818 261.181 535.792 264.628 533.54 267.676C531.286 270.725 529.591 268.11 529.591 268.11C529.591 268.11 530.624 265.474 529.767 264.339C528.91 263.208 527.803 264.998 527.803 264.998L527.358 264.869Z" fill="#1A468F"/>
<path d="M528.243 265.537C528.243 265.537 528.814 261.53 530.86 262.675C532.906 263.82 530.121 266.418 529.006 267.303L528.243 265.537Z" fill="url(#paint1_linear_89_10304)"/>
<path d="M497.024 252.777C496.898 253.233 498.565 253.859 499.466 251.981C499.466 251.096 499.867 247.293 499.312 246.592C496.359 242.863 490.735 238.257 490.735 238.257C489.848 239.199 490.639 240.064 490.639 240.064L493.382 242.723C492.866 243.741 492.221 244.609 491.949 245.831C491.743 246.757 491.924 247.729 492.418 248.545C492.913 249.363 493.586 250.429 494.215 251.258C495.406 252.827 497.024 252.78 497.024 252.78V252.777Z" fill="#F8A6B3"/>
<path d="M368.871 100.552C368.508 100.552 368.146 100.458 367.794 100.274L349.198 90.4971C347.861 89.794 346.356 89.4233 344.845 89.4233C343.335 89.4233 341.83 89.794 340.492 90.4971L321.896 100.274C321.545 100.458 321.182 100.552 320.82 100.552C320.152 100.552 319.482 100.233 319.032 99.6976C318.727 99.3351 318.392 98.7171 318.543 97.8383L322.094 77.1331C322.616 74.0983 321.608 71.0003 319.403 68.8526L304.358 54.1895C303.429 53.286 303.641 52.2341 303.773 51.8221C303.907 51.4129 304.355 50.4379 305.638 50.2512L326.428 47.2301C329.476 46.788 332.11 44.8737 333.473 42.1108L342.769 23.2732C343.343 22.1114 344.409 21.9851 344.84 21.9851C345.271 21.9851 346.337 22.1114 346.911 23.2732L356.207 42.1108C357.57 44.8737 360.203 46.7852 363.252 47.2301L384.042 50.2512C385.325 50.4379 385.772 51.4129 385.907 51.8221C386.042 52.2313 386.25 53.286 385.322 54.1895L370.277 68.8526C368.072 71.0031 367.067 74.0983 367.586 77.1331L371.137 97.8383C371.288 98.7171 370.956 99.3351 370.648 99.6976C370.198 100.233 369.53 100.552 368.86 100.552H368.871Z" fill="#FE6B8F"/>
<path d="M325.126 72.0988C324.904 72.0988 324.695 71.956 324.624 71.7336C324.008 69.8358 322.926 68.0973 321.498 66.7049L315.775 61.1269C315.566 60.9237 315.56 60.5886 315.766 60.3799C315.97 60.1712 316.305 60.1657 316.513 60.3717L322.237 65.9496C323.789 67.4601 324.961 69.3497 325.629 71.4067C325.719 71.6841 325.568 71.9835 325.288 72.0714C325.233 72.0878 325.178 72.0961 325.123 72.0961L325.126 72.0988Z" fill="#BF5299"/>
<path d="M336.364 89.2144C336.175 89.2144 335.991 89.1128 335.897 88.9315C335.763 88.6734 335.862 88.3548 336.12 88.2175L338.608 86.9074C340.525 85.8995 342.681 85.3667 344.848 85.3667C347.015 85.3667 349.171 85.8995 351.088 86.9074C351.346 87.042 351.445 87.3633 351.31 87.6215C351.176 87.8797 350.854 87.9785 350.596 87.844C348.83 86.9157 346.842 86.4241 344.848 86.4241C342.854 86.4241 340.866 86.9157 339.1 87.8412L336.612 89.1513C336.532 89.1925 336.45 89.2117 336.367 89.2117L336.364 89.2144Z" fill="#BF5299"/>
<path d="M362.241 93.4166C361.827 93.4166 361.409 93.3561 361 93.2298C360.72 93.1447 360.563 92.8481 360.648 92.5707C360.733 92.2905 361.027 92.134 361.307 92.2191C362.379 92.546 363.529 92.2905 364.389 91.5325C365.251 90.7745 365.633 89.6842 365.438 88.5472L363.598 77.8169C362.851 73.4666 364.293 69.0312 367.454 65.9497L375.251 58.3504C376.157 57.466 376.465 56.2192 376.075 55.0162C375.685 53.8133 374.702 52.9839 373.449 52.8026L362.675 51.2372C358.308 50.6027 354.532 47.8618 352.579 43.9015L347.762 34.138C347.202 33.0037 346.112 32.3254 344.845 32.3254C343.579 32.3254 342.489 33.0037 341.929 34.138L337.112 43.9015C335.159 47.8591 331.385 50.6027 327.016 51.2372L316.242 52.8026C315.599 52.896 315.014 53.1652 314.547 53.5826C314.33 53.7776 313.995 53.7584 313.8 53.5414C313.605 53.3244 313.624 52.9894 313.841 52.7944C314.462 52.2396 315.239 51.8826 316.088 51.759L326.862 50.1935C330.885 49.6085 334.362 47.0846 336.161 43.4374L340.978 33.6739C341.709 32.1908 343.189 31.2708 344.843 31.2708C346.496 31.2708 347.976 32.1908 348.707 33.6739L353.524 43.4374C355.323 47.0846 358.8 49.6085 362.823 50.1935L373.598 51.759C375.232 51.9979 376.567 53.1212 377.077 54.6922C377.588 56.2631 377.171 57.9576 375.987 59.1111L368.193 66.7105C365.281 69.5475 363.952 73.6342 364.642 77.6412L366.482 88.3714C366.737 89.8572 366.215 91.3375 365.089 92.329C364.279 93.0431 363.268 93.4193 362.241 93.4193V93.4166Z" fill="#BF5299"/>
<path d="M150.828 79.5168C150.669 79.5168 150.512 79.4481 150.402 79.3163C150.207 79.0801 150.24 78.734 150.476 78.5391C151.048 78.0667 151.627 77.6025 152.215 77.1494C152.456 76.9626 152.802 77.0065 152.989 77.2482C153.176 77.4899 153.132 77.836 152.89 78.0227C152.311 78.4704 151.742 78.9263 151.179 79.3904C151.075 79.4756 150.951 79.5168 150.828 79.5168Z" fill="#7D97F4"/>
<path d="M260.195 134.992C260.195 134.992 260.173 134.992 260.162 134.992C259.858 134.975 259.627 134.711 259.643 134.407C259.72 133.113 259.759 131.8 259.759 130.507V129.966C259.753 129.661 259.998 129.411 260.303 129.408H260.308C260.61 129.408 260.857 129.653 260.86 129.955V130.507C260.86 131.822 260.822 133.157 260.745 134.473C260.728 134.766 260.484 134.992 260.193 134.992H260.195ZM259.849 123.245C259.572 123.245 259.336 123.039 259.3 122.759C259.127 121.295 258.902 119.818 258.627 118.365C258.572 118.065 258.767 117.777 259.069 117.719C259.371 117.662 259.657 117.86 259.715 118.162C259.992 119.636 260.22 121.141 260.399 122.63C260.434 122.932 260.217 123.207 259.915 123.242C259.893 123.242 259.871 123.245 259.849 123.245ZM257.443 111.743C257.207 111.743 256.988 111.589 256.916 111.351C256.642 110.441 256.342 109.521 256.026 108.621C255.853 108.123 255.672 107.629 255.488 107.14C255.381 106.855 255.526 106.536 255.809 106.429C256.095 106.322 256.414 106.465 256.521 106.75C256.707 107.247 256.891 107.75 257.067 108.255C257.386 109.17 257.691 110.104 257.971 111.029C258.059 111.32 257.894 111.631 257.603 111.719C257.551 111.735 257.496 111.743 257.443 111.743ZM253.079 100.834C252.876 100.834 252.684 100.725 252.585 100.532C251.92 99.2141 251.201 97.9041 250.448 96.6352C250.292 96.3716 250.38 96.0338 250.643 95.8772C250.904 95.7207 251.245 95.8086 251.401 96.0695C252.165 97.3603 252.895 98.6923 253.574 100.03C253.711 100.302 253.601 100.634 253.329 100.771C253.25 100.813 253.165 100.832 253.082 100.832L253.079 100.834ZM246.878 90.854C246.711 90.854 246.546 90.7771 246.436 90.6343C245.549 89.4561 244.612 88.2916 243.648 87.1766C243.448 86.9459 243.475 86.5971 243.706 86.3966C243.937 86.1961 244.285 86.2236 244.486 86.4543C245.466 87.5885 246.419 88.7722 247.32 89.9697C247.504 90.2141 247.455 90.5602 247.21 90.7442C247.111 90.8183 246.993 90.854 246.878 90.854ZM239.018 82.1314C238.883 82.1314 238.749 82.082 238.642 81.9831C237.562 80.9807 236.436 80.0002 235.288 79.0692C235.052 78.8769 235.016 78.5281 235.209 78.2919C235.401 78.0557 235.75 78.02 235.986 78.2123C237.15 79.1598 238.298 80.1568 239.394 81.1757C239.617 81.3844 239.63 81.7332 239.422 81.9557C239.312 82.0737 239.166 82.1314 239.018 82.1314ZM229.746 74.9166C229.644 74.9166 229.54 74.8891 229.447 74.8287C228.208 74.0295 226.925 73.2605 225.635 72.5437C225.368 72.3954 225.272 72.0603 225.42 71.7939C225.569 71.5275 225.904 71.4314 226.17 71.5797C227.483 72.3075 228.785 73.0902 230.045 73.9032C230.301 74.068 230.375 74.4113 230.21 74.6667C230.106 74.8315 229.927 74.9193 229.746 74.9193V74.9166ZM158.548 74.0103C158.361 74.0103 158.18 73.9169 158.076 73.7466C157.916 73.4857 157.999 73.1452 158.26 72.9886C159.537 72.2086 160.86 71.4616 162.192 70.7668C162.462 70.6267 162.797 70.7311 162.937 71.0002C163.077 71.2694 162.972 71.6044 162.703 71.7445C161.393 72.4284 160.091 73.1644 158.834 73.9306C158.743 73.9856 158.644 74.0103 158.545 74.0103H158.548ZM219.356 69.4293C219.285 69.4293 219.213 69.4155 219.142 69.3853C217.783 68.8141 216.385 68.2785 214.989 67.7979C214.701 67.699 214.547 67.3832 214.646 67.0948C214.745 66.8064 215.058 66.6526 215.349 66.7515C216.766 67.2404 218.186 67.7814 219.57 68.3637C219.851 68.4818 219.982 68.8058 219.864 69.086C219.776 69.2974 219.57 69.4238 219.354 69.4238L219.356 69.4293ZM169.078 68.7976C168.858 68.7976 168.649 68.663 168.564 68.446C168.454 68.1632 168.594 67.8418 168.877 67.7292C169.635 67.4326 170.412 67.1442 171.19 66.8751C171.838 66.6471 172.489 66.4329 173.14 66.2269C173.431 66.1363 173.741 66.2956 173.832 66.5867C173.922 66.8778 173.763 67.1882 173.472 67.2788C172.832 67.4821 172.192 67.6935 171.552 67.9187C170.789 68.1851 170.022 68.468 169.278 68.7591C169.212 68.7839 169.144 68.7976 169.078 68.7976ZM208.17 65.837C208.129 65.837 208.088 65.8315 208.047 65.8232C206.607 65.4964 205.138 65.2135 203.68 64.9856C203.378 64.9389 203.172 64.656 203.221 64.3539C203.268 64.0518 203.551 63.8458 203.853 63.8952C205.336 64.1287 206.83 64.4143 208.291 64.7466C208.588 64.8153 208.774 65.1092 208.708 65.4085C208.651 65.6639 208.423 65.8397 208.17 65.8397V65.837ZM180.354 65.4854C180.096 65.4854 179.866 65.3042 179.813 65.0405C179.753 64.7411 179.948 64.45 180.247 64.3896C181.717 64.093 183.216 63.8458 184.705 63.6481C185.007 63.6096 185.284 63.8211 185.325 64.1232C185.367 64.4253 185.152 64.7027 184.85 64.7439C183.386 64.9361 181.912 65.1806 180.464 65.4717C180.429 65.4799 180.39 65.4827 180.354 65.4827V65.4854ZM196.523 64.255C196.523 64.255 196.506 64.255 196.495 64.255C195.471 64.2083 194.424 64.1699 193.403 64.1836C192.952 64.1836 192.499 64.1891 192.049 64.1973C191.76 64.2138 191.491 63.9612 191.486 63.6563C191.48 63.3515 191.722 63.0988 192.027 63.0933C192.499 63.0823 192.971 63.0768 193.441 63.0796C194.474 63.0796 195.52 63.1043 196.55 63.151C196.855 63.1647 197.091 63.4229 197.077 63.7277C197.064 64.0243 196.819 64.255 196.525 64.255H196.523Z" fill="#7D97F4"/>
<path d="M258.951 144.428C258.916 144.428 258.877 144.426 258.839 144.417C258.539 144.357 258.347 144.063 258.408 143.767C258.553 143.052 258.688 142.336 258.811 141.613C258.863 141.314 259.146 141.111 259.448 141.163C259.751 141.215 259.951 141.501 259.899 141.8C259.773 142.533 259.635 143.261 259.487 143.989C259.435 144.25 259.204 144.431 258.946 144.431L258.951 144.428Z" fill="#7D97F4"/>
<path d="M229.702 187.239C229.521 187.239 229.342 187.152 229.238 186.987C229.073 186.731 229.147 186.388 229.403 186.223C230.018 185.828 230.625 185.421 231.224 185.007C231.473 184.834 231.817 184.897 231.993 185.147C232.166 185.397 232.102 185.743 231.852 185.916C231.243 186.336 230.622 186.753 230.001 187.152C229.908 187.212 229.806 187.239 229.702 187.239Z" fill="#7D97F4"/>
<path d="M189.86 197.835C189.86 197.835 189.841 197.835 189.83 197.835C188.357 197.755 186.866 197.626 185.4 197.448C185.097 197.412 184.881 197.135 184.916 196.833C184.952 196.531 185.227 196.314 185.531 196.352C186.976 196.525 188.443 196.654 189.89 196.734C190.195 196.75 190.428 197.011 190.412 197.316C190.395 197.61 190.151 197.838 189.86 197.838V197.835ZM197.025 197.835C196.734 197.835 196.49 197.607 196.473 197.313C196.457 197.008 196.69 196.747 196.995 196.731C198.448 196.651 199.914 196.522 201.351 196.349C201.65 196.316 201.928 196.528 201.966 196.83C202.002 197.132 201.787 197.407 201.485 197.445C200.021 197.624 198.533 197.753 197.055 197.832C197.044 197.832 197.036 197.832 197.025 197.832V197.835ZM178.407 196.209C178.366 196.209 178.325 196.204 178.281 196.195C176.845 195.863 175.4 195.476 173.986 195.05C173.694 194.962 173.527 194.655 173.617 194.361C173.705 194.07 174.016 193.902 174.307 193.993C175.699 194.413 177.119 194.792 178.534 195.119C178.83 195.188 179.017 195.484 178.948 195.781C178.888 196.036 178.663 196.209 178.41 196.209H178.407ZM208.475 196.206C208.225 196.206 207.997 196.033 207.937 195.778C207.868 195.481 208.052 195.185 208.349 195.116C209.76 194.789 211.18 194.41 212.575 193.987C212.869 193.899 213.177 194.064 213.265 194.355C213.353 194.646 213.188 194.957 212.897 195.045C211.48 195.473 210.035 195.858 208.601 196.193C208.56 196.204 208.516 196.206 208.475 196.206ZM167.408 192.639C167.336 192.639 167.262 192.625 167.194 192.595C165.834 192.021 164.477 191.392 163.159 190.73C162.887 190.593 162.777 190.26 162.915 189.989C163.052 189.717 163.384 189.607 163.656 189.744C164.953 190.395 166.287 191.013 167.625 191.579C167.905 191.697 168.037 192.021 167.919 192.304C167.831 192.515 167.625 192.642 167.411 192.642L167.408 192.639ZM219.474 192.636C219.26 192.636 219.054 192.51 218.966 192.298C218.848 192.018 218.98 191.694 219.26 191.576C220.598 191.013 221.935 190.395 223.231 189.744C223.506 189.607 223.836 189.717 223.973 189.991C224.11 190.263 224 190.596 223.726 190.733C222.408 191.395 221.048 192.021 219.689 192.595C219.62 192.625 219.546 192.639 219.474 192.639V192.636ZM157.186 187.234C157.084 187.234 156.98 187.206 156.886 187.146C155.648 186.347 154.417 185.495 153.231 184.617C152.986 184.435 152.934 184.089 153.116 183.845C153.297 183.6 153.643 183.548 153.887 183.729C155.054 184.595 156.263 185.432 157.482 186.218C157.738 186.383 157.812 186.726 157.647 186.981C157.543 187.146 157.364 187.234 157.183 187.234H157.186ZM148.046 180.159C147.911 180.159 147.776 180.11 147.672 180.014C146.587 179.011 145.522 177.962 144.508 176.894C144.3 176.671 144.308 176.322 144.527 176.114C144.747 175.905 145.099 175.913 145.307 176.133C146.304 177.185 147.351 178.217 148.419 179.203C148.644 179.409 148.658 179.761 148.449 179.983C148.34 180.101 148.191 180.162 148.043 180.162L148.046 180.159ZM140.268 171.615C140.1 171.615 139.938 171.541 139.828 171.398C138.936 170.225 138.068 169.009 137.252 167.778C137.085 167.523 137.153 167.182 137.409 167.012C137.664 166.842 138.005 166.913 138.175 167.169C138.977 168.38 139.828 169.577 140.707 170.728C140.891 170.97 140.845 171.318 140.603 171.502C140.504 171.579 140.386 171.615 140.268 171.615ZM134.086 161.849C133.885 161.849 133.693 161.739 133.594 161.549C132.918 160.242 132.276 158.891 131.683 157.537C131.562 157.257 131.688 156.933 131.968 156.809C132.248 156.688 132.572 156.815 132.696 157.095C133.278 158.427 133.91 159.756 134.574 161.041C134.715 161.313 134.607 161.646 134.338 161.786C134.256 161.827 134.171 161.846 134.086 161.846V161.849ZM129.675 151.16C129.441 151.16 129.222 151.009 129.148 150.773C128.703 149.361 128.299 147.922 127.947 146.491C127.876 146.194 128.057 145.895 128.351 145.824C128.648 145.752 128.947 145.931 129.018 146.227C129.365 147.633 129.76 149.051 130.199 150.437C130.29 150.729 130.131 151.039 129.84 151.13C129.785 151.146 129.727 151.154 129.672 151.154L129.675 151.16ZM127.151 139.875C126.879 139.875 126.64 139.674 126.604 139.397C126.409 137.936 126.258 136.447 126.159 134.972C126.14 134.668 126.368 134.404 126.673 134.385C126.981 134.357 127.242 134.593 127.261 134.898C127.357 136.348 127.505 137.812 127.697 139.249C127.739 139.551 127.524 139.828 127.222 139.869C127.198 139.872 127.173 139.875 127.148 139.875H127.151ZM126.621 128.323C126.621 128.323 126.604 128.323 126.599 128.323C126.294 128.31 126.058 128.054 126.069 127.749C126.129 126.275 126.242 124.78 126.398 123.314C126.431 123.012 126.703 122.792 127.008 122.825C127.31 122.858 127.53 123.13 127.497 123.435C127.34 124.877 127.231 126.346 127.173 127.796C127.162 128.093 126.917 128.326 126.621 128.326V128.323Z" fill="#7D97F4"/>
<path d="M128.107 116.813C128.068 116.813 128.027 116.81 127.989 116.799C127.689 116.733 127.502 116.44 127.568 116.14C127.728 115.415 127.901 114.687 128.082 113.973C128.156 113.677 128.455 113.501 128.755 113.575C129.051 113.649 129.23 113.951 129.153 114.248C128.975 114.948 128.804 115.665 128.65 116.379C128.593 116.637 128.365 116.813 128.112 116.813H128.107Z" fill="#7D97F4"/>
<path d="M145.629 111.738C145.47 112.04 145.522 112.411 145.758 112.661L152.47 119.755C151.339 124.174 150.902 128.804 151.251 133.484L143.402 139.284C143.127 139.488 143.012 139.845 143.113 140.171L146.626 151.347C146.727 151.673 147.027 151.899 147.37 151.91L157.125 152.179C159.517 156.219 162.522 159.767 165.977 162.741L164.53 172.401C164.48 172.738 164.648 173.073 164.953 173.23L175.34 178.649C175.644 178.808 176.015 178.756 176.262 178.52L183.356 171.807C187.775 172.939 192.406 173.376 197.086 173.027L202.886 180.876C203.089 181.151 203.446 181.266 203.773 181.164L214.948 177.652C215.275 177.55 215.5 177.251 215.509 176.907L215.778 167.152C219.818 164.76 223.366 161.756 226.34 158.301L236 159.748C236.337 159.797 236.672 159.63 236.829 159.325L242.248 148.941C242.407 148.636 242.355 148.268 242.119 148.018L235.406 140.924C236.538 136.505 236.975 131.875 236.626 127.195L244.475 121.394C244.75 121.191 244.865 120.834 244.763 120.51L241.251 109.335C241.149 109.008 240.85 108.783 240.506 108.774L230.751 108.505C228.359 104.465 225.354 100.917 221.897 97.9399L223.344 88.2807C223.396 87.9429 223.226 87.6079 222.921 87.4513L212.537 82.0327C212.232 81.8734 211.864 81.9255 211.614 82.1617L204.52 88.874C200.101 87.7424 195.471 87.3058 190.791 87.6546L184.99 79.8053C184.787 79.5307 184.43 79.4153 184.106 79.5169L172.931 83.0296C172.604 83.1312 172.379 83.4306 172.368 83.7739L172.099 93.5291C168.059 95.9213 164.51 98.9258 161.536 102.381L151.877 100.933C151.539 100.884 151.204 101.052 151.048 101.356L145.629 111.743V111.738Z" fill="#91B3FA"/>
<path d="M193.96 141.572C193.087 141.572 192.208 141.47 191.34 141.262C188.421 140.567 185.949 138.779 184.378 136.222C182.804 133.668 182.321 130.652 183.016 127.736C183.711 124.816 185.499 122.344 188.055 120.771C190.61 119.197 193.625 118.714 196.542 119.409C199.461 120.103 201.933 121.891 203.507 124.448C205.08 127.002 205.564 130.018 204.869 132.935C204.174 135.854 202.386 138.326 199.829 139.899C198.036 141.004 196.017 141.569 193.963 141.569L193.96 141.572ZM193.922 120.762C192.172 120.762 190.45 121.246 188.921 122.188C186.743 123.528 185.218 125.637 184.625 128.123C184.032 130.608 184.444 133.179 185.787 135.357C187.127 137.535 189.236 139.059 191.722 139.652C194.21 140.246 196.778 139.834 198.956 138.493C203.452 135.728 204.858 129.817 202.09 125.322C200.749 123.144 198.64 121.619 196.155 121.026C195.413 120.85 194.663 120.762 193.919 120.762H193.922Z" fill="#E1E6FF"/>
<path d="M194.185 159.534C181.813 159.534 170.311 151.572 166.411 139.158C165.787 137.178 165.378 135.134 165.189 133.086L166.839 132.932C167.018 134.863 167.405 136.791 167.993 138.661C171.978 151.341 184.372 159.097 197.108 157.718C198.761 157.54 200.42 157.207 202.068 156.713C202.177 156.68 202.287 156.647 202.394 156.611C214.1 152.934 221.608 142.086 221.608 130.419C221.608 127.7 221.202 124.937 220.345 122.21C215.811 107.777 200.376 99.7222 185.943 104.259C181.198 105.751 176.952 108.494 173.67 112.194L172.431 111.092C175.913 107.17 180.415 104.259 185.449 102.68C200.755 97.8711 217.118 106.41 221.927 121.715C222.836 124.607 223.267 127.538 223.267 130.422C223.267 142.794 215.305 154.296 202.891 158.196C200 159.105 197.069 159.536 194.188 159.536L194.185 159.534Z" fill="#E1E6FF"/>
<path d="M74.3127 62.3215C74.1534 62.3215 73.9969 62.2528 73.887 62.121C73.692 61.8848 73.725 61.5387 73.9611 61.3437C74.5351 60.8686 75.1339 60.4045 75.7353 59.9705C75.9825 59.792 76.3286 59.8469 76.5071 60.0941C76.6856 60.3413 76.6307 60.6873 76.3835 60.8659C75.8012 61.2888 75.2217 61.7365 74.6642 62.1951C74.5599 62.2803 74.4363 62.3215 74.3127 62.3215Z" fill="#7D97F4"/>
<path d="M131.029 86.2511C130.743 86.2511 130.502 86.0314 130.48 85.743C130.353 84.2242 130.125 82.6972 129.796 81.2087C129.73 80.9121 129.919 80.6154 130.216 80.5495C130.513 80.4836 130.809 80.6731 130.875 80.9697C131.216 82.5077 131.452 84.0842 131.581 85.6524C131.606 85.9572 131.38 86.2236 131.076 86.2483C131.059 86.2483 131.045 86.2483 131.029 86.2483V86.2511ZM127.917 74.4745C127.709 74.4745 127.508 74.3564 127.415 74.1531C126.775 72.7662 126.033 71.4122 125.215 70.1296C125.05 69.8715 125.127 69.5309 125.382 69.3661C125.64 69.2041 125.981 69.2783 126.146 69.5337C126.992 70.8574 127.755 72.2554 128.417 73.6862C128.546 73.9636 128.425 74.2905 128.148 74.4195C128.074 74.4552 127.994 74.4717 127.917 74.4717V74.4745ZM120.939 64.494C120.799 64.494 120.656 64.4391 120.549 64.332C119.469 63.2581 118.305 62.2447 117.088 61.3219C116.844 61.1379 116.797 60.7918 116.981 60.5474C117.165 60.3057 117.511 60.2563 117.756 60.4403C119.011 61.3933 120.214 62.4369 121.329 63.5465C121.546 63.7607 121.546 64.1123 121.329 64.3265C121.222 64.4336 121.079 64.4885 120.936 64.4885L120.939 64.494ZM110.933 57.5483C110.857 57.5483 110.777 57.5318 110.703 57.4989C109.316 56.8617 107.874 56.3124 106.418 55.8648C106.127 55.7769 105.962 55.4665 106.053 55.1754C106.144 54.8843 106.451 54.7223 106.742 54.8102C108.247 55.2716 109.736 55.8401 111.167 56.4965C111.444 56.6228 111.565 56.9524 111.439 57.2297C111.345 57.433 111.145 57.5511 110.936 57.5511L110.933 57.5483ZM82.6372 57.2297C82.4229 57.2297 82.2197 57.1062 82.1291 56.8974C82.0082 56.6173 82.1373 56.2932 82.4174 56.1724C83.1974 55.8373 83.9966 55.5242 84.7958 55.2441C85.4797 55.0051 86.18 54.7827 86.8776 54.5849C87.1715 54.5026 87.4763 54.6728 87.5587 54.9667C87.6411 55.2606 87.4708 55.5654 87.177 55.6478C86.5014 55.8401 85.823 56.0543 85.1584 56.285C84.3839 56.5541 83.6094 56.859 82.8541 57.1831C82.7827 57.2133 82.7086 57.2297 82.6344 57.2297H82.6372ZM99.1486 54.4696C99.1349 54.4696 99.1184 54.4696 99.1046 54.4696C97.5831 54.3488 96.0342 54.3323 94.5181 54.4174C94.2188 54.4312 93.9524 54.2005 93.9359 53.8956C93.9194 53.5907 94.1529 53.3298 94.4577 53.3134C96.0232 53.2255 97.6216 53.242 99.1925 53.3655C99.4974 53.3903 99.7226 53.6567 99.7006 53.9588C99.6786 54.2471 99.437 54.4669 99.1513 54.4669L99.1486 54.4696Z" fill="#7D97F4"/>
<path d="M130.441 96.0173C130.405 96.0173 130.367 96.0146 130.329 96.0063C130.029 95.9459 129.837 95.652 129.897 95.3554C130.043 94.6523 130.166 93.93 130.265 93.2132C130.307 92.9111 130.589 92.6996 130.889 92.7436C131.191 92.7848 131.402 93.0649 131.358 93.367C131.254 94.1085 131.128 94.8501 130.977 95.5779C130.922 95.8388 130.694 96.02 130.436 96.02L130.441 96.0173Z" fill="#7D97F4"/>
<path d="M114.355 118.802C114.169 118.802 113.985 118.705 113.88 118.535C113.724 118.274 113.806 117.934 114.07 117.777C114.691 117.404 115.306 117.008 115.896 116.599C116.146 116.426 116.492 116.486 116.665 116.739C116.838 116.989 116.775 117.335 116.525 117.508C115.915 117.931 115.281 118.34 114.641 118.725C114.553 118.78 114.454 118.804 114.358 118.804L114.355 118.802Z" fill="#7D97F4"/>
<path d="M95.7622 123.783H95.7512C94.205 123.753 92.6423 123.619 91.1098 123.382C90.8077 123.336 90.6017 123.053 90.6484 122.754C90.6951 122.451 90.9752 122.245 91.2773 122.292C92.7604 122.52 94.2737 122.649 95.7732 122.679C96.078 122.685 96.3197 122.938 96.3142 123.242C96.3087 123.544 96.0616 123.783 95.7622 123.783ZM103.175 123.124C102.917 123.124 102.686 122.943 102.634 122.679C102.573 122.38 102.768 122.089 103.068 122.031C104.534 121.737 106.001 121.345 107.426 120.858C107.715 120.76 108.028 120.916 108.127 121.205C108.225 121.493 108.069 121.806 107.781 121.905C106.311 122.405 104.795 122.811 103.282 123.113C103.246 123.122 103.21 123.124 103.175 123.124ZM84.0021 121.479C83.9361 121.479 83.8702 121.468 83.8043 121.443C82.3597 120.889 80.9371 120.232 79.5748 119.491C79.3057 119.345 79.2068 119.01 79.3524 118.741C79.4979 118.475 79.833 118.373 80.1022 118.519C81.4204 119.235 82.7991 119.873 84.1971 120.411C84.4827 120.521 84.6228 120.839 84.5156 121.125C84.4305 121.345 84.2218 121.479 83.9993 121.479H84.0021ZM73.7195 115.324C73.5904 115.324 73.4641 115.281 73.3597 115.19C72.187 114.176 71.072 113.078 70.0448 111.919C69.8416 111.691 69.8635 111.342 70.0915 111.139C70.3194 110.936 70.6682 110.958 70.8715 111.186C71.8657 112.306 72.945 113.372 74.082 114.352C74.3127 114.553 74.3374 114.902 74.1397 115.132C74.0298 115.259 73.876 115.324 73.7222 115.324H73.7195ZM66.1504 106.042C65.9554 106.042 65.7686 105.94 65.667 105.759C64.9145 104.41 64.2416 102.996 63.6704 101.554C63.5578 101.271 63.6978 100.95 63.9807 100.837C64.2636 100.725 64.5849 100.865 64.6975 101.148C65.2523 102.545 65.9032 103.916 66.6338 105.223C66.7821 105.49 66.6859 105.825 66.4223 105.976C66.3371 106.022 66.2438 106.047 66.1531 106.047L66.1504 106.042ZM62.1846 94.7319C61.9182 94.7319 61.6847 94.5396 61.6408 94.2705C61.3854 92.7435 61.2316 91.1835 61.1821 89.6345C61.1711 89.3297 61.4128 89.0743 61.7177 89.066C62.0143 89.0441 62.2779 89.2967 62.2862 89.6016C62.3329 91.1011 62.4839 92.6117 62.7284 94.092C62.7778 94.3941 62.5746 94.677 62.2752 94.7264C62.245 94.7319 62.2148 94.7346 62.1846 94.7346V94.7319Z" fill="#7D97F4"/>
<path d="M62.3082 82.7248C62.2752 82.7248 62.2395 82.722 62.2066 82.7165C61.9072 82.6616 61.7095 82.3732 61.7644 82.0711C61.9017 81.3406 62.0638 80.6045 62.2478 79.8795C62.3219 79.5829 62.624 79.4043 62.9179 79.4812C63.2145 79.5554 63.393 79.8575 63.3161 80.1514C63.1376 80.8517 62.9811 81.5658 62.8492 82.2743C62.7998 82.5407 62.5664 82.7248 62.3082 82.7248Z" fill="#7D97F4"/>
<path d="M71.613 78.7809C71.5306 78.9375 71.5581 79.1297 71.6789 79.2588L75.1641 82.9417C74.5764 85.235 74.3512 87.6381 74.5324 90.0687L70.4595 93.0815C70.3167 93.1859 70.2563 93.3726 70.3084 93.5401L72.1321 99.3406C72.1842 99.5108 72.3408 99.6262 72.5166 99.6317L77.5809 99.7718C78.8223 101.867 80.3823 103.71 82.1757 105.256L81.4232 110.269C81.3957 110.444 81.4836 110.617 81.6429 110.7L87.0341 113.512C87.1906 113.594 87.3829 113.567 87.512 113.446L91.1949 109.961C93.4882 110.549 95.8913 110.774 98.3219 110.593L101.335 114.666C101.439 114.808 101.626 114.869 101.793 114.817L107.594 112.993C107.764 112.941 107.879 112.784 107.885 112.606L108.025 107.541C110.12 106.3 111.963 104.74 113.51 102.947L118.524 103.699C118.7 103.727 118.873 103.639 118.956 103.479L121.768 98.0882C121.85 97.9317 121.823 97.7394 121.702 97.6103L118.217 93.9274C118.805 91.6341 119.03 89.231 118.849 86.8004L122.921 83.7876C123.064 83.6833 123.125 83.4965 123.073 83.329L121.249 77.5286C121.197 77.3583 121.04 77.2429 120.864 77.2374L115.8 77.0974C114.559 75.0019 112.999 73.159 111.205 71.6128L111.958 66.6006C111.985 66.4248 111.897 66.2518 111.738 66.1694L106.347 63.3571C106.19 63.2747 105.998 63.3021 105.869 63.423L102.186 66.9082C99.8928 66.3205 97.4897 66.0952 95.0591 66.2765L92.0463 62.2008C91.9419 62.058 91.7552 61.9976 91.5876 62.0498L85.7872 63.8734C85.6169 63.9256 85.5016 64.0821 85.4961 64.2579L85.356 69.3223C83.2605 70.5637 81.4177 72.1236 79.8715 73.917L74.8593 73.1645C74.6835 73.137 74.5105 73.2249 74.4281 73.3842L71.6157 78.7754L71.613 78.7809Z" fill="#91B3FA"/>
<path d="M96.7042 94.6689C96.2208 94.6689 95.732 94.6112 95.2514 94.4986C93.6337 94.1141 92.2605 93.1199 91.3899 91.7055C90.5165 90.2884 90.2501 88.6185 90.6346 86.9982C91.0191 85.3805 92.0133 84.0073 93.4277 83.1367C94.8449 82.2661 96.5175 81.9969 98.1351 82.3814C99.7527 82.7659 101.126 83.7601 101.997 85.1745C103.795 88.0995 102.881 91.9417 99.956 93.7433C98.9618 94.3558 97.8412 94.6689 96.7042 94.6689ZM96.6822 83.8645C95.8473 83.8645 95.0234 84.0952 94.2956 84.5456C93.2547 85.1855 92.5269 86.1935 92.244 87.3799C91.9612 88.5664 92.1589 89.794 92.7988 90.8349C93.4387 91.8758 94.4467 92.6036 95.6331 92.8865C96.8223 93.1693 98.0472 92.9716 99.0881 92.3317C101.233 91.0107 101.906 88.1901 100.585 86.0424C99.945 85.0015 98.937 84.2737 97.7506 83.9908C97.3963 83.9057 97.0393 83.8645 96.685 83.8645H96.6822Z" fill="#E1E6FF"/>
<path d="M96.8195 103.99C90.2282 103.99 84.1009 99.747 82.0219 93.1336C81.6896 92.079 81.4698 90.9914 81.371 89.8984L83.0216 89.7473C83.1122 90.7223 83.3072 91.6945 83.6038 92.6365C85.562 98.8681 91.5437 102.741 97.7973 102.298C98.3465 102.26 98.8986 102.186 99.4479 102.079C99.4698 102.073 99.4918 102.07 99.5138 102.065C99.555 102.057 99.5962 102.048 99.6374 102.04C99.8763 101.991 100.115 101.933 100.351 101.87C100.516 101.826 100.684 101.779 100.849 101.727C100.887 101.716 100.923 101.705 100.961 101.691C106.869 99.8349 110.656 94.3613 110.656 88.4757C110.656 87.1053 110.45 85.7101 110.019 84.3341C107.731 77.0507 99.945 72.9887 92.6615 75.2765C90.2666 76.029 88.1244 77.4132 86.4683 79.278L85.2297 78.1767C87.0863 76.0867 89.4839 74.5377 92.1644 73.6945C100.318 71.1321 109.038 75.6829 111.601 83.837C112.084 85.3778 112.315 86.9405 112.315 88.4757C112.315 95.0671 108.072 101.194 101.458 103.273C99.9175 103.757 98.3575 103.987 96.8223 103.987L96.8195 103.99Z" fill="#E1E6FF"/>
<path d="M274.29 155.719C273.831 155.719 273.461 155.348 273.461 154.889V137.032C273.461 127.538 281.183 119.815 290.678 119.815H317.779C318.238 119.815 318.609 120.186 318.609 120.644C318.609 121.103 318.238 121.474 317.779 121.474H290.678C282.098 121.474 275.119 128.452 275.119 137.032V154.889C275.119 155.348 274.749 155.719 274.29 155.719Z" fill="#E1E6FF"/>
<path d="M274.29 174.655C273.831 174.655 273.461 174.285 273.461 173.826V166.551C273.461 166.092 273.831 165.721 274.29 165.721C274.749 165.721 275.119 166.092 275.119 166.551V173.826C275.119 174.285 274.749 174.655 274.29 174.655Z" fill="#E1E6FF"/>
<path d="M207.456 230.592C206.997 230.592 206.627 230.221 206.627 229.762V214.627C206.627 206.511 213.229 199.909 221.345 199.909H244.316C244.774 199.909 245.145 200.279 245.145 200.738C245.145 201.197 244.774 201.568 244.316 201.568H221.345C214.144 201.568 208.283 207.428 208.283 214.629V229.765C208.283 230.224 207.912 230.594 207.453 230.594L207.456 230.592Z" fill="url(#paint2_linear_89_10304)"/>
<path d="M207.456 246.639C206.997 246.639 206.627 246.268 206.627 245.809V239.644C206.627 239.185 206.997 238.814 207.456 238.814C207.915 238.814 208.286 239.185 208.286 239.644V245.809C208.286 246.268 207.915 246.639 207.456 246.639Z" fill="url(#paint3_linear_89_10304)"/>
<path d="M155.535 296.017C155.076 296.017 154.706 295.646 154.706 295.187V277.33C154.706 267.836 162.429 260.113 171.923 260.113H199.025C199.483 260.113 199.854 260.484 199.854 260.942C199.854 261.401 199.483 261.772 199.025 261.772H171.923C163.343 261.772 156.365 268.75 156.365 277.33V295.187C156.365 295.646 155.994 296.017 155.535 296.017Z" fill="url(#paint4_linear_89_10304)"/>
<path d="M155.535 314.95C155.076 314.95 154.706 314.579 154.706 314.121V306.846C154.706 306.387 155.076 306.016 155.535 306.016C155.994 306.016 156.365 306.387 156.365 306.846V314.121C156.365 314.579 155.994 314.95 155.535 314.95Z" fill="url(#paint5_linear_89_10304)"/>
<path d="M93.6722 370.585C93.2135 370.585 92.8428 370.214 92.8428 369.755V351.898C92.8428 342.404 100.566 334.681 110.06 334.681H137.162C137.62 334.681 137.991 335.051 137.991 335.51C137.991 335.969 137.62 336.34 137.162 336.34H110.06C101.48 336.34 94.5016 343.318 94.5016 351.898V369.755C94.5016 370.214 94.1308 370.585 93.6722 370.585Z" fill="url(#paint6_linear_89_10304)"/>
<path d="M93.6722 389.518C93.2135 389.518 92.8428 389.147 92.8428 388.689V381.413C92.8428 380.955 93.2135 380.584 93.6722 380.584C94.1308 380.584 94.5016 380.955 94.5016 381.413V388.689C94.5016 389.147 94.1308 389.518 93.6722 389.518Z" fill="url(#paint7_linear_89_10304)"/>
<path d="M240.57 299.823C240.32 299.823 240.067 299.763 239.844 299.645C239.07 299.244 238.768 298.288 239.169 297.513L310.62 159.707C311.02 158.932 311.976 158.63 312.751 159.031C313.525 159.432 313.827 160.388 313.426 161.162L241.976 298.969C241.704 299.496 241.166 299.823 240.572 299.823H240.57Z" fill="#E1E6FF"/>
<path d="M274.466 300.974C274.249 300.974 274.037 300.93 273.837 300.842C273.45 300.674 273.15 300.364 272.997 299.971C272.843 299.579 272.848 299.147 273.018 298.76L334.09 158.44C334.439 157.641 335.37 157.273 336.169 157.622C336.969 157.971 337.337 158.905 336.988 159.704L275.916 300.023C275.666 300.6 275.095 300.974 274.466 300.974Z" fill="#E1E6FF"/>
<path d="M324 186.413H299.227C298.681 186.413 298.239 185.971 298.239 185.424C298.239 184.877 298.681 184.435 299.227 184.435H324C324.547 184.435 324.989 184.877 324.989 185.424C324.989 185.971 324.547 186.413 324 186.413Z" fill="#E1E6FF"/>
<path d="M317.381 201.76H292.609C292.062 201.76 291.62 201.317 291.62 200.771C291.62 200.224 292.062 199.782 292.609 199.782H317.381C317.928 199.782 318.37 200.224 318.37 200.771C318.37 201.317 317.928 201.76 317.381 201.76Z" fill="#E1E6FF"/>
<path d="M308.65 220.136H282.301C281.755 220.136 281.313 219.694 281.313 219.147C281.313 218.601 281.755 218.158 282.301 218.158H308.65C309.197 218.158 309.639 218.601 309.639 219.147C309.639 219.694 309.197 220.136 308.65 220.136Z" fill="#E1E6FF"/>
<path d="M330.58 171.53H306.948C306.401 171.53 305.959 171.088 305.959 170.541C305.959 169.995 306.401 169.552 306.948 169.552H330.58C331.127 169.552 331.569 169.995 331.569 170.541C331.569 171.088 331.127 171.53 330.58 171.53Z" fill="#E1E6FF"/>
<path d="M299.955 241.275H271.327C270.78 241.275 270.338 240.833 270.338 240.286C270.338 239.74 270.78 239.298 271.327 239.298H299.955C300.502 239.298 300.944 239.74 300.944 240.286C300.944 240.833 300.502 241.275 299.955 241.275Z" fill="#E1E6FF"/>
<path d="M293.229 257.677H262.522C261.975 257.677 261.533 257.234 261.533 256.688C261.533 256.141 261.975 255.699 262.522 255.699H293.229C293.776 255.699 294.218 256.141 294.218 256.688C294.218 257.234 293.776 257.677 293.229 257.677Z" fill="#E1E6FF"/>
<path d="M345.686 114.363C345.686 114.363 346.757 113.213 348.737 113.575C350.717 113.938 352.483 114.624 353.716 113.575C354.952 112.526 355.386 113.935 355.386 113.935L351.689 116.744L345.686 114.363Z" fill="#E399A5"/>
<path d="M287.19 237.738C284.029 234.986 277.234 232.781 277.234 232.781L273.148 232.871C272.109 234.038 271.64 236.301 271.442 237.719C272.211 238.18 273.653 238.584 276.3 238.71C281.197 238.943 285.149 238.227 287.195 237.741L287.19 237.738Z" fill="#566CC1"/>
<path d="M287.19 237.738C285.147 238.224 281.192 238.941 276.295 238.707C273.65 238.581 272.208 238.177 271.437 237.716C271.42 237.828 271.406 237.941 271.393 238.043C271.318 238.625 271.678 239.171 272.238 239.342C275.974 240.487 284.185 240.119 287.388 239.918C288.072 239.877 288.431 239.073 287.992 238.545C287.764 238.271 287.492 238.001 287.187 237.735L287.19 237.738Z" fill="#BBC4E6"/>
<path d="M273.48 229.339V232.591C273.48 233.217 273.917 233.755 274.529 233.89C275.163 234.027 276.004 234.115 276.819 233.912C277.33 233.786 277.704 233.346 277.764 232.824L278.176 229.339H273.483H273.48Z" fill="#F8A6B3"/>
<path d="M294.152 212.685C292.883 209.862 293.246 208.593 290.736 208.873C290.433 208.906 290.184 208.966 289.972 209.04C289.813 209.507 289.805 210.021 289.972 210.51C290.606 212.336 291.933 215.456 294.366 218.529C294.877 219.175 295.66 219.548 296.484 219.562L299.252 219.609C296.627 217.51 295.201 215.025 294.149 212.682L294.152 212.685Z" fill="#BBC4E6"/>
<path d="M299.428 215.423C297.302 213.926 296.511 207.818 296.511 207.818L293.238 206.151L290.768 207.942C290.387 208.225 290.118 208.612 289.972 209.04C290.184 208.966 290.433 208.906 290.736 208.873C293.246 208.593 292.883 209.862 294.152 212.685C295.204 215.028 296.629 217.513 299.255 219.611L301.158 219.644C302.012 219.658 302.507 218.683 301.988 218.002C301.337 217.148 300.45 216.143 299.431 215.426L299.428 215.423Z" fill="#566CC1"/>
<path d="M295.215 203.078L293.238 206.154C292.988 206.541 293.073 207.057 293.435 207.343C294.07 207.84 295.166 208.398 296.511 207.821L299.686 205.646L295.212 203.081L295.215 203.078Z" fill="#F8A6B3"/>
<path d="M280.376 170.618C280.376 170.618 279.335 173.549 277.827 183.845C276.32 194.141 275.325 201.628 274.504 205.712C273.752 209.444 272.565 222.893 272.637 228.773C272.645 229.564 273.299 230.193 274.089 230.169L277.981 230.048C278.583 230.029 279.085 229.592 279.187 228.999C280.217 222.943 287.333 191.702 291.625 182.713C291.625 182.713 303.042 185.94 305.887 187.239C305.887 187.239 302.207 188.712 294.666 202.85C294.666 202.85 297.923 205.437 300.23 205.978C300.23 205.978 316.733 192.29 318.477 190.859C320.221 189.428 321.808 186.959 317.359 182.463C312.91 177.968 299.255 170.876 299.255 170.876L280.379 170.618H280.376Z" fill="#455A64"/>
<path d="M290.988 183.035C290.961 183.035 290.931 183.029 290.903 183.016L286.833 181.447C285.083 180.612 283.946 178.822 283.935 176.883C283.935 176.773 284.023 176.685 284.133 176.685C284.26 176.685 284.331 176.773 284.331 176.883C284.339 178.671 285.388 180.324 287.003 181.093L291.076 182.661C291.175 182.708 291.216 182.826 291.169 182.925C291.137 182.996 291.065 183.038 290.991 183.038L290.988 183.035Z" fill="#506874"/>
<path d="M317.293 169.75C317.293 169.75 321.58 166.504 323.533 167.114C325.486 167.723 326.925 169.552 326.925 169.552H322.613C322.613 169.552 321.586 171.527 322.613 171.527H324.135C324.135 171.527 320.108 175.746 317.293 169.75Z" fill="#F8A6B3"/>
<path d="M310.032 139.142C310.032 139.142 315.063 159.039 321.88 167.04C321.88 167.04 320.034 169.143 317.293 169.753C317.293 169.753 306.829 160.583 303.644 154.211C300.458 147.839 310.032 139.144 310.032 139.144V139.142Z" fill="#4C5FA6"/>
<path d="M303.309 120.199L298.31 129.345H306.198C306.198 129.345 306.832 125.165 308.906 122.649L303.306 120.202L303.309 120.199Z" fill="#E399A5"/>
<path d="M310.883 109.31C310.883 109.31 313.388 115.064 313.555 118.085C313.723 121.106 314.374 123.064 310.883 123.671C307.393 124.278 304.451 122.54 302.855 119.532C302.855 119.532 300.359 114.896 300.919 112.998C301.479 111.101 310.883 109.31 310.883 109.31Z" fill="#F8A6B3"/>
<path d="M304.05 117.371H304.492C304.492 117.371 302.674 113.641 304.273 112.985C305.871 112.328 312.201 111.037 313.566 108.791C314.882 106.627 313.709 103.828 311.952 103.045C311.842 102.996 311.71 103.048 311.652 103.155L311.507 103.43C311.408 103.619 311.128 103.589 311.07 103.386C311.015 103.191 310.751 103.15 310.644 103.32C310.227 103.993 309.095 105.083 306.058 105.643C301.749 106.44 298.901 108.181 298.832 111.161C298.826 111.351 298.626 111.455 298.464 111.356C298.145 111.161 297.637 111.07 296.956 111.644C295.772 112.639 296.258 115.22 298.851 117.343C298.975 117.445 298.972 117.637 298.84 117.722C298.37 118.027 297.67 118.758 299.486 119.727C301.342 120.721 302.443 120.611 302.858 120.504C302.971 120.477 303.045 120.375 303.037 120.26L302.875 117.621C302.866 117.483 302.973 117.368 303.111 117.368H304.053L304.05 117.371Z" fill="#1A468F"/>
<path d="M304.157 117.923C304.157 117.923 303.201 114.248 301.554 115.278C299.906 116.308 302.408 119.395 303.734 119.535L304.157 117.925V117.923Z" fill="url(#paint8_linear_89_10304)"/>
<path d="M343.132 116.261C343.132 116.261 343.865 113.193 346.076 113.614C348.287 114.034 353.304 116.764 354.598 116.261C355.891 115.758 357.545 114.556 358.393 114.981L356.899 116.841C356.899 116.841 360.742 114.624 361.403 115.986L355.01 119.584C355.01 119.584 345.656 118.648 343.132 116.264V116.261Z" fill="#F8A6B3"/>
<path d="M297.201 128.628C297.201 128.628 299.431 124.965 314.009 125.863C321.586 126.33 338.63 119.724 342.426 116.404C342.426 116.404 344.9 116.388 347.18 118.774C347.18 118.774 331.437 135.387 313.083 137.51C313.083 137.51 299.153 166.216 299.252 170.874C299.252 170.874 290.985 176.421 279.766 172.45C279.766 172.45 279.423 164.472 283.801 153.448C289.486 139.136 297.201 128.626 297.201 128.626V128.628Z" fill="#566CC1"/>
<path d="M303.808 138.532C303.707 138.532 303.619 138.452 303.611 138.351C303.602 138.241 303.682 138.147 303.792 138.136C303.863 138.131 310.861 137.562 311.952 137.439C312.059 137.428 312.158 137.505 312.171 137.612C312.182 137.719 312.105 137.818 311.998 137.832C310.9 137.955 303.896 138.524 303.825 138.532C303.819 138.532 303.814 138.532 303.808 138.532Z" fill="#4C5FA6"/>
</g>
<path d="M600.972 403.752C600.972 403.885 466.427 404 300.5 404C134.573 404 0 403.885 0 403.752C0 403.618 134.516 403.504 300.5 403.504C466.484 403.504 600.972 403.618 600.972 403.752Z" fill="#1A468F"/>
<defs>
<linearGradient id="paint0_linear_89_10304" x1="459.876" y1="311.932" x2="453.469" y2="373.636" gradientUnits="userSpaceOnUse">
<stop stop-color="#FF928E"/>
<stop offset="1" stop-color="#FEB3B1"/>
</linearGradient>
<linearGradient id="paint1_linear_89_10304" x1="535.169" y1="261.219" x2="522.261" y2="269.459" gradientUnits="userSpaceOnUse">
<stop stop-color="#FF928E"/>
<stop offset="1" stop-color="#FEB3B1"/>
</linearGradient>
<linearGradient id="paint2_linear_89_10304" x1="230.817" y1="107.701" x2="227.521" y2="174.436" gradientUnits="userSpaceOnUse">
<stop stop-color="#FF928E"/>
<stop offset="1" stop-color="#FEB3B1"/>
</linearGradient>
<linearGradient id="paint3_linear_89_10304" x1="214.166" y1="106.877" x2="210.87" y2="173.612" gradientUnits="userSpaceOnUse">
<stop stop-color="#FF928E"/>
<stop offset="1" stop-color="#FEB3B1"/>
</linearGradient>
<linearGradient id="paint4_linear_89_10304" x1="154.708" y1="278.066" x2="199.854" y2="278.066" gradientUnits="userSpaceOnUse">
<stop stop-color="#DAE3FE"/>
<stop offset="1" stop-color="#E9EFFD"/>
</linearGradient>
<linearGradient id="paint5_linear_89_10304" x1="154.708" y1="310.485" x2="156.365" y2="310.485" gradientUnits="userSpaceOnUse">
<stop stop-color="#DAE3FE"/>
<stop offset="1" stop-color="#E9EFFD"/>
</linearGradient>
<linearGradient id="paint6_linear_89_10304" x1="112.189" y1="251.942" x2="114.248" y2="316.206" gradientUnits="userSpaceOnUse">
<stop stop-color="#FF928E"/>
<stop offset="1" stop-color="#FEB3B1"/>
</linearGradient>
<linearGradient id="paint7_linear_89_10304" x1="89.429" y1="252.672" x2="91.4888" y2="316.936" gradientUnits="userSpaceOnUse">
<stop stop-color="#FF928E"/>
<stop offset="1" stop-color="#FEB3B1"/>
</linearGradient>
<linearGradient id="paint8_linear_89_10304" x1="298.03" y1="118.653" x2="310.938" y2="115.083" gradientUnits="userSpaceOnUse">
<stop stop-color="#FF928E"/>
<stop offset="1" stop-color="#FEB3B1"/>
</linearGradient>
<clipPath id="clip0_89_10304">
<rect width="562.397" height="404" fill="white" transform="translate(19)"/>
</clipPath>
</defs>
</svg>
