<svg width="72" height="72" viewBox="0 0 72 72" fill="none" xmlns="http://www.w3.org/2000/svg">
<path d="M51 30H57C63 30 66 27 66 21V15C66 9 63 6 57 6H51C45 6 42 9 42 15V21C42 27 45 30 51 30Z" stroke="#A8C0FF" stroke-width="2" stroke-miterlimit="10" stroke-linecap="round" stroke-linejoin="round"/>
<path d="M15 66H21C27 66 30 63 30 57V51C30 45 27 42 21 42H15C9 42 6 45 6 51V57C6 63 9 66 15 66Z" stroke="#A8C0FF" stroke-width="2" stroke-miterlimit="10" stroke-linecap="round" stroke-linejoin="round"/>
<path d="M18 30C24.6274 30 30 24.6274 30 18C30 11.3726 24.6274 6 18 6C11.3726 6 6 11.3726 6 18C6 24.6274 11.3726 30 18 30Z" stroke="#1A468F" stroke-width="2" stroke-miterlimit="10" stroke-linecap="round" stroke-linejoin="round"/>
<path d="M54 66C60.6274 66 66 60.6274 66 54C66 47.3726 60.6274 42 54 42C47.3726 42 42 47.3726 42 54C42 60.6274 47.3726 66 54 66Z" stroke="#1A468F" stroke-width="2" stroke-miterlimit="10" stroke-linecap="round" stroke-linejoin="round"/>
</svg>
