<svg width="72" height="72" viewBox="0 0 72 72" fill="none" xmlns="http://www.w3.org/2000/svg">
<path d="M24 6V15" stroke="#1A468F" stroke-width="1.5" stroke-miterlimit="10" stroke-linecap="round" stroke-linejoin="round"/>
<path d="M48 6V15" stroke="#1A468F" stroke-width="1.5" stroke-miterlimit="10" stroke-linecap="round" stroke-linejoin="round"/>
<path d="M10.5 27.27H61.5" stroke="#A8C0FF" stroke-width="1.5" stroke-miterlimit="10" stroke-linecap="round" stroke-linejoin="round"/>
<path d="M66 57C66 59.25 65.37 61.38 64.26 63.18C62.19 66.66 58.38 69 54 69C50.97 69 48.21 67.89 46.11 66C45.18 65.22 44.37 64.26 43.74 63.18C42.63 61.38 42 59.25 42 57C42 50.37 47.37 45 54 45C57.6 45 60.81 46.59 63 49.08C64.86 51.21 66 53.97 66 57Z" stroke="#1A468F" stroke-width="1.5" stroke-miterlimit="10" stroke-linecap="round" stroke-linejoin="round"/>
<path d="M49.3201 57L52.2901 59.97L58.6801 54.06" stroke="#1A468F" stroke-width="1.5" stroke-linecap="round" stroke-linejoin="round"/>
<path d="M63 25.5V49.08C60.81 46.59 57.6 45 54 45C47.37 45 42 50.37 42 57C42 59.25 42.63 61.38 43.74 63.18C44.37 64.26 45.18 65.22 46.11 66H24C13.5 66 9 60 9 51V25.5C9 16.5 13.5 10.5 24 10.5H48C58.5 10.5 63 16.5 63 25.5Z" stroke="#1A468F" stroke-width="1.5" stroke-miterlimit="10" stroke-linecap="round" stroke-linejoin="round"/>
<path d="M35.9865 41.1H36.0134" stroke="#A8C0FF" stroke-width="2" stroke-linecap="round" stroke-linejoin="round"/>
<path d="M24.8829 41.1H24.9099" stroke="#A8C0FF" stroke-width="2" stroke-linecap="round" stroke-linejoin="round"/>
<path d="M24.8833 50.1H24.9102" stroke="#A8C0FF" stroke-width="2" stroke-linecap="round" stroke-linejoin="round"/>
</svg>
