<svg width="72" height="72" viewBox="0 0 72 72" fill="none" xmlns="http://www.w3.org/2000/svg">
<path d="M13.2143 46.5791L26.8043 60.1691C32.3843 65.7491 41.4443 65.7491 47.0543 60.1691L60.2243 46.9991C65.8043 41.4191 65.8043 32.3591 60.2243 26.7491L46.6043 13.1891C43.7543 10.3391 39.8243 8.8091 35.8043 9.0191L20.8043 9.7391C14.8043 10.0091 10.0343 14.7791 9.73427 20.7491L9.01427 35.7491C8.83427 39.7991 10.3643 43.7291 13.2143 46.5791Z" stroke="#1A468F" stroke-width="2" stroke-linecap="round" stroke-linejoin="round"/>
<path d="M29.2041 36.6792C33.3462 36.6792 36.7041 33.3213 36.7041 29.1792C36.7041 25.0371 33.3462 21.6792 29.2041 21.6792C25.062 21.6792 21.7041 25.0371 21.7041 29.1792C21.7041 33.3213 25.062 36.6792 29.2041 36.6792Z" stroke="#A8C0FF" stroke-width="2" stroke-linecap="round"/>
<path d="M39.7041 51.6792L51.7041 39.6792" stroke="#A8C0FF" stroke-width="2" stroke-miterlimit="10" stroke-linecap="round" stroke-linejoin="round"/>
</svg>
