<svg width="72" height="72" viewBox="0 0 72 72" fill="none" xmlns="http://www.w3.org/2000/svg">
<path d="M66 14.0101V50.2201C66 53.1001 63.66 55.8 60.78 56.16L59.79 56.2802C53.25 57.1502 43.1699 60.48 37.4099 63.66C36.6299 64.11 35.34 64.11 34.53 63.66L34.4099 63.6002C28.6499 60.4502 18.6001 57.1502 12.0901 56.2802L11.22 56.16C8.33997 55.8 6 53.1001 6 50.2201V13.98C6 10.41 8.90992 7.71008 12.4799 8.01008C18.7799 8.52008 28.3199 11.7002 33.6599 15.0302L34.4099 15.48C35.2799 16.02 36.7201 16.02 37.5901 15.48L38.1 15.1501C39.99 13.9801 42.39 12.8101 45 11.7601C48.93 10.2001 53.31 8.94022 57 8.34022C57.81 8.19022 58.5901 8.10011 59.3101 8.04011H59.4901C63.0601 7.74011 66 10.4101 66 14.0101Z" stroke="#1A468F" stroke-width="2" stroke-linecap="round" stroke-linejoin="round"/>
<path d="M36 16.47V61.47" stroke="#A8C0FF" stroke-width="2" stroke-linecap="round" stroke-linejoin="round"/>
<path d="M57 8.34009V24L51 20.0099L45 24V11.7599C48.93 10.1999 53.31 8.94009 57 8.34009Z" stroke="#A8C0FF" stroke-width="2" stroke-linecap="round" stroke-linejoin="round"/>
</svg>
