<svg width="72" height="72" viewBox="0 0 72 72" fill="none" xmlns="http://www.w3.org/2000/svg">
<path d="M46.74 36C46.74 41.94 41.94 46.74 36 46.74C30.06 46.74 25.26 41.94 25.26 36C25.26 30.06 30.06 25.26 36 25.26C41.94 25.26 46.74 30.06 46.74 36Z" stroke="#A8C0FF" stroke-width="2" stroke-linecap="round" stroke-linejoin="round"/>
<path d="M36 60.81C46.59 60.81 56.46 54.57 63.33 43.77C66.03 39.54 66.03 32.43 63.33 28.2C56.46 17.4 46.59 11.16 36 11.16C25.41 11.16 15.54 17.4 8.67002 28.2C5.97002 32.43 5.97002 39.54 8.67002 43.77C15.54 54.57 25.41 60.81 36 60.81Z" stroke="#1A468F" stroke-width="2" stroke-linecap="round" stroke-linejoin="round"/>
</svg>
