<svg width="62" height="56" viewBox="0 0 62 56" fill="none" xmlns="http://www.w3.org/2000/svg">
<path d="M61 11.5H43" stroke="#1A468F" stroke-width="2" stroke-miterlimit="10" stroke-linecap="round" stroke-linejoin="round"/>
<path d="M13 11.5H1" stroke="#1A468F" stroke-width="2" stroke-miterlimit="10" stroke-linecap="round" stroke-linejoin="round"/>
<path d="M25 22C30.799 22 35.5 17.299 35.5 11.5C35.5 5.70101 30.799 1 25 1C19.201 1 14.5 5.70101 14.5 11.5C14.5 17.299 19.201 22 25 22Z" stroke="#A8C0FF" stroke-width="2" stroke-miterlimit="10" stroke-linecap="round" stroke-linejoin="round"/>
<path d="M19 44.5H1" stroke="#1A468F" stroke-width="2" stroke-miterlimit="10" stroke-linecap="round" stroke-linejoin="round"/>
<path d="M61 44.5H49" stroke="#1A468F" stroke-width="2" stroke-miterlimit="10" stroke-linecap="round" stroke-linejoin="round"/>
<path d="M37 55C42.799 55 47.5 50.299 47.5 44.5C47.5 38.701 42.799 34 37 34C31.201 34 26.5 38.701 26.5 44.5C26.5 50.299 31.201 55 37 55Z" stroke="#A8C0FF" stroke-width="2" stroke-miterlimit="10" stroke-linecap="round" stroke-linejoin="round"/>
</svg>
