<svg width="72" height="72" viewBox="0 0 72 72" fill="none" xmlns="http://www.w3.org/2000/svg">
<path d="M6 27V19.5C6 12.03 12.03 6 19.5 6H27" stroke="#1A468F" stroke-width="2" stroke-linecap="round" stroke-linejoin="round"/>
<path d="M45 6H52.5C59.97 6 66 12.03 66 19.5V27" stroke="#1A468F" stroke-width="2" stroke-linecap="round" stroke-linejoin="round"/>
<path d="M66 48V52.5C66 59.97 59.97 66 52.5 66H48" stroke="#1A468F" stroke-width="2" stroke-linecap="round" stroke-linejoin="round"/>
<path d="M27 66H19.5C12.03 66 6 59.97 6 52.5V45" stroke="#1A468F" stroke-width="2" stroke-linecap="round" stroke-linejoin="round"/>
<path d="M51 28.5V43.5C51 49.5 48 52.5 42 52.5H30C24 52.5 21 49.5 21 43.5V28.5C21 22.5 24 19.5 30 19.5H42C48 19.5 51 22.5 51 28.5Z" stroke="#A8C0FF" stroke-width="2" stroke-linecap="round" stroke-linejoin="round"/>
<path d="M57 36H15" stroke="#A8C0FF" stroke-width="2" stroke-linecap="round" stroke-linejoin="round"/>
</svg>
