<svg width="394" height="358" viewBox="0 0 394 358" fill="none" xmlns="http://www.w3.org/2000/svg">
<g clip-path="url(#clip0_3_2137)">
<path d="M301.112 319.596L279.044 332.306C278.217 332.788 278.217 333.993 279.044 334.476L317.765 356.795C318.903 357.449 320.179 357.793 321.524 357.793H329.902L301.146 319.596H301.112Z" fill="#CEE1F2" fill-opacity="0.2"/>
<path d="M392.517 314.257L332.557 349.079C331.04 349.975 328.557 349.975 327.006 349.079L287.561 326.347C286.802 325.899 286.389 325.314 286.389 324.728V332.684C286.389 333.27 286.733 333.856 287.527 334.303L326.971 357.036C328.523 357.931 331.005 357.931 332.523 357.036L392.483 322.214C393.241 321.766 393.621 321.215 393.621 320.629V312.673C393.621 313.259 393.276 313.81 392.517 314.257Z" fill="white"/>
<path d="M329.799 358C328.73 358 327.661 357.759 326.833 357.311L287.389 334.579C286.527 334.097 286.044 333.408 286.044 332.65V324.728C286.044 324.521 286.216 324.384 286.423 324.384C286.63 324.384 286.768 324.556 286.768 324.728C286.768 325.21 287.113 325.658 287.768 326.037L327.213 348.769C328.661 349.596 330.971 349.596 332.419 348.769L392.379 313.947C393 313.603 393.345 313.121 393.345 312.673C393.345 312.466 393.483 312.329 393.69 312.329C393.897 312.329 394.035 312.501 394.035 312.673V320.629C394.035 321.353 393.586 322.042 392.724 322.524L332.764 357.346C331.971 357.828 330.902 358.034 329.833 358.034L329.799 358ZM286.768 326.14V332.65C286.768 333.132 287.113 333.614 287.733 333.959L327.178 356.691C328.626 357.518 330.937 357.518 332.385 356.691L392.345 321.869C392.966 321.49 393.31 321.043 393.31 320.56V314.051C393.31 314.051 392.931 314.361 392.724 314.499L332.764 349.32C331.143 350.285 328.557 350.285 326.868 349.32L287.423 326.588C287.182 326.45 286.975 326.278 286.768 326.106V326.14Z" fill="white"/>
<path d="M392.517 311.054L353.073 288.322C351.521 287.426 349.039 287.426 347.521 288.322L287.561 323.144C286.044 324.039 286.044 325.451 287.561 326.347L327.006 349.079C328.558 349.975 331.04 349.975 332.557 349.079L392.517 314.257C394.035 313.362 394.035 311.95 392.517 311.054Z" fill="#7696EA"/>
<path d="M329.799 350.078C328.73 350.078 327.696 349.837 326.868 349.355L287.423 326.622C286.561 326.14 286.079 325.451 286.079 324.728C286.079 324.005 286.527 323.316 287.389 322.834L347.349 288.012C349.004 287.047 351.59 287.047 353.245 288.012L392.69 310.744C393.552 311.226 394 311.915 394.035 312.639C394.035 313.362 393.586 314.051 392.724 314.533L332.764 349.355C331.937 349.837 330.902 350.078 329.833 350.078H329.799ZM350.314 287.977C349.383 287.977 348.418 288.184 347.728 288.597L287.768 323.419C287.147 323.798 286.803 324.246 286.803 324.728C286.803 325.21 287.147 325.658 287.803 326.037L327.247 348.769C328.696 349.596 331.006 349.596 332.454 348.769L392.414 313.947C393.035 313.569 393.38 313.121 393.38 312.639C393.38 312.156 393.035 311.709 392.38 311.33L352.935 288.597C352.211 288.184 351.28 287.977 350.349 287.977H350.314Z" fill="white"/>
<path d="M289.802 330.515L289.665 335.543L289.837 335.647V330.756L324.144 350.526V355.417L324.317 355.52V350.457L289.802 330.515Z" fill="#CEE1F2" fill-opacity="0.2"/>
<path d="M306.18 344.877L292.25 336.852V334.751L306.18 342.811V344.877Z" fill="#CEE1F2" fill-opacity="0.2"/>
<path d="M312.559 348.528L308.559 346.255V344.188L312.559 346.462V348.528Z" fill="#CEE1F2" fill-opacity="0.2"/>
<path d="M322.109 354.074L319.627 352.627V350.526L322.109 351.973V354.074Z" fill="#CEE1F2" fill-opacity="0.2"/>
<path d="M330.592 346.186C330.212 345.945 329.557 345.945 329.178 346.186C328.799 346.427 328.799 346.772 329.178 347.013C329.557 347.254 330.212 347.254 330.592 347.013C330.971 346.772 330.971 346.427 330.592 346.186Z" fill="white"/>
<path d="M359.796 329.343C359.417 329.102 358.762 329.102 358.383 329.343C358.003 329.585 358.003 329.929 358.383 330.17C358.762 330.411 359.417 330.411 359.796 330.17C360.176 329.929 360.176 329.585 359.796 329.343Z" fill="white"/>
<path d="M389.828 312.019C389.449 311.778 388.794 311.778 388.414 312.019C388.035 312.26 388.035 312.604 388.414 312.845C388.794 313.086 389.449 313.086 389.828 312.845C390.207 312.604 390.207 312.26 389.828 312.019Z" fill="white"/>
<path d="M291.595 323.695C291.216 323.454 290.561 323.454 290.181 323.695C289.802 323.936 289.802 324.28 290.181 324.521C290.561 324.762 291.216 324.762 291.595 324.521C291.974 324.28 291.974 323.936 291.595 323.695Z" fill="white"/>
<path d="M320.8 306.852C320.42 306.611 319.765 306.611 319.386 306.852C319.007 307.093 319.007 307.438 319.386 307.679C319.765 307.92 320.42 307.92 320.8 307.679C321.179 307.438 321.179 307.093 320.8 306.852Z" fill="white"/>
<path d="M350.831 289.528C350.452 289.286 349.797 289.286 349.418 289.528C349.038 289.734 349.038 290.113 349.418 290.354C349.797 290.595 350.452 290.595 350.831 290.354C351.211 290.113 351.211 289.769 350.831 289.528Z" fill="white"/>
<path d="M327.454 308.299C327.764 308.471 327.902 308.712 327.902 308.919V307.61C327.902 307.369 327.764 307.162 327.454 306.99C326.695 306.577 326.351 305.991 326.351 305.44V306.749C326.351 307.3 326.73 307.851 327.454 308.299Z" fill="white"/>
<path d="M327.902 309.263C327.695 309.263 327.557 309.091 327.557 308.919C327.557 308.816 327.454 308.678 327.282 308.574C326.454 308.092 326.006 307.438 326.006 306.749V305.44C326.006 305.268 326.178 305.096 326.351 305.096C326.523 305.096 326.695 305.233 326.695 305.44C326.695 305.888 327.04 306.336 327.626 306.68C328.04 306.921 328.247 307.266 328.247 307.61V308.919C328.247 309.126 328.075 309.263 327.902 309.263ZM326.695 306.852C326.73 307.266 327.04 307.644 327.557 307.954V307.61C327.557 307.61 327.454 307.369 327.282 307.266C327.04 307.128 326.868 306.99 326.695 306.852Z" fill="white"/>
<path d="M371.968 318.976L362.761 324.28C361.313 325.107 358.969 325.107 357.521 324.28C356.9 323.936 355.934 323.936 355.314 324.28L351.625 326.416C351.314 326.588 351.176 326.829 351.176 327.036V328.345C351.176 328.103 351.314 327.897 351.625 327.725L355.314 325.589C355.9 325.245 356.9 325.245 357.521 325.589C358.969 326.416 361.348 326.416 362.761 325.589L371.968 320.285C376.795 317.495 379.208 313.844 379.208 310.159V308.85C379.208 312.501 376.795 316.186 371.968 318.976Z" fill="white"/>
<path d="M351.176 328.723C350.969 328.723 350.832 328.586 350.832 328.379V327.07C350.832 326.691 351.073 326.381 351.452 326.14L355.142 324.005C355.866 323.591 356.934 323.591 357.693 324.005C359.038 324.797 361.244 324.797 362.589 324.005L371.795 318.7C376.312 316.083 378.829 312.604 378.864 308.884C378.864 308.678 379.002 308.505 379.208 308.505C379.415 308.505 379.553 308.678 379.553 308.85V310.159C379.553 314.12 376.898 317.805 372.14 320.56L362.968 325.865C361.417 326.76 358.934 326.76 357.383 325.865C356.866 325.589 356.038 325.555 355.521 325.865L351.831 328C351.831 328 351.556 328.207 351.556 328.31C351.556 328.517 351.418 328.654 351.211 328.654L351.176 328.723ZM356.383 324.384C356.038 324.384 355.728 324.452 355.486 324.59L351.797 326.726C351.797 326.726 351.521 326.967 351.521 327.07V327.415L355.142 325.314C355.831 324.9 356.969 324.9 357.693 325.314C359.038 326.106 361.244 326.106 362.589 325.314L371.761 320.009C374.554 318.391 376.553 316.462 377.726 314.326C376.484 316.152 374.588 317.839 372.106 319.252L362.899 324.556C361.348 325.451 358.865 325.451 357.314 324.556C357.038 324.418 356.728 324.349 356.383 324.349V324.384Z" fill="white"/>
<path d="M311.214 318.873L311.18 314.188V315.497L311.214 320.182V318.873Z" fill="white"/>
<path d="M311.214 320.526C311.042 320.526 310.869 320.388 310.869 320.182V315.497V314.154C310.869 313.982 311.007 313.81 311.214 313.81C311.421 313.81 311.559 313.947 311.559 314.154V318.838V320.182C311.559 320.354 311.421 320.526 311.214 320.526Z" fill="white"/>
<path d="M351.659 330.721L340.522 337.162C339.901 337.507 339.108 337.713 338.246 337.713H333.109C332.247 337.713 331.419 337.92 330.833 338.264L328.178 339.814C326.902 340.538 324.868 340.538 323.592 339.814L302.284 327.518C301.629 327.139 301.318 326.657 301.318 326.175V327.484C301.318 327.966 301.629 328.448 302.284 328.827L323.592 341.123C324.868 341.846 326.902 341.846 328.178 341.123L330.833 339.573C331.454 339.229 332.281 339.022 333.109 339.022H338.246C339.108 339.022 339.936 338.815 340.522 338.471L351.659 332.03C352.383 331.617 352.728 331.066 352.728 330.515V329.206C352.728 329.757 352.383 330.308 351.659 330.721Z" fill="white"/>
<path d="M325.833 342.053C324.937 342.053 324.075 341.846 323.385 341.467L302.077 329.171C301.353 328.758 300.939 328.172 300.939 327.552V326.244C300.939 326.071 301.111 325.899 301.284 325.899C301.456 325.899 301.629 326.037 301.629 326.244C301.629 326.622 301.904 327.001 302.422 327.277L323.73 339.573C324.902 340.262 326.799 340.227 327.971 339.573L330.626 338.023C331.281 337.644 332.143 337.438 333.074 337.438H338.246C339.039 337.438 339.798 337.265 340.349 336.955L351.486 330.515C352.072 330.17 352.383 329.757 352.383 329.309C352.383 329.102 352.521 328.965 352.728 328.965C352.934 328.965 353.072 329.102 353.072 329.309V330.618C353.072 331.307 352.624 331.961 351.831 332.409L340.694 338.85C340.039 339.229 339.177 339.435 338.281 339.435H333.074C332.281 339.435 331.488 339.642 330.936 339.952L328.281 341.502C327.592 341.915 326.695 342.122 325.799 342.122L325.833 342.053ZM301.594 327.518C301.594 327.897 301.87 328.276 302.387 328.551L323.696 340.847C324.868 341.536 326.764 341.502 327.937 340.847L330.592 339.297C331.247 338.919 332.109 338.712 333.04 338.712H338.212C339.039 338.712 339.763 338.54 340.315 338.23L351.452 331.789C352.003 331.479 352.314 331.066 352.348 330.652C352.176 330.79 352.003 330.928 351.797 331.066L340.66 337.506C340.005 337.885 339.143 338.092 338.246 338.092H333.04C332.212 338.092 331.454 338.264 330.902 338.609L328.247 340.159C326.868 340.951 324.695 340.951 323.316 340.159L302.008 327.862C302.008 327.862 301.698 327.656 301.56 327.552L301.594 327.518Z" fill="white"/>
<path d="M371.83 298.586C362.072 292.937 346.28 292.937 336.591 298.586L327.42 303.924C325.971 304.751 325.971 306.129 327.454 306.99C328.04 307.334 328.075 307.885 327.454 308.23L323.765 310.365C323.179 310.71 322.179 310.71 321.593 310.365C320.144 309.539 317.765 309.539 316.352 310.365L312.111 312.845C311.49 313.19 311.18 313.672 311.18 314.154V318.838C311.18 319.355 310.869 319.803 310.249 320.182L302.18 324.866C300.905 325.589 300.905 326.795 302.18 327.518L323.489 339.814C324.765 340.537 326.799 340.537 328.075 339.814L330.73 338.264C331.35 337.92 332.178 337.713 333.005 337.713H338.143C339.005 337.713 339.832 337.506 340.418 337.162L351.555 330.721C353.004 329.894 353.004 328.517 351.555 327.69C350.969 327.346 350.935 326.795 351.555 326.45L355.245 324.315C355.831 323.97 356.831 323.97 357.451 324.315C358.9 325.141 361.279 325.141 362.692 324.315L371.898 319.011C381.587 313.396 381.553 304.269 371.795 298.62L371.83 298.586Z" fill="#A8C0FF"/>
<path d="M325.833 340.71C324.937 340.71 324.075 340.503 323.385 340.124L302.077 327.828C301.353 327.415 300.939 326.829 300.939 326.209C300.939 325.589 301.318 325.004 302.042 324.59L310.111 319.906C310.593 319.631 310.869 319.252 310.869 318.873V314.189C310.869 313.569 311.248 312.983 311.938 312.57L316.179 310.09C317.731 309.194 320.248 309.194 321.765 310.09C322.247 310.365 323.109 310.365 323.592 310.09L327.281 307.954C327.281 307.954 327.557 307.748 327.557 307.61C327.557 307.472 327.454 307.369 327.281 307.266C326.454 306.783 326.006 306.129 326.006 305.44C326.006 304.751 326.454 304.097 327.247 303.615L336.419 298.276C346.176 292.593 362.141 292.593 372.002 298.276C376.863 301.066 379.518 304.82 379.518 308.816C379.518 312.776 376.898 316.496 372.105 319.286L362.899 324.59C361.347 325.486 358.865 325.486 357.313 324.59C356.796 324.315 355.969 324.28 355.451 324.59L351.762 326.726C351.762 326.726 351.486 326.967 351.486 327.07C351.486 327.174 351.59 327.311 351.762 327.415C352.59 327.897 353.038 328.551 353.038 329.24C353.038 329.929 352.59 330.583 351.762 331.031L340.625 337.472C339.97 337.851 339.108 338.058 338.212 338.058H333.005C332.178 338.058 331.419 338.23 330.867 338.574L328.212 340.124C327.523 340.537 326.626 340.744 325.73 340.744L325.833 340.71ZM318.972 310.09C318.075 310.09 317.213 310.297 316.524 310.675L312.283 313.155C311.8 313.431 311.524 313.81 311.524 314.189V318.873C311.524 319.493 311.145 320.078 310.421 320.492L302.353 325.176C301.87 325.451 301.594 325.83 301.594 326.209C301.594 326.588 301.87 326.967 302.387 327.243L323.696 339.539C324.868 340.228 326.764 340.193 327.937 339.539L330.592 337.989C331.247 337.61 332.109 337.403 333.04 337.403H338.212C339.005 337.403 339.763 337.231 340.315 336.921L351.452 330.48C352.038 330.136 352.348 329.722 352.348 329.275C352.348 328.827 352.003 328.379 351.417 328.035C351.004 327.794 350.797 327.449 350.797 327.105C350.797 326.76 351.038 326.416 351.417 326.175L355.107 324.039C355.831 323.626 356.9 323.626 357.658 324.039C359.003 324.832 361.21 324.832 362.554 324.039L371.76 318.735C376.312 316.083 378.829 312.57 378.829 308.884C378.829 305.165 376.277 301.617 371.657 298.965C362.003 293.385 346.349 293.385 336.763 298.965L327.592 304.304C327.006 304.648 326.695 305.096 326.695 305.509C326.695 305.957 327.04 306.405 327.626 306.749C328.04 306.99 328.247 307.3 328.247 307.679C328.247 308.058 328.006 308.368 327.626 308.609L323.937 310.744C323.247 311.158 322.11 311.158 321.42 310.744C320.73 310.365 319.834 310.159 318.972 310.159V310.09Z" fill="white"/>
<path d="M362.485 303.408C358.313 300.997 351.555 300.997 347.349 303.408C343.177 305.819 343.177 309.711 347.349 312.122C351.521 314.533 358.279 314.533 362.485 312.122C366.657 309.711 366.657 305.819 362.485 303.408ZM361.796 312.225C358.003 314.43 351.831 314.43 348.038 312.225C344.246 310.021 344.246 306.473 348.038 304.303C351.831 302.133 358.003 302.099 361.796 304.303C365.589 306.508 365.589 310.055 361.796 312.225Z" fill="white"/>
<path d="M259.46 223.948L173.537 213.615C170.744 213.374 167.916 213.994 165.503 215.406L0.896598 310.366C-0.586031 311.227 -0.103315 313.5 1.62067 313.638L86.1995 323.867C88.682 324.074 91.1991 323.523 93.3713 322.283L146.711 291.525L166.882 303.167C169.572 304.717 173.088 305.509 176.605 305.544C178.95 305.544 182.846 305.544 185.156 305.544C185.156 305.544 227.187 278.265 221.705 275.096L198.466 261.698L259.977 226.221C260.977 225.636 260.667 224.086 259.495 223.983L259.46 223.948Z" fill="#CEE1F2" fill-opacity="0.2"/>
<path d="M221.739 283.466L193.259 299.998C187.777 303.167 178.812 303.167 173.295 299.998L137.712 279.47V282.639L173.261 303.167C178.777 306.336 187.742 306.336 193.224 303.167L221.705 286.634C224.428 285.05 225.808 282.983 225.808 280.917V277.748C225.808 279.815 224.463 281.881 221.705 283.466H221.739Z" fill="white"/>
<path d="M183.294 305.922C179.605 305.922 175.95 305.096 173.123 303.477L137.54 282.949C137.54 282.949 137.367 282.777 137.367 282.639V279.47C137.367 279.47 137.436 279.229 137.54 279.16C137.643 279.091 137.781 279.091 137.884 279.16L173.467 299.688C178.915 302.822 187.708 302.822 193.086 299.688L221.567 283.156C224.084 281.675 225.497 279.746 225.497 277.714C225.497 277.507 225.635 277.369 225.842 277.369C226.049 277.369 226.187 277.541 226.187 277.714V280.882C226.187 283.19 224.67 285.325 221.912 286.91L193.431 303.442C190.638 305.061 186.984 305.888 183.294 305.888V305.922ZM138.057 282.501L173.467 302.926C178.881 306.06 187.673 306.06 193.086 302.926L221.567 286.393C224.084 284.912 225.497 282.983 225.497 280.951V280.4C224.808 281.675 223.601 282.846 221.912 283.81L193.431 300.343C187.846 303.58 178.743 303.58 173.123 300.343L138.057 280.125V282.501Z" fill="white"/>
<path d="M221.67 271.927L186.087 251.399L137.712 279.47L173.295 299.998C178.812 303.167 187.777 303.167 193.259 299.998L221.739 283.466C227.256 280.262 227.187 275.096 221.67 271.927Z" fill="#A8C0FF"/>
<path d="M183.294 302.754C179.605 302.754 175.95 301.961 173.123 300.308L137.54 279.78C137.54 279.78 137.367 279.608 137.367 279.47C137.367 279.332 137.436 279.229 137.54 279.16L185.915 251.089C185.915 251.089 186.156 251.02 186.259 251.089L221.843 271.617C224.635 273.236 226.187 275.406 226.187 277.714C226.187 280.021 224.67 282.157 221.912 283.776L193.431 300.308C190.638 301.927 186.984 302.754 183.294 302.754ZM138.402 279.505L173.467 299.723C178.915 302.857 187.708 302.857 193.086 299.723L221.567 283.19C224.118 281.709 225.497 279.78 225.497 277.748C225.497 275.681 224.084 273.718 221.498 272.237L186.087 251.813L138.402 279.505Z" fill="white"/>
<path d="M284.906 19.4259C283.906 19.0815 282.734 19.2192 281.561 19.8737L75.5449 138.702C72.7521 140.321 70.9591 144.419 71.5108 147.898L97.2672 304.338C97.612 306.336 98.6464 307.679 100.026 308.161L101.818 308.781L286.699 20.0459L284.906 19.4259Z" fill="white"/>
<path d="M101.819 309.125L99.9222 308.505C98.3706 307.989 97.2673 306.473 96.957 304.407L71.2006 147.967C70.6144 144.385 72.4763 140.079 75.3726 138.426L281.389 19.5981C282.63 18.8748 283.872 18.7025 285.009 19.1159L286.802 19.7358C286.802 19.7358 286.975 19.8392 287.009 19.9425C287.009 20.0458 287.009 20.1491 286.975 20.2525L102.129 308.953C102.129 308.953 101.957 309.125 101.853 309.125H101.819ZM283.768 19.5981C283.113 19.5981 282.423 19.8047 281.699 20.1836L75.7174 139.012C73.028 140.562 71.304 144.523 71.8557 147.864L97.6121 304.303C97.9224 306.129 98.8189 307.403 100.129 307.851L101.681 308.368L286.147 20.218L284.768 19.7358C284.458 19.6325 284.113 19.5636 283.768 19.5636V19.5981Z" fill="white"/>
<path d="M315.179 180.309L289.423 23.8689C288.837 20.3902 286.113 18.9092 283.32 20.528L77.3379 139.322C74.545 140.941 72.7521 145.039 73.3038 148.518L99.0601 304.958C99.6463 308.437 102.37 309.918 105.163 308.299L311.18 189.471C313.972 187.852 315.765 183.753 315.214 180.274L315.179 180.309Z" fill="#7696EA"/>
<path d="M102.922 309.298C102.371 309.298 101.819 309.194 101.302 308.953C99.957 308.333 99.026 306.887 98.7157 305.027L72.9593 148.587C72.3732 145.005 74.2351 140.699 77.1658 139.046L283.182 20.218C284.561 19.4258 285.975 19.3225 287.182 19.8736C288.527 20.4936 289.458 21.9402 289.768 23.8001L315.524 180.24C316.11 183.822 314.249 188.127 311.352 189.781L105.336 308.609C104.543 309.057 103.715 309.298 102.922 309.298ZM285.596 20.1836C284.941 20.1836 284.217 20.3902 283.527 20.7691L77.5106 139.632C74.8212 141.182 73.0972 145.143 73.6489 148.484L99.4053 304.923C99.6811 306.577 100.474 307.817 101.612 308.333C102.612 308.815 103.819 308.678 104.991 308.023L311.007 189.195C313.697 187.645 315.421 183.684 314.869 180.343L289.113 23.9034C288.837 22.2502 288.044 21.0102 286.906 20.4936C286.492 20.2869 286.044 20.218 285.596 20.218V20.1836Z" fill="white"/>
<path d="M314.593 176.589L120.024 288.804C117.231 290.423 114.507 288.907 113.921 285.463L88.7852 132.743L77.3379 139.356C74.545 140.975 72.7521 145.074 73.3038 148.552L99.0601 304.992C99.6463 308.471 102.37 309.952 105.163 308.333L311.18 189.505C313.972 187.886 315.765 183.788 315.214 180.309L314.593 176.589Z" fill="#221C3A"/>
<path d="M102.922 309.125C102.405 309.125 101.887 309.022 101.405 308.781C100.129 308.161 99.1981 306.783 98.8878 304.958L73.1314 148.518C72.5452 145.005 74.4071 140.803 77.2345 139.149L88.6818 132.536C88.9576 132.674 114.093 285.394 114.093 285.394C114.369 287.082 115.197 288.391 116.403 288.942C117.472 289.458 118.714 289.321 119.92 288.632L314.49 176.417C314.765 176.554 315.352 180.24 315.352 180.24C315.938 183.753 314.076 187.955 311.248 189.608L105.232 308.437C104.473 308.884 103.68 309.091 102.922 309.091V309.125ZM88.6473 132.984L77.4069 139.459C74.683 141.044 72.9245 145.074 73.4762 148.483L99.2326 304.923C99.5084 306.611 100.336 307.92 101.543 308.471C102.612 308.988 103.853 308.85 105.06 308.161L311.076 189.333C313.8 187.748 315.558 183.719 315.007 180.309L314.421 176.83L120.093 288.907C118.783 289.665 117.403 289.768 116.231 289.252C114.955 288.632 114.024 287.254 113.714 285.429L88.6128 132.95L88.6473 132.984Z" fill="white"/>
<path d="M315.248 286.393L280.872 266.554C279.631 265.831 277.631 265.831 276.32 266.485C275.01 265.831 274.493 265.831 273.252 266.554L171.743 325.486C170.468 326.209 170.468 327.415 171.743 328.138L206.189 348.011C206.878 348.39 207.74 348.597 208.637 348.562H211.499C212.326 348.562 213.188 348.39 213.809 348.011L315.248 289.114C316.558 288.356 316.558 287.116 315.248 286.359V286.393Z" fill="#CEE1F2" fill-opacity="0.2"/>
<path d="M173.743 323.936V326.726C173.743 327.242 174.054 327.725 174.709 328.104L209.085 347.943C210.395 348.7 212.499 348.7 213.809 347.943L315.248 289.045C315.903 288.666 316.214 288.184 316.214 287.702V284.912L173.709 323.97L173.743 323.936Z" fill="white"/>
<path d="M211.464 348.873C210.568 348.873 209.637 348.666 208.913 348.253L174.537 328.414C173.778 328 173.364 327.38 173.364 326.726V323.936C173.364 323.936 173.468 323.66 173.64 323.591L316.145 284.533C316.145 284.533 316.352 284.533 316.455 284.602C316.559 284.671 316.593 284.774 316.593 284.878V287.667C316.593 288.287 316.179 288.873 315.455 289.321L214.016 348.218C213.292 348.632 212.395 348.838 211.499 348.838L211.464 348.873ZM174.088 324.211V326.76C174.088 327.139 174.364 327.552 174.881 327.828L209.258 347.667C210.464 348.356 212.43 348.356 213.637 347.667L315.076 288.77C315.593 288.46 315.869 288.081 315.869 287.702V285.36L174.054 324.211H174.088Z" fill="white"/>
<path d="M315.248 283.534L280.872 263.695C279.562 262.937 277.459 262.937 276.148 263.695L174.709 322.592C173.399 323.35 173.433 324.59 174.709 325.313L209.085 345.153C210.396 345.91 212.499 345.91 213.809 345.153L315.248 286.255C316.559 285.497 316.559 284.292 315.248 283.534Z" fill="#A8C0FF"/>
<path d="M211.464 346.048C210.568 346.048 209.637 345.842 208.913 345.428L174.537 325.589C173.778 325.176 173.399 324.556 173.364 323.936C173.364 323.281 173.778 322.696 174.502 322.283L275.941 263.385C277.321 262.593 279.596 262.593 281.01 263.385L315.386 283.224C316.145 283.672 316.559 284.258 316.559 284.878C316.559 285.498 316.145 286.118 315.421 286.531L213.981 345.428C213.257 345.842 212.361 346.048 211.464 346.048ZM278.527 263.488C277.734 263.488 276.941 263.661 276.355 264.005L174.916 322.903C174.399 323.213 174.123 323.591 174.123 323.97C174.123 324.349 174.433 324.762 174.95 325.038L209.327 344.877C210.533 345.566 212.499 345.566 213.706 344.877L315.145 285.98C315.662 285.67 315.938 285.291 315.938 284.912C315.938 284.533 315.662 284.154 315.11 283.844L280.734 264.005C280.148 263.661 279.32 263.488 278.527 263.488Z" fill="white"/>
<path d="M188.432 323.798L183.674 326.554C183.226 326.829 182.467 326.829 181.984 326.554L177.985 324.246C177.536 323.97 177.536 323.557 177.985 323.282L182.743 320.526C183.191 320.251 183.95 320.251 184.432 320.526L188.432 322.834C188.88 323.109 188.88 323.523 188.432 323.798ZM196.121 318.391L192.121 316.083C191.673 315.807 190.915 315.807 190.432 316.083L185.674 318.838C185.225 319.114 185.225 319.527 185.674 319.803L189.673 322.11C190.121 322.386 190.88 322.386 191.363 322.11L196.121 319.355C196.569 319.08 196.569 318.666 196.121 318.391ZM203.844 313.948L199.845 311.64C199.397 311.364 198.638 311.364 198.155 311.64L193.397 314.395C192.949 314.671 192.949 315.084 193.397 315.36L197.397 317.667C197.845 317.943 198.604 317.943 199.086 317.667L203.844 314.912C204.293 314.636 204.293 314.223 203.844 313.948ZM211.533 309.504L207.534 307.197C207.086 306.921 206.327 306.921 205.844 307.197L201.086 309.952C200.638 310.228 200.638 310.641 201.086 310.917L205.086 313.224C205.534 313.5 206.292 313.5 206.775 313.224L211.533 310.469C211.982 310.193 211.982 309.78 211.533 309.504ZM219.222 305.061L215.223 302.754C214.774 302.478 214.016 302.478 213.533 302.754L208.775 305.509C208.327 305.785 208.327 306.198 208.775 306.473L212.775 308.781C213.223 309.057 213.981 309.057 214.464 308.781L219.222 306.026C219.671 305.75 219.671 305.337 219.222 305.061ZM226.911 300.653L222.912 298.345C222.463 298.069 221.705 298.069 221.222 298.345L216.464 301.1C216.016 301.376 216.016 301.789 216.464 302.065L220.464 304.372C220.912 304.648 221.67 304.648 222.153 304.372L226.911 301.617C227.36 301.341 227.36 300.928 226.911 300.653ZM234.6 296.209L230.601 293.902C230.152 293.626 229.394 293.626 228.911 293.902L224.153 296.657C223.705 296.933 223.705 297.346 224.153 297.622L228.153 299.929C228.601 300.205 229.359 300.205 229.842 299.929L234.6 297.174C235.049 296.898 235.049 296.485 234.6 296.209ZM242.289 291.766L238.29 289.459C237.841 289.183 237.083 289.183 236.6 289.459L231.842 292.214C231.394 292.49 231.394 292.903 231.842 293.178L235.842 295.486C236.29 295.762 237.048 295.762 237.531 295.486L242.289 292.731C242.738 292.455 242.738 292.042 242.289 291.766ZM249.978 287.323L245.979 285.015C245.53 284.74 244.772 284.74 244.289 285.015L239.531 287.771C239.083 288.046 239.083 288.46 239.531 288.735L243.531 291.043C243.979 291.318 244.737 291.318 245.22 291.043L249.978 288.287C250.427 288.012 250.427 287.599 249.978 287.323ZM260.184 281.468L256.185 279.16C255.736 278.885 254.978 278.885 254.495 279.16L247.254 283.328C246.806 283.603 246.806 284.017 247.254 284.292L251.254 286.6C251.702 286.875 252.461 286.875 252.944 286.6L260.184 282.432C260.633 282.157 260.633 281.743 260.184 281.468ZM289.078 289.114L285.079 286.806C284.63 286.531 283.872 286.531 283.389 286.806L278.631 289.562C278.183 289.837 278.183 290.251 278.631 290.526L282.631 292.834C283.079 293.11 283.837 293.11 284.32 292.834L289.078 290.079C289.527 289.803 289.527 289.39 289.078 289.114ZM296.767 284.705L292.768 282.398C292.319 282.122 291.561 282.122 291.078 282.398L286.32 285.153C285.872 285.429 285.872 285.842 286.32 286.118L290.32 288.425C290.768 288.701 291.526 288.701 292.009 288.425L296.767 285.67C297.216 285.394 297.216 284.981 296.767 284.705ZM304.456 280.262L300.457 277.955C300.008 277.679 299.25 277.679 298.767 277.955L294.009 280.71C293.561 280.986 293.561 281.399 294.009 281.674L298.009 283.982C298.457 284.258 299.215 284.258 299.698 283.982L304.456 281.227C304.905 280.951 304.905 280.538 304.456 280.262ZM296.112 293.178L292.113 290.871C291.664 290.595 290.906 290.595 290.423 290.871L285.665 293.626C285.217 293.902 285.217 294.315 285.665 294.591L289.665 296.898C290.113 297.174 290.871 297.174 291.354 296.898L296.112 294.143C296.56 293.867 296.56 293.454 296.112 293.178ZM303.801 288.735L299.802 286.428C299.353 286.152 298.595 286.152 298.112 286.428L293.354 289.183C292.906 289.459 292.906 289.872 293.354 290.147L297.353 292.455C297.802 292.731 298.56 292.731 299.043 292.455L303.801 289.7C304.249 289.424 304.249 289.011 303.801 288.735ZM311.49 284.327L307.491 282.019C307.042 281.743 306.284 281.743 305.801 282.019L301.043 284.774C300.595 285.05 300.595 285.463 301.043 285.739L305.042 288.046C305.491 288.322 306.249 288.322 306.732 288.046L311.49 285.291C311.938 285.015 311.938 284.602 311.49 284.327ZM198.086 325.417L194.087 323.109C193.638 322.834 192.88 322.834 192.397 323.109L185.156 327.277C184.708 327.552 184.708 327.966 185.156 328.241L189.156 330.549C189.604 330.825 190.363 330.825 190.846 330.549L198.086 326.381C198.535 326.106 198.535 325.693 198.086 325.417ZM205.775 320.974L201.776 318.666C201.327 318.391 200.569 318.391 200.086 318.666L195.328 321.422C194.88 321.697 194.88 322.11 195.328 322.386L199.328 324.694C199.776 324.969 200.534 324.969 201.017 324.694L205.775 321.938C206.224 321.663 206.224 321.249 205.775 320.974ZM213.464 316.531L209.465 314.223C209.016 313.948 208.258 313.948 207.775 314.223L203.017 316.978C202.569 317.254 202.569 317.667 203.017 317.943L207.017 320.251C207.465 320.526 208.223 320.526 208.706 320.251L213.464 317.495C213.913 317.22 213.913 316.806 213.464 316.531ZM221.188 312.088L217.188 309.78C216.74 309.504 215.981 309.504 215.499 309.78L210.74 312.535C210.292 312.811 210.292 313.224 210.74 313.5L214.74 315.807C215.188 316.083 215.947 316.083 216.43 315.807L221.188 313.052C221.636 312.776 221.636 312.363 221.188 312.088ZM228.877 307.644L224.877 305.337C224.429 305.061 223.67 305.061 223.188 305.337L218.429 308.092C217.981 308.368 217.981 308.781 218.429 309.057L222.429 311.364C222.877 311.64 223.636 311.64 224.119 311.364L228.877 308.609C229.325 308.333 229.325 307.92 228.877 307.644ZM236.566 303.236L232.566 300.928C232.118 300.653 231.359 300.653 230.877 300.928L226.118 303.683C225.67 303.959 225.67 304.372 226.118 304.648L230.118 306.956C230.566 307.231 231.325 307.231 231.808 306.956L236.566 304.2C237.014 303.925 237.014 303.511 236.566 303.236ZM244.255 298.793L240.255 296.485C239.807 296.209 239.048 296.209 238.566 296.485L233.807 299.24C233.359 299.516 233.359 299.929 233.807 300.205L237.807 302.512C238.255 302.788 239.014 302.788 239.496 302.512L244.255 299.757C244.703 299.481 244.703 299.068 244.255 298.793ZM251.944 294.349L247.944 292.042C247.496 291.766 246.737 291.766 246.255 292.042L241.496 294.797C241.048 295.073 241.048 295.486 241.496 295.762L245.496 298.069C245.944 298.345 246.703 298.345 247.185 298.069L251.944 295.314C252.392 295.038 252.392 294.625 251.944 294.349ZM259.633 289.906L255.633 287.599C255.185 287.323 254.426 287.323 253.943 287.599L249.185 290.354C248.737 290.63 248.737 291.043 249.185 291.318L253.185 293.626C253.633 293.902 254.392 293.902 254.874 293.626L259.633 290.871C260.081 290.595 260.081 290.182 259.633 289.906ZM267.322 285.463L263.322 283.156C262.874 282.88 262.115 282.88 261.632 283.156L256.874 285.911C256.426 286.186 256.426 286.6 256.874 286.875L260.874 289.183C261.322 289.459 262.081 289.459 262.563 289.183L267.322 286.428C267.77 286.152 267.77 285.739 267.322 285.463ZM202.431 330.893L198.431 328.586C197.983 328.31 197.224 328.31 196.742 328.586L191.983 331.341C191.535 331.617 191.535 332.03 191.983 332.306L195.983 334.613C196.431 334.889 197.19 334.889 197.673 334.613L202.431 331.858C202.879 331.582 202.879 331.169 202.431 330.893ZM210.12 326.45L206.12 324.143C205.672 323.867 204.913 323.867 204.431 324.143L199.672 326.898C199.224 327.174 199.224 327.587 199.672 327.862L203.672 330.17C204.12 330.446 204.879 330.446 205.362 330.17L210.12 327.415C210.568 327.139 210.568 326.726 210.12 326.45ZM217.809 322.007L213.809 319.699C213.361 319.424 212.602 319.424 212.12 319.699L207.361 322.455C206.913 322.73 206.913 323.144 207.361 323.419L211.361 325.727C211.809 326.003 212.568 326.003 213.051 325.727L217.809 322.972C218.257 322.696 218.257 322.283 217.809 322.007ZM225.498 317.564L221.498 315.256C221.05 314.981 220.291 314.981 219.809 315.256L215.05 318.012C214.602 318.287 214.602 318.701 215.05 318.976L219.05 321.284C219.498 321.559 220.257 321.559 220.739 321.284L225.498 318.528C225.946 318.253 225.946 317.84 225.498 317.564ZM216.361 338.919L212.361 336.611C211.913 336.335 211.154 336.335 210.671 336.611L205.913 339.366C205.465 339.642 205.465 340.055 205.913 340.331L209.913 342.638C210.361 342.914 211.12 342.914 211.602 342.638L216.361 339.883C216.809 339.607 216.809 339.194 216.361 338.919ZM224.084 334.51L220.084 332.202C219.636 331.927 218.878 331.927 218.395 332.202L213.637 334.958C213.188 335.233 213.188 335.647 213.637 335.922L217.636 338.23C218.085 338.505 218.843 338.505 219.326 338.23L224.084 335.474C224.532 335.199 224.532 334.785 224.084 334.51ZM231.773 330.067L227.773 327.759C227.325 327.484 226.567 327.484 226.084 327.759L221.326 330.515C220.877 330.79 220.877 331.203 221.326 331.479L225.325 333.787C225.774 334.062 226.532 334.062 227.015 333.787L231.773 331.031C232.221 330.756 232.221 330.342 231.773 330.067ZM239.462 325.624L235.462 323.316C235.014 323.04 234.256 323.04 233.773 323.316L229.015 326.071C228.566 326.347 228.566 326.76 229.015 327.036L233.014 329.344C233.463 329.619 234.221 329.619 234.704 329.344L239.462 326.588C239.91 326.313 239.91 325.899 239.462 325.624ZM288.044 297.587L284.044 295.279C283.596 295.004 282.838 295.004 282.355 295.279L275.114 299.447C274.666 299.723 274.666 300.136 275.114 300.411L279.114 302.719C279.562 302.995 280.321 302.995 280.803 302.719L288.044 298.552C288.492 298.276 288.492 297.863 288.044 297.587ZM233.187 313.121L229.187 310.813C228.739 310.538 227.98 310.538 227.498 310.813L222.739 313.569C222.291 313.844 222.291 314.257 222.739 314.533L226.739 316.841C227.187 317.116 227.946 317.116 228.428 316.841L233.187 314.085C233.635 313.81 233.635 313.396 233.187 313.121ZM240.91 308.712L236.91 306.404C236.462 306.129 235.704 306.129 235.221 306.404L230.463 309.16C230.015 309.435 230.015 309.849 230.463 310.124L234.462 312.432C234.911 312.708 235.669 312.708 236.152 312.432L240.91 309.677C241.358 309.401 241.358 308.988 240.91 308.712ZM248.599 304.269L244.599 301.961C244.151 301.686 243.393 301.686 242.91 301.961L238.152 304.717C237.704 304.992 237.704 305.406 238.152 305.681L242.151 307.989C242.6 308.264 243.358 308.264 243.841 307.989L248.599 305.233C249.047 304.958 249.047 304.545 248.599 304.269ZM256.288 299.826L252.288 297.518C251.84 297.243 251.082 297.243 250.599 297.518L245.841 300.274C245.393 300.549 245.393 300.963 245.841 301.238L249.84 303.546C250.289 303.821 251.047 303.821 251.53 303.546L256.288 300.79C256.736 300.515 256.736 300.101 256.288 299.826ZM263.977 295.383L259.977 293.075C259.529 292.8 258.771 292.8 258.288 293.075L253.53 295.831C253.081 296.106 253.081 296.519 253.53 296.795L257.529 299.103C257.978 299.378 258.736 299.378 259.219 299.103L263.977 296.347C264.425 296.072 264.425 295.658 263.977 295.383ZM274.149 289.527L270.149 287.22C269.701 286.944 268.942 286.944 268.459 287.22L261.219 291.387C260.77 291.663 260.77 292.076 261.219 292.352L265.218 294.659C265.667 294.935 266.425 294.935 266.908 294.659L274.149 290.492C274.597 290.216 274.597 289.803 274.149 289.527ZM212.085 333.477L208.085 331.169C207.637 330.893 206.879 330.893 206.396 331.169L199.155 335.337C198.707 335.612 198.707 336.025 199.155 336.301L203.155 338.609C203.603 338.884 204.362 338.884 204.844 338.609L212.085 334.441C212.533 334.166 212.533 333.752 212.085 333.477ZM219.774 329.034L215.774 326.726C215.326 326.45 214.568 326.45 214.085 326.726L209.327 329.481C208.878 329.757 208.878 330.17 209.327 330.446L213.326 332.753C213.775 333.029 214.533 333.029 215.016 332.753L219.774 329.998C220.222 329.722 220.222 329.309 219.774 329.034ZM227.463 324.59L223.463 322.283C223.015 322.007 222.257 322.007 221.774 322.283L217.016 325.038C216.567 325.314 216.567 325.727 217.016 326.003L221.015 328.31C221.464 328.586 222.222 328.586 222.705 328.31L227.463 325.555C227.911 325.279 227.911 324.866 227.463 324.59ZM235.152 320.147L231.152 317.84C230.704 317.564 229.946 317.564 229.463 317.84L224.705 320.595C224.256 320.871 224.256 321.284 224.705 321.559L228.704 323.867C229.153 324.143 229.911 324.143 230.394 323.867L235.152 321.112C235.6 320.836 235.6 320.423 235.152 320.147ZM242.841 315.704L238.841 313.396C238.393 313.121 237.635 313.121 237.152 313.396L232.394 316.152C231.945 316.427 231.945 316.841 232.394 317.116L236.393 319.424C236.842 319.699 237.6 319.699 238.083 319.424L242.841 316.669C243.289 316.393 243.289 315.98 242.841 315.704ZM278.045 303.442L274.045 301.135C273.597 300.859 272.838 300.859 272.356 301.135L236.738 321.697C236.29 321.973 236.29 322.386 236.738 322.662L240.738 324.969C241.186 325.245 241.945 325.245 242.427 324.969L278.045 304.407C278.493 304.131 278.493 303.718 278.045 303.442ZM250.53 311.295L246.53 308.988C246.082 308.712 245.324 308.712 244.841 308.988L240.083 311.743C239.634 312.019 239.634 312.432 240.083 312.708L244.082 315.015C244.531 315.291 245.289 315.291 245.772 315.015L250.53 312.26C250.978 311.984 250.978 311.571 250.53 311.295ZM258.219 306.852L254.219 304.545C253.771 304.269 253.013 304.269 252.53 304.545L247.772 307.3C247.323 307.576 247.323 307.989 247.772 308.264L251.771 310.572C252.219 310.848 252.978 310.848 253.461 310.572L258.219 307.817C258.667 307.541 258.667 307.128 258.219 306.852ZM265.942 302.409L261.943 300.101C261.495 299.826 260.736 299.826 260.253 300.101L255.495 302.857C255.047 303.132 255.047 303.546 255.495 303.821L259.495 306.129C259.943 306.404 260.702 306.404 261.184 306.129L265.942 303.374C266.391 303.098 266.391 302.685 265.942 302.409ZM273.631 297.966L269.632 295.658C269.184 295.383 268.425 295.383 267.942 295.658L263.184 298.414C262.736 298.689 262.736 299.103 263.184 299.378L267.184 301.686C267.632 301.961 268.391 301.961 268.873 301.686L273.631 298.93C274.08 298.655 274.08 298.242 273.631 297.966ZM281.32 293.523L277.321 291.215C276.873 290.94 276.114 290.94 275.631 291.215L270.873 293.971C270.425 294.246 270.425 294.659 270.873 294.935L274.873 297.243C275.321 297.518 276.079 297.518 276.562 297.243L281.32 294.487C281.769 294.212 281.769 293.798 281.32 293.523ZM268.011 276.99L264.012 274.683C263.563 274.407 262.805 274.407 262.322 274.683L257.564 277.438C257.116 277.714 257.116 278.127 257.564 278.402L261.564 280.71C262.012 280.986 262.77 280.986 263.253 280.71L268.011 277.955C268.459 277.679 268.459 277.266 268.011 276.99ZM275.7 272.547L271.701 270.239C271.252 269.964 270.494 269.964 270.011 270.239L265.253 272.995C264.805 273.27 264.805 273.684 265.253 273.959L269.252 276.267C269.701 276.542 270.459 276.542 270.942 276.267L275.7 273.511C276.148 273.236 276.148 272.823 275.7 272.547ZM283.389 268.104L279.39 265.796C278.941 265.521 278.183 265.521 277.7 265.796L272.942 268.552C272.494 268.827 272.494 269.241 272.942 269.516L276.941 271.824C277.39 272.099 278.148 272.099 278.631 271.824L283.389 269.068C283.837 268.793 283.837 268.379 283.389 268.104ZM290.423 272.168L286.423 269.861C285.975 269.585 285.217 269.585 284.734 269.861L279.976 272.616C279.527 272.892 279.527 273.305 279.976 273.58L283.975 275.888C284.424 276.164 285.182 276.164 285.665 275.888L290.423 273.133C290.871 272.857 290.871 272.444 290.423 272.168ZM297.216 275.888L293.285 273.615C292.906 273.408 292.285 273.408 291.906 273.615L285.182 277.438C284.872 277.61 284.32 277.61 284.01 277.438L278.734 274.407C278.148 274.063 277.217 274.063 276.666 274.407L264.598 281.364C264.012 281.709 264.012 282.226 264.598 282.57L275.114 288.632C275.7 288.976 276.631 288.976 277.183 288.632L297.216 277.094C297.802 276.749 297.802 276.232 297.216 275.888Z" fill="#7696EA"/>
<path d="M117.817 289.769C117.266 289.769 116.714 289.665 116.197 289.424C114.852 288.804 113.921 287.358 113.611 285.498L87.8544 129.058C87.2682 125.476 89.1302 121.205 92.0265 119.517L298.043 0.688979C299.422 -0.103209 300.836 -0.206538 302.043 0.344549C303.387 0.964522 304.318 2.41113 304.629 4.27104L330.385 160.711C330.971 164.293 329.109 168.598 326.213 170.252L120.196 289.08C119.403 289.528 118.576 289.769 117.783 289.769H117.817ZM300.456 0.688979C299.801 0.688979 299.077 0.895636 298.388 1.27451L92.3713 120.103C89.6818 121.653 87.9578 125.614 88.5095 128.954L114.266 285.394C114.542 287.048 115.335 288.288 116.473 288.804C117.472 289.286 118.679 289.149 119.852 288.494L325.868 169.666C328.557 168.116 330.281 164.155 329.73 160.814L303.973 4.40882C303.698 2.75556 302.905 1.51561 301.767 0.998965C301.353 0.792307 300.905 0.723422 300.456 0.723422V0.688979Z" fill="white"/>
<path d="M204.706 23.8689L155.504 52.9732C152.4 54.7987 150.366 58.8629 150.918 61.9972L170.778 175.452L248.254 129.609L231.463 33.6851L218.774 30.6886L204.706 23.8689Z" fill="white"/>
<path d="M204.706 23.8689L207.706 41.0904C208.292 44.3625 211.326 45.4991 214.533 43.6047L231.325 33.6507L204.672 23.8689H204.706Z" fill="white"/>
<path d="M213.843 51.8022L174.019 75.3956L173.674 73.329L213.498 49.7356L213.843 51.8022Z" fill="#1F48DA"/>
<path d="M215.809 62.8583L175.985 86.4517L175.605 84.3852L215.43 60.7917L215.809 62.8583Z" fill="#1F48DA"/>
<path d="M217.74 73.9145L177.915 97.4734L177.536 95.4069L217.36 71.8479L217.74 73.9145Z" fill="#1F48DA"/>
<path d="M219.671 84.9709L179.847 108.53L179.467 106.463L219.291 82.9043L219.671 84.9709Z" fill="#1F48DA"/>
<path d="M221.601 95.9926L181.777 119.586L181.398 117.519L221.257 93.926L221.601 95.9926Z" fill="#1F48DA"/>
<path d="M175.778 190.848L155.918 202.593C154.676 203.317 153.849 204.97 154.056 206.244L162.089 252.054L193.363 233.558L186.57 194.844L181.467 193.638L175.778 190.883V190.848Z" fill="white"/>
<path d="M175.778 190.848L176.985 197.806C177.226 199.115 178.467 199.597 179.743 198.805L186.536 194.775L175.778 190.814V190.848Z" fill="white"/>
<path d="M179.467 202.111L163.4 211.618L163.262 210.791L179.329 201.285L179.467 202.111Z" fill="#1F48DA"/>
<path d="M180.26 206.554L164.192 216.095L164.02 215.268L180.122 205.728L180.26 206.554Z" fill="#1F48DA"/>
<path d="M181.053 211.032L164.951 220.538L164.813 219.712L180.881 210.205L181.053 211.032Z" fill="#1F48DA"/>
<path d="M181.812 215.475L165.744 225.016L165.606 224.189L181.674 214.648L181.812 215.475Z" fill="#1F48DA"/>
<path d="M182.605 219.953L166.537 229.459L166.365 228.632L182.467 219.126L182.605 219.953Z" fill="#1F48DA"/>
<path d="M302.525 45.5681L271.356 64.0296C269.39 65.2006 268.115 67.7494 268.46 69.7471L281.045 141.63L330.144 112.56L319.49 51.7679L311.456 49.8735L302.525 45.5337V45.5681Z" fill="white"/>
<path d="M302.525 45.5681L304.422 56.4865C304.801 58.5531 306.732 59.2764 308.766 58.0709L319.42 51.7678L302.525 45.5681Z" fill="white"/>
<path d="M308.318 63.2717L283.079 78.22L282.837 76.9111L308.077 61.9629L308.318 63.2717Z" fill="#1F48DA"/>
<path d="M309.559 70.2981L284.32 85.2119L284.079 83.9031L309.318 68.9893L309.559 70.2981Z" fill="#1F48DA"/>
<path d="M310.766 77.29L285.527 92.2383L285.32 90.9294L310.559 75.9812L310.766 77.29Z" fill="#1F48DA"/>
<path d="M312.007 84.282L286.768 99.2302L286.527 97.9214L311.766 82.9731L312.007 84.282Z" fill="#1F48DA"/>
<path d="M313.214 91.3083L287.975 106.222L287.768 104.913L313.007 89.9995L313.214 91.3083Z" fill="#1F48DA"/>
<path d="M256.392 151.721L219.326 173.661C217.016 175.039 215.464 178.07 215.878 180.481L230.842 265.934L289.182 231.388L276.528 159.126L266.977 156.853L256.392 151.721Z" fill="white"/>
<path d="M256.392 151.721L258.667 164.672C259.115 167.152 261.391 167.978 263.805 166.566L276.459 159.092L256.392 151.721Z" fill="white"/>
<path d="M263.287 172.766L233.29 190.504L233.048 188.954L263.011 171.216L263.287 172.766Z" fill="#1F48DA"/>
<path d="M264.77 181.067L234.772 198.839L234.497 197.289L264.494 179.517L264.77 181.067Z" fill="#1F48DA"/>
<path d="M266.218 189.402L236.221 207.14L235.945 205.59L265.942 187.852L266.218 189.402Z" fill="#1F48DA"/>
<path d="M267.666 197.703L237.669 215.475L237.393 213.925L267.39 196.153L267.666 197.703Z" fill="#1F48DA"/>
<path d="M269.149 206.038L239.151 223.81L238.875 222.226L268.873 204.488L269.149 206.038Z" fill="#1F48DA"/>
<path d="M130.368 151.652L115.748 160.298C114.817 160.849 114.231 162.054 114.369 162.984L120.265 196.704L143.298 183.064L138.298 154.546L134.54 153.65L130.368 151.618V151.652Z" fill="white"/>
<path d="M130.368 151.652L131.265 156.784C131.437 157.749 132.334 158.093 133.299 157.542L138.299 154.58L130.368 151.687V151.652Z" fill="white"/>
<path d="M133.092 159.953L121.231 166.979L121.127 166.359L132.954 159.333L133.092 159.953Z" fill="#1F48DA"/>
<path d="M133.643 163.26L121.817 170.252L121.713 169.632L133.54 162.64L133.643 163.26Z" fill="#1F48DA"/>
<path d="M134.23 166.532L122.403 173.524L122.265 172.938L134.126 165.912L134.23 166.532Z" fill="#1F48DA"/>
<path d="M134.816 169.804L122.955 176.83L122.852 176.21L134.678 169.184L134.816 169.804Z" fill="#1F48DA"/>
<path d="M135.367 173.11L123.541 180.102L123.438 179.482L135.264 172.49L135.367 173.11Z" fill="#1F48DA"/>
</g>
<defs>
<clipPath id="clip0_3_2137">
<rect width="394" height="358" fill="white"/>
</clipPath>
</defs>
</svg>
