<svg width="72" height="72" viewBox="0 0 72 72" fill="none" xmlns="http://www.w3.org/2000/svg">
<path d="M9 33.9C9 18.9883 21.0883 6.89999 36 6.89999C50.9117 6.89999 63 18.9883 63 33.9M9 33.9H15C18.3137 33.9 21 36.5863 21 39.9V45.9C21 49.2137 18.3137 51.9 15 51.9M9 33.9V48.9C9 50.5568 10.3431 51.9 12 51.9H15M63 33.9H57C53.6863 33.9 51 36.5863 51 39.9V45.9C51 49.2137 53.6863 51.9 57 51.9H60C61.6569 51.9 63 50.5568 63 48.9V33.9ZM15 51.9V54.9C15 63 23.6863 61.5 27 61.5" stroke="#1A468F" stroke-width="1.5" stroke-linecap="round"/>
<path d="M27 60.9C27 58.4147 29.0147 56.4 31.5 56.4H34.5C36.9853 56.4 39 58.4147 39 60.9C39 63.3852 36.9853 65.4 34.5 65.4H31.5C29.0147 65.4 27 63.3852 27 60.9Z" stroke="#A8C0FF" stroke-width="1.5" stroke-linecap="round"/>
</svg>
