<svg width="16" height="16" viewBox="0 0 16 16" fill="none" xmlns="http://www.w3.org/2000/svg">
<g id="Frame" clip-path="url(#clip0_9_693)">
<path id="Vector" d="M0.5 11.6611C0.5 9.22 0.5 6.77889 0.5 4.33778C0.524434 4.18444 0.539982 4.02889 0.574411 3.87778C0.956464 2.17889 1.9849 1.08889 3.66304 0.622222C3.88183 0.562222 4.11173 0.54 4.33607 0.5C6.7761 0.5 9.21613 0.5 11.6562 0.5C11.7039 0.508889 11.7506 0.521111 11.7983 0.525556C12.2081 0.571111 12.6091 0.661111 12.9811 0.837778C14.5915 1.6 15.46 2.87556 15.4845 4.65889C15.5155 6.88444 15.4933 9.11111 15.4911 11.3378C15.4911 12.2 15.2579 13 14.757 13.7033C13.9074 14.8956 12.7379 15.4933 11.2741 15.4978C9.08841 15.5033 6.9016 15.5022 4.7159 15.4956C4.43492 15.4956 4.14616 15.48 3.87295 15.42C2.17592 15.0456 1.08974 14.0122 0.623279 12.3356C0.562195 12.1156 0.539982 11.8856 0.5 11.6611ZM14.1628 8.00222C14.1628 6.91889 14.1628 5.83444 14.1628 4.75111C14.1628 4.40778 14.1284 4.06889 14.0129 3.74333C13.5897 2.55111 12.5624 1.83222 11.2663 1.83111C9.08507 1.82889 6.90493 1.82444 4.72368 1.83667C4.39716 1.83889 4.0562 1.88333 3.74745 1.98667C2.54909 2.38889 1.83163 3.42889 1.83052 4.72444C1.82719 6.90667 1.82941 9.08778 1.83052 11.27C1.83052 11.6078 1.86828 11.9411 1.98267 12.2622C2.40582 13.4433 3.42315 14.1633 4.70369 14.1667C6.89938 14.1722 9.09507 14.1711 11.2908 14.1667C12.2737 14.1644 13.0666 13.7711 13.6464 12.9722C14.0151 12.4656 14.1639 11.8878 14.1628 11.2656C14.1617 10.1767 14.1628 9.08889 14.1628 8V8.00222Z" fill="white"/>
<path id="Vector_2" d="M11.8605 8.00144C11.8583 10.1259 10.1102 11.8714 7.99115 11.8648C5.86432 11.8581 4.12176 10.1081 4.13287 7.99033C4.14397 5.86477 5.87542 4.13699 7.99448 4.13477C10.1158 4.13255 11.8617 5.88032 11.8594 8.00144H11.8605ZM7.99448 10.5314C9.3872 10.5359 10.5245 9.40033 10.5278 8.00255C10.5311 6.60921 9.39719 5.47143 8.00003 5.4681C6.60732 5.46477 5.47116 6.5981 5.46672 7.99699C5.46338 9.39033 6.59621 10.527 7.99448 10.5314Z" fill="white"/>
<path id="Vector_3" d="M12.0446 3.01123C12.581 3.02679 13.0141 3.47457 12.9986 3.99568C12.9819 4.54568 12.531 4.97123 11.9868 4.95234C11.4637 4.93456 11.0328 4.48234 11.0472 3.96679C11.0628 3.42345 11.5092 2.99568 12.0446 3.01012V3.01123Z" fill="white"/>
</g>
<defs>
<clipPath id="clip0_9_693">
<rect width="15" height="15" fill="white" transform="translate(0.5 0.5)"/>
</clipPath>
</defs>
</svg>
