<svg width="369" height="332" viewBox="0 0 369 332" fill="none" xmlns="http://www.w3.org/2000/svg">
<g clip-path="url(#clip0_64_5549)">
<path d="M69.7706 126.064C53.5274 124.618 36.4112 131.801 27.3002 145.326C18.1891 158.851 18.325 178.389 28.7735 190.91C37.6783 201.581 52.6224 206.652 59.4138 218.778C67.4636 233.152 60.9036 250.968 61.42 267.434C62.2813 294.9 84.5385 318.678 110.746 326.939C136.953 335.2 165.87 330.11 190.993 318.976C207.371 311.717 224.061 299.957 227.335 282.344C228.552 275.801 227.76 269.052 228.417 262.43C229.075 255.807 231.658 248.759 237.461 245.502C245.144 241.191 255.009 245.363 261.383 251.445C267.757 257.527 272.326 265.431 279.31 270.801C294.413 282.412 317.818 278.346 331.31 264.897C344.803 251.449 349.445 231.052 347.805 212.072C346.568 197.753 340.516 181.963 327.064 176.902C322.633 175.235 317.633 174.846 313.756 172.128C307.789 167.945 306.42 159.554 307.531 152.352C308.642 145.15 311.667 138.322 312.482 131.081C314.371 114.286 302.449 97.0194 286.075 92.8359C272.695 89.4176 257.974 93.9384 245.014 89.173C232.196 84.4605 224.184 71.8365 218.285 59.5207C212.386 47.2044 207.287 33.8797 197.02 24.8759C187.121 16.1957 172.915 12.6944 160.115 15.7808C147.316 18.8672 136.268 28.4591 131.414 40.6973C126.878 52.1333 127.662 64.932 129.242 77.1328C131.622 95.5093 137.567 124.77 119.4 137.809C112.754 142.58 105.487 141.014 98.6746 137.422C89.0298 132.336 81.0174 127.066 69.7711 126.065L69.7706 126.064Z" fill="#CEE1F2" fill-opacity="0.2"/>
<path opacity="0.1" d="M110.542 38.623H52.4903C47.9369 38.623 44.2158 42.3441 44.2158 46.8975V96.4563C44.2158 100.966 47.9369 104.687 52.4903 104.687H110.542C115.052 104.687 118.773 100.966 118.773 96.4563V46.8975C118.773 42.3446 115.052 38.623 110.542 38.623ZM106.427 44.5332C108.573 44.5332 110.28 46.2409 110.28 48.3422C110.28 50.4434 108.573 52.1948 106.427 52.1948C104.282 52.1948 102.618 50.4434 102.618 48.3422C102.618 46.2409 104.326 44.5332 106.427 44.5332ZM96.0511 44.5332C98.1965 44.5332 99.9037 46.2409 99.9037 48.3422C99.9037 50.4434 98.1965 52.1948 96.0511 52.1948C93.9057 52.1948 92.2422 50.4434 92.2422 48.3422C92.2422 46.2409 93.9499 44.5332 96.0511 44.5332ZM85.6754 44.5332C87.7771 44.5332 89.528 46.2409 89.528 48.3422C89.528 50.4434 87.7771 52.1948 85.6754 52.1948C83.5737 52.1948 81.8665 50.4434 81.8665 48.3422C81.8665 46.2409 83.5742 44.5332 85.6754 44.5332ZM116.19 96.4558C116.19 99.5645 113.651 102.103 110.542 102.103H52.4903C49.3379 102.103 46.8426 99.564 46.8426 96.4558V58.3238H57.1751C57.4813 58.3238 57.788 58.1923 58.0506 57.9734L61.3339 55.0836H68.8645L71.6228 57.9293C71.8416 58.1481 72.192 58.3233 72.5419 58.3233H116.191V96.4554L116.19 96.4558Z" fill="#171A1F"/>
<path d="M106.339 34.2449H48.2869C43.7335 34.2449 40.0125 37.966 40.0125 42.5193V92.0782C40.0125 96.5878 43.7335 100.309 48.2869 100.309H106.339C110.848 100.309 114.569 96.5878 114.569 92.0782V42.5193C114.569 37.9665 110.848 34.2449 106.339 34.2449ZM102.224 40.1551C104.369 40.1551 106.077 41.8627 106.077 43.964C106.077 46.0652 104.369 47.8166 102.224 47.8166C100.078 47.8166 98.415 46.0652 98.415 43.964C98.415 41.8627 100.123 40.1551 102.224 40.1551ZM91.8477 40.1551C93.9931 40.1551 95.7003 41.8627 95.7003 43.964C95.7003 46.0652 93.9931 47.8166 91.8477 47.8166C89.7023 47.8166 88.0388 46.0652 88.0388 43.964C88.0388 41.8627 89.7465 40.1551 91.8477 40.1551ZM81.472 40.1551C83.5738 40.1551 85.3246 41.8627 85.3246 43.964C85.3246 46.0652 83.5738 47.8166 81.472 47.8166C79.3703 47.8166 77.6631 46.0652 77.6631 43.964C77.6631 41.8627 79.3708 40.1551 81.472 40.1551ZM111.987 92.0782C111.987 95.1864 109.447 97.7258 106.339 97.7258H48.2869C45.1345 97.7258 42.6392 95.1864 42.6392 92.0782V53.9461H52.9718C53.278 53.9461 53.5847 53.8146 53.8472 53.5958L57.1306 50.7059H64.6611L67.4194 53.5516C67.6383 53.7705 67.9886 53.9456 68.3385 53.9456H111.987V92.0777L111.987 92.0782Z" fill="white"/>
<g opacity="0.1">
<path d="M69.1597 280.841L55.0644 266.669L52.4118 269.359L49.1911 266.177C49.3429 266.025 49.4565 265.835 49.6079 265.646C56.6934 255.946 56.1252 242.646 47.6755 234.196C43.1663 229.725 37.1416 227.224 30.7758 227.224C24.4099 227.224 18.3474 229.725 13.8387 234.196C4.51748 243.555 4.51748 258.75 13.8387 268.072C18.3852 272.581 24.4104 275.043 30.7758 275.043C35.9289 275.043 40.855 273.149 45.2885 270.004C45.4777 269.89 45.6675 269.738 45.8189 269.587L48.9639 272.77L46.3119 275.385L60.4834 289.518C61.6578 290.693 63.1738 291.299 64.8407 291.299C66.5077 291.299 68.0237 290.655 69.1607 289.518C71.5477 287.131 71.5477 283.229 69.1607 280.842L69.1597 280.841ZM43.7725 264.131C40.3624 267.616 35.7397 269.549 30.7758 269.549C25.8119 269.549 21.1513 267.655 17.7413 264.168C14.2555 260.721 12.3605 256.06 12.3605 251.134C12.3605 246.208 14.255 241.547 17.7413 238.137C21.1518 234.652 25.774 232.719 30.7758 232.719C35.7775 232.719 40.3624 234.613 43.7725 238.099C47.2587 241.547 49.1532 246.208 49.1532 251.134C49.1532 256.06 47.2587 260.721 43.7725 264.131V264.131ZM49.9088 271.829L46.8016 268.721C47.6353 268.04 47.5775 268.081 48.2977 267.172L51.4806 270.317L49.9088 271.829V271.829Z" fill="#171A1F"/>
</g>
<path d="M65.3705 278.946L51.2752 264.775L48.6226 267.465L45.4019 264.282C45.5538 264.131 45.6673 263.941 45.8187 263.752C52.9042 254.051 52.336 240.751 43.8863 232.302C39.3772 227.83 33.3525 225.33 26.9866 225.33C20.6207 225.33 14.5582 227.831 10.0495 232.302C0.728297 241.661 0.728297 256.855 10.0495 266.177C14.5965 270.686 20.6212 273.149 26.9866 273.149C32.1397 273.149 37.0658 271.254 41.4993 268.109C41.6885 267.995 41.8783 267.844 42.0297 267.693L45.1748 270.875L42.5227 273.49L56.6942 287.624C57.8686 288.799 59.3846 289.405 61.0515 289.405C62.7185 289.405 64.2345 288.761 65.3715 287.624C67.7585 285.237 67.7585 281.334 65.3715 278.947L65.3705 278.946ZM39.9833 262.236C36.5732 265.722 31.9505 267.655 26.9866 267.655C22.0227 267.655 17.3621 265.76 13.9521 262.274C10.4663 258.826 8.57133 254.165 8.57133 249.239C8.57133 244.313 10.4659 239.653 13.9521 236.243C17.3626 232.757 21.9849 230.824 26.9866 230.824C31.9883 230.824 36.5732 232.719 39.9833 236.205C43.4695 239.653 45.364 244.313 45.364 249.239C45.364 254.165 43.4695 258.826 39.9833 262.237V262.236ZM46.1201 269.934L43.0129 266.827C43.8466 266.145 43.7888 266.187 44.509 265.278L47.6919 268.423L46.1201 269.934V269.934Z" fill="white"/>
<path d="M274.345 143.842C273.983 143.842 273.622 143.704 273.346 143.428C272.794 142.876 272.794 141.982 273.346 141.429L286.691 128.084C287.244 127.532 288.138 127.532 288.69 128.084C289.243 128.636 289.243 129.53 288.69 130.083L275.345 143.428C275.069 143.704 274.707 143.842 274.345 143.842H274.345Z" fill="#7696EA"/>
<path d="M287.69 143.842C287.328 143.842 286.967 143.704 286.691 143.428L273.345 130.083C272.793 129.53 272.793 128.636 273.345 128.084C273.897 127.532 274.792 127.532 275.344 128.084L288.689 141.429C289.242 141.982 289.242 142.876 288.689 143.428C288.413 143.704 288.052 143.842 287.69 143.842H287.69Z" fill="#7696EA"/>
<path d="M218.792 81.0464C214.297 81.0464 210.641 77.3898 210.641 72.8952C210.641 68.4006 214.297 64.7207 218.792 64.7207C223.286 64.7207 226.968 68.3884 226.968 72.8952C226.968 77.4019 223.3 81.0464 218.792 81.0464ZM218.792 67.5479C215.856 67.5479 213.468 69.9471 213.468 72.8957C213.468 75.8442 215.856 78.2196 218.792 78.2196C221.728 78.2196 224.141 75.8316 224.141 72.8957C224.141 69.9471 221.742 67.5479 218.792 67.5479Z" fill="#7696EA"/>
<path d="M151.427 96.9286C147.926 96.9286 145.078 94.0805 145.078 90.5802C145.078 87.0799 147.926 84.2139 151.427 84.2139C154.927 84.2139 157.794 87.0702 157.794 90.5802C157.794 94.0805 154.938 96.9286 151.427 96.9286ZM151.427 86.4156C149.14 86.4156 147.28 88.2839 147.28 90.5802C147.28 92.8765 149.14 94.7269 151.427 94.7269C153.714 94.7269 155.592 92.8668 155.592 90.5802C155.592 88.2936 153.724 86.4156 151.427 86.4156Z" fill="#7696EA"/>
<path d="M152.183 46.8259C151.913 46.8259 151.642 46.7225 151.435 46.5158L147.587 42.6695C147.174 42.256 147.174 41.5859 147.587 41.1724C148.001 40.7589 148.671 40.7589 149.085 41.1724L152.932 45.0187C153.345 45.4322 153.345 46.1023 152.932 46.5158C152.725 46.7225 152.454 46.8259 152.183 46.8259Z" fill="#7696EA"/>
<path d="M160.942 38.0666C160.672 38.0666 160.401 37.9632 160.194 37.7565L156.346 33.9102C155.933 33.4967 155.933 32.8266 156.346 32.4131C156.76 31.9997 157.43 31.9997 157.843 32.4131L161.691 36.2594C162.104 36.6729 162.104 37.343 161.691 37.7565C161.484 37.9632 161.213 38.0666 160.942 38.0666H160.942Z" fill="#7696EA"/>
<path d="M148.336 38.0666C148.065 38.0666 147.795 37.9632 147.587 37.7565C147.174 37.343 147.174 36.6729 147.587 36.2594L151.435 32.4131C151.848 31.9997 152.518 31.9997 152.932 32.4131C153.345 32.8266 153.345 33.4967 152.932 33.9102L149.085 37.7565C148.878 37.9632 148.607 38.0666 148.336 38.0666H148.336Z" fill="#7696EA"/>
<path d="M157.095 46.8259C156.824 46.8259 156.554 46.7225 156.346 46.5158C155.933 46.1023 155.933 45.4322 156.346 45.0187L160.194 41.1724C160.607 40.7589 161.277 40.7589 161.691 41.1724C162.104 41.5859 162.104 42.256 161.691 42.6695L157.843 46.5158C157.637 46.7225 157.366 46.8259 157.095 46.8259Z" fill="#7696EA"/>
<path d="M341.786 74.9091C341.516 74.9091 341.245 74.8058 341.038 74.599L337.191 70.7527C336.777 70.3393 336.777 69.6691 337.191 69.2556C337.604 68.8422 338.274 68.8422 338.688 69.2556L342.535 73.1015C342.949 73.5149 342.949 74.1851 342.535 74.5985C342.328 74.8053 342.058 74.9086 341.787 74.9086L341.786 74.9091Z" fill="#7696EA"/>
<path d="M350.545 66.1503C350.274 66.1503 350.004 66.047 349.797 65.8402L345.95 61.9939C345.536 61.5805 345.536 60.9103 345.95 60.4969C346.363 60.0834 347.033 60.0834 347.447 60.4969L351.294 64.3432C351.707 64.7566 351.707 65.4268 351.294 65.8402C351.087 66.047 350.816 66.1503 350.545 66.1503Z" fill="#7696EA"/>
<path d="M337.939 66.1503C337.668 66.1503 337.398 66.047 337.191 65.8402C336.777 65.4268 336.777 64.7566 337.191 64.3432L341.038 60.4969C341.452 60.0834 342.122 60.0834 342.535 60.4969C342.949 60.9103 342.949 61.5805 342.535 61.9939L338.688 65.8402C338.481 66.047 338.21 66.1503 337.939 66.1503Z" fill="#7696EA"/>
<path d="M346.698 74.9091C346.427 74.9091 346.156 74.8058 345.95 74.599C345.536 74.1856 345.536 73.5154 345.95 73.1019L349.797 69.2556C350.21 68.8422 350.881 68.8422 351.294 69.2556C351.708 69.6691 351.708 70.3393 351.294 70.7527L347.447 74.5985C347.24 74.8053 346.969 74.9086 346.699 74.9086L346.698 74.9091Z" fill="#7696EA"/>
<path d="M358.992 246.88C358.722 246.88 358.451 246.776 358.244 246.569L354.397 242.724C353.983 242.31 353.983 241.64 354.397 241.227C354.81 240.813 355.48 240.813 355.894 241.227L359.741 245.072C360.155 245.486 360.155 246.156 359.741 246.569C359.534 246.776 359.264 246.88 358.992 246.88Z" fill="#7696EA"/>
<path d="M367.751 238.12C367.481 238.12 367.21 238.017 367.003 237.81L363.156 233.964C362.742 233.551 362.742 232.881 363.156 232.467C363.569 232.054 364.239 232.054 364.653 232.467L368.5 236.313C368.914 236.727 368.914 237.397 368.5 237.81C368.293 238.017 368.023 238.12 367.751 238.12Z" fill="#7696EA"/>
<path d="M355.145 238.12C354.874 238.12 354.603 238.017 354.397 237.81C353.983 237.397 353.983 236.727 354.397 236.313L358.244 232.467C358.657 232.054 359.328 232.054 359.741 232.467C360.155 232.881 360.155 233.551 359.741 233.964L355.894 237.81C355.687 238.017 355.416 238.12 355.145 238.12Z" fill="#7696EA"/>
<path d="M363.904 246.88C363.633 246.88 363.363 246.776 363.156 246.569C362.742 246.156 362.742 245.486 363.156 245.072L367.003 241.227C367.417 240.813 368.087 240.813 368.5 241.227C368.914 241.64 368.914 242.31 368.5 242.724L364.653 246.569C364.446 246.776 364.175 246.88 363.904 246.88Z" fill="#7696EA"/>
<path d="M51.4481 198.782C51.1773 198.782 50.9066 198.678 50.6994 198.472L46.8521 194.626C46.4386 194.212 46.4386 193.542 46.8521 193.129C47.2655 192.715 47.9357 192.715 48.3492 193.129L52.1964 196.975C52.6099 197.388 52.6099 198.058 52.1964 198.472C51.9897 198.678 51.7189 198.782 51.4481 198.782Z" fill="#7696EA"/>
<path d="M60.2078 190.023C59.937 190.023 59.6662 189.92 59.459 189.713L55.6117 185.867C55.1983 185.454 55.1983 184.784 55.6117 184.37C56.0252 183.957 56.6953 183.957 57.1088 184.37L60.9561 188.216C61.3695 188.629 61.3695 189.3 60.9561 189.713C60.7493 189.92 60.4786 190.023 60.2078 190.023Z" fill="#7696EA"/>
<path d="M47.6009 190.023C47.3301 190.023 47.0593 189.92 46.8521 189.713C46.4386 189.3 46.4386 188.629 46.8521 188.216L50.6994 184.37C51.1128 183.957 51.783 183.957 52.1964 184.37C52.6099 184.784 52.6099 185.454 52.1964 185.867L48.3492 189.713C48.1424 189.92 47.8716 190.023 47.6009 190.023Z" fill="#7696EA"/>
<path d="M56.3605 198.782C56.0897 198.782 55.8189 198.678 55.6117 198.472C55.1983 198.058 55.1983 197.388 55.6117 196.975L59.459 193.129C59.8725 192.715 60.5426 192.715 60.9561 193.129C61.3695 193.542 61.3695 194.212 60.9561 194.626L57.1088 198.472C56.9021 198.678 56.6313 198.782 56.36 198.782H56.3605Z" fill="#7696EA"/>
<path opacity="0.1" d="M307.656 64.1428H259.883C259.262 64.1428 258.786 64.6179 258.786 65.2395V94.2984C258.786 94.9195 259.261 95.3951 259.883 95.3951H265.329V107.311C265.329 107.786 265.622 108.188 266.024 108.335C266.17 108.408 266.279 108.408 266.389 108.408C266.718 108.408 267.047 108.262 267.267 108.006L277.1 95.3956H307.657C308.242 95.3956 308.717 94.9205 308.717 94.2989V65.24C308.717 64.6189 308.242 64.1433 307.657 64.1433L307.656 64.1428ZM270.995 82.8939C268.4 82.8939 266.28 80.847 266.28 78.325C266.28 75.803 268.4 73.7925 270.995 73.7925C273.59 73.7925 275.674 75.8394 275.674 78.325C275.674 80.847 273.554 82.8939 270.995 82.8939ZM284.117 82.8939C281.522 82.8939 279.402 80.847 279.402 78.325C279.402 75.803 281.522 73.7925 284.117 73.7925C286.712 73.7925 288.796 75.8394 288.796 78.325C288.796 80.8106 286.675 82.8939 284.117 82.8939ZM296.545 82.8939C293.95 82.8939 291.866 80.847 291.866 78.325C291.866 75.803 293.95 73.7925 296.545 73.7925C299.14 73.7925 301.224 75.8394 301.224 78.325C301.224 80.8106 299.14 82.8939 296.545 82.8939Z" fill="#171A1F"/>
<path d="M304.001 60.4878H256.228C255.606 60.4878 255.131 60.9629 255.131 61.5845V90.6434C255.131 91.2645 255.606 91.7401 256.228 91.7401H261.674V103.656C261.674 104.131 261.966 104.533 262.368 104.679C262.515 104.753 262.624 104.753 262.734 104.753C263.063 104.753 263.392 104.607 263.612 104.351L273.444 91.7406H304.002C304.586 91.7406 305.061 91.2655 305.061 90.6438V61.585C305.061 60.9638 304.586 60.4883 304.002 60.4883L304.001 60.4878ZM267.34 79.2389C264.745 79.2389 262.624 77.192 262.624 74.67C262.624 72.148 264.745 70.1375 267.34 70.1375C269.935 70.1375 272.018 72.1844 272.018 74.67C272.018 77.1556 269.898 79.2389 267.34 79.2389ZM280.462 79.2389C277.867 79.2389 275.747 77.192 275.747 74.67C275.747 72.148 277.867 70.1375 280.462 70.1375C283.057 70.1375 285.141 72.1844 285.141 74.67C285.141 77.192 283.021 79.2389 280.462 79.2389ZM292.89 79.2389C290.294 79.2389 288.211 77.192 288.211 74.67C288.211 72.148 290.294 70.1375 292.89 70.1375C295.485 70.1375 297.568 72.1844 297.568 74.67C297.568 77.192 295.484 79.2389 292.89 79.2389Z" fill="white"/>
<path opacity="0.1" d="M38.0116 124.743C38.3319 124.416 38.3319 123.88 38.0116 123.553C37.6846 123.226 37.1483 123.226 36.8213 123.553C33.9824 126.405 29.3378 126.405 26.499 123.553C26.1719 123.226 25.6356 123.226 25.3086 123.553C24.9883 123.88 24.9883 124.416 25.3086 124.743C27.0619 126.49 29.3645 127.366 31.6604 127.366C33.9567 127.366 36.2588 126.49 38.0121 124.743H38.0116Z" fill="#171A1F"/>
<path opacity="0.1" d="M50.46 136.001C40.0916 146.383 23.2214 146.37 12.8661 136.001C12.539 135.674 12.0028 135.674 11.6757 136.001C11.3487 136.328 11.3487 136.864 11.6757 137.192C17.1904 142.699 24.4249 145.453 31.6667 145.453C38.9085 145.453 46.1367 142.699 51.6508 137.192C51.9711 136.864 51.9711 136.328 51.6508 136.001C51.3238 135.674 50.7875 135.674 50.4605 136.001H50.46Z" fill="#171A1F"/>
<path opacity="0.1" d="M17.8897 129.787C17.5695 130.114 17.5695 130.65 17.8897 130.977C21.6904 134.771 26.6752 136.669 31.6595 136.669C36.6437 136.669 41.6353 134.772 45.4292 130.977C45.7563 130.65 45.763 130.12 45.436 129.793C45.1089 129.466 44.579 129.459 44.2519 129.787C37.3047 136.734 26.0142 136.734 19.0801 129.787C18.7531 129.459 18.2168 129.459 17.8897 129.787V129.787Z" fill="#171A1F"/>
<path d="M36.707 122.714C37.0272 122.387 37.0272 121.85 36.707 121.523C36.3799 121.196 35.8437 121.196 35.5166 121.523C32.6777 124.375 28.0331 124.375 25.1943 121.523C24.8672 121.196 24.331 121.196 24.0039 121.523C23.6836 121.85 23.6836 122.387 24.0039 122.714C25.7572 124.46 28.0598 125.337 30.3557 125.337C32.6515 125.337 34.9546 124.46 36.7074 122.714H36.707Z" fill="#7696EA"/>
<path d="M49.1555 133.972C38.7871 144.353 21.917 144.34 11.5617 133.972C11.2346 133.645 10.6984 133.645 10.3713 133.972C10.0442 134.299 10.0442 134.835 10.3713 135.162C15.886 140.67 23.1205 143.424 30.3622 143.424C37.604 143.424 44.8322 140.67 50.3464 135.162C50.6667 134.835 50.6667 134.299 50.3464 133.972C50.0193 133.645 49.4826 133.645 49.1555 133.972Z" fill="#7696EA"/>
<path d="M16.5858 127.757C16.2655 128.084 16.2655 128.621 16.5858 128.948C20.3865 132.742 25.3712 134.639 30.3555 134.639C35.3398 134.639 40.3313 132.742 44.1252 128.948C44.4523 128.621 44.4591 128.091 44.132 127.764C43.8049 127.437 43.275 127.43 42.9479 127.757C36.0007 134.704 24.7103 134.704 17.7762 127.757C17.4491 127.43 16.9129 127.43 16.5858 127.757V127.757Z" fill="#7696EA"/>
<path d="M18.8994 180.029C18.9465 178.619 17.8413 177.437 16.431 177.39C15.0207 177.343 13.8393 178.448 13.7923 179.859C13.7453 181.269 14.8504 182.45 16.2607 182.497C17.671 182.544 18.8524 181.439 18.8994 180.029Z" fill="#7696EA"/>
<path d="M18.8994 189.637C18.9465 188.226 17.8413 187.045 16.431 186.998C15.0207 186.951 13.8393 188.056 13.7923 189.466C13.7453 190.877 14.8504 192.058 16.2607 192.105C17.671 192.152 18.8524 191.047 18.8994 189.637Z" fill="#7696EA"/>
<path d="M17.2957 201.529C18.6097 201.015 19.2579 199.533 18.7434 198.219C18.229 196.905 16.7468 196.257 15.4329 196.771C14.1189 197.285 13.4707 198.768 13.9851 200.082C14.4995 201.396 15.9817 202.044 17.2957 201.529Z" fill="#7696EA"/>
<path d="M333.568 102.035C334.979 102.035 336.123 100.891 336.123 99.4803C336.123 98.0692 334.979 96.9253 333.568 96.9253C332.157 96.9253 331.013 98.0692 331.013 99.4803C331.013 100.891 332.157 102.035 333.568 102.035Z" fill="#7696EA"/>
<path d="M333.566 111.644C334.977 111.644 336.121 110.5 336.121 109.089C336.121 107.678 334.977 106.534 333.566 106.534C332.155 106.534 331.011 107.678 331.011 109.089C331.011 110.5 332.155 111.644 333.566 111.644Z" fill="#7696EA"/>
<path d="M333.566 121.251C334.977 121.251 336.121 120.107 336.121 118.696C336.121 117.285 334.977 116.141 333.566 116.141C332.155 116.141 331.011 117.285 331.011 118.696C331.011 120.107 332.155 121.251 333.566 121.251Z" fill="#7696EA"/>
<path d="M205.608 17.0856L213.608 27.3759H207.643L199.671 17.0856L207.643 6.82349H213.608L205.608 17.0856Z" fill="#7696EA"/>
<path d="M238.232 17.0856L230.231 27.3759H236.196L244.197 17.0856L236.196 6.82349H230.231L238.232 17.0856Z" fill="#7696EA"/>
<path d="M219.42 32.5242L231.187 0H227.141L215.375 32.5242H219.42Z" fill="#7696EA"/>
<path d="M33.4908 84.0284C32.7178 84.0284 32.0898 83.3946 32.0898 82.6162V51.9278C32.0898 51.1548 32.7178 50.5254 33.4908 50.5254C34.2639 50.5254 34.903 51.1548 34.903 51.9278V82.6162C34.903 83.3946 34.2692 84.0284 33.4908 84.0284Z" fill="#7696EA"/>
<path d="M362.937 218.412C362.292 218.412 361.769 217.884 361.769 217.234V191.654C361.769 191.009 362.292 190.485 362.937 190.485C363.581 190.485 364.114 191.009 364.114 191.654V217.234C364.114 217.883 363.586 218.411 362.937 218.411V218.412Z" fill="#7696EA"/>
<path d="M362.937 188.731C362.292 188.731 361.769 188.203 361.769 187.554V178.26C361.769 177.615 362.292 177.091 362.937 177.091C363.581 177.091 364.114 177.615 364.114 178.26V187.554C364.114 188.203 363.586 188.731 362.937 188.731Z" fill="#7696EA"/>
<path d="M170.942 68.7049C169.533 68.7049 168.387 67.5582 168.387 66.15C168.387 64.7417 169.533 63.595 170.942 63.595C172.35 63.595 173.497 64.7417 173.497 66.15C173.497 67.5582 172.349 68.7049 170.942 68.7049Z" fill="#7696EA"/>
<path d="M161.335 68.7054C159.926 68.7054 158.78 67.5587 158.78 66.1504C158.78 64.7422 159.926 63.5955 161.335 63.5955C162.743 63.5955 163.89 64.7422 163.89 66.1504C163.89 67.5587 162.743 68.7054 161.335 68.7054Z" fill="#7696EA"/>
<path d="M151.728 68.7054C150.32 68.7054 149.173 67.5587 149.173 66.1504C149.173 64.7422 150.32 63.5955 151.728 63.5955C153.136 63.5955 154.283 64.7422 154.283 66.1504C154.283 67.5587 153.136 68.7054 151.728 68.7054Z" fill="#7696EA"/>
<path d="M278.451 262.305C277.748 262.305 277.178 261.729 277.178 261.022V249.41C277.178 248.707 277.748 248.136 278.451 248.136C279.153 248.136 279.734 248.707 279.734 249.41V261.022C279.734 261.729 279.158 262.305 278.451 262.305Z" fill="#7696EA"/>
<path d="M278.451 295.725C277.748 295.725 277.178 295.149 277.178 294.442V269.11C277.178 268.408 277.748 267.836 278.451 267.836C279.153 267.836 279.734 268.408 279.734 269.11V294.442C279.734 295.149 279.158 295.725 278.451 295.725Z" fill="#7696EA"/>
<path d="M278.446 310.133C276.072 310.133 274.14 308.2 274.14 305.826C274.14 303.452 276.072 301.499 278.446 301.499C280.821 301.499 282.773 303.439 282.773 305.826C282.773 308.213 280.832 310.133 278.446 310.133Z" fill="#7696EA"/>
<path opacity="0.1" d="M342.774 271.175C343.044 270.9 343.044 270.448 342.774 270.173C342.499 269.898 342.047 269.898 341.772 270.173C339.383 272.573 335.474 272.573 333.085 270.173C332.81 269.898 332.358 269.898 332.083 270.173C331.813 270.448 331.813 270.9 332.083 271.175C333.558 272.645 335.496 273.382 337.429 273.382C339.361 273.382 341.299 272.645 342.774 271.175H342.774Z" fill="#171A1F"/>
<path opacity="0.1" d="M353.25 280.649C344.525 289.385 330.327 289.374 321.613 280.649C321.338 280.374 320.886 280.374 320.611 280.649C320.336 280.924 320.336 281.375 320.611 281.651C325.251 286.286 331.34 288.604 337.434 288.604C343.528 288.604 349.611 286.286 354.252 281.651C354.522 281.376 354.522 280.924 354.252 280.649C353.977 280.374 353.526 280.374 353.25 280.649H353.25Z" fill="#171A1F"/>
<path opacity="0.1" d="M325.84 275.419C325.57 275.694 325.57 276.145 325.84 276.421C329.039 279.614 333.233 281.21 337.428 281.21C341.623 281.21 345.823 279.614 349.016 276.421C349.291 276.146 349.297 275.7 349.021 275.425C348.746 275.15 348.3 275.144 348.025 275.419C342.179 281.266 332.677 281.266 326.842 275.419C326.567 275.144 326.115 275.144 325.84 275.419L325.84 275.419Z" fill="#171A1F"/>
<path d="M341.677 269.467C341.947 269.192 341.947 268.74 341.677 268.465C341.402 268.19 340.95 268.19 340.675 268.465C338.286 270.865 334.377 270.865 331.988 268.465C331.713 268.19 331.261 268.19 330.986 268.465C330.716 268.74 330.716 269.192 330.986 269.467C332.461 270.937 334.399 271.674 336.331 271.674C338.263 271.674 340.201 270.937 341.676 269.467H341.677Z" fill="#7696EA"/>
<path d="M352.153 278.941C343.427 287.677 329.23 287.666 320.515 278.941C320.24 278.666 319.788 278.666 319.513 278.941C319.238 279.216 319.238 279.667 319.513 279.943C324.154 284.578 330.242 286.896 336.337 286.896C342.431 286.896 348.514 284.578 353.154 279.943C353.424 279.668 353.424 279.216 353.154 278.941C352.879 278.666 352.428 278.666 352.152 278.941H352.153Z" fill="#7696EA"/>
<path d="M324.743 273.711C324.474 273.986 324.474 274.437 324.743 274.713C327.942 277.906 332.137 279.502 336.331 279.502C340.526 279.502 344.727 277.905 347.919 274.713C348.194 274.438 348.2 273.992 347.925 273.717C347.649 273.441 347.203 273.436 346.928 273.711C341.082 279.558 331.58 279.558 325.745 273.711C325.47 273.436 325.019 273.436 324.743 273.711L324.743 273.711Z" fill="#7696EA"/>
<path d="M4.30683 85.364C1.93237 85.364 0 83.4316 0 81.0557C0 78.6798 1.93237 76.7295 4.30683 76.7295C6.68128 76.7295 8.63307 78.6701 8.63307 81.0557C8.63307 83.4413 6.69245 85.364 4.30683 85.364Z" fill="#7696EA"/>
<path d="M28.7085 30.5968C25.3092 30.5968 22.5421 27.8297 22.5421 24.4284C22.5421 21.0271 25.3092 18.2344 28.7085 18.2344C32.1079 18.2344 34.9026 21.0131 34.9026 24.4284C34.9026 27.8438 32.1239 30.5968 28.7085 30.5968Z" fill="#7696EA"/>
<path d="M92.2293 129.474C87.7347 129.474 84.0781 125.818 84.0781 121.323C84.0781 116.828 87.7347 113.148 92.2293 113.148C96.7239 113.148 100.405 116.816 100.405 121.323C100.405 125.83 96.7375 129.474 92.2293 129.474ZM92.2293 115.976C89.2934 115.976 86.9053 118.375 86.9053 121.323C86.9053 124.272 89.2934 126.647 92.2293 126.647C95.1652 126.647 97.5785 124.259 97.5785 121.323C97.5785 118.375 95.1793 115.976 92.2293 115.976Z" fill="#7696EA"/>
<path opacity="0.1" d="M340.047 186.828C339.253 190.307 337.421 193.025 334.312 194.934C331.134 196.884 327.825 197.408 324.246 196.496C323.765 196.373 323.269 196.052 322.794 196.494C322.254 196.995 322.082 196.599 321.907 196.157C321.389 194.841 320.88 193.526 320.34 192.221C320.042 191.501 320.283 191.28 321.008 191.371C322.406 191.543 323.809 191.692 325.209 191.854C325.502 191.887 325.892 191.882 325.872 192.288C325.836 193.03 326.37 192.845 326.748 192.871C328.898 193.023 330.763 192.214 332.539 191.119H332.541C342.263 181.944 328.7 167.852 317.873 180.585C314.823 184.208 314.86 184.793 318.202 188.185C320.155 190.166 320.137 190.148 318.123 192.018C317.575 192.524 317.175 192.548 316.584 192.113C315.135 191.055 313.724 189.95 312.435 188.707C312.078 188.362 311.777 188.224 311.487 188.244C311.196 188.224 310.896 188.362 310.538 188.707C309.249 189.95 307.838 191.055 306.389 192.113C305.798 192.548 305.397 192.524 304.85 192.018C302.836 190.148 302.818 190.166 304.771 188.185C308.113 184.793 308.149 184.208 305.1 180.585C294.273 167.852 280.71 181.944 290.432 191.119H290.434C292.21 192.213 294.075 193.023 296.225 192.871C296.603 192.845 297.137 193.03 297.101 192.288C297.081 191.882 297.471 191.887 297.764 191.854C299.164 191.692 300.567 191.543 301.965 191.371C302.689 191.281 302.931 191.502 302.633 192.221C302.093 193.526 301.585 194.841 301.066 196.157C300.891 196.599 300.719 196.995 300.179 196.494C299.704 196.052 299.208 196.373 298.728 196.496C295.149 197.408 291.84 196.884 288.661 194.934C285.552 193.025 283.721 190.307 282.927 186.828C280.642 174.496 294.152 167.047 303.802 174.403C306.075 176.063 308.298 177.795 310.338 179.737C310.759 180.138 311.119 180.346 311.487 180.32C311.854 180.346 312.214 180.138 312.635 179.737C314.675 177.794 316.897 176.063 319.171 174.403C328.822 167.047 342.331 174.496 340.047 186.828Z" fill="#171A1F"/>
<path d="M335.831 184.092C335.037 187.571 333.205 190.289 330.097 192.198C326.919 194.148 323.609 194.672 320.03 193.76C319.55 193.637 319.054 193.316 318.579 193.758C318.039 194.259 317.867 193.863 317.692 193.421C317.173 192.105 316.664 190.79 316.125 189.485C315.827 188.766 316.068 188.544 316.793 188.635C318.19 188.807 319.593 188.956 320.993 189.117C321.286 189.151 321.677 189.146 321.656 189.552C321.62 190.294 322.155 190.109 322.532 190.135C324.682 190.287 326.548 189.478 328.323 188.383H328.326C338.048 179.208 324.485 165.116 313.658 177.849C310.608 181.471 310.644 182.057 313.987 185.449C315.94 187.43 315.922 187.412 313.907 189.282C313.36 189.788 312.959 189.811 312.369 189.377C310.919 188.319 309.509 187.214 308.219 185.97C307.862 185.626 307.562 185.488 307.271 185.508C306.981 185.488 306.68 185.626 306.323 185.97C305.033 187.214 303.623 188.319 302.174 189.377C301.583 189.811 301.182 189.788 300.635 189.282C298.621 187.412 298.603 187.43 300.555 185.449C303.898 182.057 303.934 181.471 300.884 177.849C290.057 165.116 276.494 179.208 286.216 188.383H286.219C287.994 189.477 289.859 190.287 292.01 190.135C292.388 190.109 292.922 190.294 292.886 189.552C292.866 189.146 293.256 189.151 293.549 189.117C294.949 188.956 296.352 188.806 297.75 188.635C298.474 188.545 298.716 188.766 298.418 189.485C297.878 190.79 297.37 192.105 296.851 193.421C296.676 193.863 296.504 194.259 295.964 193.758C295.489 193.316 294.993 193.637 294.513 193.76C290.934 194.672 287.625 194.148 284.446 192.198C281.338 190.289 279.506 187.571 278.712 184.092C276.427 171.76 289.937 164.312 299.587 171.667C301.861 173.327 304.083 175.059 306.123 177.001C306.544 177.401 306.904 177.61 307.272 177.584C307.639 177.61 307.999 177.401 308.42 177.001C310.46 175.058 312.682 173.327 314.956 171.667C324.607 164.311 338.116 171.76 335.832 184.092H335.831Z" fill="white"/>
<g opacity="0.1">
<path d="M169.896 242.589V247.395C169.896 251.635 166.447 255.084 162.207 255.084H90.6274C86.387 255.084 82.9658 251.635 82.9658 247.395V242.589C82.9658 241.43 83.9271 240.469 85.086 240.469H89.553C89.5248 240.242 89.468 240.017 89.468 239.762V196.905C89.468 194.162 91.7013 191.929 94.4436 191.929H158.419C161.133 191.929 163.366 194.162 163.366 196.905V239.762C163.366 240.017 163.31 240.243 163.281 240.469H167.776C168.935 240.469 169.896 241.43 169.896 242.589H169.896Z" fill="#171A1F"/>
<path d="M142.729 155.093V148.986C142.729 147.997 143.379 147.177 144.341 146.923L148.496 145.849C149.09 143.531 149.995 141.325 151.21 139.262L149.033 135.587C148.524 134.739 148.665 133.693 149.343 133.014L153.697 128.66C154.377 127.982 155.422 127.84 156.27 128.349L159.945 130.526C162.009 129.31 164.214 128.378 166.532 127.812L167.607 123.657C167.86 122.696 168.681 122.045 169.67 122.045H175.776C176.766 122.045 177.614 122.696 177.84 123.657L178.915 127.812C181.233 128.378 183.437 129.31 185.501 130.526L189.176 128.349C190.025 127.84 191.071 127.982 191.777 128.66L196.102 133.014C196.782 133.693 196.922 134.738 196.414 135.587L194.237 139.262C195.452 141.325 196.385 143.531 196.979 145.849L201.134 146.923C202.068 147.178 202.718 147.998 202.718 148.986V155.093C202.718 156.082 202.068 156.93 201.134 157.157L196.979 158.231C196.386 160.549 195.452 162.754 194.237 164.818L196.414 168.493C196.922 169.341 196.782 170.387 196.102 171.094L191.777 175.419C191.071 176.097 190.025 176.239 189.176 175.73L185.501 173.553C183.437 174.769 181.233 175.701 178.914 176.295L177.839 180.423C177.613 181.384 176.765 182.034 175.776 182.034H169.67C168.68 182.034 167.86 181.384 167.606 180.423L166.531 176.295C164.214 175.701 162.009 174.769 159.944 173.553L156.27 175.73C155.421 176.239 154.376 176.097 153.697 175.419L149.343 171.094C148.665 170.387 148.524 169.341 149.032 168.493L151.209 164.818C149.994 162.754 149.089 160.549 148.496 158.231L144.34 157.157C143.379 156.93 142.729 156.082 142.729 155.093H142.729Z" fill="#171A1F"/>
<path d="M209.22 152.04C209.22 150.881 210.181 149.92 211.34 149.92H227.596C228.755 149.92 229.716 150.881 229.716 152.04V177.37L232.656 174.176C233.447 173.327 234.804 173.271 235.653 174.063C236.5 174.854 236.557 176.211 235.765 177.059L229.151 184.212C228.755 184.664 228.189 184.89 227.596 184.89C227.002 184.89 226.436 184.664 226.041 184.212L219.454 177.059C218.662 176.211 218.719 174.855 219.567 174.063C220.443 173.271 221.772 173.327 222.563 174.176L225.475 177.342V154.161H211.34C210.181 154.161 209.22 153.2 209.22 152.04L209.22 152.04Z" fill="#171A1F"/>
<path d="M262.48 242.589V247.395C262.48 251.635 259.031 255.084 254.791 255.084H183.212C179 255.084 175.55 251.635 175.55 247.395V242.589C175.55 241.43 176.511 240.469 177.67 240.469H182.137C182.109 240.242 182.08 240.017 182.08 239.762V196.905C182.08 194.162 184.285 191.929 187.028 191.929H251.003C253.717 191.929 255.95 194.162 255.95 196.905V239.762C255.95 240.017 255.922 240.243 255.865 240.469H260.36C261.52 240.469 262.48 241.43 262.48 242.589Z" fill="#171A1F"/>
<path d="M109.681 177.059C108.89 176.211 108.946 174.854 109.794 174.062C110.67 173.271 111.999 173.327 112.79 174.175L115.731 177.369V152.039C115.731 150.881 116.692 149.919 117.851 149.919H134.106C135.294 149.919 136.226 150.881 136.226 152.039C136.226 153.198 135.294 154.16 134.106 154.16H119.971V177.341L122.883 174.175C123.674 173.326 125.031 173.27 125.879 174.062C126.727 174.853 126.783 176.21 125.992 177.058L119.433 184.211C119.009 184.663 118.472 184.889 117.879 184.889H117.85C117.285 184.889 116.72 184.663 116.296 184.211L109.681 177.058L109.681 177.059Z" fill="#171A1F"/>
</g>
<path d="M146.693 150.422C147.229 153.134 148.278 155.663 149.807 157.943C150.263 158.622 150.287 159.503 149.87 160.207L147.86 163.594L149.865 165.598L153.252 163.588C153.956 163.177 154.837 163.199 155.516 163.652C157.796 165.184 160.328 166.23 163.036 166.766C163.837 166.923 164.477 167.528 164.679 168.32L165.653 172.135H168.489L169.463 168.32C169.664 167.528 170.305 166.923 171.106 166.766C173.817 166.23 176.346 165.181 178.626 163.652C179.305 163.199 180.189 163.177 180.89 163.588L184.277 165.598L186.281 163.594L184.271 160.207C183.854 159.503 183.879 158.622 184.335 157.943C185.864 155.663 186.913 153.134 187.449 150.422C187.606 149.622 188.211 148.981 189.003 148.78L192.821 147.805V144.97L189.003 143.996C188.211 143.794 187.606 143.154 187.449 142.353C186.913 139.645 185.867 137.113 184.335 134.833C183.879 134.153 183.854 133.273 184.271 132.569L186.281 129.181L184.277 127.177L180.89 129.187C180.189 129.599 179.305 129.576 178.626 129.124C176.346 127.594 173.817 126.545 171.106 126.01C170.305 125.852 169.664 125.248 169.463 124.455L168.489 120.637H165.653L164.679 124.455C164.477 125.248 163.837 125.852 163.036 126.01C160.328 126.545 157.796 127.592 155.516 129.124C154.836 129.576 153.956 129.598 153.252 129.187L149.865 127.177L147.86 129.181L149.87 132.569C150.287 133.273 150.263 134.154 149.807 134.833C148.275 137.113 147.228 139.645 146.693 142.353C146.536 143.154 145.931 143.794 145.138 143.996L141.32 144.97V147.805L145.138 148.78C145.931 148.981 146.536 149.622 146.693 150.422ZM167.07 129.204C176.545 129.204 184.256 136.912 184.256 146.386C184.256 155.861 176.545 163.572 167.07 163.572C157.595 163.572 149.887 155.861 149.887 146.386C149.887 136.912 157.596 129.204 167.071 129.204H167.07Z" fill="#1A468F"/>
<path d="M88.7605 234.827H113.029C113.573 234.827 114.094 235.037 114.489 235.41L116.684 237.494H124.842L127.034 235.41C127.429 235.037 127.95 234.827 128.494 234.827H152.781C153.152 234.811 153.462 234.497 153.462 234.118V191.246C153.462 190.849 153.145 190.525 152.755 190.525H88.7862C88.3887 190.525 88.0656 190.849 88.0656 191.246V234.118C88.0656 234.497 88.3839 234.811 88.76 234.827H88.7605ZM101.111 200.944H140.426C141.597 200.944 142.547 201.894 142.547 203.064C142.547 204.235 141.597 205.185 140.426 205.185H101.111C99.9403 205.185 98.9906 204.235 98.9906 203.064C98.9906 201.894 99.9403 200.944 101.111 200.944ZM101.111 211.681H140.426C141.597 211.681 142.547 212.631 142.547 213.801C142.547 214.972 141.597 215.921 140.426 215.921H101.111C99.9403 215.921 98.9906 214.972 98.9906 213.801C98.9906 212.631 99.9403 211.681 101.111 211.681ZM101.111 222.415H140.426C141.597 222.415 142.547 223.365 142.547 224.535C142.547 225.705 141.597 226.655 140.426 226.655H101.111C99.9403 226.655 98.9906 225.705 98.9906 224.535C98.9906 223.365 99.9403 222.415 101.111 222.415Z" fill="white"/>
<path d="M152.756 239.079C152.736 239.079 152.72 239.068 152.701 239.067H129.342L127.15 241.152C126.755 241.524 126.233 241.734 125.689 241.734H115.836C115.292 241.734 114.771 241.524 114.376 241.152L112.181 239.067H88.8415C88.8221 239.067 88.806 239.079 88.7866 239.079C88.7493 239.079 88.7148 239.068 88.6774 239.067H81.5536V241.748C81.5536 243.642 83.0832 245.185 84.9631 245.185H156.563C158.457 245.185 159.998 243.642 159.998 241.748V239.067H152.865C152.828 239.068 152.793 239.079 152.756 239.079H152.756Z" fill="#1A468F"/>
<path d="M167.07 159.332C174.21 159.332 180.016 153.526 180.016 146.386C180.016 139.247 174.21 133.444 167.07 133.444C159.931 133.444 154.128 139.25 154.128 146.386C154.128 153.526 159.934 159.332 167.07 159.332Z" fill="white"/>
<path d="M245.346 239.079C245.326 239.079 245.31 239.068 245.291 239.067H221.932L219.74 241.152C219.345 241.524 218.823 241.734 218.279 241.734H208.426C207.882 241.734 207.36 241.524 206.965 241.152L204.77 239.067H181.43C181.411 239.067 181.395 239.079 181.376 239.079C181.338 239.079 181.304 239.068 181.266 239.067H174.143V241.748C174.143 243.642 175.672 245.185 177.552 245.185H249.149C251.043 245.185 252.587 243.642 252.587 241.748V239.067H245.454C245.417 239.068 245.382 239.079 245.345 239.079H245.346Z" fill="#1A468F"/>
<path d="M181.351 234.827H205.619C206.163 234.827 206.685 235.037 207.08 235.41L209.274 237.494H217.432L219.624 235.41C220.019 235.037 220.541 234.827 221.085 234.827H245.372C245.743 234.811 246.053 234.497 246.053 234.118V191.246C246.053 190.849 245.736 190.525 245.346 190.525H181.377C180.979 190.525 180.656 190.849 180.656 191.246V234.118C180.656 234.497 180.975 234.811 181.351 234.827ZM193.7 200.944H233.016C234.187 200.944 235.136 201.894 235.136 203.064C235.136 204.235 234.187 205.185 233.016 205.185H193.7C192.53 205.185 191.58 204.235 191.58 203.064C191.58 201.894 192.53 200.944 193.7 200.944ZM193.7 211.681H233.016C234.187 211.681 235.136 212.631 235.136 213.801C235.136 214.972 234.187 215.921 233.016 215.921H193.7C192.53 215.921 191.58 214.972 191.58 213.801C191.58 212.631 192.53 211.681 193.7 211.681ZM193.7 222.415H233.016C234.187 222.415 235.136 223.365 235.136 224.535C235.136 225.705 234.187 226.655 233.016 226.655H193.7C192.53 226.655 191.58 225.705 191.58 224.535C191.58 223.365 192.53 222.415 193.7 222.415Z" fill="white"/>
<path d="M138.676 151.505L142.831 152.568C143.421 154.895 144.335 157.104 145.561 159.16L143.372 162.846C142.878 163.68 143.013 164.743 143.697 165.427L148.032 169.762C148.719 170.449 149.779 170.576 150.613 170.087L154.299 167.898C156.355 169.124 158.564 170.038 160.891 170.629L161.954 174.781C162.194 175.72 163.039 176.377 164.008 176.377H170.134C171.103 176.377 171.948 175.72 172.188 174.781L173.251 170.629C175.578 170.038 177.787 169.125 179.844 167.899L183.529 170.088C184.36 170.577 185.423 170.449 186.11 169.762L190.445 165.428C191.13 164.743 191.265 163.68 190.771 162.847L188.581 159.161C189.807 157.104 190.721 154.895 191.312 152.568L195.467 151.506C196.405 151.266 197.062 150.421 197.062 149.452V143.325C197.062 142.356 196.405 141.511 195.467 141.271L191.312 140.209C190.721 137.881 189.807 135.673 188.581 133.616L190.771 129.93C191.265 129.097 191.13 128.034 190.445 127.349L186.11 123.015C185.423 122.327 184.36 122.2 183.529 122.689L179.844 124.878C177.787 123.652 175.578 122.739 173.251 122.148L172.188 117.993C171.948 117.055 171.103 116.397 170.134 116.397H164.008C163.039 116.397 162.194 117.055 161.954 117.993L160.891 122.148C158.564 122.739 156.355 123.652 154.299 124.878L150.613 122.689C149.779 122.2 148.719 122.328 148.032 123.015L143.697 127.349C143.013 128.034 142.877 129.097 143.372 129.93L145.561 133.616C144.335 135.673 143.421 137.882 142.831 140.209L138.676 141.271C137.737 141.511 137.08 142.356 137.08 143.325V149.452C137.08 150.421 137.737 151.266 138.676 151.506V151.505ZM141.32 144.971L145.139 143.996C145.931 143.795 146.536 143.154 146.693 142.353C147.229 139.645 148.275 137.113 149.807 134.833C150.263 134.154 150.287 133.273 149.871 132.569L147.86 129.182L149.865 127.178L153.252 129.188C153.956 129.599 154.837 129.577 155.516 129.124C157.796 127.592 160.328 126.546 163.036 126.01C163.837 125.853 164.477 125.248 164.679 124.456L165.653 120.638H168.489L169.463 124.456C169.664 125.248 170.305 125.853 171.106 126.01C173.817 126.546 176.346 127.595 178.626 129.124C179.305 129.577 180.189 129.599 180.89 129.188L184.277 127.178L186.281 129.182L184.271 132.569C183.854 133.273 183.879 134.154 184.335 134.833C185.867 137.113 186.914 139.645 187.449 142.353C187.606 143.154 188.211 143.795 189.003 143.996L192.821 144.971V147.806L189.003 148.78C188.211 148.982 187.606 149.622 187.449 150.423C186.913 153.134 185.864 155.663 184.335 157.943C183.879 158.623 183.854 159.503 184.271 160.207L186.281 163.594L184.277 165.599L180.89 163.589C180.189 163.177 179.305 163.199 178.626 163.652C176.346 165.182 173.817 166.231 171.106 166.766C170.305 166.923 169.664 167.528 169.463 168.321L168.489 172.136H165.653L164.679 168.321C164.477 167.528 163.837 166.923 163.036 166.766C160.328 166.23 157.796 165.184 155.516 163.652C154.836 163.199 153.956 163.178 153.252 163.589L149.865 165.599L147.86 163.594L149.871 160.207C150.287 159.503 150.263 158.622 149.807 157.943C148.277 155.663 147.228 153.134 146.693 150.423C146.536 149.622 145.931 148.982 145.139 148.78L141.32 147.806V144.971Z" fill="#7696EA"/>
<path d="M167.07 163.572C176.546 163.572 184.256 155.861 184.256 146.387C184.256 136.912 176.546 129.204 167.07 129.204C157.595 129.204 149.888 136.912 149.888 146.387C149.888 155.861 157.596 163.572 167.071 163.572H167.07ZM167.07 133.444C174.21 133.444 180.016 139.25 180.016 146.387C180.016 153.523 174.21 159.332 167.07 159.332C159.931 159.332 154.128 153.526 154.128 146.387C154.128 139.25 159.934 133.444 167.07 133.444Z" fill="#7696EA"/>
<path d="M254.707 234.827H250.222C250.256 234.593 250.293 234.361 250.293 234.118V191.246C250.293 188.51 248.074 186.285 245.346 186.285H181.377C178.641 186.285 176.416 188.51 176.416 191.246V234.118C176.416 234.361 176.454 234.593 176.488 234.827H172.024C170.853 234.827 169.903 235.777 169.903 236.947V241.748C169.903 245.98 173.335 249.426 177.553 249.426H249.151C253.383 249.426 256.828 245.98 256.828 241.748V236.947C256.828 235.777 255.878 234.827 254.708 234.827H254.707ZM180.656 191.246C180.656 190.848 180.979 190.525 181.377 190.525H245.346C245.735 190.525 246.053 190.848 246.053 191.246V234.118C246.053 234.497 245.742 234.811 245.372 234.827H221.085C220.541 234.827 220.019 235.037 219.624 235.409L217.432 237.494H209.274L207.079 235.409C206.684 235.037 206.162 234.827 205.618 234.827H181.35C180.974 234.811 180.656 234.497 180.656 234.118V191.246H180.656ZM252.587 241.748C252.587 243.642 251.044 245.185 249.15 245.185H177.553C175.673 245.185 174.143 243.642 174.143 241.748V239.067H181.267C181.305 239.068 181.339 239.079 181.376 239.079C181.396 239.079 181.412 239.068 181.431 239.067H204.771L206.966 241.152C207.36 241.524 207.883 241.734 208.427 241.734H218.28C218.824 241.734 219.345 241.524 219.74 241.152L221.932 239.067H245.292C245.311 239.067 245.327 239.079 245.346 239.079C245.384 239.079 245.418 239.068 245.455 239.067H252.588V241.748H252.587Z" fill="#7696EA"/>
<path d="M193.7 205.185H233.016C234.187 205.185 235.136 204.235 235.136 203.065C235.136 201.894 234.187 200.945 233.016 200.945H193.7C192.53 200.945 191.58 201.894 191.58 203.065C191.58 204.235 192.53 205.185 193.7 205.185Z" fill="#7696EA"/>
<path d="M193.7 215.921H233.016C234.187 215.921 235.136 214.972 235.136 213.801C235.136 212.631 234.187 211.681 233.016 211.681H193.7C192.53 211.681 191.58 212.631 191.58 213.801C191.58 214.972 192.53 215.921 193.7 215.921Z" fill="#7696EA"/>
<path d="M193.7 226.655H233.016C234.187 226.655 235.136 225.705 235.136 224.535C235.136 223.365 234.187 222.415 233.016 222.415H193.7C192.53 222.415 191.58 223.365 191.58 224.535C191.58 225.705 192.53 226.655 193.7 226.655Z" fill="#7696EA"/>
<path d="M162.117 234.827H157.632C157.666 234.593 157.703 234.361 157.703 234.118V191.246C157.703 188.51 155.484 186.285 152.756 186.285H88.7869C86.0509 186.285 83.8259 188.51 83.8259 191.246V234.118C83.8259 234.361 83.8637 234.593 83.8977 234.827H79.4337C78.2632 234.827 77.3135 235.777 77.3135 236.947V241.748C77.3135 245.98 80.7449 249.426 84.9634 249.426H156.563C160.796 249.426 164.239 245.98 164.239 241.748V236.947C164.239 235.777 163.289 234.827 162.118 234.827H162.117ZM88.0657 191.246C88.0657 190.848 88.3889 190.525 88.7864 190.525H152.756C153.145 190.525 153.462 190.848 153.462 191.246V234.118C153.462 234.497 153.151 234.811 152.781 234.827H128.494C127.95 234.827 127.428 235.037 127.034 235.409L124.842 237.494H116.684L114.489 235.409C114.094 235.037 113.572 234.827 113.029 234.827H88.7607C88.3846 234.811 88.0662 234.497 88.0662 234.118V191.246H88.0657ZM159.997 241.748C159.997 243.642 158.457 245.185 156.563 245.185H84.9629C83.0829 245.185 81.5533 243.642 81.5533 241.748V239.067H88.6772C88.7146 239.068 88.749 239.079 88.7864 239.079C88.8058 239.079 88.8218 239.068 88.8412 239.067H112.181L114.376 241.152C114.771 241.524 115.293 241.734 115.836 241.734H125.689C126.233 241.734 126.755 241.524 127.149 241.152L129.341 239.067H152.701C152.72 239.067 152.736 239.079 152.756 239.079C152.793 239.079 152.827 239.068 152.864 239.067H159.997V241.748H159.997Z" fill="#7696EA"/>
<path d="M101.11 205.185H140.426C141.597 205.185 142.546 204.235 142.546 203.065C142.546 201.894 141.597 200.945 140.426 200.945H101.11C99.9399 200.945 98.9902 201.894 98.9902 203.065C98.9902 204.235 99.9399 205.185 101.11 205.185Z" fill="#7696EA"/>
<path d="M101.11 215.921H140.426C141.597 215.921 142.546 214.972 142.546 213.801C142.546 212.631 141.597 211.681 140.426 211.681H101.11C99.9399 211.681 98.9902 212.631 98.9902 213.801C98.9902 214.972 99.9399 215.921 101.11 215.921Z" fill="#7696EA"/>
<path d="M101.11 226.655H140.426C141.597 226.655 142.546 225.705 142.546 224.535C142.546 223.365 141.597 222.415 140.426 222.415H101.11C99.9399 222.415 98.9902 223.365 98.9902 224.535C98.9902 225.705 99.9399 226.655 101.11 226.655Z" fill="#7696EA"/>
<path d="M205.685 148.507H219.814V171.688L216.913 168.533C216.123 167.672 214.781 167.619 213.917 168.409C213.056 169.201 213 170.543 213.793 171.404L220.375 178.563C220.775 179 221.338 179.248 221.932 179.248H221.935C222.525 179.248 223.089 179.002 223.492 178.566L230.112 171.407C230.907 170.549 230.855 169.207 229.993 168.412C229.14 167.622 227.798 167.666 226.998 168.531L224.055 171.713V146.387C224.055 145.216 223.105 144.266 221.934 144.266H205.685C204.514 144.266 203.565 145.216 203.565 146.387C203.565 147.557 204.514 148.507 205.685 148.507Z" fill="#7696EA"/>
<path d="M110.652 178.566C111.055 179.002 111.618 179.247 112.209 179.247H112.212C112.805 179.247 113.369 178.999 113.769 178.563L120.351 171.404C121.143 170.543 121.088 169.201 120.227 168.408C119.365 167.619 118.026 167.677 117.231 168.533L114.33 171.687V148.506H128.459C129.629 148.506 130.579 147.557 130.579 146.386C130.579 145.216 129.629 144.266 128.459 144.266H112.209C111.038 144.266 110.089 145.216 110.089 146.386V171.712L107.146 168.53C106.345 167.666 105.003 167.622 104.15 168.411C103.289 169.207 103.236 170.548 104.031 171.407L110.651 178.566H110.652Z" fill="#7696EA"/>
<path d="M94.1758 294.442C94.1758 293.74 94.7513 293.169 95.4588 293.169H174.737C175.44 293.169 176.011 293.74 176.011 294.442C176.011 295.145 175.44 295.725 174.737 295.725H95.4588C94.7518 295.725 94.1758 295.15 94.1758 294.442Z" fill="#7696EA"/>
<path d="M183.993 294.437C183.993 292.063 185.925 290.131 188.301 290.131C190.677 290.131 192.628 292.063 192.628 294.437C192.628 296.812 190.687 298.764 188.301 298.764C185.916 298.764 183.993 296.823 183.993 294.437Z" fill="#7696EA"/>
<path d="M148.711 273.997C150.122 273.997 151.266 272.853 151.266 271.442C151.266 270.031 150.122 268.887 148.711 268.887C147.3 268.887 146.156 270.031 146.156 271.442C146.156 272.853 147.3 273.997 148.711 273.997Z" fill="#7696EA"/>
<path d="M139.113 274.011C140.524 274.011 141.668 272.867 141.668 271.456C141.668 270.045 140.524 268.901 139.113 268.901C137.702 268.901 136.558 270.045 136.558 271.456C136.558 272.867 137.702 274.011 139.113 274.011Z" fill="#7696EA"/>
<path d="M129.514 274.013C130.925 274.013 132.069 272.869 132.069 271.458C132.069 270.047 130.925 268.903 129.514 268.903C128.103 268.903 126.959 270.047 126.959 271.458C126.959 272.869 128.103 274.013 129.514 274.013Z" fill="#7696EA"/>
</g>
<defs>
<clipPath id="clip0_64_5549">
<rect width="368.81" height="331.022" fill="white"/>
</clipPath>
</defs>
</svg>
