<svg width="72" height="72" viewBox="0 0 72 72" fill="none" xmlns="http://www.w3.org/2000/svg">
<path d="M66 39V27C66 12 60 6 45 6H27C12 6 6 12 6 27V45C6 60 12 66 27 66H39" stroke="#1A468F" stroke-width="2" stroke-linecap="round" stroke-linejoin="round"/>
<path d="M66 39V27C66 12 60 6 45 6H27C12 6 6 12 6 27V45C6 60 12 66 27 66H39" stroke="#1A468F" stroke-width="2" stroke-linecap="round" stroke-linejoin="round"/>
<path d="M66 39V27C66 12 60 6 45 6H27C12 6 6 12 6 27V45C6 60 12 66 27 66H39" stroke="#1A468F" stroke-width="2" stroke-linecap="round" stroke-linejoin="round"/>
<path d="M48 58.29L52.74 63L63 51" stroke="#1A468F" stroke-width="2" stroke-linecap="round" stroke-linejoin="round"/>
<path d="M21 31.5V40.5" stroke="#A8C0FF" stroke-width="2" stroke-linecap="round" stroke-linejoin="round"/>
<path d="M36 31.5V40.5" stroke="#A8C0FF" stroke-width="2" stroke-linecap="round" stroke-linejoin="round"/>
<path d="M51 31.5V40.5" stroke="#A8C0FF" stroke-width="1.5" stroke-linecap="round" stroke-linejoin="round"/>
</svg>
