<svg width="565" height="548" viewBox="0 0 565 548" fill="none" xmlns="http://www.w3.org/2000/svg">
<rect y="1" width="565" height="547" rx="32" fill="#A8C0FF"/>
<g clip-path="url(#clip0_64_4997)">
<mask id="mask0_64_4997" style="mask-type:luminance" maskUnits="userSpaceOnUse" x="37" y="1" width="493" height="379">
<path d="M37 1.00269C37.7151 20.0545 45.165 218.67 45.899 238.15C45.856 237.022 47.7514 287.571 49.5769 336.257C50.4883 360.567 70.4372 379.773 94.6715 379.773C500.711 379.506 475.966 381.54 488.497 376.384C504.37 369.832 515.743 354.468 516.426 336.254L529.003 1H37V1.00269Z" fill="white"/>
</mask>
<g mask="url(#mask0_64_4997)">
<path d="M37 1.00269C37.7151 20.0545 45.165 218.67 45.899 238.15C45.856 237.022 47.7514 287.571 49.5769 336.257C50.4883 360.567 70.4372 379.773 94.6715 379.773C500.711 379.506 475.966 381.54 488.497 376.384C504.37 369.832 515.743 354.468 516.426 336.254L529.003 1H37V1.00269Z" fill="url(#paint0_linear_64_4997)"/>
<path d="M59.3682 32.5033V48.8746H68.157V393.671H98.2577V309.15H218.12V393.668H230.227H248.221V309.147H271.477V81.803H248.221V48.8746H254.948H368.086V393.671H398.187V-20.5841H368.086V32.5033H254.948H248.221V-20.5841H230.227H218.12V32.5033H98.2577V-20.5841H80.2634H68.157V32.5033H59.3682ZM98.2577 96.5876V48.8746H218.12V81.803H148.391V96.5876H98.2577Z" fill="white"/>
<path d="M252.187 240.651L372.251 240.651V101.752L252.187 101.752V240.651Z" fill="#7696EA"/>
<path d="M372.251 241.246H252.187C251.859 241.246 251.596 240.979 251.596 240.653V101.755C251.596 101.426 251.862 101.162 252.187 101.162H372.251C372.579 101.162 372.843 101.429 372.843 101.755V240.653C372.843 240.982 372.577 241.246 372.251 241.246ZM252.781 240.058H371.66V102.347H252.781V240.058Z" fill="#566CC1"/>
<path d="M154.999 240.651H252.187L252.187 101.752H154.999V240.651Z" fill="#D6DEFF"/>
<path d="M252.187 241.246H155C154.672 241.246 154.408 240.979 154.408 240.653V101.755C154.408 101.426 154.674 101.162 155 101.162H252.187C252.515 101.162 252.779 101.429 252.779 101.755V240.653C252.779 240.982 252.512 241.246 252.187 241.246ZM155.594 240.058H251.596V102.347H155.594V240.058Z" fill="#566CC1"/>
<path d="M286.178 240.651V256.914H265.786V248.784H188.173V256.914H167.778V240.651H286.178Z" fill="#7696EA"/>
<path d="M286.177 257.507H265.785C265.457 257.507 265.194 257.24 265.194 256.914V249.376H188.767V256.914C188.767 257.243 188.501 257.507 188.175 257.507H167.783C167.455 257.507 167.191 257.24 167.191 256.914V240.651C167.191 240.322 167.458 240.058 167.783 240.058H286.18C286.508 240.058 286.772 240.325 286.772 240.651V256.914C286.772 257.243 286.505 257.507 286.18 257.507H286.177ZM266.376 256.319H285.583V241.243H168.372V256.319H187.578V248.781C187.578 248.452 187.845 248.188 188.17 248.188H265.782C266.11 248.188 266.374 248.455 266.374 248.781V256.319H266.376Z" fill="#566CC1"/>
<path d="M293.225 240.651V256.914H284.127V248.784H195.22V256.914H186.122V240.651H293.225Z" fill="#566CC1"/>
<path d="M293.225 257.507H284.127C283.799 257.507 283.535 257.24 283.535 256.914V249.376H195.814V256.914C195.814 257.243 195.548 257.507 195.223 257.507H186.125C185.797 257.507 185.533 257.24 185.533 256.914V240.651C185.533 240.322 185.799 240.058 186.125 240.058H293.227C293.555 240.058 293.819 240.325 293.819 240.651V256.914C293.819 257.243 293.553 257.507 293.227 257.507H293.225ZM284.721 256.319H292.633V241.243H186.716V256.319H194.628V248.781C194.628 248.452 194.895 248.188 195.22 248.188H284.127C284.455 248.188 284.718 248.455 284.718 248.781V256.319H284.721Z" fill="#566CC1"/>
<path d="M352.423 240.651V256.914H332.03V248.784H254.418V256.914H234.025V240.651H352.423Z" fill="#7696EA"/>
<path d="M352.424 257.507H332.031C331.703 257.507 331.44 257.24 331.44 256.914V249.376H255.013V256.914C255.013 257.243 254.747 257.507 254.421 257.507H234.029C233.701 257.507 233.438 257.24 233.438 256.914V240.651C233.438 240.322 233.704 240.058 234.029 240.058H352.426C352.754 240.058 353.018 240.325 353.018 240.651V256.914C353.018 257.243 352.752 257.507 352.426 257.507H352.424ZM332.625 256.319H351.832V241.243H234.618V256.319H253.825V248.781C253.825 248.452 254.091 248.188 254.416 248.188H332.028C332.356 248.188 332.62 248.455 332.62 248.781V256.319H332.625Z" fill="#566CC1"/>
<path d="M359.473 240.651V256.914H350.375V248.784H261.468V256.914H252.37V240.651H359.473Z" fill="#566CC1"/>
<path d="M359.472 257.507H350.374C350.046 257.507 349.783 257.24 349.783 256.914V249.376H262.059V256.914C262.059 257.243 261.793 257.507 261.468 257.507H252.37C252.042 257.507 251.778 257.24 251.778 256.914V240.651C251.778 240.322 252.044 240.058 252.37 240.058H359.472C359.8 240.058 360.064 240.325 360.064 240.651V256.914C360.064 257.243 359.798 257.507 359.472 257.507ZM350.966 256.319H358.878V241.243H252.961V256.319H260.873V248.781C260.873 248.452 261.14 248.188 261.465 248.188H350.372C350.7 248.188 350.963 248.455 350.963 248.781V256.319H350.966Z" fill="#566CC1"/>
<path d="M252.187 395.81H372.251V256.911H252.187V395.81Z" fill="#7696EA"/>
<path d="M372.251 396.405H252.187C251.859 396.405 251.596 396.139 251.596 395.813V256.914C251.596 256.585 251.862 256.321 252.187 256.321H372.251C372.579 256.321 372.843 256.588 372.843 256.914V395.813C372.843 396.141 372.577 396.405 372.251 396.405ZM252.781 395.217H371.66V257.507H252.781V395.217Z" fill="#566CC1"/>
<path d="M154.999 395.81H252.187L252.187 256.911H154.999V395.81Z" fill="#D6DEFF"/>
<path d="M252.187 396.405H155C154.672 396.405 154.408 396.139 154.408 395.813V256.914C154.408 256.585 154.674 256.321 155 256.321H252.187C252.515 256.321 252.779 256.588 252.779 256.914V395.813C252.779 396.141 252.512 396.405 252.187 396.405ZM155.594 395.217H251.596V257.507H155.594V395.217Z" fill="#566CC1"/>
<path d="M394.617 240.651L514.681 240.651V101.752L394.617 101.752V240.651Z" fill="#7696EA"/>
<path d="M514.681 241.246H394.617C394.289 241.246 394.025 240.979 394.025 240.653V101.755C394.025 101.426 394.291 101.162 394.617 101.162H514.681C515.009 101.162 515.272 101.429 515.272 101.755V240.653C515.272 240.982 515.006 241.246 514.681 241.246ZM395.211 240.058H514.089V102.347H395.211V240.058Z" fill="#566CC1"/>
<path d="M297.43 240.651H394.617V101.752H297.43V240.651Z" fill="#D6DEFF"/>
<path d="M394.617 241.246H297.429C297.101 241.246 296.838 240.979 296.838 240.653V101.755C296.838 101.426 297.104 101.162 297.429 101.162H394.617C394.945 101.162 395.208 101.429 395.208 101.755V240.653C395.208 240.982 394.942 241.246 394.617 241.246ZM298.021 240.058H394.023V102.347H298.021V240.058Z" fill="#566CC1"/>
<path d="M428.608 240.651V256.914H408.213V248.784H330.6V256.914H310.208V240.651H428.608Z" fill="#7696EA"/>
<path d="M428.605 257.507H408.213C407.885 257.507 407.621 257.24 407.621 256.914V249.376H331.195V256.914C331.195 257.243 330.928 257.507 330.603 257.507H310.211C309.883 257.507 309.619 257.24 309.619 256.914V240.651C309.619 240.322 309.885 240.058 310.211 240.058H428.608C428.936 240.058 429.199 240.325 429.199 240.651V256.914C429.199 257.243 428.933 257.507 428.608 257.507H428.605ZM408.807 256.319H428.014V241.243H310.802V256.319H330.009V248.781C330.009 248.452 330.275 248.188 330.6 248.188H408.213C408.541 248.188 408.804 248.455 408.804 248.781V256.319H408.807Z" fill="#566CC1"/>
<path d="M435.655 240.651V256.914H426.557V248.784H337.65V256.914H328.552V240.651H435.655Z" fill="#566CC1"/>
<path d="M435.654 257.507H426.556C426.228 257.507 425.965 257.24 425.965 256.914V249.376H338.241V256.914C338.241 257.243 337.975 257.507 337.649 257.507H328.551C328.223 257.507 327.96 257.24 327.96 256.914V240.651C327.96 240.322 328.226 240.058 328.551 240.058H435.654C435.982 240.058 436.246 240.325 436.246 240.651V256.914C436.246 257.243 435.98 257.507 435.654 257.507ZM427.15 256.319H435.063V241.243H329.146V256.319H337.058V248.781C337.058 248.452 337.324 248.188 337.649 248.188H426.556C426.884 248.188 427.148 248.455 427.148 248.781V256.319H427.15Z" fill="#566CC1"/>
<path d="M494.853 240.651V256.914H474.461V248.784H396.849V256.914H376.456V240.651H494.853Z" fill="#7696EA"/>
<path d="M494.853 257.507H474.461C474.133 257.507 473.869 257.24 473.869 256.914V249.376H397.442V256.914C397.442 257.243 397.176 257.507 396.851 257.507H376.459C376.131 257.507 375.867 257.24 375.867 256.914V240.651C375.867 240.322 376.133 240.058 376.459 240.058H494.856C495.184 240.058 495.447 240.325 495.447 240.651V256.914C495.447 257.243 495.181 257.507 494.856 257.507H494.853ZM475.052 256.319H494.259V241.243H377.047V256.319H396.254V248.781C396.254 248.452 396.52 248.188 396.846 248.188H474.458C474.786 248.188 475.049 248.455 475.049 248.781V256.319H475.052Z" fill="#566CC1"/>
<path d="M501.9 240.651V256.914H492.804V248.784H403.895V256.914H394.797V240.651H501.9Z" fill="#566CC1"/>
<path d="M501.9 257.507H492.802C492.474 257.507 492.21 257.24 492.21 256.914V249.376H404.489V256.914C404.489 257.243 404.223 257.507 403.898 257.507H394.8C394.472 257.507 394.208 257.24 394.208 256.914V240.651C394.208 240.322 394.474 240.058 394.8 240.058H501.902C502.23 240.058 502.494 240.325 502.494 240.651V256.914C502.494 257.243 502.228 257.507 501.902 257.507H501.9ZM493.396 256.319H501.308V241.243H395.391V256.319H403.303V248.781C403.303 248.452 403.57 248.188 403.895 248.188H492.802C493.13 248.188 493.393 248.455 493.393 248.781V256.319H493.396Z" fill="#566CC1"/>
<path d="M394.617 85.4911L514.681 85.4911V-53.4075L394.617 -53.4075V85.4911Z" fill="#7696EA"/>
<path d="M514.681 86.0865H394.617C394.289 86.0865 394.025 85.8198 394.025 85.4938V-53.4074C394.025 -53.7361 394.291 -54.0001 394.617 -54.0001H514.681C515.009 -54.0001 515.272 -53.7334 515.272 -53.4074V85.4911C515.272 85.8198 515.006 86.0838 514.681 86.0838V86.0865ZM395.211 84.8985H514.089V-52.8121H395.211V84.8985Z" fill="#566CC1"/>
<path d="M297.43 85.4911L394.617 85.4911V-53.4075H297.43V85.4911Z" fill="#D6DEFF"/>
<path d="M394.617 86.0865H297.429C297.101 86.0865 296.838 85.8198 296.838 85.4938V-53.4074C296.838 -53.7361 297.104 -54.0001 297.429 -54.0001H394.617C394.945 -54.0001 395.208 -53.7334 395.208 -53.4074V85.4911C395.208 85.8198 394.942 86.0838 394.617 86.0838V86.0865ZM298.021 84.8985H394.023V-52.8121H298.021V84.8985Z" fill="#566CC1"/>
<path d="M428.608 85.4911V101.755H408.213V93.6215H330.6V101.755H310.208V85.4911H428.608Z" fill="#7696EA"/>
<path d="M428.605 102.347H408.213C407.885 102.347 407.621 102.081 407.621 101.755V94.2169H331.195V101.755C331.195 102.083 330.928 102.347 330.603 102.347H310.211C309.883 102.347 309.619 102.081 309.619 101.755V85.4911C309.619 85.1624 309.885 84.8984 310.211 84.8984H428.608C428.936 84.8984 429.199 85.1651 429.199 85.4911V101.755C429.199 102.083 428.933 102.347 428.608 102.347H428.605ZM408.807 101.159H428.014V86.0838H310.802V101.159H330.009V93.6215C330.009 93.2928 330.275 93.0288 330.6 93.0288H408.213C408.541 93.0288 408.804 93.2955 408.804 93.6215V101.159H408.807Z" fill="#566CC1"/>
<path d="M435.655 85.4911V101.755H426.557V93.6215H337.65V101.755H328.552V85.4911H435.655Z" fill="#566CC1"/>
<path d="M435.654 102.347H426.556C426.228 102.347 425.965 102.081 425.965 101.755V94.2169H338.241V101.755C338.241 102.083 337.975 102.347 337.649 102.347H328.551C328.223 102.347 327.96 102.081 327.96 101.755V85.4911C327.96 85.1624 328.226 84.8984 328.551 84.8984H435.654C435.982 84.8984 436.246 85.1651 436.246 85.4911V101.755C436.246 102.083 435.98 102.347 435.654 102.347ZM427.15 101.159H435.063V86.0838H329.146V101.159H337.058V93.6215C337.058 93.2928 337.324 93.0288 337.649 93.0288H426.556C426.884 93.0288 427.148 93.2955 427.148 93.6215V101.159H427.15Z" fill="#566CC1"/>
<path d="M494.853 85.4911V101.755H474.461V93.6215H396.849V101.755H376.456V85.4911H494.853Z" fill="#7696EA"/>
<path d="M494.853 102.347H474.461C474.133 102.347 473.869 102.081 473.869 101.755V94.2169H397.442V101.755C397.442 102.083 397.176 102.347 396.851 102.347H376.459C376.131 102.347 375.867 102.081 375.867 101.755V85.4911C375.867 85.1624 376.133 84.8984 376.459 84.8984H494.856C495.184 84.8984 495.447 85.1651 495.447 85.4911V101.755C495.447 102.083 495.181 102.347 494.856 102.347H494.853ZM475.052 101.159H494.259V86.0838H377.047V101.159H396.254V93.6215C396.254 93.2928 396.52 93.0288 396.846 93.0288H474.458C474.786 93.0288 475.049 93.2955 475.049 93.6215V101.159H475.052Z" fill="#566CC1"/>
<path d="M501.9 85.4911V101.755H492.804V93.6215H403.895V101.755H394.797V85.4911H501.9Z" fill="#566CC1"/>
<path d="M501.9 102.347H492.802C492.474 102.347 492.21 102.081 492.21 101.755V94.2169H404.489V101.755C404.489 102.083 404.223 102.347 403.898 102.347H394.8C394.472 102.347 394.208 102.081 394.208 101.755V85.4911C394.208 85.1624 394.474 84.8984 394.8 84.8984H501.902C502.23 84.8984 502.494 85.1651 502.494 85.4911V101.755C502.494 102.083 502.228 102.347 501.902 102.347H501.9ZM493.396 101.159H501.308V86.0838H395.391V101.159H403.303V93.6215C403.303 93.2928 403.57 93.0288 403.895 93.0288H492.802C493.13 93.0288 493.393 93.2955 493.393 93.6215V101.159H493.396Z" fill="#566CC1"/>
<path d="M394.617 395.81H514.681V256.911H394.617V395.81Z" fill="#7696EA"/>
<path d="M514.681 396.405H394.617C394.289 396.405 394.025 396.139 394.025 395.813V256.914C394.025 256.585 394.291 256.321 394.617 256.321H514.681C515.009 256.321 515.272 256.588 515.272 256.914V395.813C515.272 396.141 515.006 396.405 514.681 396.405ZM395.211 395.217H514.089V257.507H395.211V395.217Z" fill="#566CC1"/>
<path d="M297.43 395.81H394.617V256.911H297.43V395.81Z" fill="#D6DEFF"/>
<path d="M394.617 396.405H297.429C297.101 396.405 296.838 396.139 296.838 395.813V256.914C296.838 256.585 297.104 256.321 297.429 256.321H394.617C394.945 256.321 395.208 256.588 395.208 256.914V395.813C395.208 396.141 394.942 396.405 394.617 396.405ZM298.021 395.217H394.023V257.507H298.021V395.217Z" fill="#566CC1"/>
</g>
<path d="M224.328 480.696C223.441 496.152 221.75 511.602 219.338 526.982C218.238 534.007 217.072 541.13 215.924 547.997H126.952C126.165 543.884 125.377 539.689 124.597 535.503C124.326 534.096 124.073 532.69 123.801 531.292C123.71 530.831 123.629 530.371 123.538 529.902C123.186 528.043 122.831 526.184 122.495 524.341C122.231 522.967 121.97 521.602 121.715 520.236C121.624 519.783 121.543 519.339 121.46 518.886C121.196 517.528 120.952 516.189 120.696 514.864C120.532 513.983 120.376 513.113 120.204 512.248C120.048 511.375 119.876 510.521 119.72 509.665C119.317 507.542 118.924 505.462 118.545 503.455C118.317 502.254 118.094 501.071 117.881 499.91C117.741 499.145 117.594 498.396 117.454 497.655C115.147 485.381 113.512 476.637 113.3 475.346C112.273 469.225 111.453 463.625 110.845 458.474L110.689 457.191C110.673 457.068 110.665 456.944 110.649 456.822C110.558 456.049 110.477 455.284 110.402 454.519C106.42 416.723 113.727 403.42 127.485 379.047C127.517 379.023 127.549 378.967 127.568 378.915C125.777 385.052 131.665 387.717 143.272 387.792C143.503 387.792 143.739 387.792 143.995 387.8C148.24 387.792 153.214 387.455 158.83 386.822C168.181 385.777 179.303 383.918 191.805 381.442C199.876 379.847 208.519 377.997 217.615 375.93C217.687 376.283 217.755 376.631 217.819 376.984C218.058 378.25 218.287 379.551 218.526 380.842C218.83 382.528 219.126 384.206 219.397 385.86C219.61 387.094 219.817 388.344 220.013 389.602C220.145 390.343 220.268 391.1 220.373 391.849C221.704 400.561 222.704 409.115 223.452 417.628C225.307 438.563 225.546 459.621 224.331 480.694L224.328 480.696Z" fill="#1A468F"/>
<path d="M111.682 460.222C111.287 458.199 110.854 456.308 110.402 454.522C110.394 454.498 110.394 454.481 110.386 454.465C110.469 455.238 110.55 456.036 110.649 456.825C110.666 456.949 110.674 457.073 110.69 457.194L110.846 458.477C111.453 463.627 112.273 469.228 113.3 475.349C113.513 476.639 115.147 485.384 117.454 497.658C117.594 498.399 117.742 499.147 117.882 499.913C118.094 501.074 118.317 502.256 118.546 503.458C118.922 505.465 119.317 507.545 119.721 509.667C119.876 510.524 120.049 511.378 120.204 512.251C120.377 513.116 120.532 513.986 120.696 514.867C120.952 516.192 121.197 517.531 121.46 518.889C121.543 519.341 121.624 519.786 121.715 520.239C121.971 521.604 122.232 522.97 122.495 524.344C122.831 526.187 123.186 528.046 123.538 529.905C123.63 530.373 123.71 530.834 123.802 531.295C124.073 532.693 124.326 534.099 124.598 535.505C125.385 539.692 126.181 543.886 126.953 548H140.35C129.991 522.795 117.914 491.588 111.685 460.222H111.682Z" fill="#1F48DA"/>
<path d="M206.936 541.106C206.904 541.106 206.871 541.106 206.839 541.098C206.517 541.044 206.296 540.74 206.35 540.416C207.119 535.713 207.85 531.16 208.52 526.893C210.966 511.278 212.646 495.723 213.509 480.664C214.743 459.341 214.448 438.153 212.633 417.687C212.603 417.361 212.845 417.073 213.171 417.043C213.501 417.011 213.784 417.256 213.813 417.582C215.633 438.107 215.929 459.355 214.692 480.734C213.827 495.834 212.144 511.426 209.689 527.078C209.02 531.351 208.288 535.904 207.517 540.613C207.468 540.904 207.218 541.111 206.933 541.111L206.936 541.106Z" fill="#1F48DA"/>
<path d="M283.403 226.676C282.419 226.067 281.174 225.725 279.709 225.725H195.526C190.388 225.725 184.495 229.914 182.39 235.063L161.914 285.162C160.277 289.168 161.417 292.584 164.42 293.907C165.369 295.755 167.321 296.919 170.023 296.919H254.206C259.344 296.919 265.237 292.73 267.342 287.582L287.818 237.482C288.939 234.739 288.759 232.274 287.568 230.566C287.019 229.78 284.231 227.191 283.401 226.676H283.403Z" fill="#1F48DA"/>
<path d="M264.737 285.162L285.212 235.063C287.317 229.914 284.849 225.725 279.709 225.725H195.526C190.388 225.725 184.495 229.914 182.39 235.063L161.914 285.162C159.809 290.311 162.277 294.5 167.417 294.5H251.6C256.738 294.5 262.631 290.311 264.737 285.162Z" fill="#1F48DA"/>
<path d="M283.223 235.063L262.748 285.162C261.089 289.22 256.465 292.506 252.418 292.506H168.235C164.186 292.506 162.251 289.22 163.907 285.162L184.383 235.063C186.041 231.006 190.666 227.719 194.712 227.719H278.895C282.944 227.719 284.88 231.006 283.223 235.063Z" fill="white"/>
<path d="M256.359 284.855C256.359 284.855 256.733 280.626 258.271 275.17C259.47 270.909 261.457 264.475 262.323 260.316C263.048 256.833 266.46 259.699 265.46 267.107C265.248 268.683 267.022 272.894 268.256 273.864C269.942 275.192 273.988 270.65 275.136 268.481L279.279 258.379C279.279 258.379 281.269 265.087 281.193 268.328C281.118 271.569 276.964 282.318 275.52 285.343C274.077 288.368 261.314 297.716 261.314 297.716L256.359 284.858V284.855Z" fill="#F8A6B3"/>
<path d="M215.687 355.427C215.687 355.427 215.201 335.276 215.687 322.118C216.174 308.961 217.333 290.478 216.365 287.239C215.4 284.004 207.831 247.369 206.977 244.896C202.777 232.754 191.967 233.26 186.63 232.759C186.278 232.727 182.554 232.374 182.554 232.374C175.437 238.104 157.279 285.486 157.279 285.486L163.828 348.43L189.525 367.972L215.685 355.427H215.687Z" fill="#BF5299"/>
<path d="M203.535 309.309C203.506 309.408 203.535 309.209 203.535 309.309C203.535 309.309 217.615 299.26 214.967 287.458C201.118 275.998 195.497 255.674 190.991 234.147L172.564 232.757L152.133 238.368C138.403 245.305 123.009 256.17 117.594 260.117C114.502 261.878 111.994 264.753 110.797 268.417C110.281 269.947 110.05 271.515 110.05 273.056C110.05 277.304 111.897 281.348 115.018 284.174L140 311.237C147.412 319.268 149.375 330.928 145.012 340.955C139.761 353.016 132.69 368.924 127.689 378.924C124.044 393.393 162.347 388.56 217.62 375.933C215.354 366.044 203.409 310.276 203.541 309.303L203.535 309.309Z" fill="#566CC1"/>
<path d="M181.888 326.068L195.916 326.264L209.434 322.555L206.337 248.215L191.198 249.362L176.336 252.406L181.888 326.068Z" fill="#566CC1"/>
<path d="M201.934 260.118C207.863 254.177 207.863 244.545 201.934 238.604C196.005 232.663 186.392 232.663 180.463 238.604C174.534 244.545 174.534 254.177 180.463 260.118C186.392 266.059 196.005 266.059 201.934 260.118Z" fill="#566CC1"/>
<path d="M200.258 359.169C159.79 363.231 167.321 232.759 186.63 232.759C172.149 231.329 135.946 228.573 135.946 228.573L111.87 280.486C111.87 280.486 121.791 380.602 121.801 384.516C121.807 385.971 119.116 389.565 118.164 393.164C116.561 399.239 114.155 405.882 114.155 405.882C114.155 405.882 132.034 432.014 220.371 391.852C220.371 391.852 214.854 364.54 215.472 338.43C215.685 355.427 206.111 358.581 200.258 359.169Z" fill="#FE6B8F"/>
<path d="M215.957 357.461C200.576 366.157 187.16 372 175.559 375.804C174.293 366.949 171.744 349.565 166.786 316.976C160.839 277.894 170.604 245.76 176.032 231.795C171.402 231.393 166.259 230.971 161.24 230.561C155.11 247.541 146.746 279.861 152.723 319.123C158.016 353.91 160.568 371.432 161.729 379.608C148.23 382.571 137.866 382.501 130.298 381.34C129.953 381.286 129.623 381.23 129.287 381.173C127.972 374.707 124.859 358.145 118.151 317.509C114.911 297.878 115.452 281.054 117.417 267.652L111.134 280.906C111.134 280.906 119.608 380.65 119.619 384.565C119.624 386.375 118.922 389.896 118.167 393.161C124.251 395.052 131.698 396.367 140.67 396.367C149.642 396.367 159.527 395.13 171.241 391.989C171.381 391.957 171.515 391.914 171.652 391.876C184.864 388.293 200.065 382.288 217.438 372.921C217.954 368.166 217.408 362.911 215.957 357.463V357.461Z" fill="white"/>
<path d="M193.126 312.498L253.147 282.503C262.742 287.897 265.571 293.823 262.366 301.501L202.947 338.43L195.914 326.264L193.123 312.501L193.126 312.498Z" fill="#566CC1"/>
<path d="M205.837 336.203C211.315 330.714 211.315 321.813 205.837 316.323C200.358 310.834 191.476 310.834 185.997 316.324C180.518 321.813 180.518 330.714 185.997 336.203C191.475 341.693 200.358 341.693 205.837 336.203Z" fill="#566CC1"/>
<path d="M195.983 340.936C193.566 340.936 191.143 340.316 188.92 339.072C184.269 336.472 181.416 331.615 181.295 326.079L177.265 272.622C177.241 272.296 177.486 272.011 177.811 271.986C178.131 271.957 178.421 272.207 178.446 272.533L182.478 326.022C182.594 331.162 185.218 335.642 189.498 338.034C193.655 340.357 198.569 340.314 202.648 337.916L254.195 305.879C254.474 305.707 254.84 305.793 255.009 306.07C255.181 306.351 255.095 306.714 254.819 306.889L203.258 338.934C200.989 340.268 198.486 340.936 195.98 340.936H195.983Z" fill="#1A468F"/>
<path d="M208.485 300.365C208.168 300.365 207.907 300.114 207.893 299.793L205.925 250.941C205.912 250.612 206.167 250.337 206.493 250.324C206.839 250.294 207.095 250.566 207.108 250.892L209.076 299.745C209.09 300.074 208.834 300.348 208.509 300.362C208.501 300.362 208.493 300.362 208.485 300.362V300.365Z" fill="#1A468F"/>
<path d="M126.383 170.857C124.641 133.969 185.988 134.65 183.331 171.477L183.358 171.471C183.012 174.429 179.57 178.473 180.1 181.458C183.03 197.969 180.076 207.476 174.986 218.718C173.553 221.881 149.792 218.81 140.85 212.638C134.723 206.439 126.3 184.314 126.3 170.809L126.38 170.854L126.383 170.857Z" fill="#F8A6B3"/>
<path d="M99.7176 273.702C99.6558 273.624 99.5966 273.546 99.5375 273.471C93.3324 265.645 90.0497 259.052 91.2972 248.848C91.9478 243.522 94.475 242.953 95.7816 236.625C97.9324 226.21 92.6441 224.133 94.1013 214.214C95.5154 204.567 102.812 207.11 103.035 197.942C103.213 190.674 117.075 185.221 117.075 178.775C117.077 162.985 110.063 152.317 118.752 144.093C123.331 137.306 128.028 133.834 133.055 132.123C138.865 130.146 143.965 129.173 153.975 132.931C165.683 137.328 181.806 167.808 181.806 167.808C174.714 179.966 166.522 188.705 160.551 194.279C158.36 201.892 159.43 207.102 160.86 210.491C162.688 214.82 165.404 216.884 166.686 222.11C172.292 235.416 164.07 243.92 162.202 246.561C155.943 255.41 161.158 258.918 155.849 267.275C149.272 277.625 135.873 280.739 133.206 281.359C129.778 282.153 115.663 284.826 104.229 277.657C102.116 276.332 100.685 274.92 99.7311 273.724C99.7311 273.724 99.7203 273.71 99.7149 273.705L99.7176 273.702Z" fill="#1F48DA"/>
<path d="M164.56 191.628C164.56 191.628 159.707 187.735 154.873 186.299C150.039 184.863 149.937 196.339 153.822 205.049C157.707 213.759 165.684 205.561 165.684 205.561L164.56 191.625V191.628Z" fill="#F8A6B3"/>
<path d="M201.922 158.664L189.49 154.146C188.813 152.269 188.02 150.337 187.076 148.379C180.164 134.044 172.281 124.114 163.791 118.923C154.548 114.847 140.376 114.518 130.238 117.069C113.032 121.323 101.447 135.324 99.2017 151.962C99.1211 152.549 99.0592 153.131 99.0055 153.718C98.992 153.75 98.9893 153.788 98.9893 153.815C98.9302 154.386 98.8952 154.968 98.8603 155.55C98.8468 155.96 98.8307 156.369 98.8227 156.795C98.8092 157.166 98.8038 157.527 98.8038 157.905C98.8038 158.373 98.8092 158.831 98.8227 159.303C98.9598 169.138 102.31 175.356 105.713 187.056L105.746 187.045L105.756 187.051C105.756 187.051 105.762 187.04 105.767 187.029C105.767 187.029 105.77 187.022 105.775 187.008C105.775 187.008 105.781 186.997 105.791 187.002L105.807 186.997C110.093 189.033 120.981 198.74 156.72 187.013C165.028 184.287 172.555 181.075 179.371 177.754C190.975 172.131 196.413 168.352 203.318 163.012L201.92 158.664H201.922Z" fill="#FE6B8F"/>
<path d="M179.373 177.751C172.558 181.073 165.03 184.281 156.722 187.01C120.984 198.737 107.347 192.191 105.81 186.994L105.794 186.999L105.777 187.005L105.767 187.026C105.767 187.026 105.761 187.037 105.756 187.048L105.745 187.042L105.713 187.053C102.548 176.178 99.4298 170.041 98.8975 161.328C98.8975 161.328 101.532 174.058 142 159.96C143.492 163.936 144.998 167.915 146.498 171.908C150.332 172.336 154.792 172.592 159.733 172.39C165.96 172.156 171.332 171.264 175.69 170.251C176.042 171.644 178.206 175.324 179.373 177.748V177.751Z" fill="#BF5299"/>
<path d="M479.411 364.853H282.525C272.827 364.853 264.977 372.719 264.977 382.426V395.96V488.369V501.903C264.977 511.61 272.827 519.476 282.525 519.476H479.411C489.108 519.476 496.959 511.61 496.959 501.903V488.369V395.96V382.426C496.959 372.719 489.108 364.853 479.411 364.853Z" fill="white"/>
<path d="M479.41 520.074H282.524C272.52 520.074 264.382 511.925 264.382 501.906V382.426C264.382 372.409 272.52 364.257 282.524 364.257H479.41C489.414 364.257 497.552 372.407 497.552 382.426V501.906C497.552 511.922 489.414 520.074 479.413 520.074H479.41ZM282.524 365.445C273.173 365.445 265.568 373.064 265.568 382.426V501.906C265.568 511.268 273.173 518.886 282.524 518.886H479.41C488.761 518.886 496.367 511.268 496.367 501.906V382.426C496.367 373.064 488.761 365.445 479.41 365.445H282.524Z" fill="#566CC1"/>
<path d="M486.543 409.78V408.657H456.939V376.273H455.818V408.657H426.777V376.273H425.656V408.657H396.614V376.273H395.493V408.657H366.452V376.273H365.331V408.657H336.289V376.273H335.168V408.657H306.127V376.273H305.006V408.657H275.402V409.78H305.006V441.604H275.402V442.728H305.006V474.551H275.402V475.675H305.006V508.059H306.127V475.675H335.168V508.059H336.289V475.675H365.331V508.059H366.452V475.675H395.493V508.059H396.614V475.675H425.656V508.059H426.777V475.675H455.818V508.059H456.939V475.675H486.543V474.551H456.939V442.728H486.543V441.604H456.939V409.78H486.543ZM425.653 409.78V441.604H396.612V409.78H425.653ZM395.488 409.78V441.604H366.446V409.78H395.488ZM365.325 409.78V441.604H336.284V409.78H365.325ZM306.119 409.78H335.16V441.604H306.119V409.78ZM306.119 474.551V442.728H335.16V474.551H306.119ZM336.284 474.551V442.728H365.325V474.551H336.284ZM366.446 474.551V442.728H395.488V474.551H366.446ZM396.612 474.551V442.728H425.653V474.551H396.612ZM455.818 474.551H426.777V442.728H455.818V474.551ZM455.818 441.604H426.777V409.78H455.818V441.604Z" fill="#D6DEFF"/>
<path d="M283.667 473.167L283.396 472.011L322.871 462.666L346.858 403.064L357.997 437.52L364.465 430.166L383.435 449.586L395.494 434.608L407.269 449.46L418.101 432.558L435.308 449.737L449.272 441.653L471.383 427.512L472.022 428.514L449.885 442.666L435.114 451.222L418.306 434.438L407.371 451.499L395.485 436.507L383.522 451.373L364.508 431.911L357.51 439.872L346.734 406.542L323.742 463.681L283.667 473.167Z" fill="#7696EA"/>
<path d="M447.898 470.246L447.825 470.23L427.9 465.699L420.668 467.076L410.03 463.59L398.16 466.2L379.036 466.181L368.395 463.832L362.782 464.896L353.708 463.614L331.818 468.264L331.751 468.261L283.519 467.218L283.543 466.03L331.708 467.073L353.665 462.407L362.755 463.692L368.414 462.62L379.23 465.009L398.093 465.012L410.089 462.359L420.749 465.85L427.922 464.487L448.013 469.056L475.498 468.261L475.533 469.449L447.898 470.246Z" fill="#FE6B8F"/>
<path d="M496.958 168.772H320.301V338.5H496.958V168.772Z" fill="white"/>
<path d="M496.958 339.093H320.301C319.973 339.093 319.709 338.826 319.709 338.5V168.772C319.709 168.443 319.975 168.179 320.301 168.179H496.958C497.286 168.179 497.55 168.446 497.55 168.772V338.5C497.55 338.829 497.283 339.093 496.958 339.093ZM320.892 337.905H496.364V169.365H320.892V337.905Z" fill="#566CC1"/>
<path d="M365.58 180.941H332.444V190.499H365.58V180.941Z" fill="#A8C0FF"/>
<path d="M358.265 196.032H332.444V205.591H358.265V196.032Z" fill="#A8C0FF"/>
<path d="M370.436 211.124H332.444V220.682H370.436V211.124Z" fill="#A8C0FF"/>
<path d="M363.733 226.218H332.444V235.776H363.733V226.218Z" fill="#A8C0FF"/>
<path d="M351.439 241.31H332.444V250.868H351.439V241.31Z" fill="#A8C0FF"/>
<path d="M360.873 256.402H332.444V265.96H360.873V256.402Z" fill="#A8C0FF"/>
<path d="M368.686 271.496H332.444V281.054H368.686V271.496Z" fill="#A8C0FF"/>
<path d="M356.843 286.588H332.444V296.146H356.843V286.588Z" fill="#A8C0FF"/>
<path d="M363.733 301.679H332.444V311.237H363.733V301.679Z" fill="#A8C0FF"/>
<path d="M360.873 316.773H332.444V326.332H360.873V316.773Z" fill="#A8C0FF"/>
<path d="M389.428 180.941L383.922 190.499H394.937L389.428 180.941Z" fill="#7696EA"/>
<path d="M389.428 205.591L394.937 196.032H383.922L389.428 205.591Z" fill="#FE6B8F"/>
<path d="M389.428 211.124L383.922 220.685H394.937L389.428 211.124Z" fill="#7696EA"/>
<path d="M389.428 235.776L394.937 226.218H383.922L389.428 235.776Z" fill="#FE6B8F"/>
<path d="M389.428 250.868L394.937 241.31H383.922L389.428 250.868Z" fill="#FE6B8F"/>
<path d="M389.428 256.402L383.922 265.963H394.937L389.428 256.402Z" fill="#7696EA"/>
<path d="M389.428 281.054L394.937 271.496H383.922L389.428 281.054Z" fill="#FE6B8F"/>
<path d="M389.428 286.588L383.922 296.146H394.937L389.428 286.588Z" fill="#7696EA"/>
<path d="M389.428 301.679L383.922 311.24H394.937L389.428 301.679Z" fill="#7696EA"/>
<path d="M389.428 326.332L394.937 316.773H383.922L389.428 326.332Z" fill="#FE6B8F"/>
<path d="M454.948 316.773H421.812V326.332H454.948V316.773Z" fill="#A8C0FF"/>
<path d="M447.632 301.679H421.812V311.237H447.632V301.679Z" fill="#A8C0FF"/>
<path d="M459.803 286.588H421.812V296.146H459.803V286.588Z" fill="#A8C0FF"/>
<path d="M453.101 271.496H421.812V281.054H453.101V271.496Z" fill="#A8C0FF"/>
<path d="M440.806 256.402H421.812V265.96H440.806V256.402Z" fill="#A8C0FF"/>
<path d="M450.24 241.31H421.812V250.868H450.24V241.31Z" fill="#A8C0FF"/>
<path d="M458.053 226.218H421.812V235.776H458.053V226.218Z" fill="#A8C0FF"/>
<path d="M446.21 211.124H421.812V220.682H446.21V211.124Z" fill="#A8C0FF"/>
<path d="M453.101 196.032H421.812V205.591H453.101V196.032Z" fill="#A8C0FF"/>
<path d="M450.24 180.941H421.812V190.499H450.24V180.941Z" fill="#A8C0FF"/>
<path d="M478.797 326.332L484.306 316.773H473.291L478.797 326.332Z" fill="#FE6B8F"/>
<path d="M478.797 311.24L484.306 301.679H473.291L478.797 311.24Z" fill="#FE6B8F"/>
<path d="M478.797 296.146L484.306 286.588H473.291L478.797 296.146Z" fill="#FE6B8F"/>
<path d="M478.797 271.496L473.291 281.054H484.306L478.797 271.496Z" fill="#7696EA"/>
<path d="M478.797 256.402L473.291 265.963H484.306L478.797 256.402Z" fill="#7696EA"/>
<path d="M478.797 241.31L473.291 250.868H484.306L478.797 241.31Z" fill="#7696EA"/>
<path d="M478.797 226.218L473.291 235.776H484.306L478.797 226.218Z" fill="#7696EA"/>
<path d="M478.797 220.685L484.306 211.124H473.291L478.797 220.685Z" fill="#FE6B8F"/>
<path d="M478.797 205.591L484.306 196.032H473.291L478.797 205.591Z" fill="#FE6B8F"/>
<path d="M478.797 180.941L473.291 190.499H484.306L478.797 180.941Z" fill="#7696EA"/>
</g>
<defs>
<linearGradient id="paint0_linear_64_4997" x1="283" y1="-13.6902" x2="283" y2="388.286" gradientUnits="userSpaceOnUse">
<stop stop-color="#D4DCFF"/>
<stop offset="1" stop-color="#F5F6FF"/>
</linearGradient>
<clipPath id="clip0_64_4997">
<rect width="492" height="548" fill="white" transform="translate(37)"/>
</clipPath>
</defs>
</svg>
