<svg width="565" height="547" viewBox="0 0 565 547" fill="none" xmlns="http://www.w3.org/2000/svg">
<rect width="565" height="547" rx="32" fill="#A8C0FF"/>
<g clip-path="url(#clip0_64_5253)">
<path d="M44.6003 276.25C43.877 213.788 68.5146 151.263 117.865 105.566C167.221 59.8747 231.483 40.1027 293.742 45.5908L295.408 44.0525C291.075 43.6419 286.718 43.3412 282.332 43.1735C220.772 40.8198 161.985 62.5695 116.795 104.409C71.5986 146.243 45.4161 203.171 43.0611 264.69C42.8933 269.073 42.8644 273.439 42.9396 277.788L44.6061 276.244L44.6003 276.25Z" fill="#7696EA"/>
<path d="M471.227 157.919L472.46 156.78C464.099 142.606 454.158 129.224 442.707 116.866C426.413 99.2855 407.822 84.5968 387.571 73.0598L386.28 74.2511C406.358 85.5857 425.048 100.153 441.538 117.941C453.088 130.404 462.97 143.826 471.222 157.925L471.227 157.919Z" fill="#7696EA"/>
<path d="M500.685 244.981C509.475 315.661 485.323 389.445 429.168 441.434C336.52 527.213 191.315 521.661 105.489 429.064C88.998 411.27 75.8923 391.539 66.1194 370.662L64.8291 371.854C74.7929 392.915 88.0259 412.56 104.326 430.14C146.189 475.311 203.148 501.479 264.701 503.832C326.261 506.186 385.048 484.436 430.244 442.597C475.435 400.757 501.623 343.829 503.972 282.31C504.47 269.229 503.874 256.275 502.23 243.547L500.68 244.981H500.685Z" fill="#7696EA"/>
<path d="M107.039 182.294C114.035 169.537 122.616 157.381 132.805 146.133C201.632 70.1741 318.449 62.9223 396.123 128.657L397.141 127.535C359.965 96.0355 312.964 80.063 264.047 82.4802C212.996 85.0074 165.989 107.249 131.677 145.115C121.296 156.571 112.461 169.051 105.245 182.288H107.033L107.039 182.294Z" fill="#7696EA"/>
<path d="M84.0852 262.562H82.4651C82.089 269.31 82.0601 276.111 82.3957 282.958C84.8201 331.841 105.361 377.018 140.402 410.877L141.421 409.755C100.42 370.078 81.0533 315.904 84.0852 262.567V262.562Z" fill="#7696EA"/>
<path d="M441.811 182.294C439.884 178.755 437.847 175.268 435.695 171.85L434.584 173.076C436.47 176.106 438.264 179.177 439.965 182.288H441.817L441.811 182.294Z" fill="#7696EA"/>
<path d="M464.556 262.562H462.936C465.777 311.584 449.744 361.67 414.228 400.861C356.048 465.069 263.579 480.168 189.446 443.603L188.335 444.835C217.341 459.298 249.721 466.162 282.98 464.514C334.031 461.987 381.038 439.746 415.35 401.879C449.663 364.018 467.166 315.065 464.637 264.042C464.614 263.55 464.579 263.053 464.55 262.562H464.556Z" fill="#7696EA"/>
<path d="M352.975 464.063C355.77 462.895 358.57 461.657 361.301 460.368L360.653 458.997C357.94 460.275 355.162 461.507 352.391 462.663L352.975 464.063Z" fill="#7696EA"/>
<path d="M109.388 396.096L108.173 397.004C109.978 399.427 111.864 401.838 113.768 404.175L114.943 403.22C113.051 400.901 111.182 398.507 109.388 396.102V396.096Z" fill="#7696EA"/>
<path d="M99.2513 381.17L97.9609 381.962C99.5406 384.53 101.201 387.098 102.897 389.59L104.152 388.74C102.468 386.259 100.819 383.714 99.2513 381.164V381.17Z" fill="#7696EA"/>
<path d="M77.2805 331.778L75.8281 332.206C76.6787 335.109 77.6045 338.029 78.5824 340.886L80.0173 340.394C79.0452 337.561 78.1252 334.658 77.2862 331.778H77.2805Z" fill="#7696EA"/>
<path d="M133.43 423.01L132.395 424.114C134.593 426.179 136.873 428.226 139.17 430.198L140.154 429.053C137.874 427.098 135.612 425.063 133.43 423.015V423.01Z" fill="#7696EA"/>
<path d="M90.4732 365.394L89.1193 366.071C90.4674 368.771 91.9024 371.484 93.3721 374.126L94.6971 373.392C93.239 370.772 91.8156 368.077 90.479 365.394H90.4732Z" fill="#7696EA"/>
<path d="M83.1247 348.878L81.7129 349.433C82.8181 352.249 83.9984 355.077 85.2251 357.836L86.608 357.223C85.3929 354.482 84.2183 351.677 83.1189 348.884L83.1247 348.878Z" fill="#7696EA"/>
<path d="M335.866 470.326C338.747 469.412 341.652 468.423 344.487 467.388L343.966 465.966C341.148 466.995 338.267 467.978 335.408 468.886L335.866 470.332V470.326Z" fill="#7696EA"/>
<path d="M300.136 476.704L300.332 478.208C303.33 477.815 306.362 477.346 309.336 476.826L309.075 475.334C306.119 475.854 303.11 476.317 300.136 476.71V476.704Z" fill="#7696EA"/>
<path d="M317.945 473.57L318.269 475.051C321.226 474.397 324.2 473.668 327.116 472.882L326.723 471.419C323.824 472.194 320.873 472.917 317.939 473.57H317.945Z" fill="#7696EA"/>
<path d="M147.143 434.784L146.206 435.975C148.584 437.843 151.038 439.682 153.491 441.44L154.37 440.208C151.934 438.462 149.498 436.634 147.138 434.784H147.143Z" fill="#7696EA"/>
<path d="M161.846 445.315L161.018 446.587C163.553 448.241 166.157 449.854 168.76 451.392L169.53 450.086C166.943 448.559 164.357 446.957 161.846 445.315Z" fill="#7696EA"/>
<path d="M199.421 464.612C197.517 463.872 195.625 463.115 193.756 462.322L193.166 463.716C195.301 464.624 197.477 465.486 199.647 466.324L199.421 464.618V464.612Z" fill="#7696EA"/>
<path d="M177.423 454.521L176.711 455.857C179.384 457.279 182.121 458.662 184.852 459.963L185.506 458.598C182.792 457.303 180.079 455.932 177.428 454.521H177.423Z" fill="#7696EA"/>
<path d="M120.81 410.079L119.682 411.085C121.695 413.335 123.784 415.573 125.896 417.736L126.978 416.677C124.883 414.532 122.806 412.311 120.81 410.073V410.079Z" fill="#7696EA"/>
<path d="M115.446 144.41L114.278 143.45C112.357 145.792 110.465 148.204 108.653 150.615L109.869 151.523C111.662 149.129 113.543 146.735 115.452 144.41H115.446Z" fill="#7696EA"/>
<path d="M139.736 117.479C137.445 119.439 135.16 121.481 132.949 123.539L133.985 124.644C136.178 122.597 138.446 120.567 140.72 118.624L139.736 117.473V117.479Z" fill="#7696EA"/>
<path d="M126.44 129.901C124.328 132.058 122.233 134.29 120.208 136.539L121.336 137.551C123.344 135.313 125.421 133.098 127.522 130.959L126.44 129.901Z" fill="#7696EA"/>
<path d="M152.779 107.226C150.76 108.689 148.74 110.186 146.784 111.719L147.716 112.91C149.446 111.557 151.222 110.233 153.005 108.931L152.785 107.22L152.779 107.226Z" fill="#7696EA"/>
<path d="M237.639 72.8979L237.373 71.4059C234.688 71.8801 231.98 72.4237 229.307 73.0078L229.503 74.5113C232.2 73.9215 234.931 73.3721 237.639 72.8921V72.8979Z" fill="#7696EA"/>
<path d="M282.198 478.272L282.395 479.775C285.346 479.642 288.332 479.446 291.277 479.191L291.144 477.682C288.181 477.942 285.172 478.139 282.204 478.266L282.198 478.272Z" fill="#7696EA"/>
<path d="M103.347 158.017C101.64 160.515 99.9681 163.083 98.3711 165.651L99.6614 166.449C101.247 163.899 102.907 161.348 104.603 158.873L103.353 158.017H103.347Z" fill="#7696EA"/>
<path d="M93.7367 173.492C92.2554 176.124 90.8146 178.83 89.4491 181.537L90.8031 182.219C92.157 179.536 93.592 176.847 95.0559 174.233L93.7367 173.492Z" fill="#7696EA"/>
<path d="M73.5663 224.192C72.8314 227.129 72.1544 230.125 71.5469 233.097L73.0339 233.398C73.6299 230.449 74.3069 227.476 75.0359 224.562L73.5663 224.192Z" fill="#7696EA"/>
<path d="M85.5263 189.766C84.2823 192.524 83.0845 195.352 81.9678 198.163L83.3738 198.723C84.4848 195.936 85.6709 193.131 86.9034 190.39L85.5205 189.766H85.5263Z" fill="#7696EA"/>
<path d="M78.779 206.71C77.7838 209.567 76.8407 212.493 75.9785 215.39L77.4308 215.824C78.2872 212.944 79.2246 210.047 80.214 207.207L78.779 206.71Z" fill="#7696EA"/>
<path d="M470.88 333.015C471.748 330.106 472.564 327.151 473.304 324.219L471.835 323.849C471.106 326.758 470.296 329.702 469.428 332.582L470.88 333.015Z" fill="#7696EA"/>
<path d="M460.402 191.177L461.79 190.564C460.564 187.805 459.262 185.029 457.914 182.323L456.56 183C457.896 185.689 459.192 188.441 460.407 191.177H460.402Z" fill="#7696EA"/>
<path d="M432.124 145.15L433.299 144.196C431.389 141.854 429.405 139.523 427.397 137.274L426.263 138.28C428.253 140.512 430.226 142.825 432.124 145.15Z" fill="#7696EA"/>
<path d="M369.454 456.308C372.121 454.903 374.795 453.422 377.398 451.901L376.635 450.594C374.048 452.104 371.398 453.578 368.748 454.972L369.454 456.314V456.308Z" fill="#7696EA"/>
<path d="M442.899 159.631L444.154 158.781C442.465 156.282 440.694 153.79 438.889 151.367L437.674 152.269C439.462 154.675 441.221 157.15 442.899 159.625V159.631Z" fill="#7696EA"/>
<path d="M274.075 69.7173V68.2021C271.061 68.2021 267.994 68.26 264.968 68.3872L265.031 69.9023C268.034 69.7751 271.072 69.7115 274.069 69.7173H274.075Z" fill="#7696EA"/>
<path d="M246.573 71.5158L247.012 71.4579C249.998 71.0705 253.024 70.7409 256.004 70.4864L255.877 68.9771C252.874 69.2373 249.825 69.5669 246.816 69.9602L246.376 70.018L246.573 71.5216V71.5158Z" fill="#7696EA"/>
<path d="M292.139 70.55L292.278 69.0407C289.263 68.7689 286.208 68.5607 283.188 68.4219L283.118 69.937C286.115 70.0758 289.153 70.284 292.139 70.5558V70.55Z" fill="#7696EA"/>
<path d="M344.967 82.6017L345.5 81.1849C342.653 80.1208 339.754 79.1088 336.884 78.1777L336.415 79.6177C339.268 80.543 342.144 81.5492 344.967 82.6017Z" fill="#7696EA"/>
<path d="M327.73 77.0153L328.135 75.5523C325.219 74.7484 322.239 73.9966 319.282 73.3258L318.946 74.8005C321.886 75.4713 324.842 76.2173 327.736 77.0153H327.73Z" fill="#7696EA"/>
<path d="M310.059 72.9846L310.331 71.4926C307.351 70.949 304.325 70.469 301.334 70.0642L301.131 71.562C304.099 71.9668 307.108 72.441 310.065 72.9789L310.059 72.9846Z" fill="#7696EA"/>
<path d="M452.342 174.996L453.667 174.262C452.203 171.625 450.658 168.982 449.084 166.42L447.794 167.212C449.356 169.757 450.89 172.376 452.348 174.996H452.342Z" fill="#7696EA"/>
<path d="M426.57 411.82C428.589 409.57 430.591 407.251 432.512 404.921L431.343 403.961C429.44 406.274 427.455 408.581 425.447 410.813L426.576 411.825L426.57 411.82Z" fill="#7696EA"/>
<path d="M438.142 397.761C439.953 395.35 441.747 392.857 443.454 390.359L442.204 389.503C440.503 391.984 438.732 394.453 436.927 396.848L438.136 397.756L438.142 397.761Z" fill="#7696EA"/>
<path d="M448.436 382.731C450.033 380.164 451.595 377.527 453.082 374.89L451.763 374.144C450.293 376.758 448.743 379.377 447.151 381.928L448.436 382.726V382.731Z" fill="#7696EA"/>
<path d="M385.141 447.136C387.67 445.5 390.204 443.788 392.669 442.036L391.789 440.798C389.342 442.539 386.831 444.239 384.319 445.858L385.141 447.13V447.136Z" fill="#7696EA"/>
<path d="M457.375 366.851C458.741 364.151 460.066 361.381 461.31 358.628L459.927 358.003C458.689 360.739 457.375 363.486 456.021 366.169L457.375 366.851Z" fill="#7696EA"/>
<path d="M399.965 436.605C402.343 434.755 404.715 432.818 407.018 430.857L406.035 429.706C403.749 431.655 401.394 433.575 399.033 435.414L399.965 436.611V436.605Z" fill="#7696EA"/>
<path d="M413.811 424.802C416.022 422.738 418.215 420.604 420.332 418.453L419.25 417.394C417.15 419.534 414.974 421.651 412.776 423.698L413.811 424.808V424.802Z" fill="#7696EA"/>
<path d="M475.562 243.09L477.06 242.859C476.603 239.858 476.071 236.839 475.486 233.89L473.999 234.185C474.578 237.111 475.104 240.106 475.562 243.09Z" fill="#7696EA"/>
<path d="M464.881 350.237C466.003 347.426 467.079 344.552 468.075 341.696L466.645 341.198C465.656 344.038 464.591 346.889 463.475 349.682L464.881 350.243V350.237Z" fill="#7696EA"/>
<path d="M466.986 208.011L468.421 207.519C467.443 204.657 466.396 201.783 465.291 198.966L463.879 199.516C464.972 202.309 466.014 205.166 466.98 208.005L466.986 208.011Z" fill="#7696EA"/>
<path d="M472.049 225.36L473.519 225.001C472.802 222.069 472.009 219.108 471.164 216.205L469.706 216.627C470.545 219.513 471.332 222.445 472.044 225.36H472.049Z" fill="#7696EA"/>
<path d="M479.034 260.96C478.837 257.958 478.576 254.905 478.247 251.886L476.742 252.054C477.066 255.049 477.332 258.08 477.523 261.058L479.034 260.96Z" fill="#7696EA"/>
<path d="M475.33 315.314C475.932 312.353 476.482 309.34 476.956 306.35L475.457 306.113C474.989 309.074 474.445 312.069 473.843 315.007L475.33 315.308V315.314Z" fill="#7696EA"/>
<path d="M478.177 297.329C478.513 294.327 478.791 291.274 478.993 288.261L477.483 288.157C477.28 291.152 477.008 294.177 476.673 297.161L478.177 297.329Z" fill="#7696EA"/>
<path d="M479.415 279.159C479.485 276.134 479.491 273.069 479.427 270.05L477.911 270.085C477.975 273.081 477.969 276.123 477.899 279.124L479.415 279.159Z" fill="#7696EA"/>
<path d="M398.825 398.737C468.032 329.569 468.032 217.427 398.825 148.259C329.619 79.0916 217.414 79.0916 148.207 148.259C79.0012 217.427 79.0012 329.57 148.207 398.737C217.414 467.905 329.619 467.905 398.825 398.737Z" fill="#7696EA"/>
<path d="M523.796 302.898C528.327 302.898 532 299.226 532 294.697C532 290.169 528.327 286.497 523.796 286.497C519.264 286.497 515.591 290.169 515.591 294.697C515.591 299.226 519.264 302.898 523.796 302.898Z" fill="#7696EA"/>
<path d="M455.519 91.6983C455.519 94.3411 453.378 96.4808 450.733 96.4808C448.089 96.4808 445.948 94.3411 445.948 91.6983C445.948 89.0555 448.095 86.9158 450.733 86.9158C453.372 86.9158 455.519 89.0613 455.519 91.6983Z" fill="#7696EA"/>
<path d="M51.7983 327.643C51.7983 332.553 47.8116 336.537 42.8992 336.537C37.9867 336.537 34 332.553 34 327.643C34 322.733 37.9809 318.749 42.8992 318.749C47.8174 318.749 51.7983 322.733 51.7983 327.643Z" fill="#7696EA"/>
<path d="M329.848 322.195H294.037V344.535H329.848V322.195Z" fill="white"/>
<path d="M350.719 350.214H273.167C270.939 350.214 270.939 342.985 273.167 342.985H350.719C352.953 342.985 352.953 350.214 350.719 350.214Z" fill="white"/>
<path d="M168.326 303.013V311.323C168.326 318.708 174.373 324.751 181.768 324.751H442.117C449.506 324.751 455.553 318.708 455.553 311.323V303.013H168.326Z" fill="white"/>
<path d="M455.553 306.975V144.225C455.553 136.84 449.506 130.797 442.117 130.797H181.768C174.373 130.797 168.326 136.84 168.326 144.225V306.975H455.547H455.553Z" fill="#1A468F"/>
<path d="M446.313 140.865H177.567V296.982H446.313V140.865Z" fill="#FFD11D"/>
<path d="M446.313 139.419H177.567V144.549H446.313V139.419Z" fill="white"/>
<path d="M46.9611 424.964C46.9611 424.964 45.3409 427.983 56.8555 430.499H297.978C297.978 430.499 306.044 429.984 308.167 426.185L308.179 424.103L46.9553 424.97L46.9611 424.964Z" fill="#7696EA"/>
<path d="M47.0194 418.875H308.272V425.577C308.272 425.577 308.665 426.474 305.587 426.248H49.4785C49.4785 426.248 47.0714 426.925 46.8516 425.352L47.0194 418.869V418.875Z" fill="white"/>
<path d="M296.138 422.79C296.138 423.05 295.964 423.258 295.75 423.258H286.857C286.642 423.258 286.469 423.05 286.469 422.79C286.469 422.524 286.642 422.316 286.857 422.316H295.75C295.964 422.316 296.138 422.53 296.138 422.79Z" fill="#7696EA"/>
<path d="M159.901 418.921C159.901 418.921 158.895 422.281 162.251 422.611H192.559C192.559 422.611 195.782 423.027 195.353 419.037L159.901 418.921Z" fill="#7696EA"/>
<path d="M195.197 419.113V419.031H195.191C195.191 419.031 195.191 419.084 195.197 419.113Z" fill="url(#paint0_linear_64_5253)"/>
<path d="M282.587 418.84V299.833C282.587 294.431 278.166 290.013 272.762 290.013H82.3787C76.9744 290.013 72.5537 294.431 72.5537 299.833V418.84H282.581H282.587Z" fill="#1A468F"/>
<path d="M275.828 297.381H79.3116V411.536H275.828V297.381Z" fill="#F76031"/>
<path d="M275.828 297.381H79.3116V302.267H275.828V297.381Z" fill="white"/>
<path d="M194.341 310.005H135.75V402.74H218.863V334.513L194.341 310.005Z" fill="#1A468F"/>
<path d="M194.341 310.005H135.75V402.74H218.863V334.513H194.341V310.005Z" fill="white"/>
<path d="M174.13 337.434H142.925V339.504H174.13V337.434Z" fill="#7696EA"/>
<path d="M211.885 345.911H142.925V347.982H211.885V345.911Z" fill="#7696EA"/>
<path d="M211.885 350.624H142.925V352.695H211.885V350.624Z" fill="#7696EA"/>
<path d="M211.885 355.332H142.925V357.408H211.885V355.332Z" fill="#7696EA"/>
<path d="M211.885 360.045H142.925V362.121H211.885V360.045Z" fill="#7696EA"/>
<path d="M211.885 364.764H142.925V366.834H211.885V364.764Z" fill="#7696EA"/>
<path d="M211.885 369.471H142.925V371.541H211.885V369.471Z" fill="#7696EA"/>
<path d="M211.885 374.184H142.925V376.255H211.885V374.184Z" fill="#7696EA"/>
<path d="M211.885 378.897H142.925V380.968H211.885V378.897Z" fill="#7696EA"/>
<path d="M211.885 383.581H142.925V385.658H211.885V383.581Z" fill="#7696EA"/>
<path d="M211.885 388.295H142.925V390.365H211.885V388.295Z" fill="#7696EA"/>
<path d="M211.885 393.008H142.925V395.084H211.885V393.008Z" fill="#7696EA"/>
<path d="M194.324 310.005H135.75V314.874H194.324V310.005Z" fill="#7696EA"/>
<g opacity="0.2">
<path d="M308.271 425.577V418.875H176.988V430.499H297.983C297.983 430.499 306.049 429.984 308.173 426.185V425.924C308.346 425.751 308.271 425.577 308.271 425.577Z" fill="white"/>
<path d="M272.761 290.013H176.988V418.846H282.586V299.838C282.586 294.437 278.166 290.019 272.761 290.019V290.013Z" fill="white"/>
</g>
<path d="M335.472 153.882H254.535V281.986H369.345V187.742L335.472 153.882Z" fill="#1A468F"/>
<path d="M335.472 153.882H254.535V281.986H369.345V187.742H335.472V153.882Z" fill="white"/>
<path d="M307.548 191.772H264.44V194.635H307.548V191.772Z" fill="#7696EA"/>
<path d="M359.693 203.489H264.44V206.345H359.693V203.489Z" fill="#7696EA"/>
<path d="M359.693 209.994H264.44V212.857H359.693V209.994Z" fill="#7696EA"/>
<path d="M359.693 216.5H264.44V219.363H359.693V216.5Z" fill="#7696EA"/>
<path d="M359.693 223.012H264.44V225.874H359.693V223.012Z" fill="#7696EA"/>
<path d="M359.693 229.529H264.44V232.392H359.693V229.529Z" fill="#7696EA"/>
<path d="M359.693 236.035H264.44V238.898H359.693V236.035Z" fill="#7696EA"/>
<path d="M359.693 242.541H264.44V245.403H359.693V242.541Z" fill="#7696EA"/>
<path d="M359.693 249.053H264.44V251.915H359.693V249.053Z" fill="#7696EA"/>
<path d="M359.693 255.524H264.44V258.386H359.693V255.524Z" fill="#7696EA"/>
<path d="M359.693 262.035H264.44V264.898H359.693V262.035Z" fill="#7696EA"/>
<path d="M359.693 268.541H264.44V271.404H359.693V268.541Z" fill="#7696EA"/>
<path d="M335.443 153.882H254.535V160.608H335.443V153.882Z" fill="#7696EA"/>
<path opacity="0.2" d="M442.117 130.791H312.177V350.214H350.724C352.958 350.214 352.958 342.985 350.724 342.985H329.854V324.757H442.123C449.512 324.757 455.559 318.714 455.559 311.329V144.225C455.559 136.84 449.512 130.797 442.123 130.797L442.117 130.791Z" fill="white"/>
<path opacity="0.2" d="M434.572 313.891H401.371V437.635H434.572C438.918 437.635 442.441 434.113 442.441 429.77V321.756C442.441 317.413 438.918 313.891 434.572 313.891Z" fill="white"/>
<path d="M361.215 321.756C361.215 317.413 364.739 313.891 369.09 313.891H434.572C438.918 313.891 442.441 317.413 442.441 321.756V429.77C442.441 434.113 438.918 437.635 434.572 437.635H369.09C364.739 437.635 361.215 434.113 361.215 429.77V321.756Z" fill="#1A468F"/>
<path d="M434.775 323.005H368.876V428.521H434.775V323.005Z" fill="#7696EA"/>
<path d="M434.775 322.149H368.876V327.122H434.775V322.149Z" fill="white"/>
<path d="M401.822 436.374C400.063 436.374 398.64 434.946 398.64 433.188C398.64 431.43 400.063 430.007 401.822 430.007C403.581 430.007 405.01 431.435 405.01 433.188C405.01 434.94 403.581 436.374 401.822 436.374Z" fill="#EBE5EE"/>
<path d="M390.267 316.349H413.389C413.777 316.349 414.089 316.661 414.089 317.049V319.09C414.089 319.477 413.777 319.79 413.389 319.79H390.267C389.88 319.79 389.567 319.477 389.567 319.09V317.054C389.567 316.667 389.88 316.355 390.267 316.355V316.349Z" fill="white"/>
<path d="M410.252 348.606H378.868V398.282H423.387V361.733L410.252 348.606Z" fill="#1A468F"/>
<path d="M410.252 348.606H378.868V398.282H423.387V361.733H410.252V348.606Z" fill="white"/>
<path d="M399.427 363.301H382.711V364.411H399.427V363.301Z" fill="#7696EA"/>
<path d="M419.65 367.84H382.711V368.951H419.65V367.84Z" fill="#7696EA"/>
<path d="M419.65 370.367H382.711V371.478H419.65V370.367Z" fill="#7696EA"/>
<path d="M419.65 372.889H382.711V373.999H419.65V372.889Z" fill="#7696EA"/>
<path d="M419.65 375.41H382.711V376.52H419.65V375.41Z" fill="#7696EA"/>
<path d="M419.65 377.937H382.711V379.048H419.65V377.937Z" fill="#7696EA"/>
<path d="M419.65 380.464H382.711V381.575H419.65V380.464Z" fill="#7696EA"/>
<path d="M419.65 382.986H382.711V384.096H419.65V382.986Z" fill="#7696EA"/>
<path d="M419.65 385.513H382.711V386.623H419.65V385.513Z" fill="#7696EA"/>
<path d="M419.65 388.023H382.711V389.133H419.65V388.023Z" fill="#7696EA"/>
<path d="M419.65 390.544H382.711V391.655H419.65V390.544Z" fill="#7696EA"/>
<path d="M419.65 393.066H382.711V394.176H419.65V393.066Z" fill="#7696EA"/>
<path d="M410.241 348.606H378.868V351.214H410.241V348.606Z" fill="#7696EA"/>
<path opacity="0.2" d="M434.572 313.891H401.371V437.635H434.572C438.918 437.635 442.441 434.113 442.441 429.77V321.756C442.441 317.413 438.918 313.891 434.572 313.891Z" fill="white"/>
</g>
<defs>
<linearGradient id="paint0_linear_64_5253" x1="195.191" y1="419.113" x2="195.191" y2="419.031" gradientUnits="userSpaceOnUse">
<stop offset="0.02" stop-color="#5F6767"/>
<stop offset="0.48" stop-color="#676B6C"/>
<stop offset="0.51" stop-color="#707475"/>
<stop offset="0.62" stop-color="#878A8B"/>
<stop offset="0.72" stop-color="#949798"/>
<stop offset="0.81" stop-color="#999C9D"/>
</linearGradient>
<clipPath id="clip0_64_5253">
<rect width="498" height="461" fill="white" transform="translate(34 43)"/>
</clipPath>
</defs>
</svg>
