<svg width="566" height="547" viewBox="0 0 566 547" fill="none" xmlns="http://www.w3.org/2000/svg">
<rect width="565" height="547" rx="32" fill="#A8C0FF"/>
<mask id="mask0_64_5146" style="mask-type:alpha" maskUnits="userSpaceOnUse" x="12" y="0" width="554" height="547">
<rect x="12.7146" width="552.593" height="547" rx="32" fill="#A8C0FF"/>
</mask>
<g mask="url(#mask0_64_5146)">
</g>
<g clip-path="url(#clip0_64_5146)">
<path d="M0 546V399.586H114.936V303H444.234V328.437H565.013L567 546H0Z" fill="#F2F4FF"/>
<path d="M369.301 221.101H144.228C136.503 221.101 130.24 227.365 130.24 235.091V532.45C130.24 540.176 136.503 546.44 144.228 546.44H369.301C377.026 546.44 383.288 540.176 383.288 532.45V235.091C383.288 227.365 377.026 221.101 369.301 221.101Z" fill="#1D2238"/>
<path d="M367.524 240.472H146.001V527.068H367.524V240.472Z" fill="white"/>
<path d="M273.934 215.993C273.835 206.591 266.189 199 256.764 199C247.339 199 239.693 206.591 239.595 215.993H223.685V243.202H289.84V215.993H273.929H273.934ZM256.764 218.712C253.419 218.712 250.707 216 250.707 212.654C250.707 209.308 253.419 206.596 256.764 206.596C260.11 206.596 262.821 209.308 262.821 212.654C262.821 216 260.11 218.712 256.764 218.712Z" fill="#7696EA"/>
<path d="M358.477 270.402H208.533V279.563H358.477V270.402Z" fill="#A8C0FF"/>
<path d="M358.477 288.292H208.533V297.452H358.477V288.292Z" fill="#A8C0FF"/>
<path d="M281.608 306.18H208.533V315.34H281.608V306.18Z" fill="#A8C0FF"/>
<path d="M202.288 316.012H160.117V269.73H202.288V316.012ZM161.459 314.668H200.941V271.075H161.459V314.668Z" fill="#9EA9BD"/>
<path d="M175.564 278.594L185.446 292.345L212.693 266.713L217.531 272.962L184.034 304.974L169.592 284.032L175.564 278.594Z" fill="#1F48DA"/>
<path d="M358.477 329.424H208.533V338.584H358.477V329.424Z" fill="#A8C0FF"/>
<path d="M358.477 347.312H208.533V356.472H358.477V347.312Z" fill="#A8C0FF"/>
<path d="M281.608 365.201H208.533V374.362H281.608V365.201Z" fill="#A8C0FF"/>
<path d="M202.288 375.034H160.117V328.752H202.288V375.034ZM161.459 373.689H200.941V330.096H161.459V373.689Z" fill="#9EA9BD"/>
<path d="M175.564 337.616L185.446 351.366L212.693 325.735L217.531 331.984L184.034 363.993L169.592 343.051L175.564 337.616Z" fill="#1F48DA"/>
<path d="M358.477 388.446H208.533V397.606H358.477V388.446Z" fill="#A8C0FF"/>
<path d="M358.477 406.333H208.533V415.493H358.477V406.333Z" fill="#A8C0FF"/>
<path d="M281.608 424.221H208.533V433.381H281.608V424.221Z" fill="#A8C0FF"/>
<path d="M202.288 434.056H160.117V387.773H202.288V434.056ZM161.459 432.711H200.941V389.118H161.459V432.711Z" fill="#9EA9BD"/>
<path d="M175.564 396.638L185.446 410.388L212.693 384.754L217.531 391.005L184.034 423.015L169.592 402.073L175.564 396.638Z" fill="#1F48DA"/>
<path d="M358.477 447.465H208.533V456.625H358.477V447.465Z" fill="#A8C0FF"/>
<path d="M358.477 465.355H208.533V474.515H358.477V465.355Z" fill="#A8C0FF"/>
<path d="M281.608 483.243H208.533V492.403H281.608V483.243Z" fill="#A8C0FF"/>
<path d="M202.288 493.075H160.117V446.793H202.288V493.075ZM161.459 491.73H200.941V448.138H161.459V491.73Z" fill="#9EA9BD"/>
<path d="M175.564 455.659L185.446 469.407L212.693 443.776L217.531 450.025L184.034 482.037L169.592 461.094L175.564 455.659Z" fill="#1F48DA"/>
<path d="M494.905 476.478H425.252V546.44H494.905V476.478Z" fill="#FE6B8F"/>
<path d="M464.277 476.478H455.881V487.557H464.277V476.478Z" fill="#BF5299"/>
<path d="M544.776 476.478H494.905V546.44H544.776V476.478Z" fill="#BF5299"/>
<path d="M523.035 476.478H516.65V487.557H523.035V476.478Z" fill="#FE6B8F"/>
<path d="M481.48 342.587H411.827V476.481H481.48V342.587Z" fill="#D6DEFF"/>
<path d="M450.855 342.587H442.458V363.787H450.855V342.587Z" fill="#7696EA"/>
<path d="M531.353 342.587H481.482V476.481H531.353V342.587Z" fill="#7696EA"/>
<path d="M509.61 342.587H503.226V363.787H509.61V342.587Z" fill="#D6DEFF"/>
<path d="M384.298 476.478H294.715V546.44H384.298V476.478Z" fill="#D6DEFF"/>
<path d="M344.903 476.478H334.106V487.557H344.903V476.478Z" fill="#7696EA"/>
<path d="M443.576 476.478H384.298V546.44H443.576V476.478Z" fill="#7696EA"/>
<path d="M421.078 476.478H410.281V487.557H421.078V476.478Z" fill="#D6DEFF"/>
<path d="M375.38 406.517H305.727V476.478H375.38V406.517Z" fill="#FE6B8F"/>
<path d="M344.754 406.517H336.357V417.596H344.754V406.517Z" fill="#BF5299"/>
<path d="M425.252 406.517H375.382V476.478H425.252V406.517Z" fill="#BF5299"/>
<path d="M403.509 406.517H397.125V417.596H403.509V406.517Z" fill="#FE6B8F"/>
<path d="M584 545.879H-15.1572V547H584V545.879Z" fill="#1D2238"/>
<path d="M96.629 340.106L94.3187 341.652L82.0028 323.231C81.5771 322.593 81.7474 321.73 82.386 321.302C83.0247 320.876 83.8874 321.046 84.3154 321.685L96.6312 340.106H96.629Z" fill="#1D2238"/>
<path d="M84.4268 344.958C84.4268 344.958 85.3791 337.044 87.3578 336.679C89.3365 336.314 95.1964 336.459 96.3684 336.679C97.5403 336.899 100.763 338.95 101.424 341.003L88.8973 353.166L84.429 344.961L84.4268 344.958Z" fill="#EB9481"/>
<path d="M72.8774 278.482C72.8774 278.482 75.3693 281.553 76.1401 285.892C76.4471 287.618 75.9362 289.373 74.4124 290.242L65.915 278.482H72.8797H72.8774Z" fill="#1D2238"/>
<path d="M60.7814 276.405C53.4941 276.405 47.5266 282.039 46.9888 289.191L46.8768 289.173L43.8852 307.843C43.2264 311.953 46.023 315.82 50.1328 316.478C54.2425 317.137 57.3932 318.305 58.7668 310.23L58.9797 308.905C59.5691 308.981 60.1719 309.026 60.7814 309.026C68.4227 309.026 74.6187 302.831 74.6187 295.186V290.244C74.6187 282.602 68.425 276.405 60.7814 276.405Z" fill="#F8A6B3"/>
<path d="M69.2232 287.891C69.3352 288.254 69.4159 288.615 69.4854 288.978C69.5257 289.16 69.5481 289.341 69.5773 289.523C69.6064 289.704 69.6355 289.886 69.6534 290.067C69.696 290.43 69.7364 290.791 69.7543 291.154L69.7901 291.699L69.8013 292.244L69.1873 291.63C69.4182 291.627 69.649 291.614 69.8798 291.618C69.9985 291.623 70.0882 291.618 70.2899 291.636C70.4646 291.659 70.6349 291.706 70.7963 291.773C71.4551 292.042 71.854 292.757 71.8114 293.425C71.7845 293.759 71.659 294.077 71.4618 294.328C71.2624 294.579 70.9845 294.749 70.6954 294.835C70.5498 294.877 70.3997 294.888 70.2562 294.882C70.1016 294.87 69.9985 294.843 69.8798 294.821C69.649 294.77 69.4182 294.711 69.1873 294.64H69.1784C69.1605 294.631 69.1492 294.613 69.156 294.595C69.1605 294.581 69.1739 294.57 69.1873 294.57L69.8798 294.561C69.9941 294.561 70.1128 294.561 70.2204 294.55C70.3302 294.534 70.4378 294.505 70.5386 294.465C70.9487 294.294 71.231 293.866 71.2243 293.425C71.2265 292.983 70.9419 292.56 70.5341 292.396C70.4333 292.356 70.3257 292.329 70.2181 292.318C70.1128 292.311 69.9941 292.313 69.8798 292.313H69.1873L69.1201 292.311V292.244C69.1313 290.794 69.1268 289.343 69.1537 287.893C69.1537 287.875 69.1694 287.86 69.1873 287.86C69.203 287.86 69.2142 287.871 69.2187 287.884V287.893L69.2232 287.891Z" fill="#1D2238"/>
<path d="M72.0863 288.956C72.6173 288.956 73.0477 288.525 73.0477 287.994C73.0477 287.463 72.6173 287.033 72.0863 287.033C71.5554 287.033 71.125 287.463 71.125 287.994C71.125 288.525 71.5554 288.956 72.0863 288.956Z" fill="#1D2238"/>
<path d="M71.2868 297.712C71.2868 297.712 69.6936 295.393 65.0527 295.453L71.2868 297.712Z" fill="white"/>
<path d="M69.6652 284.119C69.5778 284.478 70.3218 284.964 71.3279 285.208C72.3318 285.453 73.217 285.358 73.3044 285C73.3918 284.641 72.6478 284.155 71.6416 283.911C70.6377 283.666 69.7526 283.76 69.6652 284.119Z" fill="#1D2238"/>
<path d="M66.518 289.402C67.0489 289.402 67.4793 288.971 67.4793 288.44C67.4793 287.909 67.0489 287.479 66.518 287.479C65.987 287.479 65.5566 287.909 65.5566 288.44C65.5566 288.971 65.987 289.402 66.518 289.402Z" fill="#1D2238"/>
<path d="M64.1015 285.473C64.1934 285.829 65.0785 285.91 66.0802 285.65C67.0819 285.392 67.8169 284.892 67.725 284.536C67.6331 284.18 66.748 284.099 65.7463 284.359C64.7446 284.617 64.0096 285.116 64.1015 285.473Z" fill="#1D2238"/>
<path d="M72.2213 298.362C71.5177 298.309 70.8499 298.165 70.1934 297.993C69.8617 297.914 69.5435 297.802 69.2186 297.706C68.8981 297.598 68.5799 297.482 68.2617 297.369C67.9502 297.239 67.6343 297.118 67.3228 296.984C67.0158 296.84 66.7043 296.711 66.404 296.549C65.7968 296.242 65.2029 295.906 64.6427 295.478L64.636 295.473C64.6248 295.464 64.6225 295.446 64.6315 295.435C64.6382 295.426 64.6517 295.422 64.6629 295.426L68.4634 296.843L72.2437 298.311C72.2572 298.315 72.2662 298.333 72.2594 298.347C72.255 298.358 72.2437 298.365 72.2325 298.365H72.2236L72.2213 298.362Z" fill="#1D2238"/>
<path d="M44.9975 290.569C44.9975 290.569 57.0489 279.948 68.7171 279.95C68.7171 279.95 73.8129 279.726 75.6952 284.043C75.6952 284.043 73.4498 266.413 53.9677 269.385C34.4856 272.357 42.2569 292.255 42.2569 292.255L44.9953 290.569H44.9975Z" fill="#7696EA"/>
<path d="M58.7262 282.122C58.7262 282.122 56.3531 285.004 51.3941 290.244C50.1683 291.54 48.044 293.333 48.044 293.333C48.044 293.333 48.5549 290.623 47.6406 288.644C47.6406 288.644 53.1801 284.173 58.7262 282.122Z" fill="#1D2238"/>
<path d="M66.3835 279.693C66.3835 279.693 67.9095 282.456 71.7974 282.646C71.7974 282.646 65.5835 284.688 63.1611 280.367L66.3835 279.693Z" fill="#1D2238"/>
<path d="M45.9956 294.98L45.0791 300.393L42.2578 292.255L46.9883 289.189L45.9956 294.98Z" fill="#1D2238"/>
<path d="M45.8663 294.655C47.3873 294.655 48.6204 293.129 48.6204 291.246C48.6204 289.364 47.3873 287.837 45.8663 287.837C44.3453 287.837 43.1123 289.364 43.1123 291.246C43.1123 293.129 44.3453 294.655 45.8663 294.655Z" fill="#F8A6B3"/>
<path d="M47.4411 290.314C47.1879 290.108 46.9436 289.953 46.6971 289.888C46.5784 289.85 46.4618 289.832 46.352 289.836C46.2445 289.841 46.1436 289.845 46.0495 289.884C45.6887 290.009 45.4176 290.318 45.2585 290.726C45.2137 290.825 45.189 290.935 45.1621 291.042C45.1532 291.098 45.1397 291.152 45.133 291.21L45.124 291.296L45.1151 291.356C45.1106 291.376 45.1128 291.369 45.1084 291.376C45.1061 291.367 45.0994 291.363 45.0837 291.338C45.0591 291.289 44.9537 291.224 44.9112 291.226C44.8282 291.231 44.956 291.262 45.0703 291.246C45.3168 291.217 45.6305 291.15 45.9442 291.103C46.2602 291.069 46.6142 291.02 46.9436 291.143L46.9548 291.148C46.9728 291.154 46.9817 291.174 46.975 291.192C46.9705 291.206 46.9571 291.215 46.9436 291.215C46.6478 291.228 46.3588 291.343 46.0786 291.455C45.7963 291.564 45.5162 291.692 45.2159 291.782C45.0658 291.822 44.9067 291.865 44.7319 291.818C44.6445 291.795 44.5638 291.73 44.5212 291.65C44.4764 291.571 44.463 291.484 44.4563 291.403C44.4428 291.085 44.4921 290.771 44.6064 290.477C44.7207 290.184 44.8999 289.913 45.1397 289.704C45.375 289.496 45.682 289.352 46.0002 289.332C46.3184 289.303 46.6411 289.399 46.9033 289.574C47.1632 289.754 47.3649 290.007 47.5016 290.285C47.5106 290.3 47.5016 290.321 47.4859 290.33C47.4747 290.336 47.459 290.334 47.4501 290.325L47.4389 290.316L47.4411 290.314Z" fill="#1D2238"/>
<path d="M61.29 281.194C61.29 281.194 69.5566 270.113 79.5487 272.792C89.5407 275.47 75.6966 284.043 75.6966 284.043C75.6966 284.043 71.8468 277.554 61.29 281.194Z" fill="#F1F2F5"/>
<path d="M53.0957 269.916C53.1898 270.402 52.15 271.014 50.7719 271.281C49.3937 271.548 48.2016 271.368 48.1075 270.882C48.0134 270.396 49.0531 269.784 50.4313 269.517C51.8094 269.25 53.0015 269.43 53.0957 269.916Z" fill="#1D2238"/>
<path d="M58.9805 308.903C58.9805 308.903 55.9956 307.283 52.8203 304.048C52.8203 304.048 54.1514 308.668 58.7698 310.228L58.9827 308.903H58.9805Z" fill="#1D2238"/>
<path d="M82.2892 529.426L103.23 538.559C106.354 539.922 108.351 543.033 108.288 546.442L62.7578 546.343L65.1802 529.39L82.2892 529.428V529.426Z" fill="#4A4E60"/>
<path d="M62.7646 543.32C66.5159 543.537 70.2648 543.654 74.0161 543.737C75.8917 543.788 77.7673 543.802 79.6429 543.833L85.2697 543.873L90.8965 543.86C92.7721 543.835 94.6477 543.831 96.5234 543.788C100.275 543.723 104.026 543.62 107.777 543.418C104.026 543.201 100.277 543.082 96.5256 543.002C94.65 542.95 92.7744 542.937 90.8988 542.905L85.2719 542.867L79.6451 542.883C77.7695 542.905 75.8939 542.912 74.0183 542.955C70.2671 543.02 66.5159 543.123 62.7646 543.322V543.32Z" fill="#1D2238"/>
<path d="M75.3026 539.52C76.9172 537.905 76.9172 535.287 75.3026 533.672C73.6881 532.057 71.0703 532.057 69.4557 533.672C67.8411 535.287 67.8411 537.905 69.4557 539.52C71.0703 541.135 73.688 541.135 75.3026 539.52Z" fill="#1D2238"/>
<path d="M100.407 536.908C99.8689 536.686 99.3512 536.683 98.8605 536.762C98.3697 536.847 97.9036 537.035 97.4846 537.309C97.0656 537.58 96.7003 537.957 96.4291 538.396C96.1625 538.84 95.9989 539.373 96.0706 539.94L96.158 539.989C96.2902 539.81 96.4 539.62 96.5524 539.458C96.6241 539.375 96.6891 539.283 96.7653 539.205L96.9961 538.967C97.3165 538.665 97.6616 538.387 98.0381 538.152C98.4056 537.907 98.7933 537.688 99.1944 537.499C99.3961 537.405 99.6 537.318 99.8061 537.237C100.01 537.152 100.221 537.073 100.431 537.006L100.407 536.908Z" fill="#1D2238"/>
<path d="M95.062 534.626C94.5241 534.404 94.0065 534.402 93.5158 534.48C93.025 534.565 92.5589 534.754 92.1399 535.027C91.7208 535.298 91.3556 535.675 91.0844 536.114C90.8177 536.558 90.6542 537.091 90.7259 537.658L90.8133 537.708C90.9455 537.528 91.0553 537.338 91.2077 537.177C91.2794 537.094 91.3444 537.002 91.4205 536.923L91.6514 536.686C91.9718 536.383 92.3169 536.105 92.6934 535.87C93.0609 535.626 93.4485 535.406 93.8496 535.218C94.0513 535.124 94.2552 535.036 94.4614 534.955C94.6653 534.87 94.876 534.792 95.0866 534.725L95.062 534.626Z" fill="#1D2238"/>
<path d="M90.1166 532.555C89.5788 532.333 89.0612 532.331 88.5704 532.409C88.0797 532.495 87.6136 532.683 87.1946 532.956C86.7755 533.227 86.4102 533.604 86.1391 534.043C85.8724 534.487 85.7089 535.02 85.7806 535.587L85.868 535.637C86.0002 535.457 86.11 535.267 86.2623 535.106C86.3341 535.023 86.399 534.931 86.4752 534.852L86.706 534.615C87.0265 534.312 87.3716 534.034 87.748 533.799C88.1155 533.555 88.5032 533.335 88.9043 533.147C89.106 533.053 89.3099 532.965 89.5161 532.885C89.72 532.799 89.9307 532.721 90.1413 532.654L90.1166 532.555Z" fill="#1D2238"/>
<path d="M54.9992 529.426L75.9401 538.559C79.0639 539.922 81.0605 543.033 80.9978 546.442L35.4678 546.343L37.8902 529.39L54.9992 529.428V529.426Z" fill="#9EA9BD"/>
<path d="M35.4746 543.32C39.2258 543.537 42.9748 543.654 46.726 543.737C48.6016 543.788 50.4772 543.802 52.3528 543.833L57.9797 543.873L63.6065 543.86C65.4821 543.835 67.3577 543.831 69.2333 543.788C72.9845 543.723 76.7358 543.62 80.487 543.418C76.7358 543.201 72.9868 543.082 69.2356 543.002C67.3599 542.95 65.4843 542.937 63.6087 542.905L57.9819 542.867L52.3551 542.883C50.4795 542.905 48.6039 542.912 46.7283 542.955C42.977 543.02 39.2258 543.123 35.4746 543.322V543.32Z" fill="#1D2238"/>
<path d="M48.0116 539.52C49.6262 537.905 49.6262 535.287 48.0116 533.672C46.397 532.057 43.7793 532.057 42.1647 533.672C40.5501 535.286 40.5501 537.905 42.1647 539.52C43.7793 541.134 46.397 541.134 48.0116 539.52Z" fill="#1D2238"/>
<path d="M73.1176 536.908C72.5798 536.686 72.0622 536.683 71.5714 536.762C71.0807 536.847 70.6146 537.035 70.1955 537.309C69.7765 537.58 69.4112 537.957 69.1401 538.396C68.8734 538.84 68.7098 539.373 68.7815 539.94L68.8689 539.989C69.0011 539.81 69.111 539.62 69.2633 539.458C69.335 539.375 69.4 539.283 69.4762 539.205L69.707 538.967C70.0275 538.665 70.3726 538.387 70.749 538.152C71.1165 537.907 71.5042 537.688 71.9053 537.499C72.107 537.405 72.3109 537.318 72.5171 537.237C72.721 537.152 72.9316 537.073 73.1423 537.006L73.1176 536.908Z" fill="#1D2238"/>
<path d="M67.7729 534.626C67.2351 534.404 66.7174 534.402 66.2267 534.48C65.7359 534.565 65.2698 534.754 64.8508 535.027C64.4318 535.298 64.0665 535.675 63.7953 536.114C63.5287 536.558 63.3651 537.091 63.4368 537.658L63.5242 537.708C63.6564 537.528 63.7662 537.338 63.9186 537.177C63.9903 537.094 64.0553 537.002 64.1315 536.923L64.3623 536.686C64.6827 536.383 65.0278 536.105 65.4043 535.87C65.7718 535.626 66.1595 535.406 66.5606 535.218C66.7623 535.124 66.9662 535.036 67.1723 534.955C67.3763 534.87 67.5869 534.792 67.7975 534.725L67.7729 534.626Z" fill="#1D2238"/>
<path d="M62.8276 532.555C62.2898 532.333 61.7721 532.331 61.2814 532.409C60.7906 532.495 60.3245 532.683 59.9055 532.956C59.4864 533.227 59.1212 533.604 58.85 534.043C58.5834 534.487 58.4198 535.02 58.4915 535.587L58.5789 535.637C58.7111 535.457 58.8209 535.267 58.9733 535.106C59.045 535.023 59.11 534.931 59.1862 534.852L59.417 534.615C59.7374 534.312 60.0825 534.034 60.459 533.799C60.8265 533.555 61.2142 533.335 61.6153 533.147C61.817 533.053 62.0209 532.965 62.227 532.885C62.4309 532.799 62.6416 532.721 62.8522 532.654L62.8276 532.555Z" fill="#1D2238"/>
<path d="M89.5291 529.254L85.4395 445.271C85.3252 442.911 85.0451 440.562 84.6037 438.242L75.9158 392.599L23.2531 388.479C23.2531 388.479 18.0812 409.52 28.6783 429.775L34.1348 529.922L62.2398 529.742L62.2353 529.428L89.5291 529.256V529.254Z" fill="#1D2238"/>
<path d="M58.0163 395.349L58.3749 399.538L58.7088 403.729L59.3765 412.114L60.6023 428.892L60.9071 433.087L61.1849 437.283L61.7384 445.677L62.8432 462.461L62.9059 463.51C62.9238 463.86 62.9082 464.212 62.9126 464.562L62.9059 466.664L62.8925 470.869L62.8633 479.28L62.8342 487.691L62.8163 491.896L62.7715 496.101L62.5922 512.921L62.4488 521.331L62.3771 525.535L62.2807 529.74H62.2045L62.1866 496.11L62.1776 479.296L62.1731 470.889V466.684L62.1687 464.582C62.1642 464.232 62.1776 463.88 62.1575 463.531L62.0925 462.482L57.9424 395.349L58.0186 395.344L58.0163 395.349Z" fill="#4A4E60"/>
<path d="M99.4948 367.093L92.277 355.858L75.6072 360.372L71.2442 330.489C71.2016 330.168 71.1613 329.897 71.1254 329.682C70.0341 323.108 58.4062 311.673 58.4062 311.673L55.8382 314.318L43.8854 307.843C43.8854 307.843 33.9494 311.837 27.8452 319.585C21.7411 327.333 23.2515 388.479 23.2515 388.479C23.2515 388.479 35.5919 398.48 44.5196 400.123C53.4472 401.766 76.8732 395.347 76.8732 395.347C76.8732 395.347 76.4699 390.214 75.8693 382.809L99.4903 367.091L99.4948 367.093Z" fill="#7696EA"/>
<path d="M55.838 314.318L50.2089 319.15C49.2901 319.937 47.9344 319.948 47.0134 319.166C44.414 316.963 39.8 312.435 41.2521 309.08L43.8874 307.843L55.8402 314.318H55.838Z" fill="white"/>
<path d="M55.8379 314.318L58.6188 317.317C59.374 318.13 60.7006 317.971 61.2429 317.003L62.0585 315.544L58.4059 311.673L55.8379 314.318Z" fill="white"/>
<path d="M40.9747 327.27L51.3656 356.981L83.6857 340.613L88.7994 353.157L60.0356 376.964C57.3017 379.225 53.9426 380.597 50.4088 380.893C44.41 381.395 38.5792 378.759 34.9961 373.922C30.1267 367.349 23.9598 358.341 23.3346 354.121C22.2881 347.054 16.9548 333.588 27.8455 319.587L40.9725 327.272L40.9747 327.27Z" fill="#7696EA"/>
<path d="M72.7927 346.139C71.0426 347.114 69.2858 348.071 67.5222 349.017C65.7609 349.97 63.9906 350.902 62.2225 351.839C60.4478 352.765 58.682 353.704 56.9005 354.618C55.1212 355.535 53.3487 356.461 51.5627 357.366L51.0563 357.621L50.9398 357.063C50.6731 355.781 50.3795 354.495 50.077 353.215C49.7745 351.933 49.4697 350.653 49.1471 349.378C48.495 346.828 47.816 344.284 47.0541 341.765C46.3012 339.243 45.4788 336.744 44.5286 334.292C44.0491 333.068 43.5426 331.856 42.9623 330.675C42.3864 329.494 41.7522 328.337 40.9746 327.27C41.8396 328.27 42.5611 329.393 43.2155 330.542C43.8586 331.701 44.4502 332.891 44.9813 334.104C46.0547 336.529 46.9555 339.021 47.7824 341.536C48.5936 344.055 49.3375 346.597 49.9941 349.158C50.6641 351.72 51.2647 354.291 51.7913 356.891L51.1683 356.588C52.9543 355.685 54.7515 354.804 56.5442 353.917C58.3346 353.025 60.1385 352.157 61.9357 351.276C63.7374 350.407 65.539 349.533 67.3497 348.679C69.158 347.818 70.9709 346.971 72.7927 346.137V346.139Z" fill="#1D2238"/>
<path d="M23.3369 354.118L24.4148 356.068L25.4792 358.025C26.1918 359.327 26.9066 360.629 27.6304 361.923C28.3497 363.22 29.0713 364.516 29.8108 365.802L30.9223 367.727C31.2942 368.373 31.6617 369.021 32.0225 369.668C33.4769 372.248 34.902 374.859 36.8583 377.011C37.3558 377.535 37.8622 378.053 38.4247 378.497C38.6958 378.732 38.9939 378.932 39.2829 379.142C39.5855 379.33 39.8835 379.53 40.2017 379.694C41.4566 380.384 42.8437 380.823 44.2622 381.058C47.1103 381.536 50.0772 381.191 52.8514 380.33C54.243 379.9 55.592 379.333 56.8738 378.636C57.5124 378.284 58.1331 377.903 58.7315 377.49C59.3298 377.076 59.8922 376.621 60.4726 376.15C62.7785 374.281 65.0955 372.425 67.4171 370.572L70.9128 367.81L72.6607 366.43L74.4198 365.063L72.7481 366.535L71.0652 367.994L67.6994 370.91C65.4451 372.844 63.1885 374.772 60.9208 376.688C60.3606 377.165 59.7802 377.658 59.1684 378.105C58.5522 378.544 57.9135 378.949 57.257 379.324C55.9393 380.066 54.5478 380.673 53.1114 381.141C51.6727 381.605 50.1825 381.919 48.6722 382.072C47.1618 382.217 45.6291 382.195 44.1187 381.946C42.6151 381.688 41.1317 381.213 39.7849 380.467C39.4443 380.29 39.1238 380.075 38.7989 379.868C38.4874 379.642 38.1692 379.425 37.8802 379.171C37.2796 378.692 36.744 378.145 36.2331 377.582C35.2292 376.439 34.362 375.198 33.5889 373.916C32.8068 372.636 32.1077 371.318 31.413 370.007C31.0657 369.35 30.7183 368.698 30.362 368.05C30.0035 367.398 29.6472 366.746 29.2999 366.089C28.603 364.776 27.9173 363.458 27.2472 362.133C26.5817 360.806 25.9251 359.473 25.273 358.139L24.2982 356.136L23.3414 354.125L23.3369 354.118Z" fill="#1D2238"/>
<path d="M47.5943 367.701C47.5137 367.432 47.4509 367.158 47.3927 366.882C47.3366 366.607 47.2672 366.329 47.2515 366.049C47.2089 365.488 47.1551 364.919 47.2067 364.354C47.2448 363.218 47.5159 362.093 47.9036 361.022C48.2935 359.946 48.8739 358.946 49.5753 358.052C50.2811 357.167 51.1237 356.369 52.1343 355.855C51.5024 356.783 50.9534 357.698 50.4559 358.635C49.9629 359.569 49.517 360.515 49.1607 361.494C48.8066 362.474 48.4728 363.467 48.2487 364.502C48.1008 365.015 48.0313 365.542 47.9058 366.071C47.7938 366.602 47.7333 367.142 47.5921 367.698L47.5943 367.701Z" fill="#1D2238"/>
<path d="M91.9922 364.767L78.65 359.19C77.8187 358.843 77.626 357.752 78.287 357.14L112.705 325.255C113.31 324.695 114.28 324.872 114.65 325.607L121.935 340.061C122.213 340.613 122.071 341.28 121.594 341.673L93.7087 364.516C93.2269 364.91 92.5681 365.007 91.9944 364.767H91.9922Z" fill="#1F48DA"/>
<path d="M75.6971 382.928C75.4797 381.556 75.3027 380.184 75.1436 378.808C75.0607 378.12 74.9867 377.434 74.9172 376.744C74.8455 376.056 74.7738 375.368 74.7156 374.68C74.5833 373.304 74.4803 371.925 74.3749 370.547C74.3167 369.859 74.2831 369.166 74.236 368.478C74.1934 367.788 74.1441 367.1 74.1128 366.407L74.1016 366.136L74.3212 366.017C74.9979 365.65 75.6702 365.273 76.3514 364.912C77.0326 364.554 77.7094 364.184 78.3973 363.834C79.083 363.48 79.7687 363.128 80.4612 362.785C81.1513 362.44 81.8482 362.104 82.5496 361.781C81.9155 362.223 81.2746 362.655 80.627 363.077C79.9816 363.503 79.3318 363.915 78.6797 364.327C78.0298 364.744 77.3688 365.141 76.7144 365.547C76.0578 365.952 75.3945 366.342 74.7335 366.741L74.9419 366.351C75.0091 367.039 75.0562 367.73 75.11 368.418C75.1593 369.108 75.222 369.796 75.2623 370.486C75.352 371.867 75.4416 373.245 75.5066 374.628C75.5447 375.319 75.5738 376.009 75.5985 376.701C75.6276 377.392 75.65 378.084 75.6657 378.777C75.7038 380.16 75.7217 381.545 75.6971 382.932V382.928Z" fill="#1D2238"/>
<path d="M109.266 353.948C109.214 353.605 109.118 353.26 109.035 352.928C108.862 352.238 108.699 351.545 108.531 350.853C108.298 349.891 108.062 348.928 107.829 347.966C107.592 346.987 106.603 346.386 105.624 346.624C104.645 346.861 104.044 347.85 104.282 348.829L104.349 349.105C103.919 348.739 103.327 348.578 102.738 348.721C101.759 348.959 101.158 349.947 101.396 350.927C101.47 351.229 101.544 351.534 101.618 351.837C101.577 351.74 101.494 351.669 101.407 351.608C100.818 351.207 99.8383 351.303 99.4484 351.944C99.2131 352.328 99.2893 352.771 99.3206 353.197C99.4618 355.136 99.7442 357.072 99.9548 359.007L96.4053 362.308L97.2165 363.574C97.9492 363.321 98.6282 363.178 99.361 362.924C100.336 362.588 101.335 362.317 102.279 361.896C103.032 361.562 103.677 361.084 104.3 360.553C105.499 359.531 106.574 358.363 107.594 357.167C108.062 356.617 108.524 356.059 108.961 355.483C109.317 355.013 109.344 354.484 109.263 353.953L109.266 353.948Z" fill="#EB9481"/>
<path d="M99.9543 359.004C99.9543 359.004 99.5554 360.533 100.306 361.658C100.306 361.658 98.9884 361.351 99.4478 359.475L99.9543 359.004Z" fill="#1D2238"/>
<path d="M104.349 349.105C104.853 349.501 105.249 350.057 105.44 350.685C105.637 351.299 105.792 351.92 105.951 352.541C106.103 353.164 106.251 353.787 106.381 354.414L106.574 355.356C106.63 355.672 106.693 355.985 106.742 356.304C106.643 355.999 106.56 355.69 106.469 355.382L106.215 354.455C106.047 353.836 105.893 353.215 105.736 352.594L105.279 350.732C105.205 350.425 105.084 350.136 104.925 349.862C104.768 349.587 104.575 349.331 104.353 349.1L104.349 349.105Z" fill="#1D2238"/>
<path d="M101.616 351.839C102.091 352.142 102.528 352.583 102.69 353.164C102.853 353.715 102.97 354.271 103.088 354.827C103.201 355.385 103.31 355.943 103.4 356.503L103.534 357.346C103.57 357.628 103.613 357.908 103.642 358.193C103.564 357.92 103.499 357.642 103.427 357.366L103.232 356.537C103.102 355.983 102.988 355.427 102.869 354.871C102.755 354.316 102.645 353.758 102.524 353.208C102.468 352.937 102.347 352.691 102.183 352.464C102.026 352.234 101.829 352.027 101.616 351.839Z" fill="#1D2238"/>
<path d="M80.2744 356.981C81.5965 355.687 82.9433 354.417 84.2811 353.141C85.6167 351.861 86.9701 350.6 88.3169 349.336L92.3818 345.561L96.4692 341.812C99.2075 339.326 101.944 336.838 104.702 334.375L106.768 332.524L108.846 330.684C110.228 329.455 111.613 328.232 113.007 327.017L113.343 326.723L113.538 327.111L115.115 330.242L116.677 333.382L118.219 336.533C118.737 337.582 119.243 338.636 119.745 339.691C119.162 338.678 118.584 337.661 118.017 336.639L116.305 333.577L114.614 330.504L112.937 327.425L113.468 327.519C112.115 328.779 110.755 330.032 109.39 331.28L107.346 333.154L105.291 335.016C102.558 337.506 99.7991 339.969 97.0429 342.435L92.8905 346.113L88.7158 349.766C87.3175 350.976 85.9236 352.191 84.5119 353.388C83.1046 354.587 81.7019 355.793 80.2767 356.976L80.2744 356.981Z" fill="#F2F4FF"/>
</g>
<defs>
<clipPath id="clip0_64_5146">
<rect y="199" width="565" height="348" rx="32" fill="white"/>
</clipPath>
</defs>
</svg>
