<svg width="1158" height="609" viewBox="0 0 1158 609" fill="none" xmlns="http://www.w3.org/2000/svg">
<rect y="143" width="202" height="79" rx="4.84049" fill="#A8C0FF"/>
<path d="M35.912 185.644V182.608H39.548C40.332 182.608 40.896 182.436 41.24 182.092C41.592 181.74 41.768 181.216 41.768 180.52V179.776C41.768 179.072 41.596 178.548 41.252 178.204C40.908 177.86 40.344 177.688 39.56 177.688H35.9V174.664H39.836C41.788 174.664 43.216 175.096 44.12 175.96C45.032 176.824 45.488 178.06 45.488 179.668V180.64C45.488 182.256 45.032 183.496 44.12 184.36C43.216 185.216 41.792 185.644 39.848 185.644H35.912ZM33.392 190L33.392 174.664H37.064V183.46L37.088 185.164V190H33.392ZM56.1877 190L55.8877 187.108C55.8397 186.596 55.7397 186.18 55.5877 185.86C55.4357 185.532 55.2037 185.292 54.8917 185.14C54.5797 184.98 54.1637 184.9 53.6437 184.9L50.1757 184.888V182.02L53.7877 182.008C54.5717 182.008 55.1357 181.836 55.4797 181.492C55.8237 181.148 55.9957 180.632 55.9957 179.944V179.704C55.9957 179.024 55.8237 178.516 55.4797 178.18C55.1437 177.836 54.5757 177.664 53.7757 177.664H50.1517V174.664H54.3157C56.1957 174.664 57.5677 175.028 58.4317 175.756C59.3037 176.484 59.7397 177.532 59.7397 178.9V179.212C59.7397 180.244 59.4757 181.048 58.9477 181.624C58.4197 182.2 57.6157 182.528 56.5357 182.608V183.136L55.7677 182.62C56.6957 182.684 57.4157 182.876 57.9277 183.196C58.4397 183.516 58.8157 183.964 59.0557 184.54C59.3037 185.108 59.4837 185.816 59.5957 186.664L60.0397 190H56.1877ZM47.5717 190V174.664H51.2197V183.052L51.2437 184.444V190H47.5717ZM68.1903 190.372C65.9583 190.372 64.2823 189.812 63.1623 188.692C62.0503 187.572 61.4943 185.96 61.4943 183.856V180.94C61.4943 178.828 62.0543 177.2 63.1743 176.056C64.3023 174.904 65.9743 174.328 68.1903 174.328C70.4063 174.328 72.0743 174.904 73.1943 176.056C74.3223 177.2 74.8863 178.828 74.8863 180.94V183.856C74.8863 185.96 74.3263 187.572 73.2063 188.692C72.0863 189.812 70.4143 190.372 68.1903 190.372ZM68.1903 187.276C69.1583 187.276 69.8783 186.992 70.3503 186.424C70.8223 185.856 71.0583 185.06 71.0583 184.036V180.748C71.0583 179.676 70.8223 178.852 70.3503 178.276C69.8783 177.7 69.1583 177.412 68.1903 177.412C67.2223 177.412 66.5023 177.7 66.0303 178.276C65.5583 178.852 65.3223 179.676 65.3223 180.748V184.036C65.3223 185.06 65.5583 185.856 66.0303 186.424C66.5023 186.992 67.2223 187.276 68.1903 187.276ZM79.8247 190V186.856H83.1727C84.1327 186.856 84.8527 186.596 85.3327 186.076C85.8127 185.556 86.0527 184.812 86.0527 183.844V180.772C86.0527 179.804 85.8127 179.064 85.3327 178.552C84.8527 178.032 84.1327 177.772 83.1727 177.772H79.8127V174.664H83.3047C85.4887 174.664 87.1207 175.192 88.2007 176.248C89.2887 177.296 89.8327 178.804 89.8327 180.772V183.856C89.8327 185.832 89.2927 187.352 88.2127 188.416C87.1327 189.472 85.4967 190 83.3047 190H79.8247ZM77.1967 190V174.664H80.8927V190H77.1967ZM98.4269 190.372C96.2349 190.372 94.6109 189.844 93.5549 188.788C92.5069 187.724 91.9829 186.168 91.9829 184.12V174.664H95.7509V184.192C95.7509 185.184 95.9629 185.936 96.3869 186.448C96.8189 186.952 97.4989 187.204 98.4269 187.204C99.3629 187.204 100.043 186.952 100.467 186.448C100.891 185.936 101.103 185.184 101.103 184.192V174.664H104.871V184.12C104.871 186.168 104.347 187.724 103.299 188.788C102.259 189.844 100.635 190.372 98.4269 190.372ZM113.467 190.336C111.283 190.336 109.655 189.76 108.583 188.608C107.519 187.448 106.987 185.796 106.987 183.652V180.928C106.987 178.824 107.523 177.2 108.595 176.056C109.667 174.904 111.283 174.328 113.443 174.328C114.019 174.328 114.551 174.372 115.039 174.46C115.527 174.548 115.971 174.668 116.371 174.82C116.771 174.964 117.123 175.128 117.427 175.312L117.703 178.528C117.231 178.28 116.711 178.064 116.143 177.88C115.583 177.688 114.931 177.592 114.187 177.592C113.043 177.592 112.195 177.9 111.643 178.516C111.099 179.124 110.827 179.98 110.827 181.084V183.508C110.827 184.604 111.103 185.46 111.655 186.076C112.215 186.692 113.107 187 114.331 187C115.051 187 115.695 186.904 116.263 186.712C116.831 186.52 117.351 186.288 117.823 186.016L117.547 189.304C117.243 189.488 116.887 189.66 116.479 189.82C116.071 189.972 115.615 190.096 115.111 190.192C114.615 190.288 114.067 190.336 113.467 190.336ZM123.344 190V175.384H127.1V190H123.344ZM119.108 177.796V174.664H131.324V177.796H119.108ZM137.098 190H133.33V174.664H137.098V190ZM146.12 190.372C143.888 190.372 142.212 189.812 141.092 188.692C139.98 187.572 139.424 185.96 139.424 183.856V180.94C139.424 178.828 139.984 177.2 141.104 176.056C142.232 174.904 143.904 174.328 146.12 174.328C148.336 174.328 150.004 174.904 151.124 176.056C152.252 177.2 152.816 178.828 152.816 180.94V183.856C152.816 185.96 152.256 187.572 151.136 188.692C150.016 189.812 148.344 190.372 146.12 190.372ZM146.12 187.276C147.088 187.276 147.808 186.992 148.28 186.424C148.752 185.856 148.988 185.06 148.988 184.036V180.748C148.988 179.676 148.752 178.852 148.28 178.276C147.808 177.7 147.088 177.412 146.12 177.412C145.152 177.412 144.432 177.7 143.96 178.276C143.488 178.852 143.252 179.676 143.252 180.748V184.036C143.252 185.06 143.488 185.856 143.96 186.424C144.432 186.992 145.152 187.276 146.12 187.276ZM160.298 174.652L164.45 185.908H164.618L164.45 179.428V174.652H168.026V190H162.998L158.69 178.492H158.534L158.702 185.116V190H155.126V174.652H160.298Z" fill="white"/>
<path d="M918 103.84C918 101.167 920.167 99 922.84 99H1152.16C1154.83 99 1157 101.167 1157 103.84V173.16C1157 175.833 1154.83 178 1152.16 178H922.84C920.167 178 918 175.833 918 173.16V103.84Z" fill="#1A468F"/>
<path d="M965.168 146.648L958.52 146.384C955.824 146.272 953.884 145.668 952.7 144.572C951.516 143.476 950.924 141.856 950.924 139.712V136.928C950.924 134.824 951.484 133.2 952.604 132.056C953.732 130.904 955.404 130.328 957.62 130.328C959.092 130.328 960.324 130.584 961.316 131.096C962.308 131.608 963.052 132.356 963.548 133.34C964.052 134.316 964.304 135.508 964.304 136.916V138.992C964.304 139.664 964.224 140.26 964.064 140.78C963.912 141.292 963.688 141.732 963.392 142.1C963.104 142.46 962.752 142.752 962.336 142.976C961.92 143.192 961.452 143.344 960.932 143.432V143.576L965.168 143.432V146.648ZM957.956 143.24L958.352 143.252C958.664 143.164 958.948 143.024 959.204 142.832C959.46 142.64 959.684 142.4 959.876 142.112C960.068 141.824 960.216 141.48 960.32 141.08C960.432 140.672 960.488 140.212 960.488 139.7V136.772C960.488 135.692 960.252 134.864 959.78 134.288C959.308 133.712 958.588 133.424 957.62 133.424C956.652 133.424 955.932 133.712 955.46 134.288C954.988 134.864 954.752 135.692 954.752 136.772V139.868C954.752 140.948 955.04 141.772 955.616 142.34C956.192 142.908 956.972 143.208 957.956 143.24ZM972.95 146.372C970.758 146.372 969.134 145.844 968.078 144.788C967.03 143.724 966.506 142.168 966.506 140.12V130.664H970.274V140.192C970.274 141.184 970.486 141.936 970.91 142.448C971.342 142.952 972.022 143.204 972.95 143.204C973.886 143.204 974.566 142.952 974.99 142.448C975.414 141.936 975.626 141.184 975.626 140.192V130.664H979.394V140.12C979.394 142.168 978.87 143.724 977.822 144.788C976.782 145.844 975.158 146.372 972.95 146.372ZM980.346 146L984.738 130.664H990.378L994.746 146H990.954L987.702 133.136H987.426L984.138 146H980.346ZM984.078 142.388V139.472H990.99V142.388H984.078ZM1000.17 146H996.415V130.664H1000.17V146ZM998.551 142.844H1006.57V146H998.551V142.844ZM1012.35 146L1008.58 146V130.664H1012.35V146ZM1018.61 146V131.384H1022.37V146H1018.61ZM1014.37 133.796V130.664H1026.59V133.796H1014.37ZM1032.63 141.992L1027.38 130.664H1031.31L1033.25 135.284L1034.21 137.792H1034.4L1035.35 135.284L1037.28 130.664H1041.21L1035.99 141.992H1032.63ZM1032.46 146V138.62H1036.15V146H1032.46ZM1055.28 146L1054.98 143.108C1054.93 142.596 1054.83 142.18 1054.68 141.86C1054.53 141.532 1054.3 141.292 1053.99 141.14C1053.67 140.98 1053.26 140.9 1052.74 140.9L1049.27 140.888V138.02L1052.88 138.008C1053.67 138.008 1054.23 137.836 1054.57 137.492C1054.92 137.148 1055.09 136.632 1055.09 135.944V135.704C1055.09 135.024 1054.92 134.516 1054.57 134.18C1054.24 133.836 1053.67 133.664 1052.87 133.664H1049.25V130.664H1053.41C1055.29 130.664 1056.66 131.028 1057.53 131.756C1058.4 132.484 1058.83 133.532 1058.83 134.9V135.212C1058.83 136.244 1058.57 137.048 1058.04 137.624C1057.51 138.2 1056.71 138.528 1055.63 138.608V139.136L1054.86 138.62C1055.79 138.684 1056.51 138.876 1057.02 139.196C1057.53 139.516 1057.91 139.964 1058.15 140.54C1058.4 141.108 1058.58 141.816 1058.69 142.664L1059.13 146H1055.28ZM1046.67 146V130.664H1050.31V139.052L1050.34 140.444V146H1046.67ZM1061.2 146V130.664H1064.87V146H1061.2ZM1062.29 146V142.868H1071.94V146H1062.29ZM1063.34 139.724V136.712H1071.65V139.724H1063.34ZM1062.28 133.76V130.664H1071.83V133.76H1062.28ZM1079.06 146.324C1078.35 146.324 1077.68 146.276 1077.06 146.18C1076.44 146.092 1075.88 145.976 1075.37 145.832C1074.86 145.68 1074.42 145.524 1074.03 145.364L1073.71 141.908C1074.34 142.204 1075.09 142.48 1075.95 142.736C1076.82 142.984 1077.73 143.108 1078.7 143.108C1079.64 143.108 1080.3 142.992 1080.69 142.76C1081.09 142.52 1081.29 142.148 1081.29 141.644V141.56C1081.29 141.224 1081.2 140.952 1081.02 140.744C1080.84 140.528 1080.54 140.332 1080.12 140.156C1079.7 139.972 1079.14 139.776 1078.43 139.568C1077.35 139.248 1076.46 138.892 1075.74 138.5C1075.03 138.108 1074.49 137.62 1074.14 137.036C1073.79 136.444 1073.61 135.696 1073.61 134.792V134.636C1073.61 133.244 1074.09 132.18 1075.03 131.444C1075.98 130.708 1077.38 130.34 1079.22 130.34C1080.32 130.34 1081.27 130.436 1082.07 130.628C1082.88 130.82 1083.57 131.048 1084.13 131.312L1084.45 134.528C1083.83 134.232 1083.13 133.984 1082.35 133.784C1081.57 133.576 1080.74 133.472 1079.85 133.472C1079.23 133.472 1078.74 133.524 1078.38 133.628C1078.03 133.732 1077.78 133.884 1077.63 134.084C1077.49 134.276 1077.42 134.512 1077.42 134.792V134.84C1077.42 135.128 1077.5 135.38 1077.66 135.596C1077.83 135.812 1078.12 136.02 1078.55 136.22C1078.98 136.42 1079.59 136.636 1080.38 136.868C1081.45 137.18 1082.33 137.516 1083.02 137.876C1083.73 138.228 1084.25 138.688 1084.59 139.256C1084.95 139.816 1085.12 140.564 1085.12 141.5V141.692C1085.12 143.236 1084.62 144.396 1083.62 145.172C1082.62 145.94 1081.1 146.324 1079.06 146.324ZM1093.47 146.372C1091.27 146.372 1089.65 145.844 1088.59 144.788C1087.55 143.724 1087.02 142.168 1087.02 140.12V130.664H1090.79V140.192C1090.79 141.184 1091 141.936 1091.43 142.448C1091.86 142.952 1092.54 143.204 1093.47 143.204C1094.4 143.204 1095.08 142.952 1095.51 142.448C1095.93 141.936 1096.14 141.184 1096.14 140.192V130.664H1099.91V140.12C1099.91 142.168 1099.39 143.724 1098.34 144.788C1097.3 145.844 1095.67 146.372 1093.47 146.372ZM1106.32 146H1102.56V130.664H1106.32V146ZM1104.7 142.844H1112.72V146H1104.7V142.844ZM1116.23 146V131.384H1119.98V146H1116.23ZM1111.99 133.796V130.664L1124.21 130.664V133.796L1111.99 133.796Z" fill="white"/>
<path d="M918 253.84C918 251.167 920.167 249 922.84 249H1153.16C1155.83 249 1158 251.167 1158 253.84V323.16C1158 325.833 1155.83 328 1153.16 328H922.84C920.167 328 918 325.833 918 323.16V253.84Z" fill="#1A468F"/>
<path d="M950.276 296L954.668 280.664H960.308L964.676 296H960.884L957.632 283.136H957.356L954.068 296H950.276ZM954.008 292.388V289.472H960.92V292.388H954.008ZM971.517 280.652L975.669 291.908H975.837L975.669 285.428V280.652H979.245V296H974.217L969.909 284.492H969.753L969.921 291.116V296H966.345V280.652H971.517ZM980.909 296L985.301 280.664H990.941L995.309 296H991.517L988.265 283.136H987.989L984.701 296H980.909ZM984.641 292.388V289.472H991.553V292.388H984.641ZM1000.73 296H996.978V280.664H1000.73V296ZM999.114 292.844H1007.13V296H999.114V292.844ZM1010.76 291.992L1005.51 280.664H1009.44L1011.38 285.284L1012.34 287.792H1012.53L1013.48 285.284L1015.41 280.664H1019.34L1014.12 291.992H1010.76ZM1010.59 296V288.62H1014.29V296H1010.59ZM1024.4 296V281.384H1028.16V296H1024.4ZM1020.16 283.796V280.664H1032.38V283.796H1020.16ZM1038.15 296H1034.38V280.664H1038.15V296ZM1046.96 296.336C1044.77 296.336 1043.15 295.76 1042.07 294.608C1041.01 293.448 1040.48 291.796 1040.48 289.652V286.928C1040.48 284.824 1041.01 283.2 1042.09 282.056C1043.16 280.904 1044.77 280.328 1046.93 280.328C1047.51 280.328 1048.04 280.372 1048.53 280.46C1049.02 280.548 1049.46 280.668 1049.86 280.82C1050.26 280.964 1050.61 281.128 1050.92 281.312L1051.19 284.528C1050.72 284.28 1050.2 284.064 1049.63 283.88C1049.07 283.688 1048.42 283.592 1047.68 283.592C1046.53 283.592 1045.69 283.9 1045.13 284.516C1044.59 285.124 1044.32 285.98 1044.32 287.084V289.508C1044.32 290.604 1044.59 291.46 1045.15 292.076C1045.71 292.692 1046.6 293 1047.82 293C1048.54 293 1049.19 292.904 1049.75 292.712C1050.32 292.52 1050.84 292.288 1051.31 292.016L1051.04 295.304C1050.73 295.488 1050.38 295.66 1049.97 295.82C1049.56 295.972 1049.11 296.096 1048.6 296.192C1048.11 296.288 1047.56 296.336 1046.96 296.336ZM1058.25 296.324C1057.54 296.324 1056.87 296.276 1056.25 296.18C1055.63 296.092 1055.07 295.976 1054.55 295.832C1054.05 295.68 1053.61 295.524 1053.22 295.364L1052.9 291.908C1053.53 292.204 1054.28 292.48 1055.14 292.736C1056.01 292.984 1056.92 293.108 1057.89 293.108C1058.83 293.108 1059.49 292.992 1059.88 292.76C1060.28 292.52 1060.48 292.148 1060.48 291.644V291.56C1060.48 291.224 1060.39 290.952 1060.21 290.744C1060.03 290.528 1059.73 290.332 1059.31 290.156C1058.89 289.972 1058.33 289.776 1057.61 289.568C1056.54 289.248 1055.65 288.892 1054.93 288.5C1054.21 288.108 1053.68 287.62 1053.33 287.036C1052.98 286.444 1052.8 285.696 1052.8 284.792V284.636C1052.8 283.244 1053.27 282.18 1054.22 281.444C1055.17 280.708 1056.57 280.34 1058.41 280.34C1059.51 280.34 1060.46 280.436 1061.26 280.628C1062.07 280.82 1062.75 281.048 1063.31 281.312L1063.64 284.528C1063.02 284.232 1062.32 283.984 1061.54 283.784C1060.76 283.576 1059.93 283.472 1059.04 283.472C1058.42 283.472 1057.93 283.524 1057.57 283.628C1057.21 283.732 1056.97 283.884 1056.82 284.084C1056.68 284.276 1056.61 284.512 1056.61 284.792V284.84C1056.61 285.128 1056.69 285.38 1056.85 285.596C1057.01 285.812 1057.31 286.02 1057.73 286.22C1058.17 286.42 1058.78 286.636 1059.57 286.868C1060.63 287.18 1061.51 287.516 1062.21 287.876C1062.91 288.228 1063.44 288.688 1063.78 289.256C1064.13 289.816 1064.31 290.564 1064.31 291.5V291.692C1064.31 293.236 1063.81 294.396 1062.81 295.172C1061.81 295.94 1060.29 296.324 1058.25 296.324ZM1069.27 296L1073.66 280.664H1079.3L1083.67 296H1079.88L1076.62 283.136H1076.35L1073.06 296L1069.27 296ZM1073 292.388V289.472H1079.91V292.388H1073ZM1087.86 291.644V288.608H1091.49C1092.28 288.608 1092.84 288.436 1093.19 288.092C1093.54 287.74 1093.71 287.216 1093.71 286.52V285.776C1093.71 285.072 1093.54 284.548 1093.2 284.204C1092.85 283.86 1092.29 283.688 1091.51 283.688H1087.85V280.664H1091.78C1093.73 280.664 1095.16 281.096 1096.07 281.96C1096.98 282.824 1097.43 284.06 1097.43 285.668V286.64C1097.43 288.256 1096.98 289.496 1096.07 290.36C1095.16 291.216 1093.74 291.644 1091.79 291.644H1087.86ZM1085.34 296V280.664H1089.01V289.46L1089.03 291.164V296H1085.34ZM1102.04 291.644V288.608H1105.67C1106.46 288.608 1107.02 288.436 1107.37 288.092C1107.72 287.74 1107.89 287.216 1107.89 286.52V285.776C1107.89 285.072 1107.72 284.548 1107.38 284.204C1107.03 283.86 1106.47 283.688 1105.69 283.688H1102.03V280.664H1105.96C1107.91 280.664 1109.34 281.096 1110.24 281.96C1111.16 282.824 1111.61 284.06 1111.61 285.668V286.64C1111.61 288.256 1111.16 289.496 1110.24 290.36C1109.34 291.216 1107.92 291.644 1105.97 291.644H1102.04ZM1099.52 296V280.664H1103.19V289.46L1103.21 291.164V296H1099.52ZM1118.53 296.324C1117.82 296.324 1117.15 296.276 1116.53 296.18C1115.91 296.092 1115.35 295.976 1114.84 295.832C1114.33 295.68 1113.89 295.524 1113.5 295.364L1113.18 291.908C1113.81 292.204 1114.56 292.48 1115.42 292.736C1116.29 292.984 1117.2 293.108 1118.17 293.108C1119.11 293.108 1119.77 292.992 1120.16 292.76C1120.56 292.52 1120.76 292.148 1120.76 291.644V291.56C1120.76 291.224 1120.67 290.952 1120.49 290.744C1120.31 290.528 1120.01 290.332 1119.59 290.156C1119.17 289.972 1118.61 289.776 1117.9 289.568C1116.82 289.248 1115.93 288.892 1115.21 288.5C1114.5 288.108 1113.96 287.62 1113.61 287.036C1113.26 286.444 1113.08 285.696 1113.08 284.792V284.636C1113.08 283.244 1113.56 282.18 1114.5 281.444C1115.45 280.708 1116.85 280.34 1118.69 280.34C1119.79 280.34 1120.74 280.436 1121.54 280.628C1122.35 280.82 1123.04 281.048 1123.6 281.312L1123.92 284.528C1123.3 284.232 1122.6 283.984 1121.82 283.784C1121.04 283.576 1120.21 283.472 1119.32 283.472C1118.7 283.472 1118.21 283.524 1117.85 283.628C1117.5 283.732 1117.25 283.884 1117.1 284.084C1116.96 284.276 1116.89 284.512 1116.89 284.792V284.84C1116.89 285.128 1116.97 285.38 1117.13 285.596C1117.3 285.812 1117.59 286.02 1118.02 286.22C1118.45 286.42 1119.06 286.636 1119.85 286.868C1120.92 287.18 1121.8 287.516 1122.49 287.876C1123.2 288.228 1123.72 288.688 1124.06 289.256C1124.42 289.816 1124.59 290.564 1124.59 291.5V291.692C1124.59 293.236 1124.09 294.396 1123.09 295.172C1122.09 295.94 1120.57 296.324 1118.53 296.324Z" fill="white"/>
<path d="M918 403.84C918 401.167 920.167 399 922.84 399H1063.16C1065.83 399 1068 401.167 1068 403.84V473.16C1068 475.833 1065.83 478 1063.16 478H922.84C920.167 478 918 475.833 918 473.16V403.84Z" fill="#1A468F"/>
<path d="M953.912 441.644V438.608H957.548C958.332 438.608 958.896 438.436 959.24 438.092C959.592 437.74 959.768 437.216 959.768 436.52V435.776C959.768 435.072 959.596 434.548 959.252 434.204C958.908 433.86 958.344 433.688 957.56 433.688H953.9V430.664H957.836C959.788 430.664 961.216 431.096 962.12 431.96C963.032 432.824 963.488 434.06 963.488 435.668V436.64C963.488 438.256 963.032 439.496 962.12 440.36C961.216 441.216 959.792 441.644 957.848 441.644H953.912ZM951.392 446V430.664H955.064V439.46L955.088 441.164V446H951.392ZM969.328 446H965.572V430.664H969.328V446ZM978.472 446H974.704V430.664H978.472V446ZM967.732 436.592H976.12V439.724H967.732V436.592ZM987.479 446.372C985.247 446.372 983.571 445.812 982.451 444.692C981.339 443.572 980.783 441.96 980.783 439.856V436.94C980.783 434.828 981.343 433.2 982.463 432.056C983.591 430.904 985.263 430.328 987.479 430.328C989.695 430.328 991.363 430.904 992.483 432.056C993.611 433.2 994.175 434.828 994.175 436.94V439.856C994.175 441.96 993.615 443.572 992.495 444.692C991.375 445.812 989.703 446.372 987.479 446.372ZM987.479 443.276C988.447 443.276 989.167 442.992 989.639 442.424C990.111 441.856 990.347 441.06 990.347 440.036V436.748C990.347 435.676 990.111 434.852 989.639 434.276C989.167 433.7 988.447 433.412 987.479 433.412C986.511 433.412 985.791 433.7 985.319 434.276C984.847 434.852 984.611 435.676 984.611 436.748V440.036C984.611 441.06 984.847 441.856 985.319 442.424C985.791 442.992 986.511 443.276 987.479 443.276ZM999.391 446V431.384H1003.15V446H999.391ZM995.155 433.796V430.664H1007.37V433.796H995.155ZM1015.04 446.372C1012.81 446.372 1011.13 445.812 1010.01 444.692C1008.9 443.572 1008.35 441.96 1008.35 439.856V436.94C1008.35 434.828 1008.91 433.2 1010.03 432.056C1011.15 430.904 1012.83 430.328 1015.04 430.328C1017.26 430.328 1018.93 430.904 1020.05 432.056C1021.17 433.2 1021.74 434.828 1021.74 436.94V439.856C1021.74 441.96 1021.18 443.572 1020.06 444.692C1018.94 445.812 1017.27 446.372 1015.04 446.372ZM1015.04 443.276C1016.01 443.276 1016.73 442.992 1017.2 442.424C1017.67 441.856 1017.91 441.06 1017.91 440.036V436.748C1017.91 435.676 1017.67 434.852 1017.2 434.276C1016.73 433.7 1016.01 433.412 1015.04 433.412C1014.07 433.412 1013.35 433.7 1012.88 434.276C1012.41 434.852 1012.17 435.676 1012.17 436.748V440.036C1012.17 441.06 1012.41 441.856 1012.88 442.424C1013.35 442.992 1014.07 443.276 1015.04 443.276ZM1028.74 446.324C1028.03 446.324 1027.36 446.276 1026.74 446.18C1026.12 446.092 1025.56 445.976 1025.05 445.832C1024.54 445.68 1024.1 445.524 1023.71 445.364L1023.39 441.908C1024.02 442.204 1024.77 442.48 1025.63 442.736C1026.5 442.984 1027.41 443.108 1028.38 443.108C1029.32 443.108 1029.98 442.992 1030.37 442.76C1030.77 442.52 1030.97 442.148 1030.97 441.644V441.56C1030.97 441.224 1030.88 440.952 1030.7 440.744C1030.52 440.528 1030.22 440.332 1029.8 440.156C1029.38 439.972 1028.82 439.776 1028.11 439.568C1027.03 439.248 1026.14 438.892 1025.42 438.5C1024.71 438.108 1024.17 437.62 1023.82 437.036C1023.47 436.444 1023.29 435.696 1023.29 434.792V434.636C1023.29 433.244 1023.77 432.18 1024.71 431.444C1025.66 430.708 1027.06 430.34 1028.9 430.34C1030 430.34 1030.95 430.436 1031.75 430.628C1032.56 430.82 1033.25 431.048 1033.81 431.312L1034.13 434.528C1033.51 434.232 1032.81 433.984 1032.03 433.784C1031.25 433.576 1030.42 433.472 1029.53 433.472C1028.91 433.472 1028.42 433.524 1028.06 433.628C1027.71 433.732 1027.46 433.884 1027.31 434.084C1027.17 434.276 1027.1 434.512 1027.1 434.792V434.84C1027.1 435.128 1027.18 435.38 1027.34 435.596C1027.51 435.812 1027.8 436.02 1028.23 436.22C1028.66 436.42 1029.27 436.636 1030.06 436.868C1031.13 437.18 1032.01 437.516 1032.7 437.876C1033.41 438.228 1033.93 438.688 1034.27 439.256C1034.63 439.816 1034.8 440.564 1034.8 441.5V441.692C1034.8 443.236 1034.3 444.396 1033.3 445.172C1032.3 445.94 1030.78 446.324 1028.74 446.324Z" fill="white"/>
<rect x="410" width="218" height="79" rx="4.84049" fill="#A8C0FF"/>
<path d="M445.156 47L442.456 31.664H446.272L447.724 42.188L447.976 43.868H448.18L448.456 42.188L450.028 32.012H454.624L456.184 42.188L456.448 43.868H456.664L456.928 42.188L458.404 31.664H462.172L459.508 47H454.168L452.836 37.796L452.416 35.096H452.224L451.804 37.796L450.496 47H445.156ZM469.964 47.372C467.732 47.372 466.056 46.812 464.936 45.692C463.824 44.572 463.268 42.96 463.268 40.856V37.94C463.268 35.828 463.828 34.2 464.948 33.056C466.076 31.904 467.748 31.328 469.964 31.328C472.18 31.328 473.848 31.904 474.968 33.056C476.096 34.2 476.66 35.828 476.66 37.94V40.856C476.66 42.96 476.1 44.572 474.98 45.692C473.86 46.812 472.188 47.372 469.964 47.372ZM469.964 44.276C470.932 44.276 471.652 43.992 472.124 43.424C472.596 42.856 472.832 42.06 472.832 41.036V37.748C472.832 36.676 472.596 35.852 472.124 35.276C471.652 34.7 470.932 34.412 469.964 34.412C468.996 34.412 468.276 34.7 467.804 35.276C467.332 35.852 467.096 36.676 467.096 37.748V41.036C467.096 42.06 467.332 42.856 467.804 43.424C468.276 43.992 468.996 44.276 469.964 44.276ZM487.586 47L487.286 44.108C487.238 43.596 487.138 43.18 486.986 42.86C486.834 42.532 486.602 42.292 486.29 42.14C485.978 41.98 485.562 41.9 485.042 41.9L481.574 41.888V39.02L485.186 39.008C485.97 39.008 486.534 38.836 486.878 38.492C487.222 38.148 487.394 37.632 487.394 36.944V36.704C487.394 36.024 487.222 35.516 486.878 35.18C486.542 34.836 485.974 34.664 485.174 34.664L481.55 34.664V31.664H485.714C487.594 31.664 488.966 32.028 489.83 32.756C490.702 33.484 491.138 34.532 491.138 35.9V36.212C491.138 37.244 490.874 38.048 490.346 38.624C489.818 39.2 489.014 39.528 487.934 39.608V40.136L487.166 39.62C488.094 39.684 488.814 39.876 489.326 40.196C489.838 40.516 490.214 40.964 490.454 41.54C490.702 42.108 490.882 42.816 490.994 43.664L491.438 47H487.586ZM478.97 47V31.664H482.618V40.052L482.642 41.444V47L478.97 47ZM502.189 47L497.785 40.28H496.849V38.024H497.785L502.129 31.664H506.377L500.941 39.368V38.528L506.545 47H502.189ZM493.501 47V31.664H497.221V47H493.501ZM518.151 47.372C515.919 47.372 514.243 46.812 513.123 45.692C512.011 44.572 511.455 42.96 511.455 40.856V37.94C511.455 35.828 512.015 34.2 513.135 33.056C514.263 31.904 515.935 31.328 518.151 31.328C520.367 31.328 522.035 31.904 523.155 33.056C524.283 34.2 524.847 35.828 524.847 37.94V40.856C524.847 42.96 524.287 44.572 523.167 45.692C522.047 46.812 520.375 47.372 518.151 47.372ZM518.151 44.276C519.119 44.276 519.839 43.992 520.311 43.424C520.783 42.856 521.019 42.06 521.019 41.036V37.748C521.019 36.676 520.783 35.852 520.311 35.276C519.839 34.7 519.119 34.412 518.151 34.412C517.183 34.412 516.463 34.7 515.991 35.276C515.519 35.852 515.283 36.676 515.283 37.748V41.036C515.283 42.06 515.519 42.856 515.991 43.424C516.463 43.992 517.183 44.276 518.151 44.276ZM535.774 47L535.474 44.108C535.426 43.596 535.326 43.18 535.174 42.86C535.022 42.532 534.79 42.292 534.478 42.14C534.166 41.98 533.75 41.9 533.23 41.9L529.762 41.888V39.02L533.374 39.008C534.158 39.008 534.722 38.836 535.066 38.492C535.41 38.148 535.582 37.632 535.582 36.944V36.704C535.582 36.024 535.41 35.516 535.066 35.18C534.73 34.836 534.162 34.664 533.362 34.664H529.738V31.664H533.902C535.782 31.664 537.154 32.028 538.018 32.756C538.89 33.484 539.326 34.532 539.326 35.9V36.212C539.326 37.244 539.062 38.048 538.534 38.624C538.006 39.2 537.202 39.528 536.122 39.608V40.136L535.354 39.62C536.282 39.684 537.002 39.876 537.514 40.196C538.026 40.516 538.402 40.964 538.642 41.54C538.89 42.108 539.07 42.816 539.182 43.664L539.626 47H535.774ZM527.158 47V31.664H530.806V40.052L530.83 41.444V47H527.158ZM544.317 47V43.856H547.665C548.625 43.856 549.345 43.596 549.825 43.076C550.305 42.556 550.545 41.812 550.545 40.844V37.772C550.545 36.804 550.305 36.064 549.825 35.552C549.345 35.032 548.625 34.772 547.665 34.772H544.305V31.664H547.797C549.981 31.664 551.613 32.192 552.693 33.248C553.781 34.296 554.325 35.804 554.325 37.772V40.856C554.325 42.832 553.785 44.352 552.705 45.416C551.625 46.472 549.989 47 547.797 47H544.317ZM541.689 47V31.664H545.385V47H541.689ZM556.619 47V31.664H560.291V47H556.619ZM557.711 47V43.868H567.359V47H557.711ZM558.767 40.724V37.712H567.071V40.724H558.767ZM557.699 34.76V31.664L567.251 31.664V34.76H557.699ZM578.336 47L578.036 44.108C577.988 43.596 577.888 43.18 577.736 42.86C577.584 42.532 577.352 42.292 577.04 42.14C576.728 41.98 576.312 41.9 575.792 41.9L572.324 41.888V39.02L575.936 39.008C576.72 39.008 577.284 38.836 577.628 38.492C577.972 38.148 578.144 37.632 578.144 36.944V36.704C578.144 36.024 577.972 35.516 577.628 35.18C577.292 34.836 576.724 34.664 575.924 34.664L572.3 34.664V31.664H576.464C578.344 31.664 579.716 32.028 580.58 32.756C581.452 33.484 581.888 34.532 581.888 35.9V36.212C581.888 37.244 581.624 38.048 581.096 38.624C580.568 39.2 579.764 39.528 578.684 39.608V40.136L577.916 39.62C578.844 39.684 579.564 39.876 580.076 40.196C580.588 40.516 580.964 40.964 581.204 41.54C581.452 42.108 581.632 42.816 581.744 43.664L582.188 47H578.336ZM569.72 47V31.664H573.368V40.052L573.392 41.444V47H569.72ZM589.086 47.324C588.374 47.324 587.706 47.276 587.082 47.18C586.466 47.092 585.902 46.976 585.39 46.832C584.886 46.68 584.442 46.524 584.058 46.364L583.734 42.908C584.366 43.204 585.114 43.48 585.978 43.736C586.842 43.984 587.758 44.108 588.726 44.108C589.662 44.108 590.326 43.992 590.718 43.76C591.118 43.52 591.318 43.148 591.318 42.644V42.56C591.318 42.224 591.226 41.952 591.042 41.744C590.866 41.528 590.566 41.332 590.142 41.156C589.726 40.972 589.162 40.776 588.45 40.568C587.378 40.248 586.482 39.892 585.762 39.5C585.05 39.108 584.518 38.62 584.166 38.036C583.814 37.444 583.638 36.696 583.638 35.792V35.636C583.638 34.244 584.11 33.18 585.054 32.444C586.006 31.708 587.402 31.34 589.242 31.34C590.346 31.34 591.298 31.436 592.098 31.628C592.906 31.82 593.59 32.048 594.15 32.312L594.474 35.528C593.858 35.232 593.158 34.984 592.374 34.784C591.598 34.576 590.766 34.472 589.878 34.472C589.254 34.472 588.762 34.524 588.402 34.628C588.05 34.732 587.802 34.884 587.658 35.084C587.514 35.276 587.442 35.512 587.442 35.792V35.84C587.442 36.128 587.522 36.38 587.682 36.596C587.85 36.812 588.146 37.02 588.57 37.22C589.002 37.42 589.614 37.636 590.406 37.868C591.47 38.18 592.35 38.516 593.046 38.876C593.75 39.228 594.274 39.688 594.618 40.256C594.97 40.816 595.146 41.564 595.146 42.5V42.692C595.146 44.236 594.646 45.396 593.646 46.172C592.646 46.94 591.126 47.324 589.086 47.324Z" fill="white"/>
<path d="M33 348.84C33 346.167 35.1672 344 37.8405 344H197.16C199.833 344 202 346.167 202 348.84V447.16C202 449.833 199.833 452 197.16 452H37.8405C35.1672 452 33 449.833 33 447.16V348.84Z" fill="#A8C0FF"/>
<path d="M87 391.648L80.352 391.384C77.656 391.272 75.716 390.668 74.532 389.572C73.348 388.476 72.756 386.856 72.756 384.712V381.928C72.756 379.824 73.316 378.2 74.436 377.056C75.564 375.904 77.236 375.328 79.452 375.328C80.924 375.328 82.156 375.584 83.148 376.096C84.14 376.608 84.884 377.356 85.38 378.34C85.884 379.316 86.136 380.508 86.136 381.916V383.992C86.136 384.664 86.056 385.26 85.896 385.78C85.744 386.292 85.52 386.732 85.224 387.1C84.936 387.46 84.584 387.752 84.168 387.976C83.752 388.192 83.284 388.344 82.764 388.432V388.576L87 388.432V391.648ZM79.788 388.24L80.184 388.252C80.496 388.164 80.78 388.024 81.036 387.832C81.292 387.64 81.516 387.4 81.708 387.112C81.9 386.824 82.048 386.48 82.152 386.08C82.264 385.672 82.32 385.212 82.32 384.7V381.772C82.32 380.692 82.084 379.864 81.612 379.288C81.14 378.712 80.42 378.424 79.452 378.424C78.484 378.424 77.764 378.712 77.292 379.288C76.82 379.864 76.584 380.692 76.584 381.772V384.868C76.584 385.948 76.872 386.772 77.448 387.34C78.024 387.908 78.804 388.208 79.788 388.24ZM94.7824 391.372C92.5904 391.372 90.9664 390.844 89.9104 389.788C88.8624 388.724 88.3384 387.168 88.3384 385.12V375.664H92.1064V385.192C92.1064 386.184 92.3184 386.936 92.7424 387.448C93.1744 387.952 93.8544 388.204 94.7824 388.204C95.7184 388.204 96.3984 387.952 96.8224 387.448C97.2464 386.936 97.4584 386.184 97.4584 385.192V375.664H101.226V385.12C101.226 387.168 100.702 388.724 99.6544 389.788C98.6144 390.844 96.9904 391.372 94.7824 391.372ZM102.178 391L106.57 375.664H112.21L116.578 391H112.786L109.534 378.136H109.258L105.97 391H102.178ZM105.91 387.388V384.472H112.822V387.388H105.91ZM122.003 391H118.247V375.664H122.003V391ZM120.383 387.844H128.399V391H120.383V387.844ZM134.18 391H130.412V375.664H134.18V391ZM140.442 391V376.384H144.198V391H140.442ZM136.206 378.796V375.664H148.422V378.796H136.206ZM154.457 386.992L149.213 375.664H153.137L155.081 380.284L156.041 382.792H156.233L157.181 380.284L159.113 375.664H163.037L157.817 386.992H154.457ZM154.289 391V383.62H157.985V391H154.289ZM66.3998 420L66.8798 404.664H72.1118L74.6438 413.808H74.7998L77.3318 404.664H82.5638L83.0438 420H79.4078L79.2998 414.972L79.1918 408.852H79.0118L76.3838 418.2H73.0478L70.4198 408.852H70.2278L70.1318 414.984L70.0358 420H66.3998ZM84.5533 420L88.9453 404.664H94.5853L98.9533 420H95.1613L91.9093 407.136H91.6333L88.3453 420H84.5533ZM88.2853 416.388V413.472H95.1973V416.388H88.2853ZM105.794 404.652L109.946 415.908H110.114L109.946 409.428V404.652H113.522L113.522 420H108.494L104.186 408.492H104.03L104.198 415.116L104.198 420H100.622L100.622 404.652H105.794ZM122.626 420.372C120.434 420.372 118.81 419.844 117.754 418.788C116.706 417.724 116.182 416.168 116.182 414.12V404.664H119.95V414.192C119.95 415.184 120.162 415.936 120.586 416.448C121.018 416.952 121.698 417.204 122.626 417.204C123.562 417.204 124.242 416.952 124.666 416.448C125.09 415.936 125.302 415.184 125.302 414.192V404.664H129.07V414.12C129.07 416.168 128.546 417.724 127.498 418.788C126.458 419.844 124.834 420.372 122.626 420.372ZM130.022 420L134.414 404.664H140.054L144.422 420H140.63L137.378 407.136H137.102L133.814 420H130.022ZM133.754 416.388V413.472H140.666V416.388H133.754ZM149.847 420H146.091V404.664H149.847V420ZM148.227 416.844H156.243V420H148.227V416.844ZM163.019 420.324C162.307 420.324 161.639 420.276 161.015 420.18C160.399 420.092 159.835 419.976 159.323 419.832C158.819 419.68 158.375 419.524 157.991 419.364L157.667 415.908C158.299 416.204 159.047 416.48 159.911 416.736C160.775 416.984 161.691 417.108 162.659 417.108C163.595 417.108 164.259 416.992 164.651 416.76C165.051 416.52 165.251 416.148 165.251 415.644V415.56C165.251 415.224 165.159 414.952 164.975 414.744C164.799 414.528 164.499 414.332 164.075 414.156C163.659 413.972 163.095 413.776 162.383 413.568C161.311 413.248 160.415 412.892 159.695 412.5C158.983 412.108 158.451 411.62 158.099 411.036C157.747 410.444 157.571 409.696 157.571 408.792V408.636C157.571 407.244 158.043 406.18 158.987 405.444C159.939 404.708 161.335 404.34 163.175 404.34C164.279 404.34 165.231 404.436 166.031 404.628C166.839 404.82 167.523 405.048 168.083 405.312L168.407 408.528C167.791 408.232 167.091 407.984 166.307 407.784C165.531 407.576 164.699 407.472 163.811 407.472C163.187 407.472 162.695 407.524 162.335 407.628C161.983 407.732 161.735 407.884 161.591 408.084C161.447 408.276 161.375 408.512 161.375 408.792V408.84C161.375 409.128 161.455 409.38 161.615 409.596C161.783 409.812 162.079 410.02 162.503 410.22C162.935 410.42 163.547 410.636 164.339 410.868C165.403 411.18 166.283 411.516 166.979 411.876C167.683 412.228 168.207 412.688 168.551 413.256C168.903 413.816 169.079 414.564 169.079 415.5V415.692C169.079 417.236 168.579 418.396 167.579 419.172C166.579 419.94 165.059 420.324 163.019 420.324Z" fill="white"/>
<rect x="525.5" y="218" width="185" height="140" rx="4.84" fill="#1A468F"/>
<path d="M590.857 292.192V288.144H595.705C596.75 288.144 597.502 287.915 597.961 287.456C598.43 286.987 598.665 286.288 598.665 285.36V284.368C598.665 283.429 598.435 282.731 597.977 282.272C597.518 281.813 596.766 281.584 595.721 281.584H590.841V277.552H596.089C598.691 277.552 600.595 278.128 601.801 279.28C603.017 280.432 603.625 282.08 603.625 284.224V285.52C603.625 287.675 603.017 289.328 601.801 290.48C600.595 291.621 598.697 292.192 596.105 292.192H590.857ZM587.497 298V277.552H592.393V289.28L592.425 291.552V298H587.497ZM624.802 298.864L615.938 298.512C612.343 298.363 609.757 297.557 608.178 296.096C606.599 294.635 605.81 292.475 605.81 289.616V285.904C605.81 283.099 606.557 280.933 608.05 279.408C609.554 277.872 611.783 277.104 614.738 277.104C616.701 277.104 618.343 277.445 619.666 278.128C620.989 278.811 621.981 279.808 622.642 281.12C623.314 282.421 623.65 284.011 623.65 285.888V288.656C623.65 289.552 623.543 290.347 623.33 291.04C623.127 291.723 622.829 292.309 622.434 292.8C622.05 293.28 621.581 293.669 621.026 293.968C620.471 294.256 619.847 294.459 619.154 294.576V294.768L624.802 294.576V298.864ZM615.186 294.32L615.714 294.336C616.13 294.219 616.509 294.032 616.85 293.776C617.191 293.52 617.49 293.2 617.746 292.816C618.002 292.432 618.199 291.973 618.338 291.44C618.487 290.896 618.562 290.283 618.562 289.6V285.696C618.562 284.256 618.247 283.152 617.618 282.384C616.989 281.616 616.029 281.232 614.738 281.232C613.447 281.232 612.487 281.616 611.858 282.384C611.229 283.152 610.914 284.256 610.914 285.696V289.824C610.914 291.264 611.298 292.363 612.066 293.12C612.834 293.877 613.874 294.277 615.186 294.32ZM626.523 298L627.163 277.552H634.139L637.515 289.744H637.723L641.099 277.552H648.075L648.715 298H643.867L643.723 291.296L643.579 283.136H643.339L639.835 295.6H635.387L631.883 283.136H631.627L631.499 291.312L631.371 298H626.523Z" fill="white"/>
<path d="M226 184C225.448 184 225 184.448 225 185C225 185.552 225.448 186 226 186V184ZM428.602 185H429.602V184H428.602V185ZM428.602 269H427.602V270H428.602V269ZM502 269L492 263.227V274.774L502 269ZM226 186H228.026V184H226V186ZM232.078 186H236.13V184H232.078V186ZM240.182 186H244.234V184H240.182V186ZM248.286 186H252.338V184H248.286V186ZM256.39 186H260.442V184H256.39V186ZM264.494 186H268.546V184H264.494V186ZM272.599 186H276.651V184H272.599V186ZM280.703 186H284.755V184H280.703V186ZM288.807 186H292.859V184H288.807V186ZM296.911 186H300.963V184H296.911V186ZM305.015 186H309.067V184H305.015V186ZM313.119 186H317.171V184H313.119V186ZM321.223 186H325.275V184H321.223V186ZM329.327 186H333.379V184H329.327V186ZM337.431 186H341.483V184H337.431V186ZM345.535 186H349.587V184H345.535V186ZM353.639 186H357.691V184H353.639V186ZM361.744 186H365.796V184H361.744V186ZM369.848 186H373.9V184H369.848V186ZM377.952 186H382.004V184H377.952V186ZM386.056 186H390.108V184H386.056V186ZM394.16 186H398.212V184H394.16V186ZM402.264 186H406.316V184H402.264V186ZM410.368 186H414.42V184H410.368V186ZM418.472 186H422.524V184H418.472V186ZM426.576 186H428.602V184H426.576V186ZM427.602 185V186.909H429.602V185H427.602ZM427.602 190.727V194.545H429.602V190.727H427.602ZM427.602 198.364V202.182H429.602V198.364H427.602ZM427.602 206V209.818H429.602V206H427.602ZM427.602 213.636V217.455H429.602V213.636H427.602ZM427.602 221.273V225.091H429.602V221.273H427.602ZM427.602 228.909V232.727H429.602V228.909H427.602ZM427.602 236.545V240.364H429.602V236.545H427.602ZM427.602 244.182V248H429.602V244.182H427.602ZM427.602 251.818V255.636H429.602V251.818H427.602ZM427.602 259.455V263.273H429.602V259.455H427.602ZM427.602 267.091V269H429.602V267.091H427.602ZM428.602 270H430.641V268H428.602V270ZM434.719 270H438.796V268H434.719V270ZM442.874 270H446.952V268H442.874V270ZM451.029 270H455.107V268H451.029V270ZM459.185 270H463.262V268H459.185V270ZM467.34 270H471.418V268H467.34V270ZM475.495 270H479.573V268H475.495V270ZM483.651 270H487.728V268H483.651V270ZM491.806 270H495.884V268H491.806V270Z" fill="#1A468F"/>
<path d="M226 397C225.448 397 225 397.448 225 398C225 398.552 225.448 399 226 399V397ZM428.602 398V399H429.602V398H428.602ZM428.602 311V310H427.602V311H428.602ZM502 311L492 305.226V316.774L502 311ZM226 399H228.026V397H226V399ZM232.078 399H236.13V397H232.078V399ZM240.182 399H244.234V397H240.182V399ZM248.286 399H252.338V397H248.286V399ZM256.39 399H260.442V397H256.39V399ZM264.494 399H268.546V397H264.494V399ZM272.599 399H276.651V397H272.599V399ZM280.703 399H284.755V397H280.703V399ZM288.807 399H292.859V397H288.807V399ZM296.911 399H300.963V397H296.911V399ZM305.015 399H309.067V397H305.015V399ZM313.119 399H317.171V397H313.119V399ZM321.223 399H325.275V397H321.223V399ZM329.327 399H333.379V397H329.327V399ZM337.431 399H341.483V397H337.431V399ZM345.535 399H349.587V397H345.535V399ZM353.639 399H357.691V397H353.639V399ZM361.744 399H365.796V397H361.744V399ZM369.848 399H373.9V397H369.848V399ZM377.952 399H382.004V397H377.952V399ZM386.056 399H390.108V397H386.056V399ZM394.16 399H398.212V397H394.16V399ZM402.264 399H406.316V397H402.264V399ZM410.368 399H414.42V397H410.368V399ZM418.472 399H422.524V397H418.472V399ZM426.576 399H428.602V397H426.576V399ZM429.602 398V396.023H427.602V398H429.602ZM429.602 392.068V388.114H427.602V392.068H429.602ZM429.602 384.159V380.205H427.602V384.159H429.602ZM429.602 376.25V372.295H427.602V376.25H429.602ZM429.602 368.341V364.386H427.602V368.341H429.602ZM429.602 360.432V356.477H427.602V360.432H429.602ZM429.602 352.523V348.568H427.602V352.523H429.602ZM429.602 344.614V340.659H427.602V344.614H429.602ZM429.602 336.705V332.75H427.602V336.705H429.602ZM429.602 328.795V324.841H427.602V328.795H429.602ZM429.602 320.886V316.932H427.602V320.886H429.602ZM429.602 312.977V311H427.602V312.977H429.602ZM428.602 312H430.641V310H428.602V312ZM434.719 312H438.796V310H434.719V312ZM442.874 312H446.952V310H442.874V312ZM451.029 312H455.107V310H451.029V312ZM459.185 312H463.262V310H459.185V312ZM467.34 312H471.418V310H467.34V312ZM475.495 312H479.573V310H475.495V312ZM483.651 312H487.728V310H483.651V312ZM491.806 312H495.884V310H491.806V312Z" fill="#1A468F"/>
<rect x="400.5" y="501" width="145" height="108" rx="4.84049" fill="#A8C0FF"/>
<path d="M442.536 548.336C441.368 548.336 440.388 548.084 439.596 547.58C438.812 547.076 438.224 546.348 437.832 545.396C437.44 544.436 437.244 543.284 437.244 541.94V539.24C437.244 536.984 437.852 535.268 439.068 534.092C440.292 532.916 442.076 532.328 444.42 532.328C445.14 532.328 445.808 532.38 446.424 532.484C447.04 532.58 447.6 532.708 448.104 532.868C448.616 533.028 449.06 533.204 449.436 533.396L449.76 536.564C449.152 536.292 448.472 536.052 447.72 535.844C446.976 535.628 446.12 535.52 445.152 535.52C443.744 535.52 442.712 535.84 442.056 536.48C441.4 537.112 441.072 538.104 441.072 539.456V541.976C441.072 542.984 441.308 543.764 441.78 544.316C442.26 544.868 443.004 545.144 444.012 545.144C444.46 545.144 444.848 545.08 445.176 544.952C445.512 544.816 445.788 544.64 446.004 544.424C446.228 544.208 446.404 543.968 446.532 543.704V540.776L447.024 541.88L444.072 541.892V539H450.132V545.444H446.46C446.34 545.996 446.136 546.492 445.848 546.932C445.568 547.364 445.16 547.708 444.624 547.964C444.096 548.212 443.4 548.336 442.536 548.336ZM446.616 544.844H450.132V548H446.496L446.616 544.844ZM458.94 548.372C456.708 548.372 455.032 547.812 453.912 546.692C452.8 545.572 452.244 543.96 452.244 541.856V538.94C452.244 536.828 452.804 535.2 453.924 534.056C455.052 532.904 456.724 532.328 458.94 532.328C461.156 532.328 462.824 532.904 463.944 534.056C465.072 535.2 465.636 536.828 465.636 538.94V541.856C465.636 543.96 465.076 545.572 463.956 546.692C462.836 547.812 461.164 548.372 458.94 548.372ZM458.94 545.276C459.908 545.276 460.628 544.992 461.1 544.424C461.572 543.856 461.808 543.06 461.808 542.036V538.748C461.808 537.676 461.572 536.852 461.1 536.276C460.628 535.7 459.908 535.412 458.94 535.412C457.972 535.412 457.252 535.7 456.78 536.276C456.308 536.852 456.072 537.676 456.072 538.748V542.036C456.072 543.06 456.308 543.856 456.78 544.424C457.252 544.992 457.972 545.276 458.94 545.276ZM474.175 548.372C471.943 548.372 470.267 547.812 469.147 546.692C468.035 545.572 467.479 543.96 467.479 541.856V538.94C467.479 536.828 468.039 535.2 469.159 534.056C470.287 532.904 471.959 532.328 474.175 532.328C476.391 532.328 478.059 532.904 479.179 534.056C480.307 535.2 480.871 536.828 480.871 538.94V541.856C480.871 543.96 480.311 545.572 479.191 546.692C478.071 547.812 476.399 548.372 474.175 548.372ZM474.175 545.276C475.143 545.276 475.863 544.992 476.335 544.424C476.807 543.856 477.043 543.06 477.043 542.036V538.748C477.043 537.676 476.807 536.852 476.335 536.276C475.863 535.7 475.143 535.412 474.175 535.412C473.207 535.412 472.487 535.7 472.015 536.276C471.543 536.852 471.307 537.676 471.307 538.748V542.036C471.307 543.06 471.543 543.856 472.015 544.424C472.487 544.992 473.207 545.276 474.175 545.276ZM485.809 548V544.856H489.157C490.117 544.856 490.837 544.596 491.317 544.076C491.797 543.556 492.037 542.812 492.037 541.844V538.772C492.037 537.804 491.797 537.064 491.317 536.552C490.837 536.032 490.117 535.772 489.157 535.772H485.797V532.664H489.289C491.473 532.664 493.105 533.192 494.185 534.248C495.273 535.296 495.817 536.804 495.817 538.772V541.856C495.817 543.832 495.277 545.352 494.197 546.416C493.117 547.472 491.481 548 489.289 548H485.809ZM483.181 548V532.664H486.877V548H483.181ZM502.875 548.324C502.163 548.324 501.495 548.276 500.871 548.18C500.255 548.092 499.691 547.976 499.179 547.832C498.675 547.68 498.231 547.524 497.847 547.364L497.523 543.908C498.155 544.204 498.903 544.48 499.767 544.736C500.631 544.984 501.547 545.108 502.515 545.108C503.451 545.108 504.115 544.992 504.507 544.76C504.907 544.52 505.107 544.148 505.107 543.644V543.56C505.107 543.224 505.015 542.952 504.831 542.744C504.655 542.528 504.355 542.332 503.931 542.156C503.515 541.972 502.951 541.776 502.239 541.568C501.167 541.248 500.271 540.892 499.551 540.5C498.839 540.108 498.307 539.62 497.955 539.036C497.603 538.444 497.427 537.696 497.427 536.792V536.636C497.427 535.244 497.899 534.18 498.843 533.444C499.795 532.708 501.191 532.34 503.031 532.34C504.135 532.34 505.087 532.436 505.887 532.628C506.695 532.82 507.379 533.048 507.939 533.312L508.263 536.528C507.647 536.232 506.947 535.984 506.163 535.784C505.387 535.576 504.555 535.472 503.667 535.472C503.043 535.472 502.551 535.524 502.191 535.628C501.839 535.732 501.591 535.884 501.447 536.084C501.303 536.276 501.231 536.512 501.231 536.792V536.84C501.231 537.128 501.311 537.38 501.471 537.596C501.639 537.812 501.935 538.02 502.359 538.22C502.791 538.42 503.403 538.636 504.195 538.868C505.259 539.18 506.139 539.516 506.835 539.876C507.539 540.228 508.063 540.688 508.407 541.256C508.759 541.816 508.935 542.564 508.935 543.5V543.692C508.935 545.236 508.435 546.396 507.435 547.172C506.435 547.94 504.915 548.324 502.875 548.324ZM442.707 577L442.407 574.108C442.359 573.596 442.259 573.18 442.107 572.86C441.955 572.532 441.723 572.292 441.411 572.14C441.099 571.98 440.683 571.9 440.163 571.9L436.695 571.888V569.02L440.307 569.008C441.091 569.008 441.655 568.836 441.999 568.492C442.343 568.148 442.515 567.632 442.515 566.944V566.704C442.515 566.024 442.343 565.516 441.999 565.18C441.663 564.836 441.095 564.664 440.295 564.664H436.671V561.664H440.835C442.715 561.664 444.087 562.028 444.951 562.756C445.823 563.484 446.259 564.532 446.259 565.9V566.212C446.259 567.244 445.995 568.048 445.467 568.624C444.939 569.2 444.135 569.528 443.055 569.608V570.136L442.287 569.62C443.215 569.684 443.935 569.876 444.447 570.196C444.959 570.516 445.335 570.964 445.575 571.54C445.823 572.108 446.003 572.816 446.115 573.664L446.559 577H442.707ZM434.091 577V561.664H437.739V570.052L437.763 571.444V577H434.091ZM448.622 577V561.664H452.294V577H448.622ZM449.714 577V573.868H459.362V577H449.714ZM450.77 570.724V567.712H459.074V570.724H450.77ZM449.702 564.76V561.664H459.254V564.76H449.702ZM467.595 577.336C465.411 577.336 463.783 576.76 462.711 575.608C461.647 574.448 461.115 572.796 461.115 570.652V567.928C461.115 565.824 461.651 564.2 462.723 563.056C463.795 561.904 465.411 561.328 467.571 561.328C468.147 561.328 468.679 561.372 469.167 561.46C469.655 561.548 470.099 561.668 470.499 561.82C470.899 561.964 471.251 562.128 471.555 562.312L471.831 565.528C471.359 565.28 470.839 565.064 470.271 564.88C469.711 564.688 469.059 564.592 468.315 564.592C467.171 564.592 466.323 564.9 465.771 565.516C465.227 566.124 464.955 566.98 464.955 568.084V570.508C464.955 571.604 465.231 572.46 465.783 573.076C466.343 573.692 467.235 574 468.459 574C469.179 574 469.823 573.904 470.391 573.712C470.959 573.52 471.479 573.288 471.951 573.016L471.675 576.304C471.371 576.488 471.015 576.66 470.607 576.82C470.199 576.972 469.743 577.096 469.239 577.192C468.743 577.288 468.195 577.336 467.595 577.336ZM474.099 577V561.664H477.771V577H474.099ZM475.191 577V573.868H484.839V577H475.191ZM476.247 570.724V567.712H484.551V570.724H476.247ZM475.179 564.76V561.664H484.731V564.76H475.179ZM489.721 572.644V569.608H493.357C494.141 569.608 494.705 569.436 495.049 569.092C495.401 568.74 495.577 568.216 495.577 567.52V566.776C495.577 566.072 495.405 565.548 495.061 565.204C494.717 564.86 494.153 564.688 493.369 564.688H489.709V561.664H493.645C495.597 561.664 497.025 562.096 497.929 562.96C498.841 563.824 499.297 565.06 499.297 566.668V567.64C499.297 569.256 498.841 570.496 497.929 571.36C497.025 572.216 495.601 572.644 493.657 572.644H489.721ZM487.201 577V561.664H490.873V570.46L490.897 572.164V577H487.201ZM504.708 577V562.384H508.464V577H504.708ZM500.472 564.796V561.664H512.688V564.796H500.472Z" fill="white"/>
<path d="M513 103C513 102.448 512.552 102 512 102C511.448 102 511 102.448 511 103H513ZM512 165H511V166H512V165ZM622 165H623V164H622V165ZM622 193.5L627.774 183.5H616.226L622 193.5ZM511 103V104.938H513V103H511ZM511 108.812V112.688H513V108.812H511ZM511 116.562V120.438H513V116.562H511ZM511 124.312V128.188H513V124.312H511ZM511 132.062V135.938H513V132.062H511ZM511 139.812V143.688H513V139.812H511ZM511 147.562V151.438H513V147.562H511ZM511 155.312V159.188H513V155.312H511ZM511 163.062V165H513V163.062H511ZM512 166H513.964V164H512V166ZM517.893 166H521.821V164H517.893V166ZM525.75 166H529.679V164H525.75V166ZM533.607 166H537.536V164H533.607V166ZM541.464 166H545.393V164H541.464V166ZM549.321 166H553.25V164H549.321V166ZM557.179 166H561.107V164H557.179V166ZM565.036 166H568.964V164H565.036V166ZM572.893 166H576.821V164H572.893V166ZM580.75 166H584.679V164H580.75V166ZM588.607 166H592.536V164H588.607V166ZM596.464 166H600.393V164H596.464V166ZM604.321 166H608.25V164H604.321V166ZM612.179 166H616.107V164H612.179V166ZM620.036 166H622V164H620.036V166ZM621 165V166.781H623V165H621ZM621 170.344V173.906H623V170.344H621ZM621 177.469V181.031H623V177.469H621ZM621 184.594V188.156H623V184.594H621Z" fill="#1A468F"/>
<path d="M473 478C473 478.552 473.448 479 474 479C474.552 479 475 478.552 475 478H473ZM474 435V434H473V435H474ZM616.5 435V436H617.5V435H616.5ZM616.5 382L610.727 392H622.273L616.5 382ZM475 478V475.85H473V478H475ZM475 471.55V467.25H473V471.55H475ZM475 462.95V458.65H473V462.95H475ZM475 454.35V450.05H473V454.35H475ZM475 445.75V441.45H473V445.75H475ZM475 437.15V435H473V437.15H475ZM474 436H475.979V434H474V436ZM479.938 436H483.896V434H479.938V436ZM487.854 436H491.812V434H487.854V436ZM495.771 436H499.729V434H495.771V436ZM503.688 436H507.646V434H503.688V436ZM511.604 436H515.562V434H511.604V436ZM519.521 436H523.479V434H519.521V436ZM527.437 436H531.396V434H527.437V436ZM535.354 436H539.312V434H535.354V436ZM543.271 436H547.229V434H543.271V436ZM551.188 436H555.146V434H551.188V436ZM559.104 436H563.063V434H559.104V436ZM567.021 436H570.979V434H567.021V436ZM574.938 436H578.896V434H574.938V436ZM582.854 436H586.813V434H582.854V436ZM590.771 436H594.729V434H590.771V436ZM598.688 436H602.646V434H598.688V436ZM606.604 436H610.563V434H606.604V436ZM614.521 436H616.5V434H614.521V436ZM617.5 435V433.107H615.5V435H617.5ZM617.5 429.321V425.536H615.5V429.321H617.5ZM617.5 421.75V417.964H615.5V421.75H617.5ZM617.5 414.179V410.393H615.5V414.179H617.5ZM617.5 406.607V402.821H615.5V406.607H617.5ZM617.5 399.036V395.25H615.5V399.036H617.5ZM617.5 391.464V387.679H615.5V391.464H617.5Z" fill="#1A468F"/>
<path d="M893.5 139.5L883.5 133.726V145.274L893.5 139.5ZM830 139.5V138.5H829V139.5H830ZM830 445.5H829V446.5H830V445.5ZM893.5 445.5L883.5 439.727V451.273L893.5 445.5ZM887.547 138.5H883.578V140.5H887.547V138.5ZM879.609 138.5H875.641V140.5H879.609V138.5ZM871.672 138.5H867.703V140.5H871.672V138.5ZM863.734 138.5H859.766V140.5H863.734V138.5ZM855.797 138.5H851.828V140.5H855.797V138.5ZM847.859 138.5H843.891V140.5H847.859V138.5ZM839.922 138.5H835.953V140.5H839.922V138.5ZM831.984 138.5H830V140.5H831.984V138.5ZM829 139.5V141.513H831V139.5H829ZM829 145.539V149.566H831V145.539H829ZM829 153.592V157.618H831V153.592H829ZM829 161.645V165.671H831V161.645H829ZM829 169.697V173.724H831V169.697H829ZM829 177.75V181.776H831V177.75H829ZM829 185.803V189.829H831V185.803H829ZM829 193.855V197.882H831V193.855H829ZM829 201.908V205.934H831V201.908H829ZM829 209.961V213.987H831V209.961H829ZM829 218.013V222.039H831V218.013H829ZM829 226.066V230.092H831V226.066H829ZM829 234.118V238.145H831V234.118H829ZM829 242.171V246.197H831V242.171H829ZM829 250.224V254.25H831V250.224H829ZM829 258.276V262.303H831V258.276H829ZM829 266.329V270.355H831V266.329H829ZM829 274.382V278.408H831V274.382H829ZM829 282.434V286.461H831V282.434H829ZM829 290.487V294.513H831V290.487H829ZM829 298.539V302.566H831V298.539H829ZM829 306.592V310.618H831V306.592H829ZM829 314.645V318.671H831V314.645H829ZM829 322.697V326.724H831V322.697H829ZM829 330.75V334.776H831V330.75H829ZM829 338.803V342.829H831V338.803H829ZM829 346.855V350.882H831V346.855H829ZM829 354.908V358.934H831V354.908H829ZM829 362.961V366.987H831V362.961H829ZM829 371.013V375.04H831V371.013H829ZM829 379.066V383.092H831V379.066H829ZM829 387.119V391.145H831V387.119H829ZM829 395.171V399.198H831V395.171H829ZM829 403.224V407.25H831V403.224H829ZM829 411.276V415.303H831V411.276H829ZM829 419.329V423.355H831V419.329H829ZM829 427.382V431.408H831V427.382H829ZM829 435.434V439.461H831V435.434H829ZM829 443.487V445.5H831V443.487H829ZM830 446.5H831.984V444.5H830V446.5ZM835.953 446.5H839.922V444.5H835.953V446.5ZM843.891 446.5H847.859V444.5H843.891V446.5ZM851.828 446.5H855.797V444.5H851.828V446.5ZM859.766 446.5H863.734V444.5H859.766V446.5ZM867.703 446.5H871.672V444.5H867.703V446.5ZM875.641 446.5H879.609V444.5H875.641V446.5ZM883.578 446.5H887.547V444.5H883.578V446.5Z" fill="#1A468F"/>
<path d="M899 288L889 282.226V293.774L899 288ZM735 289H736.952V287H735V289ZM740.857 289H744.762V287H740.857V289ZM748.667 289H752.571V287H748.667V289ZM756.476 289H760.381V287H756.476V289ZM764.286 289H768.19V287H764.286V289ZM772.095 289H776V287H772.095V289ZM779.905 289H783.81V287H779.905V289ZM787.714 289H791.619V287H787.714V289ZM795.524 289H799.429V287H795.524V289ZM803.333 289H807.238V287H803.333V289ZM811.143 289H815.048V287H811.143V289ZM818.952 289H822.857V287H818.952V289ZM826.762 289H830.667V287H826.762V289ZM834.571 289H838.476V287H834.571V289ZM842.381 289H846.286V287H842.381V289ZM850.19 289H854.095V287H850.19V289ZM858 289H861.905V287H858V289ZM865.81 289H869.714V287H865.81V289ZM873.619 289H877.524V287H873.619V289ZM881.429 289H885.333V287H881.429V289ZM889.238 289H893.143V287H889.238V289Z" fill="#1A468F"/>
</svg>
