<svg width="113" height="43" viewBox="0 0 113 43" fill="none" xmlns="http://www.w3.org/2000/svg">
<g clip-path="url(#clip0_89_14266)">
<path d="M102.402 32.1586V13.1268C102.402 9.46188 99.7987 8.75445 98.5018 8.75445C97.2048 8.75445 94.6011 9.46188 94.6011 13.1268V32.1586H84.9034V13.1268C84.9034 9.46188 82.2996 8.75445 81.0027 8.75445C79.7057 8.75445 77.102 9.46188 77.102 13.1268V32.1586H67.4043V0.353715H76.8662V2.95745C78.8214 1.01202 81.7101 0 84.2647 0C87.399 0 89.9438 1.00219 92.0072 3.37012C94.7878 0.943241 97.3325 0 100.997 0C104.014 0 106.912 1.00219 108.622 2.72164C111.344 5.44328 112.11 8.44987 112.11 11.8298V32.1684H102.412L102.402 32.1586Z" fill="#1A468F"/>
<path d="M24.506 2.8985C22.6785 1.00219 19.8979 0 16.8225 0C13.5114 0 11.4382 1.00219 9.49277 2.95745V0.353715H0.0898438V12.6257L4.13792 15.5733L0.0898438 18.5209V42.436H9.78754V29.8398C11.5561 31.6182 13.7472 32.5025 16.8815 32.5025C20.0158 32.5025 22.6785 31.5003 24.5158 29.604C27.4733 26.5286 27.5323 21.7437 27.5323 16.2414C27.5323 10.7392 27.4733 5.95421 24.5158 2.87885L24.506 2.8985ZM13.8061 23.7677C10.2002 23.7677 9.78754 20.8692 9.78754 16.2611C9.78754 11.653 10.2002 8.75445 13.8061 8.75445C17.4121 8.75445 17.8247 11.653 17.8247 16.2611C17.8247 20.8692 17.4121 23.7677 13.8061 23.7677Z" fill="#1A468F"/>
<path d="M55.9958 15.5831L60.0635 12.6158V0.353715H50.6606V2.95745C48.7053 1.00219 46.642 0 43.321 0C40.2456 0 37.4749 1.00219 35.6375 2.8985C32.68 5.97386 32.6211 10.7588 32.6211 16.2611C32.6211 21.7633 32.68 26.5483 35.6375 29.6237C37.4749 31.52 40.1867 32.5221 43.2719 32.5221C46.357 32.5221 48.5874 31.6379 50.3658 29.8595V42.4557H60.0635V18.5504L55.9958 15.5831ZM46.3374 23.7677C42.7315 23.7677 42.3188 20.8692 42.3188 16.2611C42.3188 11.653 42.7315 8.75445 46.3374 8.75445C49.9433 8.75445 50.356 11.653 50.356 16.2611C50.356 20.8692 49.9433 23.7677 46.3374 23.7677Z" fill="#1A468F"/>
</g>
<defs>
<clipPath id="clip0_89_14266">
<rect width="112" height="42.4458" fill="white" transform="translate(0.0898438)"/>
</clipPath>
</defs>
</svg>
