<svg width="112" height="43" viewBox="0 0 112 43" fill="none" xmlns="http://www.w3.org/2000/svg">
<g clip-path="url(#clip0_1_1509)">
<path d="M102.313 32.1586V13.1268C102.313 9.46188 99.7089 8.75445 98.4119 8.75445C97.115 8.75445 94.5112 9.46188 94.5112 13.1268V32.1586H84.8135V13.1268C84.8135 9.46188 82.2098 8.75445 80.9128 8.75445C79.6159 8.75445 77.0121 9.46188 77.0121 13.1268V32.1586H67.3145V0.353715H76.7763V2.95745C78.7316 1.01202 81.6203 0 84.1749 0C87.3092 0 89.854 1.00219 91.9173 3.37012C94.6979 0.943241 97.2427 0 100.908 0C103.924 0 106.822 1.00219 108.532 2.72164C111.254 5.44328 112.02 8.44987 112.02 11.8298V32.1684H102.322L102.313 32.1586Z" fill="white"/>
<path d="M24.4162 2.8985C22.5886 1.00219 19.8081 0 16.7327 0C13.4215 0 11.3484 1.00219 9.40293 2.95745V0.353715H0V12.6257L4.04807 15.5733L0 18.5209V42.436H9.69769V29.8398C11.4663 31.6182 13.6573 32.5025 16.7916 32.5025C19.926 32.5025 22.5886 31.5003 24.426 29.604C27.3835 26.5286 27.4424 21.7437 27.4424 16.2414C27.4424 10.7392 27.3835 5.95421 24.426 2.87885L24.4162 2.8985ZM13.7163 23.7677C10.1104 23.7677 9.69769 20.8692 9.69769 16.2611C9.69769 11.653 10.1104 8.75445 13.7163 8.75445C17.3222 8.75445 17.7349 11.653 17.7349 16.2611C17.7349 20.8692 17.3222 23.7677 13.7163 23.7677Z" fill="white"/>
<path d="M55.9069 15.5831L59.9746 12.6158V0.353715H50.5717V2.95745C48.6164 1.00219 46.5531 0 43.2321 0C40.1568 0 37.386 1.00219 35.5486 2.8985C32.5912 5.97386 32.5322 10.7588 32.5322 16.2611C32.5322 21.7633 32.5912 26.5483 35.5486 29.6237C37.386 31.52 40.0978 32.5221 43.183 32.5221C46.2682 32.5221 48.4985 31.6379 50.2769 29.8595V42.4557H59.9746V18.5504L55.9069 15.5831ZM46.2485 23.7677C42.6426 23.7677 42.2299 20.8692 42.2299 16.2611C42.2299 11.653 42.6426 8.75445 46.2485 8.75445C49.8544 8.75445 50.2671 11.653 50.2671 16.2611C50.2671 20.8692 49.8544 23.7677 46.2485 23.7677Z" fill="white"/>
</g>
<defs>
<clipPath id="clip0_1_1509">
<rect width="112" height="42.4458" fill="white"/>
</clipPath>
</defs>
</svg>
