<svg width="72" height="72" viewBox="0 0 72 72" fill="none" xmlns="http://www.w3.org/2000/svg">
<path d="M29.3333 57H12.6667C10.8986 57 9.20286 56.2776 7.95262 54.9916C6.70238 53.7056 6 51.9615 6 50.1429V15.8571C6 12.0857 9 9 12.6667 9H59.3333C61.1014 9 62.7971 9.72245 64.0474 11.0084C65.2976 12.2944 66 14.0385 66 15.8571V50.1429C65.9988 51.3453 65.6902 52.5264 65.1051 53.5674C64.5201 54.6085 63.6791 55.473 62.6667 56.0743M16 22.7143H56M16 33H26M16 43.2857H22.6667" stroke="#1A468F" stroke-width="2" stroke-linecap="round" stroke-linejoin="round"/>
<path d="M39.5 51.15V66L46.5 61.05L53.5 66V51.15M36 42.9C36 45.5256 37.1062 48.0437 39.0754 49.9004C41.0445 51.757 43.7152 52.8 46.5 52.8C49.2848 52.8 51.9555 51.757 53.9246 49.9004C55.8938 48.0437 57 45.5256 57 42.9C57 40.2744 55.8938 37.7563 53.9246 35.8996C51.9555 34.043 49.2848 33 46.5 33C43.7152 33 41.0445 34.043 39.0754 35.8996C37.1062 37.7563 36 40.2744 36 42.9Z" stroke="#A8C0FF" stroke-width="2" stroke-linecap="round" stroke-linejoin="round"/>
</svg>
