<svg width="524" height="332" viewBox="0 0 524 332" fill="none" xmlns="http://www.w3.org/2000/svg">
<g clip-path="url(#clip0_89_13390)">
<path d="M508.393 180.811C499.321 171.363 488.594 162.147 485.797 149.32C480.955 127.121 501.655 108.195 508.43 86.5144C513.114 71.523 510.697 54.4559 502.038 41.3755C493.377 28.2952 478.651 19.4693 463.087 18.0348C436.312 15.5637 410.107 33.7066 383.733 28.4524C362.615 24.2446 345.924 5.68645 324.487 3.69922C299.26 1.36073 278.329 22.2991 254.239 30.1842C225.425 39.6143 194.182 29.7592 165.852 18.9437C137.523 8.12812 107.717 -3.94019 77.8542 1.23791C44.6141 6.99817 16.7438 36.1237 12.3002 69.7445C7.89337 103.066 44.845 129.813 13.3908 169.821C3.56027 182.324 -2.97622 199.732 1.36916 215.058C5.59172 229.951 23.5579 239.369 23.688 254.854C23.7912 267.08 12.3296 276.805 11.406 288.996C10.6126 299.458 18.0973 309.131 27.294 314.09C36.4908 319.05 47.1614 320.261 57.5373 321.386C57.5373 321.386 159.323 328.36 211.782 327.306C294.509 325.643 377.238 323.982 459.965 322.319C468.467 322.147 477.177 321.939 485.099 318.829C493.021 315.719 500.127 309.065 501.333 300.6C503.387 286.193 488.413 273.692 489.796 259.207C491.562 240.71 517.467 233.572 522.394 215.662C525.878 203.004 517.467 190.256 508.395 180.808L508.393 180.811Z" fill="#CEE1F2" fill-opacity="0.2"/>
<path d="M78.638 99.1135L83.7915 297.908C84.2165 314.26 95.9483 327.34 110.242 327.39C173.725 327.618 395.711 326.407 456.072 323.823C466.445 323.378 474.608 313.653 474.598 301.769C474.566 255.557 473.579 144.454 465.244 93.0781C463.488 82.2577 455.271 74.348 445.666 74.2449C392.466 73.6774 157.11 73.5939 96.7933 76.7086C86.3904 77.2466 78.331 87.195 78.6405 99.1135H78.638Z" fill="#7696EA"/>
<path d="M89.5102 97.8654L94.4058 286.733C94.6539 296.281 101.551 303.889 109.896 303.815L446.755 299.848C455.028 299.774 461.609 291.985 461.395 282.518L457.106 95.323C456.954 88.5532 452.097 83.1295 446.182 83.1196L101.222 84.0825C94.6047 84.0703 89.3161 90.2948 89.5126 97.8654H89.5102Z" fill="#CEE1F2"/>
<path opacity="0.65" d="M94.9829 309.445C94.7201 309.445 94.5064 309.234 94.5039 308.971C94.5039 308.708 94.7152 308.492 94.978 308.49L464.551 306.119C464.814 306.141 465.03 306.331 465.033 306.593C465.033 306.856 464.821 307.072 464.559 307.075L94.9854 309.445H94.9829Z" fill="#5E77B8"/>
<path d="M397.3 330.536C398.118 330.536 398.84 330.01 398.982 329.264L425.543 188.659C425.701 187.829 425.074 187.04 424.143 186.9C423.212 186.76 422.333 187.32 422.176 188.151L395.614 328.755C395.457 329.585 396.084 330.374 397.015 330.514C397.11 330.529 397.206 330.536 397.302 330.536H397.3Z" fill="#1D2238"/>
<path d="M486.91 330.536C487.023 330.536 487.136 330.526 487.249 330.504C488.172 330.337 488.772 329.534 488.585 328.709L457.273 189.934C457.087 189.109 456.188 188.571 455.261 188.74C454.338 188.907 453.738 189.71 453.925 190.536L485.237 329.31C485.402 330.035 486.114 330.534 486.91 330.534V330.536Z" fill="#1D2238"/>
<path d="M418.39 223.408H462.134C463.043 223.408 463.78 222.725 463.78 221.882C463.78 221.04 463.043 220.357 462.134 220.357H418.39C417.482 220.357 416.745 221.04 416.745 221.882C416.745 222.725 417.482 223.408 418.39 223.408Z" fill="#1D2238"/>
<path d="M417.569 248.831H462.958C463.901 248.831 464.665 248.148 464.665 247.306C464.665 246.463 463.901 245.78 462.958 245.78H417.569C416.625 245.78 415.861 246.463 415.861 247.306C415.861 248.148 416.625 248.831 417.569 248.831Z" fill="#7D97F4"/>
<path d="M413.445 248.831H468.474C469.417 248.831 470.181 248.148 470.181 247.306C470.181 246.463 469.417 245.78 468.474 245.78H413.445C412.502 245.78 411.738 246.463 411.738 247.306C411.738 248.148 412.502 248.831 413.445 248.831Z" fill="#1D2238"/>
<path d="M417.569 274.255H462.958C463.901 274.255 464.665 273.572 464.665 272.73C464.665 271.887 463.901 271.204 462.958 271.204H417.569C416.625 271.204 415.861 271.887 415.861 272.73C415.861 273.572 416.625 274.255 417.569 274.255Z" fill="#7D97F4"/>
<path d="M408.189 274.255H474.06C475.003 274.255 475.767 273.572 475.767 272.73C475.767 271.887 475.003 271.204 474.06 271.204H408.189C407.246 271.204 406.482 271.887 406.482 272.73C406.482 273.572 407.246 274.255 408.189 274.255Z" fill="#1D2238"/>
<path d="M417.569 299.676H479.357C480.3 299.676 481.064 298.993 481.064 298.151C481.064 297.308 480.3 296.625 479.357 296.625H417.569C416.625 296.625 415.861 297.308 415.861 298.151C415.861 298.993 416.625 299.676 417.569 299.676Z" fill="#7D97F4"/>
<path d="M403.937 299.676H479.354C480.297 299.676 481.061 298.993 481.061 298.151C481.061 297.308 480.297 296.625 479.354 296.625H403.937C402.994 296.625 402.23 297.308 402.23 298.151C402.23 298.993 402.994 299.676 403.937 299.676Z" fill="#1D2238"/>
<path d="M458.404 214.328C458.404 214.328 459.511 216.075 459.789 220.963C459.816 221.418 459.455 221.806 458.998 221.806H450.334C449.985 221.806 449.737 221.464 449.848 221.133C450.356 219.629 451.892 215.967 455.316 213.874L458.401 214.326L458.404 214.328Z" fill="#9EA9BD"/>
<path d="M458.779 211.015L458.29 215.125C458.248 215.478 457.971 215.763 457.615 215.803C457.141 215.857 456.453 215.896 455.782 215.785C455.173 215.685 454.736 215.144 454.736 214.528V210.561L458.779 211.015Z" fill="url(#paint0_linear_89_13390)"/>
<path d="M436.968 213.874C436.968 213.874 438.626 216.451 438.592 219.99C438.584 220.823 437.887 221.486 437.052 221.486H423.595C422.967 221.486 422.709 220.676 423.224 220.315C425.772 218.526 430.775 215.186 434.394 213.874H436.966H436.968Z" fill="#9EA9BD"/>
<path d="M438.353 209.438L437.309 214.513C437.191 215.08 436.636 215.461 436.071 215.336C435.727 215.26 435.322 215.112 434.887 214.842C434.474 214.584 434.266 214.095 434.352 213.616L435.432 207.468L438.353 209.438Z" fill="url(#paint1_linear_89_13390)"/>
<path d="M456.86 138.885C456.86 138.885 460.493 142.088 461.178 145.945C461.861 149.799 459.24 212.452 459.24 212.452C459.24 212.452 455.607 213.056 453.733 211.921C453.733 211.921 451.51 171.26 449.822 161.865C449.822 161.865 440.965 203.985 438.511 211.595C438.511 211.595 435.01 212.02 433.88 211.354C433.88 211.354 436.199 156.755 439.115 147.05L456.858 138.887L456.86 138.885Z" fill="#7696EA"/>
<path d="M449.928 160.506C449.899 160.506 449.867 160.502 449.838 160.494C449.646 160.445 449.531 160.249 449.582 160.057L451.125 154.135C451.147 154.046 451.203 153.972 451.277 153.923L454.613 151.784C454.777 151.676 455.001 151.725 455.109 151.892C455.215 152.059 455.168 152.28 455.001 152.388L451.783 154.451L450.275 160.236C450.233 160.398 450.088 160.504 449.928 160.504V160.506Z" fill="url(#paint2_linear_89_13390)"/>
<path d="M420.997 102.685C436.296 101.415 440.295 104.581 440.295 104.581L432.943 116.188C432.943 116.188 417.909 115.891 407.141 107.588C409.157 105.417 410.557 103.017 411.454 101.15C414.232 102.304 417.431 102.98 421 102.685H420.997Z" fill="#2B3D7B"/>
<path d="M397.039 80.2286C397.059 79.7373 397.725 79.6046 397.933 80.0492L399.886 84.2153C400.265 85.021 400.385 85.9225 400.233 86.797L399.547 89.2215C399.343 90.403 399.65 91.6164 400.4 92.5523C402.193 94.795 406.013 98.8899 411.451 101.15C410.552 103.017 409.154 105.417 407.138 107.588C403.185 104.542 399.805 100.42 397.956 94.8368C397.069 94.5641 396.477 93.729 396.511 92.8029L397.039 80.2286Z" fill="url(#paint3_linear_89_13390)"/>
<path d="M415.961 109.413C421.346 103.611 431.606 100.988 437.546 99.9117C440.147 99.44 442.711 100.887 443.635 103.365C446.308 110.55 453.576 129.244 454.986 132.457C456.143 135.092 457.349 137.667 458.115 139.276C458.575 140.236 458.174 141.388 457.214 141.85C452.218 144.26 443.225 146.984 439.579 148.047C438.779 148.281 437.98 147.679 437.98 146.844C437.98 146.136 437.789 145.441 437.423 144.832L423.618 121.825C415.013 131.366 407.477 132.238 401.689 130.15C402.662 127.141 403.301 124.127 403.605 121.108C412.156 119.644 415.964 109.411 415.964 109.411L415.961 109.413Z" fill="#212E5C"/>
<path d="M389.467 119.509L391.009 117.45C396.006 120.882 400.182 121.695 403.601 121.11C403.296 124.129 402.658 127.143 401.685 130.152C394.058 127.401 389.464 119.509 389.464 119.509H389.467Z" fill="url(#paint4_linear_89_13390)"/>
<path d="M390.555 119.546L381.859 119.885L373.854 115.414C375.003 114.694 381.5 116.166 381.5 116.166C381.5 116.166 388.292 115.139 390.132 115.136C391.66 115.136 391.441 117.33 391.323 118.074C391.299 118.227 391.279 118.318 391.279 118.318L390.552 119.546H390.555Z" fill="url(#paint5_linear_89_13390)"/>
<path d="M429.376 89.2534L433.964 100.447C433.964 100.447 428.693 104.095 424.453 103.749L422.164 93.6823L429.378 89.2534H429.376Z" fill="#E495A1"/>
<path d="M421.626 81.6215C421.52 81.7713 418.307 93.3803 418.307 93.3803L424.976 95.0752L429.658 84.525C429.658 84.525 423.387 79.1307 421.628 81.6239L421.626 81.6215Z" fill="#F8A6B3"/>
<path d="M427.145 86.1264L425.116 91.8744C425.089 91.9481 425.055 92.0169 425.011 92.0807C424.736 92.4713 423.689 93.7486 422.449 92.5991C421.324 91.5551 420.28 90.6192 419.317 90.4497C418.885 90.3735 418.464 90.6364 418.349 91.0613C418.057 92.1151 417.445 94.5052 417.229 96.6619C417.185 97.0992 417.487 97.4947 417.919 97.5782C419.221 97.8263 421.982 98.2709 424.289 98.1088C424.601 98.0867 424.876 97.9 425.006 97.615C425.642 96.2272 427.588 92.0144 428.312 90.9238C428.993 89.9019 430.658 89.9289 431.356 89.9903C431.584 90.01 431.81 89.9363 431.982 89.7865C432.594 89.251 433.756 87.8828 432.12 86.2468C431.778 85.9029 431.786 85.3502 432.139 85.0186C432.842 84.3578 433.593 83.1861 432.422 81.7319C431.233 80.2556 429.661 80.489 428.698 80.8402C428.31 80.9827 427.885 80.8181 427.674 80.462C427.553 80.2581 427.342 80.1058 426.978 80.1377C426.487 80.1795 426.074 79.7693 426.084 79.278C426.101 78.3323 425.762 77.136 424.122 76.6251C421.208 75.7186 419.393 78.5337 419.211 80.6315C419.032 82.7317 422.245 83.5349 424.136 83.3924C425.573 83.2844 426.639 84.7091 427.069 85.3969C427.204 85.6155 427.231 85.8832 427.148 86.124L427.145 86.1264Z" fill="#233862"/>
<path d="M427.548 93.0067C427.548 93.0067 428.02 89.3614 429.536 89.1821C431.051 89.0028 432.527 90.2506 431.019 92.2968C429.145 94.8416 427.548 93.0067 427.548 93.0067Z" fill="#F8A6B3"/>
<path d="M357.489 116.696L361.535 112.459C364.215 113.002 367.003 113.125 369.796 112.774L373.51 117.298C373.64 117.458 373.856 117.514 374.05 117.443L380.638 114.999C380.83 114.928 380.958 114.741 380.953 114.537L380.818 108.684C383.164 107.129 385.2 105.22 386.878 103.058L392.707 103.633C392.911 103.653 393.105 103.542 393.191 103.356L396.121 96.969C396.207 96.7823 396.165 96.5613 396.016 96.4212L391.778 92.3755C392.321 89.6956 392.441 86.9076 392.093 84.1147L396.617 80.4006C396.777 80.2704 396.833 80.0542 396.762 79.8602L394.318 73.2721C394.247 73.0805 394.06 72.9528 393.856 72.9577L388.003 73.0928C386.448 70.7469 384.539 68.7106 382.378 67.0328L382.952 61.2038C382.972 60.9999 382.861 60.8059 382.675 60.7199L376.288 57.7894C376.101 57.7034 375.88 57.7452 375.74 57.895L371.695 62.1323C369.012 61.587 366.227 61.4666 363.434 61.8179L359.72 57.2932C359.589 57.1335 359.373 57.077 359.179 57.1483L352.591 59.5924C352.4 59.6636 352.272 59.8503 352.277 60.0542L352.412 65.9078C350.066 67.4627 348.03 69.3713 346.352 71.533L340.523 70.9582C340.319 70.9385 340.125 71.0491 340.039 71.2357L337.108 77.6224C337.023 77.8091 337.064 78.0302 337.214 78.1702L341.451 82.2159C340.909 84.8983 340.788 87.6838 341.137 90.4767L336.612 94.1908C336.453 94.321 336.396 94.5372 336.467 94.7312L338.911 101.319C338.983 101.511 339.169 101.639 339.373 101.634L345.227 101.499C346.782 103.844 348.69 105.881 350.852 107.559L350.277 113.388C350.258 113.592 350.368 113.786 350.555 113.872L356.941 116.802C357.128 116.888 357.349 116.846 357.489 116.696Z" fill="#1A468F"/>
<path d="M366.627 94.0091C364.487 94.0091 362.382 92.9921 361.083 91.1007C358.985 88.0499 359.759 83.8592 362.812 81.759C364.291 80.7421 366.077 80.3613 367.84 80.688C369.604 81.0147 371.137 82.0096 372.154 83.4883C373.171 84.9671 373.552 86.7529 373.225 88.5166C372.898 90.2803 371.903 91.8131 370.427 92.83C369.268 93.6284 367.941 94.0091 366.632 94.0091H366.627ZM366.605 81.533C365.45 81.533 364.323 81.8794 363.353 82.5475C360.734 84.3481 360.068 87.9418 361.869 90.5603C363.669 93.1788 367.263 93.8421 369.882 92.044C372.5 90.2434 373.166 86.6497 371.365 84.0312C370.493 82.7637 369.179 81.9113 367.666 81.6313C367.312 81.565 366.959 81.533 366.605 81.533Z" fill="#91B3FA"/>
<path d="M369.015 104.562C368.781 104.562 368.577 104.39 368.543 104.152C368.541 104.13 368.538 104.105 368.538 104.083C368.538 103.85 368.71 103.646 368.948 103.611C370.1 103.447 371.245 103.154 372.348 102.744C380.236 99.8186 384.559 91.4545 382.648 83.4688C382.495 82.8301 382.301 82.1964 382.068 81.5651C378.909 73.0463 369.408 68.6861 360.889 71.8451C356.762 73.3754 353.478 76.4214 351.643 80.4228C350.638 82.6139 350.132 84.9475 350.132 87.2909C350.132 89.2241 350.476 91.1598 351.169 93.0266C352.208 95.8269 353.981 98.2907 356.3 100.148C356.418 100.241 356.48 100.381 356.48 100.521C356.48 100.627 356.445 100.732 356.374 100.818C356.209 101.025 355.907 101.057 355.703 100.892C353.249 98.9269 351.373 96.3207 350.275 93.3583C349.543 91.3833 349.177 89.3347 349.177 87.2909C349.177 84.8149 349.71 82.3437 350.776 80.0249C352.719 75.7925 356.192 72.5697 360.56 70.9509C369.572 67.6078 379.624 72.2209 382.967 81.2335C383.706 83.2256 384.055 85.2669 384.055 87.2762C384.055 94.3605 379.705 101.037 372.682 103.641C371.609 104.039 370.501 104.331 369.381 104.513C369.346 104.518 369.312 104.523 369.277 104.53C369.214 104.54 369.15 104.55 369.083 104.559C369.061 104.562 369.037 104.564 369.015 104.564V104.562Z" fill="#91B3FA"/>
<path d="M227.011 325.395H68.2247C66.8049 325.395 65.6553 326.544 65.6553 327.964C65.6553 329.384 66.8049 330.534 68.2247 330.534H227.009C228.429 330.534 229.578 329.384 229.578 327.964C229.578 326.544 228.429 325.395 227.009 325.395H227.011Z" fill="url(#paint6_linear_89_13390)"/>
<path d="M204.521 299.264H90.7157C87.2841 299.264 84.5034 302.044 84.5034 305.476V325.397H210.731V305.476C210.731 302.044 207.95 299.264 204.518 299.264H204.521Z" fill="url(#paint7_linear_89_13390)"/>
<path d="M196.101 288.163H99.1371C95.7055 288.163 92.9248 290.944 92.9248 294.375V299.264H202.313V294.375C202.313 290.944 199.533 288.163 196.101 288.163Z" fill="#7D97F4"/>
<path d="M121.519 255.422H173.718C175.435 255.422 176.828 256.814 176.828 258.531V288.163H118.41V258.531C118.41 256.814 119.802 255.422 121.519 255.422Z" fill="url(#paint8_linear_89_13390)"/>
<path d="M110.667 304.69H100.468V325.395H110.667V304.69Z" fill="#7D97F4"/>
<path d="M118.409 304.69H114.312V325.395H118.409V304.69Z" fill="#7D97F4"/>
<path d="M124.188 304.69H120.088V325.395H124.188V304.69Z" fill="#7D97F4"/>
<path d="M129.965 304.69H125.865V325.395H129.965V304.69Z" fill="#7D97F4"/>
<path d="M52.357 161.749C50.9348 163.061 50.8095 165.264 52.077 166.726L132.016 260.072C133.337 261.597 135.659 261.727 137.142 260.359L143.944 254.098L55.9065 158.48L52.357 161.747V161.749Z" fill="url(#paint9_linear_89_13390)"/>
<path d="M63.3028 131.759C60.5811 128.922 56.0908 128.784 53.1997 131.447L46.0294 138.047C43.1382 140.71 42.9073 145.196 45.5087 148.143L140.891 256.91L160.883 238.502C162.505 237.009 162.578 234.474 161.048 232.889L63.3028 131.761V131.759Z" fill="url(#paint10_linear_89_13390)"/>
<path d="M70.1433 154.547L69.3941 155.237C67.0728 157.374 66.923 160.99 69.0601 163.312L119.394 217.979C121.531 220.3 125.147 220.45 127.468 218.313L128.218 217.623C130.539 215.486 130.689 211.87 128.552 209.548L78.2175 154.881C76.0805 152.56 72.4646 152.41 70.1433 154.547Z" fill="url(#paint11_linear_89_13390)"/>
<path d="M70.83 153.91L68.7158 155.857L126.794 218.928L128.908 216.981L70.83 153.91Z" fill="#7D97F4"/>
<path d="M166.302 266.398C176.253 256.446 176.253 240.312 166.302 230.36C156.35 220.408 140.215 220.408 130.264 230.36C120.312 240.312 120.312 256.446 130.264 266.398C140.215 276.35 156.35 276.35 166.302 266.398Z" fill="url(#paint12_linear_89_13390)"/>
<path d="M167.736 248.58C167.856 237.831 159.239 229.019 148.49 228.899C137.741 228.779 128.929 237.396 128.809 248.145C128.689 258.894 137.306 267.706 148.055 267.826C158.804 267.946 167.616 259.329 167.736 248.58Z" fill="#7D97F4"/>
<path d="M51.2612 137.829L56.2895 143.289C57.3875 144.481 59.2519 144.53 60.4113 143.398L130.561 73.9796C131.672 72.8938 131.718 71.1203 130.667 69.9781L128.043 67.1287L51.2612 137.826V137.829Z" fill="url(#paint13_linear_89_13390)"/>
<path d="M131.999 45.6744L137.299 51.4322C139.437 53.7535 139.326 57.3595 137.049 59.5457L53.5189 140.283L38.7362 124.228C37.5375 122.926 37.6456 120.892 38.977 119.725L123.892 45.2544C126.258 43.164 129.861 43.3507 131.999 45.672V45.6744Z" fill="url(#paint14_linear_89_13390)"/>
<path d="M107.808 65.1857L61.9077 107.448C59.8762 109.317 59.746 112.481 61.6154 114.51C63.4847 116.542 66.6485 116.672 68.6775 114.803L114.578 72.5401C116.609 70.6708 116.74 67.507 114.87 65.478C113.001 63.4465 109.837 63.3163 107.808 65.1857Z" fill="url(#paint15_linear_89_13390)"/>
<path d="M114.086 64.6191L60.8345 113.656L62.3969 115.352L115.649 66.3159L114.086 64.6191Z" fill="#7D97F4"/>
<path d="M57.9378 150.941C67.8701 145.551 71.5519 133.129 66.1613 123.197C60.7708 113.265 48.3493 109.583 38.417 114.973C28.4848 120.364 24.803 132.785 30.1935 142.718C35.584 152.65 48.0056 156.332 57.9378 150.941Z" fill="url(#paint16_linear_89_13390)"/>
<path d="M63.2952 136.891C65.4668 128.537 60.4544 120.004 52.0997 117.832C43.7451 115.661 35.2119 120.673 33.0403 129.028C30.8688 137.382 35.8812 145.915 44.2358 148.087C52.5905 150.259 61.1237 145.246 63.2952 136.891Z" fill="#7D97F4"/>
<path d="M194.777 79.9559L191.583 85.2053C190.296 87.3227 187.968 88.2733 186.344 87.3448L126.415 53.4784L135.317 38.8431C136.039 37.6567 137.358 37.1507 138.235 37.7254L194.266 74.3234C195.835 75.3379 196.064 77.8434 194.774 79.9608L194.777 79.9559Z" fill="url(#paint17_linear_89_13390)"/>
<path d="M138.798 62.3728C147.342 59.9842 152.331 51.1221 149.943 42.5787C147.554 34.0353 138.692 29.0458 130.148 31.4344C121.605 33.823 116.616 42.6851 119.004 51.2285C121.393 59.7719 130.255 64.7614 138.798 62.3728Z" fill="url(#paint18_linear_89_13390)"/>
<path d="M138.987 58.318C145.288 55.8257 148.376 48.6969 145.883 42.3955C143.391 36.0941 136.262 33.0063 129.961 35.4987C123.66 37.991 120.572 45.1198 123.064 51.4212C125.556 57.7226 132.685 60.8104 138.987 58.318Z" fill="#7D97F4"/>
<path d="M195.84 72.7882L185.506 89.9259C185.353 90.1792 185.435 90.5083 185.688 90.661L191.082 93.9133C191.335 94.0661 191.664 93.9846 191.817 93.7313L202.151 76.5936C202.303 76.3403 202.222 76.0112 201.969 75.8585L196.575 72.6062C196.322 72.4535 195.993 72.535 195.84 72.7882Z" fill="#7D97F4"/>
<path d="M209.958 83.1541L223.377 73.4661L241.972 96.0822L239.154 99.4106L222.34 81.3757L211.955 88.9783L209.958 83.1541Z" fill="#91B3FA"/>
<path d="M201.412 97.4602L199.343 113.881L228.108 119.357L229.675 115.286L205.789 109.18L207.479 96.4211L201.412 97.4602Z" fill="#91B3FA"/>
<path d="M197.079 97.033C199.84 99.2953 203.694 100.074 207.28 98.7451C212.662 96.7529 215.411 90.7741 213.419 85.3921C212.409 82.6679 210.38 80.6193 207.924 79.5164L197.076 97.033H197.079Z" fill="#91B3FA"/>
<path d="M191.173 93.3874L189.476 96.2025C189.169 96.7109 189.363 97.3865 189.906 97.7156L195.126 100.862C195.668 101.189 196.359 101.044 196.663 100.536L210.198 78.0889C210.505 77.5805 210.311 76.905 209.768 76.5758L204.548 73.4292C204.006 73.1024 203.315 73.2474 203.011 73.7559L201.456 76.3351L191.173 93.3874Z" fill="#91B3FA"/>
<path d="M244.942 184.068C245.261 184.292 245.686 184.287 246 184.058L254.979 177.537C259.791 179.46 264.942 180.632 270.267 180.926L275.649 190.619C275.838 190.958 276.222 191.143 276.605 191.074L289.71 188.76C290.093 188.691 290.39 188.389 290.451 188.006L292.188 177.055C297.089 174.955 301.53 172.088 305.389 168.632L316.057 171.683C316.43 171.789 316.831 171.649 317.054 171.329L324.684 160.425C324.907 160.106 324.902 159.681 324.674 159.367L318.152 150.388C320.076 145.576 321.247 140.425 321.542 135.1L331.235 129.718C331.574 129.529 331.758 129.145 331.69 128.762L329.373 115.657C329.304 115.274 329.002 114.977 328.619 114.915L317.668 113.179C315.568 108.278 312.702 103.837 309.245 99.9781L312.296 89.3099C312.402 88.9365 312.262 88.5361 311.943 88.3126L301.039 80.683C300.719 80.4595 300.294 80.4644 299.98 80.6929L291.002 87.2146C286.19 85.2912 281.039 84.1195 275.713 83.8248L270.331 74.1318C270.142 73.7928 269.759 73.6086 269.375 73.6774L256.271 75.9938C255.887 76.0601 255.59 76.3647 255.529 76.7479L253.792 87.6985C248.892 89.7987 244.45 92.6654 240.591 96.1215L229.923 93.0707C229.55 92.9626 229.149 93.1051 228.926 93.4244L221.296 104.328C221.073 104.648 221.078 105.073 221.306 105.387L227.828 114.365C225.905 119.177 224.733 124.328 224.438 129.654L214.745 135.036C214.406 135.225 214.222 135.608 214.291 135.991L216.605 149.096C216.673 149.48 216.975 149.777 217.359 149.838L228.309 151.575C230.41 156.475 233.276 160.914 236.732 164.776L233.681 175.444C233.573 175.817 233.716 176.217 234.035 176.441L244.939 184.071L244.942 184.068Z" fill="#1A468F"/>
<path d="M272.996 145.156C271.464 145.156 269.928 144.876 268.452 144.316C265.264 143.103 262.736 140.723 261.338 137.61C259.941 134.498 259.837 131.027 261.051 127.839C262.264 124.65 264.645 122.123 267.757 120.725C274.183 117.839 281.756 120.72 284.642 127.144C287.528 133.569 284.647 141.143 278.224 144.029C276.551 144.781 274.775 145.156 272.996 145.156ZM272.974 121.513C271.488 121.513 269.98 121.82 268.54 122.467C265.895 123.655 263.868 125.802 262.837 128.517C261.805 131.229 261.893 134.179 263.082 136.827C264.271 139.472 266.418 141.499 269.13 142.53C271.842 143.562 274.794 143.474 277.44 142.285C282.903 139.831 285.352 133.39 282.898 127.927C281.09 123.904 277.121 121.516 272.974 121.516V121.513Z" fill="#91B3FA"/>
<path d="M273.089 164.726C272.954 164.726 272.819 164.726 272.684 164.726C272.682 164.726 272.677 164.726 272.674 164.726C272.608 164.726 272.542 164.726 272.475 164.724C272.47 164.724 272.47 164.724 272.468 164.724C272.463 164.724 272.458 164.724 272.453 164.724C272.281 164.722 272.109 164.717 271.94 164.709C271.92 164.709 271.903 164.709 271.883 164.709C271.625 164.699 271.424 164.488 271.424 164.233C271.424 164.228 271.424 164.22 271.424 164.213C271.434 163.95 271.66 163.744 271.92 163.754C274.155 163.837 276.415 163.68 278.641 163.287C293.966 160.58 304.777 147.2 304.777 132.15C304.777 130.329 304.62 128.485 304.291 126.63C301.257 109.452 284.814 97.9442 267.634 100.98C252.308 103.687 241.498 117.067 241.498 132.118C241.498 133.938 241.655 135.783 241.984 137.637C242.981 143.284 245.487 148.546 249.225 152.855C249.304 152.946 249.343 153.056 249.343 153.167C249.343 153.299 249.287 153.434 249.179 153.528C248.98 153.7 248.678 153.68 248.506 153.481C244.654 149.042 242.072 143.621 241.046 137.804C240.709 135.896 240.544 133.994 240.544 132.118C240.544 116.61 251.682 102.828 267.469 100.039C285.165 96.9125 302.107 108.767 305.234 126.465C305.57 128.374 305.735 130.275 305.735 132.152C305.735 147.659 294.598 161.442 278.81 164.23C276.919 164.564 275.003 164.731 273.097 164.731L273.089 164.726Z" fill="#91B3FA"/>
<path d="M173.057 198.293C173.162 198.423 173.342 198.473 173.499 198.414L178.011 196.753C179.79 198.124 181.802 199.219 183.985 199.971L185.086 204.648C185.125 204.813 185.263 204.933 185.43 204.95L191.168 205.532C191.335 205.549 191.495 205.459 191.566 205.304L193.583 200.941C195.874 200.644 198.063 199.973 200.082 198.986L204.17 201.516C204.312 201.604 204.496 201.592 204.627 201.487L209.095 197.841C209.225 197.736 209.274 197.556 209.215 197.399L207.555 192.887C208.925 191.108 210.021 189.096 210.772 186.913L215.449 185.812C215.614 185.773 215.734 185.635 215.752 185.468L216.334 179.73C216.351 179.563 216.26 179.403 216.105 179.332L211.743 177.316C211.446 175.024 210.775 172.835 209.79 170.816L212.32 166.728C212.408 166.586 212.396 166.402 212.291 166.272L208.645 161.803C208.54 161.673 208.36 161.624 208.203 161.683L203.691 163.344C201.912 161.973 199.9 160.877 197.717 160.126L196.616 155.449C196.577 155.284 196.439 155.164 196.272 155.146L190.534 154.564C190.367 154.547 190.207 154.638 190.136 154.793L188.12 159.155C185.828 159.453 183.639 160.123 181.62 161.111L177.532 158.581C177.39 158.492 177.206 158.504 177.076 158.61L172.607 162.255C172.477 162.361 172.428 162.54 172.487 162.697L174.147 167.21C172.777 168.988 171.681 171 170.93 173.184L166.253 174.284C166.088 174.324 165.968 174.461 165.95 174.628L165.368 180.366C165.351 180.533 165.442 180.693 165.597 180.764L169.959 182.781C170.257 185.073 170.927 187.262 171.912 189.281L169.382 193.368C169.294 193.511 169.306 193.695 169.412 193.825L173.057 198.293Z" fill="#1A468F"/>
<path d="M190.851 185.648C188.122 185.648 185.725 183.643 185.315 180.865C184.865 177.809 186.982 174.96 190.038 174.51C191.517 174.292 192.993 174.663 194.194 175.554C195.396 176.446 196.177 177.753 196.393 179.231C196.612 180.71 196.241 182.186 195.349 183.388C194.457 184.589 193.151 185.37 191.672 185.586C191.397 185.628 191.122 185.648 190.851 185.648ZM190.864 175.404C190.635 175.404 190.407 175.422 190.176 175.456C187.643 175.829 185.887 178.195 186.258 180.727C186.631 183.26 188.997 185.019 191.529 184.645C192.757 184.464 193.838 183.818 194.58 182.82C195.32 181.825 195.627 180.6 195.447 179.374C195.265 178.146 194.619 177.062 193.622 176.323C192.812 175.721 191.854 175.407 190.864 175.407V175.404Z" fill="#91B3FA"/>
<path d="M190.953 194.361C190.469 194.361 189.982 194.336 189.491 194.287C189.295 194.267 189.096 194.243 188.902 194.216C188.899 194.216 188.897 194.216 188.894 194.216C188.894 194.216 188.887 194.216 188.884 194.216C188.071 194.098 187.268 193.913 186.492 193.66C186.29 193.594 186.16 193.407 186.16 193.206C186.16 193.157 186.168 193.108 186.185 193.059C186.266 192.808 186.536 192.671 186.787 192.752C187.691 193.044 188.634 193.243 189.587 193.339C194.352 193.823 198.794 191.742 201.542 188.222C202.957 186.409 203.925 184.216 204.257 181.791C204.279 181.636 204.296 181.479 204.313 181.322C204.36 180.86 204.382 180.398 204.382 179.941C204.382 176.859 203.331 173.894 201.353 171.472C199.083 168.691 195.868 166.959 192.296 166.598C184.925 165.854 178.319 171.241 177.57 178.615C177.524 179.069 177.501 179.524 177.501 179.978C177.501 181.946 177.931 183.891 178.769 185.672C178.801 185.739 178.816 185.807 178.813 185.876C178.813 186.055 178.712 186.227 178.538 186.308C178.3 186.421 178.015 186.318 177.902 186.08C177.005 184.171 176.543 182.088 176.543 179.981C176.543 179.494 176.568 179.008 176.617 178.522C177.418 170.624 184.492 164.849 192.39 165.65C196.214 166.038 199.661 167.893 202.092 170.87C204.21 173.464 205.335 176.64 205.337 179.941C205.337 180.433 205.313 180.926 205.264 181.42C204.515 188.826 198.243 194.365 190.953 194.365V194.361Z" fill="#91B3FA"/>
<path d="M339.255 198.028C339.412 198.22 339.675 198.293 339.909 198.207L346.563 195.761C349.186 197.782 352.151 199.399 355.374 200.507L356.998 207.404C357.054 207.647 357.258 207.824 357.506 207.851L365.969 208.708C366.217 208.733 366.452 208.598 366.556 208.374L369.53 201.941C372.91 201.501 376.138 200.514 379.115 199.06L385.146 202.791C385.357 202.921 385.627 202.904 385.821 202.747L392.412 197.37C392.603 197.212 392.677 196.95 392.591 196.716L390.145 190.062C392.166 187.438 393.782 184.474 394.89 181.251L401.788 179.627C402.029 179.571 402.208 179.367 402.235 179.119L403.092 170.656C403.117 170.408 402.982 170.172 402.758 170.069L396.325 167.094C395.885 163.714 394.898 160.487 393.443 157.51L397.177 151.479C397.307 151.268 397.29 150.998 397.133 150.804L391.756 144.213C391.599 144.022 391.336 143.948 391.103 144.034L384.448 146.48C381.825 144.459 378.86 142.842 375.637 141.735L374.013 134.837C373.957 134.596 373.753 134.417 373.505 134.39L365.043 133.533C364.794 133.508 364.559 133.643 364.455 133.867L361.481 140.3C358.101 140.74 354.873 141.727 351.896 143.181L345.865 139.45C345.654 139.32 345.384 139.337 345.19 139.494L338.599 144.871C338.408 145.029 338.334 145.291 338.42 145.525L340.867 152.179C338.845 154.803 337.229 157.768 336.121 160.99L329.223 162.614C328.983 162.671 328.803 162.874 328.776 163.122L327.919 171.585C327.894 171.833 328.029 172.069 328.253 172.172L334.686 175.147C335.126 178.527 336.113 181.754 337.568 184.731L333.836 190.762C333.706 190.973 333.723 191.243 333.881 191.437L339.258 198.028H339.255Z" fill="#1A468F"/>
<path d="M365.497 180.108C361.117 180.108 357.27 176.891 356.612 172.432C356.263 170.057 356.858 167.689 358.29 165.763C359.722 163.837 361.817 162.582 364.193 162.233C369.096 161.511 373.672 164.911 374.394 169.814C374.743 172.189 374.148 174.557 372.716 176.483C371.284 178.409 369.189 179.664 366.814 180.013C366.371 180.079 365.932 180.108 365.497 180.108ZM365.514 165.002C365.214 165.002 364.912 165.024 364.608 165.068C361.269 165.559 358.953 168.676 359.447 172.015C359.685 173.631 360.54 175.058 361.852 176.033C363.163 177.008 364.777 177.414 366.393 177.176C368.01 176.937 369.437 176.082 370.412 174.771C371.387 173.459 371.793 171.845 371.554 170.229C371.316 168.612 370.461 167.185 369.15 166.21C368.083 165.417 366.818 165.002 365.512 165.002H365.514Z" fill="#91B3FA"/>
<path d="M365.647 192C364.942 192 364.232 191.966 363.515 191.892C362.201 191.759 360.904 191.504 359.648 191.133C359.506 191.091 359.363 191.047 359.221 191C359.194 190.99 359.164 190.983 359.137 190.973C358.936 190.907 358.806 190.72 358.806 190.519C358.806 190.47 358.813 190.421 358.83 190.371C358.911 190.121 359.182 189.983 359.432 190.064C360.781 190.502 362.186 190.796 363.611 190.939C363.728 190.951 363.846 190.961 363.962 190.971C371.906 191.639 379.201 187.542 382.979 181.037C384.343 178.689 385.249 176.026 385.561 173.159C385.566 173.113 385.571 173.064 385.576 173.017C385.645 172.332 385.679 171.651 385.679 170.978C385.679 160.826 377.963 152.098 367.651 151.052C356.654 149.939 346.801 157.979 345.686 168.976C345.617 169.654 345.583 170.332 345.583 171.01C345.583 173.943 346.227 176.846 347.474 179.504C347.506 179.571 347.521 179.639 347.519 179.708C347.519 179.887 347.418 180.059 347.244 180.14C347.005 180.253 346.72 180.15 346.607 179.912C345.298 177.126 344.625 174.088 344.625 171.012C344.625 170.303 344.659 169.593 344.733 168.883C345.9 157.36 356.227 148.937 367.745 150.104C378.548 151.199 386.63 160.344 386.632 170.981C386.632 171.686 386.598 172.398 386.524 173.115C385.428 183.921 376.281 192.002 365.644 192.002L365.647 192Z" fill="#91B3FA"/>
<path d="M276.762 257.35L273.902 260.17C269.844 259.779 266.715 258.517 264.312 256.915C265.759 253.319 267.226 251.187 268.38 249.937C272.158 255.252 276.762 257.35 276.762 257.35Z" fill="#F8A6B3"/>
<path d="M256.86 246.8L263.608 236.25C264.05 242.201 266.062 246.674 268.38 249.937C267.226 251.187 265.759 253.319 264.313 256.915C258.317 252.919 256.86 246.8 256.86 246.8Z" fill="#6B89D9"/>
<path d="M249.682 330.185C253.048 330.34 256.302 330.241 258.476 330.131C256.496 328.721 251.935 325.655 248.12 324.434L245.499 324.277C245.499 324.277 244.612 325.628 244.295 328.716C244.73 329.259 245.998 330.013 249.682 330.182V330.185Z" fill="url(#paint19_linear_89_13390)"/>
<path d="M258.506 330.148C258.506 330.148 258.489 330.136 258.479 330.128C256.305 330.239 253.048 330.337 249.685 330.182C246.003 330.013 244.733 329.256 244.298 328.716C244.283 328.858 244.269 328.998 244.256 329.148C244.202 329.826 244.706 330.421 245.384 330.472C248.14 330.681 254.971 331.153 258.265 330.981C258.7 330.959 258.862 330.398 258.506 330.148Z" fill="url(#paint20_linear_89_13390)"/>
<path d="M225.621 329.283C225.376 327.704 224.98 325.419 224.676 324.837C224.197 323.921 222.558 324.837 222.558 324.837C222.558 324.837 221.406 325.373 220.878 326.269C220.541 326.839 219.606 328.463 218.974 329.563C218.901 329.691 218.871 329.824 218.876 329.956L225.44 330.187C225.599 329.929 225.675 329.615 225.624 329.286L225.621 329.283Z" fill="url(#paint21_linear_89_13390)"/>
<path d="M218.872 329.954C218.881 330.33 219.179 330.669 219.599 330.681L224.276 330.809C224.769 330.823 225.197 330.566 225.435 330.182L218.872 329.951V329.954Z" fill="url(#paint22_linear_89_13390)"/>
<path d="M226.123 319.588C226.066 319.777 225.219 323.889 224.846 325.695C224.742 326.193 224.293 326.545 223.784 326.518C223.507 326.503 223.183 326.478 222.844 326.434C222.242 326.355 221.785 325.854 221.76 325.248C221.699 323.666 221.669 320.632 222.252 319.455C223.052 317.834 226.12 319.586 226.12 319.586L226.123 319.588Z" fill="url(#paint23_linear_89_13390)"/>
<path d="M244.986 320.765C245.349 320.752 244.841 322.644 245.391 324.501C245.516 324.921 245.828 325.247 246.266 325.255C246.548 325.257 246.885 325.255 247.226 325.225C247.739 325.184 248.15 324.786 248.199 324.275L248.646 319.458L244.988 320.767L244.986 320.765Z" fill="url(#paint24_linear_89_13390)"/>
<path d="M255.163 269.548C255.001 270.339 249.27 303.769 248.921 321.067C248.916 321.356 248.702 321.6 248.415 321.639C247.688 321.74 246.271 321.87 244.897 321.617C244.708 321.582 244.568 321.428 244.556 321.236C244.355 318.013 242.746 290.757 244.718 277.927C244.718 277.927 228.422 312.224 225.951 321.681C225.892 321.912 225.681 322.066 225.443 322.054C224.745 322.017 223.293 321.892 222.141 321.467C221.729 321.315 221.493 320.88 221.598 320.452C222.979 314.793 232.65 275.8 239.218 267.21L255.165 269.548H255.163Z" fill="url(#paint25_linear_89_13390)"/>
<path d="M244.715 278.141C244.661 278.141 244.607 278.121 244.565 278.08C244.482 277.996 244.479 277.861 244.563 277.777L246.744 275.547C246.828 275.464 246.963 275.461 247.046 275.545C247.13 275.628 247.132 275.763 247.049 275.847L244.867 278.077C244.826 278.119 244.769 278.141 244.715 278.141Z" fill="url(#paint26_linear_89_13390)"/>
<path d="M264.477 227.696C260.292 226.601 252.571 224.884 246.423 225.25C245.01 225.333 243.881 226.451 243.799 227.861C242.871 244.23 241.601 258.758 239.213 267.21C244.583 269.335 249.909 270.322 255.16 269.548C259.096 261.121 262.537 251.388 265.475 240.337C265.475 240.337 267.199 231.523 265.524 228.586C265.264 228.129 264.92 227.812 264.473 227.696H264.477Z" fill="#7696EA"/>
<path d="M254.409 216.23C254.409 216.23 253.352 222.535 253.036 225.451C252.984 225.925 253.232 226.372 253.657 226.591C254.812 227.185 257.278 228.143 259.965 227.264C260.407 227.119 260.697 226.692 260.687 226.225L260.503 217.807L254.409 216.227V216.23Z" fill="#E495A1"/>
<path d="M261.304 209.244C261.304 209.244 263.343 213.928 263.48 216.387C263.618 218.846 264.146 220.442 261.304 220.936C258.462 221.432 256.067 220.015 254.767 217.566C254.767 217.566 252.734 213.793 253.19 212.245C253.647 210.7 261.304 209.241 261.304 209.241V209.244Z" fill="#F8A6B3"/>
<path d="M255.737 215.805H256.096C256.096 215.805 254.615 212.766 255.917 212.233C257.219 211.7 262.372 210.649 263.485 208.819C264.556 207.055 263.6 204.778 262.171 204.142C262.08 204.103 261.974 204.142 261.928 204.233L261.81 204.456C261.729 204.611 261.503 204.587 261.454 204.419C261.407 204.262 261.196 204.228 261.107 204.365C260.766 204.913 259.845 205.802 257.373 206.257C253.866 206.905 251.547 208.325 251.49 210.75C251.488 210.904 251.323 210.988 251.191 210.907C250.933 210.75 250.518 210.676 249.962 211.14C249 211.951 249.393 214.051 251.505 215.78C251.606 215.861 251.606 216.019 251.495 216.09C251.112 216.338 250.542 216.932 252.021 217.723C253.534 218.532 254.428 218.443 254.767 218.357C254.858 218.335 254.92 218.251 254.915 218.158L254.782 216.009C254.775 215.898 254.863 215.805 254.974 215.805H255.74H255.737Z" fill="#233862"/>
<path d="M255.826 216.254C255.826 216.254 255.047 213.262 253.706 214.1C252.365 214.94 254.401 217.453 255.482 217.566L255.826 216.254Z" fill="#F8A6B3"/>
<path d="M212.29 264.943L209.537 265.638C204.811 266.832 201.632 270.384 202.438 273.572L203.396 277.36C204.202 280.546 208.684 282.162 213.413 280.966L216.167 280.271C216.348 280.224 216.53 280.175 216.71 280.121L297.474 255.955L295.388 247.701L212.843 264.815C212.659 264.854 212.475 264.896 212.293 264.94L212.29 264.943ZM213.477 268.723C217.036 267.824 220.352 268.809 220.888 270.924C221.423 273.039 218.972 275.481 215.413 276.382C211.853 277.281 208.537 276.296 208.002 274.181C207.466 272.066 209.918 269.625 213.477 268.723Z" fill="#2A63C1"/>
<path d="M322.24 236.488L306.259 240.529C305.121 240.816 304.18 241.617 303.714 242.693L301.324 248.215C300.641 249.792 301.105 251.629 302.456 252.69L307.182 256.412C308.103 257.139 309.312 257.394 310.449 257.107L326.431 253.066C328.84 252.457 330.889 254.972 329.752 257.183C327.03 262.472 322.034 266.655 315.674 268.261C304.18 271.167 294.009 264.203 291.216 253.15C288.42 242.096 294.063 231.135 305.556 228.229C311.916 226.623 318.297 227.93 323.208 231.288C325.259 232.693 324.652 235.879 322.242 236.488H322.24Z" fill="#2A63C1"/>
<path d="M322.62 237.994L306.639 242.034C305.502 242.322 304.561 243.123 304.094 244.198L301.704 249.72C301.021 251.297 301.485 253.135 302.836 254.196L307.563 257.918C308.484 258.645 309.692 258.9 310.83 258.613L326.811 254.572C329.221 253.963 331.269 256.478 330.132 258.689C327.41 263.977 322.414 268.161 316.054 269.767C304.561 272.673 294.389 265.709 291.596 254.655C288.801 243.602 294.443 232.641 305.936 229.735C312.296 228.129 318.678 229.436 323.588 232.793C325.639 234.198 325.033 237.384 322.623 237.994H322.62Z" fill="#1A468F"/>
<path d="M212.595 266.144L209.842 266.839C205.115 268.033 201.937 271.585 202.743 274.773L203.701 278.561C204.506 281.747 208.989 283.363 213.718 282.167L216.471 281.472C216.653 281.425 216.835 281.376 217.014 281.322L297.778 257.156L295.693 248.902L213.148 266.016C212.964 266.055 212.779 266.097 212.598 266.141L212.595 266.144ZM213.782 269.924C217.341 269.025 220.657 270.01 221.193 272.125C221.728 274.24 219.277 276.682 215.717 277.583C212.158 278.482 208.842 277.497 208.306 275.382C207.771 273.267 210.222 270.826 213.782 269.924Z" fill="#1A468F"/>
<path d="M232.969 249.499C230.898 255.306 232.065 261.533 232.065 261.533L229.336 262.26C229.336 262.26 225.811 258.067 226.616 248.765C229.134 248.382 231.495 248.971 232.969 249.499Z" fill="#F8A6B3"/>
<path d="M226.619 248.765C226.71 247.718 226.852 246.611 227.063 245.434C228.908 235.174 242.062 227.281 245.157 225.552C245.445 225.392 245.796 225.608 245.786 225.937L245.346 239.885C238.021 240.87 234.553 245.061 232.971 249.497C231.497 248.969 229.139 248.379 226.619 248.762V248.765Z" fill="#7696EA"/>
<path d="M282.517 262.467C283.028 262.327 283.443 261.961 283.659 261.477C284.079 260.539 284.551 259.035 283.541 258.576C282.041 257.893 279.311 260.691 279.311 260.691L277.978 262.852L276.759 263.444C277.877 263.752 280.029 263.241 282.515 262.467H282.517Z" fill="#F8A6B3"/>
<path d="M231.883 260.17H235.256C235.256 260.17 232.52 261.811 232.429 263.538C232.338 265.264 233.514 268.839 234.065 269.811C234.666 270.875 226.425 268.227 229.336 260.17H231.883Z" fill="#F8A6B3"/>
<path d="M377.452 199.669C377.452 199.669 363.755 217.205 379.383 235.041L385.259 234.493C385.259 234.493 374.505 217.225 378.641 202.943C378.823 202.314 379.415 201.889 380.068 201.938L386.067 202.376C386.865 202.435 387.654 202.189 388.278 201.685L391.908 198.767L377.452 199.669Z" fill="url(#paint27_linear_89_13390)"/>
<path d="M384.954 285.522C384.954 285.522 396.052 309.708 401.873 319.725C401.873 319.725 403.03 326.028 401.873 328.011L400.888 328.448L405.487 328.31C405.487 328.31 405.894 319.831 405.575 319.359C405.256 318.885 404.617 318.917 404.617 318.917C404.617 318.917 402.645 303.292 396.933 299.959L391.399 280.895L384.954 285.522Z" fill="url(#paint28_linear_89_13390)"/>
<path d="M398.924 329.637C398.916 329.748 402.515 329.698 404.47 329.662C405.193 329.649 405.807 329.141 405.961 328.436L407.438 320.681C407.578 319.944 407.111 319.229 406.379 319.062L405.556 318.873C405.556 318.873 404.382 320.484 404.75 322.003C405.121 323.521 405.451 327.453 404.515 327.91C403.579 328.367 400.889 328.448 400.889 328.448C400.889 328.448 398.985 328.637 398.924 329.635V329.637Z" fill="url(#paint29_linear_89_13390)"/>
<path d="M374.436 329.777C374.072 329.983 374.222 330.541 374.64 330.536C377.911 330.504 385.239 330.401 385.892 330.128C386.732 329.78 385.585 326.758 384.379 325.734L377.713 327.91L374.436 329.777Z" fill="url(#paint30_linear_89_13390)"/>
<path d="M372.365 283.98C372.365 283.98 379.535 318.672 381.564 325.439L376.764 328.451C376.764 328.451 379.169 328.043 380.952 327.913C382.736 327.783 384.377 325.736 384.377 325.736L383.802 324.82C383.802 324.82 382.004 290.318 382.441 286.4L372.365 283.98Z" fill="url(#paint31_linear_89_13390)"/>
<path d="M354.566 203.063C354.566 203.063 353.577 221.108 370.007 230.332L366.053 239.354C366.053 239.354 351.177 230.357 351.727 205.82C351.742 205.115 351.489 204.432 351.029 203.899L347.868 200.231C346.664 198.834 346.212 196.937 346.662 195.149L347.077 193.486C347.217 192.928 347.851 192.661 348.347 192.95L348.678 193.142C349.73 193.754 350.565 194.68 351.061 195.79L352.648 198.296C353.228 199.593 353.363 200.135 354.778 200.013L357.408 200.042L354.566 203.068V203.063Z" fill="url(#paint32_linear_89_13390)"/>
<path d="M369.435 228.979C372.184 229.74 381.496 232.192 387.31 232.091L383.741 252.233L384.026 255.518L372.388 255.466C372.388 255.466 369.111 247.859 366.527 244.066C365.78 242.97 366.335 241.663 366.76 240.408L366.178 240.02C365.586 239.627 365.33 238.888 365.551 238.212L368.386 229.541C368.533 229.104 368.993 228.858 369.437 228.981L369.435 228.979Z" fill="url(#paint33_linear_89_13390)"/>
<path d="M371.454 253.747L371.682 255.736C371.682 255.736 368.393 265.586 373.325 288.588C373.325 288.588 384.008 291.615 392.79 284.373C392.79 284.373 390.314 262.661 389.636 261.649C386.266 256.611 384.021 255.515 384.021 255.515L383.92 253.341C383.92 253.341 374.529 255.039 371.451 253.744L371.454 253.747Z" fill="url(#paint34_linear_89_13390)"/>
<path d="M376.008 230.6C375.967 230.546 378.438 223.142 378.438 223.142L381.977 223.464L383.36 231.865C383.36 231.865 377.814 232.985 376.011 230.602L376.008 230.6Z" fill="url(#paint35_linear_89_13390)"/>
<path d="M381.13 211.464C380.894 211.612 373.569 214.638 375.141 222.243C375.234 222.693 375.534 223.073 375.954 223.26C377.03 223.739 379.344 224.56 382.112 224.279C385.949 223.889 388.464 217.193 388.356 215.245C388.248 213.297 383.468 210.008 381.13 211.464Z" fill="url(#paint36_linear_89_13390)"/>
<path d="M383.36 208.509C383.169 208.534 379.128 209.941 381.13 212.869C383.134 215.798 383.886 217.522 382.938 218.807C382.073 219.978 380.162 219.31 380.329 221.747C380.363 222.236 380.152 222.707 379.747 222.983C377.944 224.203 373.547 227.959 377.904 233.314C378.258 233.749 378.332 234.351 378.059 234.84C376.782 237.129 374.102 243.835 383.807 247.554C393.397 251.229 396.858 244.96 397.826 242.454C398.035 241.912 398.568 241.58 399.15 241.607C400.204 241.656 401.697 241.482 401.628 240.074C401.587 239.219 401.054 238.453 400.422 237.839C399.798 237.23 399.921 236.166 400.68 235.736C401.253 235.412 401.759 234.903 401.972 234.11C402.554 231.956 401.393 225.518 395.222 224.427C394.706 224.336 394.168 223.852 394.092 223.336C394.092 223.329 394.092 223.321 394.09 223.314C394.006 222.813 394.176 222.302 394.586 222.002C395.571 221.28 396.836 219.824 395.809 217.49C394.898 215.419 393.151 214.722 391.854 214.498C391.093 214.368 390.592 213.648 390.754 212.892C391.191 210.833 390.81 207.534 383.365 208.509H383.36Z" fill="#233862"/>
</g>
<defs>
<linearGradient id="paint0_linear_89_13390" x1="458.779" y1="213.209" x2="454.738" y2="213.209" gradientUnits="userSpaceOnUse">
<stop stop-color="#FF928E"/>
<stop offset="1" stop-color="#FEB3B1"/>
</linearGradient>
<linearGradient id="paint1_linear_89_13390" x1="438.353" y1="211.413" x2="434.332" y2="211.413" gradientUnits="userSpaceOnUse">
<stop stop-color="#FF928E"/>
<stop offset="1" stop-color="#FEB3B1"/>
</linearGradient>
<linearGradient id="paint2_linear_89_13390" x1="451.871" y1="156.321" x2="521.633" y2="104.736" gradientUnits="userSpaceOnUse">
<stop stop-color="#4042E2"/>
<stop offset="1" stop-color="#4F52FF"/>
</linearGradient>
<linearGradient id="paint3_linear_89_13390" x1="461.328" y1="73.245" x2="429.395" y2="84.2988" gradientUnits="userSpaceOnUse">
<stop stop-color="#FF928E"/>
<stop offset="1" stop-color="#FEB3B1"/>
</linearGradient>
<linearGradient id="paint4_linear_89_13390" x1="843.133" y1="369.863" x2="784.179" y2="337.193" gradientUnits="userSpaceOnUse">
<stop stop-color="#FF928E"/>
<stop offset="1" stop-color="#FEB3B1"/>
</linearGradient>
<linearGradient id="paint5_linear_89_13390" x1="842.756" y1="370.538" x2="783.805" y2="337.868" gradientUnits="userSpaceOnUse">
<stop stop-color="#FF928E"/>
<stop offset="1" stop-color="#FEB3B1"/>
</linearGradient>
<linearGradient id="paint6_linear_89_13390" x1="147.704" y1="329.627" x2="142.791" y2="234.813" gradientUnits="userSpaceOnUse">
<stop stop-color="#4042E2"/>
<stop offset="1" stop-color="#4F52FF"/>
</linearGradient>
<linearGradient id="paint7_linear_89_13390" x1="149.075" y1="283.747" x2="147.012" y2="328.534" gradientUnits="userSpaceOnUse">
<stop stop-color="#4042E2"/>
<stop offset="1" stop-color="#4F52FF"/>
</linearGradient>
<linearGradient id="paint8_linear_89_13390" x1="149.655" y1="245.473" x2="147.005" y2="281.666" gradientUnits="userSpaceOnUse">
<stop stop-color="#09005D"/>
<stop offset="1" stop-color="#1A0F91"/>
</linearGradient>
<linearGradient id="paint9_linear_89_13390" x1="90.5246" y1="214.976" x2="99.9571" y2="206.29" gradientUnits="userSpaceOnUse">
<stop stop-color="#09005D"/>
<stop offset="1" stop-color="#1A0F91"/>
</linearGradient>
<linearGradient id="paint10_linear_89_13390" x1="89.5472" y1="201.11" x2="112.426" y2="180.043" gradientUnits="userSpaceOnUse">
<stop stop-color="#09005D"/>
<stop offset="1" stop-color="#1A0F91"/>
</linearGradient>
<linearGradient id="paint11_linear_89_13390" x1="72.92" y1="127.474" x2="108.545" y2="208.516" gradientUnits="userSpaceOnUse">
<stop stop-color="#4042E2"/>
<stop offset="1" stop-color="#4F52FF"/>
</linearGradient>
<linearGradient id="paint12_linear_89_13390" x1="129.569" y1="265.634" x2="167.057" y2="231.114" gradientUnits="userSpaceOnUse">
<stop stop-color="#4042E2"/>
<stop offset="1" stop-color="#4F52FF"/>
</linearGradient>
<linearGradient id="paint13_linear_89_13390" x1="104.647" y1="123.747" x2="90.4847" y2="103.145" gradientUnits="userSpaceOnUse">
<stop stop-color="#09005D"/>
<stop offset="1" stop-color="#1A0F91"/>
</linearGradient>
<linearGradient id="paint14_linear_89_13390" x1="45.0919" y1="131.101" x2="134.699" y2="48.5874" gradientUnits="userSpaceOnUse">
<stop stop-color="#09005D"/>
<stop offset="1" stop-color="#1A0F91"/>
</linearGradient>
<linearGradient id="paint15_linear_89_13390" x1="75.0908" y1="69.6706" x2="98.7239" y2="106.131" gradientUnits="userSpaceOnUse">
<stop stop-color="#4042E2"/>
<stop offset="1" stop-color="#4F52FF"/>
</linearGradient>
<linearGradient id="paint16_linear_89_13390" x1="33.1442" y1="146.793" x2="63.2487" y2="119.072" gradientUnits="userSpaceOnUse">
<stop stop-color="#4042E2"/>
<stop offset="1" stop-color="#4F52FF"/>
</linearGradient>
<linearGradient id="paint17_linear_89_13390" x1="131.486" y1="45.087" x2="193.139" y2="82.5872" gradientUnits="userSpaceOnUse">
<stop stop-color="#09005D"/>
<stop offset="1" stop-color="#1A0F91"/>
</linearGradient>
<linearGradient id="paint18_linear_89_13390" x1="166.685" y1="39.9207" x2="95.9997" y2="55.208" gradientUnits="userSpaceOnUse">
<stop stop-color="#4042E2"/>
<stop offset="1" stop-color="#4F52FF"/>
</linearGradient>
<linearGradient id="paint19_linear_89_13390" x1="247.467" y1="344.921" x2="243.536" y2="360.804" gradientUnits="userSpaceOnUse">
<stop stop-color="#09005D"/>
<stop offset="0.92" stop-color="#190E8D"/>
<stop offset="1" stop-color="#1A0F91"/>
</linearGradient>
<linearGradient id="paint20_linear_89_13390" x1="251.92" y1="326.205" x2="253.23" y2="315.559" gradientUnits="userSpaceOnUse">
<stop stop-color="#09005D"/>
<stop offset="0.92" stop-color="#190E8D"/>
<stop offset="1" stop-color="#1A0F91"/>
</linearGradient>
<linearGradient id="paint21_linear_89_13390" x1="228.201" y1="307.443" x2="225.582" y2="317.269" gradientUnits="userSpaceOnUse">
<stop stop-color="#09005D"/>
<stop offset="0.92" stop-color="#190E8D"/>
<stop offset="1" stop-color="#1A0F91"/>
</linearGradient>
<linearGradient id="paint22_linear_89_13390" x1="222.92" y1="321.106" x2="225.867" y2="286.552" gradientUnits="userSpaceOnUse">
<stop stop-color="#09005D"/>
<stop offset="0.92" stop-color="#190E8D"/>
<stop offset="1" stop-color="#1A0F91"/>
</linearGradient>
<linearGradient id="paint23_linear_89_13390" x1="221.733" y1="322.644" x2="226.123" y2="322.644" gradientUnits="userSpaceOnUse">
<stop stop-color="#A22B25"/>
<stop offset="1" stop-color="#C0423C"/>
</linearGradient>
<linearGradient id="paint24_linear_89_13390" x1="244.988" y1="322.356" x2="248.646" y2="322.356" gradientUnits="userSpaceOnUse">
<stop stop-color="#A22B25"/>
<stop offset="1" stop-color="#C0423C"/>
</linearGradient>
<linearGradient id="paint25_linear_89_13390" x1="230.807" y1="298.642" x2="305.155" y2="274.569" gradientUnits="userSpaceOnUse">
<stop stop-color="#09005D"/>
<stop offset="0.92" stop-color="#190E8D"/>
<stop offset="1" stop-color="#1A0F91"/>
</linearGradient>
<linearGradient id="paint26_linear_89_13390" x1="243.792" y1="244.24" x2="244.774" y2="260.123" gradientUnits="userSpaceOnUse">
<stop stop-color="#09005D"/>
<stop offset="1" stop-color="#1A0F91"/>
</linearGradient>
<linearGradient id="paint27_linear_89_13390" x1="395.165" y1="251.818" x2="380.427" y2="204.901" gradientUnits="userSpaceOnUse">
<stop stop-color="#FF928E"/>
<stop offset="1" stop-color="#FEB3B1"/>
</linearGradient>
<linearGradient id="paint28_linear_89_13390" x1="384.954" y1="304.673" x2="405.698" y2="304.673" gradientUnits="userSpaceOnUse">
<stop stop-color="#FF928E"/>
<stop offset="1" stop-color="#FEB3B1"/>
</linearGradient>
<linearGradient id="paint29_linear_89_13390" x1="413.468" y1="258.281" x2="403.196" y2="325.056" gradientUnits="userSpaceOnUse">
<stop stop-color="#4042E2"/>
<stop offset="1" stop-color="#4F52FF"/>
</linearGradient>
<linearGradient id="paint30_linear_89_13390" x1="391.731" y1="254.938" x2="381.459" y2="321.713" gradientUnits="userSpaceOnUse">
<stop stop-color="#4042E2"/>
<stop offset="1" stop-color="#4F52FF"/>
</linearGradient>
<linearGradient id="paint31_linear_89_13390" x1="372.367" y1="306.215" x2="384.379" y2="306.215" gradientUnits="userSpaceOnUse">
<stop stop-color="#FF928E"/>
<stop offset="1" stop-color="#FEB3B1"/>
</linearGradient>
<linearGradient id="paint32_linear_89_13390" x1="420.13" y1="195.016" x2="388.443" y2="205.579" gradientUnits="userSpaceOnUse">
<stop stop-color="#FF928E"/>
<stop offset="1" stop-color="#FEB3B1"/>
</linearGradient>
<linearGradient id="paint33_linear_89_13390" x1="401.759" y1="281.462" x2="388.116" y2="257.999" gradientUnits="userSpaceOnUse">
<stop stop-color="#4042E2"/>
<stop offset="1" stop-color="#4F52FF"/>
</linearGradient>
<linearGradient id="paint34_linear_89_13390" x1="421.014" y1="206.345" x2="391.54" y2="253.874" gradientUnits="userSpaceOnUse">
<stop stop-color="#09005D"/>
<stop offset="1" stop-color="#1A0F91"/>
</linearGradient>
<linearGradient id="paint35_linear_89_13390" x1="376.008" y1="227.635" x2="383.36" y2="227.635" gradientUnits="userSpaceOnUse">
<stop stop-color="#FF928E"/>
<stop offset="1" stop-color="#FEB3B1"/>
</linearGradient>
<linearGradient id="paint36_linear_89_13390" x1="371.432" y1="224.483" x2="390.1" y2="212.693" gradientUnits="userSpaceOnUse">
<stop stop-color="#FF928E"/>
<stop offset="1" stop-color="#FEB3B1"/>
</linearGradient>
<clipPath id="clip0_89_13390">
<rect width="523.197" height="331.02" fill="white"/>
</clipPath>
</defs>
</svg>
