<svg width="72" height="72" viewBox="0 0 72 72" fill="none" xmlns="http://www.w3.org/2000/svg">
<path d="M63.7502 55.41L58.8002 56.5799C57.6902 56.8499 56.8202 57.69 56.5802 58.8L55.5302 63.21C54.9602 65.61 51.9002 66.33 50.3102 64.44L36.0002 48L21.6902 64.4699C20.1002 66.3599 17.0402 65.6399 16.4702 63.2399L15.4202 58.8299C15.1502 57.7199 14.2802 56.85 13.2002 56.61L8.25024 55.44C5.97024 54.9 5.16024 52.0499 6.81024 50.3999L18.5102 38.7C21.7502 43.5 26.8802 46.89 32.8502 47.76C33.8702 47.94 34.9202 48.03 36.0002 48.03C37.0802 48.03 38.1302 47.94 39.1502 47.76C45.1202 46.89 50.2502 43.5 53.4902 38.7L65.1902 50.3999C66.8402 52.0199 66.0302 54.87 63.7502 55.41Z" stroke="#1A468F" stroke-width="2" stroke-linecap="round" stroke-linejoin="round"/>
<path d="M37.7399 17.94L39.5099 21.48C39.7499 21.96 40.3799 22.44 40.9499 22.53L44.1599 23.07C46.1999 23.4 46.6799 24.9 45.2099 26.37L42.7199 28.86C42.2999 29.28 42.0599 30.09 42.2099 30.69L42.9299 33.78C43.4999 36.21 42.2099 37.1699 40.0499 35.8799L37.0499 34.11C36.5099 33.78 35.6099 33.78 35.0699 34.11L32.0699 35.8799C29.9099 37.1399 28.6199 36.21 29.1899 33.78L29.9099 30.69C30.0299 30.12 29.8199 29.28 29.3999 28.86L26.9099 26.37C25.4399 24.9 25.9199 23.43 27.9599 23.07L31.1699 22.53C31.7099 22.44 32.3399 21.96 32.5799 21.48L34.3499 17.94C35.2199 16.02 36.7799 16.02 37.7399 17.94Z" stroke="#A8C0FF" stroke-width="2" stroke-linecap="round" stroke-linejoin="round"/>
<path d="M57 27C57 31.35 55.71 35.34 53.49 38.67C50.25 43.47 45.12 46.86 39.15 47.73C38.13 47.91 37.08 48 36 48C34.92 48 33.87 47.91 32.85 47.73C26.88 46.86 21.75 43.47 18.51 38.67C16.29 35.34 15 31.35 15 27C15 15.39 24.39 6 36 6C47.61 6 57 15.39 57 27Z" stroke="#A8C0FF" stroke-width="2" stroke-linecap="round" stroke-linejoin="round"/>
</svg>
