<svg width="355" height="358" viewBox="0 0 355 358" fill="none" xmlns="http://www.w3.org/2000/svg">
<g clip-path="url(#clip0_64_7534)">
<path d="M295.669 33.7712C295.617 88.6364 295.198 277.883 291.913 344.878C291.565 351.976 286.57 357.568 280.492 357.665C250.431 358.15 140.258 358.627 91.1828 355.129C80.9612 354.401 73.0385 344.528 73.0911 332.55C73.3451 274.966 74.6779 113.017 81.6745 38.9697C82.5135 30.0973 88.6339 23.1536 96.2423 22.4329C129.037 19.3297 239.826 12.4244 282.199 16.5843C289.841 17.3344 295.676 24.7988 295.669 33.7712Z" fill="#7696EA"/>
<path d="M281.893 50.299C282.529 94.5992 284.368 241.967 281.543 296.383C281.13 304.338 275.624 310.654 268.815 310.969C240.781 312.265 145.187 314.374 104.214 309.622C96.8369 308.767 91.1898 301.646 90.9833 292.976C89.9031 247.772 86.9655 110.524 89.7094 56.717C90.1469 48.1331 95.9927 41.2445 103.329 40.638C133.682 38.1285 235.33 32.8094 270.169 35.8075C276.709 36.3704 281.783 42.6294 281.893 50.299Z" fill="white"/>
<g opacity="0.3">
<path d="M269.444 57.4478C270.007 96.6778 271.635 227.178 269.133 275.366C268.768 282.41 263.892 288.003 257.862 288.282C233.037 289.429 148.384 291.298 112.102 287.089C105.568 286.331 100.568 280.026 100.384 272.349C99.4275 232.319 96.8272 110.779 99.2569 63.1311C99.6443 55.5295 104.821 49.4295 111.318 48.8922C138.197 46.67 228.211 41.96 259.063 44.6144C264.855 45.1132 269.347 50.6567 269.445 57.4478H269.444Z" fill="#7696EA"/>
</g>
<path opacity="0.5" d="M221.6 24.8295C221.563 26.5119 220.411 27.875 218.972 27.9314C211.868 28.2084 191.857 28.9957 182.911 29.4035C181.148 29.4843 179.807 27.6031 180.185 25.5847L180.25 25.2398C180.509 23.8626 181.512 22.8444 182.713 22.7418C188.764 22.2289 207.021 20.8376 219.08 21.6083C220.528 21.7006 221.638 23.1317 221.6 24.8282V24.8295Z" fill="white"/>
<path d="M185.497 123.895L183.838 123.745C183.289 123.695 182.884 123.209 182.934 122.66C182.984 122.111 183.47 121.706 184.019 121.756L185.678 121.906C186.227 121.956 186.632 122.442 186.582 122.991C186.532 123.54 186.046 123.945 185.497 123.895ZM178.864 123.293L177.205 123.143C176.656 123.093 176.251 122.607 176.301 122.059C176.351 121.51 176.837 121.105 177.386 121.155L179.045 121.305C179.594 121.355 179.999 121.841 179.949 122.389C179.899 122.938 179.413 123.343 178.864 123.293ZM172.23 122.692L170.571 122.542C170.022 122.492 169.617 122.006 169.667 121.457C169.717 120.908 170.203 120.503 170.752 120.553L172.411 120.703C172.96 120.753 173.365 121.239 173.315 121.788C173.265 122.337 172.779 122.742 172.23 122.692ZM165.598 122.091L163.939 121.941C163.39 121.891 162.985 121.405 163.035 120.856C163.085 120.307 163.571 119.902 164.12 119.952L165.779 120.102C166.328 120.152 166.733 120.638 166.683 121.187C166.633 121.735 166.147 122.141 165.598 122.091ZM158.964 121.489L157.306 121.339C156.757 121.289 156.351 120.803 156.401 120.254C156.451 119.706 156.937 119.3 157.487 119.35L159.145 119.5C159.694 119.55 160.1 120.036 160.05 120.585C160 121.134 159.513 121.539 158.964 121.489ZM152.331 120.889L150.672 120.739C150.123 120.689 149.718 120.203 149.768 119.654C149.818 119.105 150.304 118.7 150.853 118.75L152.512 118.9C153.061 118.95 153.466 119.436 153.416 119.985C153.366 120.534 152.88 120.939 152.331 120.889ZM145.697 120.288L144.039 120.138C143.49 120.088 143.084 119.602 143.134 119.053C143.184 118.504 143.67 118.099 144.219 118.149L145.878 118.299C146.427 118.349 146.833 118.835 146.783 119.384C146.733 119.933 146.246 120.338 145.697 120.288ZM139.064 119.686L137.405 119.536C136.856 119.486 136.451 119 136.501 118.451C136.551 117.903 137.037 117.497 137.586 117.547L139.245 117.697C139.794 117.747 140.199 118.233 140.149 118.782C140.099 119.331 139.613 119.736 139.064 119.686ZM132.43 119.085L131.843 119.031C131.591 119.008 131.355 118.913 131.186 118.725L130.469 117.935C130.101 117.523 130.135 116.897 130.547 116.531C130.959 116.162 131.591 116.178 131.959 116.59L132.415 117.078L132.611 117.096C133.16 117.146 133.566 117.632 133.516 118.181C133.466 118.73 132.979 119.135 132.43 119.085ZM127.79 114.553C127.548 114.531 127.312 114.421 127.136 114.225L126.026 112.985C125.658 112.573 125.693 111.942 126.105 111.574C126.516 111.206 127.148 111.241 127.516 111.653L128.625 112.893C128.994 113.304 128.959 113.935 128.547 114.303C128.332 114.495 128.057 114.578 127.79 114.553ZM123.349 109.592C123.107 109.57 122.871 109.46 122.695 109.264L121.584 108.024C121.216 107.612 121.25 106.981 121.662 106.613C122.074 106.245 122.705 106.28 123.073 106.691L124.184 107.931C124.552 108.343 124.518 108.974 124.106 109.342C123.89 109.534 123.616 109.616 123.349 109.592ZM118.908 104.631C118.665 104.609 118.429 104.499 118.254 104.302L117.144 103.062C116.776 102.651 116.811 102.02 117.222 101.652C117.634 101.284 118.265 101.318 118.633 101.73L119.743 102.97C120.111 103.382 120.077 104.013 119.665 104.381C119.449 104.573 119.175 104.655 118.908 104.631ZM114.467 99.668C114.224 99.6462 113.988 99.536 113.813 99.3398L112.703 98.0998C112.335 97.6881 112.369 97.0572 112.781 96.6892C113.193 96.3212 113.824 96.3571 114.192 96.7674L115.302 98.0074C115.67 98.4191 115.635 99.05 115.224 99.418C115.008 99.6103 114.734 99.6924 114.467 99.668ZM110.026 94.7068C109.783 94.685 109.547 94.5747 109.371 94.3785L108.262 93.1385C107.894 92.7269 107.928 92.096 108.34 91.7279C108.752 91.3599 109.383 91.3945 109.751 91.8062L110.861 93.0462C111.229 93.4578 111.194 94.0887 110.782 94.4567C110.567 94.649 110.292 94.7311 110.026 94.7068Z" fill="#1F48DA"/>
<path d="M311.786 296.304H310.121C309.569 296.304 309.121 295.856 309.121 295.305C309.121 294.754 309.569 294.306 310.121 294.306H311.786C312.338 294.306 312.785 294.754 312.785 295.305C312.785 295.856 312.338 296.304 311.786 296.304ZM305.125 296.304H303.46C302.909 296.304 302.461 295.856 302.461 295.305C302.461 294.754 302.909 294.306 303.46 294.306H305.125C305.677 294.306 306.125 294.754 306.125 295.305C306.125 295.856 305.677 296.304 305.125 296.304ZM298.465 296.304H296.8C296.248 296.304 295.801 295.856 295.801 295.305C295.801 294.754 296.248 294.306 296.8 294.306H298.465C299.017 294.306 299.464 294.754 299.464 295.305C299.464 295.856 299.017 296.304 298.465 296.304ZM291.805 296.304H290.139C289.588 296.304 289.14 295.856 289.14 295.305C289.14 294.754 289.588 294.306 290.139 294.306H291.805C292.356 294.306 292.804 294.754 292.804 295.305C292.804 295.856 292.356 296.304 291.805 296.304ZM285.144 296.304H283.479C282.927 296.304 282.48 295.856 282.48 295.305C282.48 294.754 282.927 294.306 283.479 294.306H285.144C285.696 294.306 286.143 294.754 286.143 295.305C286.143 295.856 285.696 296.304 285.144 296.304ZM278.484 296.304H276.819C276.267 296.304 275.819 295.856 275.819 295.305C275.819 294.754 276.267 294.306 276.819 294.306H278.484C279.035 294.306 279.483 294.754 279.483 295.305C279.483 295.856 279.035 296.304 278.484 296.304ZM271.823 296.304H270.158C269.606 296.304 269.159 295.856 269.159 295.305C269.159 294.754 269.606 294.306 270.158 294.306H271.823C272.375 294.306 272.822 294.754 272.822 295.305C272.822 295.856 272.375 296.304 271.823 296.304ZM265.161 296.304H263.496C262.945 296.304 262.497 295.856 262.497 295.305C262.497 294.754 262.945 294.306 263.496 294.306H265.161C265.713 294.306 266.161 294.754 266.161 295.305C266.161 295.856 265.713 296.304 265.161 296.304ZM258.501 296.304H257.911C257.658 296.304 257.414 296.229 257.23 296.058L256.443 295.336C256.04 294.96 256.017 294.333 256.395 293.93C256.77 293.526 257.403 293.485 257.807 293.862L258.305 294.307H258.501C259.053 294.307 259.5 294.755 259.5 295.306C259.5 295.858 259.053 296.305 258.501 296.305V296.304ZM253.471 292.211C253.227 292.211 252.982 292.122 252.79 291.943L251.572 290.808C251.168 290.432 251.146 289.8 251.524 289.396C251.9 288.992 252.532 288.97 252.936 289.346L254.153 290.481C254.558 290.857 254.579 291.489 254.202 291.893C254.006 292.104 253.739 292.211 253.471 292.211ZM248.6 287.67C248.356 287.67 248.111 287.582 247.919 287.402L246.701 286.267C246.297 285.891 246.276 285.259 246.653 284.855C247.029 284.451 247.661 284.43 248.065 284.805L249.283 285.94C249.687 286.316 249.708 286.948 249.331 287.352C249.135 287.564 248.868 287.67 248.6 287.67ZM243.729 283.129C243.485 283.129 243.24 283.041 243.048 282.861L241.831 281.726C241.426 281.351 241.405 280.719 241.781 280.315C242.156 279.911 242.789 279.889 243.193 280.265L244.41 281.399C244.814 281.775 244.836 282.407 244.46 282.811C244.264 283.023 243.997 283.129 243.729 283.129ZM238.857 278.589C238.613 278.589 238.368 278.5 238.176 278.321L236.958 277.186C236.554 276.81 236.532 276.178 236.91 275.774C237.285 275.37 237.918 275.348 238.322 275.724L239.539 276.859C239.944 277.235 239.965 277.867 239.588 278.271C239.392 278.482 239.125 278.589 238.857 278.589ZM233.986 274.048C233.742 274.048 233.497 273.959 233.305 273.78L232.087 272.645C231.683 272.269 231.662 271.637 232.039 271.233C232.415 270.829 233.047 270.808 233.451 271.183L234.669 272.318C235.073 272.694 235.094 273.326 234.717 273.73C234.521 273.942 234.254 274.048 233.986 274.048Z" fill="#1F48DA"/>
<path d="M325.193 218.045C325.178 218.045 325.164 218.045 325.15 218.045L323.486 217.976C322.935 217.953 322.508 217.487 322.529 216.936C322.552 216.385 323.008 215.951 323.57 215.979L325.234 216.049C325.785 216.072 326.212 216.537 326.191 217.089C326.167 217.626 325.725 218.045 325.193 218.045ZM318.539 217.768C318.524 217.768 318.51 217.768 318.496 217.768L316.832 217.699C316.281 217.676 315.854 217.211 315.875 216.659C315.898 216.108 316.363 215.678 316.916 215.703L318.58 215.772C319.131 215.795 319.558 216.26 319.537 216.812C319.513 217.349 319.071 217.768 318.539 217.768ZM311.883 217.49C311.869 217.49 311.855 217.49 311.841 217.49L310.177 217.421C309.625 217.398 309.198 216.932 309.22 216.381C309.243 215.829 309.709 215.401 310.26 215.424L311.924 215.493C312.476 215.517 312.903 215.982 312.881 216.533C312.858 217.071 312.416 217.49 311.883 217.49ZM305.228 217.212C305.214 217.212 305.2 217.212 305.186 217.212L303.522 217.143C302.97 217.119 302.543 216.654 302.565 216.103C302.588 215.551 303.046 215.125 303.605 215.146L305.269 215.215C305.82 215.238 306.248 215.704 306.226 216.255C306.203 216.792 305.76 217.212 305.228 217.212ZM298.574 216.934C298.56 216.934 298.546 216.934 298.531 216.934L296.868 216.864C296.316 216.841 295.889 216.376 295.911 215.824C295.934 215.273 296.398 214.848 296.951 214.868L298.615 214.937C299.166 214.96 299.594 215.426 299.572 215.977C299.55 216.514 299.106 216.934 298.574 216.934ZM291.918 216.655C291.904 216.655 291.89 216.655 291.876 216.655L290.212 216.586C289.661 216.563 289.232 216.097 289.255 215.546C289.278 214.995 289.744 214.572 290.296 214.589L291.959 214.659C292.511 214.682 292.938 215.147 292.917 215.699C292.893 216.236 292.451 216.655 291.918 216.655ZM285.264 216.378C285.25 216.378 285.236 216.378 285.222 216.378L283.558 216.309C283.007 216.286 282.579 215.82 282.601 215.269C282.624 214.718 283.078 214.295 283.642 214.312L285.305 214.382C285.857 214.405 286.284 214.87 286.262 215.422C286.241 215.959 285.797 216.378 285.264 216.378ZM278.609 216.1C278.595 216.1 278.581 216.1 278.567 216.1L276.903 216.031C276.351 216.008 275.923 215.542 275.946 214.991C275.969 214.439 276.424 214.015 276.986 214.034L278.65 214.103C279.202 214.127 279.629 214.592 279.607 215.143C279.584 215.681 279.141 216.1 278.609 216.1ZM271.955 215.822C271.941 215.822 271.927 215.822 271.913 215.822L270.249 215.753C269.697 215.729 269.27 215.264 269.292 214.713C269.315 214.161 269.781 213.737 270.332 213.756L271.996 213.825C272.548 213.848 272.975 214.314 272.953 214.865C272.93 215.402 272.487 215.822 271.955 215.822ZM265.3 215.544C265.286 215.544 265.271 215.544 265.257 215.544L263.594 215.474C263.042 215.451 262.615 214.986 262.637 214.434C262.66 213.883 263.128 213.46 263.677 213.478L265.341 213.547C265.892 213.57 266.32 214.036 266.298 214.587C266.275 215.124 265.832 215.544 265.3 215.544ZM258.698 215.1C258.503 215.1 258.307 215.043 258.135 214.925L256.761 213.984C256.306 213.673 256.19 213.051 256.502 212.595C256.814 212.14 257.436 212.024 257.891 212.336L259.265 213.278C259.721 213.589 259.836 214.211 259.524 214.666C259.331 214.949 259.018 215.101 258.7 215.101L258.698 215.1ZM253.204 211.338C253.009 211.338 252.813 211.281 252.641 211.163L251.267 210.222C250.811 209.91 250.696 209.288 251.008 208.833C251.319 208.378 251.942 208.263 252.397 208.574L253.771 209.515C254.226 209.827 254.342 210.449 254.03 210.904C253.836 211.186 253.523 211.339 253.205 211.339L253.204 211.338ZM247.708 207.574C247.513 207.574 247.317 207.517 247.145 207.4L245.771 206.458C245.316 206.147 245.2 205.525 245.512 205.07C245.824 204.614 246.446 204.499 246.901 204.811L248.275 205.752C248.731 206.063 248.846 206.685 248.534 207.14C248.341 207.423 248.028 207.575 247.71 207.575L247.708 207.574ZM242.214 203.812C242.019 203.812 241.823 203.755 241.651 203.637L240.277 202.696C239.821 202.384 239.706 201.762 240.018 201.307C240.329 200.852 240.952 200.735 241.407 201.048L242.781 201.989C243.236 202.301 243.352 202.923 243.04 203.378C242.846 203.66 242.533 203.813 242.215 203.813L242.214 203.812ZM236.72 200.049C236.525 200.049 236.328 199.993 236.156 199.875L234.782 198.934C234.327 198.622 234.212 198 234.523 197.545C234.835 197.09 235.457 196.974 235.913 197.286L237.287 198.227C237.742 198.539 237.857 199.161 237.546 199.616C237.352 199.898 237.039 200.051 236.721 200.051L236.72 200.049ZM231.224 196.286C231.029 196.286 230.833 196.229 230.661 196.111L229.287 195.17C228.831 194.858 228.716 194.237 229.028 193.781C229.339 193.326 229.962 193.211 230.417 193.522L231.791 194.463C232.246 194.775 232.362 195.397 232.05 195.852C231.856 196.134 231.543 196.287 231.225 196.287L231.224 196.286ZM225.729 192.523C225.535 192.523 225.338 192.467 225.165 192.348L223.791 191.406C223.336 191.095 223.22 190.473 223.532 190.018C223.844 189.562 224.466 189.447 224.921 189.759L226.295 190.7C226.751 191.011 226.866 191.633 226.554 192.089C226.361 192.371 226.048 192.523 225.729 192.523ZM220.234 188.76C220.039 188.76 219.843 188.703 219.671 188.585L218.297 187.644C217.841 187.333 217.726 186.711 218.038 186.255C218.349 185.801 218.972 185.685 219.427 185.996L220.801 186.938C221.256 187.249 221.372 187.871 221.06 188.326C220.866 188.608 220.553 188.761 220.235 188.761L220.234 188.76ZM214.739 184.997C214.544 184.997 214.348 184.941 214.176 184.823L212.802 183.882C212.347 183.57 212.232 182.948 212.543 182.493C212.855 182.038 213.477 181.921 213.933 182.234L215.306 183.175C215.762 183.487 215.877 184.109 215.566 184.564C215.372 184.846 215.059 184.999 214.741 184.999L214.739 184.997ZM209.245 181.235C209.05 181.235 208.854 181.179 208.682 181.061L207.308 180.119C206.853 179.808 206.737 179.186 207.049 178.731C207.361 178.276 207.983 178.16 208.438 178.472L209.812 179.413C210.268 179.725 210.383 180.346 210.071 180.802C209.878 181.084 209.565 181.236 209.246 181.236L209.245 181.235ZM203.749 177.471C203.554 177.471 203.358 177.415 203.186 177.297L201.812 176.356C201.357 176.044 201.242 175.422 201.553 174.967C201.865 174.512 202.487 174.396 202.943 174.708L204.316 175.649C204.772 175.961 204.887 176.583 204.576 177.038C204.382 177.32 204.069 177.473 203.751 177.473L203.749 177.471ZM198.255 173.709C198.06 173.709 197.864 173.653 197.692 173.535L196.318 172.594C195.863 172.282 195.747 171.66 196.059 171.205C196.371 170.75 196.993 170.634 197.448 170.946L198.822 171.887C199.278 172.199 199.393 172.821 199.081 173.276C198.888 173.558 198.575 173.71 198.256 173.71L198.255 173.709Z" fill="#1F48DA"/>
<path d="M225.521 116.797C225.223 116.797 224.928 116.665 224.731 116.411C224.392 115.975 224.471 115.348 224.906 115.01L226.221 113.989C226.657 113.651 227.285 113.73 227.623 114.165C227.962 114.601 227.883 115.228 227.448 115.566L226.133 116.587C225.951 116.728 225.735 116.797 225.521 116.797ZM230.78 112.713C230.483 112.713 230.188 112.581 229.99 112.327C229.652 111.891 229.731 111.264 230.166 110.926L231.481 109.905C231.916 109.566 232.544 109.646 232.883 110.081C233.222 110.517 233.142 111.144 232.707 111.482L231.392 112.503C231.21 112.644 230.995 112.713 230.78 112.713ZM236.04 108.628C235.742 108.628 235.447 108.496 235.25 108.242C234.911 107.806 234.991 107.179 235.426 106.84L236.74 105.819C237.175 105.481 237.804 105.56 238.143 105.995C238.481 106.431 238.402 107.058 237.967 107.397L236.652 108.417C236.47 108.558 236.254 108.628 236.04 108.628ZM241.301 104.544C241.003 104.544 240.708 104.411 240.511 104.158C240.172 103.722 240.252 103.095 240.686 102.756L242.001 101.735C242.436 101.397 243.065 101.476 243.403 101.911C243.742 102.347 243.663 102.974 243.228 103.313L241.913 104.333C241.731 104.474 241.515 104.544 241.301 104.544ZM246.561 100.458C246.263 100.458 245.968 100.326 245.77 100.072C245.432 99.6361 245.511 99.0091 245.946 98.6705L247.261 97.6498C247.696 97.3113 248.324 97.3908 248.663 97.8255C249.002 98.2615 248.922 98.8885 248.487 99.2271L247.172 100.248C246.99 100.389 246.775 100.458 246.561 100.458ZM251.82 96.3739C251.523 96.3739 251.227 96.2418 251.03 95.9879C250.691 95.5519 250.771 94.9249 251.206 94.5864L252.521 93.5656C252.955 93.2271 253.584 93.3066 253.923 93.7413C254.261 94.1773 254.182 94.8044 253.747 95.1429L252.432 96.1636C252.25 96.3047 252.034 96.3739 251.82 96.3739ZM339.512 94.6954H337.847C337.295 94.6954 336.847 94.2478 336.847 93.6964C336.847 93.145 337.295 92.6975 337.847 92.6975H339.512C340.064 92.6975 340.511 93.145 340.511 93.6964C340.511 94.2478 340.064 94.6954 339.512 94.6954ZM332.851 94.6954H331.186C330.635 94.6954 330.187 94.2478 330.187 93.6964C330.187 93.145 330.635 92.6975 331.186 92.6975H332.851C333.403 92.6975 333.851 93.145 333.851 93.6964C333.851 94.2478 333.403 94.6954 332.851 94.6954ZM326.191 94.6954H324.526C323.974 94.6954 323.527 94.2478 323.527 93.6964C323.527 93.145 323.974 92.6975 324.526 92.6975H326.191C326.743 92.6975 327.19 93.145 327.19 93.6964C327.19 94.2478 326.743 94.6954 326.191 94.6954ZM319.529 94.6954H317.864C317.313 94.6954 316.865 94.2478 316.865 93.6964C316.865 93.145 317.313 92.6975 317.864 92.6975H319.529C320.081 92.6975 320.529 93.145 320.529 93.6964C320.529 94.2478 320.081 94.6954 319.529 94.6954ZM312.869 94.6954H311.204C310.652 94.6954 310.204 94.2478 310.204 93.6964C310.204 93.145 310.652 92.6975 311.204 92.6975H312.869C313.42 92.6975 313.868 93.145 313.868 93.6964C313.868 94.2478 313.42 94.6954 312.869 94.6954ZM306.208 94.6954H304.543C303.992 94.6954 303.544 94.2478 303.544 93.6964C303.544 93.145 303.992 92.6975 304.543 92.6975H306.208C306.76 92.6975 307.208 93.145 307.208 93.6964C307.208 94.2478 306.76 94.6954 306.208 94.6954ZM299.548 94.6954H297.883C297.331 94.6954 296.883 94.2478 296.883 93.6964C296.883 93.145 297.331 92.6975 297.883 92.6975H299.548C300.099 92.6975 300.547 93.145 300.547 93.6964C300.547 94.2478 300.099 94.6954 299.548 94.6954ZM292.887 94.6954H291.222C290.671 94.6954 290.223 94.2478 290.223 93.6964C290.223 93.145 290.671 92.6975 291.222 92.6975H292.887C293.439 92.6975 293.887 93.145 293.887 93.6964C293.887 94.2478 293.439 94.6954 292.887 94.6954ZM286.227 94.6954H284.562C284.01 94.6954 283.562 94.2478 283.562 93.6964C283.562 93.145 284.01 92.6975 284.562 92.6975H286.227C286.779 92.6975 287.226 93.145 287.226 93.6964C287.226 94.2478 286.779 94.6954 286.227 94.6954ZM279.566 94.6954H277.901C277.35 94.6954 276.902 94.2478 276.902 93.6964C276.902 93.145 277.35 92.6975 277.901 92.6975H279.566C280.118 92.6975 280.566 93.145 280.566 93.6964C280.566 94.2478 280.118 94.6954 279.566 94.6954ZM272.906 94.6954H271.241C270.689 94.6954 270.242 94.2478 270.242 93.6964C270.242 93.145 270.689 92.6975 271.241 92.6975H272.906C273.458 92.6975 273.905 93.145 273.905 93.6964C273.905 94.2478 273.458 94.6954 272.906 94.6954ZM266.246 94.6954H264.58C264.029 94.6954 263.581 94.2478 263.581 93.6964C263.581 93.145 264.029 92.6975 264.58 92.6975H266.246C266.797 92.6975 267.245 93.145 267.245 93.6964C267.245 94.2478 266.797 94.6954 266.246 94.6954ZM259.584 94.6954H257.919C257.367 94.6954 256.919 94.2478 256.919 93.6964C256.919 93.145 257.367 92.6975 257.919 92.6975H259.584C260.135 92.6975 260.583 93.145 260.583 93.6964C260.583 94.2478 260.135 94.6954 259.584 94.6954Z" fill="#1F48DA"/>
<path d="M161.736 270.552L160.165 271.101C159.644 271.283 159.074 271.009 158.892 270.488C158.71 269.968 158.984 269.398 159.505 269.216L161.077 268.667C161.597 268.485 162.167 268.76 162.349 269.28C162.531 269.801 162.257 270.37 161.736 270.552ZM155.449 272.749L153.877 273.298C153.357 273.48 152.787 273.205 152.605 272.685C152.423 272.164 152.697 271.595 153.218 271.413L154.789 270.864C155.31 270.682 155.88 270.956 156.062 271.477C156.244 271.998 155.97 272.567 155.449 272.749ZM149.16 274.944L147.589 275.493C147.068 275.675 146.499 275.401 146.316 274.88C146.134 274.36 146.409 273.79 146.93 273.608L148.501 273.059C149.022 272.877 149.591 273.152 149.774 273.672C149.956 274.193 149.681 274.762 149.16 274.944ZM142.873 277.141L141.302 277.69C140.781 277.872 140.211 277.597 140.029 277.077C139.847 276.556 140.122 275.987 140.642 275.805L142.214 275.256C142.735 275.074 143.304 275.348 143.486 275.869C143.669 276.389 143.394 276.959 142.873 277.141ZM136.585 279.336L135.013 279.885C134.493 280.067 133.923 279.793 133.741 279.272C133.559 278.752 133.833 278.182 134.354 278L135.925 277.451C136.446 277.269 137.016 277.544 137.198 278.064C137.38 278.585 137.106 279.154 136.585 279.336ZM130.298 281.533L128.726 282.082C128.205 282.264 127.636 281.989 127.454 281.469C127.271 280.948 127.546 280.379 128.067 280.197L129.638 279.648C130.159 279.466 130.729 279.74 130.911 280.261C131.093 280.781 130.818 281.351 130.298 281.533ZM124.009 283.728L122.438 284.277C121.917 284.459 121.347 284.185 121.165 283.664C120.983 283.143 121.258 282.574 121.778 282.392L123.35 281.843C123.871 281.661 124.44 281.935 124.622 282.456C124.805 282.977 124.53 283.546 124.009 283.728ZM117.721 285.925L116.149 286.474C115.628 286.656 115.059 286.381 114.877 285.861C114.695 285.34 114.969 284.771 115.49 284.589L117.061 284.04C117.582 283.858 118.152 284.132 118.334 284.653C118.516 285.173 118.242 285.743 117.721 285.925ZM111.434 288.121L109.862 288.67C109.341 288.852 108.772 288.578 108.59 288.057C108.407 287.537 108.682 286.967 109.203 286.785L110.774 286.236C111.295 286.054 111.865 286.329 112.047 286.849C112.229 287.37 111.954 287.939 111.434 288.121ZM105.145 290.317L103.574 290.866C103.053 291.048 102.483 290.773 102.301 290.253C102.119 289.732 102.393 289.163 102.914 288.981L104.486 288.432C105.007 288.25 105.576 288.524 105.758 289.045C105.941 289.565 105.666 290.135 105.145 290.317ZM98.858 292.513L97.2865 293.062C96.7657 293.244 96.1961 292.97 96.014 292.449C95.8318 291.929 96.1063 291.359 96.6272 291.177L98.1986 290.628C98.7195 290.446 99.2891 290.721 99.4712 291.241C99.6534 291.762 99.3788 292.331 98.858 292.513ZM92.5696 294.709L90.9981 295.258C90.4773 295.44 89.9077 295.165 89.7255 294.645C89.5434 294.124 89.8179 293.555 90.3387 293.373L91.9102 292.824C92.431 292.642 93.0006 292.916 93.1828 293.437C93.3649 293.957 93.0904 294.527 92.5696 294.709ZM86.2824 296.905L84.711 297.454C84.1901 297.636 83.6205 297.362 83.4384 296.841C83.2562 296.321 83.5307 295.751 84.0516 295.569L85.623 295.02C86.1439 294.838 86.7135 295.113 86.8956 295.633C87.0778 296.154 86.8033 296.723 86.2824 296.905ZM80.0042 298.495C79.8016 298.566 79.5758 298.572 79.3564 298.499L77.7785 297.968C77.2551 297.793 76.9742 297.226 77.1499 296.704C77.3257 296.181 77.8927 295.9 78.4148 296.076L79.9927 296.607C80.5161 296.782 80.797 297.349 80.6213 297.871C80.5187 298.175 80.2839 298.398 80.003 298.495H80.0042ZM73.6914 296.373C73.4887 296.444 73.263 296.45 73.0436 296.377L71.4657 295.846C70.9423 295.67 70.6614 295.104 70.8371 294.582C71.0129 294.059 71.5799 293.778 72.102 293.953L73.6799 294.484C74.2033 294.66 74.4842 295.227 74.3085 295.749C74.2058 296.053 73.9711 296.276 73.6901 296.373H73.6914ZM67.3773 294.251C67.1746 294.321 66.9489 294.328 66.7295 294.255L65.1516 293.724C64.6282 293.548 64.3473 292.981 64.523 292.459C64.6988 291.936 65.2658 291.655 65.7879 291.831L67.3658 292.362C67.8892 292.538 68.1701 293.104 67.9944 293.626C67.8918 293.93 67.657 294.153 67.3761 294.251H67.3773ZM61.0645 292.129C60.8618 292.199 60.6361 292.206 60.4167 292.132L58.8388 291.602C58.3154 291.426 58.0345 290.859 58.2102 290.337C58.386 289.814 58.953 289.533 59.4751 289.709L61.053 290.24C61.5764 290.415 61.8573 290.982 61.6816 291.504C61.5789 291.808 61.3442 292.031 61.0632 292.129H61.0645ZM54.7517 290.006C54.549 290.077 54.3232 290.083 54.1039 290.01L52.526 289.479C52.0026 289.304 51.7217 288.737 51.8974 288.215C52.0732 287.692 52.6402 287.411 53.1623 287.587L54.7402 288.118C55.2636 288.293 55.5445 288.86 55.3687 289.382C55.2661 289.686 55.0314 289.909 54.7504 290.006H54.7517ZM48.4389 287.884C48.2362 287.955 48.0104 287.961 47.7911 287.888L46.2132 287.357C45.6898 287.181 45.4088 286.615 45.5846 286.091C45.7603 285.568 46.3274 285.287 46.8507 285.463L48.4286 285.994C48.952 286.17 49.233 286.736 49.0572 287.26C48.9546 287.564 48.7198 287.787 48.4389 287.884Z" fill="#1F48DA"/>
<path d="M156.829 189.333C156.661 189.333 156.491 189.28 156.341 189.17L155.098 188.258C154.686 187.956 154.571 187.336 154.842 186.876C155.111 186.414 155.664 186.286 156.076 186.587L157.319 187.499C157.731 187.802 157.846 188.421 157.575 188.882C157.405 189.174 157.12 189.333 156.829 189.333ZM151.859 185.685C151.691 185.685 151.522 185.632 151.372 185.522L150.128 184.61C149.717 184.308 149.601 183.688 149.872 183.228C150.141 182.766 150.694 182.638 151.106 182.939L152.349 183.851C152.761 184.154 152.876 184.772 152.606 185.233C152.435 185.526 152.15 185.685 151.859 185.685ZM146.888 182.035C146.72 182.035 146.551 181.983 146.401 181.872L145.158 180.961C144.746 180.658 144.63 180.039 144.901 179.578C145.17 179.117 145.723 178.988 146.135 179.29L147.378 180.202C147.79 180.504 147.905 181.122 147.635 181.584C147.464 181.876 147.179 182.035 146.888 182.035ZM141.918 178.386C141.75 178.386 141.581 178.333 141.431 178.223L140.188 177.311C139.776 177.009 139.661 176.39 139.931 175.929C140.201 175.467 140.754 175.338 141.165 175.64L142.408 176.552C142.82 176.855 142.936 177.473 142.665 177.934C142.494 178.227 142.21 178.386 141.918 178.386ZM136.947 174.738C136.779 174.738 136.61 174.685 136.46 174.575L135.217 173.663C134.805 173.36 134.69 172.742 134.96 172.281C135.23 171.819 135.783 171.691 136.194 171.992L137.437 172.904C137.849 173.206 137.965 173.825 137.694 174.286C137.523 174.579 137.239 174.738 136.947 174.738ZM131.976 171.088C131.808 171.088 131.639 171.036 131.489 170.925L130.246 170.014C129.834 169.711 129.719 169.092 129.989 168.631C130.259 168.171 130.812 168.041 131.223 168.343L132.466 169.254C132.878 169.557 132.994 170.176 132.723 170.637C132.552 170.929 132.268 171.088 131.976 171.088ZM126.522 169.22H125.036C124.544 169.22 124.145 168.772 124.145 168.221C124.145 167.669 124.544 167.222 125.036 167.222H126.522C127.014 167.222 127.413 167.669 127.413 168.221C127.413 168.772 127.014 169.22 126.522 169.22ZM120.578 169.22H119.093C118.6 169.22 118.201 168.772 118.201 168.221C118.201 167.669 118.6 167.222 119.093 167.222H120.578C121.071 167.222 121.47 167.669 121.47 168.221C121.47 168.772 121.071 169.22 120.578 169.22ZM114.636 169.22H113.151C112.658 169.22 112.259 168.772 112.259 168.221C112.259 167.669 112.658 167.222 113.151 167.222H114.636C115.129 167.222 115.528 167.669 115.528 168.221C115.528 168.772 115.129 169.22 114.636 169.22ZM108.694 169.22H107.209C106.716 169.22 106.317 168.772 106.317 168.221C106.317 167.669 106.716 167.222 107.209 167.222H108.694C109.187 167.222 109.586 167.669 109.586 168.221C109.586 168.772 109.187 169.22 108.694 169.22ZM102.752 169.22H101.267C100.774 169.22 100.375 168.772 100.375 168.221C100.375 167.669 100.774 167.222 101.267 167.222H102.752C103.245 167.222 103.644 167.669 103.644 168.221C103.644 168.772 103.245 169.22 102.752 169.22ZM96.8089 169.22H95.3234C94.8307 169.22 94.4318 168.772 94.4318 168.221C94.4318 167.669 94.8307 167.222 95.3234 167.222H96.8089C97.3015 167.222 97.7004 167.669 97.7004 168.221C97.7004 168.772 97.3015 169.22 96.8089 169.22ZM90.8668 169.22H89.3813C88.8887 169.22 88.4897 168.772 88.4897 168.221C88.4897 167.669 88.8887 167.222 89.3813 167.222H90.8668C91.3594 167.222 91.7584 167.669 91.7584 168.221C91.7584 168.772 91.3594 169.22 90.8668 169.22ZM84.9247 169.22H83.4392C82.9466 169.22 82.5476 168.772 82.5476 168.221C82.5476 167.669 82.9466 167.222 83.4392 167.222H84.9247C85.4173 167.222 85.8163 167.669 85.8163 168.221C85.8163 168.772 85.4173 169.22 84.9247 169.22ZM78.9814 169.22H77.4958C77.0032 169.22 76.6043 168.772 76.6043 168.221C76.6043 167.669 77.0032 167.222 77.4958 167.222H78.9814C79.474 167.222 79.8729 167.669 79.8729 168.221C79.8729 168.772 79.474 169.22 78.9814 169.22ZM73.0393 169.22H71.5538C71.0612 169.22 70.6622 168.772 70.6622 168.221C70.6622 167.669 71.0612 167.222 71.5538 167.222H73.0393C73.5319 167.222 73.9309 167.669 73.9309 168.221C73.9309 168.772 73.5319 169.22 73.0393 169.22ZM67.0972 169.22H65.6117C65.1191 169.22 64.7201 168.772 64.7201 168.221C64.7201 167.669 65.1191 167.222 65.6117 167.222H67.0972C67.5898 167.222 67.9888 167.669 67.9888 168.221C67.9888 168.772 67.5898 169.22 67.0972 169.22ZM61.1539 169.22H59.6683C59.1757 169.22 58.7768 168.772 58.7768 168.221C58.7768 167.669 59.1757 167.222 59.6683 167.222H61.1539C61.6465 167.222 62.0454 167.669 62.0454 168.221C62.0454 168.772 61.6465 169.22 61.1539 169.22ZM55.2118 169.22H53.7263C53.2337 169.22 52.8347 168.772 52.8347 168.221C52.8347 167.669 53.2337 167.222 53.7263 167.222H55.2118C55.7044 167.222 56.1034 167.669 56.1034 168.221C56.1034 168.772 55.7044 169.22 55.2118 169.22ZM49.2697 169.22H47.7842C47.2916 169.22 46.8926 168.772 46.8926 168.221C46.8926 167.669 47.2916 167.222 47.7842 167.222H49.2697C49.7623 167.222 50.1613 167.669 50.1613 168.221C50.1613 168.772 49.7623 169.22 49.2697 169.22ZM43.3276 169.22H41.8421C41.3495 169.22 40.9506 168.772 40.9506 168.221C40.9506 167.669 41.3495 167.222 41.8421 167.222H43.3276C43.8202 167.222 44.2192 167.669 44.2192 168.221C44.2192 168.772 43.8202 169.22 43.3276 169.22ZM37.3843 169.22H35.8988C35.4062 169.22 35.0072 168.772 35.0072 168.221C35.0072 167.669 35.4062 167.222 35.8988 167.222H37.3843C37.8769 167.222 38.2758 167.669 38.2758 168.221C38.2758 168.772 37.8769 169.22 37.3843 169.22ZM31.4422 169.22H29.9567C29.4641 169.22 29.0651 168.772 29.0651 168.221C29.0651 167.669 29.4641 167.222 29.9567 167.222H31.4422C31.9348 167.222 32.3338 167.669 32.3338 168.221C32.3338 168.772 31.9348 169.22 31.4422 169.22ZM25.5001 169.22H24.0146C23.522 169.22 23.123 168.772 23.123 168.221C23.123 167.669 23.522 167.222 24.0146 167.222H25.5001C25.9927 167.222 26.3917 167.669 26.3917 168.221C26.3917 168.772 25.9927 169.22 25.5001 169.22ZM19.5568 169.22H18.0713C17.5786 169.22 17.1797 168.772 17.1797 168.221C17.1797 167.669 17.5786 167.222 18.0713 167.222H19.5568C20.0494 167.222 20.4483 167.669 20.4483 168.221C20.4483 168.772 20.0494 169.22 19.5568 169.22Z" fill="#1F48DA"/>
<path d="M114.916 91.3402C128.608 77.654 128.608 55.4642 114.916 41.778C101.224 28.0918 79.0257 28.0918 65.334 41.778C51.6423 55.4642 51.6423 77.6539 65.334 91.3402C79.0257 105.026 101.224 105.026 114.916 91.3402Z" fill="url(#paint0_linear_64_7534)"/>
<path d="M114.091 90.5159C127.327 77.2849 127.327 55.8332 114.091 42.6022C100.854 29.3712 79.3942 29.3712 66.1579 42.6022C52.9216 55.8332 52.9216 77.2849 66.1579 90.5159C79.3942 103.747 100.854 103.747 114.091 90.5159Z" fill="#7696EA"/>
<path d="M62.1747 52.8045C62.1259 52.8045 62.0772 52.793 62.031 52.7699C61.8732 52.6904 61.8104 52.498 61.8899 52.3403C67.3022 41.6214 78.1203 34.9636 90.1237 34.9636C92.039 34.9636 93.9568 35.1367 95.8259 35.4766C95.9991 35.5086 96.1146 35.674 96.0838 35.8484C96.0517 36.0215 95.8849 36.1382 95.7117 36.1049C93.8811 35.7715 92.0018 35.6022 90.125 35.6022C78.3653 35.6022 67.7653 42.1266 62.462 52.6275C62.4056 52.7391 62.2927 52.8032 62.176 52.8032L62.1747 52.8045Z" fill="#BDD0FB"/>
<path d="M90.8634 95.9724C106.707 95.9724 119.55 83.1341 119.55 67.2973C119.55 51.4604 106.707 38.6221 90.8634 38.6221C75.0202 38.6221 62.1768 51.4604 62.1768 67.2973C62.1768 83.1341 75.0202 95.9724 90.8634 95.9724Z" fill="url(#paint1_linear_64_7534)"/>
<path d="M103.333 75.6266L101.133 76.1466C100.64 76.2666 100.253 76.64 100.147 77.1333L99.6799 79.0933C99.4266 80.16 98.0666 80.48 97.3599 79.64L90.9999 72.3333L84.6399 79.6533C83.9333 80.4933 82.5733 80.1733 82.3199 79.1066L81.8533 77.1466C81.7333 76.6533 81.3466 76.2666 80.8666 76.16L78.6666 75.64C77.6533 75.4 77.2933 74.1333 78.0266 73.3999L83.2266 68.2C84.6666 70.3333 86.9466 71.84 89.5999 72.2266C90.0533 72.3066 90.5199 72.3466 90.9999 72.3466C91.4799 72.3466 91.9466 72.3066 92.3999 72.2266C95.0533 71.84 97.3333 70.3333 98.7733 68.2L103.973 73.3999C104.707 74.1199 104.347 75.3866 103.333 75.6266Z" stroke="white" stroke-width="1.5" stroke-linecap="round" stroke-linejoin="round"/>
<path d="M91.7731 58.9733L92.5598 60.5466C92.6665 60.7599 92.9465 60.9732 93.1998 61.0132L94.6265 61.2532C95.5331 61.3999 95.7465 62.0666 95.0931 62.7199L93.9865 63.8266C93.7998 64.0132 93.6931 64.3733 93.7598 64.6399L94.0798 66.0132C94.3331 67.0932 93.7598 67.5199 92.7998 66.9466L91.4665 66.1599C91.2265 66.0132 90.8265 66.0132 90.5865 66.1599L89.2531 66.9466C88.2931 67.5066 87.7198 67.0932 87.9731 66.0132L88.2931 64.6399C88.3465 64.3866 88.2531 64.0132 88.0665 63.8266L86.9598 62.7199C86.3065 62.0666 86.5198 61.4132 87.4265 61.2532L88.8531 61.0132C89.0931 60.9732 89.3731 60.7599 89.4798 60.5466L90.2665 58.9733C90.6531 58.1199 91.3465 58.1199 91.7731 58.9733Z" stroke="#A8C0FF" stroke-width="1.5" stroke-linecap="round" stroke-linejoin="round"/>
<path d="M100.333 63.0001C100.333 64.9334 99.7598 66.7068 98.7732 68.1868C97.3332 70.3201 95.0532 71.8268 92.3998 72.2134C91.9465 72.2934 91.4798 72.3334 90.9998 72.3334C90.5198 72.3334 90.0532 72.2934 89.5998 72.2134C86.9465 71.8268 84.6665 70.3201 83.2265 68.1868C82.2398 66.7068 81.6665 64.9334 81.6665 63.0001C81.6665 57.8401 85.8398 53.6667 90.9998 53.6667C96.1598 53.6667 100.333 57.8401 100.333 63.0001Z" stroke="white" stroke-width="1.5" stroke-linecap="round" stroke-linejoin="round"/>
<path d="M72.4868 184.747C85.7196 171.519 85.7196 150.073 72.4868 136.846C59.254 123.618 37.7994 123.618 24.5666 136.846C11.3338 150.073 11.3337 171.519 24.5665 184.747C37.7993 197.974 59.254 197.974 72.4868 184.747Z" fill="url(#paint2_linear_64_7534)"/>
<path d="M71.6895 183.95C84.4819 171.163 84.4819 150.43 71.6895 137.643C58.897 124.856 38.1564 124.856 25.3639 137.643C12.5715 150.43 12.5715 171.163 25.3639 183.95C38.1564 196.737 58.897 196.737 71.6895 183.95Z" fill="#7696EA"/>
<path d="M21.516 147.504C21.4698 147.504 21.421 147.494 21.3774 147.47C21.2248 147.394 21.1645 147.208 21.2414 147.055C26.4728 136.695 36.9279 130.26 48.5286 130.26C50.3797 130.26 52.2334 130.427 54.0396 130.757C54.2076 130.788 54.3193 130.948 54.2885 131.116C54.2577 131.284 54.0973 131.397 53.9293 131.365C52.1602 131.043 50.3438 130.879 48.5298 130.879C37.1639 130.879 26.9193 137.184 21.7943 147.333C21.7405 147.441 21.6314 147.503 21.5185 147.503L21.516 147.504Z" fill="#BDD0FB"/>
<path d="M68.8449 181.107C79.672 170.284 79.672 152.737 68.8449 141.914C58.0178 131.091 40.4636 131.091 29.6364 141.914C18.8093 152.737 18.8093 170.284 29.6364 181.107C40.4636 191.929 58.0178 191.929 68.8449 181.107Z" fill="#1F48DA"/>
<g clip-path="url(#clip1_64_7534)">
<path d="M42.4294 169.086L42.5123 169.003C43.2765 168.237 43.2765 166.997 42.5123 166.231L42.1823 165.901C41.4166 165.137 40.1765 165.137 39.4108 165.901L38.9371 166.375C38.9111 166.401 38.8882 166.429 38.8677 166.46C38.8542 166.481 38.8424 166.504 38.8321 166.526C38.8274 166.536 38.8211 166.545 38.8171 166.556C38.8077 166.58 38.7998 166.606 38.7935 166.632C38.7911 166.641 38.7871 166.65 38.7856 166.659C38.7714 166.73 38.7714 166.803 38.7856 166.874C38.7871 166.883 38.7919 166.893 38.7942 166.903C38.7998 166.928 38.8077 166.953 38.8163 166.977C38.8211 166.988 38.8282 166.998 38.8337 167.009C38.844 167.031 38.855 167.051 38.8677 167.072C38.8882 167.103 38.9111 167.131 38.9371 167.156L42.982 171.202C43.1975 171.417 43.548 171.417 43.7635 171.202C43.979 170.986 43.979 170.636 43.7635 170.42L42.4294 169.086V169.086ZM41.7316 168.221L41.6479 168.304L40.1094 166.766L40.1923 166.683C40.5262 166.35 41.0669 166.35 41.4008 166.683L41.7308 167.013C42.0639 167.347 42.0639 167.887 41.7308 168.221H41.7316Z" fill="#A8C0FF"/>
<path d="M53.679 156.74C53.679 156.74 53.679 156.74 53.679 156.74L53.679 156.74ZM53.4005 156.46L53.4004 156.46C53.4004 156.46 53.4005 156.46 53.4005 156.46Z" fill="white" stroke="#A8C0FF" stroke-width="1.5"/>
<path d="M49.8009 161.994C49.3541 161.546 48.6823 161.41 48.0958 161.646L47.0159 162.081C46.8406 162.152 46.6393 162.111 46.5059 161.977L45.981 161.452C45.827 161.298 45.827 161.049 45.981 160.895L46.2462 160.63C46.4183 160.457 46.6985 160.456 46.8714 160.628C46.8714 160.628 46.8722 160.629 46.873 160.63C47.0924 160.842 47.4421 160.836 47.6545 160.616C47.8613 160.402 47.8613 160.063 47.6545 159.848C47.0506 159.244 46.0709 159.243 45.4663 159.847C45.4663 159.847 45.4655 159.847 45.4647 159.848L45.1995 160.114C44.6145 160.699 44.6145 161.648 45.1995 162.233L45.7244 162.758C46.1712 163.206 46.843 163.343 47.4295 163.105L48.5094 162.67C48.6847 162.599 48.886 162.64 49.0194 162.775L49.5096 163.265C49.6825 163.438 49.6825 163.719 49.5096 163.891L49.2783 164.122C49.103 164.289 48.8275 164.289 48.6515 164.122C48.436 163.906 48.0863 163.906 47.87 164.122C47.6545 164.337 47.6545 164.687 47.87 164.903C48.4739 165.508 49.4535 165.508 50.0582 164.904C50.0582 164.904 50.0582 164.904 50.059 164.903L50.2895 164.673C50.8934 164.068 50.8934 163.089 50.2895 162.483L49.7993 161.993L49.8009 161.994Z" fill="#A8C0FF"/>
<path d="M52.6525 159.143C52.2057 158.695 51.5339 158.558 50.9474 158.795L49.8675 159.23C49.6915 159.301 49.491 159.26 49.3568 159.126L48.8326 158.6C48.6795 158.446 48.6795 158.197 48.8326 158.043L49.0986 157.778C49.2707 157.605 49.551 157.604 49.7238 157.776C49.7238 157.776 49.7246 157.777 49.7254 157.778C49.9378 157.997 50.2875 158.003 50.5069 157.791C50.7264 157.579 50.7327 157.229 50.5203 157.01C50.5156 157.005 50.5117 157 50.5069 156.996C49.903 156.392 48.9234 156.391 48.3187 156.995C48.3187 156.995 48.3179 156.995 48.3171 156.996L48.0519 157.261C47.4677 157.847 47.4677 158.795 48.0519 159.382L48.5768 159.907C49.0236 160.354 49.6954 160.492 50.2819 160.254L51.3618 159.819C51.5371 159.748 51.7384 159.789 51.8718 159.923L52.362 160.413C52.5349 160.586 52.5349 160.867 52.362 161.04L52.1315 161.271C51.9586 161.444 51.6776 161.444 51.5047 161.271C51.2892 161.055 50.9395 161.055 50.7232 161.271C50.5069 161.486 50.5077 161.836 50.7232 162.052C51.3279 162.656 52.3075 162.656 52.9122 162.052L53.1427 161.822C53.7466 161.217 53.7466 160.237 53.1427 159.632L52.6517 159.143H52.6525Z" fill="#A8C0FF"/>
<path d="M48.0384 165.947L42.9381 162.958C42.6752 162.802 42.3366 162.89 42.1818 163.152C42.0792 163.325 42.0792 163.542 42.1826 163.715L45.1713 168.816C45.3316 169.075 45.6718 169.156 45.9315 168.996C46.1833 168.841 46.2678 168.515 46.1241 168.257L45.656 167.458L46.6806 166.433L47.4795 166.901C47.7432 167.056 48.081 166.968 48.2358 166.704C48.3905 166.44 48.3021 166.103 48.0384 165.948V165.947ZM45.0789 166.472L44.2059 164.982L45.6955 165.855L45.0789 166.472Z" fill="#A8C0FF"/>
<path d="M56.1448 151.925C55.3838 151.164 54.1492 151.164 53.3882 151.925L52.8159 152.498C52.6004 152.713 52.6004 153.063 52.8159 153.279L56.8608 157.324C57.0763 157.539 57.426 157.54 57.6415 157.324L58.2138 156.751C58.9748 155.991 58.9748 154.756 58.2138 153.995L56.1448 151.926V151.925ZM57.4316 155.969L57.25 156.151L53.9898 152.888L54.1713 152.707C54.5013 152.378 55.0349 152.378 55.3649 152.707L57.4316 154.776C57.7607 155.106 57.7607 155.639 57.4316 155.969Z" fill="#A8C0FF"/>
<path d="M56.0102 146.495C55.7947 146.28 55.445 146.279 55.2295 146.495L53.7723 147.952C53.4644 147.646 53.0863 147.421 52.6703 147.296C51.8785 147.086 51.0686 147.376 50.3542 147.633C49.9255 147.819 49.4693 147.935 49.0043 147.976H49.0011C48.5346 147.935 48.0783 147.819 47.6489 147.633C46.899 147.364 46.1238 147.086 45.3296 147.297C44.5529 147.508 44.0216 148.131 43.5085 148.733C43.2227 149.114 42.8778 149.447 42.4878 149.721C42.0734 149.912 41.6313 150.036 41.1774 150.088C40.4219 150.224 39.567 150.377 38.9718 150.973C38.3766 151.568 38.2243 152.423 38.0877 153.178C38.0364 153.632 37.9117 154.074 37.7198 154.488C37.4467 154.879 37.1128 155.223 36.7315 155.51C36.13 156.023 35.5063 156.553 35.2956 157.333C35.0848 158.124 35.3627 158.899 35.6319 159.649C35.8182 160.078 35.9342 160.534 35.976 161C35.9579 161.334 35.8868 161.663 35.7661 161.974C35.7242 162.096 35.68 162.22 35.6358 162.344C35.3777 163.063 35.0848 163.877 35.2972 164.671C35.4227 165.086 35.6469 165.463 35.9524 165.771L34.4951 167.227C34.2796 167.444 34.2796 167.793 34.4951 168.009L41.9905 175.505C42.206 175.72 42.5557 175.721 42.7712 175.505L44.2292 174.048C44.5379 174.352 44.9152 174.577 45.3296 174.704C45.5175 174.753 45.7101 174.778 45.9043 174.777C46.5043 174.74 47.0932 174.601 47.6457 174.367C48.0752 174.181 48.5315 174.065 48.9972 174.024H49.0035C49.4685 174.066 49.924 174.181 50.3526 174.367C51.0678 174.623 51.8777 174.915 52.6711 174.703C53.4478 174.492 53.9791 173.869 54.4922 173.267C54.778 172.886 55.1222 172.553 55.5121 172.28C55.9266 172.089 56.3686 171.966 56.8209 171.914C57.5772 171.778 58.4345 171.623 59.0289 171.03C59.6233 170.436 59.7773 169.577 59.913 168.822C59.9651 168.37 60.0891 167.928 60.2793 167.514C60.5524 167.123 60.8864 166.779 61.2676 166.493C61.8692 165.979 62.492 165.449 62.7036 164.67C62.9143 163.878 62.623 163.068 62.3665 162.354C62.1802 161.924 62.0649 161.467 62.0239 160.999C62.0649 160.533 62.1802 160.076 62.3665 159.647C62.6238 158.933 62.9143 158.123 62.7036 157.331C62.5788 156.916 62.3539 156.538 62.0484 156.231L63.5056 154.774C63.7211 154.559 63.7219 154.209 63.5056 153.993L56.0102 146.495ZM36.3636 157.618C36.4852 157.171 36.9533 156.771 37.4491 156.349C37.929 155.985 38.3442 155.543 38.6766 155.041C38.9379 154.518 39.1068 153.952 39.1763 153.371C39.2931 152.718 39.4036 152.101 39.7525 151.752C40.1014 151.404 40.7188 151.293 41.3724 151.176C41.9534 151.107 42.5178 150.938 43.042 150.677C43.544 150.344 43.9861 149.929 44.3492 149.45C44.7723 148.954 45.1702 148.485 45.6162 148.364C45.7125 148.34 45.812 148.327 45.9122 148.328C46.3819 148.37 46.8413 148.486 47.2747 148.673C47.8226 148.907 48.4067 149.045 49.0011 149.081H49.0059C49.5995 149.045 50.1821 148.907 50.7284 148.674C51.3457 148.453 51.9282 148.242 52.3845 148.364C52.6127 148.439 52.8203 148.565 52.9908 148.734L50.6739 151.051C45.1457 150.16 39.942 153.919 39.0508 159.447C38.8787 160.516 38.8787 161.605 39.0508 162.674L36.7331 164.992C36.5649 164.821 36.4386 164.615 36.3636 164.387C36.2413 163.929 36.452 163.341 36.6747 162.72C36.7212 162.591 36.7678 162.461 36.8104 162.335C36.9738 161.909 37.0646 161.459 37.0804 161.003C37.0441 160.409 36.906 159.825 36.6723 159.277C36.4505 158.658 36.2429 158.075 36.3628 157.619L36.3636 157.618ZM49.6785 152.045L40.0446 161.678C39.7075 156.695 43.4738 152.382 48.4573 152.045C48.6609 152.031 48.8654 152.024 49.0698 152.024C49.2727 152.024 49.4748 152.031 49.6785 152.045ZM61.6371 164.383C61.5155 164.829 61.0474 165.229 60.5517 165.651C60.0709 166.015 59.6557 166.458 59.3234 166.961C59.0636 167.483 58.8955 168.047 58.826 168.626C58.7084 169.281 58.5971 169.899 58.2482 170.248C57.8993 170.598 57.2804 170.709 56.626 170.827C56.0458 170.897 55.4821 171.066 54.9588 171.326C54.4567 171.658 54.0146 172.073 53.6515 172.553C53.2284 173.048 52.8305 173.517 52.3845 173.638C51.9267 173.76 51.3425 173.551 50.7268 173.329C50.1805 173.096 49.5987 172.958 49.0059 172.921H48.9996C48.4036 172.95 47.8178 173.088 47.2716 173.329C46.6543 173.55 46.0717 173.76 45.6186 173.639C45.3904 173.563 45.182 173.436 45.0099 173.268L47.2313 171.046C47.8431 171.16 48.4636 171.219 49.0848 171.22C54.6864 171.213 59.2215 166.667 59.2144 161.066C59.2144 160.451 59.1568 159.836 59.0447 159.232L61.2661 157.01C61.4342 157.181 61.5613 157.389 61.6355 157.617C61.7571 158.075 61.5479 158.656 61.3261 159.273C61.0924 159.821 60.9543 160.404 60.9187 160.998C60.9543 161.594 61.0924 162.179 61.3261 162.726C61.5479 163.344 61.7571 163.926 61.6355 164.382L61.6371 164.383ZM48.2054 170.072L58.0721 160.205C58.5505 165.176 54.909 169.593 49.9382 170.072C49.3619 170.127 48.7817 170.127 48.2054 170.072ZM42.382 174.333L35.6674 167.618L55.6187 147.667L62.3333 154.382L42.382 174.333Z" fill="white"/>
</g>
<path d="M71.0409 301.397C85.5662 286.877 85.5662 263.337 71.0409 248.817C56.5156 234.298 32.9654 234.298 18.4401 248.817C3.91475 263.337 3.91474 286.877 18.4401 301.397C32.9654 315.916 56.5156 315.916 71.0409 301.397Z" fill="url(#paint3_linear_64_7534)"/>
<path d="M70.1656 300.523C84.208 286.486 84.208 263.728 70.1656 249.691C56.1232 235.654 33.3561 235.654 19.3137 249.691C5.27129 263.728 5.27129 286.486 19.3137 300.523C33.356 314.559 56.1232 314.559 70.1656 300.523Z" fill="#7696EA"/>
<path d="M15.0902 260.516C15.0389 260.516 14.9863 260.504 14.9375 260.48C14.7708 260.395 14.7028 260.191 14.7874 260.025C20.5294 248.653 32.0069 241.589 44.7403 241.589C46.7723 241.589 48.8068 241.772 50.7888 242.132C50.9735 242.166 51.0954 242.343 51.0621 242.527C51.0287 242.712 50.8517 242.835 50.667 242.8C48.7247 242.446 46.7299 242.267 44.739 242.267C32.2635 242.267 21.0182 249.188 15.3917 260.33C15.3326 260.448 15.2121 260.516 15.0889 260.516H15.0902Z" fill="#BDD0FB"/>
<path d="M67.0444 297.402C78.9296 285.522 78.9296 266.26 67.0444 254.379C55.1592 242.499 35.8896 242.499 24.0044 254.379C12.1192 266.26 12.1192 285.522 24.0044 297.402C35.8896 309.282 55.1592 309.282 67.0444 297.402Z" fill="#1F48DA"/>
<path opacity="0.4" d="M46 267.587V272.027" stroke="white" stroke-width="1.5" stroke-miterlimit="10" stroke-linecap="round"/>
<path d="M50.4401 284.333C50.4401 286.773 48.4401 288.773 46.0001 288.773C44.7867 288.773 43.6667 288.267 42.8667 287.467C42.0667 286.667 41.5601 285.547 41.5601 284.333" stroke="#A8C0FF" stroke-width="1.5" stroke-miterlimit="10"/>
<path d="M46.0265 261.667C41.1199 261.667 37.1465 265.64 37.1465 270.547V273.347C37.1465 274.253 36.7732 275.613 36.3065 276.387L34.6132 279.213C33.5732 280.96 34.2932 282.907 36.2132 283.547C42.5865 285.667 49.4799 285.667 55.8532 283.547C57.6532 282.947 58.4265 280.84 57.4532 279.213L55.7599 276.387C55.2932 275.613 54.9199 274.24 54.9199 273.347V270.547C54.9065 265.667 50.9065 261.667 46.0265 261.667Z" stroke="white" stroke-width="1.5" stroke-miterlimit="10" stroke-linecap="round"/>
<path d="M338.082 107.487C351.455 94.1194 351.455 72.446 338.082 59.0783C324.709 45.7106 303.027 45.7106 289.654 59.0783C276.28 72.446 276.28 94.1194 289.654 107.487C303.027 120.855 324.709 120.855 338.082 107.487Z" fill="url(#paint4_linear_64_7534)"/>
<path d="M337.277 106.682C350.205 93.7589 350.205 72.8065 337.277 59.8835C324.348 46.9605 303.388 46.9605 290.459 59.8835C277.531 72.8065 277.531 93.7589 290.459 106.682C303.388 119.605 324.348 119.605 337.277 106.682Z" fill="#7696EA"/>
<path d="M286.569 69.8492C286.522 69.8492 286.474 69.839 286.43 69.8159C286.276 69.7377 286.214 69.5505 286.291 69.3966C291.577 58.9277 302.144 52.4238 313.868 52.4238C315.738 52.4238 317.613 52.5918 319.437 52.9252C319.606 52.956 319.719 53.1188 319.688 53.2881C319.657 53.4574 319.494 53.5715 319.325 53.5394C317.537 53.2137 315.701 53.0483 313.868 53.0483C302.381 53.0483 292.029 59.4202 286.849 69.6774C286.794 69.7864 286.683 69.8492 286.569 69.8492Z" fill="#BDD0FB"/>
<path d="M334.401 103.808C345.344 92.8704 345.344 75.1364 334.401 64.1985C323.459 53.2605 305.718 53.2605 294.776 64.1985C283.833 75.1364 283.833 92.8704 294.776 103.808C305.718 114.746 323.459 114.746 334.401 103.808Z" fill="#1F48DA"/>
<path d="M338.321 321.501C349.558 310.268 349.558 292.056 338.321 280.823C327.083 269.59 308.864 269.59 297.626 280.823C286.389 292.056 286.389 310.268 297.626 321.501C308.864 332.734 327.083 332.734 338.321 321.501Z" fill="url(#paint5_linear_64_7534)"/>
<path d="M337.644 320.825C348.508 309.966 348.508 292.359 337.644 281.5C326.78 270.64 309.167 270.64 298.303 281.5C287.44 292.359 287.44 309.966 298.303 320.825C309.167 331.684 326.78 331.684 337.644 320.825Z" fill="#7696EA"/>
<path d="M295.034 289.874C294.995 289.874 294.955 289.865 294.916 289.846C294.787 289.781 294.735 289.623 294.801 289.493C299.243 280.695 308.123 275.231 317.974 275.231C319.545 275.231 321.121 275.374 322.654 275.652C322.796 275.678 322.891 275.815 322.865 275.957C322.84 276.1 322.702 276.196 322.56 276.168C321.058 275.894 319.515 275.755 317.974 275.755C308.322 275.755 299.622 281.11 295.269 289.728C295.223 289.819 295.131 289.872 295.034 289.872V289.874Z" fill="#BDD0FB"/>
<path d="M318.579 325.305C331.583 325.305 342.124 314.767 342.124 301.769C342.124 288.771 331.583 278.233 318.579 278.233C305.576 278.233 295.034 288.771 295.034 301.769C295.034 314.767 305.576 325.305 318.579 325.305Z" fill="#1F48DA"/>
<path d="M325 290H321.666L321 289.333H314.333" stroke="white" stroke-width="1.5" stroke-miterlimit="10"/>
<path d="M311 308.667L307 316.667" stroke="white" stroke-width="1.5" stroke-linejoin="round"/>
<path d="M321.053 311.153L317.667 316.667" stroke="white" stroke-width="1.5" stroke-linejoin="round"/>
<path d="M317.186 313.931C320.094 313.459 322.068 310.719 321.596 307.812C321.124 304.904 318.385 302.93 315.477 303.402C312.57 303.874 310.595 306.614 311.067 309.521C311.539 312.428 314.279 314.403 317.186 313.931Z" stroke="white" stroke-width="1.5" stroke-linejoin="round"/>
<path d="M314.333 308.667C314.333 309.773 315.226 310.667 316.333 310.667C317.44 310.667 318.333 309.773 318.333 308.667C318.333 307.56 317.44 306.667 316.333 306.667C315.226 306.667 314.333 307.56 314.333 308.667Z" stroke="white" stroke-width="1.5" stroke-linejoin="round"/>
<path d="M325 293.333H321.667L321 294H315" stroke="white" stroke-width="1.5" stroke-miterlimit="10"/>
<path d="M327.666 295.333C329.507 295.333 331 293.841 331 292C331 290.159 329.507 288.667 327.666 288.667C325.825 288.667 324.333 290.159 324.333 292C324.333 293.841 325.825 295.333 327.666 295.333Z" stroke="#A8C0FF" stroke-width="1.5" stroke-miterlimit="10"/>
<path d="M305.667 292C305.667 294.58 307.753 296.667 310.333 296.667C312.913 296.667 315 294.58 315 292C315 289.42 312.913 287.333 310.333 287.333C307.753 287.333 305.667 289.42 305.667 292Z" stroke="white" stroke-width="1.5" stroke-linejoin="round"/>
<path d="M305.993 293.72L311.206 307.193" stroke="white" stroke-width="1.5" stroke-linejoin="round"/>
<path d="M314.333 294.667L320.76 305.693" stroke="white" stroke-width="1.5" stroke-linejoin="round"/>
<path d="M325.667 294.667V296.667L325 297.333V301.333L325.667 302V303.333L327 304.667H328.333L329.667 303.333V302L330.333 301.333V297.333L329.667 296.667V294.667" stroke="#A8C0FF" stroke-width="1.5" stroke-miterlimit="10"/>
<path d="M327.667 304.667V309.333" stroke="#A8C0FF" stroke-width="1.5" stroke-linejoin="round"/>
<path d="M337.719 229.362C349.76 217.326 349.76 197.811 337.719 185.775C325.678 173.739 306.156 173.739 294.115 185.775C282.074 197.811 282.074 217.326 294.115 229.362C306.156 241.398 325.678 241.398 337.719 229.362Z" fill="url(#paint6_linear_64_7534)"/>
<path d="M336.994 228.637C348.634 217.001 348.634 198.135 336.994 186.499C325.353 174.863 306.48 174.863 294.839 186.499C283.198 198.136 283.198 217.001 294.839 228.637C306.48 240.273 325.353 240.273 336.994 228.637Z" fill="#7696EA"/>
<path d="M291.337 195.473C291.295 195.473 291.251 195.464 291.21 195.442C291.071 195.371 291.016 195.203 291.086 195.065C295.846 185.639 305.36 179.782 315.916 179.782C317.6 179.782 319.287 179.934 320.931 180.234C321.083 180.262 321.185 180.408 321.156 180.561C321.128 180.713 320.982 180.816 320.829 180.786C319.219 180.493 317.566 180.345 315.916 180.345C305.574 180.345 296.251 186.082 291.588 195.319C291.538 195.416 291.44 195.474 291.337 195.474V195.473Z" fill="#BDD0FB"/>
<path d="M334.405 226.051C344.257 216.203 344.257 200.236 334.405 190.388C324.553 180.539 308.579 180.539 298.727 190.388C288.874 200.236 288.874 216.203 298.727 226.051C308.579 235.9 324.552 235.9 334.405 226.051Z" fill="#1F48DA"/>
<path d="M323.997 201.547C323.917 201.533 323.824 201.533 323.744 201.547C321.904 201.48 320.437 199.973 320.437 198.107C320.437 196.2 321.97 194.667 323.877 194.667C325.784 194.667 327.317 196.213 327.317 198.107C327.304 199.973 325.837 201.48 323.997 201.547Z" stroke="white" stroke-width="1.5" stroke-linecap="round" stroke-linejoin="round"/>
<path d="M322.623 211.253C324.45 211.56 326.464 211.24 327.877 210.293C329.757 209.04 329.757 206.987 327.877 205.733C326.45 204.787 324.41 204.467 322.583 204.787" stroke="white" stroke-width="1.5" stroke-linecap="round" stroke-linejoin="round"/>
<path d="M307.957 201.547C308.037 201.533 308.13 201.533 308.21 201.547C310.05 201.48 311.517 199.973 311.517 198.107C311.517 196.2 309.983 194.667 308.077 194.667C306.17 194.667 304.637 196.213 304.637 198.107C304.65 199.973 306.117 201.48 307.957 201.547Z" stroke="white" stroke-width="1.5" stroke-linecap="round" stroke-linejoin="round"/>
<path d="M309.33 211.253C307.503 211.56 305.49 211.24 304.077 210.293C302.197 209.04 302.197 206.987 304.077 205.733C305.503 204.787 307.543 204.467 309.37 204.787" stroke="white" stroke-width="1.5" stroke-linecap="round" stroke-linejoin="round"/>
<path d="M316 211.507C315.92 211.493 315.827 211.493 315.747 211.507C313.907 211.44 312.44 209.933 312.44 208.067C312.44 206.16 313.973 204.627 315.88 204.627C317.787 204.627 319.32 206.173 319.32 208.067C319.307 209.933 317.84 211.453 316 211.507Z" stroke="#A8C0FF" stroke-width="1.5" stroke-linecap="round" stroke-linejoin="round"/>
<path d="M312.12 215.707C310.24 216.96 310.24 219.013 312.12 220.267C314.253 221.693 317.747 221.693 319.88 220.267C321.76 219.013 321.76 216.96 319.88 215.707C317.76 214.293 314.253 214.293 312.12 215.707Z" stroke="#A8C0FF" stroke-width="1.5" stroke-linecap="round" stroke-linejoin="round"/>
<path d="M253.563 111.232C253.055 111.514 252.404 111.408 252.015 110.949C250.97 109.71 249.869 108.499 248.744 107.348C248.265 106.858 248.274 106.073 248.763 105.595C249.254 105.117 250.037 105.124 250.517 105.614C251.685 106.809 252.827 108.066 253.911 109.35C254.352 109.874 254.287 110.654 253.764 111.096C253.701 111.149 253.634 111.195 253.565 111.232H253.563Z" fill="white"/>
<path d="M241.357 209.769C240.814 210.071 240.119 209.924 239.748 209.408C239.349 208.851 239.476 208.078 240.033 207.679C242.85 205.658 245.525 203.399 247.986 200.962C248.467 200.484 249.259 200.483 249.74 200.97C250.222 201.456 250.218 202.241 249.732 202.722C247.178 205.25 244.401 207.594 241.478 209.691C241.439 209.719 241.399 209.745 241.358 209.768L241.357 209.769ZM226.214 217.947C226.164 217.975 226.113 217.999 226.058 218.02C222.689 219.322 219.206 220.365 215.705 221.12C215.035 221.264 214.376 220.838 214.231 220.17C214.087 219.501 214.511 218.844 215.182 218.697C218.557 217.971 221.914 216.966 225.162 215.709C225.801 215.461 226.518 215.778 226.766 216.417C226.993 217.001 226.746 217.65 226.214 217.947ZM260.041 189.357C259.669 189.565 259.198 189.574 258.806 189.341C258.217 188.992 258.022 188.233 258.371 187.644C260.133 184.668 261.678 181.524 262.959 178.299C263.212 177.661 263.934 177.351 264.569 177.604C265.206 177.856 265.517 178.577 265.265 179.213C263.936 182.558 262.332 185.819 260.503 188.906C260.387 189.102 260.226 189.253 260.04 189.357H260.041ZM268.995 163.176C268.773 163.299 268.512 163.356 268.24 163.322C267.561 163.238 267.079 162.618 267.163 161.939C267.593 158.494 267.752 154.992 267.637 151.537C267.616 150.854 268.149 150.28 268.835 150.257C269.519 150.234 270.092 150.771 270.115 151.455C270.234 155.04 270.069 158.671 269.622 162.247C269.572 162.654 269.329 162.99 268.994 163.176H268.995ZM266.708 135.595C266.631 135.638 266.546 135.673 266.459 135.7C265.804 135.896 265.112 135.523 264.916 134.866C264.092 132.107 263.075 129.367 261.893 126.721C261.657 126.194 261.415 125.67 261.167 125.152C260.872 124.534 261.138 123.812 261.751 123.499C262.369 123.204 263.11 123.465 263.405 124.082C263.662 124.619 263.911 125.163 264.156 125.709C265.381 128.454 266.437 131.295 267.292 134.157C267.461 134.725 267.204 135.318 266.708 135.595Z" fill="white"/>
<path d="M198.817 222.432C198.622 222.54 198.397 222.598 198.159 222.586C196.491 222.51 194.8 222.371 193.131 222.172C192.451 222.09 191.965 221.474 192.046 220.795C192.127 220.114 192.744 219.628 193.424 219.71C195.034 219.902 196.665 220.037 198.273 220.11C198.956 220.141 199.485 220.72 199.454 221.404C199.435 221.849 199.181 222.229 198.818 222.431L198.817 222.432Z" fill="white"/>
<path d="M149.635 197.894C149.122 198.178 148.463 198.068 148.077 197.599C147.011 196.305 145.979 194.957 145.013 193.588C144.617 193.029 144.75 192.254 145.31 191.86C145.895 191.455 146.645 191.599 147.038 192.157C147.97 193.476 148.964 194.776 149.989 196.023C150.426 196.552 150.35 197.332 149.821 197.767C149.761 197.817 149.7 197.858 149.634 197.894H149.635Z" fill="white"/>
<path d="M138.654 179.014C138.603 179.042 138.551 179.068 138.494 179.09C137.855 179.333 137.138 179.014 136.893 178.375C135.626 175.07 134.606 171.646 133.863 168.198C133.719 167.53 134.144 166.871 134.814 166.724C135.483 166.581 136.143 167.006 136.288 167.675C137.003 171 137.986 174.3 139.21 177.488C139.433 178.07 139.187 178.718 138.656 179.014H138.654ZM134.227 152.157C134.035 152.265 133.812 152.321 133.576 152.312C132.892 152.284 132.36 151.708 132.388 151.024C132.531 147.497 132.952 143.947 133.639 140.473C133.769 139.805 134.42 139.365 135.095 139.498C135.765 139.63 136.203 140.282 136.07 140.954C135.408 144.302 135.002 147.723 134.865 151.124C134.847 151.571 134.593 151.953 134.227 152.156V152.157ZM140.785 125.734C140.447 125.922 140.024 125.949 139.649 125.771C139.03 125.476 138.767 124.736 139.062 124.119C140.584 120.928 142.366 117.83 144.355 114.912C144.747 114.347 145.512 114.202 146.079 114.587C146.645 114.973 146.79 115.743 146.405 116.31C144.485 119.123 142.767 122.11 141.301 125.185C141.185 125.426 141.002 125.615 140.785 125.735V125.734ZM191.009 88.0862C190.887 88.1542 190.753 88.2029 190.607 88.226C187.245 88.7761 183.896 89.5917 180.653 90.6534C180.003 90.8663 179.302 90.5124 179.089 89.861C178.876 89.2121 179.228 88.5081 179.882 88.2978C183.247 87.1963 186.721 86.3487 190.208 85.7806C190.882 85.6691 191.52 86.1281 191.63 86.8039C191.717 87.3348 191.453 87.84 191.011 88.0862H191.009ZM157.198 104.023C156.699 104.301 156.057 104.204 155.665 103.757C155.213 103.243 155.263 102.46 155.779 102.008C158.434 99.6797 161.296 97.5382 164.287 95.6442C164.827 95.3146 165.63 95.4493 165.997 96.0276C166.364 96.6047 166.192 97.3702 165.613 97.7369C162.732 99.5617 159.973 101.626 157.415 103.87C157.347 103.931 157.275 103.979 157.199 104.023H157.198Z" fill="white"/>
<path d="M212.915 88.1351C212.678 88.2671 212.397 88.3223 212.108 88.2735C210.512 88.0068 208.89 87.7965 207.286 87.6503C206.604 87.5888 206.101 86.9848 206.164 86.3039C206.226 85.6204 206.832 85.1203 207.51 85.1819C209.176 85.3345 210.86 85.5525 212.517 85.8294C213.192 85.9423 213.648 86.5809 213.535 87.2567C213.469 87.6426 213.232 87.9581 212.914 88.1351H212.915Z" fill="white"/>
<path d="M216.142 104.002C215.822 103.868 215.453 103.951 215.222 104.21L208.635 111.575C204.085 110.805 199.378 110.756 194.687 111.501L188.175 104.078C187.947 103.818 187.578 103.731 187.258 103.861L176.283 108.342C175.962 108.473 175.76 108.793 175.779 109.138L176.329 118.995C172.458 121.746 169.133 125.075 166.422 128.809L156.561 128.161C156.216 128.138 155.894 128.338 155.759 128.658L151.169 139.583C151.036 139.902 151.118 140.272 151.377 140.502L158.744 147.088C157.974 151.637 157.926 156.342 158.671 161.031L151.245 167.54C150.984 167.768 150.897 168.136 151.028 168.457L155.511 179.427C155.642 179.748 155.963 179.95 156.308 179.931L166.169 179.381C168.921 183.251 172.251 186.575 175.987 189.284L175.339 199.143C175.316 199.488 175.516 199.81 175.834 199.944L186.764 204.532C187.083 204.667 187.453 204.584 187.684 204.325L194.272 196.96C198.822 197.73 203.529 197.78 208.22 197.033L214.732 204.457C214.96 204.717 215.329 204.804 215.649 204.673L226.624 200.192C226.945 200.061 227.147 199.74 227.128 199.395L226.578 189.538C230.449 186.788 233.774 183.459 236.485 179.725L246.346 180.372C246.691 180.395 247.013 180.195 247.148 179.876L251.738 168.951C251.871 168.631 251.789 168.262 251.53 168.031L244.164 161.446C244.934 156.898 244.982 152.193 244.237 147.504L251.663 140.995C251.924 140.766 252.011 140.398 251.88 140.078L247.398 129.108C247.267 128.787 246.947 128.584 246.601 128.604L236.74 129.154C233.989 125.284 230.658 121.96 226.923 119.25L227.571 109.393C227.594 109.048 227.394 108.727 227.074 108.592L216.144 104.004L216.142 104.002Z" fill="#1F48DA"/>
<path d="M207.454 165.098C205.073 166.423 202.337 166.921 199.598 166.506C196.327 166.011 193.444 164.273 191.481 161.61C187.43 156.114 188.607 148.349 194.105 144.298C199.608 140.246 207.373 141.426 211.424 146.92C215.476 152.416 214.299 160.182 208.801 164.233C208.367 164.552 207.917 164.841 207.454 165.098ZM196.311 147.292C194.447 148.665 193.231 150.681 192.884 152.969C192.537 155.257 193.103 157.543 194.477 159.406C197.312 163.252 202.756 164.079 206.595 161.24C210.442 158.406 211.265 152.973 208.429 149.127C205.594 145.281 200.155 144.449 196.311 147.293V147.292Z" fill="#BDD0FB"/>
<path d="M216.207 181.107C215.148 181.695 214.046 182.228 212.896 182.697C198.497 188.576 182.151 182.597 174.768 169.336C174.177 168.277 173.644 167.171 173.175 166.02C166.822 150.476 174.307 132.663 189.857 126.315C191.74 125.547 193.696 124.966 195.676 124.587C195.812 124.562 195.949 124.536 196.085 124.512L196.734 128.173C194.873 128.502 193.033 129.034 191.263 129.758C182.271 133.428 176.352 141.465 174.951 150.422C174.248 154.914 174.683 159.64 176.437 164.161C176.447 164.185 176.456 164.211 176.466 164.237C176.516 164.364 176.567 164.492 176.619 164.617C177.031 165.627 177.499 166.597 178.017 167.527C184.5 179.169 198.851 184.419 211.492 179.256C225.137 173.696 231.714 158.047 226.136 144.398C225.728 143.399 225.262 142.43 224.739 141.493C222.919 138.226 220.434 135.369 217.434 133.122L219.666 130.148C223.087 132.711 225.922 135.969 227.995 139.697C228.587 140.759 229.115 141.859 229.578 142.991C235.46 157.386 229.474 173.728 216.207 181.108V181.107Z" fill="#BDD0FB"/>
<path d="M154.231 215.514L150.879 219.919C148.303 219.692 145.672 219.873 143.085 220.497L139.119 216.64C138.98 216.504 138.77 216.472 138.597 216.56L132.666 219.551C132.493 219.638 132.394 219.826 132.42 220.017L133.165 225.498C131.126 227.206 129.416 229.213 128.067 231.418L122.531 231.494C122.337 231.497 122.165 231.622 122.105 231.807L120.027 238.112C119.966 238.297 120.029 238.499 120.183 238.616L124.59 241.967C124.363 244.542 124.543 247.172 125.168 249.757L121.309 253.722C121.175 253.86 121.141 254.071 121.23 254.244L124.221 260.172C124.309 260.345 124.496 260.444 124.688 260.418L130.171 259.673C131.88 261.712 133.888 263.421 136.094 264.769L136.171 270.303C136.174 270.497 136.299 270.669 136.484 270.729L142.793 272.807C142.978 272.867 143.18 272.804 143.297 272.65L146.649 268.245C149.225 268.474 151.856 268.292 154.442 267.667L158.409 271.524C158.547 271.659 158.758 271.692 158.931 271.604L164.861 268.613C165.035 268.526 165.133 268.339 165.108 268.147L164.362 262.666C166.402 260.958 168.112 258.951 169.46 256.746L174.997 256.669C175.191 256.666 175.363 256.54 175.423 256.356L177.501 250.049C177.562 249.865 177.499 249.662 177.345 249.545L172.938 246.195C173.167 243.62 172.984 240.99 172.36 238.405L176.218 234.44C176.353 234.301 176.386 234.091 176.298 233.918L173.306 227.99C173.219 227.816 173.032 227.718 172.839 227.743L167.357 228.488C165.648 226.45 163.64 224.74 161.434 223.392L161.357 217.858C161.354 217.664 161.229 217.493 161.044 217.432L154.735 215.355C154.55 215.295 154.347 215.357 154.231 215.511V215.514Z" fill="#1F48DA"/>
<path d="M152.535 250.86C149.395 252.606 145.347 251.981 142.904 249.163C140.101 245.933 140.45 241.027 143.681 238.225C146.909 235.419 151.821 235.773 154.624 239.001C157.427 242.232 157.078 247.139 153.846 249.94C153.434 250.298 152.994 250.605 152.535 250.86ZM146.801 240.555C146.562 240.689 146.333 240.848 146.118 241.033C144.437 242.493 144.254 245.046 145.714 246.728C147.173 248.408 149.73 248.588 151.411 247.132C153.093 245.673 153.275 243.12 151.815 241.437C150.543 239.972 148.434 239.646 146.801 240.555Z" fill="#BDD0FB"/>
<path d="M170.67 216.644C170.255 216.875 169.728 216.855 169.323 216.554C168.054 215.605 166.701 214.734 165.304 213.966C164.703 213.637 164.485 212.883 164.815 212.284C165.143 211.684 165.896 211.464 166.498 211.795C167.996 212.619 169.447 213.551 170.809 214.57C171.357 214.981 171.469 215.758 171.058 216.305C170.949 216.449 170.817 216.563 170.67 216.645V216.644Z" fill="white"/>
<path d="M175.712 269.121C175.259 269.373 174.678 269.323 174.274 268.955C173.768 268.494 173.731 267.71 174.193 267.203C176.656 264.502 178.658 261.445 180.146 258.115C180.426 257.489 181.16 257.21 181.783 257.489C182.409 257.768 182.69 258.5 182.409 259.126C180.815 262.698 178.667 265.977 176.026 268.874C175.932 268.975 175.827 269.059 175.712 269.121ZM184.813 241.776C184.668 241.857 184.505 241.909 184.328 241.926C183.647 241.99 183.042 241.491 182.976 240.809C182.63 237.169 181.713 233.629 180.249 230.293C179.973 229.666 180.271 228.919 180.885 228.66C181.513 228.385 182.244 228.669 182.518 229.296C184.09 232.874 185.075 236.67 185.446 240.574C185.493 241.08 185.232 241.543 184.813 241.775V241.776Z" fill="white"/>
<path d="M160.433 279.012C160.364 279.05 160.292 279.082 160.214 279.108C158.594 279.636 156.921 280.056 155.242 280.354C154.568 280.474 153.924 280.025 153.805 279.35C153.684 278.676 154.133 278.036 154.809 277.914C156.374 277.637 157.934 277.246 159.447 276.752C160.097 276.54 160.796 276.895 161.009 277.546C161.196 278.119 160.942 278.73 160.434 279.012H160.433Z" fill="white"/>
<path d="M129.658 274.825C129.265 275.043 128.768 275.04 128.367 274.774C126.953 273.834 125.586 272.78 124.307 271.642C123.797 271.187 123.749 270.404 124.205 269.892C124.664 269.382 125.444 269.335 125.956 269.789C127.149 270.851 128.423 271.833 129.741 272.71C130.311 273.089 130.466 273.858 130.086 274.429C129.974 274.599 129.826 274.731 129.658 274.825Z" fill="white"/>
<path d="M115.766 256.97C115.706 257.003 115.641 257.033 115.573 257.057C114.927 257.283 114.219 256.944 113.994 256.298C112.722 252.675 112.028 248.886 111.932 245.038C111.915 244.355 112.455 243.783 113.14 243.768C113.824 243.751 114.394 244.292 114.41 244.975C114.502 248.566 115.148 252.1 116.333 255.479C116.536 256.056 116.286 256.683 115.768 256.971L115.766 256.97ZM117.798 228.69C117.446 228.886 117.004 228.906 116.622 228.706C116.014 228.39 115.779 227.641 116.096 227.036C117.872 223.635 120.168 220.541 122.918 217.84C123.406 217.359 124.192 217.367 124.671 217.855C125.15 218.344 125.144 219.129 124.655 219.607C122.089 222.127 119.95 225.011 118.294 228.181C118.177 228.405 118.002 228.577 117.798 228.69Z" fill="white"/>
<path d="M144.738 209.879C144.604 209.954 144.455 210.005 144.295 210.026C142.718 210.231 141.142 210.549 139.609 210.971C138.949 211.152 138.266 210.763 138.085 210.104C137.903 209.443 138.293 208.76 138.952 208.58C140.595 208.129 142.285 207.789 143.974 207.567C144.654 207.479 145.275 207.957 145.365 208.636C145.432 209.155 145.169 209.64 144.738 209.879Z" fill="white"/>
<path d="M157.444 259.835C157.228 259.955 157.009 260.071 156.787 260.183C152.52 262.335 147.673 262.696 143.135 261.202C138.831 259.785 135.297 256.86 133.109 252.924C132.989 252.71 132.874 252.492 132.762 252.272C130.611 248.008 130.249 243.161 131.744 238.625C133.238 234.088 136.422 230.412 140.677 228.256C140.947 228.12 141.22 227.992 141.496 227.869C142.258 227.531 143.042 227.247 143.837 227.02C143.845 227.019 143.852 227.016 143.86 227.014C143.987 226.978 144.114 226.943 144.24 226.91L145.176 230.508C144.209 230.759 143.261 231.118 142.354 231.575C138.969 233.27 136.461 236.195 135.278 239.788C134.094 243.38 134.38 247.219 136.085 250.596C136.173 250.771 136.264 250.943 136.359 251.114C138.092 254.231 140.893 256.547 144.3 257.669C147.895 258.852 151.735 258.566 155.113 256.862C158.493 255.17 161.004 252.242 162.189 248.649C163.373 245.057 163.086 241.219 161.382 237.842C161.295 237.669 161.205 237.498 161.112 237.33C159.96 235.262 158.311 233.514 156.315 232.253L158.301 229.11C160.824 230.704 162.908 232.911 164.361 235.522C164.479 235.735 164.593 235.949 164.704 236.167C166.854 240.432 167.217 245.278 165.722 249.813C164.306 254.113 161.381 257.646 157.447 259.833L157.444 259.835Z" fill="#BDD0FB"/>
</g>
<defs>
<linearGradient id="paint0_linear_64_7534" x1="42.1498" y1="122.224" x2="89.1529" y2="67.6427" gradientUnits="userSpaceOnUse">
<stop stop-color="#4F52FF"/>
<stop offset="1" stop-color="#4042E2"/>
</linearGradient>
<linearGradient id="paint1_linear_64_7534" x1="77.0589" y1="96.4405" x2="138.539" y2="-33.4671" gradientUnits="userSpaceOnUse">
<stop stop-color="#4F52FF"/>
<stop offset="1" stop-color="#4042E2"/>
</linearGradient>
<linearGradient id="paint2_linear_64_7534" x1="2.1586" y1="214.595" x2="47.5871" y2="161.844" gradientUnits="userSpaceOnUse">
<stop stop-color="#4F52FF"/>
<stop offset="1" stop-color="#4042E2"/>
</linearGradient>
<linearGradient id="paint3_linear_64_7534" x1="-6.15702" y1="334.16" x2="43.7106" y2="276.257" gradientUnits="userSpaceOnUse">
<stop stop-color="#4F52FF"/>
<stop offset="1" stop-color="#4042E2"/>
</linearGradient>
<linearGradient id="paint4_linear_64_7534" x1="267.008" y1="137.652" x2="312.919" y2="84.3416" gradientUnits="userSpaceOnUse">
<stop stop-color="#4F52FF"/>
<stop offset="1" stop-color="#4042E2"/>
</linearGradient>
<linearGradient id="paint5_linear_64_7534" x1="278.598" y1="346.849" x2="317.176" y2="302.053" gradientUnits="userSpaceOnUse">
<stop stop-color="#4F52FF"/>
<stop offset="1" stop-color="#4042E2"/>
</linearGradient>
<linearGradient id="paint6_linear_64_7534" x1="273.725" y1="256.522" x2="315.063" y2="208.521" gradientUnits="userSpaceOnUse">
<stop stop-color="#4F52FF"/>
<stop offset="1" stop-color="#4042E2"/>
</linearGradient>
<clipPath id="clip0_64_7534">
<rect width="354.033" height="358" fill="white"/>
</clipPath>
<clipPath id="clip1_64_7534">
<rect width="29.3333" height="29.3333" fill="white" transform="translate(34.3335 146.333)"/>
</clipPath>
</defs>
</svg>
