<svg width="450" height="566" viewBox="0 0 450 566" fill="none" xmlns="http://www.w3.org/2000/svg">
<path d="M405.535 143.691C392.854 115.535 373.764 90.7362 349.79 71.2746C325.815 51.8129 297.622 38.2284 267.461 31.6064L225 225L405.535 143.691Z" fill="#A8C0FF"/>
<path d="M416 225C416 201.485 411.811 178.157 403.629 156.111L218 225H416Z" fill="#CEE1F2"/>
<path d="M381.004 318.737C396.969 292.167 405.883 261.96 406.902 230.979L225 225L381.004 318.737Z" fill="#FF5959"/>
<path d="M183.785 437.031C225.884 445.215 269.466 440.68 308.979 424.006C348.492 407.332 382.147 379.273 405.656 343.404L225 225L183.785 437.031Z" fill="#FF71C6"/>
<path d="M75.5675 354.9C103.316 386.82 140.557 409.017 181.835 418.238L225 225L75.5675 354.9Z" fill="#52EB61"/>
<path d="M264.071 3.41825C218.907 -4.5453 172.389 1.48219 130.746 20.6933C89.1036 39.9045 54.3259 71.3819 31.0715 110.909C7.81709 150.436 -2.8035 196.126 0.632353 241.857C4.06821 287.588 21.3964 331.178 50.2959 366.787L225 225L264.071 3.41825Z" fill="#1A468F"/>
<g filter="url(#filter0_d_64_7502)">
<circle cx="225" cy="225" r="135" fill="white"/>
</g>
<circle opacity="0.05" cx="225" cy="225" r="119" stroke="#454459" stroke-width="2"/>
<circle cx="78" cy="484" r="10" fill="#1A468F"/>
<path d="M103.627 478.498L108.298 488.398H108.406L108.343 483.376V478.498H109.801V490H107.587L102.862 480.019H102.754L102.817 485.275V490H101.359V478.498H103.627ZM115.825 490.225C114.565 490.225 113.608 489.886 112.954 489.208C112.306 488.524 111.982 487.543 111.982 486.265V484.924C111.982 483.652 112.309 482.677 112.963 481.999C113.617 481.321 114.571 480.982 115.825 480.982C117.085 480.982 118.039 481.321 118.687 481.999C119.341 482.677 119.668 483.652 119.668 484.924V486.265C119.668 487.543 119.341 488.524 118.687 489.208C118.039 489.886 117.085 490.225 115.825 490.225ZM115.825 489.037C116.605 489.037 117.196 488.806 117.598 488.344C118.006 487.882 118.21 487.216 118.21 486.346V484.843C118.21 483.979 118.006 483.319 117.598 482.863C117.196 482.401 116.605 482.17 115.825 482.17C115.051 482.17 114.46 482.401 114.052 482.863C113.644 483.319 113.44 483.979 113.44 484.843V486.346C113.44 487.216 113.644 487.882 114.052 488.344C114.46 488.806 115.051 489.037 115.825 489.037ZM124.809 490.18C124.131 490.18 123.585 490.078 123.171 489.874C122.757 489.67 122.457 489.361 122.271 488.947C122.085 488.533 121.992 488.017 121.992 487.399V481.855H123.432V487.228C123.432 487.804 123.564 488.23 123.828 488.506C124.092 488.776 124.536 488.911 125.16 488.911C125.514 488.911 125.853 488.872 126.177 488.794C126.507 488.716 126.816 488.605 127.104 488.461L126.969 489.712C126.687 489.856 126.357 489.97 125.979 490.054C125.601 490.138 125.211 490.18 124.809 490.18ZM120.552 482.512V481.342H127.014L126.879 482.512H120.552ZM122.001 481.486L121.992 479.02L123.459 478.831L123.396 481.486H122.001ZM135.325 490.207C134.773 490.207 134.266 490.162 133.804 490.072C133.348 489.982 132.94 489.871 132.58 489.739C132.22 489.607 131.92 489.475 131.68 489.343L131.527 487.858C131.989 488.134 132.532 488.377 133.156 488.587C133.786 488.791 134.47 488.893 135.208 488.893C136.096 488.893 136.753 488.737 137.179 488.425C137.605 488.107 137.818 487.633 137.818 487.003V486.859C137.818 486.445 137.734 486.106 137.566 485.842C137.398 485.578 137.113 485.356 136.711 485.176C136.315 484.996 135.775 484.828 135.091 484.672C134.227 484.468 133.534 484.228 133.012 483.952C132.496 483.67 132.121 483.319 131.887 482.899C131.659 482.479 131.545 481.957 131.545 481.333V481.252C131.545 480.31 131.854 479.584 132.472 479.074C133.09 478.558 134.026 478.3 135.28 478.3C136.102 478.3 136.801 478.384 137.377 478.552C137.959 478.72 138.433 478.906 138.799 479.11L138.934 480.478C138.508 480.226 138.01 480.013 137.44 479.839C136.876 479.659 136.228 479.569 135.496 479.569C134.914 479.569 134.443 479.638 134.083 479.776C133.723 479.914 133.462 480.112 133.3 480.37C133.138 480.628 133.057 480.94 133.057 481.306V481.342C133.057 481.714 133.135 482.032 133.291 482.296C133.453 482.56 133.732 482.788 134.128 482.98C134.53 483.172 135.1 483.358 135.838 483.538C136.684 483.736 137.362 483.964 137.872 484.222C138.382 484.48 138.751 484.816 138.979 485.23C139.213 485.644 139.33 486.184 139.33 486.85V487.039C139.33 488.077 138.994 488.866 138.322 489.406C137.656 489.94 136.657 490.207 135.325 490.207ZM144.321 490.18C143.643 490.18 143.097 490.078 142.683 489.874C142.269 489.67 141.969 489.361 141.783 488.947C141.597 488.533 141.504 488.017 141.504 487.399V481.855H142.944V487.228C142.944 487.804 143.076 488.23 143.34 488.506C143.604 488.776 144.048 488.911 144.672 488.911C145.026 488.911 145.365 488.872 145.689 488.794C146.019 488.716 146.328 488.605 146.616 488.461L146.481 489.712C146.199 489.856 145.869 489.97 145.491 490.054C145.113 490.138 144.723 490.18 144.321 490.18ZM140.064 482.512V481.342H146.526L146.391 482.512H140.064ZM141.513 481.486L141.504 479.02L142.971 478.831L142.908 481.486H141.513ZM153.438 490L153.501 487.867L153.447 487.642V484.843L153.456 484.33C153.456 483.616 153.273 483.088 152.907 482.746C152.547 482.404 151.974 482.233 151.188 482.233C150.558 482.233 149.979 482.323 149.451 482.503C148.929 482.683 148.464 482.893 148.056 483.133L148.191 481.891C148.419 481.753 148.689 481.618 149.001 481.486C149.319 481.348 149.679 481.234 150.081 481.144C150.489 481.054 150.936 481.009 151.422 481.009C152.052 481.009 152.586 481.087 153.024 481.243C153.468 481.393 153.825 481.612 154.095 481.9C154.371 482.188 154.572 482.536 154.698 482.944C154.824 483.352 154.887 483.808 154.887 484.312V490H153.438ZM150.414 490.189C149.544 490.189 148.875 489.979 148.407 489.559C147.945 489.133 147.714 488.527 147.714 487.741V487.48C147.714 486.67 147.963 486.067 148.461 485.671C148.965 485.269 149.763 484.99 150.855 484.834L153.636 484.438L153.717 485.5L151.035 485.887C150.363 485.983 149.883 486.148 149.595 486.382C149.307 486.61 149.163 486.949 149.163 487.399V487.543C149.163 488.005 149.304 488.359 149.586 488.605C149.874 488.851 150.303 488.974 150.873 488.974C151.377 488.974 151.809 488.887 152.169 488.713C152.529 488.539 152.82 488.305 153.042 488.011C153.264 487.717 153.414 487.39 153.492 487.03L153.717 488.02H153.438C153.354 488.404 153.195 488.761 152.961 489.091C152.733 489.421 152.412 489.688 151.998 489.892C151.584 490.09 151.056 490.189 150.414 490.189ZM158.508 484.627L158.175 483.502L158.535 483.484C158.727 482.74 159.057 482.155 159.525 481.729C159.993 481.297 160.614 481.081 161.388 481.081C161.58 481.081 161.751 481.096 161.901 481.126C162.057 481.156 162.195 481.192 162.315 481.234L162.405 482.647C162.255 482.599 162.087 482.56 161.901 482.53C161.721 482.5 161.52 482.485 161.298 482.485C160.638 482.485 160.062 482.668 159.57 483.034C159.084 483.4 158.73 483.931 158.508 484.627ZM157.122 490V481.216H158.544L158.472 483.808L158.58 483.916V490H157.122ZM167.348 490.18C166.67 490.18 166.124 490.078 165.71 489.874C165.296 489.67 164.996 489.361 164.81 488.947C164.624 488.533 164.531 488.017 164.531 487.399V481.855H165.971V487.228C165.971 487.804 166.103 488.23 166.367 488.506C166.631 488.776 167.075 488.911 167.699 488.911C168.053 488.911 168.392 488.872 168.716 488.794C169.046 488.716 169.355 488.605 169.643 488.461L169.508 489.712C169.226 489.856 168.896 489.97 168.518 490.054C168.14 490.138 167.75 490.18 167.348 490.18ZM163.091 482.512V481.342H169.553L169.418 482.512H163.091ZM164.54 481.486L164.531 479.02L165.998 478.831L165.935 481.486H164.54ZM174.716 490.198C173.378 490.198 172.37 489.871 171.692 489.217C171.014 488.563 170.675 487.627 170.675 486.409V484.843C170.675 483.607 170.99 482.656 171.62 481.99C172.25 481.318 173.171 480.982 174.383 480.982C175.199 480.982 175.88 481.135 176.426 481.441C176.972 481.741 177.383 482.17 177.659 482.728C177.935 483.286 178.073 483.952 178.073 484.726V485.05C178.073 485.242 178.064 485.434 178.046 485.626C178.034 485.818 178.016 486.007 177.992 486.193H176.651C176.663 485.905 176.669 485.632 176.669 485.374C176.675 485.116 176.678 484.879 176.678 484.663C176.678 484.129 176.591 483.679 176.417 483.313C176.249 482.941 175.994 482.659 175.652 482.467C175.316 482.269 174.893 482.17 174.383 482.17C173.627 482.17 173.06 482.389 172.682 482.827C172.304 483.265 172.115 483.892 172.115 484.708V485.545L172.124 485.725V486.562C172.124 486.928 172.178 487.258 172.286 487.552C172.394 487.846 172.562 488.101 172.79 488.317C173.024 488.527 173.318 488.689 173.672 488.803C174.032 488.911 174.458 488.965 174.95 488.965C175.52 488.965 176.051 488.89 176.543 488.74C177.035 488.59 177.497 488.386 177.929 488.128L177.794 489.388C177.404 489.634 176.951 489.832 176.435 489.982C175.919 490.126 175.346 490.198 174.716 490.198ZM171.44 486.193V485.095H177.686V486.193H171.44ZM182.924 490.189C181.868 490.189 181.064 489.862 180.512 489.208C179.96 488.554 179.684 487.6 179.684 486.346V484.897C179.684 483.637 179.963 482.677 180.521 482.017C181.079 481.351 181.901 481.018 182.987 481.018C183.527 481.018 183.995 481.111 184.391 481.297C184.787 481.477 185.108 481.732 185.354 482.062C185.6 482.392 185.765 482.782 185.849 483.232H186.326L185.894 484.573C185.876 484.057 185.759 483.625 185.543 483.277C185.333 482.923 185.045 482.656 184.679 482.476C184.319 482.296 183.905 482.206 183.437 482.206C182.693 482.206 182.123 482.422 181.727 482.854C181.337 483.286 181.142 483.922 181.142 484.762V486.436C181.142 487.264 181.337 487.894 181.727 488.326C182.123 488.758 182.693 488.974 183.437 488.974C183.881 488.974 184.274 488.89 184.616 488.722C184.958 488.548 185.24 488.311 185.462 488.011C185.69 487.705 185.846 487.36 185.93 486.976L186.29 488.02H185.858C185.774 488.416 185.612 488.779 185.372 489.109C185.138 489.439 184.82 489.703 184.418 489.901C184.022 490.093 183.524 490.189 182.924 490.189ZM185.858 490L185.921 487.876L185.894 487.408V483.736L185.903 483.43L185.867 480.937V478.075H187.316V490H185.858Z" fill="#171A1F"/>
<circle cx="78" cy="520" r="10" fill="#A8C0FF"/>
<path d="M102.871 526H101.377V514.498H102.871V526ZM111.319 526V520.537C111.319 520.063 111.253 519.655 111.121 519.313C110.995 518.971 110.785 518.707 110.491 518.521C110.203 518.329 109.807 518.233 109.303 518.233C108.841 518.233 108.439 518.32 108.097 518.494C107.761 518.668 107.488 518.905 107.278 519.205C107.068 519.499 106.921 519.835 106.837 520.213L106.576 519.178H106.891C106.987 518.782 107.155 518.422 107.395 518.098C107.635 517.768 107.956 517.507 108.358 517.315C108.766 517.117 109.264 517.018 109.852 517.018C110.548 517.018 111.109 517.15 111.535 517.414C111.967 517.678 112.282 518.059 112.48 518.557C112.678 519.049 112.777 519.655 112.777 520.375V526H111.319ZM105.442 526V517.216H106.9L106.837 519.322L106.9 519.403V526H105.442ZM119.399 522.175V520.933H122.666C123.452 520.933 124.022 520.738 124.376 520.348C124.73 519.952 124.907 519.409 124.907 518.719V517.936C124.907 517.234 124.73 516.691 124.376 516.307C124.028 515.923 123.464 515.731 122.684 515.731H119.39V514.498H122.711C123.995 514.498 124.928 514.801 125.51 515.407C126.098 516.007 126.392 516.835 126.392 517.891V518.755C126.392 519.823 126.095 520.66 125.501 521.266C124.913 521.872 123.98 522.175 122.702 522.175H119.399ZM118.427 526V514.498H119.894V521.302L119.903 521.968V526H118.427ZM129.732 520.627L129.399 519.502L129.759 519.484C129.951 518.74 130.281 518.155 130.749 517.729C131.217 517.297 131.838 517.081 132.612 517.081C132.804 517.081 132.975 517.096 133.125 517.126C133.281 517.156 133.419 517.192 133.539 517.234L133.629 518.647C133.479 518.599 133.311 518.56 133.125 518.53C132.945 518.5 132.744 518.485 132.522 518.485C131.862 518.485 131.286 518.668 130.794 519.034C130.308 519.4 129.954 519.931 129.732 520.627ZM128.346 526V517.216H129.768L129.696 519.808L129.804 519.916V526H128.346ZM138.307 526.225C137.047 526.225 136.09 525.886 135.436 525.208C134.788 524.524 134.464 523.543 134.464 522.265V520.924C134.464 519.652 134.791 518.677 135.445 517.999C136.099 517.321 137.053 516.982 138.307 516.982C139.567 516.982 140.521 517.321 141.169 517.999C141.823 518.677 142.15 519.652 142.15 520.924V522.265C142.15 523.543 141.823 524.524 141.169 525.208C140.521 525.886 139.567 526.225 138.307 526.225ZM138.307 525.037C139.087 525.037 139.678 524.806 140.08 524.344C140.488 523.882 140.692 523.216 140.692 522.346V520.843C140.692 519.979 140.488 519.319 140.08 518.863C139.678 518.401 139.087 518.17 138.307 518.17C137.533 518.17 136.942 518.401 136.534 518.863C136.126 519.319 135.922 519.979 135.922 520.843V522.346C135.922 523.216 136.126 523.882 136.534 524.344C136.942 524.806 137.533 525.037 138.307 525.037ZM147.569 523.372C146.375 523.372 145.457 523.111 144.815 522.589C144.179 522.067 143.861 521.32 143.861 520.348V520.123C143.861 519.517 143.984 518.989 144.23 518.539C144.482 518.089 144.881 517.738 145.427 517.486C145.973 517.228 146.687 517.087 147.569 517.063L152.051 516.919V518.071L149.405 517.981L149.396 518.044C149.81 518.128 150.149 518.272 150.413 518.476C150.677 518.68 150.872 518.935 150.998 519.241C151.13 519.547 151.196 519.904 151.196 520.312V520.51C151.196 521.44 150.89 522.151 150.278 522.643C149.666 523.129 148.763 523.372 147.569 523.372ZM147.506 528.214H147.713C148.253 528.214 148.715 528.172 149.099 528.088C149.489 528.01 149.789 527.884 149.999 527.71C150.209 527.536 150.314 527.305 150.314 527.017V526.981C150.314 526.645 150.191 526.387 149.945 526.207C149.705 526.033 149.291 525.919 148.703 525.865L146.219 525.64L146.633 525.622C146.297 525.67 146 525.748 145.742 525.856C145.49 525.964 145.292 526.105 145.148 526.279C145.004 526.459 144.932 526.681 144.932 526.945V526.963C144.932 527.269 145.037 527.515 145.247 527.701C145.457 527.887 145.754 528.019 146.138 528.097C146.522 528.175 146.978 528.214 147.506 528.214ZM147.425 529.375C146.633 529.375 145.949 529.306 145.373 529.168C144.803 529.036 144.359 528.817 144.041 528.511C143.729 528.211 143.573 527.806 143.573 527.296V527.26C143.573 526.9 143.657 526.6 143.825 526.36C143.999 526.12 144.23 525.931 144.518 525.793C144.812 525.655 145.139 525.562 145.499 525.514L145.49 525.46C144.998 525.376 144.635 525.232 144.401 525.028C144.167 524.818 144.05 524.548 144.05 524.218V524.209C144.05 523.981 144.101 523.786 144.203 523.624C144.311 523.462 144.47 523.333 144.68 523.237C144.896 523.141 145.169 523.081 145.499 523.057V522.877L147.173 523.3L146.489 523.282C146.081 523.288 145.799 523.339 145.643 523.435C145.487 523.525 145.409 523.663 145.409 523.849V523.858C145.409 524.056 145.52 524.206 145.742 524.308C145.964 524.41 146.342 524.491 146.876 524.551L149.009 524.767C149.939 524.863 150.617 525.088 151.043 525.442C151.469 525.79 151.682 526.306 151.682 526.99V527.035C151.682 527.581 151.52 528.028 151.196 528.376C150.872 528.724 150.413 528.976 149.819 529.132C149.225 529.294 148.514 529.375 147.686 529.375H147.425ZM147.551 522.292C148.055 522.292 148.472 522.22 148.802 522.076C149.138 521.926 149.39 521.704 149.558 521.41C149.732 521.11 149.819 520.744 149.819 520.312V520.096C149.819 519.676 149.735 519.319 149.567 519.025C149.405 518.731 149.159 518.509 148.829 518.359C148.499 518.203 148.085 518.125 147.587 518.125H147.533C146.993 518.125 146.552 518.209 146.21 518.377C145.874 518.539 145.628 518.77 145.472 519.07C145.322 519.364 145.247 519.709 145.247 520.105V520.312C145.247 520.744 145.331 521.107 145.499 521.401C145.673 521.695 145.931 521.917 146.273 522.067C146.615 522.217 147.041 522.292 147.551 522.292ZM154.763 520.627L154.43 519.502L154.79 519.484C154.982 518.74 155.312 518.155 155.78 517.729C156.248 517.297 156.869 517.081 157.643 517.081C157.835 517.081 158.006 517.096 158.156 517.126C158.312 517.156 158.45 517.192 158.57 517.234L158.66 518.647C158.51 518.599 158.342 518.56 158.156 518.53C157.976 518.5 157.775 518.485 157.553 518.485C156.893 518.485 156.317 518.668 155.825 519.034C155.339 519.4 154.985 519.931 154.763 520.627ZM153.377 526V517.216H154.799L154.727 519.808L154.835 519.916V526H153.377ZM163.536 526.198C162.198 526.198 161.19 525.871 160.512 525.217C159.834 524.563 159.495 523.627 159.495 522.409V520.843C159.495 519.607 159.81 518.656 160.44 517.99C161.07 517.318 161.991 516.982 163.203 516.982C164.019 516.982 164.7 517.135 165.246 517.441C165.792 517.741 166.203 518.17 166.479 518.728C166.755 519.286 166.893 519.952 166.893 520.726V521.05C166.893 521.242 166.884 521.434 166.866 521.626C166.854 521.818 166.836 522.007 166.812 522.193H165.471C165.483 521.905 165.489 521.632 165.489 521.374C165.495 521.116 165.498 520.879 165.498 520.663C165.498 520.129 165.411 519.679 165.237 519.313C165.069 518.941 164.814 518.659 164.472 518.467C164.136 518.269 163.713 518.17 163.203 518.17C162.447 518.17 161.88 518.389 161.502 518.827C161.124 519.265 160.935 519.892 160.935 520.708V521.545L160.944 521.725V522.562C160.944 522.928 160.998 523.258 161.106 523.552C161.214 523.846 161.382 524.101 161.61 524.317C161.844 524.527 162.138 524.689 162.492 524.803C162.852 524.911 163.278 524.965 163.77 524.965C164.34 524.965 164.871 524.89 165.363 524.74C165.855 524.59 166.317 524.386 166.749 524.128L166.614 525.388C166.224 525.634 165.771 525.832 165.255 525.982C164.739 526.126 164.166 526.198 163.536 526.198ZM160.26 522.193V521.095H166.506V522.193H160.26ZM171.609 526.198C170.901 526.198 170.283 526.123 169.755 525.973C169.227 525.817 168.789 525.649 168.441 525.469L168.306 524.119C168.744 524.347 169.224 524.545 169.746 524.713C170.274 524.881 170.871 524.965 171.537 524.965C172.215 524.965 172.725 524.857 173.067 524.641C173.409 524.425 173.58 524.104 173.58 523.678V523.579C173.58 523.303 173.514 523.075 173.382 522.895C173.256 522.715 173.025 522.556 172.689 522.418C172.353 522.28 171.876 522.142 171.258 522.004C170.52 521.842 169.938 521.653 169.512 521.437C169.086 521.215 168.78 520.942 168.594 520.618C168.414 520.294 168.324 519.898 168.324 519.43V519.349C168.324 518.581 168.591 517.999 169.125 517.603C169.659 517.207 170.463 517.009 171.537 517.009C172.227 517.009 172.824 517.087 173.328 517.243C173.838 517.399 174.255 517.573 174.579 517.765L174.714 518.998C174.324 518.77 173.877 518.581 173.373 518.431C172.869 518.281 172.302 518.206 171.672 518.206C171.216 518.206 170.847 518.254 170.565 518.35C170.283 518.44 170.079 518.572 169.953 518.746C169.827 518.914 169.764 519.118 169.764 519.358V519.43C169.764 519.694 169.827 519.919 169.953 520.105C170.079 520.285 170.304 520.444 170.628 520.582C170.958 520.714 171.414 520.843 171.996 520.969C172.746 521.119 173.34 521.299 173.778 521.509C174.222 521.719 174.54 521.986 174.732 522.31C174.924 522.628 175.02 523.039 175.02 523.543V523.696C175.02 524.524 174.732 525.148 174.156 525.568C173.58 525.988 172.731 526.198 171.609 526.198ZM179.501 526.198C178.793 526.198 178.175 526.123 177.647 525.973C177.119 525.817 176.681 525.649 176.333 525.469L176.198 524.119C176.636 524.347 177.116 524.545 177.638 524.713C178.166 524.881 178.763 524.965 179.429 524.965C180.107 524.965 180.617 524.857 180.959 524.641C181.301 524.425 181.472 524.104 181.472 523.678V523.579C181.472 523.303 181.406 523.075 181.274 522.895C181.148 522.715 180.917 522.556 180.581 522.418C180.245 522.28 179.768 522.142 179.15 522.004C178.412 521.842 177.83 521.653 177.404 521.437C176.978 521.215 176.672 520.942 176.486 520.618C176.306 520.294 176.216 519.898 176.216 519.43V519.349C176.216 518.581 176.483 517.999 177.017 517.603C177.551 517.207 178.355 517.009 179.429 517.009C180.119 517.009 180.716 517.087 181.22 517.243C181.73 517.399 182.147 517.573 182.471 517.765L182.606 518.998C182.216 518.77 181.769 518.581 181.265 518.431C180.761 518.281 180.194 518.206 179.564 518.206C179.108 518.206 178.739 518.254 178.457 518.35C178.175 518.44 177.971 518.572 177.845 518.746C177.719 518.914 177.656 519.118 177.656 519.358V519.43C177.656 519.694 177.719 519.919 177.845 520.105C177.971 520.285 178.196 520.444 178.52 520.582C178.85 520.714 179.306 520.843 179.888 520.969C180.638 521.119 181.232 521.299 181.67 521.509C182.114 521.719 182.432 521.986 182.624 522.31C182.816 522.628 182.912 523.039 182.912 523.543V523.696C182.912 524.524 182.624 525.148 182.048 525.568C181.472 525.988 180.623 526.198 179.501 526.198Z" fill="#171A1F"/>
<circle cx="78" cy="556" r="10" fill="#CEE1F2"/>
<path d="M102.961 562L100.585 550.498H102.115L103.789 559.093L104.104 560.749H104.266L104.572 559.093L106.255 550.795H108.46L110.143 559.093L110.449 560.749H110.611L110.935 559.093L112.609 550.498H114.121L111.754 562H109.396L108.064 555.385L107.434 552.028H107.29L106.651 555.385L105.337 562H102.961ZM120.286 562L120.349 559.867L120.295 559.642V556.843L120.304 556.33C120.304 555.616 120.121 555.088 119.755 554.746C119.395 554.404 118.822 554.233 118.036 554.233C117.406 554.233 116.827 554.323 116.299 554.503C115.777 554.683 115.312 554.893 114.904 555.133L115.039 553.891C115.267 553.753 115.537 553.618 115.849 553.486C116.167 553.348 116.527 553.234 116.929 553.144C117.337 553.054 117.784 553.009 118.27 553.009C118.9 553.009 119.434 553.087 119.872 553.243C120.316 553.393 120.673 553.612 120.943 553.9C121.219 554.188 121.42 554.536 121.546 554.944C121.672 555.352 121.735 555.808 121.735 556.312V562H120.286ZM117.262 562.189C116.392 562.189 115.723 561.979 115.255 561.559C114.793 561.133 114.562 560.527 114.562 559.741V559.48C114.562 558.67 114.811 558.067 115.309 557.671C115.813 557.269 116.611 556.99 117.703 556.834L120.484 556.438L120.565 557.5L117.883 557.887C117.211 557.983 116.731 558.148 116.443 558.382C116.155 558.61 116.011 558.949 116.011 559.399V559.543C116.011 560.005 116.152 560.359 116.434 560.605C116.722 560.851 117.151 560.974 117.721 560.974C118.225 560.974 118.657 560.887 119.017 560.713C119.377 560.539 119.668 560.305 119.89 560.011C120.112 559.717 120.262 559.39 120.34 559.03L120.565 560.02H120.286C120.202 560.404 120.043 560.761 119.809 561.091C119.581 561.421 119.26 561.688 118.846 561.892C118.432 562.09 117.904 562.189 117.262 562.189ZM123.996 562V553.216H125.454V562H123.996ZM124.725 551.776C124.425 551.776 124.2 551.698 124.05 551.542C123.906 551.38 123.834 551.161 123.834 550.885V550.84C123.834 550.558 123.906 550.339 124.05 550.183C124.2 550.027 124.425 549.949 124.725 549.949C125.025 549.949 125.25 550.027 125.4 550.183C125.55 550.339 125.625 550.558 125.625 550.84V550.885C125.625 551.167 125.55 551.386 125.4 551.542C125.25 551.698 125.025 551.776 124.725 551.776ZM131.067 562.18C130.389 562.18 129.843 562.078 129.429 561.874C129.015 561.67 128.715 561.361 128.529 560.947C128.343 560.533 128.25 560.017 128.25 559.399V553.855H129.69V559.228C129.69 559.804 129.822 560.23 130.086 560.506C130.35 560.776 130.794 560.911 131.418 560.911C131.772 560.911 132.111 560.872 132.435 560.794C132.765 560.716 133.074 560.605 133.362 560.461L133.227 561.712C132.945 561.856 132.615 561.97 132.237 562.054C131.859 562.138 131.469 562.18 131.067 562.18ZM126.81 554.512V553.342H133.272L133.137 554.512H126.81ZM128.259 553.486L128.25 551.02L129.717 550.831L129.654 553.486H128.259ZM135.018 562V553.216H136.476V562H135.018ZM135.747 551.776C135.447 551.776 135.222 551.698 135.072 551.542C134.928 551.38 134.856 551.161 134.856 550.885V550.84C134.856 550.558 134.928 550.339 135.072 550.183C135.222 550.027 135.447 549.949 135.747 549.949C136.047 549.949 136.272 550.027 136.422 550.183C136.572 550.339 136.647 550.558 136.647 550.84V550.885C136.647 551.167 136.572 551.386 136.422 551.542C136.272 551.698 136.047 551.776 135.747 551.776ZM144.77 562V556.537C144.77 556.063 144.704 555.655 144.572 555.313C144.446 554.971 144.236 554.707 143.942 554.521C143.654 554.329 143.258 554.233 142.754 554.233C142.292 554.233 141.89 554.32 141.548 554.494C141.212 554.668 140.939 554.905 140.729 555.205C140.519 555.499 140.372 555.835 140.288 556.213L140.027 555.178H140.342C140.438 554.782 140.606 554.422 140.846 554.098C141.086 553.768 141.407 553.507 141.809 553.315C142.217 553.117 142.715 553.018 143.303 553.018C143.999 553.018 144.56 553.15 144.986 553.414C145.418 553.678 145.733 554.059 145.931 554.557C146.129 555.049 146.228 555.655 146.228 556.375V562H144.77ZM138.893 562V553.216H140.351L140.288 555.322L140.351 555.403V562H138.893ZM151.911 559.372C150.717 559.372 149.799 559.111 149.157 558.589C148.521 558.067 148.203 557.32 148.203 556.348V556.123C148.203 555.517 148.326 554.989 148.572 554.539C148.824 554.089 149.223 553.738 149.769 553.486C150.315 553.228 151.029 553.087 151.911 553.063L156.393 552.919V554.071L153.747 553.981L153.738 554.044C154.152 554.128 154.491 554.272 154.755 554.476C155.019 554.68 155.214 554.935 155.34 555.241C155.472 555.547 155.538 555.904 155.538 556.312V556.51C155.538 557.44 155.232 558.151 154.62 558.643C154.008 559.129 153.105 559.372 151.911 559.372ZM151.848 564.214H152.055C152.595 564.214 153.057 564.172 153.441 564.088C153.831 564.01 154.131 563.884 154.341 563.71C154.551 563.536 154.656 563.305 154.656 563.017V562.981C154.656 562.645 154.533 562.387 154.287 562.207C154.047 562.033 153.633 561.919 153.045 561.865L150.561 561.64L150.975 561.622C150.639 561.67 150.342 561.748 150.084 561.856C149.832 561.964 149.634 562.105 149.49 562.279C149.346 562.459 149.274 562.681 149.274 562.945V562.963C149.274 563.269 149.379 563.515 149.589 563.701C149.799 563.887 150.096 564.019 150.48 564.097C150.864 564.175 151.32 564.214 151.848 564.214ZM151.767 565.375C150.975 565.375 150.291 565.306 149.715 565.168C149.145 565.036 148.701 564.817 148.383 564.511C148.071 564.211 147.915 563.806 147.915 563.296V563.26C147.915 562.9 147.999 562.6 148.167 562.36C148.341 562.12 148.572 561.931 148.86 561.793C149.154 561.655 149.481 561.562 149.841 561.514L149.832 561.46C149.34 561.376 148.977 561.232 148.743 561.028C148.509 560.818 148.392 560.548 148.392 560.218V560.209C148.392 559.981 148.443 559.786 148.545 559.624C148.653 559.462 148.812 559.333 149.022 559.237C149.238 559.141 149.511 559.081 149.841 559.057V558.877L151.515 559.3L150.831 559.282C150.423 559.288 150.141 559.339 149.985 559.435C149.829 559.525 149.751 559.663 149.751 559.849V559.858C149.751 560.056 149.862 560.206 150.084 560.308C150.306 560.41 150.684 560.491 151.218 560.551L153.351 560.767C154.281 560.863 154.959 561.088 155.385 561.442C155.811 561.79 156.024 562.306 156.024 562.99V563.035C156.024 563.581 155.862 564.028 155.538 564.376C155.214 564.724 154.755 564.976 154.161 565.132C153.567 565.294 152.856 565.375 152.028 565.375H151.767ZM151.893 558.292C152.397 558.292 152.814 558.22 153.144 558.076C153.48 557.926 153.732 557.704 153.9 557.41C154.074 557.11 154.161 556.744 154.161 556.312V556.096C154.161 555.676 154.077 555.319 153.909 555.025C153.747 554.731 153.501 554.509 153.171 554.359C152.841 554.203 152.427 554.125 151.929 554.125H151.875C151.335 554.125 150.894 554.209 150.552 554.377C150.216 554.539 149.97 554.77 149.814 555.07C149.664 555.364 149.589 555.709 149.589 556.105V556.312C149.589 556.744 149.673 557.107 149.841 557.401C150.015 557.695 150.273 557.917 150.615 558.067C150.957 558.217 151.383 558.292 151.893 558.292ZM164.311 562.207C163.759 562.207 163.252 562.162 162.79 562.072C162.334 561.982 161.926 561.871 161.566 561.739C161.206 561.607 160.906 561.475 160.666 561.343L160.513 559.858C160.975 560.134 161.518 560.377 162.142 560.587C162.772 560.791 163.456 560.893 164.194 560.893C165.082 560.893 165.739 560.737 166.165 560.425C166.591 560.107 166.804 559.633 166.804 559.003V558.859C166.804 558.445 166.72 558.106 166.552 557.842C166.384 557.578 166.099 557.356 165.697 557.176C165.301 556.996 164.761 556.828 164.077 556.672C163.213 556.468 162.52 556.228 161.998 555.952C161.482 555.67 161.107 555.319 160.873 554.899C160.645 554.479 160.531 553.957 160.531 553.333V553.252C160.531 552.31 160.84 551.584 161.458 551.074C162.076 550.558 163.012 550.3 164.266 550.3C165.088 550.3 165.787 550.384 166.363 550.552C166.945 550.72 167.419 550.906 167.785 551.11L167.92 552.478C167.494 552.226 166.996 552.013 166.426 551.839C165.862 551.659 165.214 551.569 164.482 551.569C163.9 551.569 163.429 551.638 163.069 551.776C162.709 551.914 162.448 552.112 162.286 552.37C162.124 552.628 162.043 552.94 162.043 553.306V553.342C162.043 553.714 162.121 554.032 162.277 554.296C162.439 554.56 162.718 554.788 163.114 554.98C163.516 555.172 164.086 555.358 164.824 555.538C165.67 555.736 166.348 555.964 166.858 556.222C167.368 556.48 167.737 556.816 167.965 557.23C168.199 557.644 168.316 558.184 168.316 558.85V559.039C168.316 560.077 167.98 560.866 167.308 561.406C166.642 561.94 165.643 562.207 164.311 562.207ZM170.332 562V553.216H171.79V562H170.332ZM171.061 551.776C170.761 551.776 170.536 551.698 170.386 551.542C170.242 551.38 170.17 551.161 170.17 550.885V550.84C170.17 550.558 170.242 550.339 170.386 550.183C170.536 550.027 170.761 549.949 171.061 549.949C171.361 549.949 171.586 550.027 171.736 550.183C171.886 550.339 171.961 550.558 171.961 550.84V550.885C171.961 551.167 171.886 551.386 171.736 551.542C171.586 551.698 171.361 551.776 171.061 551.776ZM177.628 559.372C176.434 559.372 175.516 559.111 174.874 558.589C174.238 558.067 173.92 557.32 173.92 556.348V556.123C173.92 555.517 174.043 554.989 174.289 554.539C174.541 554.089 174.94 553.738 175.486 553.486C176.032 553.228 176.746 553.087 177.628 553.063L182.11 552.919V554.071L179.464 553.981L179.455 554.044C179.869 554.128 180.208 554.272 180.472 554.476C180.736 554.68 180.931 554.935 181.057 555.241C181.189 555.547 181.255 555.904 181.255 556.312V556.51C181.255 557.44 180.949 558.151 180.337 558.643C179.725 559.129 178.822 559.372 177.628 559.372ZM177.565 564.214H177.772C178.312 564.214 178.774 564.172 179.158 564.088C179.548 564.01 179.848 563.884 180.058 563.71C180.268 563.536 180.373 563.305 180.373 563.017V562.981C180.373 562.645 180.25 562.387 180.004 562.207C179.764 562.033 179.35 561.919 178.762 561.865L176.278 561.64L176.692 561.622C176.356 561.67 176.059 561.748 175.801 561.856C175.549 561.964 175.351 562.105 175.207 562.279C175.063 562.459 174.991 562.681 174.991 562.945V562.963C174.991 563.269 175.096 563.515 175.306 563.701C175.516 563.887 175.813 564.019 176.197 564.097C176.581 564.175 177.037 564.214 177.565 564.214ZM177.484 565.375C176.692 565.375 176.008 565.306 175.432 565.168C174.862 565.036 174.418 564.817 174.1 564.511C173.788 564.211 173.632 563.806 173.632 563.296V563.26C173.632 562.9 173.716 562.6 173.884 562.36C174.058 562.12 174.289 561.931 174.577 561.793C174.871 561.655 175.198 561.562 175.558 561.514L175.549 561.46C175.057 561.376 174.694 561.232 174.46 561.028C174.226 560.818 174.109 560.548 174.109 560.218V560.209C174.109 559.981 174.16 559.786 174.262 559.624C174.37 559.462 174.529 559.333 174.739 559.237C174.955 559.141 175.228 559.081 175.558 559.057V558.877L177.232 559.3L176.548 559.282C176.14 559.288 175.858 559.339 175.702 559.435C175.546 559.525 175.468 559.663 175.468 559.849V559.858C175.468 560.056 175.579 560.206 175.801 560.308C176.023 560.41 176.401 560.491 176.935 560.551L179.068 560.767C179.998 560.863 180.676 561.088 181.102 561.442C181.528 561.79 181.741 562.306 181.741 562.99V563.035C181.741 563.581 181.579 564.028 181.255 564.376C180.931 564.724 180.472 564.976 179.878 565.132C179.284 565.294 178.573 565.375 177.745 565.375H177.484ZM177.61 558.292C178.114 558.292 178.531 558.22 178.861 558.076C179.197 557.926 179.449 557.704 179.617 557.41C179.791 557.11 179.878 556.744 179.878 556.312V556.096C179.878 555.676 179.794 555.319 179.626 555.025C179.464 554.731 179.218 554.509 178.888 554.359C178.558 554.203 178.144 554.125 177.646 554.125H177.592C177.052 554.125 176.611 554.209 176.269 554.377C175.933 554.539 175.687 554.77 175.531 555.07C175.381 555.364 175.306 555.709 175.306 556.105V556.312C175.306 556.744 175.39 557.107 175.558 557.401C175.732 557.695 175.99 557.917 176.332 558.067C176.674 558.217 177.1 558.292 177.61 558.292ZM189.313 562V556.537C189.313 556.063 189.247 555.655 189.115 555.313C188.989 554.971 188.779 554.707 188.485 554.521C188.197 554.329 187.801 554.233 187.297 554.233C186.835 554.233 186.433 554.32 186.091 554.494C185.755 554.668 185.482 554.905 185.272 555.205C185.062 555.499 184.915 555.835 184.831 556.213L184.57 555.178H184.885C184.981 554.782 185.149 554.422 185.389 554.098C185.629 553.768 185.95 553.507 186.352 553.315C186.76 553.117 187.258 553.018 187.846 553.018C188.542 553.018 189.103 553.15 189.529 553.414C189.961 553.678 190.276 554.059 190.474 554.557C190.672 555.049 190.771 555.655 190.771 556.375V562H189.313ZM183.436 562V553.216H184.894L184.831 555.322L184.894 555.403V562H183.436ZM192.953 557.878V556.681H198.065V557.878H192.953ZM204.558 562.216C203.106 562.216 202.002 561.817 201.246 561.019C200.49 560.215 200.112 559.066 200.112 557.572V554.917C200.112 553.429 200.49 552.286 201.246 551.488C202.002 550.684 203.106 550.282 204.558 550.282C206.01 550.282 207.114 550.684 207.87 551.488C208.626 552.286 209.004 553.429 209.004 554.917V557.572C209.004 559.066 208.626 560.215 207.87 561.019C207.114 561.817 206.01 562.216 204.558 562.216ZM204.558 560.965C205.53 560.965 206.262 560.677 206.754 560.101C207.246 559.519 207.492 558.697 207.492 557.635V554.854C207.492 553.792 207.246 552.973 206.754 552.397C206.262 551.821 205.53 551.533 204.558 551.533C203.592 551.533 202.863 551.821 202.371 552.397C201.879 552.973 201.633 553.792 201.633 554.854V557.635C201.633 558.697 201.879 559.519 202.371 560.101C202.863 560.677 203.592 560.965 204.558 560.965ZM214.161 549.832C214.611 549.832 215.013 549.874 215.367 549.958C215.727 550.036 216.057 550.135 216.357 550.255L216.501 551.398C216.207 551.29 215.91 551.206 215.61 551.146C215.316 551.08 214.983 551.047 214.611 551.047C214.161 551.047 213.798 551.107 213.522 551.227C213.252 551.341 213.057 551.506 212.937 551.722C212.823 551.932 212.766 552.187 212.766 552.487V552.532C212.766 552.742 212.793 552.943 212.847 553.135C212.901 553.321 212.961 553.492 213.027 553.648L212.046 553.684V553.504C211.86 553.36 211.695 553.159 211.551 552.901C211.413 552.643 211.344 552.343 211.344 552.001V551.956C211.344 551.314 211.572 550.801 212.028 550.417C212.484 550.027 213.195 549.832 214.161 549.832ZM211.641 562V553.999H213.09V562H211.641ZM210.192 554.71V553.549L212.199 553.558L212.793 553.549H216.465L216.33 554.71H210.192ZM219.921 549.832C220.371 549.832 220.773 549.874 221.127 549.958C221.487 550.036 221.817 550.135 222.117 550.255L222.261 551.398C221.967 551.29 221.67 551.206 221.37 551.146C221.076 551.08 220.743 551.047 220.371 551.047C219.921 551.047 219.558 551.107 219.282 551.227C219.012 551.341 218.817 551.506 218.697 551.722C218.583 551.932 218.526 552.187 218.526 552.487V552.532C218.526 552.742 218.553 552.943 218.607 553.135C218.661 553.321 218.721 553.492 218.787 553.648L217.806 553.684V553.504C217.62 553.36 217.455 553.159 217.311 552.901C217.173 552.643 217.104 552.343 217.104 552.001V551.956C217.104 551.314 217.332 550.801 217.788 550.417C218.244 550.027 218.955 549.832 219.921 549.832ZM217.401 562V553.999H218.85V562H217.401ZM215.952 554.71V553.549L217.959 553.558L218.553 553.549H222.225L222.09 554.71H215.952Z" fill="#171A1F"/>
<circle cx="265" cy="484" r="10" fill="#FF5959"/>
<path d="M289.331 486.175V484.933H292.598C293.384 484.933 293.954 484.738 294.308 484.348C294.662 483.952 294.839 483.409 294.839 482.719V481.936C294.839 481.234 294.662 480.691 294.308 480.307C293.96 479.923 293.396 479.731 292.616 479.731H289.322V478.498H292.643C293.927 478.498 294.86 478.801 295.442 479.407C296.03 480.007 296.324 480.835 296.324 481.891V482.755C296.324 483.823 296.027 484.66 295.433 485.266C294.845 485.872 293.912 486.175 292.634 486.175H289.331ZM288.359 490V478.498H289.826V485.302L289.835 485.968V490H288.359ZM301.845 490.198C300.507 490.198 299.499 489.871 298.821 489.217C298.143 488.563 297.804 487.627 297.804 486.409V484.843C297.804 483.607 298.119 482.656 298.749 481.99C299.379 481.318 300.3 480.982 301.512 480.982C302.328 480.982 303.009 481.135 303.555 481.441C304.101 481.741 304.512 482.17 304.788 482.728C305.064 483.286 305.202 483.952 305.202 484.726V485.05C305.202 485.242 305.193 485.434 305.175 485.626C305.163 485.818 305.145 486.007 305.121 486.193H303.78C303.792 485.905 303.798 485.632 303.798 485.374C303.804 485.116 303.807 484.879 303.807 484.663C303.807 484.129 303.72 483.679 303.546 483.313C303.378 482.941 303.123 482.659 302.781 482.467C302.445 482.269 302.022 482.17 301.512 482.17C300.756 482.17 300.189 482.389 299.811 482.827C299.433 483.265 299.244 483.892 299.244 484.708V485.545L299.253 485.725V486.562C299.253 486.928 299.307 487.258 299.415 487.552C299.523 487.846 299.691 488.101 299.919 488.317C300.153 488.527 300.447 488.689 300.801 488.803C301.161 488.911 301.587 488.965 302.079 488.965C302.649 488.965 303.18 488.89 303.672 488.74C304.164 488.59 304.626 488.386 305.058 488.128L304.923 489.388C304.533 489.634 304.08 489.832 303.564 489.982C303.048 490.126 302.475 490.198 301.845 490.198ZM298.569 486.193V485.095H304.815V486.193H298.569ZM313.014 490V484.537C313.014 484.063 312.948 483.655 312.816 483.313C312.69 482.971 312.48 482.707 312.186 482.521C311.898 482.329 311.502 482.233 310.998 482.233C310.536 482.233 310.134 482.32 309.792 482.494C309.456 482.668 309.183 482.905 308.973 483.205C308.763 483.499 308.616 483.835 308.532 484.213L308.271 483.178H308.586C308.682 482.782 308.85 482.422 309.09 482.098C309.33 481.768 309.651 481.507 310.053 481.315C310.461 481.117 310.959 481.018 311.547 481.018C312.243 481.018 312.804 481.15 313.23 481.414C313.662 481.678 313.977 482.059 314.175 482.557C314.373 483.049 314.472 483.655 314.472 484.375V490H313.014ZM307.137 490V481.216H308.595L308.532 483.322L308.595 483.403V490H307.137ZM319.633 490.189C318.577 490.189 317.773 489.862 317.221 489.208C316.669 488.554 316.393 487.6 316.393 486.346V484.897C316.393 483.637 316.672 482.677 317.23 482.017C317.788 481.351 318.61 481.018 319.696 481.018C320.236 481.018 320.704 481.111 321.1 481.297C321.496 481.477 321.817 481.732 322.063 482.062C322.309 482.392 322.474 482.782 322.558 483.232H323.035L322.603 484.573C322.585 484.057 322.468 483.625 322.252 483.277C322.042 482.923 321.754 482.656 321.388 482.476C321.028 482.296 320.614 482.206 320.146 482.206C319.402 482.206 318.832 482.422 318.436 482.854C318.046 483.286 317.851 483.922 317.851 484.762V486.436C317.851 487.264 318.046 487.894 318.436 488.326C318.832 488.758 319.402 488.974 320.146 488.974C320.59 488.974 320.983 488.89 321.325 488.722C321.667 488.548 321.949 488.311 322.171 488.011C322.399 487.705 322.555 487.36 322.639 486.976L322.999 488.02H322.567C322.483 488.416 322.321 488.779 322.081 489.109C321.847 489.439 321.529 489.703 321.127 489.901C320.731 490.093 320.233 490.189 319.633 490.189ZM322.567 490L322.63 487.876L322.603 487.408V483.736L322.612 483.43L322.576 480.937V478.075H324.025V490H322.567ZM326.43 490V481.216H327.888V490H326.43ZM327.159 479.776C326.859 479.776 326.634 479.698 326.484 479.542C326.34 479.38 326.268 479.161 326.268 478.885V478.84C326.268 478.558 326.34 478.339 326.484 478.183C326.634 478.027 326.859 477.949 327.159 477.949C327.459 477.949 327.684 478.027 327.834 478.183C327.984 478.339 328.059 478.558 328.059 478.84V478.885C328.059 479.167 327.984 479.386 327.834 479.542C327.684 479.698 327.459 479.776 327.159 479.776ZM336.182 490V484.537C336.182 484.063 336.116 483.655 335.984 483.313C335.858 482.971 335.648 482.707 335.354 482.521C335.066 482.329 334.67 482.233 334.166 482.233C333.704 482.233 333.302 482.32 332.96 482.494C332.624 482.668 332.351 482.905 332.141 483.205C331.931 483.499 331.784 483.835 331.7 484.213L331.439 483.178H331.754C331.85 482.782 332.018 482.422 332.258 482.098C332.498 481.768 332.819 481.507 333.221 481.315C333.629 481.117 334.127 481.018 334.715 481.018C335.411 481.018 335.972 481.15 336.398 481.414C336.83 481.678 337.145 482.059 337.343 482.557C337.541 483.049 337.64 483.655 337.64 484.375V490H336.182ZM330.305 490V481.216H331.763L331.7 483.322L331.763 483.403V490H330.305ZM343.323 487.372C342.129 487.372 341.211 487.111 340.569 486.589C339.933 486.067 339.615 485.32 339.615 484.348V484.123C339.615 483.517 339.738 482.989 339.984 482.539C340.236 482.089 340.635 481.738 341.181 481.486C341.727 481.228 342.441 481.087 343.323 481.063L347.805 480.919V482.071L345.159 481.981L345.15 482.044C345.564 482.128 345.903 482.272 346.167 482.476C346.431 482.68 346.626 482.935 346.752 483.241C346.884 483.547 346.95 483.904 346.95 484.312V484.51C346.95 485.44 346.644 486.151 346.032 486.643C345.42 487.129 344.517 487.372 343.323 487.372ZM343.26 492.214H343.467C344.007 492.214 344.469 492.172 344.853 492.088C345.243 492.01 345.543 491.884 345.753 491.71C345.963 491.536 346.068 491.305 346.068 491.017V490.981C346.068 490.645 345.945 490.387 345.699 490.207C345.459 490.033 345.045 489.919 344.457 489.865L341.973 489.64L342.387 489.622C342.051 489.67 341.754 489.748 341.496 489.856C341.244 489.964 341.046 490.105 340.902 490.279C340.758 490.459 340.686 490.681 340.686 490.945V490.963C340.686 491.269 340.791 491.515 341.001 491.701C341.211 491.887 341.508 492.019 341.892 492.097C342.276 492.175 342.732 492.214 343.26 492.214ZM343.179 493.375C342.387 493.375 341.703 493.306 341.127 493.168C340.557 493.036 340.113 492.817 339.795 492.511C339.483 492.211 339.327 491.806 339.327 491.296V491.26C339.327 490.9 339.411 490.6 339.579 490.36C339.753 490.12 339.984 489.931 340.272 489.793C340.566 489.655 340.893 489.562 341.253 489.514L341.244 489.46C340.752 489.376 340.389 489.232 340.155 489.028C339.921 488.818 339.804 488.548 339.804 488.218V488.209C339.804 487.981 339.855 487.786 339.957 487.624C340.065 487.462 340.224 487.333 340.434 487.237C340.65 487.141 340.923 487.081 341.253 487.057V486.877L342.927 487.3L342.243 487.282C341.835 487.288 341.553 487.339 341.397 487.435C341.241 487.525 341.163 487.663 341.163 487.849V487.858C341.163 488.056 341.274 488.206 341.496 488.308C341.718 488.41 342.096 488.491 342.63 488.551L344.763 488.767C345.693 488.863 346.371 489.088 346.797 489.442C347.223 489.79 347.436 490.306 347.436 490.99V491.035C347.436 491.581 347.274 492.028 346.95 492.376C346.626 492.724 346.167 492.976 345.573 493.132C344.979 493.294 344.268 493.375 343.44 493.375H343.179ZM343.305 486.292C343.809 486.292 344.226 486.22 344.556 486.076C344.892 485.926 345.144 485.704 345.312 485.41C345.486 485.11 345.573 484.744 345.573 484.312V484.096C345.573 483.676 345.489 483.319 345.321 483.025C345.159 482.731 344.913 482.509 344.583 482.359C344.253 482.203 343.839 482.125 343.341 482.125H343.287C342.747 482.125 342.306 482.209 341.964 482.377C341.628 482.539 341.382 482.77 341.226 483.07C341.076 483.364 341.001 483.709 341.001 484.105V484.312C341.001 484.744 341.085 485.107 341.253 485.401C341.427 485.695 341.685 485.917 342.027 486.067C342.369 486.217 342.795 486.292 343.305 486.292ZM354.787 478.498L359.458 488.398H359.566L359.503 483.376V478.498H360.961V490H358.747L354.022 480.019H353.914L353.977 485.275V490H352.519V478.498H354.787ZM367.524 490.207C366.102 490.207 365.034 489.808 364.32 489.01C363.612 488.212 363.258 487.078 363.258 485.608V482.881C363.258 481.411 363.612 480.28 364.32 479.488C365.028 478.69 366.09 478.291 367.506 478.291C367.962 478.291 368.376 478.333 368.748 478.417C369.126 478.501 369.462 478.609 369.756 478.741C370.05 478.873 370.299 479.011 370.503 479.155L370.629 480.541C370.275 480.289 369.858 480.07 369.378 479.884C368.904 479.692 368.346 479.596 367.704 479.596C366.738 479.596 366.009 479.884 365.517 480.46C365.025 481.03 364.779 481.843 364.779 482.899V485.554C364.779 486.604 365.028 487.42 365.526 488.002C366.024 488.578 366.768 488.866 367.758 488.866C368.394 488.866 368.955 488.773 369.441 488.587C369.933 488.401 370.359 488.173 370.719 487.903L370.593 489.325C370.389 489.469 370.137 489.61 369.837 489.748C369.537 489.886 369.192 489.997 368.802 490.081C368.418 490.165 367.992 490.207 367.524 490.207ZM379.527 490L379.203 487.642C379.143 487.198 379.041 486.814 378.897 486.49C378.753 486.16 378.531 485.902 378.231 485.716C377.937 485.53 377.517 485.437 376.971 485.437L373.848 485.428V484.249L377.187 484.24C377.973 484.24 378.534 484.048 378.87 483.664C379.206 483.274 379.374 482.746 379.374 482.08V481.81C379.374 481.15 379.203 480.64 378.861 480.28C378.519 479.914 377.949 479.731 377.151 479.731H373.803V478.498H377.349C378.585 478.498 379.482 478.771 380.04 479.317C380.604 479.857 380.886 480.604 380.886 481.558V481.864C380.886 482.614 380.709 483.229 380.355 483.709C380.001 484.183 379.413 484.471 378.591 484.573V484.753L377.952 484.528C378.618 484.576 379.131 484.723 379.491 484.969C379.857 485.209 380.124 485.539 380.292 485.959C380.46 486.379 380.589 486.883 380.679 487.471L381.066 490H379.527ZM372.822 490V478.498H374.289V484.645L374.298 485.212V490H372.822Z" fill="#171A1F"/>
<circle cx="265" cy="520" r="10" fill="#FF71C6"/>
<path d="M291.563 526.207C291.011 526.207 290.504 526.162 290.042 526.072C289.586 525.982 289.178 525.871 288.818 525.739C288.458 525.607 288.158 525.475 287.918 525.343L287.765 523.858C288.227 524.134 288.77 524.377 289.394 524.587C290.024 524.791 290.708 524.893 291.446 524.893C292.334 524.893 292.991 524.737 293.417 524.425C293.843 524.107 294.056 523.633 294.056 523.003V522.859C294.056 522.445 293.972 522.106 293.804 521.842C293.636 521.578 293.351 521.356 292.949 521.176C292.553 520.996 292.013 520.828 291.329 520.672C290.465 520.468 289.772 520.228 289.25 519.952C288.734 519.67 288.359 519.319 288.125 518.899C287.897 518.479 287.783 517.957 287.783 517.333V517.252C287.783 516.31 288.092 515.584 288.71 515.074C289.328 514.558 290.264 514.3 291.518 514.3C292.34 514.3 293.039 514.384 293.615 514.552C294.197 514.72 294.671 514.906 295.037 515.11L295.172 516.478C294.746 516.226 294.248 516.013 293.678 515.839C293.114 515.659 292.466 515.569 291.734 515.569C291.152 515.569 290.681 515.638 290.321 515.776C289.961 515.914 289.7 516.112 289.538 516.37C289.376 516.628 289.295 516.94 289.295 517.306V517.342C289.295 517.714 289.373 518.032 289.529 518.296C289.691 518.56 289.97 518.788 290.366 518.98C290.768 519.172 291.338 519.358 292.076 519.538C292.922 519.736 293.6 519.964 294.11 520.222C294.62 520.48 294.989 520.816 295.217 521.23C295.451 521.644 295.568 522.184 295.568 522.85V523.039C295.568 524.077 295.232 524.866 294.56 525.406C293.894 525.94 292.895 526.207 291.563 526.207ZM297.584 526V517.216H299.042V526H297.584ZM298.313 515.776C298.013 515.776 297.788 515.698 297.638 515.542C297.494 515.38 297.422 515.161 297.422 514.885V514.84C297.422 514.558 297.494 514.339 297.638 514.183C297.788 514.027 298.013 513.949 298.313 513.949C298.613 513.949 298.838 514.027 298.988 514.183C299.138 514.339 299.213 514.558 299.213 514.84V514.885C299.213 515.167 299.138 515.386 298.988 515.542C298.838 515.698 298.613 515.776 298.313 515.776ZM304.879 523.372C303.685 523.372 302.767 523.111 302.125 522.589C301.489 522.067 301.171 521.32 301.171 520.348V520.123C301.171 519.517 301.294 518.989 301.54 518.539C301.792 518.089 302.191 517.738 302.737 517.486C303.283 517.228 303.997 517.087 304.879 517.063L309.361 516.919V518.071L306.715 517.981L306.706 518.044C307.12 518.128 307.459 518.272 307.723 518.476C307.987 518.68 308.182 518.935 308.308 519.241C308.44 519.547 308.506 519.904 308.506 520.312V520.51C308.506 521.44 308.2 522.151 307.588 522.643C306.976 523.129 306.073 523.372 304.879 523.372ZM304.816 528.214H305.023C305.563 528.214 306.025 528.172 306.409 528.088C306.799 528.01 307.099 527.884 307.309 527.71C307.519 527.536 307.624 527.305 307.624 527.017V526.981C307.624 526.645 307.501 526.387 307.255 526.207C307.015 526.033 306.601 525.919 306.013 525.865L303.529 525.64L303.943 525.622C303.607 525.67 303.31 525.748 303.052 525.856C302.8 525.964 302.602 526.105 302.458 526.279C302.314 526.459 302.242 526.681 302.242 526.945V526.963C302.242 527.269 302.347 527.515 302.557 527.701C302.767 527.887 303.064 528.019 303.448 528.097C303.832 528.175 304.288 528.214 304.816 528.214ZM304.735 529.375C303.943 529.375 303.259 529.306 302.683 529.168C302.113 529.036 301.669 528.817 301.351 528.511C301.039 528.211 300.883 527.806 300.883 527.296V527.26C300.883 526.9 300.967 526.6 301.135 526.36C301.309 526.12 301.54 525.931 301.828 525.793C302.122 525.655 302.449 525.562 302.809 525.514L302.8 525.46C302.308 525.376 301.945 525.232 301.711 525.028C301.477 524.818 301.36 524.548 301.36 524.218V524.209C301.36 523.981 301.411 523.786 301.513 523.624C301.621 523.462 301.78 523.333 301.99 523.237C302.206 523.141 302.479 523.081 302.809 523.057V522.877L304.483 523.3L303.799 523.282C303.391 523.288 303.109 523.339 302.953 523.435C302.797 523.525 302.719 523.663 302.719 523.849V523.858C302.719 524.056 302.83 524.206 303.052 524.308C303.274 524.41 303.652 524.491 304.186 524.551L306.319 524.767C307.249 524.863 307.927 525.088 308.353 525.442C308.779 525.79 308.992 526.306 308.992 526.99V527.035C308.992 527.581 308.83 528.028 308.506 528.376C308.182 528.724 307.723 528.976 307.129 529.132C306.535 529.294 305.824 529.375 304.996 529.375H304.735ZM304.861 522.292C305.365 522.292 305.782 522.22 306.112 522.076C306.448 521.926 306.7 521.704 306.868 521.41C307.042 521.11 307.129 520.744 307.129 520.312V520.096C307.129 519.676 307.045 519.319 306.877 519.025C306.715 518.731 306.469 518.509 306.139 518.359C305.809 518.203 305.395 518.125 304.897 518.125H304.843C304.303 518.125 303.862 518.209 303.52 518.377C303.184 518.539 302.938 518.77 302.782 519.07C302.632 519.364 302.557 519.709 302.557 520.105V520.312C302.557 520.744 302.641 521.107 302.809 521.401C302.983 521.695 303.241 521.917 303.583 522.067C303.925 522.217 304.351 522.292 304.861 522.292ZM316.565 526V520.537C316.565 520.063 316.499 519.655 316.367 519.313C316.241 518.971 316.031 518.707 315.737 518.521C315.449 518.329 315.053 518.233 314.549 518.233C314.087 518.233 313.685 518.32 313.343 518.494C313.007 518.668 312.734 518.905 312.524 519.205C312.314 519.499 312.167 519.835 312.083 520.213L311.822 519.178H312.137C312.233 518.782 312.401 518.422 312.641 518.098C312.881 517.768 313.202 517.507 313.604 517.315C314.012 517.117 314.51 517.018 315.098 517.018C315.794 517.018 316.355 517.15 316.781 517.414C317.213 517.678 317.528 518.059 317.726 518.557C317.924 519.049 318.023 519.655 318.023 520.375V526H316.565ZM310.688 526V517.216H312.146L312.083 519.322L312.146 519.403V526H310.688ZM323.976 526.198C322.638 526.198 321.63 525.871 320.952 525.217C320.274 524.563 319.935 523.627 319.935 522.409V520.843C319.935 519.607 320.25 518.656 320.88 517.99C321.51 517.318 322.431 516.982 323.643 516.982C324.459 516.982 325.14 517.135 325.686 517.441C326.232 517.741 326.643 518.17 326.919 518.728C327.195 519.286 327.333 519.952 327.333 520.726V521.05C327.333 521.242 327.324 521.434 327.306 521.626C327.294 521.818 327.276 522.007 327.252 522.193H325.911C325.923 521.905 325.929 521.632 325.929 521.374C325.935 521.116 325.938 520.879 325.938 520.663C325.938 520.129 325.851 519.679 325.677 519.313C325.509 518.941 325.254 518.659 324.912 518.467C324.576 518.269 324.153 518.17 323.643 518.17C322.887 518.17 322.32 518.389 321.942 518.827C321.564 519.265 321.375 519.892 321.375 520.708V521.545L321.384 521.725V522.562C321.384 522.928 321.438 523.258 321.546 523.552C321.654 523.846 321.822 524.101 322.05 524.317C322.284 524.527 322.578 524.689 322.932 524.803C323.292 524.911 323.718 524.965 324.21 524.965C324.78 524.965 325.311 524.89 325.803 524.74C326.295 524.59 326.757 524.386 327.189 524.128L327.054 525.388C326.664 525.634 326.211 525.832 325.695 525.982C325.179 526.126 324.606 526.198 323.976 526.198ZM320.7 522.193V521.095H326.946V522.193H320.7ZM332.184 526.189C331.128 526.189 330.324 525.862 329.772 525.208C329.22 524.554 328.944 523.6 328.944 522.346V520.897C328.944 519.637 329.223 518.677 329.781 518.017C330.339 517.351 331.161 517.018 332.247 517.018C332.787 517.018 333.255 517.111 333.651 517.297C334.047 517.477 334.368 517.732 334.614 518.062C334.86 518.392 335.025 518.782 335.109 519.232H335.586L335.154 520.573C335.136 520.057 335.019 519.625 334.803 519.277C334.593 518.923 334.305 518.656 333.939 518.476C333.579 518.296 333.165 518.206 332.697 518.206C331.953 518.206 331.383 518.422 330.987 518.854C330.597 519.286 330.402 519.922 330.402 520.762V522.436C330.402 523.264 330.597 523.894 330.987 524.326C331.383 524.758 331.953 524.974 332.697 524.974C333.141 524.974 333.534 524.89 333.876 524.722C334.218 524.548 334.5 524.311 334.722 524.011C334.95 523.705 335.106 523.36 335.19 522.976L335.55 524.02H335.118C335.034 524.416 334.872 524.779 334.632 525.109C334.398 525.439 334.08 525.703 333.678 525.901C333.282 526.093 332.784 526.189 332.184 526.189ZM335.118 526L335.181 523.876L335.154 523.408V519.736L335.163 519.43L335.127 516.937V514.075H336.576V526H335.118ZM338.873 521.878V520.681H343.985V521.878H338.873ZM350.478 526.216C349.026 526.216 347.922 525.817 347.166 525.019C346.41 524.215 346.032 523.066 346.032 521.572V518.917C346.032 517.429 346.41 516.286 347.166 515.488C347.922 514.684 349.026 514.282 350.478 514.282C351.93 514.282 353.034 514.684 353.79 515.488C354.546 516.286 354.924 517.429 354.924 518.917V521.572C354.924 523.066 354.546 524.215 353.79 525.019C353.034 525.817 351.93 526.216 350.478 526.216ZM350.478 524.965C351.45 524.965 352.182 524.677 352.674 524.101C353.166 523.519 353.412 522.697 353.412 521.635V518.854C353.412 517.792 353.166 516.973 352.674 516.397C352.182 515.821 351.45 515.533 350.478 515.533C349.512 515.533 348.783 515.821 348.291 516.397C347.799 516.973 347.553 517.792 347.553 518.854V521.635C347.553 522.697 347.799 523.519 348.291 524.101C348.783 524.677 349.512 524.965 350.478 524.965ZM360.081 513.832C360.531 513.832 360.933 513.874 361.287 513.958C361.647 514.036 361.977 514.135 362.277 514.255L362.421 515.398C362.127 515.29 361.83 515.206 361.53 515.146C361.236 515.08 360.903 515.047 360.531 515.047C360.081 515.047 359.718 515.107 359.442 515.227C359.172 515.341 358.977 515.506 358.857 515.722C358.743 515.932 358.686 516.187 358.686 516.487V516.532C358.686 516.742 358.713 516.943 358.767 517.135C358.821 517.321 358.881 517.492 358.947 517.648L357.966 517.684V517.504C357.78 517.36 357.615 517.159 357.471 516.901C357.333 516.643 357.264 516.343 357.264 516.001V515.956C357.264 515.314 357.492 514.801 357.948 514.417C358.404 514.027 359.115 513.832 360.081 513.832ZM357.561 526V517.999H359.01V526H357.561ZM356.112 518.71V517.549L358.119 517.558L358.713 517.549H362.385L362.25 518.71H356.112ZM365.841 513.832C366.291 513.832 366.693 513.874 367.047 513.958C367.407 514.036 367.737 514.135 368.037 514.255L368.181 515.398C367.887 515.29 367.59 515.206 367.29 515.146C366.996 515.08 366.663 515.047 366.291 515.047C365.841 515.047 365.478 515.107 365.202 515.227C364.932 515.341 364.737 515.506 364.617 515.722C364.503 515.932 364.446 516.187 364.446 516.487V516.532C364.446 516.742 364.473 516.943 364.527 517.135C364.581 517.321 364.641 517.492 364.707 517.648L363.726 517.684V517.504C363.54 517.36 363.375 517.159 363.231 516.901C363.093 516.643 363.024 516.343 363.024 516.001V515.956C363.024 515.314 363.252 514.801 363.708 514.417C364.164 514.027 364.875 513.832 365.841 513.832ZM363.321 526V517.999H364.77V526H363.321ZM361.872 518.71V517.549L363.879 517.558L364.473 517.549H368.145L368.01 518.71H361.872Z" fill="#171A1F"/>
<circle cx="265" cy="556" r="10" fill="#52EB61"/>
<path d="M289.853 562H288.359V550.498H289.853V562ZM289.16 560.731H295.226V562H289.16V560.731ZM302.1 562L302.163 559.867L302.109 559.642V556.843L302.118 556.33C302.118 555.616 301.935 555.088 301.569 554.746C301.209 554.404 300.636 554.233 299.85 554.233C299.22 554.233 298.641 554.323 298.113 554.503C297.591 554.683 297.126 554.893 296.718 555.133L296.853 553.891C297.081 553.753 297.351 553.618 297.663 553.486C297.981 553.348 298.341 553.234 298.743 553.144C299.151 553.054 299.598 553.009 300.084 553.009C300.714 553.009 301.248 553.087 301.686 553.243C302.13 553.393 302.487 553.612 302.757 553.9C303.033 554.188 303.234 554.536 303.36 554.944C303.486 555.352 303.549 555.808 303.549 556.312V562H302.1ZM299.076 562.189C298.206 562.189 297.537 561.979 297.069 561.559C296.607 561.133 296.376 560.527 296.376 559.741V559.48C296.376 558.67 296.625 558.067 297.123 557.671C297.627 557.269 298.425 556.99 299.517 556.834L302.298 556.438L302.379 557.5L299.697 557.887C299.025 557.983 298.545 558.148 298.257 558.382C297.969 558.61 297.825 558.949 297.825 559.399V559.543C297.825 560.005 297.966 560.359 298.248 560.605C298.536 560.851 298.965 560.974 299.535 560.974C300.039 560.974 300.471 560.887 300.831 560.713C301.191 560.539 301.482 560.305 301.704 560.011C301.926 559.717 302.076 559.39 302.154 559.03L302.379 560.02H302.1C302.016 560.404 301.857 560.761 301.623 561.091C301.395 561.421 301.074 561.688 300.66 561.892C300.246 562.09 299.718 562.189 299.076 562.189ZM308.891 562.18C308.213 562.18 307.667 562.078 307.253 561.874C306.839 561.67 306.539 561.361 306.353 560.947C306.167 560.533 306.074 560.017 306.074 559.399V553.855H307.514V559.228C307.514 559.804 307.646 560.23 307.91 560.506C308.174 560.776 308.618 560.911 309.242 560.911C309.596 560.911 309.935 560.872 310.259 560.794C310.589 560.716 310.898 560.605 311.186 560.461L311.051 561.712C310.769 561.856 310.439 561.97 310.061 562.054C309.683 562.138 309.293 562.18 308.891 562.18ZM304.634 554.512V553.342H311.096L310.961 554.512H304.634ZM306.083 553.486L306.074 551.02L307.541 550.831L307.478 553.486H306.083ZM316.259 562.198C314.921 562.198 313.913 561.871 313.235 561.217C312.557 560.563 312.218 559.627 312.218 558.409V556.843C312.218 555.607 312.533 554.656 313.163 553.99C313.793 553.318 314.714 552.982 315.926 552.982C316.742 552.982 317.423 553.135 317.969 553.441C318.515 553.741 318.926 554.17 319.202 554.728C319.478 555.286 319.616 555.952 319.616 556.726V557.05C319.616 557.242 319.607 557.434 319.589 557.626C319.577 557.818 319.559 558.007 319.535 558.193H318.194C318.206 557.905 318.212 557.632 318.212 557.374C318.218 557.116 318.221 556.879 318.221 556.663C318.221 556.129 318.134 555.679 317.96 555.313C317.792 554.941 317.537 554.659 317.195 554.467C316.859 554.269 316.436 554.17 315.926 554.17C315.17 554.17 314.603 554.389 314.225 554.827C313.847 555.265 313.658 555.892 313.658 556.708V557.545L313.667 557.725V558.562C313.667 558.928 313.721 559.258 313.829 559.552C313.937 559.846 314.105 560.101 314.333 560.317C314.567 560.527 314.861 560.689 315.215 560.803C315.575 560.911 316.001 560.965 316.493 560.965C317.063 560.965 317.594 560.89 318.086 560.74C318.578 560.59 319.04 560.386 319.472 560.128L319.337 561.388C318.947 561.634 318.494 561.832 317.978 561.982C317.462 562.126 316.889 562.198 316.259 562.198ZM312.983 558.193V557.095H319.229V558.193H312.983Z" fill="#171A1F"/>
<defs>
<filter id="filter0_d_64_7502" x="65" y="70" width="320" height="320" filterUnits="userSpaceOnUse" color-interpolation-filters="sRGB">
<feFlood flood-opacity="0" result="BackgroundImageFix"/>
<feColorMatrix in="SourceAlpha" type="matrix" values="0 0 0 0 0 0 0 0 0 0 0 0 0 0 0 0 0 0 127 0" result="hardAlpha"/>
<feOffset dy="5"/>
<feGaussianBlur stdDeviation="12.5"/>
<feColorMatrix type="matrix" values="0 0 0 0 0 0 0 0 0 0 0 0 0 0 0 0 0 0 0.1 0"/>
<feBlend mode="normal" in2="BackgroundImageFix" result="effect1_dropShadow_64_7502"/>
<feBlend mode="normal" in="SourceGraphic" in2="effect1_dropShadow_64_7502" result="shape"/>
</filter>
</defs>
</svg>
