<svg width="1067" height="569" viewBox="0 0 1067 569" fill="none" xmlns="http://www.w3.org/2000/svg">
<mask id="mask0_75_3459" style="mask-type:alpha" maskUnits="userSpaceOnUse" x="0" y="0" width="1067" height="569">
<rect width="1067" height="569" fill="#D9D9D9"/>
</mask>
<g mask="url(#mask0_75_3459)">
<mask id="mask1_75_3459" style="mask-type:alpha" maskUnits="userSpaceOnUse" x="-1" y="0" width="1069" height="569">
<rect x="-0.0126953" width="1067.03" height="569" fill="#D9D9D9"/>
</mask>
<g mask="url(#mask1_75_3459)">
<circle cx="532.898" cy="569" r="348.966" fill="#1A468F"/>
<circle opacity="0.2" cx="532.898" cy="569" r="462.538" stroke="#1F48DA" stroke-width="1.20296"/>
<circle opacity="0.4" cx="532.898" cy="569" r="405.451" stroke="#1F48DA" stroke-width="1.20296"/>
</g>
<mask id="mask2_75_3459" style="mask-type:alpha" maskUnits="userSpaceOnUse" x="310" y="0" width="422" height="569">
<rect x="310" width="422" height="569" fill="#D9D9D9"/>
</mask>
<g mask="url(#mask2_75_3459)">
<g filter="url(#filter0_d_75_3459)">
<rect x="366.678" y="16" width="332.323" height="603.822" rx="18.8353" fill="#CEE1F2"/>
</g>
<path d="M366.678 34.8352C366.678 24.4328 375.111 16 385.513 16H680.165C690.568 16 699 24.4328 699 34.8353V149.105H366.678V34.8352Z" fill="white"/>
<g clip-path="url(#clip0_75_3459)">
<path d="M535.708 42.5908C534.07 42.5908 532.432 42.5908 530.793 42.5908C530.795 43.354 530.799 44.1173 530.8 44.8805C529.819 43.3056 528.111 42.3525 526.247 42.5317C524.63 42.6857 523.074 43.6264 522.299 45.0722C522.141 45.366 522.018 45.6778 521.932 45.9985C521.54 47.4712 521.708 49.0336 521.672 50.5403C521.611 53.1579 521.776 57.01 524.793 57.9345C528.562 59.0901 530.791 56.6875 530.791 56.6875V63.6033H535.705V51.7139L533.62 50.3916L535.705 49.0694V42.5872L535.708 42.5908ZM530.39 52.4861C530.39 53.5216 529.552 54.3601 528.517 54.3601C527.482 54.3601 526.644 53.5216 526.644 52.4861V48.4298C526.644 47.3942 527.482 46.5557 528.517 46.5557C529.552 46.5557 530.39 47.3942 530.39 48.4298V52.4861Z" fill="#1A468F"/>
<path d="M538.296 58.0243V42.5857H542.521V44.8987C542.983 44.2286 543.607 43.6517 544.391 43.1697C545.173 42.6878 546.162 42.4459 547.352 42.4459C547.875 42.4459 548.405 42.5391 548.948 42.7272C549.488 42.9153 549.999 43.1877 550.477 43.5478C550.955 43.9079 551.342 44.3576 551.637 44.9005C552.13 44.2017 552.778 43.6177 553.58 43.1483C554.382 42.6806 555.276 42.4459 556.26 42.4459C556.832 42.4459 557.41 42.5391 557.995 42.7272C558.581 42.9153 559.12 43.2199 559.612 43.6427C560.105 44.0674 560.5 44.6299 560.801 45.3359C561.102 46.04 561.252 46.9107 561.252 47.9445V58.2683H556.939V48.4766C556.939 47.8657 556.819 47.3748 556.577 47.0057C556.336 46.6366 556.031 46.3696 555.66 46.2066C555.292 46.0436 554.899 45.9629 554.486 45.9629C554.101 45.9629 553.712 46.04 553.318 46.1923C552.925 46.3446 552.59 46.5882 552.314 46.9233C552.038 47.2583 551.9 47.6973 551.9 48.2383V58.2665H547.601V48.0914C547.601 47.6292 547.478 47.2386 547.232 46.9233C546.985 46.6079 546.679 46.3696 546.308 46.2066C545.94 46.0436 545.562 45.9629 545.179 45.9629C544.795 45.9629 544.391 46.0436 543.997 46.2066C543.603 46.3696 543.273 46.6205 543.007 46.9609C542.74 47.3013 542.607 47.7277 542.607 48.2401V58.2683H538.294L538.296 58.0243Z" fill="#1A468F"/>
<path d="M505.072 49.0716L507.156 50.3939L505.072 51.7143V63.6001H509.986V56.6844C509.986 56.6844 512.215 59.0852 515.984 57.9314C519.424 56.8779 519.083 51.605 519.083 49.5285C519.083 46.3179 519.252 43.7827 515.844 42.8206C511.848 41.6918 509.986 44.8846 509.986 44.8846V42.5912H505.072V49.0734V49.0716ZM510.39 48.4302C510.39 47.3947 511.228 46.5562 512.263 46.5562C513.298 46.5562 514.136 47.3947 514.136 48.4302V52.4865C514.136 53.5221 513.298 54.3606 512.263 54.3606C511.228 54.3606 510.39 53.5221 510.39 52.4865V48.4302Z" fill="#1A468F"/>
</g>
<path d="M658.45 61.8375H676.08" stroke="#1A468F" stroke-width="1.1772" stroke-miterlimit="10" stroke-linecap="round" stroke-linejoin="round"/>
<path d="M665.282 45.9707V61.8376H669.249V45.9707C669.249 45.0011 668.852 44.2078 667.662 44.2078H666.869C665.679 44.2078 665.282 45.0011 665.282 45.9707Z" stroke="#1A468F" stroke-width="1.1772" stroke-linecap="round" stroke-linejoin="round"/>
<path opacity="0.4" d="M659.332 51.2596V61.8375H662.858V51.2596C662.858 50.2899 662.505 49.4966 661.448 49.4966H660.742C659.685 49.4966 659.332 50.2899 659.332 51.2596Z" stroke="#A8C0FF" stroke-width="1.1772" stroke-linecap="round" stroke-linejoin="round"/>
<path opacity="0.4" d="M671.673 55.6672V61.8376H675.199V55.6672C675.199 54.6975 674.846 53.9042 673.788 53.9042H673.083C672.025 53.9042 671.673 54.6975 671.673 55.6672Z" stroke="#A8C0FF" stroke-width="1.1772" stroke-linecap="round" stroke-linejoin="round"/>
<path d="M394.004 48.6155H409.871" stroke="#1A468F" stroke-width="1.1772" stroke-linecap="round"/>
<path opacity="0.34" d="M394.004 53.0229H409.871" stroke="#A8C0FF" stroke-width="1.1772" stroke-linecap="round"/>
<path d="M394.004 57.4304H409.871" stroke="#1A468F" stroke-width="1.1772" stroke-linecap="round"/>
<rect x="413.208" y="80.3489" width="26.6833" height="26.6833" rx="6.27842" fill="#CEE1F2"/>
<path d="M407.552 122.45H406.77L406.77 116.432H407.552V122.45ZM411.972 122.45V119.592C411.972 119.344 411.937 119.13 411.868 118.951C411.802 118.772 411.692 118.634 411.539 118.537C411.388 118.436 411.181 118.386 410.917 118.386C410.675 118.386 410.465 118.432 410.286 118.523C410.11 118.614 409.967 118.738 409.858 118.895C409.748 119.048 409.671 119.224 409.627 119.422L409.49 118.881H409.655C409.705 118.673 409.793 118.485 409.919 118.315C410.044 118.143 410.212 118.006 410.423 117.906C410.636 117.802 410.897 117.75 411.204 117.75C411.568 117.75 411.862 117.819 412.085 117.958C412.311 118.096 412.476 118.295 412.579 118.556C412.683 118.813 412.735 119.13 412.735 119.507V122.45H411.972ZM408.897 122.45V117.854H409.66L409.627 118.956L409.66 118.998V122.45H408.897ZM415.355 122.553C414.984 122.553 414.661 122.514 414.385 122.436C414.108 122.354 413.879 122.266 413.697 122.172L413.627 121.466C413.856 121.585 414.107 121.689 414.38 121.776C414.656 121.864 414.969 121.908 415.317 121.908C415.672 121.908 415.939 121.852 416.118 121.739C416.296 121.626 416.386 121.458 416.386 121.235V121.183C416.386 121.039 416.351 120.919 416.282 120.825C416.216 120.731 416.096 120.648 415.92 120.576C415.744 120.504 415.494 120.431 415.171 120.359C414.785 120.274 414.48 120.175 414.258 120.062C414.035 119.946 413.875 119.803 413.777 119.634C413.683 119.464 413.636 119.257 413.636 119.012V118.97C413.636 118.568 413.776 118.264 414.055 118.057C414.334 117.849 414.755 117.746 415.317 117.746C415.678 117.746 415.99 117.787 416.254 117.868C416.521 117.95 416.739 118.041 416.909 118.141L416.979 118.786C416.775 118.667 416.541 118.568 416.278 118.49C416.014 118.411 415.717 118.372 415.388 118.372C415.149 118.372 414.956 118.397 414.808 118.447C414.661 118.494 414.554 118.563 414.488 118.655C414.422 118.742 414.389 118.849 414.389 118.975V119.012C414.389 119.151 414.422 119.268 414.488 119.366C414.554 119.46 414.672 119.543 414.841 119.615C415.014 119.684 415.253 119.752 415.557 119.818C415.95 119.896 416.26 119.99 416.49 120.1C416.722 120.21 416.888 120.35 416.989 120.519C417.089 120.686 417.139 120.901 417.139 121.164V121.244C417.139 121.678 416.989 122.004 416.687 122.224C416.386 122.444 415.942 122.553 415.355 122.553ZM420.34 122.549C420.058 122.549 419.813 122.502 419.606 122.407C419.399 122.313 419.231 122.178 419.102 122.002C418.973 121.827 418.887 121.623 418.843 121.39H418.593L418.815 120.675C418.827 120.951 418.889 121.182 418.998 121.367C419.111 121.549 419.264 121.685 419.455 121.776C419.647 121.868 419.863 121.913 420.105 121.913C420.491 121.913 420.786 121.8 420.99 121.574C421.197 121.348 421.301 121.017 421.301 120.58V119.7C421.301 119.267 421.199 118.937 420.995 118.711C420.791 118.485 420.494 118.372 420.105 118.372C419.873 118.372 419.667 118.418 419.488 118.509C419.309 118.6 419.16 118.724 419.041 118.881C418.925 119.038 418.845 119.216 418.801 119.417L418.612 118.885H418.834C418.884 118.675 418.969 118.485 419.088 118.315C419.21 118.143 419.377 118.006 419.587 117.906C419.801 117.802 420.063 117.75 420.373 117.75C420.926 117.75 421.347 117.923 421.635 118.268C421.924 118.611 422.069 119.108 422.069 119.761V120.524C422.069 121.183 421.923 121.685 421.631 122.031C421.342 122.376 420.912 122.549 420.34 122.549ZM418.076 124.07V117.854H418.838L418.805 118.961L418.815 119.196V121.131L418.81 121.287L418.834 122.577V124.07H418.076ZM425.064 122.553C424.364 122.553 423.837 122.382 423.482 122.04C423.128 121.698 422.95 121.208 422.95 120.571V119.752C422.95 119.105 423.115 118.607 423.445 118.259C423.774 117.907 424.256 117.732 424.89 117.732C425.317 117.732 425.673 117.812 425.959 117.972C426.245 118.129 426.46 118.353 426.604 118.645C426.749 118.937 426.821 119.286 426.821 119.69V119.86C426.821 119.96 426.816 120.061 426.807 120.161C426.8 120.262 426.791 120.361 426.778 120.458H426.077C426.083 120.307 426.086 120.164 426.086 120.029C426.089 119.895 426.091 119.771 426.091 119.658C426.091 119.378 426.045 119.143 425.954 118.951C425.867 118.757 425.733 118.609 425.554 118.509C425.378 118.405 425.157 118.353 424.89 118.353C424.495 118.353 424.198 118.468 424 118.697C423.802 118.926 423.704 119.254 423.704 119.681V120.119L423.708 120.213V120.651C423.708 120.843 423.737 121.015 423.793 121.169C423.85 121.323 423.937 121.456 424.057 121.569C424.179 121.679 424.333 121.764 424.518 121.824C424.707 121.88 424.929 121.908 425.187 121.908C425.485 121.908 425.763 121.869 426.02 121.791C426.278 121.712 426.519 121.605 426.745 121.47L426.675 122.13C426.471 122.258 426.234 122.362 425.964 122.44C425.694 122.516 425.394 122.553 425.064 122.553ZM423.35 120.458V119.884H426.618V120.458H423.35ZM429.595 122.553C428.936 122.553 428.444 122.376 428.121 122.021C427.801 121.663 427.641 121.158 427.641 120.505V119.789C427.641 119.133 427.802 118.629 428.126 118.278C428.449 117.923 428.939 117.746 429.595 117.746C429.789 117.746 429.967 117.765 430.127 117.802C430.287 117.837 430.43 117.884 430.555 117.943C430.684 118 430.792 118.06 430.88 118.122L430.946 118.786C430.799 118.673 430.623 118.578 430.419 118.499C430.218 118.421 429.981 118.381 429.708 118.381C429.268 118.381 428.94 118.504 428.724 118.749C428.51 118.99 428.403 119.344 428.403 119.808V120.486C428.403 120.941 428.51 121.291 428.724 121.536C428.94 121.781 429.268 121.904 429.708 121.904C429.99 121.904 430.234 121.864 430.438 121.786C430.645 121.707 430.828 121.612 430.989 121.499L430.918 122.172C430.78 122.266 430.599 122.354 430.376 122.436C430.154 122.514 429.893 122.553 429.595 122.553ZM433.616 122.544C433.261 122.544 432.976 122.491 432.759 122.384C432.542 122.277 432.386 122.116 432.288 121.899C432.191 121.682 432.142 121.412 432.142 121.089V118.188H432.896V121C432.896 121.301 432.965 121.524 433.103 121.668C433.241 121.809 433.473 121.88 433.8 121.88C433.985 121.88 434.162 121.86 434.332 121.819C434.504 121.778 434.666 121.72 434.817 121.645L434.746 122.299C434.599 122.374 434.426 122.434 434.228 122.478C434.03 122.522 433.826 122.544 433.616 122.544ZM431.389 118.532V117.92H434.77L434.699 118.532H431.389ZM432.147 117.995L432.142 116.705L432.91 116.606L432.877 117.995H432.147ZM435.683 122.45V117.854H436.446V122.45H435.683ZM436.065 117.101C435.908 117.101 435.79 117.06 435.712 116.978C435.636 116.893 435.599 116.779 435.599 116.634V116.611C435.599 116.463 435.636 116.349 435.712 116.267C435.79 116.186 435.908 116.145 436.065 116.145C436.222 116.145 436.339 116.186 436.418 116.267C436.496 116.349 436.536 116.463 436.536 116.611V116.634C436.536 116.782 436.496 116.897 436.418 116.978C436.339 117.06 436.222 117.101 436.065 117.101ZM439.538 122.568C438.879 122.568 438.378 122.39 438.036 122.035C437.697 121.678 437.527 121.164 437.527 120.496V119.794C437.527 119.129 437.698 118.618 438.041 118.264C438.383 117.909 438.882 117.732 439.538 117.732C440.197 117.732 440.696 117.909 441.035 118.264C441.378 118.618 441.549 119.129 441.549 119.794V120.496C441.549 121.164 441.378 121.678 441.035 122.035C440.696 122.39 440.197 122.568 439.538 122.568ZM439.538 121.946C439.946 121.946 440.255 121.825 440.466 121.583C440.679 121.342 440.786 120.993 440.786 120.538V119.752C440.786 119.3 440.679 118.954 440.466 118.716C440.255 118.474 439.946 118.353 439.538 118.353C439.133 118.353 438.824 118.474 438.61 118.716C438.397 118.954 438.29 119.3 438.29 119.752V120.538C438.29 120.993 438.397 121.342 438.61 121.583C438.824 121.825 439.133 121.946 439.538 121.946ZM445.679 122.45V119.592C445.679 119.344 445.644 119.13 445.575 118.951C445.509 118.772 445.399 118.634 445.245 118.537C445.095 118.436 444.887 118.386 444.624 118.386C444.382 118.386 444.172 118.432 443.993 118.523C443.817 118.614 443.674 118.738 443.564 118.895C443.454 119.048 443.377 119.224 443.334 119.422L443.197 118.881H443.362C443.412 118.673 443.5 118.485 443.625 118.315C443.751 118.143 443.919 118.006 444.129 117.906C444.343 117.802 444.603 117.75 444.911 117.75C445.275 117.75 445.569 117.819 445.792 117.958C446.018 118.096 446.182 118.295 446.286 118.556C446.39 118.813 446.441 119.13 446.441 119.507V122.45H445.679ZM442.604 122.45V117.854H443.366L443.334 118.956L443.366 118.998V122.45H442.604Z" fill="#171A1F"/>
<rect x="521.26" y="80.3489" width="26.6833" height="26.6833" rx="6.27842" fill="#7696EA"/>
<path d="M527.999 116.432L530.443 121.612H530.5L530.467 118.984V116.432H531.229V122.45H530.071L527.599 117.228H527.542L527.575 119.978V122.45H526.813V116.432H527.999ZM534.663 122.558C533.919 122.558 533.361 122.349 532.987 121.932C532.617 121.514 532.431 120.921 532.431 120.152V118.725C532.431 117.956 532.617 117.364 532.987 116.95C533.357 116.532 533.913 116.324 534.654 116.324C534.892 116.324 535.109 116.346 535.304 116.39C535.501 116.434 535.677 116.49 535.831 116.559C535.985 116.628 536.115 116.7 536.222 116.776L536.288 117.501C536.103 117.369 535.884 117.254 535.633 117.157C535.385 117.057 535.093 117.006 534.757 117.006C534.252 117.006 533.871 117.157 533.613 117.458C533.356 117.757 533.227 118.182 533.227 118.735V120.124C533.227 120.673 533.357 121.1 533.618 121.404C533.878 121.706 534.268 121.857 534.786 121.857C535.118 121.857 535.412 121.808 535.666 121.711C535.924 121.613 536.147 121.494 536.335 121.353L536.269 122.097C536.162 122.172 536.03 122.246 535.873 122.318C535.716 122.39 535.536 122.448 535.332 122.492C535.131 122.536 534.908 122.558 534.663 122.558ZM540.943 122.45L540.774 121.216C540.742 120.984 540.689 120.783 540.613 120.613C540.538 120.441 540.422 120.306 540.265 120.208C540.111 120.111 539.891 120.062 539.606 120.062L537.972 120.058V119.441L539.719 119.436C540.13 119.436 540.424 119.336 540.599 119.135C540.775 118.931 540.863 118.655 540.863 118.306V118.165C540.863 117.819 540.774 117.553 540.595 117.364C540.416 117.173 540.117 117.077 539.7 117.077H537.948V116.432H539.804C540.45 116.432 540.92 116.575 541.211 116.86C541.507 117.143 541.654 117.534 541.654 118.033V118.193C541.654 118.585 541.562 118.907 541.376 119.158C541.191 119.406 540.883 119.557 540.453 119.61V119.705L540.119 119.587C540.467 119.612 540.736 119.689 540.924 119.818C541.116 119.943 541.255 120.116 541.343 120.336C541.431 120.555 541.499 120.819 541.546 121.127L541.748 122.45H540.943ZM537.435 122.45V116.432H538.203V119.648L538.207 119.945V122.45H537.435Z" fill="#171A1F"/>
<rect x="629.312" y="80.3489" width="26.6833" height="26.6833" rx="6.27842" fill="#A8C0FF"/>
<path d="M621.051 116.432L623.495 121.612H623.551L623.518 118.984V116.432H624.281V122.45H623.123L620.651 117.228H620.594L620.627 119.978V122.45H619.864V116.432H621.051ZM627.433 122.568C626.774 122.568 626.273 122.39 625.931 122.035C625.592 121.678 625.422 121.164 625.422 120.496V119.794C625.422 119.129 625.593 118.618 625.935 118.264C626.278 117.909 626.777 117.732 627.433 117.732C628.092 117.732 628.591 117.909 628.93 118.264C629.272 118.618 629.443 119.129 629.443 119.794V120.496C629.443 121.164 629.272 121.678 628.93 122.035C628.591 122.39 628.092 122.568 627.433 122.568ZM627.433 121.946C627.841 121.946 628.15 121.825 628.36 121.583C628.574 121.342 628.681 120.993 628.681 120.538V119.752C628.681 119.3 628.574 118.954 628.36 118.716C628.15 118.474 627.841 118.353 627.433 118.353C627.028 118.353 626.719 118.474 626.505 118.716C626.292 118.954 626.185 119.3 626.185 119.752V120.538C626.185 120.993 626.292 121.342 626.505 121.583C626.719 121.825 627.028 121.946 627.433 121.946ZM632.133 122.544C631.779 122.544 631.493 122.491 631.276 122.384C631.06 122.277 630.903 122.116 630.805 121.899C630.708 121.682 630.659 121.412 630.659 121.089V118.188H631.413L631.413 121C631.413 121.301 631.482 121.524 631.62 121.668C631.758 121.809 631.99 121.88 632.317 121.88C632.502 121.88 632.68 121.86 632.849 121.819C633.022 121.778 633.183 121.72 633.334 121.645L633.263 122.299C633.116 122.374 632.943 122.434 632.745 122.478C632.548 122.522 632.344 122.544 632.133 122.544ZM629.906 118.532V117.92H633.287L633.216 118.532H629.906ZM630.664 117.995L630.659 116.705L631.427 116.606L631.394 117.995H630.664ZM634.201 122.45V117.854H634.963V122.45H634.201ZM634.582 117.101C634.425 117.101 634.307 117.06 634.229 116.978C634.153 116.893 634.116 116.779 634.116 116.634V116.611C634.116 116.463 634.153 116.349 634.229 116.267C634.307 116.186 634.425 116.145 634.582 116.145C634.739 116.145 634.857 116.186 634.935 116.267C635.014 116.349 635.053 116.463 635.053 116.611V116.634C635.053 116.782 635.014 116.897 634.935 116.978C634.857 117.06 634.739 117.101 634.582 117.101ZM637.773 116.084C638.008 116.084 638.218 116.105 638.404 116.149C638.592 116.19 638.765 116.242 638.922 116.305L638.997 116.903C638.843 116.846 638.688 116.802 638.531 116.771C638.377 116.736 638.203 116.719 638.008 116.719C637.773 116.719 637.583 116.751 637.438 116.813C637.297 116.873 637.195 116.959 637.132 117.072C637.073 117.182 637.043 117.316 637.043 117.473V117.496C637.043 117.606 637.057 117.711 637.085 117.812C637.113 117.909 637.145 117.998 637.179 118.08L636.666 118.099V118.005C636.569 117.929 636.482 117.824 636.407 117.689C636.335 117.554 636.299 117.397 636.299 117.218V117.195C636.299 116.859 636.418 116.59 636.657 116.39C636.895 116.186 637.267 116.084 637.773 116.084ZM636.454 122.45V118.264H637.212V122.45H636.454ZM635.696 118.636V118.028L636.746 118.033L637.057 118.028H638.978L638.907 118.636H635.696ZM639.764 122.45V117.854H640.527V122.45H639.764ZM640.146 117.101C639.989 117.101 639.871 117.06 639.793 116.978C639.717 116.893 639.68 116.779 639.68 116.634V116.611C639.68 116.463 639.717 116.349 639.793 116.267C639.871 116.186 639.989 116.145 640.146 116.145C640.303 116.145 640.421 116.186 640.499 116.267C640.578 116.349 640.617 116.463 640.617 116.611V116.634C640.617 116.782 640.578 116.897 640.499 116.978C640.421 117.06 640.303 117.101 640.146 117.101ZM643.563 122.553C642.904 122.553 642.412 122.376 642.089 122.021C641.769 121.663 641.609 121.158 641.609 120.505V119.789C641.609 119.133 641.77 118.629 642.094 118.278C642.417 117.923 642.907 117.746 643.563 117.746C643.757 117.746 643.935 117.765 644.095 117.802C644.255 117.837 644.398 117.884 644.523 117.943C644.652 118 644.76 118.06 644.848 118.122L644.914 118.786C644.767 118.673 644.591 118.578 644.387 118.499C644.186 118.421 643.949 118.381 643.676 118.381C643.236 118.381 642.908 118.504 642.692 118.749C642.478 118.99 642.371 119.344 642.371 119.808V120.486C642.371 120.941 642.478 121.291 642.692 121.536C642.908 121.781 643.236 121.904 643.676 121.904C643.958 121.904 644.202 121.864 644.406 121.786C644.613 121.707 644.796 121.612 644.957 121.499L644.886 122.172C644.748 122.266 644.567 122.354 644.344 122.436C644.122 122.514 643.861 122.553 643.563 122.553ZM648.602 122.45L648.635 121.334L648.607 121.216V119.752L648.612 119.483C648.612 119.11 648.516 118.833 648.324 118.655C648.136 118.476 647.836 118.386 647.425 118.386C647.095 118.386 646.792 118.433 646.516 118.527C646.243 118.622 646 118.731 645.786 118.857L645.857 118.207C645.976 118.135 646.117 118.064 646.281 117.995C646.447 117.923 646.635 117.863 646.846 117.816C647.059 117.769 647.293 117.746 647.547 117.746C647.877 117.746 648.156 117.787 648.385 117.868C648.618 117.947 648.805 118.061 648.946 118.212C649.09 118.363 649.195 118.545 649.261 118.758C649.327 118.972 649.36 119.21 649.36 119.474V122.45H648.602ZM647.02 122.549C646.565 122.549 646.215 122.439 645.97 122.219C645.728 121.996 645.607 121.679 645.607 121.268V121.131C645.607 120.708 645.738 120.392 645.998 120.185C646.262 119.975 646.679 119.829 647.251 119.747L648.706 119.54L648.748 120.095L647.345 120.298C646.993 120.348 646.742 120.434 646.591 120.557C646.441 120.676 646.365 120.854 646.365 121.089V121.164C646.365 121.406 646.439 121.591 646.587 121.72C646.737 121.849 646.962 121.913 647.26 121.913C647.524 121.913 647.75 121.868 647.938 121.776C648.127 121.685 648.279 121.563 648.395 121.409C648.511 121.255 648.59 121.084 648.63 120.896L648.748 121.414H648.602C648.558 121.615 648.475 121.802 648.353 121.974C648.233 122.147 648.065 122.287 647.849 122.393C647.632 122.497 647.356 122.549 647.02 122.549ZM652.155 122.544C651.8 122.544 651.515 122.491 651.298 122.384C651.081 122.277 650.924 122.116 650.827 121.899C650.73 121.682 650.681 121.412 650.681 121.089V118.188H651.435V121C651.435 121.301 651.504 121.524 651.642 121.668C651.78 121.809 652.012 121.88 652.339 121.88C652.524 121.88 652.701 121.86 652.871 121.819C653.043 121.778 653.205 121.72 653.356 121.645L653.285 122.299C653.138 122.374 652.965 122.434 652.767 122.478C652.569 122.522 652.365 122.544 652.155 122.544ZM649.928 118.532V117.92H653.309L653.238 118.532H649.928ZM650.686 117.995L650.681 116.705L651.449 116.606L651.416 117.995H650.686ZM654.222 122.45V117.854H654.985V122.45H654.222ZM654.604 117.101C654.447 117.101 654.329 117.06 654.25 116.978C654.175 116.893 654.137 116.779 654.137 116.634V116.611C654.137 116.463 654.175 116.349 654.25 116.267C654.329 116.186 654.447 116.145 654.604 116.145C654.761 116.145 654.878 116.186 654.957 116.267C655.035 116.349 655.075 116.463 655.075 116.611V116.634C655.075 116.782 655.035 116.897 654.957 116.978C654.878 117.06 654.761 117.101 654.604 117.101ZM658.077 122.568C657.418 122.568 656.917 122.39 656.575 122.035C656.236 121.678 656.066 121.164 656.066 120.496V119.794C656.066 119.129 656.237 118.618 656.579 118.264C656.922 117.909 657.421 117.732 658.077 117.732C658.736 117.732 659.235 117.909 659.574 118.264C659.916 118.618 660.087 119.129 660.087 119.794V120.496C660.087 121.164 659.916 121.678 659.574 122.035C659.235 122.39 658.736 122.568 658.077 122.568ZM658.077 121.946C658.485 121.946 658.794 121.825 659.004 121.583C659.218 121.342 659.325 120.993 659.325 120.538V119.752C659.325 119.3 659.218 118.954 659.004 118.716C658.794 118.474 658.485 118.353 658.077 118.353C657.672 118.353 657.363 118.474 657.149 118.716C656.936 118.954 656.829 119.3 656.829 119.752V120.538C656.829 120.993 656.936 121.342 657.149 121.583C657.363 121.825 657.672 121.946 658.077 121.946ZM664.217 122.45V119.592C664.217 119.344 664.183 119.13 664.114 118.951C664.048 118.772 663.938 118.634 663.784 118.537C663.634 118.436 663.426 118.386 663.163 118.386C662.921 118.386 662.711 118.432 662.532 118.523C662.356 118.614 662.213 118.738 662.103 118.895C661.993 119.048 661.916 119.224 661.872 119.422L661.736 118.881H661.901C661.951 118.673 662.039 118.485 662.164 118.315C662.29 118.143 662.458 118.006 662.668 117.906C662.882 117.802 663.142 117.75 663.45 117.75C663.814 117.75 664.108 117.819 664.33 117.958C664.556 118.096 664.721 118.295 664.825 118.556C664.928 118.813 664.98 119.13 664.98 119.507V122.45H664.217ZM661.143 122.45V117.854H661.905L661.872 118.956L661.905 118.998V122.45H661.143Z" fill="#171A1F"/>
<path d="M533.021 497.507C520.612 497.507 510.542 507.577 510.542 519.985C510.542 532.394 520.612 542.464 533.021 542.464C545.429 542.464 555.499 532.394 555.499 519.985C555.499 507.577 545.429 497.507 533.021 497.507ZM533.021 537.968C523.108 537.968 515.038 529.899 515.038 519.985C515.038 510.072 523.108 502.002 533.021 502.002C542.934 502.002 551.004 510.072 551.004 519.985C551.004 529.899 542.934 537.968 533.021 537.968ZM533.021 509.87C527.424 509.87 522.905 514.388 522.905 519.985C522.905 525.583 527.424 530.101 533.021 530.101C538.618 530.101 543.136 525.583 543.136 519.985C543.136 514.388 538.618 509.87 533.021 509.87ZM533.021 522.233C531.784 522.233 530.773 521.222 530.773 519.985C530.773 518.749 531.784 517.738 533.021 517.738C534.257 517.738 535.269 518.749 535.269 519.985C535.269 521.222 534.257 522.233 533.021 522.233Z" fill="white"/>
<path d="M624.902 197.797H645.133V177.566H624.902V197.797ZM629.96 182.624H640.075V192.739H629.96V182.624ZM624.902 223.085H645.133V202.854H624.902V223.085ZM629.96 207.912H640.075V218.028H629.96V207.912ZM650.191 177.566V197.797H670.422V177.566H650.191ZM665.364 192.739H655.249V182.624H665.364V192.739ZM665.364 218.028H670.422V223.085H665.364V218.028ZM650.191 202.854H655.249V207.912H650.191V202.854ZM655.249 207.912H660.306V212.97H655.249V207.912ZM650.191 212.97H655.249V218.028H650.191V212.97ZM655.249 218.028H660.306V223.085H655.249V218.028ZM660.306 212.97H665.364V218.028H660.306V212.97ZM660.306 202.854H665.364V207.912H660.306V202.854ZM665.364 207.912H670.422V212.97H665.364V207.912Z" fill="#7696EA"/>
<rect x="435.614" y="257.758" width="192.565" height="197.061" rx="2.5" fill="white" fill-opacity="0.3" stroke="#A8C0FF" stroke-width="3" stroke-dasharray="10 10"/>
<g clip-path="url(#clip1_75_3459)">
<path fill-rule="evenodd" clip-rule="evenodd" d="M553.163 313.581L553.221 313.536C553.221 313.536 551.181 307.206 551.181 307.206C550.586 307.044 549.988 306.892 549.387 306.753C548.662 306.584 548.069 306.078 547.802 305.399L544.607 297.284H531.782L528.585 305.401C528.318 306.08 527.725 306.586 527.001 306.754C522.04 307.909 517.301 309.832 512.959 312.445C512.325 312.827 511.539 312.878 510.859 312.583L502.721 309.05L493.652 317.915L497.265 325.867C497.567 326.532 497.515 327.3 497.124 327.919C494.449 332.165 492.482 336.799 491.302 341.65C491.129 342.357 490.611 342.937 489.916 343.198L481.615 346.322V358.859L483.71 359.648C484.873 360.085 485.454 361.363 485.006 362.499C484.559 363.636 483.252 364.203 482.089 363.766L478.547 362.433C477.675 362.105 477.1 361.287 477.1 360.374V344.807C477.1 343.894 477.675 343.075 478.547 342.747C478.547 342.747 487.2 339.491 487.2 339.492C488.412 334.974 490.251 330.641 492.663 326.61L488.897 318.322C488.518 317.487 488.703 316.511 489.364 315.866L500.625 304.858C501.285 304.213 502.284 304.031 503.137 304.402C503.137 304.402 511.62 308.084 511.619 308.085C515.743 305.728 520.173 303.93 524.793 302.746L528.125 294.285C528.461 293.433 529.298 292.871 530.232 292.871H546.157C547.09 292.871 547.928 293.433 548.263 294.285C548.263 294.285 551.594 302.744 551.594 302.744C552.278 302.919 552.957 303.108 553.632 303.31C554.343 303.522 554.902 304.063 555.125 304.756L557.993 313.655C558.273 314.525 557.977 315.474 557.247 316.043L554.958 317.827L547.748 323.446L553.198 335.294L553.501 325.19C553.522 324.486 553.886 323.834 554.48 323.435L560.961 319.087L561.087 319.003L557.748 308.722C557.475 307.884 557.738 306.968 558.417 306.391C559.095 305.813 560.06 305.685 560.872 306.064C562.199 306.682 563.5 307.356 564.772 308.084L573.251 304.402C574.105 304.031 575.103 304.213 575.764 304.858L587.024 315.866C587.685 316.512 587.87 317.488 587.491 318.322C587.491 318.322 583.724 326.614 583.724 326.613C586.135 330.644 587.974 334.975 589.186 339.491L597.841 342.748C598.713 343.076 599.288 343.894 599.288 344.807V360.374C599.288 361.286 598.713 362.105 597.842 362.433L589.186 365.69C587.974 370.205 586.135 374.537 583.724 378.567L587.491 386.859C587.87 387.693 587.685 388.669 587.024 389.315L575.764 400.322C575.103 400.968 574.105 401.149 573.251 400.779L564.772 397.097C564.297 397.369 563.817 397.633 563.334 397.89C562.239 398.472 560.868 398.075 560.273 397.005C559.678 395.935 560.083 394.594 561.178 394.013C561.94 393.608 562.692 393.182 563.432 392.737C564.066 392.355 564.852 392.303 565.532 392.599L573.668 396.131L582.736 387.266L579.122 379.311C578.82 378.646 578.873 377.878 579.263 377.258C581.937 373.013 583.904 368.381 585.085 363.531C585.257 362.824 585.775 362.244 586.47 361.983L594.773 358.859V346.322L586.47 343.198C585.775 342.936 585.257 342.357 585.085 341.649C583.904 336.8 581.937 332.168 579.263 327.923C578.873 327.303 578.82 326.535 579.122 325.87L582.736 317.915L573.668 309.05L565.532 312.582C564.96 312.831 564.313 312.833 563.744 312.601L565.897 319.228C566.075 319.775 566.024 320.351 565.783 320.845C574.976 328.484 580.808 339.872 580.808 352.591C580.808 368.48 571.707 382.291 558.321 389.315C557.224 389.891 555.854 389.487 555.265 388.414C554.676 387.341 555.089 386.003 556.186 385.426C568.154 379.147 576.293 366.798 576.293 352.591C576.293 340.898 570.78 330.465 562.157 323.637C561.338 324.187 557.98 326.439 557.98 326.439L557.424 345.02C557.393 346.048 556.64 346.918 555.608 347.119C554.577 347.32 553.54 346.798 553.108 345.86L542.912 323.693C542.489 322.774 542.757 321.691 543.563 321.063C544.463 320.362 548.06 317.559 548.959 316.858C545.546 315.876 541.933 315.348 538.194 315.348C523.228 315.348 510.278 323.784 504.046 336.055C503.492 337.146 502.137 337.592 501.021 337.051C499.905 336.509 499.449 335.184 500.003 334.093C506.972 320.369 521.456 310.935 538.194 310.935C543.462 310.935 548.506 311.873 553.163 313.581ZM526.537 345.303L557.11 397.055C560.03 401.995 560.03 407.964 557.11 412.905C554.191 417.852 548.901 420.829 543.062 420.829H481.928C476.089 420.829 470.806 417.852 467.886 412.905C464.966 407.964 464.966 401.995 467.886 397.056L498.452 345.304C501.372 340.357 506.656 337.373 512.495 337.373C518.334 337.373 523.618 340.356 526.537 345.303ZM522.627 347.509C520.521 343.94 516.708 341.786 512.495 341.786C508.281 341.786 504.469 343.94 502.363 347.51L471.795 399.262C469.689 402.827 469.689 407.133 471.796 410.698L471.796 410.699C473.903 414.268 477.715 416.416 481.928 416.416H543.062C547.275 416.416 551.094 414.269 553.201 410.698L553.201 410.697C555.308 407.133 555.308 402.827 553.201 399.262L522.627 347.509ZM520.235 348.857L520.237 348.86L550.809 400.611L550.81 400.612C552.43 403.363 552.43 406.597 550.808 409.352L550.805 409.355C549.177 412.098 546.31 413.721 543.062 413.721H481.928C478.686 413.721 475.81 412.095 474.187 409.35L474.187 409.348C472.566 406.597 472.566 403.363 474.187 400.611L504.753 348.86C506.375 346.106 509.251 344.487 512.495 344.487C515.746 344.487 518.613 346.105 520.235 348.857ZM516.324 351.062C515.522 349.7 514.103 348.9 512.495 348.9C510.891 348.9 509.468 349.7 508.665 351.063L478.099 402.814C477.296 404.178 477.296 405.781 478.098 407.145C478.901 408.503 480.324 409.308 481.928 409.308H543.062C544.672 409.308 546.091 408.501 546.899 407.143C547.701 405.779 547.7 404.177 546.898 402.814L516.325 351.063L516.324 351.062ZM514.181 391.203C516.713 391.921 518.573 394.21 518.573 396.912C518.573 400.185 515.844 402.853 512.495 402.853C509.146 402.853 506.417 400.185 506.417 396.912C506.417 394.21 508.276 391.921 510.809 391.204C508.803 390.539 507.34 388.719 507.26 386.535L506.501 366.115L506.501 366.108C506.456 364.67 506.948 363.418 507.967 362.378L507.971 362.374C509.001 361.335 510.265 360.811 511.742 360.811H513.248C514.726 360.811 516.003 361.339 517.023 362.378C518.052 363.419 518.544 364.679 518.489 366.121L517.736 386.534C517.656 388.717 516.189 390.538 514.181 391.203ZM512.495 387.061C512.887 387.061 513.21 386.76 513.224 386.376L513.977 365.96V365.958C513.985 365.76 513.917 365.587 513.771 365.44L513.767 365.435C513.627 365.292 513.451 365.224 513.248 365.224H511.742C511.537 365.224 511.362 365.297 511.215 365.443C511.074 365.591 511.008 365.768 511.013 365.971L511.772 386.376V386.377C511.786 386.758 512.104 387.061 512.495 387.061ZM512.495 398.44C513.356 398.44 514.059 397.754 514.059 396.912C514.059 396.07 513.356 395.383 512.495 395.383C511.633 395.383 510.931 396.07 510.931 396.912C510.931 397.754 511.633 398.44 512.495 398.44Z" fill="#1A468F"/>
</g>
</g>
<g filter="url(#filter1_d_75_3459)">
<rect x="657" y="248" width="128" height="84" rx="20" fill="white"/>
<path d="M687.272 294.5L687.02 292.666C686.973 292.321 686.894 292.022 686.782 291.77C686.67 291.513 686.497 291.313 686.264 291.168C686.035 291.023 685.709 290.951 685.284 290.951L682.855 290.944V290.027L685.452 290.02C686.063 290.02 686.5 289.871 686.761 289.572C687.022 289.269 687.153 288.858 687.153 288.34V288.13C687.153 287.617 687.02 287.22 686.754 286.94C686.488 286.655 686.045 286.513 685.424 286.513H682.82V285.554H685.578C686.539 285.554 687.237 285.766 687.671 286.191C688.11 286.611 688.329 287.192 688.329 287.934V288.172C688.329 288.755 688.191 289.234 687.916 289.607C687.641 289.976 687.183 290.2 686.544 290.279V290.419L686.047 290.244C686.565 290.281 686.964 290.396 687.244 290.587C687.529 290.774 687.736 291.03 687.867 291.357C687.998 291.684 688.098 292.076 688.168 292.533L688.469 294.5H687.272ZM682.057 294.5V285.554H683.198V290.335L683.205 290.776V294.5H682.057ZM692.669 294.654C691.628 294.654 690.844 294.4 690.317 293.891C689.79 293.382 689.526 292.654 689.526 291.707V290.489C689.526 289.528 689.771 288.788 690.261 288.27C690.751 287.747 691.467 287.486 692.41 287.486C693.045 287.486 693.574 287.605 693.999 287.843C694.424 288.076 694.743 288.41 694.958 288.844C695.173 289.278 695.28 289.796 695.28 290.398V290.65C695.28 290.799 695.273 290.949 695.259 291.098C695.25 291.247 695.236 291.394 695.217 291.539H694.174C694.183 291.315 694.188 291.103 694.188 290.902C694.193 290.701 694.195 290.517 694.195 290.349C694.195 289.934 694.127 289.584 693.992 289.299C693.861 289.01 693.663 288.79 693.397 288.641C693.136 288.487 692.807 288.41 692.41 288.41C691.822 288.41 691.381 288.58 691.087 288.921C690.793 289.262 690.646 289.749 690.646 290.384V291.035L690.653 291.175V291.826C690.653 292.111 690.695 292.367 690.779 292.596C690.863 292.825 690.994 293.023 691.171 293.191C691.353 293.354 691.582 293.48 691.857 293.569C692.137 293.653 692.468 293.695 692.851 293.695C693.294 293.695 693.707 293.637 694.09 293.52C694.473 293.403 694.832 293.245 695.168 293.044L695.063 294.024C694.76 294.215 694.407 294.369 694.006 294.486C693.605 294.598 693.159 294.654 692.669 294.654ZM690.121 291.539V290.685H694.979V291.539H690.121ZM700.152 294.647C699.732 294.647 699.368 294.577 699.06 294.437C698.752 294.297 698.503 294.096 698.311 293.835C698.12 293.574 697.992 293.27 697.926 292.925H697.555L697.884 291.861C697.903 292.272 697.994 292.615 698.157 292.89C698.325 293.161 698.552 293.364 698.836 293.499C699.121 293.634 699.443 293.702 699.802 293.702C700.376 293.702 700.815 293.534 701.118 293.198C701.426 292.862 701.58 292.37 701.58 291.721V290.412C701.58 289.768 701.429 289.278 701.125 288.942C700.822 288.606 700.381 288.438 699.802 288.438C699.457 288.438 699.151 288.506 698.885 288.641C698.619 288.776 698.398 288.961 698.22 289.194C698.048 289.427 697.929 289.693 697.863 289.992L697.583 289.201H697.912C697.987 288.888 698.113 288.606 698.29 288.354C698.472 288.097 698.72 287.894 699.032 287.745C699.35 287.591 699.739 287.514 700.201 287.514C701.023 287.514 701.648 287.771 702.077 288.284C702.507 288.793 702.721 289.532 702.721 290.503V291.637C702.721 292.617 702.504 293.364 702.07 293.877C701.641 294.39 701.002 294.647 700.152 294.647ZM696.785 296.908V287.668H697.919L697.87 289.313L697.884 289.663V292.54L697.877 292.771L697.912 294.689V296.908H696.785ZM707.021 294.675C706.041 294.675 705.297 294.411 704.788 293.884C704.284 293.352 704.032 292.589 704.032 291.595V290.552C704.032 289.563 704.286 288.804 704.795 288.277C705.304 287.75 706.046 287.486 707.021 287.486C708.001 287.486 708.743 287.75 709.247 288.277C709.756 288.804 710.01 289.563 710.01 290.552V291.595C710.01 292.589 709.756 293.352 709.247 293.884C708.743 294.411 708.001 294.675 707.021 294.675ZM707.021 293.751C707.628 293.751 708.087 293.571 708.4 293.212C708.717 292.853 708.876 292.335 708.876 291.658V290.489C708.876 289.817 708.717 289.304 708.4 288.949C708.087 288.59 707.628 288.41 707.021 288.41C706.419 288.41 705.959 288.59 705.642 288.949C705.325 289.304 705.166 289.817 705.166 290.489V291.658C705.166 292.335 705.325 292.853 705.642 293.212C705.959 293.571 706.419 293.751 707.021 293.751ZM712.656 290.321L712.397 289.446L712.677 289.432C712.827 288.853 713.083 288.398 713.447 288.067C713.811 287.731 714.294 287.563 714.896 287.563C715.046 287.563 715.179 287.575 715.295 287.598C715.417 287.621 715.524 287.649 715.617 287.682L715.687 288.781C715.571 288.744 715.44 288.713 715.295 288.69C715.155 288.667 714.999 288.655 714.826 288.655C714.313 288.655 713.865 288.797 713.482 289.082C713.104 289.367 712.829 289.78 712.656 290.321ZM711.578 294.5V287.668H712.684L712.628 289.684L712.712 289.768V294.5H711.578ZM719.532 294.64C719.005 294.64 718.58 294.561 718.258 294.402C717.936 294.243 717.703 294.003 717.558 293.681C717.413 293.359 717.341 292.958 717.341 292.477V288.165H718.461V292.344C718.461 292.792 718.564 293.123 718.769 293.338C718.974 293.548 719.32 293.653 719.805 293.653C720.08 293.653 720.344 293.623 720.596 293.562C720.853 293.501 721.093 293.415 721.317 293.303L721.212 294.276C720.993 294.388 720.736 294.477 720.442 294.542C720.148 294.607 719.845 294.64 719.532 294.64ZM716.221 288.676V287.766H721.247L721.142 288.676H716.221ZM717.348 287.878L717.341 285.96L718.482 285.813L718.433 287.878H717.348Z" fill="#1A468F"/>
<path d="M756.5 293.375C756.5 293.673 756.381 293.96 756.17 294.17C755.96 294.381 755.673 294.5 755.375 294.5H752V296.75H754.25C754.548 296.75 754.835 296.869 755.045 297.08C755.256 297.29 755.375 297.577 755.375 297.875C755.375 298.173 755.256 298.46 755.045 298.67C754.835 298.881 754.548 299 754.25 299H752V301.25C752 301.548 751.881 301.835 751.67 302.045C751.46 302.256 751.173 302.375 750.875 302.375C750.577 302.375 750.29 302.256 750.08 302.045C749.869 301.835 749.75 301.548 749.75 301.25V293.375C749.75 293.077 749.869 292.79 750.08 292.58C750.29 292.369 750.577 292.25 750.875 292.25H755.375C755.673 292.25 755.96 292.369 756.17 292.58C756.381 292.79 756.5 293.077 756.5 293.375ZM737.938 296.188C737.938 297.232 737.523 298.233 736.784 298.972C736.046 299.71 735.044 300.125 734 300.125H732.875V301.25C732.875 301.548 732.756 301.835 732.545 302.045C732.335 302.256 732.048 302.375 731.75 302.375C731.452 302.375 731.165 302.256 730.955 302.045C730.744 301.835 730.625 301.548 730.625 301.25V293.375C730.625 293.077 730.744 292.79 730.955 292.58C731.165 292.369 731.452 292.25 731.75 292.25H734C735.044 292.25 736.046 292.665 736.784 293.403C737.523 294.142 737.938 295.143 737.938 296.188ZM735.688 296.188C735.688 295.74 735.51 295.311 735.193 294.994C734.877 294.678 734.448 294.5 734 294.5H732.875V297.875H734C734.448 297.875 734.877 297.697 735.193 297.381C735.51 297.064 735.688 296.635 735.688 296.188ZM748.062 297.312C748.062 298.655 747.529 299.943 746.58 300.892C745.63 301.842 744.343 302.375 743 302.375H740.75C740.452 302.375 740.165 302.256 739.955 302.045C739.744 301.835 739.625 301.548 739.625 301.25V293.375C739.625 293.077 739.744 292.79 739.955 292.58C740.165 292.369 740.452 292.25 740.75 292.25H743C744.343 292.25 745.63 292.783 746.58 293.733C747.529 294.682 748.062 295.97 748.062 297.312ZM745.812 297.312C745.812 296.567 745.516 295.851 744.989 295.324C744.461 294.796 743.746 294.5 743 294.5H741.875V300.125H743C743.746 300.125 744.461 299.829 744.989 299.301C745.516 298.774 745.812 298.058 745.812 297.312ZM730.625 287.75V277.625C730.625 277.028 730.862 276.456 731.284 276.034C731.706 275.612 732.278 275.375 732.875 275.375H746.375C746.523 275.375 746.669 275.404 746.806 275.46C746.942 275.517 747.066 275.6 747.171 275.704L755.046 283.579C755.15 283.684 755.233 283.808 755.29 283.944C755.346 284.081 755.375 284.227 755.375 284.375V287.75C755.375 288.048 755.256 288.335 755.045 288.545C754.835 288.756 754.548 288.875 754.25 288.875C753.952 288.875 753.665 288.756 753.455 288.545C753.244 288.335 753.125 288.048 753.125 287.75V285.5H746.375C746.077 285.5 745.79 285.381 745.58 285.17C745.369 284.96 745.25 284.673 745.25 284.375V277.625H732.875V287.75C732.875 288.048 732.756 288.335 732.545 288.545C732.335 288.756 732.048 288.875 731.75 288.875C731.452 288.875 731.165 288.756 730.955 288.545C730.744 288.335 730.625 288.048 730.625 287.75ZM747.5 283.25H751.535L747.5 279.215V283.25Z" fill="#1F48DA"/>
</g>
<g filter="url(#filter2_d_75_3459)">
<rect x="150" y="238" width="255" height="112" rx="20" fill="#7696EA"/>
<rect x="174" y="285.529" width="46" height="2.42025" rx="1.21012" fill="white"/>
<rect x="174" y="292.79" width="46" height="2.42025" rx="1.21012" fill="white"/>
<rect x="174" y="300.051" width="46" height="2.42025" rx="1.21012" fill="white"/>
<path d="M286.333 268.667V287.333H267.667V268.667H286.333ZM286.333 266H267.667C266.2 266 265 267.2 265 268.667V287.333C265 288.8 266.2 290 267.667 290H286.333C287.8 290 289 288.8 289 287.333V268.667C289 267.2 287.8 266 286.333 266ZM279.853 277.813L275.853 282.973L273 279.52L269 284.667H285L279.853 277.813Z" fill="white"/>
<path d="M318.333 268.667V287.333H299.667V268.667H318.333ZM318.333 266H299.667C298.2 266 297 267.2 297 268.667V287.333C297 288.8 298.2 290 299.667 290H318.333C319.8 290 321 288.8 321 287.333V268.667C321 267.2 319.8 266 318.333 266ZM311.853 277.813L307.853 282.973L305 279.52L301 284.667H317L311.853 277.813Z" fill="white"/>
<path d="M286.333 300.667V319.333H267.667V300.667H286.333ZM286.333 298H267.667C266.2 298 265 299.2 265 300.667V319.333C265 320.8 266.2 322 267.667 322H286.333C287.8 322 289 320.8 289 319.333V300.667C289 299.2 287.8 298 286.333 298ZM279.853 309.813L275.853 314.973L273 311.52L269 316.667H285L279.853 309.813Z" fill="white"/>
<rect x="349" y="278" width="32" height="32" rx="3.04772" fill="white"/>
<path d="M365 284C359.48 284 355 288.48 355 294C355 299.52 359.48 304 365 304C370.52 304 375 299.52 375 294C375 288.48 370.52 284 365 284ZM369.95 292.23L364.29 297.89C364.197 297.983 364.088 298.056 363.967 298.106C363.846 298.157 363.716 298.182 363.585 298.182C363.454 298.182 363.324 298.157 363.203 298.106C363.082 298.056 362.973 297.983 362.88 297.89L360.05 295.06C359.957 294.967 359.884 294.858 359.834 294.737C359.784 294.616 359.758 294.486 359.758 294.355C359.758 294.224 359.784 294.094 359.834 293.973C359.884 293.852 359.957 293.743 360.05 293.65C360.143 293.557 360.252 293.484 360.373 293.434C360.494 293.384 360.624 293.358 360.755 293.358C360.886 293.358 361.016 293.384 361.137 293.434C361.258 293.484 361.367 293.557 361.46 293.65L363.58 295.77L368.53 290.82C368.623 290.727 368.732 290.654 368.853 290.604C368.974 290.553 369.104 290.528 369.235 290.528C369.366 290.528 369.496 290.553 369.617 290.604C369.738 290.654 369.847 290.727 369.94 290.82C370.34 291.21 370.34 291.84 369.95 292.23Z" fill="#1DD75B"/>
</g>
<g filter="url(#filter3_d_75_3459)">
<rect x="191" y="368" width="255" height="112" rx="20" fill="#A8C0FF"/>
<rect x="215" y="415.529" width="46" height="2.42025" rx="1.21012" fill="white"/>
<rect x="215" y="422.79" width="46" height="2.42025" rx="1.21012" fill="white"/>
<rect x="215" y="430.051" width="46" height="2.42025" rx="1.21012" fill="white"/>
<path d="M327.333 398.667V417.333H308.667V398.667H327.333ZM327.333 396H308.667C307.2 396 306 397.2 306 398.667V417.333C306 418.8 307.2 420 308.667 420H327.333C328.8 420 330 418.8 330 417.333V398.667C330 397.2 328.8 396 327.333 396ZM320.853 407.813L316.853 412.973L314 409.52L310 414.667H326L320.853 407.813Z" fill="white"/>
<path d="M359.333 398.667V417.333H340.667V398.667H359.333ZM359.333 396H340.667C339.2 396 338 397.2 338 398.667V417.333C338 418.8 339.2 420 340.667 420H359.333C360.8 420 362 418.8 362 417.333V398.667C362 397.2 360.8 396 359.333 396ZM352.853 407.813L348.853 412.973L346 409.52L342 414.667H358L352.853 407.813Z" fill="white"/>
<path d="M327.333 430.667V449.333H308.667V430.667H327.333ZM327.333 428H308.667C307.2 428 306 429.2 306 430.667V449.333C306 450.8 307.2 452 308.667 452H327.333C328.8 452 330 450.8 330 449.333V430.667C330 429.2 328.8 428 327.333 428ZM320.853 439.813L316.853 444.973L314 441.52L310 446.667H326L320.853 439.813Z" fill="white"/>
<rect x="390" y="408" width="32" height="32" rx="3.04772" fill="white"/>
<path d="M406 414C400.48 414 396 418.48 396 424C396 429.52 400.48 434 406 434C411.52 434 416 429.52 416 424C416 418.48 411.52 414 406 414ZM410.95 422.23L405.29 427.89C405.197 427.983 405.088 428.056 404.967 428.106C404.846 428.157 404.716 428.182 404.585 428.182C404.454 428.182 404.324 428.157 404.203 428.106C404.082 428.056 403.973 427.983 403.88 427.89L401.05 425.06C400.957 424.967 400.884 424.858 400.834 424.737C400.784 424.616 400.758 424.486 400.758 424.355C400.758 424.224 400.784 424.094 400.834 423.973C400.884 423.852 400.957 423.743 401.05 423.65C401.143 423.557 401.252 423.484 401.373 423.434C401.494 423.384 401.624 423.358 401.755 423.358C401.886 423.358 402.016 423.384 402.137 423.434C402.258 423.484 402.367 423.557 402.46 423.65L404.58 425.77L409.53 420.82C409.623 420.727 409.732 420.654 409.853 420.604C409.974 420.553 410.104 420.528 410.235 420.528C410.366 420.528 410.496 420.553 410.617 420.604C410.738 420.654 410.847 420.727 410.94 420.82C411.34 421.21 411.34 421.84 410.95 422.23Z" fill="#1DD75B"/>
</g>
<g filter="url(#filter4_d_75_3459)">
<rect x="626" y="423" width="255" height="112" rx="20" fill="#7696EA"/>
<rect x="650" y="470.529" width="46" height="2.42025" rx="1.21012" fill="white"/>
<rect x="650" y="477.79" width="46" height="2.42025" rx="1.21012" fill="white"/>
<rect x="650" y="485.051" width="46" height="2.42025" rx="1.21012" fill="white"/>
<path d="M762.333 453.667V472.333H743.667V453.667H762.333ZM762.333 451H743.667C742.2 451 741 452.2 741 453.667V472.333C741 473.8 742.2 475 743.667 475H762.333C763.8 475 765 473.8 765 472.333V453.667C765 452.2 763.8 451 762.333 451ZM755.853 462.813L751.853 467.973L749 464.52L745 469.667H761L755.853 462.813Z" fill="white"/>
<path d="M794.333 453.667V472.333H775.667V453.667H794.333ZM794.333 451H775.667C774.2 451 773 452.2 773 453.667V472.333C773 473.8 774.2 475 775.667 475H794.333C795.8 475 797 473.8 797 472.333V453.667C797 452.2 795.8 451 794.333 451ZM787.853 462.813L783.853 467.973L781 464.52L777 469.667H793L787.853 462.813Z" fill="white"/>
<path d="M762.333 485.667V504.333H743.667V485.667H762.333ZM762.333 483H743.667C742.2 483 741 484.2 741 485.667V504.333C741 505.8 742.2 507 743.667 507H762.333C763.8 507 765 505.8 765 504.333V485.667C765 484.2 763.8 483 762.333 483ZM755.853 494.813L751.853 499.973L749 496.52L745 501.667H761L755.853 494.813Z" fill="white"/>
<path d="M794.333 485.667V504.333H775.667V485.667H794.333ZM794.333 483H775.667C774.2 483 773 484.2 773 485.667V504.333C773 505.8 774.2 507 775.667 507H794.333C795.8 507 797 505.8 797 504.333V485.667C797 484.2 795.8 483 794.333 483ZM787.853 494.813L783.853 499.973L781 496.52L777 501.667H793L787.853 494.813Z" fill="white"/>
<rect x="825" y="463" width="32" height="32" rx="3.04772" fill="white"/>
<path d="M841 469C835.48 469 831 473.48 831 479C831 484.52 835.48 489 841 489C846.52 489 851 484.52 851 479C851 473.48 846.52 469 841 469ZM841 480C840.45 480 840 479.55 840 479V475C840 474.45 840.45 474 841 474C841.55 474 842 474.45 842 475V479C842 479.55 841.55 480 841 480ZM841 484C840.45 484 840 483.55 840 483C840 482.45 840.45 482 841 482C841.55 482 842 482.45 842 483C842 483.55 841.55 484 841 484Z" fill="#DE3B40"/>
</g>
</g>
<defs>
<filter id="filter0_d_75_3459" x="311.742" y="-15.3921" width="442.195" height="713.695" filterUnits="userSpaceOnUse" color-interpolation-filters="sRGB">
<feFlood flood-opacity="0" result="BackgroundImageFix"/>
<feColorMatrix in="SourceAlpha" type="matrix" values="0 0 0 0 0 0 0 0 0 0 0 0 0 0 0 0 0 0 127 0" result="hardAlpha"/>
<feMorphology radius="7.84802" operator="dilate" in="SourceAlpha" result="effect1_dropShadow_75_3459"/>
<feOffset dy="23.5441"/>
<feGaussianBlur stdDeviation="23.5441"/>
<feComposite in2="hardAlpha" operator="out"/>
<feColorMatrix type="matrix" values="0 0 0 0 0.179053 0 0 0 0 0.161346 0 0 0 0 0.161346 0 0 0 0.1 0"/>
<feBlend mode="normal" in2="BackgroundImageFix" result="effect1_dropShadow_75_3459"/>
<feBlend mode="normal" in="SourceGraphic" in2="effect1_dropShadow_75_3459" result="shape"/>
</filter>
<filter id="filter1_d_75_3459" x="607" y="202" width="228" height="184" filterUnits="userSpaceOnUse" color-interpolation-filters="sRGB">
<feFlood flood-opacity="0" result="BackgroundImageFix"/>
<feColorMatrix in="SourceAlpha" type="matrix" values="0 0 0 0 0 0 0 0 0 0 0 0 0 0 0 0 0 0 127 0" result="hardAlpha"/>
<feMorphology radius="10" operator="dilate" in="SourceAlpha" result="effect1_dropShadow_75_3459"/>
<feOffset dy="4"/>
<feGaussianBlur stdDeviation="20"/>
<feComposite in2="hardAlpha" operator="out"/>
<feColorMatrix type="matrix" values="0 0 0 0 0.180392 0 0 0 0 0.160784 0 0 0 0 0.160784 0 0 0 0.1 0"/>
<feBlend mode="normal" in2="BackgroundImageFix" result="effect1_dropShadow_75_3459"/>
<feBlend mode="normal" in="SourceGraphic" in2="effect1_dropShadow_75_3459" result="shape"/>
</filter>
<filter id="filter2_d_75_3459" x="100" y="192" width="355" height="212" filterUnits="userSpaceOnUse" color-interpolation-filters="sRGB">
<feFlood flood-opacity="0" result="BackgroundImageFix"/>
<feColorMatrix in="SourceAlpha" type="matrix" values="0 0 0 0 0 0 0 0 0 0 0 0 0 0 0 0 0 0 127 0" result="hardAlpha"/>
<feMorphology radius="10" operator="dilate" in="SourceAlpha" result="effect1_dropShadow_75_3459"/>
<feOffset dy="4"/>
<feGaussianBlur stdDeviation="20"/>
<feComposite in2="hardAlpha" operator="out"/>
<feColorMatrix type="matrix" values="0 0 0 0 0.180392 0 0 0 0 0.160784 0 0 0 0 0.160784 0 0 0 0.1 0"/>
<feBlend mode="normal" in2="BackgroundImageFix" result="effect1_dropShadow_75_3459"/>
<feBlend mode="normal" in="SourceGraphic" in2="effect1_dropShadow_75_3459" result="shape"/>
</filter>
<filter id="filter3_d_75_3459" x="141" y="322" width="355" height="212" filterUnits="userSpaceOnUse" color-interpolation-filters="sRGB">
<feFlood flood-opacity="0" result="BackgroundImageFix"/>
<feColorMatrix in="SourceAlpha" type="matrix" values="0 0 0 0 0 0 0 0 0 0 0 0 0 0 0 0 0 0 127 0" result="hardAlpha"/>
<feMorphology radius="10" operator="dilate" in="SourceAlpha" result="effect1_dropShadow_75_3459"/>
<feOffset dy="4"/>
<feGaussianBlur stdDeviation="20"/>
<feComposite in2="hardAlpha" operator="out"/>
<feColorMatrix type="matrix" values="0 0 0 0 0.180392 0 0 0 0 0.160784 0 0 0 0 0.160784 0 0 0 0.1 0"/>
<feBlend mode="normal" in2="BackgroundImageFix" result="effect1_dropShadow_75_3459"/>
<feBlend mode="normal" in="SourceGraphic" in2="effect1_dropShadow_75_3459" result="shape"/>
</filter>
<filter id="filter4_d_75_3459" x="576" y="377" width="355" height="212" filterUnits="userSpaceOnUse" color-interpolation-filters="sRGB">
<feFlood flood-opacity="0" result="BackgroundImageFix"/>
<feColorMatrix in="SourceAlpha" type="matrix" values="0 0 0 0 0 0 0 0 0 0 0 0 0 0 0 0 0 0 127 0" result="hardAlpha"/>
<feMorphology radius="10" operator="dilate" in="SourceAlpha" result="effect1_dropShadow_75_3459"/>
<feOffset dy="4"/>
<feGaussianBlur stdDeviation="20"/>
<feComposite in2="hardAlpha" operator="out"/>
<feColorMatrix type="matrix" values="0 0 0 0 0.180392 0 0 0 0 0.160784 0 0 0 0 0.160784 0 0 0 0.1 0"/>
<feBlend mode="normal" in2="BackgroundImageFix" result="effect1_dropShadow_75_3459"/>
<feBlend mode="normal" in="SourceGraphic" in2="effect1_dropShadow_75_3459" result="shape"/>
</filter>
<clipPath id="clip0_75_3459">
<rect width="56.1785" height="21.1558" fill="white" transform="translate(505.072 42.4443)"/>
</clipPath>
<clipPath id="clip1_75_3459">
<rect width="131.501" height="140.492" fill="white" transform="translate(466.708 286.604)"/>
</clipPath>
</defs>
</svg>
