<svg width="456" height="456" viewBox="0 0 456 456" fill="none" xmlns="http://www.w3.org/2000/svg">
<g clip-path="url(#clip0_64_7357)">
<path d="M242.71 294.194C283.329 294.194 316.258 261.265 316.258 220.645C316.258 180.026 283.329 147.097 242.71 147.097C202.09 147.097 169.161 180.026 169.161 220.645C169.161 261.265 202.09 294.194 242.71 294.194Z" fill="#7696EA"/>
<path d="M213.291 58.8387C213.291 80.609 201.449 99.6581 183.871 109.734C175.266 114.809 165.19 117.677 154.452 117.677C143.714 117.677 133.638 114.809 125.033 109.734C107.455 99.6581 95.6133 80.609 95.6133 58.8387C95.6133 26.3303 121.944 0 154.452 0C186.96 0 213.291 26.3303 213.291 58.8387Z" fill="#7696EA"/>
<path d="M128.268 127.533L98.1131 187.916C93.9944 185.268 89.655 183.062 85.0215 181.37L115.176 120.987C119.295 123.635 123.634 125.841 128.268 127.533Z" fill="#275EBA"/>
<path d="M328.099 77.6671C326.408 82.2271 325.157 87.0813 324.495 92.009L225.646 77.0787C226.897 72.3716 227.632 67.5174 227.926 62.5161L328.099 77.6671Z" fill="#275EBA"/>
<path d="M404.516 176.148V250.432C402.089 250.212 399.662 250.065 397.161 250.065C394.661 250.065 392.234 250.212 389.807 250.432V176.148C392.234 176.369 394.661 176.516 397.161 176.516C399.662 176.516 402.089 176.369 404.516 176.148Z" fill="#275EBA"/>
<path d="M331.115 355.901L269.775 378.627C268.525 373.773 266.833 369.213 264.627 364.874L325.966 342.147C327.217 347.001 328.908 351.561 331.115 355.901Z" fill="#275EBA"/>
<path d="M153.569 339.058C149.671 342.074 146.067 345.457 142.831 349.208L103.851 308.168C107.749 305.152 111.353 301.769 114.589 298.018L153.569 339.058Z" fill="#275EBA"/>
<path d="M157.026 241.827L132.24 245.799C131.946 240.797 131.211 235.943 129.887 231.236L154.746 227.264C155.04 232.192 155.849 237.12 157.026 241.827Z" fill="#275EBA"/>
<path d="M207.039 139.889C202.552 141.875 198.213 144.302 194.168 147.023L182.988 126.577C187.548 124.738 191.888 122.311 195.933 119.516L207.039 139.889Z" fill="#275EBA"/>
<path d="M340.308 276.91C337.219 280.661 334.498 284.779 332.218 289.119L311.771 275.512C314.861 271.688 317.582 267.569 319.935 263.303L340.308 276.91Z" fill="#275EBA"/>
<path d="M228.515 307.726L223.44 327.952C218.88 326.261 214.1 325.084 209.172 324.422L214.247 304.196C218.88 305.814 223.661 306.991 228.515 307.726Z" fill="#275EBA"/>
<path d="M341.044 150.554L315.67 171.074C312.875 166.955 309.786 163.13 306.329 159.6L332.659 138.345C335.087 142.684 337.881 146.803 341.044 150.554Z" fill="#275EBA"/>
<path d="M183.871 80.9032V109.734C175.266 114.809 165.19 117.677 154.452 117.677C143.714 117.677 133.637 114.809 125.032 109.734V80.9032C125.032 72.8129 131.652 66.1935 139.742 66.1935H169.161C177.252 66.1935 183.871 72.8129 183.871 80.9032Z" fill="#46D2A8"/>
<path d="M154.452 58.8387C164.606 58.8387 172.839 50.6065 172.839 40.4516C172.839 30.2967 164.606 22.0645 154.452 22.0645C144.297 22.0645 136.064 30.2967 136.064 40.4516C136.064 50.6065 144.297 58.8387 154.452 58.8387Z" fill="#FFE212"/>
<path d="M456 102.968C456 124.738 444.158 143.787 426.58 153.863C417.975 158.938 407.899 161.806 397.161 161.806C386.423 161.806 376.347 158.938 367.742 153.863C350.164 143.787 338.322 124.738 338.322 102.968C338.322 70.4594 364.653 44.129 397.161 44.129C429.669 44.129 456 70.4594 456 102.968Z" fill="#7696EA"/>
<path d="M426.581 125.032V153.863C417.976 158.938 407.9 161.806 397.162 161.806C386.423 161.806 376.347 158.938 367.742 153.863V125.032C367.742 116.942 374.362 110.323 382.452 110.323H411.871C419.962 110.323 426.581 116.942 426.581 125.032Z" fill="#0DC7FF"/>
<path d="M397.162 102.968C407.316 102.968 415.549 94.7356 415.549 84.5806C415.549 74.4257 407.316 66.1935 397.162 66.1935C387.007 66.1935 378.774 74.4257 378.774 84.5806C378.774 94.7356 387.007 102.968 397.162 102.968Z" fill="#FFE212"/>
<path d="M456 323.613C456 345.383 444.158 364.432 426.58 374.508C417.975 379.583 407.899 382.452 397.161 382.452C386.423 382.452 376.347 379.583 367.742 374.508C350.164 364.432 338.322 345.383 338.322 323.613C338.322 291.105 364.653 264.774 397.161 264.774C429.669 264.774 456 291.105 456 323.613Z" fill="#7696EA"/>
<path d="M426.581 345.677V374.508C417.976 379.583 407.9 382.452 397.162 382.452C386.423 382.452 376.347 379.583 367.742 374.508V345.677C367.742 337.587 374.362 330.968 382.452 330.968H411.871C419.962 330.968 426.581 337.587 426.581 345.677Z" fill="#405FFF"/>
<path d="M397.162 323.613C407.316 323.613 415.549 315.381 415.549 305.226C415.549 295.071 407.316 286.839 397.162 286.839C387.007 286.839 378.774 295.071 378.774 305.226C378.774 315.381 387.007 323.613 397.162 323.613Z" fill="#FFE212"/>
<path d="M257.42 397.161C257.42 418.932 245.578 437.981 228 448.057C219.395 453.132 209.319 456 198.581 456C187.843 456 177.767 453.132 169.162 448.057C151.583 437.981 139.742 418.932 139.742 397.161C139.742 364.653 166.073 338.323 198.581 338.323C231.089 338.323 257.42 364.653 257.42 397.161Z" fill="#7696EA"/>
<path d="M228 419.226V448.057C219.395 453.132 209.319 456 198.58 456C187.842 456 177.766 453.132 169.161 448.057V419.226C169.161 411.135 175.78 404.516 183.871 404.516H213.29C221.38 404.516 228 411.135 228 419.226Z" fill="#F25B49"/>
<path d="M198.58 397.161C208.735 397.161 216.968 388.929 216.968 378.774C216.968 368.619 208.735 360.387 198.58 360.387C188.426 360.387 180.193 368.619 180.193 378.774C180.193 388.929 188.426 397.161 198.58 397.161Z" fill="#FFE212"/>
<path d="M117.677 250.065C117.677 271.835 105.836 290.884 88.2581 300.96C79.6529 306.035 69.5768 308.903 58.8387 308.903C48.1006 308.903 38.0245 306.035 29.4194 300.96C11.8413 290.884 0 271.835 0 250.065C0 217.556 26.3303 191.226 58.8387 191.226C91.3471 191.226 117.677 217.556 117.677 250.065Z" fill="#7696EA"/>
<path d="M88.2577 272.129V300.96C79.6525 306.035 69.5764 308.903 58.8383 308.903C48.1002 308.903 38.0241 306.035 29.4189 300.96V272.129C29.4189 264.039 36.0383 257.419 44.1286 257.419H73.548C81.6383 257.419 88.2577 264.039 88.2577 272.129Z" fill="#A740F7"/>
<path d="M58.8383 250.065C68.9932 250.065 77.2254 241.832 77.2254 231.677C77.2254 221.523 68.9932 213.29 58.8383 213.29C48.6834 213.29 40.4512 221.523 40.4512 231.677C40.4512 241.832 48.6834 250.065 58.8383 250.065Z" fill="#FFE212"/>
<path d="M275.365 286.544V245.21C275.365 236.237 268.01 228.883 259.037 228.883H226.381C217.409 228.883 210.054 236.237 210.054 245.21V286.544C219.909 291.472 230.941 294.194 242.709 294.194C254.477 294.194 265.509 291.472 275.365 286.544Z" fill="#F2F5FF"/>
<path d="M242.71 220.645C254.002 220.645 263.157 211.491 263.157 200.199C263.157 188.906 254.002 179.752 242.71 179.752C231.418 179.752 222.264 188.906 222.264 200.199C222.264 211.491 231.418 220.645 242.71 220.645Z" fill="#FFE212"/>
</g>
<defs>
<clipPath id="clip0_64_7357">
<rect width="456" height="456" fill="white"/>
</clipPath>
</defs>
</svg>
