<svg width="100" height="100" viewBox="0 0 100 100" fill="none" xmlns="http://www.w3.org/2000/svg">
<path d="M29.1668 33.3333H16.6668C12.0835 33.3333 8.3335 29.5833 8.3335 25V16.6666C8.3335 12.0833 12.0835 8.33331 16.6668 8.33331H29.1668C33.7502 8.33331 37.5002 12.0833 37.5002 16.6666V25C37.5002 29.5833 33.7502 33.3333 29.1668 33.3333Z" stroke="white" stroke-width="1.5" stroke-linecap="round" stroke-linejoin="round"/>
<path d="M86.6665 29.1667H71.6665C68.9165 29.1667 66.6665 26.9166 66.6665 24.1666V17.5001C66.6665 14.7501 68.9165 12.5 71.6665 12.5H86.6665C89.4165 12.5 91.6665 14.7501 91.6665 17.5001V24.1666C91.6665 26.9166 89.4165 29.1667 86.6665 29.1667Z" stroke="white" stroke-width="1.5" stroke-linecap="round" stroke-linejoin="round"/>
<path d="M86.6665 60.4167H71.6665C68.9165 60.4167 66.6665 58.1666 66.6665 55.4166V48.7501C66.6665 46.0001 68.9165 43.75 71.6665 43.75H86.6665C89.4165 43.75 91.6665 46.0001 91.6665 48.7501V55.4166C91.6665 58.1666 89.4165 60.4167 86.6665 60.4167Z" stroke="white" stroke-width="1.5" stroke-linecap="round" stroke-linejoin="round"/>
<path d="M37.5 20.8333H66.6667" stroke="#A8C0FF" stroke-width="1.5" stroke-miterlimit="10" stroke-linecap="round" stroke-linejoin="round"/>
<path d="M52.0835 20.8333V75C52.0835 79.5833 55.8335 83.3333 60.4168 83.3333H66.6668" stroke="#A8C0FF" stroke-width="1.5" stroke-miterlimit="10" stroke-linecap="round" stroke-linejoin="round"/>
<path d="M52.0835 52.0833H66.6668" stroke="#A8C0FF" stroke-width="1.5" stroke-miterlimit="10" stroke-linecap="round" stroke-linejoin="round"/>
<path d="M86.6665 91.6667H71.6665C68.9165 91.6667 66.6665 89.4166 66.6665 86.6666V80.0001C66.6665 77.2501 68.9165 75 71.6665 75H86.6665C89.4165 75 91.6665 77.2501 91.6665 80.0001V86.6666C91.6665 89.4166 89.4165 91.6667 86.6665 91.6667Z" stroke="white" stroke-width="1.5" stroke-linecap="round" stroke-linejoin="round"/>
</svg>
