<svg width="388" height="389" viewBox="0 0 388 389" fill="none" xmlns="http://www.w3.org/2000/svg">
<g filter="url(#filter0_d_64_6872)">
<rect x="10" y="8" width="368" height="369" rx="14" fill="white"/>
</g>
<path d="M33.43 59.0662H31.42V46.2862H33.43V59.0662ZM32.52 57.3662H39.22V59.0662H32.52V57.3662ZM44.5178 59.3162C43.0778 59.3162 41.9845 58.9328 41.2378 58.1662C40.4911 57.3995 40.1178 56.2962 40.1178 54.8562V53.4662C40.1178 52.0328 40.4911 50.9362 41.2378 50.1762C41.9845 49.4095 43.0778 49.0262 44.5178 49.0262C45.9578 49.0262 47.0478 49.4095 47.7878 50.1762C48.5345 50.9362 48.9078 52.0328 48.9078 53.4662V54.8562C48.9078 56.2962 48.5345 57.3995 47.7878 58.1662C47.0478 58.9328 45.9578 59.3162 44.5178 59.3162ZM44.5178 57.7262C45.3111 57.7262 45.9145 57.4895 46.3278 57.0162C46.7411 56.5428 46.9478 55.8628 46.9478 54.9762V53.3462C46.9478 52.4662 46.7411 51.7928 46.3278 51.3262C45.9145 50.8528 45.3111 50.6162 44.5178 50.6162C43.7245 50.6162 43.1211 50.8528 42.7078 51.3262C42.2945 51.7928 42.0878 52.4662 42.0878 53.3462V54.9762C42.0878 55.8628 42.2945 56.5428 42.7078 57.0162C43.1211 57.4895 43.7245 57.7262 44.5178 57.7262ZM52.8856 53.1562L52.4656 51.6262H52.9456C53.1523 50.8528 53.499 50.2462 53.9856 49.8062C54.4723 49.3595 55.1356 49.1362 55.9756 49.1362C56.1756 49.1362 56.3523 49.1528 56.5056 49.1862C56.6656 49.2128 56.809 49.2462 56.9356 49.2862L57.0556 51.1962C56.8956 51.1428 56.7156 51.1028 56.5156 51.0762C56.3156 51.0428 56.099 51.0262 55.8656 51.0262C55.1523 51.0262 54.5356 51.2095 54.0156 51.5762C53.4956 51.9428 53.119 52.4695 52.8856 53.1562ZM51.0056 59.0662V49.2862H52.9156L52.8256 52.1362L52.9656 52.2762V59.0662H51.0056ZM62.6003 59.2962C61.0403 59.2962 59.8703 58.9262 59.0903 58.1862C58.317 57.4395 57.9303 56.3662 57.9303 54.9662V53.3662C57.9303 51.9862 58.2903 50.9195 59.0103 50.1662C59.737 49.4062 60.7936 49.0262 62.1803 49.0262C63.1203 49.0262 63.9036 49.1995 64.5303 49.5462C65.157 49.8862 65.627 50.3695 65.9403 50.9962C66.2536 51.6228 66.4103 52.3662 66.4103 53.2262V53.5962C66.4103 53.8228 66.4003 54.0528 66.3803 54.2862C66.3603 54.5195 66.3336 54.7428 66.3003 54.9562H64.5003C64.5136 54.6095 64.5203 54.2828 64.5203 53.9762C64.527 53.6695 64.5303 53.3895 64.5303 53.1362C64.5303 52.5962 64.4436 52.1395 64.2703 51.7662C64.097 51.3928 63.837 51.1095 63.4903 50.9162C63.1436 50.7162 62.707 50.6162 62.1803 50.6162C61.4003 50.6162 60.8203 50.8395 60.4403 51.2862C60.0603 51.7262 59.8703 52.3562 59.8703 53.1762V54.0962L59.8803 54.3262V55.1962C59.8803 55.5628 59.9336 55.8962 60.0403 56.1962C60.1536 56.4962 60.3303 56.7562 60.5703 56.9762C60.817 57.1895 61.1336 57.3562 61.5203 57.4762C61.907 57.5895 62.377 57.6462 62.9303 57.6462C63.557 57.6462 64.1436 57.5662 64.6903 57.4062C65.2436 57.2462 65.7636 57.0328 66.2503 56.7662L66.0703 58.4362C65.6303 58.6962 65.117 58.9062 64.5303 59.0662C63.9503 59.2195 63.307 59.2962 62.6003 59.2962ZM58.9703 54.9562V53.4862H65.9003V54.9562H58.9703ZM80.5775 59.0662V52.9762C80.5775 52.5162 80.5175 52.1162 80.3975 51.7762C80.2842 51.4295 80.0908 51.1628 79.8175 50.9762C79.5508 50.7895 79.1875 50.6962 78.7275 50.6962C78.2875 50.6962 77.9075 50.7828 77.5875 50.9562C77.2675 51.1295 77.0075 51.3628 76.8075 51.6562C76.6142 51.9495 76.4742 52.2828 76.3875 52.6562L76.1275 51.2962H76.3575C76.4775 50.9028 76.6608 50.5362 76.9075 50.1962C77.1542 49.8562 77.4875 49.5828 77.9075 49.3762C78.3275 49.1695 78.8575 49.0662 79.4975 49.0662C80.2175 49.0662 80.8008 49.2095 81.2475 49.4962C81.6942 49.7762 82.0208 50.1928 82.2275 50.7462C82.4342 51.2928 82.5375 51.9628 82.5375 52.7562V59.0662H80.5775ZM68.4275 59.0662V49.2862H70.3875L70.3075 51.5762L70.3875 51.6962V59.0662H68.4275ZM74.5075 59.0662V52.9762C74.5075 52.5162 74.4475 52.1162 74.3275 51.7762C74.2142 51.4295 74.0208 51.1628 73.7475 50.9762C73.4808 50.7895 73.1175 50.6962 72.6575 50.6962C72.2175 50.6962 71.8375 50.7828 71.5175 50.9562C71.1975 51.1295 70.9375 51.3628 70.7375 51.6562C70.5442 51.9495 70.4042 52.2828 70.3175 52.6562L69.9975 51.2962H70.4175C70.5242 50.8828 70.6975 50.5095 70.9375 50.1762C71.1842 49.8362 71.5108 49.5662 71.9175 49.3662C72.3242 49.1662 72.8242 49.0662 73.4175 49.0662C74.3242 49.0662 75.0108 49.2995 75.4775 49.7662C75.9442 50.2328 76.2375 50.9128 76.3575 51.8062C76.3908 51.9328 76.4142 52.0762 76.4275 52.2362C76.4475 52.3962 76.4575 52.5528 76.4575 52.7062V59.0662H74.5075ZM90.5884 59.0662H88.5784V46.2862H90.5884V59.0662ZM98.3417 59.2862C97.7617 59.2862 97.2617 59.1962 96.8417 59.0162C96.4284 58.8295 96.0917 58.5695 95.8317 58.2362C95.5717 57.8962 95.3817 57.5028 95.2617 57.0562H94.6117L95.1617 55.2062C95.1817 55.7528 95.2984 56.2095 95.5117 56.5762C95.7251 56.9362 96.0184 57.2062 96.3917 57.3862C96.7717 57.5662 97.2084 57.6562 97.7017 57.6562C98.4551 57.6562 99.0317 57.4395 99.4317 57.0062C99.8317 56.5662 100.032 55.9228 100.032 55.0762V53.2062C100.032 52.3728 99.8317 51.7395 99.4317 51.3062C99.0384 50.8728 98.4617 50.6562 97.7017 50.6562C97.2484 50.6562 96.8451 50.7428 96.4917 50.9162C96.1384 51.0895 95.8451 51.3262 95.6117 51.6262C95.3851 51.9195 95.2251 52.2562 95.1317 52.6362L94.6717 51.2962H95.2417C95.3551 50.8828 95.5351 50.5095 95.7817 50.1762C96.0284 49.8362 96.3651 49.5662 96.7917 49.3662C97.2251 49.1662 97.7684 49.0662 98.4217 49.0662C99.5884 49.0662 100.475 49.4328 101.082 50.1662C101.695 50.8995 102.002 51.9695 102.002 53.3762V54.9262C102.002 56.3462 101.695 57.4295 101.082 58.1762C100.468 58.9162 99.5551 59.2862 98.3417 59.2862ZM93.2517 62.5062V49.2862H95.2117L95.1317 51.5762L95.1617 52.1562V56.2562L95.1517 56.6362L95.2017 59.4062V62.5062H93.2517ZM107.291 59.2962C106.504 59.2962 105.814 59.2162 105.221 59.0562C104.627 58.8895 104.131 58.7095 103.731 58.5162L103.551 56.7262C104.044 56.9728 104.587 57.1895 105.181 57.3762C105.774 57.5562 106.441 57.6462 107.181 57.6462C107.894 57.6462 108.421 57.5428 108.761 57.3362C109.107 57.1228 109.281 56.8095 109.281 56.3962V56.3162C109.281 56.0495 109.211 55.8295 109.071 55.6562C108.931 55.4762 108.681 55.3162 108.321 55.1762C107.967 55.0362 107.464 54.8928 106.811 54.7462C105.991 54.5595 105.344 54.3395 104.871 54.0862C104.397 53.8328 104.057 53.5228 103.851 53.1562C103.651 52.7828 103.551 52.3362 103.551 51.8162V51.7262C103.551 50.8462 103.857 50.1795 104.471 49.7262C105.084 49.2728 106.004 49.0462 107.231 49.0462C108.004 49.0462 108.677 49.1295 109.251 49.2962C109.824 49.4628 110.297 49.6528 110.671 49.8662L110.851 51.4962C110.404 51.2562 109.894 51.0562 109.321 50.8962C108.754 50.7295 108.124 50.6462 107.431 50.6462C106.957 50.6462 106.577 50.6928 106.291 50.7862C106.004 50.8728 105.797 50.9995 105.671 51.1662C105.544 51.3262 105.481 51.5195 105.481 51.7462V51.8162C105.481 52.0628 105.547 52.2795 105.681 52.4662C105.814 52.6462 106.051 52.8095 106.391 52.9562C106.737 53.0962 107.217 53.2328 107.831 53.3662C108.657 53.5395 109.317 53.7428 109.811 53.9762C110.304 54.2095 110.661 54.5095 110.881 54.8762C111.101 55.2362 111.211 55.7028 111.211 56.2762V56.4262C111.211 57.3795 110.884 58.0962 110.231 58.5762C109.577 59.0562 108.597 59.2962 107.291 59.2962ZM114.838 49.2862V55.3262C114.838 55.7928 114.901 56.2028 115.028 56.5562C115.161 56.9028 115.378 57.1728 115.678 57.3662C115.978 57.5595 116.381 57.6562 116.888 57.6562C117.368 57.6562 117.778 57.5695 118.118 57.3962C118.464 57.2228 118.748 56.9895 118.968 56.6962C119.188 56.3962 119.341 56.0628 119.428 55.6962L119.748 57.0562H119.328C119.214 57.4628 119.028 57.8362 118.768 58.1762C118.508 58.5162 118.161 58.7862 117.728 58.9862C117.294 59.1862 116.758 59.2862 116.118 59.2862C115.358 59.2862 114.738 59.1428 114.258 58.8562C113.784 58.5628 113.434 58.1395 113.208 57.5862C112.988 57.0262 112.878 56.3462 112.878 55.5462V49.2862H114.838ZM121.318 49.2862V59.0662H119.358L119.438 56.7762L119.358 56.6562V49.2862H121.318ZM135.949 59.0662V52.9762C135.949 52.5162 135.889 52.1162 135.769 51.7762C135.655 51.4295 135.462 51.1628 135.189 50.9762C134.922 50.7895 134.559 50.6962 134.099 50.6962C133.659 50.6962 133.279 50.7828 132.959 50.9562C132.639 51.1295 132.379 51.3628 132.179 51.6562C131.985 51.9495 131.845 52.2828 131.759 52.6562L131.499 51.2962H131.729C131.849 50.9028 132.032 50.5362 132.279 50.1962C132.525 49.8562 132.859 49.5828 133.279 49.3762C133.699 49.1695 134.229 49.0662 134.869 49.0662C135.589 49.0662 136.172 49.2095 136.619 49.4962C137.065 49.7762 137.392 50.1928 137.599 50.7462C137.805 51.2928 137.909 51.9628 137.909 52.7562V59.0662H135.949ZM123.799 59.0662V49.2862H125.759L125.679 51.5762L125.759 51.6962V59.0662H123.799ZM129.879 59.0662V52.9762C129.879 52.5162 129.819 52.1162 129.699 51.7762C129.585 51.4295 129.392 51.1628 129.119 50.9762C128.852 50.7895 128.489 50.6962 128.029 50.6962C127.589 50.6962 127.209 50.7828 126.889 50.9562C126.569 51.1295 126.309 51.3628 126.109 51.6562C125.915 51.9495 125.775 52.2828 125.689 52.6562L125.369 51.2962H125.789C125.895 50.8828 126.069 50.5095 126.309 50.1762C126.555 49.8362 126.882 49.5662 127.289 49.3662C127.695 49.1662 128.195 49.0662 128.789 49.0662C129.695 49.0662 130.382 49.2995 130.849 49.7662C131.315 50.2328 131.609 50.9128 131.729 51.8062C131.762 51.9328 131.785 52.0762 131.799 52.2362C131.819 52.3962 131.829 52.5528 131.829 52.7062V59.0662H129.879ZM145.31 59.0662V57.3762H148.34C149.393 57.3762 150.183 57.0895 150.71 56.5162C151.243 55.9428 151.51 55.1228 151.51 54.0562V51.2762C151.51 50.2028 151.243 49.3828 150.71 48.8162C150.183 48.2428 149.393 47.9562 148.34 47.9562H145.3V46.2862H148.41C150.103 46.2862 151.38 46.7162 152.24 47.5762C153.1 48.4295 153.53 49.6595 153.53 51.2662V54.0662C153.53 55.6728 153.1 56.9095 152.24 57.7762C151.38 58.6362 150.103 59.0662 148.41 59.0662H145.31ZM143.94 59.0662V46.2862H145.92V59.0662H143.94ZM159.733 59.3162C158.293 59.3162 157.199 58.9328 156.453 58.1662C155.706 57.3995 155.333 56.2962 155.333 54.8562V53.4662C155.333 52.0328 155.706 50.9362 156.453 50.1762C157.199 49.4095 158.293 49.0262 159.733 49.0262C161.173 49.0262 162.263 49.4095 163.003 50.1762C163.749 50.9362 164.123 52.0328 164.123 53.4662V54.8562C164.123 56.2962 163.749 57.3995 163.003 58.1662C162.263 58.9328 161.173 59.3162 159.733 59.3162ZM159.733 57.7262C160.526 57.7262 161.129 57.4895 161.543 57.0162C161.956 56.5428 162.163 55.8628 162.163 54.9762V53.3462C162.163 52.4662 161.956 51.7928 161.543 51.3262C161.129 50.8528 160.526 50.6162 159.733 50.6162C158.939 50.6162 158.336 50.8528 157.923 51.3262C157.509 51.7928 157.303 52.4662 157.303 53.3462V54.9762C157.303 55.8628 157.509 56.5428 157.923 57.0162C158.336 57.4895 158.939 57.7262 159.733 57.7262ZM166.26 59.0662V45.8262H168.22V59.0662H166.26ZM176.482 59.0662L176.562 56.7462L176.492 56.4462V53.3662L176.502 52.8762C176.502 52.1228 176.309 51.5695 175.922 51.2162C175.542 50.8628 174.929 50.6862 174.082 50.6862C173.396 50.6862 172.759 50.7828 172.172 50.9762C171.586 51.1695 171.056 51.3928 170.582 51.6462L170.762 50.0062C171.029 49.8528 171.342 49.7028 171.702 49.5562C172.062 49.4095 172.469 49.2895 172.922 49.1962C173.376 49.1028 173.872 49.0562 174.412 49.0562C175.152 49.0562 175.779 49.1462 176.292 49.3262C176.806 49.4995 177.219 49.7528 177.532 50.0862C177.846 50.4195 178.072 50.8195 178.212 51.2862C178.359 51.7528 178.432 52.2728 178.432 52.8462V59.0662H176.482ZM173.172 59.2862C172.206 59.2862 171.466 59.0495 170.952 58.5762C170.439 58.0962 170.182 57.4162 170.182 56.5362V56.2362C170.182 55.3028 170.469 54.6128 171.042 54.1662C171.622 53.7128 172.532 53.3995 173.772 53.2262L176.712 52.8062L176.822 54.2262L174.002 54.6262C173.329 54.7195 172.849 54.8828 172.562 55.1162C172.276 55.3428 172.132 55.6795 172.132 56.1262V56.2662C172.132 56.7128 172.269 57.0562 172.542 57.2962C172.822 57.5362 173.246 57.6562 173.812 57.6562C174.332 57.6562 174.779 57.5695 175.152 57.3962C175.526 57.2228 175.829 56.9928 176.062 56.7062C176.296 56.4128 176.456 56.0895 176.542 55.7362L176.812 57.0462H176.452C176.346 57.4462 176.169 57.8162 175.922 58.1562C175.676 58.4962 175.329 58.7695 174.882 58.9762C174.442 59.1828 173.872 59.2862 173.172 59.2862ZM182.632 53.1562L182.212 51.6262H182.692C182.898 50.8528 183.245 50.2462 183.732 49.8062C184.218 49.3595 184.882 49.1362 185.722 49.1362C185.922 49.1362 186.098 49.1528 186.252 49.1862C186.412 49.2128 186.555 49.2462 186.682 49.2862L186.802 51.1962C186.642 51.1428 186.462 51.1028 186.262 51.0762C186.062 51.0428 185.845 51.0262 185.612 51.0262C184.898 51.0262 184.282 51.2095 183.762 51.5762C183.242 51.9428 182.865 52.4695 182.632 53.1562ZM180.752 59.0662V49.2862H182.662L182.572 52.1362L182.712 52.2762V59.0662H180.752Z" fill="#171A1F"/>
<path d="M10 95L378 95" stroke="#F0F0F0" stroke-width="2"/>
<rect x="99.8301" y="136.612" width="257.102" height="162.351" stroke="#BDBDBD" stroke-dasharray="1 1"/>
<path d="M99.3301 169.665H357.432" stroke="#BDBDBD" stroke-dasharray="2 2"/>
<path d="M99.3301 219H357.432" stroke="#BDBDBD" stroke-dasharray="2 2"/>
<path d="M99.3301 268H357.432" stroke="#BDBDBD" stroke-dasharray="2 2"/>
<path d="M164.517 136.112L164.517 299.462" stroke="#BDBDBD" stroke-dasharray="2 2"/>
<path d="M227.94 136.112L227.94 299.462" stroke="#BDBDBD" stroke-dasharray="2 2"/>
<path d="M293.127 136.112L293.127 299.462" stroke="#BDBDBD" stroke-dasharray="2 2"/>
<rect x="151" y="257" width="21" height="52" transform="rotate(90 151 257)" fill="#1F48DA"/>
<rect x="165" y="257" width="21" height="14" transform="rotate(90 165 257)" fill="#A8C0FF"/>
<rect x="199" y="257" width="21" height="34" transform="rotate(90 199 257)" fill="#52EA61"/>
<rect x="211" y="257" width="21" height="12" transform="rotate(90 211 257)" fill="#FF5959"/>
<rect x="122" y="208" width="21" height="23" transform="rotate(90 122 208)" fill="#1F48DA"/>
<rect x="151" y="208" width="21" height="29" transform="rotate(90 151 208)" fill="#A8C0FF"/>
<rect x="185" y="208" width="21" height="34" transform="rotate(90 185 208)" fill="#52EA61"/>
<rect x="257" y="208" width="21" height="72" transform="rotate(90 257 208)" fill="#FF5959"/>
<rect x="122" y="160" width="21" height="23" transform="rotate(90 122 160)" fill="#1F48DA"/>
<rect x="151" y="160" width="21" height="29" transform="rotate(90 151 160)" fill="#A8C0FF"/>
<rect x="185" y="160" width="21" height="34" transform="rotate(90 185 160)" fill="#52EA61"/>
<rect x="257" y="160" width="21" height="72" transform="rotate(90 257 160)" fill="#FF5959"/>
<path d="M48.9854 216L48.7694 214.428C48.7294 214.132 48.6614 213.876 48.5654 213.66C48.4694 213.44 48.3214 213.268 48.1214 213.144C47.9254 213.02 47.6454 212.958 47.2814 212.958L45.1994 212.952V212.166L47.4254 212.16C47.9494 212.16 48.3234 212.032 48.5474 211.776C48.7714 211.516 48.8834 211.164 48.8834 210.72V210.54C48.8834 210.1 48.7694 209.76 48.5414 209.52C48.3134 209.276 47.9334 209.154 47.4014 209.154H45.1694V208.332H47.5334C48.3574 208.332 48.9554 208.514 49.3274 208.878C49.7034 209.238 49.8914 209.736 49.8914 210.372V210.576C49.8914 211.076 49.7734 211.486 49.5374 211.806C49.3014 212.122 48.9094 212.314 48.3614 212.382V212.502L47.9354 212.352C48.3794 212.384 48.7214 212.482 48.9614 212.646C49.2054 212.806 49.3834 213.026 49.4954 213.306C49.6074 213.586 49.6934 213.922 49.7534 214.314L50.0114 216H48.9854ZM44.5154 216V208.332H45.4934V212.43L45.4994 212.808V216H44.5154ZM52.1391 210.144V213.786C52.1391 214.094 52.1811 214.364 52.2651 214.596C52.3531 214.824 52.4951 215.002 52.6911 215.13C52.8871 215.254 53.1511 215.316 53.4831 215.316C53.7951 215.316 54.0631 215.26 54.2871 215.148C54.5111 215.032 54.6931 214.874 54.8331 214.674C54.9771 214.474 55.0751 214.248 55.1271 213.996L55.3011 214.686H55.0911C55.0311 214.95 54.9211 215.192 54.7611 215.412C54.6011 215.628 54.3851 215.802 54.1131 215.934C53.8451 216.062 53.5131 216.126 53.1171 216.126C52.6571 216.126 52.2831 216.04 51.9951 215.868C51.7111 215.692 51.5031 215.438 51.3711 215.106C51.2391 214.77 51.1731 214.366 51.1731 213.894V210.144H52.1391ZM56.0571 210.144V216H55.0851L55.1271 214.596L55.0851 214.536V210.144H56.0571ZM59.4736 216.132C59.0016 216.132 58.5896 216.082 58.2376 215.982C57.8856 215.878 57.5936 215.766 57.3616 215.646L57.2716 214.746C57.5636 214.898 57.8836 215.03 58.2316 215.142C58.5836 215.254 58.9816 215.31 59.4256 215.31C59.8776 215.31 60.2176 215.238 60.4456 215.094C60.6736 214.95 60.7876 214.736 60.7876 214.452V214.386C60.7876 214.202 60.7436 214.05 60.6556 213.93C60.5716 213.81 60.4176 213.704 60.1936 213.612C59.9696 213.52 59.6516 213.428 59.2396 213.336C58.7476 213.228 58.3596 213.102 58.0756 212.958C57.7916 212.81 57.5876 212.628 57.4636 212.412C57.3436 212.196 57.2836 211.932 57.2836 211.62V211.566C57.2836 211.054 57.4616 210.666 57.8176 210.402C58.1736 210.138 58.7096 210.006 59.4256 210.006C59.8856 210.006 60.2836 210.058 60.6196 210.162C60.9596 210.266 61.2376 210.382 61.4536 210.51L61.5436 211.332C61.2836 211.18 60.9856 211.054 60.6496 210.954C60.3136 210.854 59.9356 210.804 59.5156 210.804C59.2116 210.804 58.9656 210.836 58.7776 210.9C58.5896 210.96 58.4536 211.048 58.3696 211.164C58.2856 211.276 58.2436 211.412 58.2436 211.572V211.62C58.2436 211.796 58.2856 211.946 58.3696 212.07C58.4536 212.19 58.6036 212.296 58.8196 212.388C59.0396 212.476 59.3436 212.562 59.7316 212.646C60.2316 212.746 60.6276 212.866 60.9196 213.006C61.2156 213.146 61.4276 213.324 61.5556 213.54C61.6836 213.752 61.7476 214.026 61.7476 214.362V214.464C61.7476 215.016 61.5556 215.432 61.1716 215.712C60.7876 215.992 60.2216 216.132 59.4736 216.132ZM64.7353 216.132C64.2633 216.132 63.8513 216.082 63.4993 215.982C63.1473 215.878 62.8553 215.766 62.6233 215.646L62.5333 214.746C62.8253 214.898 63.1453 215.03 63.4933 215.142C63.8453 215.254 64.2433 215.31 64.6873 215.31C65.1393 215.31 65.4793 215.238 65.7073 215.094C65.9353 214.95 66.0493 214.736 66.0493 214.452V214.386C66.0493 214.202 66.0053 214.05 65.9173 213.93C65.8333 213.81 65.6793 213.704 65.4553 213.612C65.2313 213.52 64.9133 213.428 64.5013 213.336C64.0093 213.228 63.6213 213.102 63.3373 212.958C63.0533 212.81 62.8493 212.628 62.7253 212.412C62.6053 212.196 62.5453 211.932 62.5453 211.62V211.566C62.5453 211.054 62.7233 210.666 63.0793 210.402C63.4353 210.138 63.9713 210.006 64.6873 210.006C65.1473 210.006 65.5453 210.058 65.8813 210.162C66.2213 210.266 66.4993 210.382 66.7153 210.51L66.8053 211.332C66.5453 211.18 66.2473 211.054 65.9113 210.954C65.5753 210.854 65.1973 210.804 64.7773 210.804C64.4733 210.804 64.2273 210.836 64.0393 210.9C63.8513 210.96 63.7153 211.048 63.6313 211.164C63.5473 211.276 63.5053 211.412 63.5053 211.572V211.62C63.5053 211.796 63.5473 211.946 63.6313 212.07C63.7153 212.19 63.8653 212.296 64.0813 212.388C64.3013 212.476 64.6053 212.562 64.9933 212.646C65.4933 212.746 65.8893 212.866 66.1813 213.006C66.4773 213.146 66.6893 213.324 66.8173 213.54C66.9453 213.752 67.0093 214.026 67.0093 214.362V214.464C67.0093 215.016 66.8173 215.432 66.4333 215.712C66.0493 215.992 65.4833 216.132 64.7353 216.132ZM70.6504 216.132C69.7584 216.132 69.0864 215.914 68.6344 215.478C68.1824 215.042 67.9564 214.418 67.9564 213.606V212.562C67.9564 211.738 68.1664 211.104 68.5864 210.66C69.0064 210.212 69.6204 209.988 70.4284 209.988C70.9724 209.988 71.4264 210.09 71.7904 210.294C72.1544 210.494 72.4284 210.78 72.6124 211.152C72.7964 211.524 72.8884 211.968 72.8884 212.484V212.7C72.8884 212.828 72.8824 212.956 72.8704 213.084C72.8624 213.212 72.8504 213.338 72.8344 213.462H71.9404C71.9484 213.27 71.9524 213.088 71.9524 212.916C71.9564 212.744 71.9584 212.586 71.9584 212.442C71.9584 212.086 71.9004 211.786 71.7844 211.542C71.6724 211.294 71.5024 211.106 71.2744 210.978C71.0504 210.846 70.7684 210.78 70.4284 210.78C69.9244 210.78 69.5464 210.926 69.2944 211.218C69.0424 211.51 68.9164 211.928 68.9164 212.472V213.03L68.9224 213.15V213.708C68.9224 213.952 68.9584 214.172 69.0304 214.368C69.1024 214.564 69.2144 214.734 69.3664 214.878C69.5224 215.018 69.7184 215.126 69.9544 215.202C70.1944 215.274 70.4784 215.31 70.8064 215.31C71.1864 215.31 71.5404 215.26 71.8684 215.16C72.1964 215.06 72.5044 214.924 72.7924 214.752L72.7024 215.592C72.4424 215.756 72.1404 215.888 71.7964 215.988C71.4524 216.084 71.0704 216.132 70.6504 216.132ZM68.4664 213.462V212.73H72.6304V213.462H68.4664ZM74.2087 216V208.05H75.1747V216H74.2087ZM55.4296 234V233.16H57.2896C57.9696 233.16 58.4796 232.976 58.8196 232.608C59.1636 232.236 59.3356 231.706 59.3356 231.018V229.308C59.3356 228.616 59.1636 228.086 58.8196 227.718C58.4796 227.35 57.9696 227.166 57.2896 227.166H55.4236V226.332H57.3256C58.3176 226.332 59.0676 226.588 59.5756 227.1C60.0836 227.608 60.3376 228.342 60.3376 229.302V231.024C60.3376 231.98 60.0836 232.716 59.5756 233.232C59.0676 233.744 58.3176 234 57.3256 234H55.4296ZM54.7576 234V226.332H55.7416V234H54.7576ZM64.0731 234.15C63.2331 234.15 62.5951 233.924 62.1591 233.472C61.7271 233.016 61.5111 232.362 61.5111 231.51V230.616C61.5111 229.768 61.7291 229.118 62.1651 228.666C62.6011 228.214 63.2371 227.988 64.0731 227.988C64.9131 227.988 65.5491 228.214 65.9811 228.666C66.4171 229.118 66.6351 229.768 66.6351 230.616V231.51C66.6351 232.362 66.4171 233.016 65.9811 233.472C65.5491 233.924 64.9131 234.15 64.0731 234.15ZM64.0731 233.358C64.5931 233.358 64.9871 233.204 65.2551 232.896C65.5271 232.588 65.6631 232.144 65.6631 231.564V230.562C65.6631 229.986 65.5271 229.546 65.2551 229.242C64.9871 228.934 64.5931 228.78 64.0731 228.78C63.5571 228.78 63.1631 228.934 62.8911 229.242C62.6191 229.546 62.4831 229.986 62.4831 230.562V231.564C62.4831 232.144 62.6191 232.588 62.8911 232.896C63.1631 233.204 63.5571 233.358 64.0731 233.358ZM68.7994 234L67.3594 228.144H68.3614L69.5134 233.292H69.6274L70.8274 228.3H72.2014L73.4014 233.292H73.5094L74.6734 228.144H75.6694L74.2294 234H72.7414L71.7514 229.836L71.5594 229.002H71.4694L71.2834 229.836L70.2934 234H68.7994Z" fill="#4F4F4F"/>
<path d="M31.9697 165.096C31.7097 165.096 31.4557 165.074 31.2077 165.03C30.9597 164.986 30.7357 164.924 30.5357 164.844L30.4637 163.95C30.6717 164.046 30.8837 164.118 31.0997 164.166C31.3197 164.21 31.5437 164.232 31.7717 164.232C32.3077 164.232 32.6777 164.108 32.8817 163.86C33.0857 163.612 33.1877 163.234 33.1877 162.726V157.332H34.1837V162.786C34.1837 163.542 34.0157 164.116 33.6797 164.508C33.3437 164.9 32.7737 165.096 31.9697 165.096ZM38.2364 165.132C37.3444 165.132 36.6724 164.914 36.2204 164.478C35.7684 164.042 35.5424 163.418 35.5424 162.606V161.562C35.5424 160.738 35.7524 160.104 36.1724 159.66C36.5924 159.212 37.2064 158.988 38.0144 158.988C38.5584 158.988 39.0124 159.09 39.3764 159.294C39.7404 159.494 40.0144 159.78 40.1984 160.152C40.3824 160.524 40.4744 160.968 40.4744 161.484V161.7C40.4744 161.828 40.4684 161.956 40.4564 162.084C40.4484 162.212 40.4364 162.338 40.4204 162.462H39.5264C39.5344 162.27 39.5384 162.088 39.5384 161.916C39.5424 161.744 39.5444 161.586 39.5444 161.442C39.5444 161.086 39.4864 160.786 39.3704 160.542C39.2584 160.294 39.0884 160.106 38.8604 159.978C38.6364 159.846 38.3544 159.78 38.0144 159.78C37.5104 159.78 37.1324 159.926 36.8804 160.218C36.6284 160.51 36.5024 160.928 36.5024 161.472V162.03L36.5084 162.15V162.708C36.5084 162.952 36.5444 163.172 36.6164 163.368C36.6884 163.564 36.8004 163.734 36.9524 163.878C37.1084 164.018 37.3044 164.126 37.5404 164.202C37.7804 164.274 38.0644 164.31 38.3924 164.31C38.7724 164.31 39.1264 164.26 39.4544 164.16C39.7824 164.06 40.0904 163.924 40.3784 163.752L40.2884 164.592C40.0284 164.756 39.7264 164.888 39.3824 164.988C39.0384 165.084 38.6564 165.132 38.2364 165.132ZM36.0524 162.462V161.73H40.2164V162.462H36.0524ZM42.6887 161.418L42.4667 160.668L42.7067 160.656C42.8347 160.16 43.0547 159.77 43.3667 159.486C43.6787 159.198 44.0927 159.054 44.6087 159.054C44.7367 159.054 44.8507 159.064 44.9507 159.084C45.0547 159.104 45.1467 159.128 45.2267 159.156L45.2867 160.098C45.1867 160.066 45.0747 160.04 44.9507 160.02C44.8307 160 44.6967 159.99 44.5487 159.99C44.1087 159.99 43.7247 160.112 43.3967 160.356C43.0727 160.6 42.8367 160.954 42.6887 161.418ZM41.7647 165V159.144H42.7127L42.6647 160.872L42.7367 160.944V165H41.7647ZM48.5372 165.132C47.6452 165.132 46.9732 164.914 46.5212 164.478C46.0692 164.042 45.8432 163.418 45.8432 162.606V161.562C45.8432 160.738 46.0532 160.104 46.4732 159.66C46.8932 159.212 47.5072 158.988 48.3152 158.988C48.8592 158.988 49.3132 159.09 49.6772 159.294C50.0412 159.494 50.3152 159.78 50.4992 160.152C50.6832 160.524 50.7752 160.968 50.7752 161.484V161.7C50.7752 161.828 50.7692 161.956 50.7572 162.084C50.7492 162.212 50.7372 162.338 50.7212 162.462H49.8272C49.8352 162.27 49.8392 162.088 49.8392 161.916C49.8432 161.744 49.8452 161.586 49.8452 161.442C49.8452 161.086 49.7872 160.786 49.6712 160.542C49.5592 160.294 49.3892 160.106 49.1612 159.978C48.9372 159.846 48.6552 159.78 48.3152 159.78C47.8112 159.78 47.4332 159.926 47.1812 160.218C46.9292 160.51 46.8032 160.928 46.8032 161.472V162.03L46.8092 162.15V162.708C46.8092 162.952 46.8452 163.172 46.9172 163.368C46.9892 163.564 47.1012 163.734 47.2532 163.878C47.4092 164.018 47.6052 164.126 47.8412 164.202C48.0812 164.274 48.3652 164.31 48.6932 164.31C49.0732 164.31 49.4272 164.26 49.7552 164.16C50.0832 164.06 50.3912 163.924 50.6792 163.752L50.5892 164.592C50.3292 164.756 50.0272 164.888 49.6832 164.988C49.3392 165.084 48.9572 165.132 48.5372 165.132ZM46.3532 162.462V161.73H50.5172V162.462H46.3532ZM59.3794 165V161.334C59.3794 161.026 59.3394 160.76 59.2594 160.536C59.1834 160.308 59.0554 160.132 58.8754 160.008C58.6994 159.884 58.4614 159.822 58.1614 159.822C57.8774 159.822 57.6314 159.88 57.4234 159.996C57.2154 160.112 57.0474 160.268 56.9194 160.464C56.7914 160.656 56.7014 160.876 56.6494 161.124L56.4994 160.434H56.6194C56.6834 160.182 56.7914 159.948 56.9434 159.732C57.0954 159.516 57.3014 159.342 57.5614 159.21C57.8214 159.078 58.1434 159.012 58.5274 159.012C58.9634 159.012 59.3134 159.098 59.5774 159.27C59.8454 159.442 60.0414 159.694 60.1654 160.026C60.2894 160.354 60.3514 160.754 60.3514 161.226V165H59.3794ZM52.0654 165V159.144H53.0374L52.9954 160.548L53.0374 160.608V165H52.0654ZM55.7254 165V161.334C55.7254 161.026 55.6854 160.76 55.6054 160.536C55.5294 160.308 55.4034 160.132 55.2274 160.008C55.0514 159.884 54.8134 159.822 54.5134 159.822C54.2254 159.822 53.9774 159.88 53.7694 159.996C53.5614 160.112 53.3934 160.27 53.2654 160.47C53.1374 160.666 53.0474 160.89 52.9954 161.142L52.8154 160.452H53.0314C53.0914 160.188 53.1954 159.948 53.3434 159.732C53.4914 159.512 53.6914 159.338 53.9434 159.21C54.1994 159.078 54.5094 159.012 54.8734 159.012C55.4134 159.012 55.8234 159.152 56.1034 159.432C56.3874 159.712 56.5654 160.12 56.6374 160.656C56.6574 160.736 56.6714 160.824 56.6794 160.92C56.6874 161.012 56.6914 161.104 56.6914 161.196V165H55.7254ZM61.8803 165V159.144H62.8523V165H61.8803ZM62.3663 158.184C62.1663 158.184 62.0163 158.132 61.9163 158.028C61.8203 157.92 61.7723 157.774 61.7723 157.59V157.56C61.7723 157.372 61.8203 157.226 61.9163 157.122C62.0163 157.018 62.1663 156.966 62.3663 156.966C62.5663 156.966 62.7163 157.018 62.8163 157.122C62.9163 157.226 62.9663 157.372 62.9663 157.56V157.59C62.9663 157.778 62.9163 157.924 62.8163 158.028C62.7163 158.132 62.5663 158.184 62.3663 158.184ZM67.9379 165L67.9799 163.578L67.9439 163.428V161.562L67.9499 161.22C67.9499 160.744 67.8279 160.392 67.5839 160.164C67.3439 159.936 66.9619 159.822 66.4379 159.822C66.0179 159.822 65.6319 159.882 65.2799 160.002C64.9319 160.122 64.6219 160.262 64.3499 160.422L64.4399 159.594C64.5919 159.502 64.7719 159.412 64.9799 159.324C65.1919 159.232 65.4319 159.156 65.6999 159.096C65.9719 159.036 66.2699 159.006 66.5939 159.006C67.0139 159.006 67.3699 159.058 67.6619 159.162C67.9579 159.262 68.1959 159.408 68.3759 159.6C68.5599 159.792 68.6939 160.024 68.7779 160.296C68.8619 160.568 68.9039 160.872 68.9039 161.208V165H67.9379ZM65.9219 165.126C65.3419 165.126 64.8959 164.986 64.5839 164.706C64.2759 164.422 64.1219 164.018 64.1219 163.494V163.32C64.1219 162.78 64.2879 162.378 64.6199 162.114C64.9559 161.846 65.4879 161.66 66.2159 161.556L68.0699 161.292L68.1239 162L66.3359 162.258C65.8879 162.322 65.5679 162.432 65.3759 162.588C65.1839 162.74 65.0879 162.966 65.0879 163.266V163.362C65.0879 163.67 65.1819 163.906 65.3699 164.07C65.5619 164.234 65.8479 164.316 66.2279 164.316C66.5639 164.316 66.8519 164.258 67.0919 164.142C67.3319 164.026 67.5259 163.87 67.6739 163.674C67.8219 163.478 67.9219 163.26 67.9739 163.02L68.1239 163.68H67.9379C67.8819 163.936 67.7759 164.174 67.6199 164.394C67.4679 164.614 67.2539 164.792 66.9779 164.928C66.7019 165.06 66.3499 165.126 65.9219 165.126ZM74.3116 165V161.358C74.3116 161.042 74.2676 160.77 74.1796 160.542C74.0956 160.314 73.9556 160.138 73.7596 160.014C73.5676 159.886 73.3036 159.822 72.9676 159.822C72.6596 159.822 72.3936 159.88 72.1696 159.996C71.9456 160.112 71.7636 160.27 71.6236 160.47C71.4876 160.666 71.3916 160.89 71.3356 161.142L71.1196 160.452H71.3716C71.4316 160.188 71.5416 159.948 71.7016 159.732C71.8616 159.512 72.0756 159.338 72.3436 159.21C72.6156 159.078 72.9456 159.012 73.3336 159.012C73.7976 159.012 74.1716 159.1 74.4556 159.276C74.7436 159.452 74.9536 159.706 75.0856 160.038C75.2176 160.366 75.2836 160.77 75.2836 161.25V165H74.3116ZM70.3936 165V157.05H71.3596V158.958L71.3296 160.638L71.3656 160.716V165H70.3936ZM33.5071 183.138C32.5591 183.138 31.8471 182.872 31.3711 182.34C30.8991 181.808 30.6631 181.052 30.6631 180.072V178.254C30.6631 177.274 30.8991 176.52 31.3711 175.992C31.8431 175.46 32.5511 175.194 33.4951 175.194C33.7991 175.194 34.0751 175.222 34.3231 175.278C34.5751 175.334 34.7991 175.406 34.9951 175.494C35.1911 175.582 35.3571 175.674 35.4931 175.77L35.5771 176.694C35.3411 176.526 35.0631 176.38 34.7431 176.256C34.4271 176.128 34.0551 176.064 33.6271 176.064C32.9831 176.064 32.4971 176.256 32.1691 176.64C31.8411 177.02 31.6771 177.562 31.6771 178.266V180.036C31.6771 180.736 31.8431 181.28 32.1751 181.668C32.5071 182.052 33.0031 182.244 33.6631 182.244C34.0871 182.244 34.4611 182.182 34.7851 182.058C35.1131 181.934 35.3971 181.782 35.6371 181.602L35.5531 182.55C35.4171 182.646 35.2491 182.74 35.0491 182.832C34.8491 182.924 34.6191 182.998 34.3591 183.054C34.1031 183.11 33.8191 183.138 33.5071 183.138ZM40.3285 183L40.3705 181.578L40.3345 181.428V179.562L40.3405 179.22C40.3405 178.744 40.2185 178.392 39.9745 178.164C39.7345 177.936 39.3525 177.822 38.8285 177.822C38.4085 177.822 38.0225 177.882 37.6705 178.002C37.3225 178.122 37.0125 178.262 36.7405 178.422L36.8305 177.594C36.9825 177.502 37.1625 177.412 37.3705 177.324C37.5825 177.232 37.8225 177.156 38.0905 177.096C38.3625 177.036 38.6605 177.006 38.9845 177.006C39.4045 177.006 39.7605 177.058 40.0525 177.162C40.3485 177.262 40.5865 177.408 40.7665 177.6C40.9505 177.792 41.0845 178.024 41.1685 178.296C41.2525 178.568 41.2945 178.872 41.2945 179.208V183H40.3285ZM38.3125 183.126C37.7325 183.126 37.2865 182.986 36.9745 182.706C36.6665 182.422 36.5125 182.018 36.5125 181.494V181.32C36.5125 180.78 36.6785 180.378 37.0105 180.114C37.3465 179.846 37.8785 179.66 38.6065 179.556L40.4605 179.292L40.5145 180L38.7265 180.258C38.2785 180.322 37.9585 180.432 37.7665 180.588C37.5745 180.74 37.4785 180.966 37.4785 181.266V181.362C37.4785 181.67 37.5725 181.906 37.7605 182.07C37.9525 182.234 38.2385 182.316 38.6185 182.316C38.9545 182.316 39.2425 182.258 39.4825 182.142C39.7225 182.026 39.9165 181.87 40.0645 181.674C40.2125 181.478 40.3125 181.26 40.3645 181.02L40.5145 181.68H40.3285C40.2725 181.936 40.1665 182.174 40.0105 182.394C39.8585 182.614 39.6445 182.792 39.3685 182.928C39.0925 183.06 38.7405 183.126 38.3125 183.126ZM50.0982 183V179.334C50.0982 179.026 50.0582 178.76 49.9782 178.536C49.9022 178.308 49.7742 178.132 49.5942 178.008C49.4182 177.884 49.1802 177.822 48.8802 177.822C48.5962 177.822 48.3502 177.88 48.1422 177.996C47.9342 178.112 47.7662 178.268 47.6382 178.464C47.5102 178.656 47.4202 178.876 47.3682 179.124L47.2182 178.434H47.3382C47.4022 178.182 47.5102 177.948 47.6622 177.732C47.8142 177.516 48.0202 177.342 48.2802 177.21C48.5402 177.078 48.8622 177.012 49.2462 177.012C49.6822 177.012 50.0322 177.098 50.2962 177.27C50.5642 177.442 50.7602 177.694 50.8842 178.026C51.0082 178.354 51.0702 178.754 51.0702 179.226V183H50.0982ZM42.7842 183V177.144H43.7562L43.7142 178.548L43.7562 178.608V183H42.7842ZM46.4442 183V179.334C46.4442 179.026 46.4042 178.76 46.3242 178.536C46.2482 178.308 46.1222 178.132 45.9462 178.008C45.7702 177.884 45.5322 177.822 45.2322 177.822C44.9442 177.822 44.6962 177.88 44.4882 177.996C44.2802 178.112 44.1122 178.27 43.9842 178.47C43.8562 178.666 43.7662 178.89 43.7142 179.142L43.5342 178.452H43.7502C43.8102 178.188 43.9142 177.948 44.0622 177.732C44.2102 177.512 44.4102 177.338 44.6622 177.21C44.9182 177.078 45.2282 177.012 45.5922 177.012C46.1322 177.012 46.5422 177.152 46.8222 177.432C47.1062 177.712 47.2842 178.12 47.3562 178.656C47.3762 178.736 47.3902 178.824 47.3982 178.92C47.4062 179.012 47.4102 179.104 47.4102 179.196V183H46.4442ZM55.4671 183.126C55.1071 183.126 54.7951 183.066 54.5311 182.946C54.2671 182.826 54.0531 182.654 53.8891 182.43C53.7251 182.206 53.6151 181.946 53.5591 181.65H53.2411L53.5231 180.738C53.5391 181.09 53.6171 181.384 53.7571 181.62C53.9011 181.852 54.0951 182.026 54.3391 182.142C54.5831 182.258 54.8591 182.316 55.1671 182.316C55.6591 182.316 56.0351 182.172 56.2951 181.884C56.5591 181.596 56.6911 181.174 56.6911 180.618V179.496C56.6911 178.944 56.5611 178.524 56.3011 178.236C56.0411 177.948 55.6631 177.804 55.1671 177.804C54.8711 177.804 54.6091 177.862 54.3811 177.978C54.1531 178.094 53.9631 178.252 53.8111 178.452C53.6631 178.652 53.5611 178.88 53.5051 179.136L53.2651 178.458H53.5471C53.6111 178.19 53.7191 177.948 53.8711 177.732C54.0271 177.512 54.2391 177.338 54.5071 177.21C54.7791 177.078 55.1131 177.012 55.5091 177.012C56.2131 177.012 56.7491 177.232 57.1171 177.672C57.4851 178.108 57.6691 178.742 57.6691 179.574V180.546C57.6691 181.386 57.4831 182.026 57.1111 182.466C56.7431 182.906 56.1951 183.126 55.4671 183.126ZM52.5811 185.064V177.144H53.5531L53.5111 178.554L53.5231 178.854V181.32L53.5171 181.518L53.5471 183.162V185.064H52.5811ZM61.9124 183.126C61.5524 183.126 61.2384 183.066 60.9704 182.946C60.7064 182.826 60.4924 182.654 60.3284 182.43C60.1644 182.206 60.0544 181.946 59.9984 181.65H59.6744L59.9684 180.738C59.9884 181.09 60.0704 181.384 60.2144 181.62C60.3624 181.852 60.5584 182.026 60.8024 182.142C61.0464 182.258 61.3224 182.316 61.6304 182.316C62.1184 182.316 62.4904 182.172 62.7464 181.884C63.0064 181.596 63.1364 181.168 63.1364 180.6V179.502C63.1364 178.946 63.0064 178.524 62.7464 178.236C62.4864 177.948 62.1084 177.804 61.6124 177.804C61.3164 177.804 61.0544 177.862 60.8264 177.978C60.5984 178.094 60.4084 178.252 60.2564 178.452C60.1084 178.652 60.0064 178.88 59.9504 179.136L59.7284 178.458H60.0044C60.0644 178.19 60.1704 177.948 60.3224 177.732C60.4784 177.512 60.6904 177.338 60.9584 177.21C61.2264 177.078 61.5584 177.012 61.9544 177.012C62.6584 177.012 63.1944 177.232 63.5624 177.672C63.9304 178.108 64.1144 178.742 64.1144 179.574V180.546C64.1144 181.386 63.9264 182.026 63.5504 182.466C63.1784 182.906 62.6324 183.126 61.9124 183.126ZM59.0264 183V175.05H59.9924V176.958L59.9624 178.638L59.9684 178.824V181.272L59.9564 181.584L59.9984 183H59.0264ZM67.9317 183.132C67.0397 183.132 66.3677 182.914 65.9157 182.478C65.4637 182.042 65.2377 181.418 65.2377 180.606V179.562C65.2377 178.738 65.4477 178.104 65.8677 177.66C66.2877 177.212 66.9017 176.988 67.7097 176.988C68.2537 176.988 68.7077 177.09 69.0717 177.294C69.4357 177.494 69.7097 177.78 69.8937 178.152C70.0777 178.524 70.1697 178.968 70.1697 179.484V179.7C70.1697 179.828 70.1637 179.956 70.1517 180.084C70.1437 180.212 70.1317 180.338 70.1157 180.462H69.2217C69.2297 180.27 69.2337 180.088 69.2337 179.916C69.2377 179.744 69.2397 179.586 69.2397 179.442C69.2397 179.086 69.1817 178.786 69.0657 178.542C68.9537 178.294 68.7837 178.106 68.5557 177.978C68.3317 177.846 68.0497 177.78 67.7097 177.78C67.2057 177.78 66.8277 177.926 66.5757 178.218C66.3237 178.51 66.1977 178.928 66.1977 179.472V180.03L66.2037 180.15V180.708C66.2037 180.952 66.2397 181.172 66.3117 181.368C66.3837 181.564 66.4957 181.734 66.6477 181.878C66.8037 182.018 66.9997 182.126 67.2357 182.202C67.4757 182.274 67.7597 182.31 68.0877 182.31C68.4677 182.31 68.8217 182.26 69.1497 182.16C69.4777 182.06 69.7857 181.924 70.0737 181.752L69.9837 182.592C69.7237 182.756 69.4217 182.888 69.0777 182.988C68.7337 183.084 68.3517 183.132 67.9317 183.132ZM65.7477 180.462V179.73H69.9117V180.462H65.7477ZM71.49 183V175.05H72.456V183H71.49ZM74.2087 183V175.05H75.1747V183H74.2087Z" fill="#4F4F4F"/>
<ellipse cx="71.5" cy="332.511" rx="4.5" ry="4.51064" fill="#1F48DA"/>
<path d="M86.418 328.332L89.532 334.932H89.604L89.562 331.584V328.332H90.534V336H89.058L85.908 329.346H85.836L85.878 332.85V336H84.906V328.332H86.418ZM92.3474 336V328.332H93.3314V336H92.3474ZM92.6414 336V335.166H97.1294V336H92.6414ZM92.9114 332.502V331.674H97.0034V332.502H92.9114ZM92.6354 329.166V328.332H97.0934V329.166H92.6354ZM99.6849 336L98.1009 328.332H99.1209L100.237 334.062L100.447 335.166H100.555L100.759 334.062L101.881 328.53H103.351L104.473 334.062L104.677 335.166H104.785L105.001 334.062L106.117 328.332H107.125L105.547 336H103.975L103.087 331.59L102.667 329.352H102.571L102.145 331.59L101.269 336H99.6849Z" fill="#171A1F"/>
<ellipse cx="126.5" cy="332.511" rx="4.5" ry="4.51064" fill="#A8C0FF"/>
<path d="M139.294 336.511L141.694 328.843H143.266L145.672 336.511H144.664L142.558 329.515H142.408L140.302 336.511H139.294ZM140.734 334.249V333.421H144.226V334.249H140.734ZM148.98 336.649C148.612 336.649 148.274 336.619 147.966 336.559C147.662 336.499 147.39 336.425 147.15 336.337C146.91 336.249 146.71 336.161 146.55 336.073L146.448 335.083C146.756 335.267 147.118 335.429 147.534 335.569C147.954 335.705 148.41 335.773 148.902 335.773C149.494 335.773 149.932 335.669 150.216 335.461C150.5 335.249 150.642 334.933 150.642 334.513V334.417C150.642 334.141 150.586 333.915 150.474 333.739C150.362 333.563 150.172 333.415 149.904 333.295C149.64 333.175 149.28 333.063 148.824 332.959C148.248 332.823 147.786 332.663 147.438 332.479C147.094 332.291 146.844 332.057 146.688 331.777C146.536 331.497 146.46 331.149 146.46 330.733V330.679C146.46 330.051 146.666 329.567 147.078 329.227C147.49 328.883 148.114 328.711 148.95 328.711C149.498 328.711 149.964 328.767 150.348 328.879C150.736 328.991 151.052 329.115 151.296 329.251L151.386 330.163C151.102 329.995 150.77 329.853 150.39 329.737C150.014 329.617 149.582 329.557 149.094 329.557C148.706 329.557 148.392 329.603 148.152 329.695C147.912 329.787 147.738 329.919 147.63 330.091C147.522 330.263 147.468 330.471 147.468 330.715V330.739C147.468 330.987 147.52 331.199 147.624 331.375C147.732 331.551 147.918 331.703 148.182 331.831C148.45 331.959 148.83 332.083 149.322 332.203C149.886 332.335 150.338 332.487 150.678 332.659C151.018 332.831 151.264 333.055 151.416 333.331C151.572 333.607 151.65 333.967 151.65 334.411V334.537C151.65 335.229 151.426 335.755 150.978 336.115C150.534 336.471 149.868 336.649 148.98 336.649ZM155.179 336.649C154.811 336.649 154.473 336.619 154.165 336.559C153.861 336.499 153.589 336.425 153.349 336.337C153.109 336.249 152.909 336.161 152.749 336.073L152.647 335.083C152.955 335.267 153.317 335.429 153.733 335.569C154.153 335.705 154.609 335.773 155.101 335.773C155.693 335.773 156.131 335.669 156.415 335.461C156.699 335.249 156.841 334.933 156.841 334.513V334.417C156.841 334.141 156.785 333.915 156.673 333.739C156.561 333.563 156.371 333.415 156.103 333.295C155.839 333.175 155.479 333.063 155.023 332.959C154.447 332.823 153.985 332.663 153.637 332.479C153.293 332.291 153.043 332.057 152.887 331.777C152.735 331.497 152.659 331.149 152.659 330.733V330.679C152.659 330.051 152.865 329.567 153.277 329.227C153.689 328.883 154.313 328.711 155.149 328.711C155.697 328.711 156.163 328.767 156.547 328.879C156.935 328.991 157.251 329.115 157.495 329.251L157.585 330.163C157.301 329.995 156.969 329.853 156.589 329.737C156.213 329.617 155.781 329.557 155.293 329.557C154.905 329.557 154.591 329.603 154.351 329.695C154.111 329.787 153.937 329.919 153.829 330.091C153.721 330.263 153.667 330.471 153.667 330.715V330.739C153.667 330.987 153.719 331.199 153.823 331.375C153.931 331.551 154.117 331.703 154.381 331.831C154.649 331.959 155.029 332.083 155.521 332.203C156.085 332.335 156.537 332.487 156.877 332.659C157.217 332.831 157.463 333.055 157.615 333.331C157.771 333.607 157.849 333.967 157.849 334.411V334.537C157.849 335.229 157.625 335.755 157.177 336.115C156.733 336.471 156.067 336.649 155.179 336.649ZM160.297 336.511H159.301V328.843H160.297V336.511ZM164.483 336.655C163.903 336.655 163.417 336.539 163.025 336.307C162.633 336.071 162.337 335.729 162.137 335.281C161.941 334.833 161.843 334.291 161.843 333.655V331.843C161.843 330.835 162.101 330.061 162.617 329.521C163.137 328.977 163.899 328.705 164.903 328.705C165.263 328.705 165.589 328.735 165.881 328.795C166.177 328.851 166.439 328.927 166.667 329.023C166.895 329.115 167.091 329.213 167.255 329.317L167.345 330.217C167.069 330.041 166.743 329.887 166.367 329.755C165.995 329.623 165.563 329.557 165.071 329.557C164.327 329.557 163.771 329.755 163.403 330.151C163.039 330.547 162.857 331.117 162.857 331.861V333.649C162.857 334.337 163.017 334.869 163.337 335.245C163.661 335.617 164.145 335.803 164.789 335.803C165.117 335.803 165.397 335.747 165.629 335.635C165.865 335.523 166.057 335.375 166.205 335.191C166.357 335.007 166.467 334.805 166.535 334.585V332.695L166.697 333.049H164.891V332.221H167.507V335.251L166.529 335.245C166.465 335.493 166.355 335.725 166.199 335.941C166.043 336.157 165.825 336.331 165.545 336.463C165.265 336.591 164.911 336.655 164.483 336.655ZM166.577 334.927H167.507V336.511H166.535L166.577 334.927ZM170.715 328.843L173.829 335.443H173.901L173.859 332.095V328.843H174.831V336.511H173.355L170.205 329.857H170.133L170.175 333.361V336.511H169.203V328.843H170.715ZM176.644 336.511V328.843H177.628V336.511H176.644ZM176.938 336.511V335.677H181.426V336.511H176.938ZM177.208 333.013V332.185H181.3V333.013H177.208ZM176.932 329.677V328.843H181.39V329.677H176.932ZM183.598 336.511V335.671H185.458C186.138 335.671 186.648 335.487 186.988 335.119C187.332 334.747 187.504 334.217 187.504 333.529V331.819C187.504 331.127 187.332 330.597 186.988 330.229C186.648 329.861 186.138 329.677 185.458 329.677H183.592V328.843H185.494C186.486 328.843 187.236 329.099 187.744 329.611C188.252 330.119 188.506 330.853 188.506 331.813V333.535C188.506 334.491 188.252 335.227 187.744 335.743C187.236 336.255 186.486 336.511 185.494 336.511H183.598ZM182.926 336.511V328.843H183.91V336.511H182.926Z" fill="#171A1F"/>
<ellipse cx="208.5" cy="332.511" rx="4.5" ry="4.51064" fill="#52EA61"/>
<path d="M222.914 336.511H221.918V328.843H222.914V336.511ZM226.254 328.843L229.368 335.443H229.44L229.398 332.095V328.843H230.37V336.511H228.894L225.744 329.857H225.672L225.714 333.361V336.511H224.742V328.843H226.254ZM234.976 333.961V333.133H237.154C237.678 333.133 238.058 333.003 238.294 332.743C238.53 332.479 238.648 332.117 238.648 331.657V331.135C238.648 330.667 238.53 330.305 238.294 330.049C238.062 329.793 237.686 329.665 237.166 329.665H234.97V328.843H237.184C238.04 328.843 238.662 329.045 239.05 329.449C239.442 329.849 239.638 330.401 239.638 331.105V331.681C239.638 332.393 239.44 332.951 239.044 333.355C238.652 333.759 238.03 333.961 237.178 333.961H234.976ZM234.328 336.511V328.843H235.306V333.379L235.312 333.823V336.511H234.328ZM245.524 336.511L245.308 334.939C245.268 334.643 245.2 334.387 245.104 334.171C245.008 333.951 244.86 333.779 244.66 333.655C244.464 333.531 244.184 333.469 243.82 333.469L241.738 333.463V332.677L243.964 332.671C244.488 332.671 244.862 332.543 245.086 332.287C245.31 332.027 245.422 331.675 245.422 331.231V331.051C245.422 330.611 245.308 330.271 245.08 330.031C244.852 329.787 244.472 329.665 243.94 329.665H241.708V328.843H244.072C244.896 328.843 245.494 329.025 245.866 329.389C246.242 329.749 246.43 330.247 246.43 330.883V331.087C246.43 331.587 246.312 331.997 246.076 332.317C245.84 332.633 245.448 332.825 244.9 332.893V333.013L244.474 332.863C244.918 332.895 245.26 332.993 245.5 333.157C245.744 333.317 245.922 333.537 246.034 333.817C246.146 334.097 246.232 334.433 246.292 334.825L246.55 336.511H245.524ZM241.054 336.511V328.843H242.032V332.941L242.038 333.319V336.511H241.054ZM250.639 336.655C249.671 336.655 248.935 336.389 248.431 335.857C247.927 335.321 247.675 334.555 247.675 333.559V331.789C247.675 330.797 247.927 330.035 248.431 329.503C248.935 328.967 249.671 328.699 250.639 328.699C251.607 328.699 252.343 328.967 252.847 329.503C253.351 330.035 253.603 330.797 253.603 331.789V333.559C253.603 334.555 253.351 335.321 252.847 335.857C252.343 336.389 251.607 336.655 250.639 336.655ZM250.639 335.821C251.287 335.821 251.775 335.629 252.103 335.245C252.431 334.857 252.595 334.309 252.595 333.601V331.747C252.595 331.039 252.431 330.493 252.103 330.109C251.775 329.725 251.287 329.533 250.639 329.533C249.995 329.533 249.509 329.725 249.181 330.109C248.853 330.493 248.689 331.039 248.689 331.747V333.601C248.689 334.309 248.853 334.857 249.181 335.245C249.509 335.629 249.995 335.821 250.639 335.821ZM257.498 336.655C256.918 336.655 256.432 336.539 256.04 336.307C255.648 336.071 255.352 335.729 255.152 335.281C254.956 334.833 254.858 334.291 254.858 333.655V331.843C254.858 330.835 255.116 330.061 255.632 329.521C256.152 328.977 256.914 328.705 257.918 328.705C258.278 328.705 258.604 328.735 258.896 328.795C259.192 328.851 259.454 328.927 259.682 329.023C259.91 329.115 260.106 329.213 260.27 329.317L260.36 330.217C260.084 330.041 259.758 329.887 259.382 329.755C259.01 329.623 258.578 329.557 258.086 329.557C257.342 329.557 256.786 329.755 256.418 330.151C256.054 330.547 255.872 331.117 255.872 331.861V333.649C255.872 334.337 256.032 334.869 256.352 335.245C256.676 335.617 257.16 335.803 257.804 335.803C258.132 335.803 258.412 335.747 258.644 335.635C258.88 335.523 259.072 335.375 259.22 335.191C259.372 335.007 259.482 334.805 259.55 334.585V332.695L259.712 333.049H257.906V332.221H260.522V335.251L259.544 335.245C259.48 335.493 259.37 335.725 259.214 335.941C259.058 336.157 258.84 336.331 258.56 336.463C258.28 336.591 257.926 336.655 257.498 336.655ZM259.592 334.927H260.522V336.511H259.55L259.592 334.927ZM266.689 336.511L266.473 334.939C266.433 334.643 266.365 334.387 266.269 334.171C266.173 333.951 266.025 333.779 265.825 333.655C265.629 333.531 265.349 333.469 264.985 333.469L262.903 333.463V332.677L265.129 332.671C265.653 332.671 266.027 332.543 266.251 332.287C266.475 332.027 266.587 331.675 266.587 331.231V331.051C266.587 330.611 266.473 330.271 266.245 330.031C266.017 329.787 265.637 329.665 265.105 329.665H262.873V328.843H265.237C266.061 328.843 266.659 329.025 267.031 329.389C267.407 329.749 267.595 330.247 267.595 330.883V331.087C267.595 331.587 267.477 331.997 267.241 332.317C267.005 332.633 266.613 332.825 266.065 332.893V333.013L265.639 332.863C266.083 332.895 266.425 332.993 266.665 333.157C266.909 333.317 267.087 333.537 267.199 333.817C267.311 334.097 267.397 334.433 267.457 334.825L267.715 336.511H266.689ZM262.219 336.511V328.843H263.197V332.941L263.203 333.319V336.511H262.219ZM269.121 336.511V328.843H270.105V336.511H269.121ZM269.415 336.511V335.677H273.903V336.511H269.415ZM269.685 333.013V332.185H273.777V333.013H269.685ZM269.409 329.677V328.843H273.867V329.677H269.409ZM277.538 336.649C277.17 336.649 276.832 336.619 276.524 336.559C276.22 336.499 275.948 336.425 275.708 336.337C275.468 336.249 275.268 336.161 275.108 336.073L275.006 335.083C275.314 335.267 275.676 335.429 276.092 335.569C276.512 335.705 276.968 335.773 277.46 335.773C278.052 335.773 278.49 335.669 278.774 335.461C279.058 335.249 279.2 334.933 279.2 334.513V334.417C279.2 334.141 279.144 333.915 279.032 333.739C278.92 333.563 278.73 333.415 278.462 333.295C278.198 333.175 277.838 333.063 277.382 332.959C276.806 332.823 276.344 332.663 275.996 332.479C275.652 332.291 275.402 332.057 275.246 331.777C275.094 331.497 275.018 331.149 275.018 330.733V330.679C275.018 330.051 275.224 329.567 275.636 329.227C276.048 328.883 276.672 328.711 277.508 328.711C278.056 328.711 278.522 328.767 278.906 328.879C279.294 328.991 279.61 329.115 279.854 329.251L279.944 330.163C279.66 329.995 279.328 329.853 278.948 329.737C278.572 329.617 278.14 329.557 277.652 329.557C277.264 329.557 276.95 329.603 276.71 329.695C276.47 329.787 276.296 329.919 276.188 330.091C276.08 330.263 276.026 330.471 276.026 330.715V330.739C276.026 330.987 276.078 331.199 276.182 331.375C276.29 331.551 276.476 331.703 276.74 331.831C277.008 331.959 277.388 332.083 277.88 332.203C278.444 332.335 278.896 332.487 279.236 332.659C279.576 332.831 279.822 333.055 279.974 333.331C280.13 333.607 280.208 333.967 280.208 334.411V334.537C280.208 335.229 279.984 335.755 279.536 336.115C279.092 336.471 278.426 336.649 277.538 336.649ZM283.737 336.649C283.369 336.649 283.031 336.619 282.723 336.559C282.419 336.499 282.147 336.425 281.907 336.337C281.667 336.249 281.467 336.161 281.307 336.073L281.205 335.083C281.513 335.267 281.875 335.429 282.291 335.569C282.711 335.705 283.167 335.773 283.659 335.773C284.251 335.773 284.689 335.669 284.973 335.461C285.257 335.249 285.399 334.933 285.399 334.513V334.417C285.399 334.141 285.343 333.915 285.231 333.739C285.119 333.563 284.929 333.415 284.661 333.295C284.397 333.175 284.037 333.063 283.581 332.959C283.005 332.823 282.543 332.663 282.195 332.479C281.851 332.291 281.601 332.057 281.445 331.777C281.293 331.497 281.217 331.149 281.217 330.733V330.679C281.217 330.051 281.423 329.567 281.835 329.227C282.247 328.883 282.871 328.711 283.707 328.711C284.255 328.711 284.721 328.767 285.105 328.879C285.493 328.991 285.809 329.115 286.053 329.251L286.143 330.163C285.859 329.995 285.527 329.853 285.147 329.737C284.771 329.617 284.339 329.557 283.851 329.557C283.463 329.557 283.149 329.603 282.909 329.695C282.669 329.787 282.495 329.919 282.387 330.091C282.279 330.263 282.225 330.471 282.225 330.715V330.739C282.225 330.987 282.277 331.199 282.381 331.375C282.489 331.551 282.675 331.703 282.939 331.831C283.207 331.959 283.587 332.083 284.079 332.203C284.643 332.335 285.095 332.487 285.435 332.659C285.775 332.831 286.021 333.055 286.173 333.331C286.329 333.607 286.407 333.967 286.407 334.411V334.537C286.407 335.229 286.183 335.755 285.735 336.115C285.291 336.471 284.625 336.649 283.737 336.649Z" fill="#171A1F"/>
<ellipse cx="305.5" cy="332.511" rx="4.5" ry="4.51064" fill="#FF5959"/>
<path d="M321.468 336.649C320.52 336.649 319.808 336.383 319.332 335.851C318.86 335.319 318.624 334.563 318.624 333.583V331.765C318.624 330.785 318.86 330.031 319.332 329.503C319.804 328.971 320.512 328.705 321.456 328.705C321.76 328.705 322.036 328.733 322.284 328.789C322.536 328.845 322.76 328.917 322.956 329.005C323.152 329.093 323.318 329.185 323.454 329.281L323.538 330.205C323.302 330.037 323.024 329.891 322.704 329.767C322.388 329.639 322.016 329.575 321.588 329.575C320.944 329.575 320.458 329.767 320.13 330.151C319.802 330.531 319.638 331.073 319.638 331.777V333.547C319.638 334.247 319.804 334.791 320.136 335.179C320.468 335.563 320.964 335.755 321.624 335.755C322.048 335.755 322.422 335.693 322.746 335.569C323.074 335.445 323.358 335.293 323.598 335.113L323.514 336.061C323.378 336.157 323.21 336.251 323.01 336.343C322.81 336.435 322.58 336.509 322.32 336.565C322.064 336.621 321.78 336.649 321.468 336.649ZM325.996 336.511H325V328.843H325.996V336.511ZM325.534 335.665H329.578V336.511H325.534V335.665ZM333.213 336.655C332.245 336.655 331.509 336.389 331.005 335.857C330.501 335.321 330.249 334.555 330.249 333.559V331.789C330.249 330.797 330.501 330.035 331.005 329.503C331.509 328.967 332.245 328.699 333.213 328.699C334.181 328.699 334.917 328.967 335.421 329.503C335.925 330.035 336.177 330.797 336.177 331.789V333.559C336.177 334.555 335.925 335.321 335.421 335.857C334.917 336.389 334.181 336.655 333.213 336.655ZM333.213 335.821C333.861 335.821 334.349 335.629 334.677 335.245C335.005 334.857 335.169 334.309 335.169 333.601V331.747C335.169 331.039 335.005 330.493 334.677 330.109C334.349 329.725 333.861 329.533 333.213 329.533C332.569 329.533 332.083 329.725 331.755 330.109C331.427 330.493 331.263 331.039 331.263 331.747V333.601C331.263 334.309 331.427 334.857 331.755 335.245C332.083 335.629 332.569 335.821 333.213 335.821ZM339.827 336.649C339.459 336.649 339.121 336.619 338.813 336.559C338.509 336.499 338.237 336.425 337.997 336.337C337.757 336.249 337.557 336.161 337.397 336.073L337.295 335.083C337.603 335.267 337.965 335.429 338.381 335.569C338.801 335.705 339.257 335.773 339.749 335.773C340.341 335.773 340.779 335.669 341.063 335.461C341.347 335.249 341.489 334.933 341.489 334.513V334.417C341.489 334.141 341.433 333.915 341.321 333.739C341.209 333.563 341.019 333.415 340.751 333.295C340.487 333.175 340.127 333.063 339.671 332.959C339.095 332.823 338.633 332.663 338.285 332.479C337.941 332.291 337.691 332.057 337.535 331.777C337.383 331.497 337.307 331.149 337.307 330.733V330.679C337.307 330.051 337.513 329.567 337.925 329.227C338.337 328.883 338.961 328.711 339.797 328.711C340.345 328.711 340.811 328.767 341.195 328.879C341.583 328.991 341.899 329.115 342.143 329.251L342.233 330.163C341.949 329.995 341.617 329.853 341.237 329.737C340.861 329.617 340.429 329.557 339.941 329.557C339.553 329.557 339.239 329.603 338.999 329.695C338.759 329.787 338.585 329.919 338.477 330.091C338.369 330.263 338.315 330.471 338.315 330.715V330.739C338.315 330.987 338.367 331.199 338.471 331.375C338.579 331.551 338.765 331.703 339.029 331.831C339.297 331.959 339.677 332.083 340.169 332.203C340.733 332.335 341.185 332.487 341.525 332.659C341.865 332.831 342.111 333.055 342.263 333.331C342.419 333.607 342.497 333.967 342.497 334.411V334.537C342.497 335.229 342.273 335.755 341.825 336.115C341.381 336.471 340.715 336.649 339.827 336.649ZM343.937 336.511V328.843H344.921V336.511H343.937ZM344.231 336.511V335.677H348.719V336.511H344.231ZM344.501 333.013V332.185H348.593V333.013H344.501ZM344.225 329.677V328.843H348.683V329.677H344.225ZM350.891 336.511V335.671H352.751C353.431 335.671 353.941 335.487 354.281 335.119C354.625 334.747 354.797 334.217 354.797 333.529V331.819C354.797 331.127 354.625 330.597 354.281 330.229C353.941 329.861 353.431 329.677 352.751 329.677H350.885V328.843H352.787C353.779 328.843 354.529 329.099 355.037 329.611C355.545 330.119 355.799 330.853 355.799 331.813V333.535C355.799 334.491 355.545 335.227 355.037 335.743C354.529 336.255 353.779 336.511 352.787 336.511H350.891ZM350.219 336.511V328.843H351.203V336.511H350.219Z" fill="#171A1F"/>
<path d="M48.3474 265V257.332H49.3434V265H48.3474ZM48.9114 261.79V260.956H52.8654V261.79H48.9114ZM48.6354 258.166V257.332H52.9554V258.166H48.6354ZM55.1223 261.418L54.9003 260.668L55.1403 260.656C55.2683 260.16 55.4883 259.77 55.8003 259.486C56.1123 259.198 56.5263 259.054 57.0423 259.054C57.1703 259.054 57.2843 259.064 57.3843 259.084C57.4883 259.104 57.5803 259.128 57.6603 259.156L57.7203 260.098C57.6203 260.066 57.5083 260.04 57.3843 260.02C57.2643 260 57.1303 259.99 56.9823 259.99C56.5423 259.99 56.1583 260.112 55.8303 260.356C55.5063 260.6 55.2703 260.954 55.1223 261.418ZM54.1982 265V259.144H55.1463L55.0983 260.872L55.1702 260.944V265H54.1982ZM62.0082 265L62.0502 263.578L62.0142 263.428V261.562L62.0202 261.22C62.0202 260.744 61.8982 260.392 61.6542 260.164C61.4142 259.936 61.0322 259.822 60.5082 259.822C60.0882 259.822 59.7022 259.882 59.3502 260.002C59.0022 260.122 58.6922 260.262 58.4202 260.422L58.5102 259.594C58.6622 259.502 58.8422 259.412 59.0502 259.324C59.2622 259.232 59.5022 259.156 59.7702 259.096C60.0422 259.036 60.3402 259.006 60.6642 259.006C61.0842 259.006 61.4402 259.058 61.7322 259.162C62.0282 259.262 62.2662 259.408 62.4462 259.6C62.6302 259.792 62.7642 260.024 62.8482 260.296C62.9322 260.568 62.9742 260.872 62.9742 261.208V265H62.0082ZM59.9922 265.126C59.4122 265.126 58.9662 264.986 58.6542 264.706C58.3462 264.422 58.1922 264.018 58.1922 263.494V263.32C58.1922 262.78 58.3582 262.378 58.6902 262.114C59.0262 261.846 59.5582 261.66 60.2862 261.556L62.1402 261.292L62.1942 262L60.4062 262.258C59.9582 262.322 59.6382 262.432 59.4462 262.588C59.2542 262.74 59.1582 262.966 59.1582 263.266V263.362C59.1582 263.67 59.2522 263.906 59.4402 264.07C59.6322 264.234 59.9182 264.316 60.2982 264.316C60.6342 264.316 60.9222 264.258 61.1622 264.142C61.4022 264.026 61.5962 263.87 61.7442 263.674C61.8922 263.478 61.9922 263.26 62.0442 263.02L62.1942 263.68H62.0082C61.9522 263.936 61.8462 264.174 61.6902 264.394C61.5382 264.614 61.3242 264.792 61.0482 264.928C60.7722 265.06 60.4202 265.126 59.9922 265.126ZM68.3819 265V261.358C68.3819 261.042 68.3379 260.77 68.2499 260.542C68.1659 260.314 68.0259 260.138 67.8299 260.014C67.6379 259.886 67.3739 259.822 67.0379 259.822C66.7299 259.822 66.4619 259.88 66.2339 259.996C66.0099 260.112 65.8279 260.27 65.6879 260.47C65.5479 260.666 65.4499 260.89 65.3939 261.142L65.2199 260.452H65.4299C65.4939 260.188 65.6059 259.948 65.7659 259.732C65.9259 259.512 66.1399 259.338 66.4079 259.21C66.6799 259.078 67.0119 259.012 67.4039 259.012C67.8679 259.012 68.2419 259.1 68.5259 259.276C68.8139 259.452 69.0239 259.706 69.1559 260.038C69.2879 260.366 69.3539 260.77 69.3539 261.25V265H68.3819ZM64.4639 265V259.144H65.4359L65.3939 260.548L65.4359 260.602V265H64.4639ZM74.6663 265L72.3503 262.27H71.7323V261.514H72.3503L74.5703 259.144H75.7223L73.0643 261.97V261.736L75.8303 265H74.6663ZM70.8623 265V257.05H71.8283V265H70.8623ZM39.863 283V275.332H40.847V283H39.863ZM40.157 283V282.166H44.645V283H40.157ZM40.427 279.502V278.674H44.519V279.502H40.427ZM40.151 276.166V275.332H44.609V276.166H40.151ZM48.1337 282.334L49.7537 277.144H50.7617L48.8597 283H47.2637L45.3617 277.144H46.3697L47.9897 282.334H48.1337ZM54.0918 283.132C53.1998 283.132 52.5278 282.914 52.0758 282.478C51.6238 282.042 51.3978 281.418 51.3978 280.606V279.562C51.3978 278.738 51.6078 278.104 52.0278 277.66C52.4478 277.212 53.0618 276.988 53.8698 276.988C54.4138 276.988 54.8678 277.09 55.2318 277.294C55.5958 277.494 55.8698 277.78 56.0538 278.152C56.2378 278.524 56.3298 278.968 56.3298 279.484V279.7C56.3298 279.828 56.3238 279.956 56.3118 280.084C56.3038 280.212 56.2918 280.338 56.2758 280.462H55.3818C55.3898 280.27 55.3938 280.088 55.3938 279.916C55.3978 279.744 55.3998 279.586 55.3998 279.442C55.3998 279.086 55.3418 278.786 55.2258 278.542C55.1138 278.294 54.9438 278.106 54.7158 277.978C54.4918 277.846 54.2098 277.78 53.8698 277.78C53.3658 277.78 52.9878 277.926 52.7358 278.218C52.4838 278.51 52.3578 278.928 52.3578 279.472V280.03L52.3638 280.15V280.708C52.3638 280.952 52.3998 281.172 52.4718 281.368C52.5438 281.564 52.6558 281.734 52.8078 281.878C52.9638 282.018 53.1598 282.126 53.3958 282.202C53.6358 282.274 53.9198 282.31 54.2478 282.31C54.6278 282.31 54.9818 282.26 55.3098 282.16C55.6378 282.06 55.9458 281.924 56.2338 281.752L56.1438 282.592C55.8838 282.756 55.5818 282.888 55.2378 282.988C54.8938 283.084 54.5118 283.132 54.0918 283.132ZM51.9078 280.462V279.73H56.0718V280.462H51.9078ZM58.5441 279.418L58.3221 278.668L58.5621 278.656C58.6901 278.16 58.9101 277.77 59.2221 277.486C59.5341 277.198 59.9481 277.054 60.4641 277.054C60.5921 277.054 60.7061 277.064 60.8061 277.084C60.9101 277.104 61.0021 277.128 61.0821 277.156L61.1421 278.098C61.0421 278.066 60.9301 278.04 60.8061 278.02C60.6861 278 60.5521 277.99 60.4041 277.99C59.9641 277.99 59.5801 278.112 59.2521 278.356C58.9281 278.6 58.6921 278.954 58.5441 279.418ZM57.6201 283V277.144H58.5681L58.5201 278.872L58.5921 278.944V283H57.6201ZM64.3926 283.132C63.5006 283.132 62.8286 282.914 62.3766 282.478C61.9246 282.042 61.6986 281.418 61.6986 280.606V279.562C61.6986 278.738 61.9086 278.104 62.3286 277.66C62.7486 277.212 63.3626 276.988 64.1706 276.988C64.7146 276.988 65.1686 277.09 65.5326 277.294C65.8966 277.494 66.1706 277.78 66.3546 278.152C66.5386 278.524 66.6306 278.968 66.6306 279.484V279.7C66.6306 279.828 66.6246 279.956 66.6126 280.084C66.6046 280.212 66.5926 280.338 66.5766 280.462H65.6826C65.6906 280.27 65.6946 280.088 65.6946 279.916C65.6986 279.744 65.7006 279.586 65.7006 279.442C65.7006 279.086 65.6426 278.786 65.5266 278.542C65.4146 278.294 65.2446 278.106 65.0166 277.978C64.7926 277.846 64.5106 277.78 64.1706 277.78C63.6666 277.78 63.2886 277.926 63.0366 278.218C62.7846 278.51 62.6586 278.928 62.6586 279.472V280.03L62.6646 280.15V280.708C62.6646 280.952 62.7006 281.172 62.7726 281.368C62.8446 281.564 62.9566 281.734 63.1086 281.878C63.2646 282.018 63.4606 282.126 63.6966 282.202C63.9366 282.274 64.2206 282.31 64.5486 282.31C64.9286 282.31 65.2826 282.26 65.6106 282.16C65.9386 282.06 66.2466 281.924 66.5346 281.752L66.4446 282.592C66.1846 282.756 65.8826 282.888 65.5386 282.988C65.1946 283.084 64.8126 283.132 64.3926 283.132ZM62.2086 280.462V279.73H66.3726V280.462H62.2086ZM70.0743 283.12C69.6223 283.12 69.2583 283.052 68.9823 282.916C68.7063 282.78 68.5063 282.574 68.3823 282.298C68.2583 282.022 68.1963 281.678 68.1963 281.266V277.57H69.1563V281.152C69.1563 281.536 69.2443 281.82 69.4203 282.004C69.5963 282.184 69.8923 282.274 70.3083 282.274C70.5443 282.274 70.7703 282.248 70.9863 282.196C71.2063 282.144 71.4123 282.07 71.6043 281.974L71.5143 282.808C71.3263 282.904 71.1063 282.98 70.8543 283.036C70.6023 283.092 70.3423 283.12 70.0743 283.12ZM67.2363 278.008V277.228H71.5443L71.4543 278.008H67.2363ZM68.2023 277.324L68.1963 275.68L69.1743 275.554L69.1323 277.324H68.2023ZM74.1759 283.12C73.7239 283.12 73.3599 283.052 73.0839 282.916C72.8079 282.78 72.6079 282.574 72.4839 282.298C72.3599 282.022 72.2979 281.678 72.2979 281.266V277.57H73.2579V281.152C73.2579 281.536 73.3459 281.82 73.5219 282.004C73.6979 282.184 73.9939 282.274 74.4099 282.274C74.6459 282.274 74.8719 282.248 75.0879 282.196C75.3079 282.144 75.5139 282.07 75.7059 281.974L75.6159 282.808C75.4279 282.904 75.2079 282.98 74.9559 283.036C74.7039 283.092 74.4439 283.12 74.1759 283.12ZM71.3379 278.008V277.228H75.6459L75.5559 278.008H71.3379ZM72.3039 277.324L72.2979 275.68L73.2759 275.554L73.2339 277.324H72.3039Z" fill="#4F4F4F"/>
<defs>
<filter id="filter0_d_64_6872" x="0" y="0" width="388" height="389" filterUnits="userSpaceOnUse" color-interpolation-filters="sRGB">
<feFlood flood-opacity="0" result="BackgroundImageFix"/>
<feColorMatrix in="SourceAlpha" type="matrix" values="0 0 0 0 0 0 0 0 0 0 0 0 0 0 0 0 0 0 127 0" result="hardAlpha"/>
<feOffset dy="2"/>
<feGaussianBlur stdDeviation="5"/>
<feComposite in2="hardAlpha" operator="out"/>
<feColorMatrix type="matrix" values="0 0 0 0 0 0 0 0 0 0 0 0 0 0 0 0 0 0 0.1 0"/>
<feBlend mode="normal" in2="BackgroundImageFix" result="effect1_dropShadow_64_6872"/>
<feBlend mode="normal" in="SourceGraphic" in2="effect1_dropShadow_64_6872" result="shape"/>
</filter>
</defs>
</svg>
