<svg width="100" height="100" viewBox="0 0 100 100" fill="none" xmlns="http://www.w3.org/2000/svg">
<path d="M70.8335 41.6666H79.1668C87.5002 41.6666 91.6668 37.5 91.6668 29.1666V20.8333C91.6668 12.5 87.5002 8.33331 79.1668 8.33331H70.8335C62.5002 8.33331 58.3335 12.5 58.3335 20.8333V29.1666C58.3335 37.5 62.5002 41.6666 70.8335 41.6666Z" stroke="white" stroke-width="2" stroke-miterlimit="10" stroke-linecap="round" stroke-linejoin="round"/>
<path d="M20.8335 91.6666H29.1668C37.5002 91.6666 41.6668 87.5 41.6668 79.1666V70.8333C41.6668 62.5 37.5002 58.3333 29.1668 58.3333H20.8335C12.5002 58.3333 8.3335 62.5 8.3335 70.8333V79.1666C8.3335 87.5 12.5002 91.6666 20.8335 91.6666Z" stroke="white" stroke-width="2" stroke-miterlimit="10" stroke-linecap="round" stroke-linejoin="round"/>
<path d="M25.0002 41.6666C34.2049 41.6666 41.6668 34.2047 41.6668 25C41.6668 15.7952 34.2049 8.33331 25.0002 8.33331C15.7954 8.33331 8.3335 15.7952 8.3335 25C8.3335 34.2047 15.7954 41.6666 25.0002 41.6666Z" stroke="#A8C0FF" stroke-width="2" stroke-miterlimit="10" stroke-linecap="round" stroke-linejoin="round"/>
<path d="M75.0002 91.6666C84.2049 91.6666 91.6668 84.2047 91.6668 75C91.6668 65.7952 84.2049 58.3333 75.0002 58.3333C65.7954 58.3333 58.3335 65.7952 58.3335 75C58.3335 84.2047 65.7954 91.6666 75.0002 91.6666Z" stroke="#A8C0FF" stroke-width="2" stroke-miterlimit="10" stroke-linecap="round" stroke-linejoin="round"/>
</svg>
