<svg width="369" height="358" viewBox="0 0 369 358" fill="none" xmlns="http://www.w3.org/2000/svg">
<path d="M40.1498 69.5995C-3.00271 133.669 9.05454 220.781 52.6715 270.234C128.111 355.767 296.646 327.157 336.861 239.553C376.273 153.7 292.1 11.9445 184.15 0.729239C131.844 -4.70581 73.2628 20.4356 40.1498 69.5995Z" fill="#CEE1F2" fill-opacity="0.2"/>
<g style="mix-blend-mode:multiply" opacity="0.2">
<path d="M276.863 325.575L241.416 294.208C240.675 293.551 239.676 293.269 238.702 293.444L221.303 296.503L218.169 297.054L217.292 297.208C216.262 297.389 215.423 298.047 214.97 298.932C214.576 298.782 214.171 298.643 213.756 298.516C207.014 296.467 200.594 298.606 199.141 303.387C197.688 308.168 201.831 313.519 208.573 315.569C210.359 316.113 212.12 316.354 213.775 316.337L213.485 321.958C213.43 322.947 213.831 323.903 214.572 324.56L250.019 355.927C251.364 357.116 253.417 356.994 254.606 355.65L277.147 330.162C278.336 328.817 278.207 326.764 276.863 325.573V325.575ZM220.001 306.572C219.951 306.528 219.905 306.479 219.859 306.432C219.462 306.034 219.202 305.552 219.059 305.042C219.507 305.571 219.87 306.12 220.135 306.677C220.09 306.642 220.044 306.61 220.001 306.572ZM209.392 312.877C204.333 311.339 200.872 307.368 201.833 304.206C202.794 301.043 207.879 299.671 212.938 301.209C213.489 301.377 214.017 301.579 214.527 301.799L214.227 307.605L214.078 310.486L213.923 313.501C212.489 313.543 210.94 313.348 209.393 312.877H209.392ZM224.504 306.296C224.16 306.684 223.741 306.96 223.29 307.139C222.855 305.25 221.676 303.42 219.932 301.878C220.124 301.697 220.328 301.536 220.549 301.409C221.437 300.906 222.522 300.856 223.452 301.287C223.727 301.414 223.989 301.581 224.227 301.792C225.547 302.959 225.67 304.977 224.503 306.297L224.504 306.296Z" fill="#3A7EC1"/>
</g>
<path d="M286.056 202.221L174.012 40.1098C170.82 35.4928 164.493 34.338 159.877 37.5302L4.38291 145.063C-0.232724 148.255 -1.38723 154.585 1.80408 159.202L113.848 321.314C117.04 325.931 123.367 327.085 127.983 323.893L283.476 216.36C288.092 213.168 289.246 206.838 286.055 202.221H286.056Z" fill="#7696EA"/>
<path d="M101.708 289.963C99.4618 289.963 97.2734 289.277 95.3966 287.959C92.9861 286.267 91.3791 283.738 90.8717 280.836L56.8836 86.7073C55.8353 80.7181 59.8528 74.9917 65.8414 73.9419L252.044 41.3209C258.031 40.2723 263.756 44.291 264.806 50.2814L298.795 244.41C299.843 250.399 295.826 256.125 289.837 257.174L103.635 289.794C102.992 289.906 102.349 289.962 101.71 289.962L101.708 289.963ZM253.95 42.8865C253.419 42.8865 252.882 42.9319 252.341 43.0263L66.1387 75.6461C61.0909 76.5299 57.7026 81.3582 58.5861 86.4087L92.5754 280.536C93.004 282.982 94.3591 285.115 96.3911 286.542C98.4231 287.969 100.89 288.518 103.335 288.09L289.537 255.47C294.585 254.585 297.974 249.758 297.09 244.707L263.101 50.5787C262.312 46.0692 258.378 42.8842 253.95 42.8842V42.8865Z" fill="#444444"/>
<g style="mix-blend-mode:multiply" opacity="0.2">
<path d="M314.811 232.976L254.504 45.3525C252.787 40.0094 247.063 37.0703 241.722 38.7889L61.7584 96.6684C56.4168 98.3869 53.4786 104.111 55.1967 109.454L115.504 297.077C117.222 302.42 122.945 305.359 128.286 303.641L308.25 245.761C313.591 244.043 316.529 238.319 314.811 232.976Z" fill="#3A7EC1"/>
</g>
<path d="M301.62 241.774L121.657 299.653C116.315 301.372 110.593 298.433 108.875 293.09L48.5673 105.465C46.8493 100.122 49.7874 94.3981 55.129 92.6796L235.092 34.8001C240.434 33.0816 246.156 36.0206 247.874 41.3637L308.182 228.987C309.9 234.33 306.962 240.054 301.62 241.773V241.774Z" fill="white"/>
<path d="M97.998 119.372L74.7861 126.838C72.0246 127.726 69.0673 126.207 68.179 123.445C67.2907 120.682 68.8094 117.724 71.5709 116.836L94.7828 109.37C97.5443 108.482 100.502 110.001 101.39 112.763C102.278 115.526 100.759 118.484 97.998 119.372Z" fill="#E4ECF9"/>
<path d="M105.692 143.305L82.4799 150.771C79.7184 151.659 76.7611 150.14 75.8729 147.378C74.9846 144.615 76.5032 141.657 79.2647 140.769L102.477 133.303C105.238 132.415 108.195 133.934 109.084 136.696C109.972 139.459 108.453 142.417 105.692 143.305Z" fill="#E4ECF9"/>
<path d="M113.384 167.239L90.1723 174.705C87.4108 175.593 84.4535 174.074 83.5652 171.312C82.677 168.549 84.1956 165.591 86.9571 164.703L110.169 157.237C112.931 156.349 115.888 157.868 116.776 160.63C117.664 163.393 116.146 166.351 113.384 167.239Z" fill="#E4ECF9"/>
<path d="M121.078 191.172L97.8657 198.637C95.1042 199.526 92.1469 198.007 91.2586 195.245C90.3703 192.482 91.889 189.524 94.6505 188.636L117.862 181.17C120.624 180.282 123.581 181.801 124.469 184.563C125.358 187.325 123.839 190.284 121.078 191.172Z" fill="#E4ECF9"/>
<path d="M128.77 215.106L105.558 222.572C102.797 223.46 99.8392 221.941 98.951 219.179C98.0627 216.416 99.5814 213.458 102.343 212.57L125.555 205.104C128.316 204.216 131.274 205.735 132.162 208.497C133.05 211.26 131.531 214.218 128.77 215.106Z" fill="#E4ECF9"/>
<path d="M136.463 239.04L113.251 246.506C110.49 247.394 107.533 245.875 106.644 243.113C105.756 240.35 107.275 237.392 110.036 236.504L133.248 229.038C136.01 228.15 138.967 229.669 139.855 232.431C140.743 235.194 139.225 238.152 136.463 239.04Z" fill="#E4ECF9"/>
<path d="M144.156 262.973L120.944 270.438C118.182 271.327 115.225 269.808 114.337 267.046C113.448 264.283 114.967 261.325 117.729 260.437L140.941 252.971C143.702 252.083 146.659 253.602 147.548 256.364C148.436 259.126 146.917 262.085 144.156 262.973Z" fill="#E4ECF9"/>
<path d="M183.797 261.26C182.811 261.578 181.754 261.035 181.438 260.048L126.783 90.0128C126.465 89.0264 127.009 87.9695 127.995 87.653C128.981 87.3353 130.038 87.8787 130.354 88.8651L185.009 258.901C185.326 259.887 184.783 260.944 183.797 261.26Z" fill="#E4ECF9"/>
<path d="M226.293 247.592C225.307 247.91 224.25 247.367 223.934 246.38L169.279 76.3446C168.962 75.3582 169.505 74.3012 170.491 73.9848C171.477 73.6671 172.534 74.2105 172.85 75.1969L227.505 245.232C227.822 246.219 227.279 247.276 226.293 247.592Z" fill="#E4ECF9"/>
<path d="M268.79 233.925C267.804 234.243 266.747 233.7 266.431 232.713L211.776 62.6776C211.459 61.6912 212.002 60.6342 212.988 60.3178C213.974 60.0001 215.031 60.5435 215.347 61.5299L270.002 231.565C270.319 232.552 269.776 233.609 268.79 233.925Z" fill="#E4ECF9"/>
<path d="M149.815 106.353L121.156 115.57C118.864 116.307 116.407 115.046 115.67 112.753L113.001 104.448C112.264 102.155 113.525 99.6971 115.817 98.9603L144.476 89.743C146.768 89.0062 149.225 90.2673 149.962 92.5603L152.631 100.865C153.368 103.158 152.107 105.616 149.815 106.353Z" fill="#52D1BD"/>
<path d="M167.696 108.694L130.698 120.591C128.132 121.416 126.72 124.166 127.545 126.733L129.896 134.048C130.721 136.615 133.47 138.027 136.036 137.202L173.034 125.305C175.6 124.48 177.012 121.73 176.187 119.163L173.836 111.848C173.011 109.281 170.262 107.869 167.696 108.694Z" fill="#52D1BD"/>
<path d="M181.265 149.053L153.201 158.079C150.929 158.81 148.494 157.56 147.765 155.287L145.071 146.906C144.341 144.633 145.591 142.198 147.863 141.468L175.927 132.442C178.199 131.711 180.633 132.962 181.363 135.234L184.056 143.616C184.787 145.888 183.537 148.324 181.265 149.053Z" fill="#52D1BD"/>
<path d="M206.007 167.503L166.454 180.225C163.811 181.075 160.979 179.62 160.129 176.976L157.868 169.941C157.018 167.297 158.472 164.464 161.115 163.614L200.668 150.892C203.311 150.042 206.143 151.497 206.993 154.141L209.255 161.176C210.105 163.82 208.65 166.653 206.007 167.503Z" fill="#FFE212"/>
<path d="M231.124 185.834L181.34 201.845C178.409 202.787 175.269 201.175 174.327 198.243L172.4 192.249C171.458 189.317 173.07 186.176 176.001 185.234L225.785 169.223C228.716 168.281 231.856 169.893 232.798 172.825L234.724 178.819C235.666 181.751 234.055 184.891 231.124 185.834Z" fill="#FFE212"/>
<path d="M251.296 205.753L214.9 217.459C212.352 218.278 209.624 216.876 208.805 214.329L206.431 206.945C205.612 204.396 207.013 201.667 209.56 200.848L245.957 189.142C248.504 188.323 251.232 189.725 252.051 192.272L254.425 199.656C255.244 202.205 253.842 204.933 251.296 205.753Z" fill="#FFE212"/>
<path d="M276.969 205.596L236.146 218.722C233.464 219.584 231.99 222.457 232.852 225.139L235.069 232.038C235.93 234.72 238.802 236.195 241.484 235.333L282.307 222.207C284.988 221.344 286.462 218.472 285.601 215.79L283.384 208.891C282.522 206.209 279.65 204.734 276.969 205.596Z" fill="#1F48DA"/>
<path d="M259.406 226.104L252.832 222.728L254.455 219.566L257.867 221.318L261.647 213.953L264.809 215.577L259.406 226.104Z" fill="white"/>
<g style="mix-blend-mode:multiply" opacity="0.2">
<path d="M341.014 105.606C329.916 80.392 301.22 68.4041 275.711 77.7169C274.617 75.0406 273.079 71.0935 273.079 71.0935L280.91 67.8105L276.315 58.0547L242.93 71.0935L249.213 81.8812L259.857 76.4402L264.002 83.7467C243.839 97.606 235.71 124.262 245.93 147.48C257.489 173.744 288.146 185.663 314.403 174.099C340.659 162.535 352.573 131.87 341.014 105.605V105.606Z" fill="#3A7EC1"/>
</g>
<path d="M274.776 60.5076L273.769 66.6042L242.821 82.0125L243.079 74.5783L256.956 66.6042L274.776 60.5076Z" fill="#CEB714"/>
<path d="M253.723 69.1375V76.6421L255.739 80.0195L257.867 76.4403L253.723 69.1375Z" fill="#A8C0FF"/>
<path d="M270.604 72.7811C270.182 72.092 266.947 63.7908 266.947 63.7908L253.724 69.1374L259.633 79.5501L270.605 73.5001" fill="#1F48DA"/>
<path d="M321.927 161.496C342.213 141.204 342.213 108.305 321.927 88.0126C301.641 67.7206 268.751 67.7206 248.464 88.0126C228.178 108.305 228.178 141.204 248.464 161.496C268.751 181.788 301.641 181.788 321.927 161.496Z" fill="#1131A3"/>
<path d="M324.068 155.983C344.354 135.691 344.354 102.792 324.068 82.4996C303.782 62.2077 270.892 62.2077 250.606 82.4996C230.32 102.792 230.32 135.691 250.606 155.983C270.892 176.275 303.782 176.275 324.068 155.983Z" fill="#1F48DA"/>
<path d="M315.926 147.838C331.715 132.045 331.715 106.438 315.926 90.6445C300.137 74.8508 274.538 74.8508 258.749 90.6445C242.96 106.438 242.96 132.045 258.749 147.838C274.538 163.632 300.137 163.632 315.926 147.838Z" fill="white"/>
<path d="M276.045 93.5825C275.458 93.8416 274.765 93.5717 274.507 92.9841L271.765 86.7537C271.506 86.1661 271.776 85.4735 272.363 85.2155C272.951 84.9564 273.643 85.2263 273.901 85.8138L276.643 92.0443C276.902 92.6318 276.633 93.3245 276.045 93.5825Z" fill="#E4ECF9"/>
<path d="M313.46 129.396C313.693 128.797 314.372 128.498 314.97 128.731L321.313 131.197C321.911 131.43 322.211 132.109 321.978 132.707C321.746 133.306 321.066 133.606 320.468 133.373L314.125 130.907C313.527 130.674 313.227 129.994 313.46 129.396Z" fill="#E4ECF9"/>
<path d="M322.09 109.827L283.109 123.433C282.359 123.694 281.533 123.296 281.271 122.546C281.01 121.796 281.408 120.969 282.158 120.708L321.139 107.102C321.889 106.84 322.715 107.239 322.977 107.989C323.238 108.739 322.839 109.565 322.09 109.827Z" fill="#E4ECF9"/>
<path d="M298.63 144.898C299.218 144.639 299.91 144.909 300.168 145.497L302.91 151.727C303.169 152.315 302.9 153.007 302.312 153.265C301.725 153.524 301.032 153.255 300.775 152.667L298.032 146.437C297.773 145.849 298.043 145.156 298.63 144.898Z" fill="#E4ECF9"/>
<path d="M277.186 145.37C277.784 145.603 278.083 146.282 277.851 146.881L275.385 153.226C275.152 153.824 274.473 154.124 273.875 153.891C273.277 153.658 272.977 152.979 273.21 152.38L275.675 146.035C275.908 145.437 276.587 145.137 277.186 145.37Z" fill="#E4ECF9"/>
<path d="M261.687 130.536C261.946 131.124 261.676 131.816 261.089 132.074L254.86 134.818C254.273 135.077 253.581 134.807 253.323 134.219C253.064 133.632 253.333 132.939 253.921 132.681L260.149 129.938C260.737 129.679 261.429 129.949 261.687 130.536Z" fill="#E4ECF9"/>
<path d="M261.215 109.085C260.982 109.683 260.303 109.983 259.704 109.75L253.361 107.284C252.763 107.051 252.463 106.372 252.696 105.774C252.929 105.175 253.608 104.875 254.206 105.108L260.55 107.574C261.148 107.807 261.447 108.487 261.215 109.085Z" fill="#E4ECF9"/>
<path d="M304.424 87.2255L299.851 95.4527C292.497 91.3636 283.378 90.647 275.085 94.3003L271.294 85.6873C282.388 80.8016 294.582 81.757 304.425 87.2255H304.424Z" fill="#FFE212"/>
<path d="M320.421 104.788L311.811 108.58C309.264 102.794 304.985 98.3011 299.852 95.4516L304.424 87.2244C311.289 91.0352 317.013 97.0423 320.421 104.788Z" fill="#CEB714"/>
<path d="M290.41 122.314C292.106 120.617 292.106 117.866 290.41 116.168C288.713 114.471 285.962 114.471 284.265 116.168C282.569 117.866 282.569 120.617 284.265 122.314C285.962 124.012 288.713 124.012 290.41 122.314Z" fill="#444444"/>
<path d="M320.612 106.164L282.826 122.805C282.1 123.125 281.244 122.792 280.924 122.066C280.604 121.339 280.938 120.483 281.663 120.163L319.449 103.522C320.175 103.202 321.031 103.536 321.351 104.262C321.671 104.988 321.338 105.844 320.612 106.164Z" fill="#444444"/>
<path d="M266.945 63.7906L253.723 69.1372L243.079 74.5783L236.795 63.7906L270.181 50.7517L274.776 60.5076L266.945 63.7906Z" fill="#FFE212"/>
<path d="M236.795 63.7908L237.452 74.5785L242.821 82.0127L243.079 74.5785L236.795 63.7908Z" fill="#CEB714"/>
<path d="M232.55 296.141L215.493 300.737C216.701 302.191 217.569 303.756 218.061 305.309C218.346 305.411 218.621 305.554 218.877 305.743C220.295 306.788 220.598 308.787 219.553 310.205C219.11 310.806 218.495 311.204 217.826 311.387C217.649 311.75 217.442 312.1 217.198 312.432C215.545 314.676 212.71 315.628 209.541 315.306L209.972 326.787C210.005 327.776 210.49 328.693 211.287 329.28L249.386 357.364C250.831 358.43 252.865 358.125 253.93 356.68L274.112 329.285C275.177 327.84 274.866 325.806 273.42 324.741L235.32 296.657C234.522 296.069 233.504 295.877 232.549 296.139L232.55 296.141Z" fill="#1F48DA"/>
<path d="M214.422 306.424C214.638 306.13 214.897 305.887 215.18 305.692C214.641 304.288 213.696 302.853 212.421 301.565L211.56 301.797C210.095 302.192 209.099 303.543 209.157 305.06L209.434 312.426C211.786 312.758 213.857 312.227 214.934 310.765C214.936 310.762 214.938 310.759 214.939 310.756C213.658 309.684 213.416 307.788 214.422 306.424Z" fill="#1F48DA"/>
<path d="M203.465 309.886C199.209 306.748 197.27 301.851 199.231 299.189C201.191 296.528 206.442 296.93 210.698 300.068C211.327 300.531 211.899 301.036 212.422 301.564L215.494 300.736C214.622 299.687 213.577 298.693 212.367 297.802C206.695 293.621 199.929 293.497 196.966 297.519C194.002 301.543 196.124 307.969 201.796 312.15C204.306 314 207.028 315.053 209.541 315.308L209.433 312.423C207.502 312.151 205.383 311.298 203.464 309.883L203.465 309.886Z" fill="#A8C0FF"/>
<path d="M215.18 305.692C215.913 307.604 215.896 309.449 214.938 310.756C214.99 310.799 215.039 310.842 215.092 310.883C215.909 311.485 216.918 311.638 217.827 311.389C218.699 309.594 218.743 307.463 218.062 305.311C217.097 304.964 216.02 305.111 215.181 305.692H215.18Z" fill="#A8C0FF"/>
<path d="M217.198 312.434C217.443 312.102 217.649 311.751 217.826 311.389C216.917 311.638 215.908 311.485 215.092 310.883C215.038 310.844 214.989 310.799 214.938 310.756C214.935 310.759 214.934 310.762 214.933 310.765C213.856 312.226 211.785 312.758 209.433 312.426L209.541 315.31C212.71 315.63 215.545 314.678 217.198 312.435V312.434Z" fill="#1F48DA"/>
<path d="M215.18 305.692C216.021 305.111 217.096 304.965 218.061 305.311C217.569 303.757 216.7 302.192 215.493 300.738L212.421 301.565C213.696 302.853 214.642 304.287 215.18 305.692Z" fill="#A8C0FF"/>
<path d="M234.257 317.288L224.577 330.428C223.908 331.336 222.632 331.529 221.725 330.861C220.817 330.192 220.624 328.915 221.293 328.007L230.973 314.867C231.641 313.959 232.918 313.766 233.825 314.435C234.732 315.104 234.926 316.38 234.257 317.288Z" fill="#B3CEF6"/>
<path d="M241.392 322.546L231.712 335.687C231.044 336.594 229.767 336.788 228.86 336.119C227.953 335.45 227.759 334.173 228.428 333.266L238.108 320.125C238.777 319.218 240.053 319.024 240.96 319.693C241.868 320.362 242.061 321.639 241.392 322.546Z" fill="#B3CEF6"/>
<path d="M96.7842 33.3562C102.904 33.3562 107.865 28.3938 107.865 22.2723C107.865 16.1509 102.904 11.1885 96.7842 11.1885C90.6646 11.1885 85.7036 16.1509 85.7036 22.2723C85.7036 28.3938 90.6646 33.3562 96.7842 33.3562Z" fill="white"/>
<path d="M361.617 233.295C365.587 233.295 368.806 230.075 368.806 226.104C368.806 222.133 365.587 218.914 361.617 218.914C357.647 218.914 354.429 222.133 354.429 226.104C354.429 230.075 357.647 233.295 361.617 233.295Z" fill="white"/>
</svg>
