<svg width="200" height="200" viewBox="0 0 200 200" fill="none" xmlns="http://www.w3.org/2000/svg">
<path d="M108.333 25H68.3332C58.999 25 54.3319 25 50.7667 26.8166C47.6306 28.4144 45.081 30.9641 43.4831 34.1002C41.6665 37.6654 41.6665 42.3325 41.6665 51.6667V148.333C41.6665 157.668 41.6665 162.335 43.4831 165.9C45.081 169.036 47.6306 171.586 50.7667 173.183C54.3319 175 58.999 175 68.3332 175H99.9998M108.333 25L158.333 75M108.333 25V61.6667C108.333 66.3338 108.333 68.6673 109.241 70.4499C110.04 72.0179 111.315 73.2928 112.883 74.0917C114.666 75 116.999 75 121.667 75H158.333M158.333 75V91.6667" stroke="#1A468F" stroke-width="4" stroke-linecap="round" stroke-linejoin="round"/>
<path d="M75 141.667H91.6667M75 108.333H108.333M75 75H83.3333M160.571 160.571L175 175M166.667 145.833C166.667 157.339 157.339 166.667 145.833 166.667C134.327 166.667 125 157.339 125 145.833C125 134.327 134.327 125 145.833 125C157.339 125 166.667 134.327 166.667 145.833Z" stroke="#A8C0FF" stroke-width="4" stroke-linecap="round" stroke-linejoin="round"/>
</svg>
