<svg width="100" height="100" viewBox="0 0 100 100" fill="none" xmlns="http://www.w3.org/2000/svg">
<path d="M12.5 47.0833C12.5 26.3726 29.2893 9.58331 50 9.58331C70.7107 9.58331 87.5 26.3726 87.5 47.0833M12.5 47.0833H20.8333C25.4357 47.0833 29.1667 50.8143 29.1667 55.4166V63.75C29.1667 68.3524 25.4357 72.0833 20.8333 72.0833M12.5 47.0833V67.9166C12.5 70.2178 14.3655 72.0833 16.6667 72.0833H20.8333M87.5 47.0833H79.1667C74.5643 47.0833 70.8333 50.8143 70.8333 55.4166V63.75C70.8333 68.3524 74.5643 72.0833 79.1667 72.0833H83.3333C85.6345 72.0833 87.5 70.2178 87.5 67.9166V47.0833ZM20.8333 72.0833V76.25C20.8333 87.5 32.8976 85.4167 37.5 85.4167" stroke="white" stroke-width="2" stroke-linecap="round"/>
<path d="M37.5 84.5833C37.5 81.1315 40.2982 78.3333 43.75 78.3333H47.9167C51.3684 78.3333 54.1667 81.1315 54.1667 84.5833C54.1667 88.0351 51.3684 90.8333 47.9167 90.8333H43.75C40.2982 90.8333 37.5 88.0351 37.5 84.5833Z" stroke="#A8C0FF" stroke-width="2" stroke-linecap="round"/>
</svg>
