<svg width="375" height="389" viewBox="0 0 375 389" fill="none" xmlns="http://www.w3.org/2000/svg">
<g filter="url(#filter0_d_64_6815)">
<rect x="10" y="8" width="355" height="369" rx="14" fill="white"/>
</g>
<path d="M60.42 46.2862L65.13 56.8862H65.25L65.17 51.3662V46.2862H67.12V59.0662H64.19L59.41 48.3462H59.29L59.37 54.0962V59.0662H57.42V46.2862H60.42ZM74.3991 59.3162C72.7657 59.3162 71.5424 58.8628 70.7291 57.9562C69.9224 57.0495 69.5191 55.7595 69.5191 54.0862V51.2462C69.5191 49.5795 69.9224 48.2962 70.7291 47.3962C71.5424 46.4895 72.7657 46.0362 74.3991 46.0362C74.8991 46.0362 75.3557 46.0795 75.7691 46.1662C76.1824 46.2528 76.5524 46.3662 76.8791 46.5062C77.2057 46.6462 77.4857 46.7928 77.7191 46.9462L77.8791 48.7862C77.4857 48.5195 77.0291 48.2862 76.5091 48.0862C75.9891 47.8862 75.3757 47.7862 74.6691 47.7862C73.6424 47.7862 72.8657 48.0895 72.3391 48.6962C71.8191 49.3028 71.5591 50.1628 71.5591 51.2762V54.0162C71.5591 55.1228 71.8224 55.9828 72.3491 56.5962C72.8824 57.2095 73.6757 57.5162 74.7291 57.5162C75.4224 57.5162 76.0357 57.4195 76.5691 57.2262C77.1091 57.0262 77.5791 56.7828 77.9791 56.4962L77.8191 58.3862C77.5857 58.5395 77.2991 58.6895 76.9591 58.8362C76.6257 58.9762 76.2424 59.0895 75.8091 59.1762C75.3824 59.2695 74.9124 59.3162 74.3991 59.3162ZM87.5439 59.0662L87.2039 56.4762C87.1439 56.0028 87.0372 55.5995 86.8839 55.2662C86.7372 54.9262 86.5072 54.6628 86.1939 54.4762C85.8806 54.2895 85.4439 54.1962 84.8839 54.1962L81.5539 54.1862V52.6062L85.0939 52.5962C85.9139 52.5962 86.5006 52.3995 86.8539 52.0062C87.2072 51.6128 87.3839 51.0662 87.3839 50.3662V50.0862C87.3839 49.3995 87.2039 48.8695 86.8439 48.4962C86.4839 48.1228 85.8872 47.9362 85.0539 47.9362H81.5139V46.2862H85.3339C86.7539 46.2862 87.7872 46.5895 88.4339 47.1962C89.0872 47.8028 89.4139 48.6495 89.4139 49.7362V50.0562C89.4139 50.8628 89.2272 51.5228 88.8539 52.0362C88.4872 52.5495 87.8706 52.8728 87.0039 53.0062V53.2662L86.1639 52.9762C86.9039 53.0295 87.4739 53.1895 87.8739 53.4562C88.2806 53.7228 88.5772 54.0895 88.7639 54.5562C88.9506 55.0228 89.0939 55.5895 89.1939 56.2562L89.6239 59.0662H87.5439ZM80.1739 59.0662V46.2862H82.1439V53.1562L82.1539 53.9062V59.0662H80.1739ZM94.775 59.2962C93.9883 59.2962 93.2983 59.2162 92.705 59.0562C92.1117 58.8895 91.615 58.7095 91.215 58.5162L91.035 56.7262C91.5283 56.9728 92.0717 57.1895 92.665 57.3762C93.2583 57.5562 93.925 57.6462 94.665 57.6462C95.3783 57.6462 95.905 57.5428 96.245 57.3362C96.5917 57.1228 96.765 56.8095 96.765 56.3962V56.3162C96.765 56.0495 96.695 55.8295 96.555 55.6562C96.415 55.4762 96.165 55.3162 95.805 55.1762C95.4517 55.0362 94.9483 54.8928 94.295 54.7462C93.475 54.5595 92.8283 54.3395 92.355 54.0862C91.8817 53.8328 91.5417 53.5228 91.335 53.1562C91.135 52.7828 91.035 52.3362 91.035 51.8162V51.7262C91.035 50.8462 91.3417 50.1795 91.955 49.7262C92.5683 49.2728 93.4883 49.0462 94.715 49.0462C95.4883 49.0462 96.1617 49.1295 96.735 49.2962C97.3083 49.4628 97.7817 49.6528 98.155 49.8662L98.335 51.4962C97.8883 51.2562 97.3783 51.0562 96.805 50.8962C96.2383 50.7295 95.6083 50.6462 94.915 50.6462C94.4417 50.6462 94.0617 50.6928 93.775 50.7862C93.4883 50.8728 93.2817 50.9995 93.155 51.1662C93.0283 51.3262 92.965 51.5195 92.965 51.7462V51.8162C92.965 52.0628 93.0317 52.2795 93.165 52.4662C93.2983 52.6462 93.535 52.8095 93.875 52.9562C94.2217 53.0962 94.7017 53.2328 95.315 53.3662C96.1417 53.5395 96.8017 53.7428 97.295 53.9762C97.7883 54.2095 98.145 54.5095 98.365 54.8762C98.585 55.2362 98.695 55.7028 98.695 56.2762V56.4262C98.695 57.3795 98.3683 58.0962 97.715 58.5762C97.0617 59.0562 96.0817 59.2962 94.775 59.2962ZM109.127 59.2862C108.547 59.2862 108.047 59.1962 107.627 59.0162C107.207 58.8295 106.864 58.5695 106.597 58.2362C106.337 57.8962 106.147 57.5028 106.027 57.0562H105.377L105.947 55.2062C105.974 55.7528 106.097 56.2095 106.317 56.5762C106.537 56.9362 106.837 57.2062 107.217 57.3862C107.597 57.5662 108.03 57.6562 108.517 57.6562C109.264 57.6562 109.834 57.4395 110.227 57.0062C110.62 56.5662 110.817 55.9128 110.817 55.0462V53.2162C110.817 52.3762 110.617 51.7395 110.217 51.3062C109.824 50.8728 109.25 50.6562 108.497 50.6562C108.037 50.6562 107.63 50.7428 107.277 50.9162C106.924 51.0895 106.63 51.3262 106.397 51.6262C106.17 51.9195 106.01 52.2562 105.917 52.6362L105.487 51.2962H106.047C106.16 50.8828 106.337 50.5095 106.577 50.1762C106.824 49.8362 107.16 49.5662 107.587 49.3662C108.014 49.1662 108.554 49.0662 109.207 49.0662C110.374 49.0662 111.26 49.4328 111.867 50.1662C112.48 50.8995 112.787 51.9695 112.787 53.3762V54.9262C112.787 56.3462 112.477 57.4295 111.857 58.1762C111.237 58.9162 110.327 59.2862 109.127 59.2862ZM104.037 59.0662V45.8262H105.987V48.9462L105.937 51.7562L105.947 52.0962V56.1562L105.917 56.7762L105.997 59.0662H104.037ZM119.274 57.3362L118.234 57.7862L120.984 49.2862H122.994L118.544 62.5062H116.564L118.114 57.9162L118.994 58.6562H116.784L113.714 49.2862H115.744L118.184 57.3362H119.274ZM129.599 54.9662V53.3062H133.129C133.929 53.3062 134.509 53.1095 134.869 52.7162C135.236 52.3162 135.419 51.7628 135.419 51.0562V50.1862C135.419 49.4595 135.239 48.9028 134.879 48.5162C134.519 48.1295 133.943 47.9362 133.149 47.9362H129.589V46.2862H133.189C134.656 46.2862 135.726 46.6262 136.399 47.3062C137.079 47.9795 137.419 48.9228 137.419 50.1362V51.1062C137.419 52.3195 137.079 53.2662 136.399 53.9462C135.719 54.6262 134.646 54.9662 133.179 54.9662H129.599ZM128.279 59.0662V46.2862H130.249V53.7962L130.259 54.6962V59.0662H128.279ZM141.327 53.1562L140.907 51.6262H141.387C141.594 50.8528 141.94 50.2462 142.427 49.8062C142.914 49.3595 143.577 49.1362 144.417 49.1362C144.617 49.1362 144.794 49.1528 144.947 49.1862C145.107 49.2128 145.25 49.2462 145.377 49.2862L145.497 51.1962C145.337 51.1428 145.157 51.1028 144.957 51.0762C144.757 51.0428 144.54 51.0262 144.307 51.0262C143.594 51.0262 142.977 51.2095 142.457 51.5762C141.937 51.9428 141.56 52.4695 141.327 53.1562ZM139.447 59.0662V49.2862H141.357L141.267 52.1362L141.407 52.2762V59.0662H139.447ZM150.772 59.3162C149.332 59.3162 148.238 58.9328 147.492 58.1662C146.745 57.3995 146.372 56.2962 146.372 54.8562V53.4662C146.372 52.0328 146.745 50.9362 147.492 50.1762C148.238 49.4095 149.332 49.0262 150.772 49.0262C152.212 49.0262 153.302 49.4095 154.042 50.1762C154.788 50.9362 155.162 52.0328 155.162 53.4662V54.8562C155.162 56.2962 154.788 57.3995 154.042 58.1662C153.302 58.9328 152.212 59.3162 150.772 59.3162ZM150.772 57.7262C151.565 57.7262 152.168 57.4895 152.582 57.0162C152.995 56.5428 153.202 55.8628 153.202 54.9762V53.3462C153.202 52.4662 152.995 51.7928 152.582 51.3262C152.168 50.8528 151.565 50.6162 150.772 50.6162C149.978 50.6162 149.375 50.8528 148.962 51.3262C148.548 51.7928 148.342 52.4662 148.342 53.3462V54.9762C148.342 55.8628 148.548 56.5428 148.962 57.0162C149.375 57.4895 149.978 57.7262 150.772 57.7262ZM160.47 59.2862C159.303 59.2862 158.413 58.9195 157.8 58.1862C157.193 57.4528 156.89 56.3828 156.89 54.9762V53.4262C156.89 52.0062 157.196 50.9262 157.81 50.1862C158.43 49.4395 159.343 49.0662 160.55 49.0662C161.13 49.0662 161.626 49.1595 162.04 49.3462C162.46 49.5262 162.8 49.7828 163.06 50.1162C163.326 50.4495 163.516 50.8428 163.63 51.2962H164.28L163.73 53.1062C163.71 52.5728 163.593 52.1262 163.38 51.7662C163.166 51.3995 162.873 51.1228 162.5 50.9362C162.126 50.7495 161.69 50.6562 161.19 50.6562C160.436 50.6562 159.86 50.8728 159.46 51.3062C159.06 51.7395 158.86 52.3828 158.86 53.2362V55.1062C158.86 55.9395 159.056 56.5728 159.45 57.0062C159.85 57.4395 160.43 57.6562 161.19 57.6562C161.65 57.6562 162.053 57.5695 162.4 57.3962C162.753 57.2228 163.046 56.9862 163.28 56.6862C163.513 56.3862 163.673 56.0495 163.76 55.6762L164.22 57.0562H163.65C163.543 57.4628 163.363 57.8362 163.11 58.1762C162.863 58.5162 162.526 58.7862 162.1 58.9862C161.673 59.1862 161.13 59.2862 160.47 59.2862ZM163.68 59.0662L163.76 56.7762L163.73 56.1562V52.0962L163.74 51.7162L163.69 48.9462V45.8262H165.64V59.0662H163.68ZM169.959 49.2862V55.3262C169.959 55.7928 170.022 56.2028 170.149 56.5562C170.282 56.9028 170.499 57.1728 170.799 57.3662C171.099 57.5595 171.502 57.6562 172.009 57.6562C172.489 57.6562 172.899 57.5695 173.239 57.3962C173.586 57.2228 173.869 56.9895 174.089 56.6962C174.309 56.3962 174.462 56.0628 174.549 55.6962L174.869 57.0562H174.449C174.336 57.4628 174.149 57.8362 173.889 58.1762C173.629 58.5162 173.282 58.7862 172.849 58.9862C172.416 59.1862 171.879 59.2862 171.239 59.2862C170.479 59.2862 169.859 59.1428 169.379 58.8562C168.906 58.5628 168.556 58.1395 168.329 57.5862C168.109 57.0262 167.999 56.3462 167.999 55.5462V49.2862H169.959ZM176.439 49.2862V59.0662H174.479L174.559 56.7762L174.479 56.6562V49.2862H176.439ZM182.83 59.2962C181.376 59.2962 180.296 58.9128 179.59 58.1462C178.89 57.3728 178.54 56.2828 178.54 54.8762V53.4662C178.54 52.0528 178.893 50.9628 179.6 50.1962C180.306 49.4295 181.383 49.0462 182.83 49.0462C183.23 49.0462 183.596 49.0828 183.93 49.1562C184.27 49.2295 184.576 49.3262 184.85 49.4462C185.123 49.5595 185.356 49.6795 185.55 49.8062L185.72 51.4862C185.4 51.2595 185.03 51.0695 184.61 50.9162C184.19 50.7562 183.7 50.6762 183.14 50.6762C182.246 50.6762 181.583 50.9195 181.15 51.4062C180.723 51.8862 180.51 52.5862 180.51 53.5062V54.8262C180.51 55.7262 180.723 56.4195 181.15 56.9062C181.583 57.3928 182.246 57.6362 183.14 57.6362C183.706 57.6362 184.206 57.5595 184.64 57.4062C185.073 57.2462 185.463 57.0528 185.81 56.8262L185.64 58.5262C185.333 58.7195 184.94 58.8962 184.46 59.0562C183.986 59.2162 183.443 59.2962 182.83 59.2962ZM191.388 59.2662C190.608 59.2662 189.981 59.1495 189.508 58.9162C189.034 58.6762 188.691 58.3195 188.478 57.8462C188.264 57.3662 188.158 56.7695 188.158 56.0562V50.0762H190.098V55.8262C190.098 56.4262 190.234 56.8662 190.508 57.1462C190.781 57.4262 191.241 57.5662 191.888 57.5662C192.274 57.5662 192.644 57.5262 192.998 57.4462C193.351 57.3662 193.678 57.2528 193.978 57.1062L193.808 58.7662C193.488 58.9262 193.118 59.0495 192.698 59.1362C192.278 59.2228 191.841 59.2662 191.388 59.2662ZM186.628 50.9662V49.4062H193.888L193.718 50.9662H186.628ZM188.178 49.5762L188.168 46.8862L190.128 46.6562L190.048 49.5762H188.178ZM199.134 59.0662L199.594 46.2862H202.644L205.394 55.0462H205.524L208.274 46.2862H211.324L211.784 59.0662H209.834L209.684 53.9562L209.544 48.3962H209.384L206.464 57.5862H204.454L201.534 48.3962H201.374L201.224 53.9662L201.084 59.0662H199.134ZM218.233 59.3162C216.793 59.3162 215.699 58.9328 214.953 58.1662C214.206 57.3995 213.833 56.2962 213.833 54.8562V53.4662C213.833 52.0328 214.206 50.9362 214.953 50.1762C215.699 49.4095 216.793 49.0262 218.233 49.0262C219.673 49.0262 220.763 49.4095 221.503 50.1762C222.249 50.9362 222.623 52.0328 222.623 53.4662V54.8562C222.623 56.2962 222.249 57.3995 221.503 58.1662C220.763 58.9328 219.673 59.3162 218.233 59.3162ZM218.233 57.7262C219.026 57.7262 219.629 57.4895 220.043 57.0162C220.456 56.5428 220.663 55.8628 220.663 54.9762V53.3462C220.663 52.4662 220.456 51.7928 220.043 51.3262C219.629 50.8528 219.026 50.6162 218.233 50.6162C217.439 50.6162 216.836 50.8528 216.423 51.3262C216.009 51.7928 215.803 52.4662 215.803 53.3462V54.9762C215.803 55.8628 216.009 56.5428 216.423 57.0162C216.836 57.4895 217.439 57.7262 218.233 57.7262ZM227.93 59.2862C226.764 59.2862 225.874 58.9195 225.26 58.1862C224.654 57.4528 224.35 56.3828 224.35 54.9762V53.4262C224.35 52.0062 224.657 50.9262 225.27 50.1862C225.89 49.4395 226.804 49.0662 228.01 49.0662C228.59 49.0662 229.087 49.1595 229.5 49.3462C229.92 49.5262 230.26 49.7828 230.52 50.1162C230.787 50.4495 230.977 50.8428 231.09 51.2962H231.74L231.19 53.1062C231.17 52.5728 231.054 52.1262 230.84 51.7662C230.627 51.3995 230.334 51.1228 229.96 50.9362C229.587 50.7495 229.15 50.6562 228.65 50.6562C227.897 50.6562 227.32 50.8728 226.92 51.3062C226.52 51.7395 226.32 52.3828 226.32 53.2362V55.1062C226.32 55.9395 226.517 56.5728 226.91 57.0062C227.31 57.4395 227.89 57.6562 228.65 57.6562C229.11 57.6562 229.514 57.5695 229.86 57.3962C230.214 57.2228 230.507 56.9862 230.74 56.6862C230.974 56.3862 231.134 56.0495 231.22 55.6762L231.68 57.0562H231.11C231.004 57.4628 230.824 57.8362 230.57 58.1762C230.324 58.5162 229.987 58.7862 229.56 58.9862C229.134 59.1862 228.59 59.2862 227.93 59.2862ZM231.14 59.0662L231.22 56.7762L231.19 56.1562V52.0962L231.2 51.7162L231.15 48.9462V45.8262H233.1V59.0662H231.14ZM239.87 59.2962C238.31 59.2962 237.14 58.9262 236.36 58.1862C235.587 57.4395 235.2 56.3662 235.2 54.9662V53.3662C235.2 51.9862 235.56 50.9195 236.28 50.1662C237.007 49.4062 238.063 49.0262 239.45 49.0262C240.39 49.0262 241.173 49.1995 241.8 49.5462C242.427 49.8862 242.897 50.3695 243.21 50.9962C243.523 51.6228 243.68 52.3662 243.68 53.2262V53.5962C243.68 53.8228 243.67 54.0528 243.65 54.2862C243.63 54.5195 243.603 54.7428 243.57 54.9562H241.77C241.783 54.6095 241.79 54.2828 241.79 53.9762C241.797 53.6695 241.8 53.3895 241.8 53.1362C241.8 52.5962 241.713 52.1395 241.54 51.7662C241.367 51.3928 241.107 51.1095 240.76 50.9162C240.413 50.7162 239.977 50.6162 239.45 50.6162C238.67 50.6162 238.09 50.8395 237.71 51.2862C237.33 51.7262 237.14 52.3562 237.14 53.1762V54.0962L237.15 54.3262V55.1962C237.15 55.5628 237.203 55.8962 237.31 56.1962C237.423 56.4962 237.6 56.7562 237.84 56.9762C238.087 57.1895 238.403 57.3562 238.79 57.4762C239.177 57.5895 239.647 57.6462 240.2 57.6462C240.827 57.6462 241.413 57.5662 241.96 57.4062C242.513 57.2462 243.033 57.0328 243.52 56.7662L243.34 58.4362C242.9 58.6962 242.387 58.9062 241.8 59.0662C241.22 59.2195 240.577 59.2962 239.87 59.2962ZM236.24 54.9562V53.4862H243.17V54.9562H236.24ZM245.737 59.0662V45.8262H247.697V59.0662H245.737Z" fill="#171A1F"/>
<path d="M10 95H365" stroke="#F0F0F0" stroke-width="2"/>
<circle cx="60.5" cy="340.5" r="4.5" fill="#1F48DA"/>
<path d="M73.78 344.5L74.074 336.832H75.616L77.434 342.376H77.518L79.336 336.832H80.884L81.178 344.5H80.212L80.104 341.266L80.002 337.87H79.894L77.998 343.618H76.96L75.064 337.87H74.956L74.848 341.272L74.746 344.5H73.78ZM82.7631 344.5V338.644H83.7351V344.5H82.7631ZM83.2491 337.684C83.0491 337.684 82.8991 337.632 82.7991 337.528C82.7031 337.42 82.6551 337.274 82.6551 337.09V337.06C82.6551 336.872 82.7031 336.726 82.7991 336.622C82.8991 336.518 83.0491 336.466 83.2491 336.466C83.4491 336.466 83.5991 336.518 83.6991 336.622C83.7991 336.726 83.8491 336.872 83.8491 337.06V337.09C83.8491 337.278 83.7991 337.424 83.6991 337.528C83.5991 337.632 83.4491 337.684 83.2491 337.684ZM89.2647 344.5V340.858C89.2647 340.542 89.2207 340.27 89.1327 340.042C89.0487 339.814 88.9087 339.638 88.7127 339.514C88.5207 339.386 88.2567 339.322 87.9207 339.322C87.6127 339.322 87.3447 339.38 87.1167 339.496C86.8927 339.612 86.7107 339.77 86.5707 339.97C86.4307 340.166 86.3327 340.39 86.2767 340.642L86.1027 339.952H86.3127C86.3767 339.688 86.4887 339.448 86.6487 339.232C86.8087 339.012 87.0227 338.838 87.2907 338.71C87.5627 338.578 87.8947 338.512 88.2867 338.512C88.7507 338.512 89.1247 338.6 89.4087 338.776C89.6967 338.952 89.9067 339.206 90.0387 339.538C90.1707 339.866 90.2367 340.27 90.2367 340.75V344.5H89.2647ZM85.3467 344.5V338.644H86.3187L86.2767 340.048L86.3187 340.102V344.5H85.3467ZM94.0731 344.65C93.2331 344.65 92.5951 344.424 92.1591 343.972C91.7271 343.516 91.5111 342.862 91.5111 342.01V341.116C91.5111 340.268 91.7291 339.618 92.1651 339.166C92.6011 338.714 93.2371 338.488 94.0731 338.488C94.9131 338.488 95.5491 338.714 95.9811 339.166C96.4171 339.618 96.6351 340.268 96.6351 341.116V342.01C96.6351 342.862 96.4171 343.516 95.9811 343.972C95.5491 344.424 94.9131 344.65 94.0731 344.65ZM94.0731 343.858C94.5931 343.858 94.9871 343.704 95.2551 343.396C95.5271 343.088 95.6631 342.644 95.6631 342.064V341.062C95.6631 340.486 95.5271 340.046 95.2551 339.742C94.9871 339.434 94.5931 339.28 94.0731 339.28C93.5571 339.28 93.1631 339.434 92.8911 339.742C92.6191 340.046 92.4831 340.486 92.4831 341.062V342.064C92.4831 342.644 92.6191 343.088 92.8911 343.396C93.1631 343.704 93.5571 343.858 94.0731 343.858ZM98.9035 340.918L98.6815 340.168L98.9215 340.156C99.0495 339.66 99.2695 339.27 99.5815 338.986C99.8935 338.698 100.308 338.554 100.824 338.554C100.952 338.554 101.066 338.564 101.166 338.584C101.27 338.604 101.362 338.628 101.442 338.656L101.502 339.598C101.402 339.566 101.29 339.54 101.166 339.52C101.046 339.5 100.912 339.49 100.764 339.49C100.324 339.49 99.9395 339.612 99.6115 339.856C99.2875 340.1 99.0515 340.454 98.9035 340.918ZM97.9795 344.5V338.644H98.9275L98.8795 340.372L98.9515 340.444V344.5H97.9795Z" fill="#171A1F"/>
<circle cx="120.5" cy="340.5" r="4.5" fill="#A8C0FF"/>
<path d="M133.78 344.5L134.074 336.832H135.616L137.434 342.376H137.518L139.336 336.832H140.884L141.178 344.5H140.212L140.104 341.266L140.002 337.87H139.894L137.998 343.618H136.96L135.064 337.87H134.956L134.848 341.272L134.746 344.5H133.78ZM146.196 344.5L146.238 343.078L146.202 342.928V341.062L146.208 340.72C146.208 340.244 146.086 339.892 145.842 339.664C145.602 339.436 145.22 339.322 144.696 339.322C144.276 339.322 143.89 339.382 143.538 339.502C143.19 339.622 142.88 339.762 142.608 339.922L142.698 339.094C142.85 339.002 143.03 338.912 143.238 338.824C143.45 338.732 143.69 338.656 143.958 338.596C144.23 338.536 144.528 338.506 144.852 338.506C145.272 338.506 145.628 338.558 145.92 338.662C146.216 338.762 146.454 338.908 146.634 339.1C146.818 339.292 146.952 339.524 147.036 339.796C147.12 340.068 147.162 340.372 147.162 340.708V344.5H146.196ZM144.18 344.626C143.6 344.626 143.154 344.486 142.842 344.206C142.534 343.922 142.38 343.518 142.38 342.994V342.82C142.38 342.28 142.546 341.878 142.878 341.614C143.214 341.346 143.746 341.16 144.474 341.056L146.328 340.792L146.382 341.5L144.594 341.758C144.146 341.822 143.826 341.932 143.634 342.088C143.442 342.24 143.346 342.466 143.346 342.766V342.862C143.346 343.17 143.44 343.406 143.628 343.57C143.82 343.734 144.106 343.816 144.486 343.816C144.822 343.816 145.11 343.758 145.35 343.642C145.59 343.526 145.784 343.37 145.932 343.174C146.08 342.978 146.18 342.76 146.232 342.52L146.382 343.18H146.196C146.14 343.436 146.034 343.674 145.878 343.894C145.726 344.114 145.512 344.292 145.236 344.428C144.96 344.56 144.608 344.626 144.18 344.626ZM148.825 343.702V338.644H149.797V343.702H148.825ZM149.311 337.684C149.111 337.684 148.961 337.632 148.861 337.528C148.761 337.42 148.711 337.274 148.711 337.09V337.06C148.711 336.872 148.761 336.726 148.861 336.622C148.961 336.518 149.111 336.466 149.311 336.466C149.511 336.466 149.659 336.518 149.755 336.622C149.855 336.726 149.905 336.872 149.905 337.06V337.09C149.905 337.278 149.855 337.424 149.755 337.528C149.659 337.632 149.511 337.684 149.311 337.684ZM148.105 346.642C147.937 346.642 147.777 346.626 147.625 346.594C147.469 346.566 147.337 346.532 147.229 346.492L147.145 345.688C147.257 345.74 147.375 345.778 147.499 345.802C147.619 345.83 147.747 345.844 147.883 345.844C148.243 345.844 148.489 345.746 148.621 345.55C148.757 345.358 148.825 345.08 148.825 344.716V342.862H149.797V344.764C149.797 345.156 149.741 345.492 149.629 345.772C149.521 346.052 149.343 346.266 149.095 346.414C148.851 346.566 148.521 346.642 148.105 346.642ZM153.722 344.65C152.882 344.65 152.244 344.424 151.808 343.972C151.376 343.516 151.16 342.862 151.16 342.01V341.116C151.16 340.268 151.378 339.618 151.814 339.166C152.25 338.714 152.886 338.488 153.722 338.488C154.562 338.488 155.198 338.714 155.63 339.166C156.066 339.618 156.284 340.268 156.284 341.116V342.01C156.284 342.862 156.066 343.516 155.63 343.972C155.198 344.424 154.562 344.65 153.722 344.65ZM153.722 343.858C154.242 343.858 154.636 343.704 154.904 343.396C155.176 343.088 155.312 342.644 155.312 342.064V341.062C155.312 340.486 155.176 340.046 154.904 339.742C154.636 339.434 154.242 339.28 153.722 339.28C153.206 339.28 152.812 339.434 152.54 339.742C152.268 340.046 152.132 340.486 152.132 341.062V342.064C152.132 342.644 152.268 343.088 152.54 343.396C152.812 343.704 153.206 343.858 153.722 343.858ZM158.552 340.918L158.33 340.168L158.57 340.156C158.698 339.66 158.918 339.27 159.23 338.986C159.542 338.698 159.956 338.554 160.472 338.554C160.6 338.554 160.714 338.564 160.814 338.584C160.918 338.604 161.01 338.628 161.09 338.656L161.15 339.598C161.05 339.566 160.938 339.54 160.814 339.52C160.694 339.5 160.56 339.49 160.412 339.49C159.972 339.49 159.588 339.612 159.26 339.856C158.936 340.1 158.7 340.454 158.552 340.918ZM157.628 344.5V338.644H158.576L158.528 340.372L158.6 340.444V344.5H157.628Z" fill="#171A1F"/>
<circle cx="180.5" cy="340.5" r="4.5" fill="#7696EA"/>
<path d="M196.468 344.638C195.52 344.638 194.808 344.372 194.332 343.84C193.86 343.308 193.624 342.552 193.624 341.572V339.754C193.624 338.774 193.86 338.02 194.332 337.492C194.804 336.96 195.512 336.694 196.456 336.694C196.76 336.694 197.036 336.722 197.284 336.778C197.536 336.834 197.76 336.906 197.956 336.994C198.152 337.082 198.318 337.174 198.454 337.27L198.538 338.194C198.302 338.026 198.024 337.88 197.704 337.756C197.388 337.628 197.016 337.564 196.588 337.564C195.944 337.564 195.458 337.756 195.13 338.14C194.802 338.52 194.638 339.062 194.638 339.766V341.536C194.638 342.236 194.804 342.78 195.136 343.168C195.468 343.552 195.964 343.744 196.624 343.744C197.048 343.744 197.422 343.682 197.746 343.558C198.074 343.434 198.358 343.282 198.598 343.102L198.514 344.05C198.378 344.146 198.21 344.24 198.01 344.332C197.81 344.424 197.58 344.498 197.32 344.554C197.064 344.61 196.78 344.638 196.468 344.638ZM199.869 344.5V338.644H200.841V344.5H199.869ZM200.355 337.684C200.155 337.684 200.005 337.632 199.905 337.528C199.809 337.42 199.761 337.274 199.761 337.09V337.06C199.761 336.872 199.809 336.726 199.905 336.622C200.005 336.518 200.155 336.466 200.355 336.466C200.555 336.466 200.705 336.518 200.805 336.622C200.905 336.726 200.955 336.872 200.955 337.06V337.09C200.955 337.278 200.905 337.424 200.805 337.528C200.705 337.632 200.555 337.684 200.355 337.684ZM203.376 340.918L203.154 340.168L203.394 340.156C203.522 339.66 203.742 339.27 204.054 338.986C204.366 338.698 204.78 338.554 205.296 338.554C205.424 338.554 205.538 338.564 205.638 338.584C205.742 338.604 205.834 338.628 205.914 338.656L205.974 339.598C205.874 339.566 205.762 339.54 205.638 339.52C205.518 339.5 205.384 339.49 205.236 339.49C204.796 339.49 204.412 339.612 204.084 339.856C203.76 340.1 203.524 340.454 203.376 340.918ZM202.452 344.5V338.644H203.4L203.352 340.372L203.424 340.444V344.5H202.452ZM206.947 344.5V338.644H207.919V344.5H206.947ZM207.433 337.684C207.233 337.684 207.083 337.632 206.983 337.528C206.887 337.42 206.839 337.274 206.839 337.09V337.06C206.839 336.872 206.887 336.726 206.983 336.622C207.083 336.518 207.233 336.466 207.433 336.466C207.633 336.466 207.783 336.518 207.883 336.622C207.983 336.726 208.033 336.872 208.033 337.06V337.09C208.033 337.278 207.983 337.424 207.883 337.528C207.783 337.632 207.633 337.684 207.433 337.684ZM211.66 344.62C211.208 344.62 210.844 344.552 210.568 344.416C210.292 344.28 210.092 344.074 209.968 343.798C209.844 343.522 209.782 343.178 209.782 342.766V339.07H210.742V342.652C210.742 343.036 210.83 343.32 211.006 343.504C211.182 343.684 211.478 343.774 211.894 343.774C212.13 343.774 212.356 343.748 212.572 343.696C212.792 343.644 212.998 343.57 213.19 343.474L213.1 344.308C212.912 344.404 212.692 344.48 212.44 344.536C212.188 344.592 211.928 344.62 211.66 344.62ZM208.822 339.508V338.728H213.13L213.04 339.508H208.822ZM209.788 338.824L209.782 337.18L210.76 337.054L210.718 338.824H209.788ZM216.368 344.632C215.528 344.632 214.902 344.406 214.49 343.954C214.082 343.498 213.878 342.854 213.878 342.022V341.11C213.878 340.274 214.084 339.632 214.496 339.184C214.908 338.732 215.532 338.506 216.368 338.506C216.616 338.506 216.842 338.53 217.046 338.578C217.25 338.622 217.432 338.682 217.592 338.758C217.756 338.83 217.894 338.906 218.006 338.986L218.09 339.832C217.902 339.688 217.678 339.566 217.418 339.466C217.162 339.366 216.86 339.316 216.512 339.316C215.952 339.316 215.534 339.472 215.258 339.784C214.986 340.092 214.85 340.542 214.85 341.134V341.998C214.85 342.578 214.986 343.024 215.258 343.336C215.534 343.648 215.952 343.804 216.512 343.804C216.872 343.804 217.182 343.754 217.442 343.654C217.706 343.554 217.94 343.432 218.144 343.288L218.054 344.146C217.878 344.266 217.648 344.378 217.364 344.482C217.08 344.582 216.748 344.632 216.368 344.632ZM222.789 344.5L222.831 343.078L222.795 342.928V341.062L222.801 340.72C222.801 340.244 222.679 339.892 222.435 339.664C222.195 339.436 221.813 339.322 221.289 339.322C220.869 339.322 220.483 339.382 220.131 339.502C219.783 339.622 219.473 339.762 219.201 339.922L219.291 339.094C219.443 339.002 219.623 338.912 219.831 338.824C220.043 338.732 220.283 338.656 220.551 338.596C220.823 338.536 221.121 338.506 221.445 338.506C221.865 338.506 222.221 338.558 222.513 338.662C222.809 338.762 223.047 338.908 223.227 339.1C223.411 339.292 223.545 339.524 223.629 339.796C223.713 340.068 223.755 340.372 223.755 340.708V344.5H222.789ZM220.773 344.626C220.193 344.626 219.747 344.486 219.435 344.206C219.127 343.922 218.973 343.518 218.973 342.994V342.82C218.973 342.28 219.139 341.878 219.471 341.614C219.807 341.346 220.339 341.16 221.067 341.056L222.921 340.792L222.975 341.5L221.187 341.758C220.739 341.822 220.419 341.932 220.227 342.088C220.035 342.24 219.939 342.466 219.939 342.766V342.862C219.939 343.17 220.033 343.406 220.221 343.57C220.413 343.734 220.699 343.816 221.079 343.816C221.415 343.816 221.703 343.758 221.943 343.642C222.183 343.526 222.377 343.37 222.525 343.174C222.673 342.978 222.773 342.76 222.825 342.52L222.975 343.18H222.789C222.733 343.436 222.627 343.674 222.471 343.894C222.319 344.114 222.105 344.292 221.829 344.428C221.553 344.56 221.201 344.626 220.773 344.626ZM225.275 344.5V336.55H226.241V344.5H225.275Z" fill="#171A1F"/>
<rect x="56.5" y="128.635" width="258.492" height="166.212" stroke="#BDBDBD" stroke-dasharray="1 1"/>
<path d="M56.4062 149H315.898" stroke="#BDBDBD" stroke-dasharray="2 2"/>
<path d="M56.4062 170H315.898" stroke="#BDBDBD" stroke-dasharray="2 2"/>
<path d="M56.4062 191H315.898" stroke="#BDBDBD" stroke-dasharray="2 2"/>
<path d="M56.4062 233H315.898" stroke="#BDBDBD" stroke-dasharray="2 2"/>
<path d="M56.4062 275H315.898" stroke="#BDBDBD" stroke-dasharray="2 2"/>
<path d="M56.4062 254H315.898" stroke="#BDBDBD" stroke-dasharray="2 2"/>
<path d="M56.4062 212H315.898" stroke="#BDBDBD" stroke-dasharray="2 2"/>
<path d="M64.8235 309.45V308.622H67.0015C67.5255 308.622 67.9055 308.492 68.1415 308.232C68.3775 307.968 68.4955 307.606 68.4955 307.146V306.624C68.4955 306.156 68.3775 305.794 68.1415 305.538C67.9095 305.282 67.5335 305.154 67.0135 305.154H64.8175V304.332H67.0315C67.8875 304.332 68.5095 304.534 68.8975 304.938C69.2895 305.338 69.4855 305.89 69.4855 306.594V307.17C69.4855 307.882 69.2875 308.44 68.8915 308.844C68.4995 309.248 67.8775 309.45 67.0255 309.45H64.8235ZM64.1755 312V304.332H65.1535V308.868L65.1595 309.312V312H64.1755ZM73.2601 312.144C72.6801 312.144 72.1941 312.028 71.8021 311.796C71.4101 311.56 71.1141 311.218 70.9141 310.77C70.7181 310.322 70.6201 309.78 70.6201 309.144V307.332C70.6201 306.324 70.8781 305.55 71.3941 305.01C71.9141 304.466 72.6761 304.194 73.6801 304.194C74.0401 304.194 74.3661 304.224 74.6581 304.284C74.9541 304.34 75.2161 304.416 75.4441 304.512C75.6721 304.604 75.8681 304.702 76.0321 304.806L76.1221 305.706C75.8461 305.53 75.5201 305.376 75.1441 305.244C74.7721 305.112 74.3401 305.046 73.8481 305.046C73.1041 305.046 72.5481 305.244 72.1801 305.64C71.8161 306.036 71.6341 306.606 71.6341 307.35V309.138C71.6341 309.826 71.7941 310.358 72.1141 310.734C72.4381 311.106 72.9221 311.292 73.5661 311.292C73.8941 311.292 74.1741 311.236 74.4061 311.124C74.6421 311.012 74.8341 310.864 74.9821 310.68C75.1341 310.496 75.2441 310.294 75.3121 310.074V308.184L75.4741 308.538H73.6681V307.71H76.2841V310.74L75.3061 310.734C75.2421 310.982 75.1321 311.214 74.9761 311.43C74.8201 311.646 74.6021 311.82 74.3221 311.952C74.0421 312.08 73.6881 312.144 73.2601 312.144ZM75.3541 310.416H76.2841V312H75.3121L75.3541 310.416ZM80.0811 312.138C79.7131 312.138 79.3751 312.108 79.0671 312.048C78.7631 311.988 78.4911 311.914 78.2511 311.826C78.0111 311.738 77.8111 311.65 77.6511 311.562L77.5491 310.572C77.8571 310.756 78.2191 310.918 78.6351 311.058C79.0551 311.194 79.5111 311.262 80.0031 311.262C80.5951 311.262 81.0331 311.158 81.3171 310.95C81.6011 310.738 81.7431 310.422 81.7431 310.002V309.906C81.7431 309.63 81.6871 309.404 81.5751 309.228C81.4631 309.052 81.2731 308.904 81.0051 308.784C80.7411 308.664 80.3811 308.552 79.9251 308.448C79.3491 308.312 78.8871 308.152 78.5391 307.968C78.1951 307.78 77.9451 307.546 77.7891 307.266C77.6371 306.986 77.5611 306.638 77.5611 306.222V306.168C77.5611 305.54 77.7671 305.056 78.1791 304.716C78.5911 304.372 79.2151 304.2 80.0511 304.2C80.5991 304.2 81.0651 304.256 81.4491 304.368C81.8371 304.48 82.1531 304.604 82.3971 304.74L82.4871 305.652C82.2031 305.484 81.8711 305.342 81.4911 305.226C81.1151 305.106 80.6831 305.046 80.1951 305.046C79.8071 305.046 79.4931 305.092 79.2531 305.184C79.0131 305.276 78.8391 305.408 78.7311 305.58C78.6231 305.752 78.5691 305.96 78.5691 306.204V306.228C78.5691 306.476 78.6211 306.688 78.7251 306.864C78.8331 307.04 79.0191 307.192 79.2831 307.32C79.5511 307.448 79.9311 307.572 80.4231 307.692C80.9871 307.824 81.4391 307.976 81.7791 308.148C82.1191 308.32 82.3651 308.544 82.5171 308.82C82.6731 309.096 82.7511 309.456 82.7511 309.9V310.026C82.7511 310.718 82.5271 311.244 82.0791 311.604C81.6351 311.96 80.9691 312.138 80.0811 312.138ZM86.1677 309.252V308.454H89.5757V309.252H86.1677ZM95.4729 312.132C94.9689 312.132 94.5349 312.078 94.1709 311.97C93.8069 311.858 93.5229 311.748 93.3189 311.64L93.2169 310.68C93.3929 310.78 93.5909 310.874 93.8109 310.962C94.0349 311.046 94.2769 311.116 94.5369 311.172C94.8009 311.224 95.0829 311.25 95.3829 311.25C95.8029 311.25 96.1449 311.192 96.4089 311.076C96.6729 310.956 96.8649 310.782 96.9849 310.554C97.1089 310.322 97.1709 310.046 97.1709 309.726V309.348C97.1709 308.896 97.0589 308.544 96.8349 308.292C96.6109 308.04 96.2589 307.914 95.7789 307.914C95.3949 307.914 95.0669 307.996 94.7949 308.16C94.5229 308.32 94.2969 308.542 94.1169 308.826L93.2469 308.676V304.332H97.9509V305.178H94.2069V307.014L94.1889 308.112L94.2189 308.106C94.3789 307.814 94.6129 307.572 94.9209 307.38C95.2289 307.188 95.6269 307.092 96.1149 307.092C96.8029 307.092 97.3149 307.288 97.6509 307.68C97.9909 308.072 98.1609 308.618 98.1609 309.318V309.738C98.1609 310.226 98.0649 310.65 97.8729 311.01C97.6849 311.37 97.3929 311.648 96.9969 311.844C96.6009 312.036 96.0929 312.132 95.4729 312.132ZM102.84 312V306.726L102.87 305.028H102.708L100.056 309.594V310.05L99.6725 309.678H104.802V310.518H99.0665V309.522L102.114 304.332H103.788V312H102.84Z" fill="#4F4F4F"/>
<path d="M160.896 304.45V303.622H163.074C163.598 303.622 163.978 303.492 164.214 303.232C164.45 302.968 164.568 302.606 164.568 302.146V301.624C164.568 301.156 164.45 300.794 164.214 300.538C163.982 300.282 163.606 300.154 163.086 300.154H160.89V299.332H163.104C163.96 299.332 164.582 299.534 164.97 299.938C165.362 300.338 165.558 300.89 165.558 301.594V302.17C165.558 302.882 165.36 303.44 164.964 303.844C164.572 304.248 163.95 304.45 163.098 304.45H160.896ZM160.248 307V299.332H161.226V303.868L161.232 304.312V307H160.248ZM169.332 307.144C168.752 307.144 168.266 307.028 167.874 306.796C167.482 306.56 167.186 306.218 166.986 305.77C166.79 305.322 166.692 304.78 166.692 304.144V302.332C166.692 301.324 166.95 300.55 167.466 300.01C167.986 299.466 168.748 299.194 169.752 299.194C170.112 299.194 170.438 299.224 170.73 299.284C171.026 299.34 171.288 299.416 171.516 299.512C171.744 299.604 171.94 299.702 172.104 299.806L172.194 300.706C171.918 300.53 171.592 300.376 171.216 300.244C170.844 300.112 170.412 300.046 169.92 300.046C169.176 300.046 168.62 300.244 168.252 300.64C167.888 301.036 167.706 301.606 167.706 302.35V304.138C167.706 304.826 167.866 305.358 168.186 305.734C168.51 306.106 168.994 306.292 169.638 306.292C169.966 306.292 170.246 306.236 170.478 306.124C170.714 306.012 170.906 305.864 171.054 305.68C171.206 305.496 171.316 305.294 171.384 305.074V303.184L171.546 303.538H169.74V302.71H172.356V305.74L171.378 305.734C171.314 305.982 171.204 306.214 171.048 306.43C170.892 306.646 170.674 306.82 170.394 306.952C170.114 307.08 169.76 307.144 169.332 307.144ZM171.426 305.416H172.356V307H171.384L171.426 305.416ZM176.153 307.138C175.785 307.138 175.447 307.108 175.139 307.048C174.835 306.988 174.563 306.914 174.323 306.826C174.083 306.738 173.883 306.65 173.723 306.562L173.621 305.572C173.929 305.756 174.291 305.918 174.707 306.058C175.127 306.194 175.583 306.262 176.075 306.262C176.667 306.262 177.105 306.158 177.389 305.95C177.673 305.738 177.815 305.422 177.815 305.002V304.906C177.815 304.63 177.759 304.404 177.647 304.228C177.535 304.052 177.345 303.904 177.077 303.784C176.813 303.664 176.453 303.552 175.997 303.448C175.421 303.312 174.959 303.152 174.611 302.968C174.267 302.78 174.017 302.546 173.861 302.266C173.709 301.986 173.633 301.638 173.633 301.222V301.168C173.633 300.54 173.839 300.056 174.251 299.716C174.663 299.372 175.287 299.2 176.123 299.2C176.671 299.2 177.137 299.256 177.521 299.368C177.909 299.48 178.225 299.604 178.469 299.74L178.559 300.652C178.275 300.484 177.943 300.342 177.563 300.226C177.187 300.106 176.755 300.046 176.267 300.046C175.879 300.046 175.565 300.092 175.325 300.184C175.085 300.276 174.911 300.408 174.803 300.58C174.695 300.752 174.641 300.96 174.641 301.204V301.228C174.641 301.476 174.693 301.688 174.797 301.864C174.905 302.04 175.091 302.192 175.355 302.32C175.623 302.448 176.003 302.572 176.495 302.692C177.059 302.824 177.511 302.976 177.851 303.148C178.191 303.32 178.437 303.544 178.589 303.82C178.745 304.096 178.823 304.456 178.823 304.9V305.026C178.823 305.718 178.599 306.244 178.151 306.604C177.707 306.96 177.041 307.138 176.153 307.138ZM182.24 304.252V303.454H185.648V304.252H182.24ZM191.893 307.144C191.313 307.144 190.817 307.032 190.405 306.808C189.997 306.58 189.685 306.242 189.469 305.794C189.253 305.346 189.145 304.792 189.145 304.132V302.302C189.145 301.318 189.387 300.556 189.871 300.016C190.359 299.472 191.077 299.2 192.025 299.2C192.497 299.2 192.895 299.25 193.219 299.35C193.547 299.45 193.823 299.558 194.047 299.674L194.149 300.58C193.977 300.48 193.795 300.392 193.603 300.316C193.415 300.236 193.205 300.174 192.973 300.13C192.745 300.086 192.481 300.064 192.181 300.064C191.493 300.064 190.979 300.256 190.639 300.64C190.303 301.024 190.135 301.588 190.135 302.332V304.24C190.135 304.7 190.205 305.084 190.345 305.392C190.485 305.7 190.687 305.93 190.951 306.082C191.215 306.234 191.535 306.31 191.911 306.31C192.447 306.31 192.843 306.168 193.099 305.884C193.355 305.596 193.483 305.228 193.483 304.78V304.42C193.483 304.104 193.433 303.834 193.333 303.61C193.237 303.382 193.081 303.206 192.865 303.082C192.649 302.958 192.367 302.896 192.019 302.896C191.691 302.896 191.397 302.956 191.137 303.076C190.881 303.196 190.663 303.368 190.483 303.592C190.307 303.812 190.175 304.074 190.087 304.378L189.991 303.538H190.165C190.249 303.266 190.379 303.022 190.555 302.806C190.735 302.586 190.969 302.414 191.257 302.29C191.545 302.162 191.893 302.098 192.301 302.098C193.021 302.098 193.561 302.3 193.921 302.704C194.285 303.108 194.467 303.674 194.467 304.402V304.792C194.467 305.5 194.251 306.07 193.819 306.502C193.387 306.93 192.745 307.144 191.893 307.144ZM198.32 307.156C197.832 307.156 197.412 307.106 197.06 307.006C196.712 306.91 196.426 306.77 196.202 306.586C195.982 306.398 195.818 306.174 195.71 305.914C195.606 305.654 195.554 305.364 195.554 305.044V304.882C195.554 304.522 195.616 304.214 195.74 303.958C195.864 303.702 196.044 303.496 196.28 303.34C196.516 303.18 196.794 303.068 197.114 303.004V302.968C196.798 302.92 196.53 302.824 196.31 302.68C196.09 302.536 195.922 302.348 195.806 302.116C195.694 301.884 195.638 301.614 195.638 301.306V301.144C195.638 300.536 195.856 300.058 196.292 299.71C196.728 299.358 197.404 299.182 198.32 299.182C199.244 299.182 199.924 299.358 200.36 299.71C200.796 300.058 201.014 300.536 201.014 301.144V301.306C201.014 301.614 200.956 301.884 200.84 302.116C200.728 302.348 200.562 302.536 200.342 302.68C200.122 302.824 199.854 302.92 199.538 302.968V303.004C199.862 303.072 200.14 303.186 200.372 303.346C200.604 303.502 200.782 303.708 200.906 303.964C201.034 304.216 201.098 304.522 201.098 304.882V305.044C201.098 305.36 201.046 305.648 200.942 305.908C200.842 306.164 200.68 306.386 200.456 306.574C200.236 306.758 199.95 306.9 199.598 307C199.246 307.104 198.82 307.156 198.32 307.156ZM198.332 306.322C198.94 306.322 199.384 306.198 199.664 305.95C199.948 305.698 200.09 305.366 200.09 304.954V304.798C200.09 304.394 199.94 304.072 199.64 303.832C199.34 303.588 198.892 303.442 198.296 303.394C197.724 303.446 197.29 303.594 196.994 303.838C196.702 304.078 196.556 304.398 196.556 304.798V304.954C196.556 305.366 196.7 305.698 196.988 305.95C197.276 306.198 197.724 306.322 198.332 306.322ZM198.344 302.686C198.848 302.666 199.254 302.546 199.562 302.326C199.87 302.102 200.024 301.78 200.024 301.36V301.246C200.024 300.862 199.886 300.56 199.61 300.34C199.338 300.116 198.908 300.004 198.32 300.004C197.74 300.004 197.312 300.116 197.036 300.34C196.76 300.56 196.622 300.862 196.622 301.246V301.36C196.622 301.64 196.692 301.876 196.832 302.068C196.976 302.26 197.176 302.408 197.432 302.512C197.688 302.612 197.992 302.67 198.344 302.686Z" fill="#4F4F4F"/>
<path d="M257.906 304.45V303.622H260.084C260.608 303.622 260.988 303.492 261.224 303.232C261.46 302.968 261.578 302.606 261.578 302.146V301.624C261.578 301.156 261.46 300.794 261.224 300.538C260.992 300.282 260.616 300.154 260.096 300.154H257.9V299.332H260.114C260.97 299.332 261.592 299.534 261.98 299.938C262.372 300.338 262.568 300.89 262.568 301.594V302.17C262.568 302.882 262.37 303.44 261.974 303.844C261.582 304.248 260.96 304.45 260.108 304.45H257.906ZM257.258 307V299.332H258.236V303.868L258.242 304.312V307H257.258ZM266.342 307.144C265.762 307.144 265.276 307.028 264.884 306.796C264.492 306.56 264.196 306.218 263.996 305.77C263.8 305.322 263.702 304.78 263.702 304.144V302.332C263.702 301.324 263.96 300.55 264.476 300.01C264.996 299.466 265.758 299.194 266.762 299.194C267.122 299.194 267.448 299.224 267.74 299.284C268.036 299.34 268.298 299.416 268.526 299.512C268.754 299.604 268.95 299.702 269.114 299.806L269.204 300.706C268.928 300.53 268.602 300.376 268.226 300.244C267.854 300.112 267.422 300.046 266.93 300.046C266.186 300.046 265.63 300.244 265.262 300.64C264.898 301.036 264.716 301.606 264.716 302.35V304.138C264.716 304.826 264.876 305.358 265.196 305.734C265.52 306.106 266.004 306.292 266.648 306.292C266.976 306.292 267.256 306.236 267.488 306.124C267.724 306.012 267.916 305.864 268.064 305.68C268.216 305.496 268.326 305.294 268.394 305.074V303.184L268.556 303.538H266.75V302.71H269.366V305.74L268.388 305.734C268.324 305.982 268.214 306.214 268.058 306.43C267.902 306.646 267.684 306.82 267.404 306.952C267.124 307.08 266.77 307.144 266.342 307.144ZM268.436 305.416H269.366V307H268.394L268.436 305.416ZM273.163 307.138C272.795 307.138 272.457 307.108 272.149 307.048C271.845 306.988 271.573 306.914 271.333 306.826C271.093 306.738 270.893 306.65 270.733 306.562L270.631 305.572C270.939 305.756 271.301 305.918 271.717 306.058C272.137 306.194 272.593 306.262 273.085 306.262C273.677 306.262 274.115 306.158 274.399 305.95C274.683 305.738 274.825 305.422 274.825 305.002V304.906C274.825 304.63 274.769 304.404 274.657 304.228C274.545 304.052 274.355 303.904 274.087 303.784C273.823 303.664 273.463 303.552 273.007 303.448C272.431 303.312 271.969 303.152 271.621 302.968C271.277 302.78 271.027 302.546 270.871 302.266C270.719 301.986 270.643 301.638 270.643 301.222V301.168C270.643 300.54 270.849 300.056 271.261 299.716C271.673 299.372 272.297 299.2 273.133 299.2C273.681 299.2 274.147 299.256 274.531 299.368C274.919 299.48 275.235 299.604 275.479 299.74L275.569 300.652C275.285 300.484 274.953 300.342 274.573 300.226C274.197 300.106 273.765 300.046 273.277 300.046C272.889 300.046 272.575 300.092 272.335 300.184C272.095 300.276 271.921 300.408 271.813 300.58C271.705 300.752 271.651 300.96 271.651 301.204V301.228C271.651 301.476 271.703 301.688 271.807 301.864C271.915 302.04 272.101 302.192 272.365 302.32C272.633 302.448 273.013 302.572 273.505 302.692C274.069 302.824 274.521 302.976 274.861 303.148C275.201 303.32 275.447 303.544 275.599 303.82C275.755 304.096 275.833 304.456 275.833 304.9V305.026C275.833 305.718 275.609 306.244 275.161 306.604C274.717 306.96 274.051 307.138 273.163 307.138ZM279.25 304.252V303.454H282.658V304.252H279.25ZM286.809 307L289.665 300.178H285.897V299.332H290.709V300.196L287.895 307H286.809ZM294.31 307.156C293.822 307.156 293.402 307.106 293.05 307.006C292.702 306.91 292.416 306.77 292.192 306.586C291.972 306.398 291.808 306.174 291.7 305.914C291.596 305.654 291.544 305.364 291.544 305.044V304.882C291.544 304.522 291.606 304.214 291.73 303.958C291.854 303.702 292.034 303.496 292.27 303.34C292.506 303.18 292.784 303.068 293.104 303.004V302.968C292.788 302.92 292.52 302.824 292.3 302.68C292.08 302.536 291.912 302.348 291.796 302.116C291.684 301.884 291.628 301.614 291.628 301.306V301.144C291.628 300.536 291.846 300.058 292.282 299.71C292.718 299.358 293.394 299.182 294.31 299.182C295.234 299.182 295.914 299.358 296.35 299.71C296.786 300.058 297.004 300.536 297.004 301.144V301.306C297.004 301.614 296.946 301.884 296.83 302.116C296.718 302.348 296.552 302.536 296.332 302.68C296.112 302.824 295.844 302.92 295.528 302.968V303.004C295.852 303.072 296.13 303.186 296.362 303.346C296.594 303.502 296.772 303.708 296.896 303.964C297.024 304.216 297.088 304.522 297.088 304.882V305.044C297.088 305.36 297.036 305.648 296.932 305.908C296.832 306.164 296.67 306.386 296.446 306.574C296.226 306.758 295.94 306.9 295.588 307C295.236 307.104 294.81 307.156 294.31 307.156ZM294.322 306.322C294.93 306.322 295.374 306.198 295.654 305.95C295.938 305.698 296.08 305.366 296.08 304.954V304.798C296.08 304.394 295.93 304.072 295.63 303.832C295.33 303.588 294.882 303.442 294.286 303.394C293.714 303.446 293.28 303.594 292.984 303.838C292.692 304.078 292.546 304.398 292.546 304.798V304.954C292.546 305.366 292.69 305.698 292.978 305.95C293.266 306.198 293.714 306.322 294.322 306.322ZM294.334 302.686C294.838 302.666 295.244 302.546 295.552 302.326C295.86 302.102 296.014 301.78 296.014 301.36V301.246C296.014 300.862 295.876 300.56 295.6 300.34C295.328 300.116 294.898 300.004 294.31 300.004C293.73 300.004 293.302 300.116 293.026 300.34C292.75 300.56 292.612 300.862 292.612 301.246V301.36C292.612 301.64 292.682 301.876 292.822 302.068C292.966 302.26 293.166 302.408 293.422 302.512C293.678 302.612 293.982 302.67 294.334 302.686Z" fill="#4F4F4F"/>
<rect x="70.4062" y="170" width="7" height="125" fill="#1F48DA"/>
<rect x="81.4062" y="212" width="7" height="83" fill="#A8C0FF"/>
<rect x="92.4062" y="149" width="7" height="146" fill="#7696EA"/>
<rect x="188" y="170" width="7" height="125" fill="#7696EA"/>
<rect x="177" y="254" width="7" height="41" fill="#A8C0FF"/>
<rect x="165" y="212" width="8" height="83" fill="#1F48DA"/>
<rect x="284" y="254" width="7" height="41" fill="#7696EA"/>
<rect x="273" y="170" width="7" height="125" fill="#A8C0FF"/>
<rect x="261" y="129" width="8" height="166" fill="#1F48DA"/>
<defs>
<filter id="filter0_d_64_6815" x="0" y="0" width="375" height="389" filterUnits="userSpaceOnUse" color-interpolation-filters="sRGB">
<feFlood flood-opacity="0" result="BackgroundImageFix"/>
<feColorMatrix in="SourceAlpha" type="matrix" values="0 0 0 0 0 0 0 0 0 0 0 0 0 0 0 0 0 0 127 0" result="hardAlpha"/>
<feOffset dy="2"/>
<feGaussianBlur stdDeviation="5"/>
<feComposite in2="hardAlpha" operator="out"/>
<feColorMatrix type="matrix" values="0 0 0 0 0 0 0 0 0 0 0 0 0 0 0 0 0 0 0.1 0"/>
<feBlend mode="normal" in2="BackgroundImageFix" result="effect1_dropShadow_64_6815"/>
<feBlend mode="normal" in="SourceGraphic" in2="effect1_dropShadow_64_6815" result="shape"/>
</filter>
</defs>
</svg>
