<svg width="375" height="389" viewBox="0 0 375 389" fill="none" xmlns="http://www.w3.org/2000/svg">
<g filter="url(#filter0_d_64_4845)">
<rect x="10" y="8" width="355" height="369" rx="14" fill="white"/>
</g>
<path d="M57.42 59.0662V46.2862H59.42V59.0662H57.42ZM58.56 53.9262V52.2462H65.16V53.9262H58.56ZM58 47.9662V46.2862H65.31V47.9662H58ZM72.8142 59.0662L72.8942 56.7462L72.8242 56.4462V53.3662L72.8342 52.8762C72.8342 52.1228 72.6409 51.5695 72.2542 51.2162C71.8742 50.8628 71.2609 50.6862 70.4142 50.6862C69.7276 50.6862 69.0909 50.7828 68.5042 50.9762C67.9176 51.1695 67.3876 51.3928 66.9142 51.6462L67.0942 50.0062C67.3609 49.8528 67.6742 49.7028 68.0342 49.5562C68.3942 49.4095 68.8009 49.2895 69.2542 49.1962C69.7076 49.1028 70.2042 49.0562 70.7442 49.0562C71.4842 49.0562 72.1109 49.1462 72.6242 49.3262C73.1376 49.4995 73.5509 49.7528 73.8642 50.0862C74.1776 50.4195 74.4042 50.8195 74.5442 51.2862C74.6909 51.7528 74.7642 52.2728 74.7642 52.8462V59.0662H72.8142ZM69.5042 59.2862C68.5376 59.2862 67.7976 59.0495 67.2842 58.5762C66.7709 58.0962 66.5142 57.4162 66.5142 56.5362V56.2362C66.5142 55.3028 66.8009 54.6128 67.3742 54.1662C67.9542 53.7128 68.8642 53.3995 70.1042 53.2262L73.0442 52.8062L73.1542 54.2262L70.3342 54.6262C69.6609 54.7195 69.1809 54.8828 68.8942 55.1162C68.6076 55.3428 68.4642 55.6795 68.4642 56.1262V56.2662C68.4642 56.7128 68.6009 57.0562 68.8742 57.2962C69.1542 57.5362 69.5776 57.6562 70.1442 57.6562C70.6642 57.6562 71.1109 57.5695 71.4842 57.3962C71.8576 57.2228 72.1609 56.9928 72.3942 56.7062C72.6276 56.4128 72.7876 56.0895 72.8742 55.7362L73.1442 57.0462H72.7842C72.6776 57.4462 72.5009 57.8162 72.2542 58.1562C72.0076 58.4962 71.6609 58.7695 71.2142 58.9762C70.7742 59.1828 70.2042 59.2862 69.5042 59.2862ZM77.1138 59.0662V49.2862H79.0738V59.0662H77.1138ZM78.0938 47.8462C77.7071 47.8462 77.4171 47.7495 77.2238 47.5562C77.0371 47.3562 76.9438 47.0828 76.9438 46.7362V46.6962C76.9438 46.3495 77.0371 46.0795 77.2238 45.8862C77.4171 45.6862 77.7071 45.5862 78.0938 45.5862C78.4804 45.5862 78.7671 45.6862 78.9538 45.8862C79.1471 46.0795 79.2438 46.3495 79.2438 46.6962V46.7362C79.2438 47.0895 79.1471 47.3628 78.9538 47.5562C78.7671 47.7495 78.4804 47.8462 78.0938 47.8462ZM81.6355 59.0662V45.8262H83.5955V59.0662H81.6355ZM87.9472 49.2862V55.3262C87.9472 55.7928 88.0105 56.2028 88.1372 56.5562C88.2705 56.9028 88.4872 57.1728 88.7872 57.3662C89.0872 57.5595 89.4905 57.6562 89.9972 57.6562C90.4772 57.6562 90.8872 57.5695 91.2272 57.3962C91.5739 57.2228 91.8572 56.9895 92.0772 56.6962C92.2972 56.3962 92.4505 56.0628 92.5372 55.6962L92.8572 57.0562H92.4372C92.3239 57.4628 92.1372 57.8362 91.8772 58.1762C91.6172 58.5162 91.2705 58.7862 90.8372 58.9862C90.4039 59.1862 89.8672 59.2862 89.2272 59.2862C88.4672 59.2862 87.8472 59.1428 87.3672 58.8562C86.8939 58.5628 86.5439 58.1395 86.3172 57.5862C86.0972 57.0262 85.9872 56.3462 85.9872 55.5462V49.2862H87.9472ZM94.4272 49.2862V59.0662H92.4672L92.5472 56.7762L92.4672 56.6562V49.2862H94.4272ZM98.788 53.1562L98.368 51.6262H98.848C99.0546 50.8528 99.4013 50.2462 99.888 49.8062C100.375 49.3595 101.038 49.1362 101.878 49.1362C102.078 49.1362 102.255 49.1528 102.408 49.1862C102.568 49.2128 102.711 49.2462 102.838 49.2862L102.958 51.1962C102.798 51.1428 102.618 51.1028 102.418 51.0762C102.218 51.0428 102.001 51.0262 101.768 51.0262C101.055 51.0262 100.438 51.2095 99.918 51.5762C99.398 51.9428 99.0213 52.4695 98.788 53.1562ZM96.908 59.0662V49.2862H98.818L98.728 52.1362L98.868 52.2762V59.0662H96.908ZM108.503 59.2962C106.943 59.2962 105.773 58.9262 104.993 58.1862C104.219 57.4395 103.833 56.3662 103.833 54.9662V53.3662C103.833 51.9862 104.193 50.9195 104.913 50.1662C105.639 49.4062 106.696 49.0262 108.083 49.0262C109.023 49.0262 109.806 49.1995 110.433 49.5462C111.059 49.8862 111.529 50.3695 111.843 50.9962C112.156 51.6228 112.313 52.3662 112.313 53.2262V53.5962C112.313 53.8228 112.303 54.0528 112.283 54.2862C112.263 54.5195 112.236 54.7428 112.203 54.9562H110.403C110.416 54.6095 110.423 54.2828 110.423 53.9762C110.429 53.6695 110.433 53.3895 110.433 53.1362C110.433 52.5962 110.346 52.1395 110.173 51.7662C109.999 51.3928 109.739 51.1095 109.393 50.9162C109.046 50.7162 108.609 50.6162 108.083 50.6162C107.303 50.6162 106.723 50.8395 106.343 51.2862C105.963 51.7262 105.773 52.3562 105.773 53.1762V54.0962L105.783 54.3262V55.1962C105.783 55.5628 105.836 55.8962 105.943 56.1962C106.056 56.4962 106.233 56.7562 106.473 56.9762C106.719 57.1895 107.036 57.3562 107.423 57.4762C107.809 57.5895 108.279 57.6462 108.833 57.6462C109.459 57.6462 110.046 57.5662 110.593 57.4062C111.146 57.2462 111.666 57.0328 112.153 56.7662L111.973 58.4362C111.533 58.6962 111.019 58.9062 110.433 59.0662C109.853 59.2195 109.209 59.2962 108.503 59.2962ZM104.873 54.9562V53.4862H111.803V54.9562H104.873ZM120.966 59.0662V46.6362H122.976V59.0662H120.966ZM117.206 47.9662V46.2862H126.726V47.9662H117.206ZM129.745 53.1562L129.325 51.6262H129.805C130.012 50.8528 130.358 50.2462 130.845 49.8062C131.332 49.3595 131.995 49.1362 132.835 49.1362C133.035 49.1362 133.212 49.1528 133.365 49.1862C133.525 49.2128 133.668 49.2462 133.795 49.2862L133.915 51.1962C133.755 51.1428 133.575 51.1028 133.375 51.0762C133.175 51.0428 132.958 51.0262 132.725 51.0262C132.012 51.0262 131.395 51.2095 130.875 51.5762C130.355 51.9428 129.978 52.4695 129.745 53.1562ZM127.865 59.0662V49.2862H129.775L129.685 52.1362L129.825 52.2762V59.0662H127.865ZM139.46 59.2962C137.9 59.2962 136.73 58.9262 135.95 58.1862C135.176 57.4395 134.79 56.3662 134.79 54.9662V53.3662C134.79 51.9862 135.15 50.9195 135.87 50.1662C136.596 49.4062 137.653 49.0262 139.04 49.0262C139.98 49.0262 140.763 49.1995 141.39 49.5462C142.016 49.8862 142.486 50.3695 142.8 50.9962C143.113 51.6228 143.27 52.3662 143.27 53.2262V53.5962C143.27 53.8228 143.26 54.0528 143.24 54.2862C143.22 54.5195 143.193 54.7428 143.16 54.9562H141.36C141.373 54.6095 141.38 54.2828 141.38 53.9762C141.386 53.6695 141.39 53.3895 141.39 53.1362C141.39 52.5962 141.303 52.1395 141.13 51.7662C140.956 51.3928 140.696 51.1095 140.35 50.9162C140.003 50.7162 139.566 50.6162 139.04 50.6162C138.26 50.6162 137.68 50.8395 137.3 51.2862C136.92 51.7262 136.73 52.3562 136.73 53.1762V54.0962L136.74 54.3262V55.1962C136.74 55.5628 136.793 55.8962 136.9 56.1962C137.013 56.4962 137.19 56.7562 137.43 56.9762C137.676 57.1895 137.993 57.3562 138.38 57.4762C138.766 57.5895 139.236 57.6462 139.79 57.6462C140.416 57.6462 141.003 57.5662 141.55 57.4062C142.103 57.2462 142.623 57.0328 143.11 56.7662L142.93 58.4362C142.49 58.6962 141.976 58.9062 141.39 59.0662C140.81 59.2195 140.166 59.2962 139.46 59.2962ZM135.83 54.9562V53.4862H142.76V54.9562H135.83ZM151.767 59.0662V53.0262C151.767 52.5528 151.7 52.1428 151.567 51.7962C151.44 51.4495 151.227 51.1795 150.927 50.9862C150.634 50.7928 150.23 50.6962 149.717 50.6962C149.244 50.6962 148.834 50.7828 148.487 50.9562C148.14 51.1295 147.857 51.3628 147.637 51.6562C147.424 51.9495 147.27 52.2828 147.177 52.6562L146.857 51.2962H147.277C147.39 50.8828 147.577 50.5095 147.837 50.1762C148.097 49.8362 148.444 49.5662 148.877 49.3662C149.31 49.1662 149.847 49.0662 150.487 49.0662C151.254 49.0662 151.874 49.2128 152.347 49.5062C152.82 49.7928 153.167 50.2128 153.387 50.7662C153.614 51.3195 153.727 51.9995 153.727 52.8062V59.0662H151.767ZM145.287 59.0662V49.2862H147.247L147.167 51.5762L147.247 51.6962V59.0662H145.287ZM159.298 59.2862C158.131 59.2862 157.241 58.9195 156.628 58.1862C156.021 57.4528 155.718 56.3828 155.718 54.9762V53.4262C155.718 52.0062 156.024 50.9262 156.638 50.1862C157.258 49.4395 158.171 49.0662 159.378 49.0662C159.958 49.0662 160.454 49.1595 160.868 49.3462C161.288 49.5262 161.628 49.7828 161.888 50.1162C162.154 50.4495 162.344 50.8428 162.458 51.2962H163.108L162.558 53.1062C162.538 52.5728 162.421 52.1262 162.208 51.7662C161.994 51.3995 161.701 51.1228 161.328 50.9362C160.954 50.7495 160.518 50.6562 160.018 50.6562C159.264 50.6562 158.688 50.8728 158.288 51.3062C157.888 51.7395 157.688 52.3828 157.688 53.2362V55.1062C157.688 55.9395 157.884 56.5728 158.278 57.0062C158.678 57.4395 159.258 57.6562 160.018 57.6562C160.478 57.6562 160.881 57.5695 161.228 57.3962C161.581 57.2228 161.874 56.9862 162.108 56.6862C162.341 56.3862 162.501 56.0495 162.588 55.6762L163.048 57.0562H162.478C162.371 57.4628 162.191 57.8362 161.938 58.1762C161.691 58.5162 161.354 58.7862 160.928 58.9862C160.501 59.1862 159.958 59.2862 159.298 59.2862ZM162.508 59.0662L162.588 56.7762L162.558 56.1562V52.0962L162.568 51.7162L162.518 48.9462V45.8262H164.468V59.0662H162.508ZM169.623 59.0662L173.543 46.2862H176.653L180.573 59.0662H178.543L175.223 47.6262H174.973L171.653 59.0662H169.623ZM172.183 55.4962V53.8362H177.993V55.4962H172.183ZM188.72 59.0662V53.0262C188.72 52.5528 188.653 52.1428 188.52 51.7962C188.393 51.4495 188.18 51.1795 187.88 50.9862C187.587 50.7928 187.183 50.6962 186.67 50.6962C186.197 50.6962 185.787 50.7828 185.44 50.9562C185.093 51.1295 184.81 51.3628 184.59 51.6562C184.377 51.9495 184.223 52.2828 184.13 52.6562L183.81 51.2962H184.23C184.343 50.8828 184.53 50.5095 184.79 50.1762C185.05 49.8362 185.397 49.5662 185.83 49.3662C186.263 49.1662 186.8 49.0662 187.44 49.0662C188.207 49.0662 188.827 49.2128 189.3 49.5062C189.773 49.7928 190.12 50.2128 190.34 50.7662C190.567 51.3195 190.68 51.9995 190.68 52.8062V59.0662H188.72ZM182.24 59.0662V49.2862H184.2L184.12 51.5762L184.2 51.6962V59.0662H182.24ZM198.791 59.0662L198.871 56.7462L198.801 56.4462V53.3662L198.811 52.8762C198.811 52.1228 198.617 51.5695 198.231 51.2162C197.851 50.8628 197.237 50.6862 196.391 50.6862C195.704 50.6862 195.067 50.7828 194.481 50.9762C193.894 51.1695 193.364 51.3928 192.891 51.6462L193.071 50.0062C193.337 49.8528 193.651 49.7028 194.011 49.5562C194.371 49.4095 194.777 49.2895 195.231 49.1962C195.684 49.1028 196.181 49.0562 196.721 49.0562C197.461 49.0562 198.087 49.1462 198.601 49.3262C199.114 49.4995 199.527 49.7528 199.841 50.0862C200.154 50.4195 200.381 50.8195 200.521 51.2862C200.667 51.7528 200.741 52.2728 200.741 52.8462V59.0662H198.791ZM195.481 59.2862C194.514 59.2862 193.774 59.0495 193.261 58.5762C192.747 58.0962 192.491 57.4162 192.491 56.5362V56.2362C192.491 55.3028 192.777 54.6128 193.351 54.1662C193.931 53.7128 194.841 53.3995 196.081 53.2262L199.021 52.8062L199.131 54.2262L196.311 54.6262C195.637 54.7195 195.157 54.8828 194.871 55.1162C194.584 55.3428 194.441 55.6795 194.441 56.1262V56.2662C194.441 56.7128 194.577 57.0562 194.851 57.2962C195.131 57.5362 195.554 57.6562 196.121 57.6562C196.641 57.6562 197.087 57.5695 197.461 57.3962C197.834 57.2228 198.137 56.9928 198.371 56.7062C198.604 56.4128 198.764 56.0895 198.851 55.7362L199.121 57.0462H198.761C198.654 57.4462 198.477 57.8162 198.231 58.1562C197.984 58.4962 197.637 58.7695 197.191 58.9762C196.751 59.1828 196.181 59.2862 195.481 59.2862ZM203.1 59.0662V45.8262H205.06V59.0662H203.1ZM212.243 57.3362L211.203 57.7862L213.953 49.2862H215.963L211.513 62.5062H209.533L211.083 57.9162L211.962 58.6562H209.753L206.683 49.2862H208.713L211.153 57.3362H212.243ZM220.673 59.2962C219.887 59.2962 219.197 59.2162 218.603 59.0562C218.01 58.8895 217.513 58.7095 217.113 58.5162L216.933 56.7262C217.427 56.9728 217.97 57.1895 218.563 57.3762C219.157 57.5562 219.823 57.6462 220.563 57.6462C221.277 57.6462 221.803 57.5428 222.143 57.3362C222.49 57.1228 222.663 56.8095 222.663 56.3962V56.3162C222.663 56.0495 222.593 55.8295 222.453 55.6562C222.313 55.4762 222.063 55.3162 221.703 55.1762C221.35 55.0362 220.847 54.8928 220.193 54.7462C219.373 54.5595 218.727 54.3395 218.253 54.0862C217.78 53.8328 217.44 53.5228 217.233 53.1562C217.033 52.7828 216.933 52.3362 216.933 51.8162V51.7262C216.933 50.8462 217.24 50.1795 217.853 49.7262C218.467 49.2728 219.387 49.0462 220.613 49.0462C221.387 49.0462 222.06 49.1295 222.633 49.2962C223.207 49.4628 223.68 49.6528 224.053 49.8662L224.233 51.4962C223.787 51.2562 223.277 51.0562 222.703 50.8962C222.137 50.7295 221.507 50.6462 220.813 50.6462C220.34 50.6462 219.96 50.6928 219.673 50.7862C219.387 50.8728 219.18 50.9995 219.053 51.1662C218.927 51.3262 218.863 51.5195 218.863 51.7462V51.8162C218.863 52.0628 218.93 52.2795 219.063 52.4662C219.197 52.6462 219.433 52.8095 219.773 52.9562C220.12 53.0962 220.6 53.2328 221.213 53.3662C222.04 53.5395 222.7 53.7428 223.193 53.9762C223.687 54.2095 224.043 54.5095 224.263 54.8762C224.483 55.2362 224.593 55.7028 224.593 56.2762V56.4262C224.593 57.3795 224.267 58.0962 223.613 58.5762C222.96 59.0562 221.98 59.2962 220.673 59.2962ZM226.45 59.0662V49.2862H228.41V59.0662H226.45ZM227.43 47.8462C227.043 47.8462 226.753 47.7495 226.56 47.5562C226.373 47.3562 226.28 47.0828 226.28 46.7362V46.6962C226.28 46.3495 226.373 46.0795 226.56 45.8862C226.753 45.6862 227.043 45.5862 227.43 45.5862C227.816 45.5862 228.103 45.6862 228.29 45.8862C228.483 46.0795 228.58 46.3495 228.58 46.6962V46.7362C228.58 47.0895 228.483 47.3628 228.29 47.5562C228.103 47.7495 227.816 47.8462 227.43 47.8462ZM234.033 59.2962C233.246 59.2962 232.556 59.2162 231.963 59.0562C231.369 58.8895 230.873 58.7095 230.473 58.5162L230.293 56.7262C230.786 56.9728 231.329 57.1895 231.923 57.3762C232.516 57.5562 233.183 57.6462 233.923 57.6462C234.636 57.6462 235.163 57.5428 235.503 57.3362C235.849 57.1228 236.023 56.8095 236.023 56.3962V56.3162C236.023 56.0495 235.953 55.8295 235.813 55.6562C235.673 55.4762 235.423 55.3162 235.063 55.1762C234.709 55.0362 234.206 54.8928 233.553 54.7462C232.733 54.5595 232.086 54.3395 231.613 54.0862C231.139 53.8328 230.799 53.5228 230.593 53.1562C230.393 52.7828 230.293 52.3362 230.293 51.8162V51.7262C230.293 50.8462 230.599 50.1795 231.213 49.7262C231.826 49.2728 232.746 49.0462 233.973 49.0462C234.746 49.0462 235.419 49.1295 235.993 49.2962C236.566 49.4628 237.039 49.6528 237.413 49.8662L237.593 51.4962C237.146 51.2562 236.636 51.0562 236.063 50.8962C235.496 50.7295 234.866 50.6462 234.173 50.6462C233.699 50.6462 233.319 50.6928 233.033 50.7862C232.746 50.8728 232.539 50.9995 232.413 51.1662C232.286 51.3262 232.223 51.5195 232.223 51.7462V51.8162C232.223 52.0628 232.289 52.2795 232.423 52.4662C232.556 52.6462 232.793 52.8095 233.133 52.9562C233.479 53.0962 233.959 53.2328 234.573 53.3662C235.399 53.5395 236.059 53.7428 236.553 53.9762C237.046 54.2095 237.403 54.5095 237.623 54.8762C237.843 55.2362 237.953 55.7028 237.953 56.2762V56.4262C237.953 57.3795 237.626 58.0962 236.973 58.5762C236.319 59.0562 235.339 59.2962 234.033 59.2962Z" fill="#171A1F"/>
<path d="M10 95H365" stroke="#F0F0F0" stroke-width="2"/>
<ellipse cx="60.5" cy="332.511" rx="4.5" ry="4.51064" fill="#1F48DA"/>
<path d="M76.468 336.138C75.52 336.138 74.808 335.872 74.332 335.34C73.86 334.808 73.624 334.052 73.624 333.072V331.254C73.624 330.274 73.86 329.52 74.332 328.992C74.804 328.46 75.512 328.194 76.456 328.194C76.76 328.194 77.036 328.222 77.284 328.278C77.536 328.334 77.76 328.406 77.956 328.494C78.152 328.582 78.318 328.674 78.454 328.77L78.538 329.694C78.302 329.526 78.024 329.38 77.704 329.256C77.388 329.128 77.016 329.064 76.588 329.064C75.944 329.064 75.458 329.256 75.13 329.64C74.802 330.02 74.638 330.562 74.638 331.266V333.036C74.638 333.736 74.804 334.28 75.136 334.668C75.468 335.052 75.964 335.244 76.624 335.244C77.048 335.244 77.422 335.182 77.746 335.058C78.074 334.934 78.358 334.782 78.598 334.602L78.514 335.55C78.378 335.646 78.21 335.74 78.01 335.832C77.81 335.924 77.58 335.998 77.32 336.054C77.064 336.11 76.78 336.138 76.468 336.138ZM84.4698 336L84.2538 334.428C84.2138 334.132 84.1458 333.876 84.0498 333.66C83.9538 333.44 83.8058 333.268 83.6058 333.144C83.4098 333.02 83.1298 332.958 82.7658 332.958L80.6838 332.952V332.166L82.9098 332.16C83.4338 332.16 83.8078 332.032 84.0318 331.776C84.2558 331.516 84.3678 331.164 84.3678 330.72V330.54C84.3678 330.1 84.2538 329.76 84.0258 329.52C83.7978 329.276 83.4178 329.154 82.8858 329.154H80.6538V328.332H83.0178C83.8418 328.332 84.4398 328.514 84.8118 328.878C85.1878 329.238 85.3758 329.736 85.3758 330.372V330.576C85.3758 331.076 85.2578 331.486 85.0218 331.806C84.7858 332.122 84.3938 332.314 83.8458 332.382V332.502L83.4198 332.352C83.8638 332.384 84.2058 332.482 84.4458 332.646C84.6898 332.806 84.8678 333.026 84.9798 333.306C85.0918 333.586 85.1778 333.922 85.2378 334.314L85.4958 336H84.4698ZM79.9998 336V328.332H80.9778V332.43L80.9838 332.808V336H79.9998ZM86.2901 336L88.6901 328.332H90.2621L92.6681 336H91.6601L89.5541 329.004H89.4041L87.2981 336H86.2901ZM87.7301 333.738V332.91H91.2221V333.738H87.7301ZM96.2024 336.138C95.2544 336.138 94.5424 335.872 94.0664 335.34C93.5944 334.808 93.3584 334.052 93.3584 333.072V331.254C93.3584 330.274 93.5944 329.52 94.0664 328.992C94.5384 328.46 95.2464 328.194 96.1904 328.194C96.4944 328.194 96.7704 328.222 97.0184 328.278C97.2704 328.334 97.4944 328.406 97.6904 328.494C97.8864 328.582 98.0524 328.674 98.1884 328.77L98.2724 329.694C98.0364 329.526 97.7584 329.38 97.4384 329.256C97.1224 329.128 96.7504 329.064 96.3224 329.064C95.6784 329.064 95.1924 329.256 94.8644 329.64C94.5364 330.02 94.3724 330.562 94.3724 331.266V333.036C94.3724 333.736 94.5384 334.28 94.8704 334.668C95.2024 335.052 95.6984 335.244 96.3584 335.244C96.7824 335.244 97.1564 335.182 97.4804 335.058C97.8084 334.934 98.0924 334.782 98.3324 334.602L98.2484 335.55C98.1124 335.646 97.9444 335.74 97.7444 335.832C97.5444 335.924 97.3144 335.998 97.0544 336.054C96.7984 336.11 96.5144 336.138 96.2024 336.138ZM104.21 336L101.522 332.478H100.646V331.686H101.522L104.174 328.332H105.308L102.272 332.154L102.266 331.908L105.386 336H104.21ZM99.7341 336V328.332H100.724V336H99.7341Z" fill="#171A1F"/>
<ellipse cx="124.5" cy="332.511" rx="4.5" ry="4.51064" fill="#A8C0FF"/>
<path d="M138.578 336.511V335.671H140.438C141.118 335.671 141.628 335.487 141.968 335.119C142.312 334.747 142.484 334.217 142.484 333.529V331.819C142.484 331.127 142.312 330.597 141.968 330.229C141.628 329.861 141.118 329.677 140.438 329.677H138.572V328.843H140.474C141.466 328.843 142.216 329.099 142.724 329.611C143.232 330.119 143.486 330.853 143.486 331.813V333.535C143.486 334.491 143.232 335.227 142.724 335.743C142.216 336.255 141.466 336.511 140.474 336.511H138.578ZM137.906 336.511V328.843H138.89V336.511H137.906ZM145.008 336.511V328.843H145.992V336.511H145.008ZM145.302 336.511V335.677H149.79V336.511H145.302ZM145.572 333.013V332.185H149.664V333.013H145.572ZM145.296 329.677V328.843H149.754V329.677H145.296ZM152.285 336.511H151.289V328.843H152.285V336.511ZM151.823 335.665H155.867V336.511H151.823V335.665ZM156.548 336.511L158.948 328.843H160.52L162.926 336.511H161.918L159.812 329.515H159.662L157.556 336.511H156.548ZM157.988 334.249V333.421H161.48V334.249H157.988ZM163.995 336.511L164.289 328.843H165.831L167.649 334.387H167.733L169.551 328.843H171.099L171.393 336.511H170.427L170.319 333.277L170.217 329.881H170.109L168.213 335.629H167.175L165.279 329.881H165.171L165.063 333.283L164.961 336.511H163.995ZM174.082 336.511H173.086V328.843H174.082V336.511ZM177.422 328.843L180.536 335.443H180.608L180.566 332.095V328.843H181.538V336.511H180.062L176.912 329.857H176.84L176.882 333.361V336.511H175.91V328.843H177.422ZM182.739 336.511L185.139 328.843H186.711L189.117 336.511H188.109L186.003 329.515H185.853L183.747 336.511H182.739ZM184.179 334.249V333.421H187.671V334.249H184.179ZM191.168 336.511V329.005H192.164V336.511H191.168ZM188.87 329.677V328.843H194.462V329.677H188.87ZM196.769 336.511H195.773V328.843H196.769V336.511ZM201.279 336.655C200.311 336.655 199.575 336.389 199.071 335.857C198.567 335.321 198.315 334.555 198.315 333.559V331.789C198.315 330.797 198.567 330.035 199.071 329.503C199.575 328.967 200.311 328.699 201.279 328.699C202.247 328.699 202.983 328.967 203.487 329.503C203.991 330.035 204.243 330.797 204.243 331.789V333.559C204.243 334.555 203.991 335.321 203.487 335.857C202.983 336.389 202.247 336.655 201.279 336.655ZM201.279 335.821C201.927 335.821 202.415 335.629 202.743 335.245C203.071 334.857 203.235 334.309 203.235 333.601V331.747C203.235 331.039 203.071 330.493 202.743 330.109C202.415 329.725 201.927 329.533 201.279 329.533C200.635 329.533 200.149 329.725 199.821 330.109C199.493 330.493 199.329 331.039 199.329 331.747V333.601C199.329 334.309 199.493 334.857 199.821 335.245C200.149 335.629 200.635 335.821 201.279 335.821ZM207.293 328.843L210.407 335.443H210.479L210.437 332.095V328.843H211.409V336.511H209.933L206.783 329.857H206.711L206.753 333.361V336.511H205.781V328.843H207.293Z" fill="#171A1F"/>
<ellipse cx="231.5" cy="332.511" rx="4.5" ry="4.51064" fill="#7696EA"/>
<path d="M246.628 336.511L244.294 328.843H245.338L247.348 335.755H247.492L249.508 328.843H250.546L248.218 336.511H246.628ZM254.174 336.655C253.206 336.655 252.47 336.389 251.966 335.857C251.462 335.321 251.21 334.555 251.21 333.559V331.789C251.21 330.797 251.462 330.035 251.966 329.503C252.47 328.967 253.206 328.699 254.174 328.699C255.142 328.699 255.878 328.967 256.382 329.503C256.886 330.035 257.138 330.797 257.138 331.789V333.559C257.138 334.555 256.886 335.321 256.382 335.857C255.878 336.389 255.142 336.655 254.174 336.655ZM254.174 335.821C254.822 335.821 255.31 335.629 255.638 335.245C255.966 334.857 256.13 334.309 256.13 333.601V331.747C256.13 331.039 255.966 330.493 255.638 330.109C255.31 329.725 254.822 329.533 254.174 329.533C253.53 329.533 253.044 329.725 252.716 330.109C252.388 330.493 252.224 331.039 252.224 331.747V333.601C252.224 334.309 252.388 334.857 252.716 335.245C253.044 335.629 253.53 335.821 254.174 335.821ZM259.684 336.511H258.688V328.843H259.684V336.511ZM259.18 327.701C258.988 327.701 258.844 327.651 258.748 327.551C258.656 327.451 258.61 327.309 258.61 327.125V327.089C258.61 326.909 258.656 326.769 258.748 326.669C258.844 326.565 258.988 326.513 259.18 326.513C259.376 326.513 259.52 326.565 259.612 326.669C259.708 326.769 259.756 326.909 259.756 327.089V327.125C259.756 327.309 259.708 327.451 259.612 327.551C259.52 327.651 259.376 327.701 259.18 327.701ZM262.183 336.511V335.671H264.043C264.723 335.671 265.233 335.487 265.573 335.119C265.917 334.747 266.089 334.217 266.089 333.529V331.819C266.089 331.127 265.917 330.597 265.573 330.229C265.233 329.861 264.723 329.677 264.043 329.677H262.177V328.843H264.079C265.071 328.843 265.821 329.099 266.329 329.611C266.837 330.119 267.091 330.853 267.091 331.813V333.535C267.091 334.491 266.837 335.227 266.329 335.743C265.821 336.255 265.071 336.511 264.079 336.511H262.183ZM261.511 336.511V328.843H262.495V336.511H261.511Z" fill="#171A1F"/>
<rect x="58.8301" y="136.612" width="257.102" height="162.351" stroke="#BDBDBD" stroke-dasharray="1 1"/>
<path d="M58.3301 169.665H316.432" stroke="#BDBDBD" stroke-dasharray="2 2"/>
<path d="M58.3301 202.335H316.432" stroke="#BDBDBD" stroke-dasharray="2 2"/>
<path d="M58.3301 235.005H316.432" stroke="#BDBDBD" stroke-dasharray="2 2"/>
<path d="M58.3301 267.675H316.432" stroke="#BDBDBD" stroke-dasharray="2 2"/>
<path d="M123.517 136.112L123.517 299.462" stroke="#BDBDBD" stroke-dasharray="2 2"/>
<path d="M186.94 136.112L186.94 299.462" stroke="#BDBDBD" stroke-dasharray="2 2"/>
<path d="M252.127 136.112L252.127 299.462" stroke="#BDBDBD" stroke-dasharray="2 2"/>
<path d="M58.7705 142.734C93.1253 167.016 168.089 214.079 193.107 208.074C224.378 200.569 253.448 186.883 275.47 204.101C293.088 217.875 309.825 230.443 315.991 235.005" stroke="#1F48DA" stroke-width="3"/>
<ellipse cx="59.2111" cy="143.175" rx="3.52357" ry="3.5319" fill="#1F48DA"/>
<ellipse cx="123.516" cy="182.909" rx="3.52357" ry="3.5319" fill="#1F48DA"/>
<ellipse cx="187.821" cy="208.516" rx="3.52357" ry="3.5319" fill="#1F48DA"/>
<ellipse cx="252.127" cy="196.154" rx="3.52357" ry="3.5319" fill="#1F48DA"/>
<ellipse cx="316.432" cy="235.005" rx="3.52357" ry="3.5319" fill="#1F48DA"/>
<path d="M59.5234 276.989C77.5818 284.936 119.512 297.916 142.768 286.26C171.837 271.691 208.835 240.346 221.608 228.867C234.381 217.388 248.916 201.495 273.14 222.245C297.365 242.995 308.376 263.303 316.744 265.069" stroke="#A8C0FF" stroke-width="3"/>
<ellipse cx="59.5236" cy="276.989" rx="3.52357" ry="3.5319" fill="#A8C0FF"/>
<ellipse cx="123.828" cy="291.117" rx="3.52357" ry="3.5319" fill="#A8C0FF"/>
<ellipse cx="187.253" cy="257.564" rx="3.52357" ry="3.5319" fill="#A8C0FF"/>
<ellipse cx="252.44" cy="212.532" rx="3.52357" ry="3.5319" fill="#A8C0FF"/>
<ellipse cx="315.863" cy="264.628" rx="3.52357" ry="3.5319" fill="#A8C0FF"/>
<path d="M59.083 271.314C80.0776 259.835 138.099 235.376 202.228 229.372C266.357 223.368 305.293 210.683 316.744 205.09" stroke="#7696EA" stroke-width="3"/>
<ellipse cx="59.5236" cy="271.755" rx="3.52357" ry="3.5319" fill="#7696EA"/>
<ellipse cx="123.828" cy="245.266" rx="3.52357" ry="3.5319" fill="#7696EA"/>
<ellipse cx="187.253" cy="231.138" rx="3.52357" ry="3.5319" fill="#7696EA"/>
<ellipse cx="252.44" cy="223.191" rx="3.52357" ry="3.5319" fill="#7696EA"/>
<ellipse cx="315.863" cy="205.532" rx="3.52357" ry="3.5319" fill="#7696EA"/>
<defs>
<filter id="filter0_d_64_4845" x="0" y="0" width="375" height="389" filterUnits="userSpaceOnUse" color-interpolation-filters="sRGB">
<feFlood flood-opacity="0" result="BackgroundImageFix"/>
<feColorMatrix in="SourceAlpha" type="matrix" values="0 0 0 0 0 0 0 0 0 0 0 0 0 0 0 0 0 0 127 0" result="hardAlpha"/>
<feOffset dy="2"/>
<feGaussianBlur stdDeviation="5"/>
<feComposite in2="hardAlpha" operator="out"/>
<feColorMatrix type="matrix" values="0 0 0 0 0 0 0 0 0 0 0 0 0 0 0 0 0 0 0.1 0"/>
<feBlend mode="normal" in2="BackgroundImageFix" result="effect1_dropShadow_64_4845"/>
<feBlend mode="normal" in="SourceGraphic" in2="effect1_dropShadow_64_4845" result="shape"/>
</filter>
</defs>
</svg>
