<svg width="1247" height="627" viewBox="0 0 1247 627" fill="none" xmlns="http://www.w3.org/2000/svg">
<g filter="url(#filter0_d_64_4320)">
<rect x="43" y="25" width="1161" height="541" rx="14.5215" fill="white"/>
</g>
<rect x="43" y="99" width="1161" height="46" fill="#7696EA"/>
<path d="M74.2123 126.502C73.0649 126.502 72.2055 126.184 71.6341 125.547C71.0675 124.91 70.7841 124.004 70.7841 122.828V120.833C70.7841 119.663 71.0675 118.761 71.6341 118.129C72.2055 117.492 73.0649 117.173 74.2123 117.173C74.5635 117.173 74.8843 117.204 75.1747 117.265C75.465 117.326 75.725 117.405 75.9544 117.504C76.1839 117.602 76.3806 117.705 76.5445 117.813L76.6569 119.105C76.3806 118.918 76.0598 118.754 75.6945 118.613C75.3292 118.473 74.8984 118.403 74.4019 118.403C73.6807 118.403 73.1351 118.616 72.7652 119.042C72.3999 119.468 72.2172 120.072 72.2172 120.854V122.779C72.2172 123.557 72.4022 124.161 72.7722 124.592C73.1468 125.022 73.7041 125.238 74.4441 125.238C74.9312 125.238 75.362 125.17 75.7367 125.034C76.116 124.894 76.4462 124.723 76.7272 124.521L76.6148 125.849C76.4509 125.957 76.2495 126.062 76.0106 126.165C75.7765 126.264 75.5072 126.343 75.2028 126.404C74.9031 126.47 74.5729 126.502 74.2123 126.502ZM80.7882 126.502C79.7766 126.502 79.0086 126.233 78.4841 125.695C77.9595 125.156 77.6973 124.381 77.6973 123.369V122.393C77.6973 121.386 77.9595 120.616 78.4841 120.082C79.0086 119.543 79.7766 119.274 80.7882 119.274C81.7998 119.274 82.5655 119.543 83.0853 120.082C83.6099 120.616 83.8721 121.386 83.8721 122.393V123.369C83.8721 124.381 83.6099 125.156 83.0853 125.695C82.5655 126.233 81.7998 126.502 80.7882 126.502ZM80.7882 125.385C81.3455 125.385 81.7693 125.219 82.0597 124.887C82.3501 124.554 82.4953 124.076 82.4953 123.454V122.309C82.4953 121.69 82.3501 121.217 82.0597 120.89C81.7693 120.557 81.3455 120.391 80.7882 120.391C80.2309 120.391 79.8071 120.557 79.5167 120.89C79.2263 121.217 79.0812 121.69 79.0812 122.309V123.454C79.0812 124.076 79.2263 124.554 79.5167 124.887C79.8071 125.219 80.2309 125.385 80.7882 125.385ZM86.6665 122.175L86.3714 121.1H86.7086C86.8538 120.557 87.0973 120.131 87.4392 119.822C87.7811 119.508 88.2471 119.351 88.8372 119.351C88.9777 119.351 89.1018 119.363 89.2095 119.386C89.3219 119.405 89.4226 119.428 89.5116 119.456L89.5959 120.798C89.4835 120.761 89.357 120.733 89.2165 120.714C89.076 120.69 88.9238 120.679 88.7599 120.679C88.2588 120.679 87.8256 120.808 87.4603 121.065C87.095 121.323 86.8304 121.693 86.6665 122.175ZM85.3458 126.327V119.456H86.6876L86.6243 121.459L86.7227 121.557V126.327H85.3458ZM91.9626 122.175L91.6675 121.1H92.0047C92.1499 120.557 92.3934 120.131 92.7353 119.822C93.0772 119.508 93.5432 119.351 94.1333 119.351C94.2738 119.351 94.3979 119.363 94.5056 119.386C94.618 119.405 94.7187 119.428 94.8076 119.456L94.8919 120.798C94.7795 120.761 94.6531 120.733 94.5126 120.714C94.3721 120.69 94.2199 120.679 94.056 120.679C93.5549 120.679 93.1217 120.808 92.7564 121.065C92.3911 121.323 92.1265 121.693 91.9626 122.175ZM90.6419 126.327V119.456H91.9837L91.9204 121.459L92.0188 121.557V126.327H90.6419ZM98.787 126.488C97.6911 126.488 96.8692 126.228 96.3213 125.709C95.778 125.184 95.5064 124.43 95.5064 123.447V122.323C95.5064 121.353 95.7593 120.604 96.2651 120.075C96.7756 119.541 97.5179 119.274 98.492 119.274C99.1523 119.274 99.7026 119.396 100.143 119.639C100.583 119.878 100.913 120.217 101.133 120.658C101.353 121.098 101.463 121.62 101.463 122.224V122.484C101.463 122.643 101.456 122.805 101.442 122.969C101.428 123.133 101.41 123.29 101.386 123.44L100.122 123.44C100.131 123.196 100.136 122.967 100.136 122.751C100.14 122.536 100.143 122.339 100.143 122.161C100.143 121.782 100.082 121.461 99.9602 121.199C99.8384 120.936 99.6558 120.737 99.4122 120.602C99.1687 120.461 98.8619 120.391 98.492 120.391C97.944 120.391 97.5366 120.548 97.2696 120.861C97.0027 121.171 96.8692 121.613 96.8692 122.189V122.835L96.8763 122.997V123.608C96.8763 123.866 96.9137 124.1 96.9886 124.311C97.0683 124.521 97.1924 124.704 97.361 124.859C97.5342 125.008 97.7567 125.126 98.0283 125.21C98.3 125.289 98.6301 125.329 99.0188 125.329C99.4591 125.329 99.8712 125.273 100.255 125.161C100.644 125.048 101.009 124.898 101.351 124.711L101.225 125.884C100.916 126.067 100.555 126.214 100.143 126.327C99.7354 126.434 99.2834 126.488 98.787 126.488ZM96.237 123.44V122.407L101.105 122.407V123.44L96.237 123.44ZM105.614 126.488C104.593 126.488 103.834 126.219 103.337 125.68C102.846 125.137 102.6 124.372 102.6 123.383V122.393C102.6 121.4 102.848 120.634 103.345 120.096C103.841 119.557 104.597 119.288 105.614 119.288C105.895 119.288 106.152 119.314 106.386 119.365C106.625 119.417 106.841 119.485 107.033 119.569C107.225 119.648 107.388 119.733 107.524 119.822L107.644 121.002C107.419 120.843 107.159 120.709 106.864 120.602C106.569 120.489 106.225 120.433 105.831 120.433C105.204 120.433 104.738 120.604 104.433 120.946C104.134 121.283 103.984 121.775 103.984 122.421V123.348C103.984 123.98 104.134 124.468 104.433 124.809C104.738 125.151 105.204 125.322 105.831 125.322C106.229 125.322 106.581 125.268 106.885 125.161C107.189 125.048 107.463 124.912 107.707 124.753L107.588 125.947C107.372 126.083 107.096 126.207 106.759 126.32C106.426 126.432 106.044 126.488 105.614 126.488ZM111.626 126.467C111.078 126.467 110.637 126.385 110.305 126.221C109.972 126.053 109.731 125.802 109.581 125.47C109.431 125.133 109.356 124.713 109.356 124.212V120.011H110.719V124.051C110.719 124.472 110.815 124.781 111.007 124.978C111.199 125.175 111.522 125.273 111.977 125.273C112.248 125.273 112.508 125.245 112.757 125.189C113.005 125.133 113.234 125.053 113.445 124.95L113.326 126.116C113.101 126.228 112.841 126.315 112.546 126.376C112.251 126.437 111.944 126.467 111.626 126.467ZM108.282 120.637V119.541H113.382L113.262 120.637H108.282ZM109.371 119.66L109.364 117.77L110.74 117.609L110.684 119.66H109.371ZM114.646 126.327V119.456H116.023V126.327H114.646ZM115.335 118.445C115.063 118.445 114.859 118.377 114.724 118.241C114.592 118.101 114.527 117.909 114.527 117.665V117.637C114.527 117.393 114.592 117.204 114.724 117.068C114.859 116.928 115.063 116.857 115.335 116.857C115.606 116.857 115.808 116.928 115.939 117.068C116.075 117.204 116.143 117.393 116.143 117.637V117.665C116.143 117.913 116.075 118.105 115.939 118.241C115.808 118.377 115.606 118.445 115.335 118.445ZM120.493 125.399L122.242 119.456H123.668L121.533 126.327H119.292L117.156 119.456H118.582L120.331 125.399H120.493ZM127.6 126.488C126.504 126.488 125.682 126.228 125.134 125.709C124.591 125.184 124.319 124.43 124.319 123.447V122.323C124.319 121.353 124.572 120.604 125.078 120.075C125.588 119.541 126.331 119.274 127.305 119.274C127.965 119.274 128.516 119.396 128.956 119.639C129.396 119.878 129.726 120.217 129.946 120.658C130.166 121.098 130.276 121.62 130.276 122.224V122.484C130.276 122.643 130.269 122.805 130.255 122.969C130.241 123.133 130.223 123.29 130.199 123.44H128.935C128.944 123.196 128.949 122.967 128.949 122.751C128.953 122.536 128.956 122.339 128.956 122.161C128.956 121.782 128.895 121.461 128.773 121.199C128.651 120.936 128.469 120.737 128.225 120.602C127.982 120.461 127.675 120.391 127.305 120.391C126.757 120.391 126.35 120.548 126.083 120.861C125.816 121.171 125.682 121.613 125.682 122.189V122.835L125.689 122.997V123.608C125.689 123.866 125.727 124.1 125.802 124.311C125.881 124.521 126.005 124.704 126.174 124.859C126.347 125.008 126.57 125.126 126.841 125.21C127.113 125.289 127.443 125.329 127.832 125.329C128.272 125.329 128.684 125.273 129.068 125.161C129.457 125.048 129.822 124.898 130.164 124.711L130.038 125.884C129.728 126.067 129.368 126.214 128.956 126.327C128.548 126.434 128.096 126.488 127.6 126.488ZM125.05 123.44V122.407H129.918V123.44H125.05ZM133.573 126.327L136.327 117.349H138.512L141.266 126.327H139.84L137.507 118.29H137.332L134.999 126.327H133.573ZM135.372 123.819V122.653H139.453V123.819H135.372ZM145.019 126.488C143.998 126.488 143.239 126.219 142.743 125.68C142.251 125.137 142.005 124.372 142.005 123.383V122.393C142.005 121.4 142.253 120.634 142.75 120.096C143.246 119.557 144.002 119.288 145.019 119.288C145.3 119.288 145.557 119.314 145.791 119.365C146.03 119.417 146.246 119.485 146.438 119.569C146.63 119.648 146.794 119.733 146.929 119.822L147.049 121.002C146.824 120.843 146.564 120.709 146.269 120.602C145.974 120.489 145.63 120.433 145.236 120.433C144.609 120.433 144.143 120.604 143.838 120.946C143.539 121.283 143.389 121.775 143.389 122.421V123.348C143.389 123.98 143.539 124.468 143.838 124.809C144.143 125.151 144.609 125.322 145.236 125.322C145.635 125.322 145.986 125.268 146.29 125.161C146.595 125.048 146.869 124.912 147.112 124.753L146.993 125.947C146.777 126.083 146.501 126.207 146.164 126.32C145.831 126.432 145.45 126.488 145.019 126.488ZM151.031 126.467C150.483 126.467 150.042 126.385 149.71 126.221C149.377 126.053 149.136 125.802 148.986 125.47C148.837 125.133 148.762 124.713 148.762 124.212V120.011H150.124V124.051C150.124 124.472 150.22 124.781 150.412 124.978C150.604 125.175 150.928 125.273 151.382 125.273C151.653 125.273 151.913 125.245 152.162 125.189C152.41 125.133 152.639 125.053 152.85 124.95L152.731 126.116C152.506 126.228 152.246 126.315 151.951 126.376C151.656 126.437 151.349 126.467 151.031 126.467ZM147.687 120.637V119.541H152.787L152.667 120.637H147.687ZM148.776 119.66L148.769 117.77L150.145 117.609L150.089 119.66H148.776ZM154.051 126.327V119.456H155.428V126.327H154.051ZM154.74 118.445C154.468 118.445 154.265 118.377 154.129 118.241C153.998 118.101 153.932 117.909 153.932 117.665V117.637C153.932 117.393 153.998 117.204 154.129 117.068C154.265 116.928 154.468 116.857 154.74 116.857C155.011 116.857 155.213 116.928 155.344 117.068C155.48 117.204 155.548 117.393 155.548 117.637V117.665C155.548 117.913 155.48 118.105 155.344 118.241C155.213 118.377 155.011 118.445 154.74 118.445ZM160.01 126.502C158.998 126.502 158.23 126.233 157.706 125.695C157.181 125.156 156.919 124.381 156.919 123.369V122.393C156.919 121.386 157.181 120.616 157.706 120.082C158.23 119.543 158.998 119.274 160.01 119.274C161.022 119.274 161.787 119.543 162.307 120.082C162.832 120.616 163.094 121.386 163.094 122.393V123.369C163.094 124.381 162.832 125.156 162.307 125.695C161.787 126.233 161.022 126.502 160.01 126.502ZM160.01 125.385C160.567 125.385 160.991 125.219 161.282 124.887C161.572 124.554 161.717 124.076 161.717 123.454V122.309C161.717 121.69 161.572 121.217 161.282 120.89C160.991 120.557 160.567 120.391 160.01 120.391C159.453 120.391 159.029 120.557 158.739 120.89C158.448 121.217 158.303 121.69 158.303 122.309V123.454C158.303 124.076 158.448 124.554 158.739 124.887C159.029 125.219 159.453 125.385 160.01 125.385ZM169.12 126.327V122.084C169.12 121.751 169.073 121.463 168.979 121.22C168.89 120.976 168.74 120.787 168.53 120.651C168.324 120.515 168.04 120.447 167.68 120.447C167.347 120.447 167.059 120.508 166.816 120.63C166.572 120.751 166.373 120.915 166.218 121.121C166.069 121.327 165.961 121.562 165.895 121.824L165.671 120.868H165.966C166.045 120.578 166.176 120.316 166.359 120.082C166.542 119.843 166.785 119.653 167.09 119.513C167.394 119.372 167.771 119.302 168.221 119.302C168.759 119.302 169.195 119.405 169.527 119.611C169.86 119.812 170.103 120.107 170.258 120.496C170.417 120.885 170.497 121.363 170.497 121.929V126.327H169.12ZM164.568 126.327V119.456H165.945L165.888 121.065L165.945 121.149V126.327H164.568ZM174.375 126.488C173.822 126.488 173.338 126.432 172.921 126.32C172.504 126.203 172.155 126.076 171.874 125.94L171.748 124.683C172.094 124.856 172.476 125.008 172.893 125.14C173.309 125.266 173.778 125.329 174.298 125.329C174.799 125.329 175.169 125.257 175.408 125.111C175.651 124.962 175.773 124.742 175.773 124.451V124.395C175.773 124.208 175.724 124.053 175.625 123.931C175.527 123.805 175.351 123.692 175.098 123.594C174.85 123.496 174.497 123.395 174.038 123.292C173.462 123.161 173.007 123.006 172.675 122.828C172.342 122.65 172.104 122.433 171.958 122.175C171.818 121.913 171.748 121.599 171.748 121.234V121.171C171.748 120.552 171.963 120.084 172.394 119.766C172.825 119.447 173.471 119.288 174.333 119.288C174.876 119.288 175.349 119.346 175.752 119.463C176.155 119.581 176.487 119.714 176.749 119.864L176.876 121.009C176.562 120.84 176.204 120.7 175.801 120.587C175.403 120.47 174.96 120.412 174.473 120.412C174.141 120.412 173.874 120.445 173.672 120.51C173.471 120.571 173.326 120.66 173.237 120.777C173.148 120.89 173.103 121.025 173.103 121.185V121.234C173.103 121.407 173.15 121.559 173.244 121.69C173.338 121.817 173.504 121.932 173.743 122.035C173.986 122.133 174.323 122.229 174.754 122.323C175.335 122.444 175.799 122.587 176.145 122.751C176.492 122.915 176.742 123.126 176.897 123.383C177.051 123.636 177.129 123.964 177.129 124.367V124.472C177.129 125.142 176.899 125.645 176.44 125.983C175.981 126.32 175.293 126.488 174.375 126.488ZM181.984 126.327V125.168H184.675C185.246 125.168 185.651 125.051 185.89 124.816C186.129 124.582 186.248 124.254 186.248 123.833V123.615C186.248 123.184 186.126 122.854 185.883 122.625C185.639 122.391 185.218 122.273 184.618 122.273H181.977V121.164H184.604C185.143 121.164 185.525 121.051 185.749 120.826C185.979 120.597 186.094 120.278 186.094 119.871V119.759C186.094 119.36 185.984 119.051 185.764 118.831C185.543 118.611 185.155 118.501 184.597 118.501H181.956V117.349H184.731C185.719 117.349 186.429 117.539 186.859 117.918C187.29 118.293 187.506 118.831 187.506 119.534V119.66C187.506 120.199 187.382 120.618 187.133 120.918C186.885 121.213 186.501 121.395 185.981 121.466V121.536C186.576 121.653 187.007 121.88 187.274 122.217C187.546 122.554 187.681 123.03 187.681 123.643V123.91C187.681 124.678 187.457 125.273 187.007 125.695C186.557 126.116 185.829 126.327 184.822 126.327H181.984ZM181.008 126.327V117.349H182.399V126.327H181.008ZM191.965 126.502C190.953 126.502 190.185 126.233 189.661 125.695C189.136 125.156 188.874 124.381 188.874 123.369V122.393C188.874 121.386 189.136 120.616 189.661 120.082C190.185 119.543 190.953 119.274 191.965 119.274C192.977 119.274 193.742 119.543 194.262 120.082C194.787 120.616 195.049 121.386 195.049 122.393V123.369C195.049 124.381 194.787 125.156 194.262 125.695C193.742 126.233 192.977 126.502 191.965 126.502ZM191.965 125.385C192.522 125.385 192.946 125.219 193.236 124.887C193.527 124.554 193.672 124.076 193.672 123.454V122.309C193.672 121.69 193.527 121.217 193.236 120.89C192.946 120.557 192.522 120.391 191.965 120.391C191.408 120.391 190.984 120.557 190.693 120.89C190.403 121.217 190.258 121.69 190.258 122.309V123.454C190.258 124.076 190.403 124.554 190.693 124.887C190.984 125.219 191.408 125.385 191.965 125.385ZM200.548 126.327L200.604 124.697L200.555 124.486V122.323L200.562 121.978C200.562 121.449 200.426 121.06 200.155 120.812C199.888 120.564 199.457 120.44 198.862 120.44C198.38 120.44 197.933 120.508 197.52 120.644C197.108 120.779 196.736 120.936 196.403 121.114L196.53 119.962C196.717 119.855 196.937 119.749 197.19 119.646C197.443 119.543 197.729 119.459 198.047 119.393C198.366 119.328 198.715 119.295 199.094 119.295C199.614 119.295 200.054 119.358 200.415 119.485C200.775 119.606 201.066 119.784 201.286 120.018C201.506 120.253 201.665 120.534 201.763 120.861C201.866 121.189 201.918 121.555 201.918 121.957V126.327H200.548ZM198.223 126.481C197.544 126.481 197.024 126.315 196.663 125.983C196.303 125.645 196.122 125.168 196.122 124.549V124.339C196.122 123.683 196.324 123.198 196.727 122.885C197.134 122.566 197.773 122.346 198.644 122.224L200.71 121.929L200.787 122.927L198.806 123.208C198.333 123.273 197.996 123.388 197.794 123.552C197.593 123.711 197.492 123.948 197.492 124.261V124.36C197.492 124.674 197.588 124.915 197.78 125.083C197.977 125.252 198.274 125.336 198.672 125.336C199.038 125.336 199.352 125.275 199.614 125.154C199.876 125.032 200.089 124.87 200.253 124.669C200.417 124.463 200.529 124.236 200.59 123.988L200.78 124.908H200.527C200.452 125.189 200.328 125.449 200.155 125.688C199.981 125.926 199.738 126.118 199.424 126.264C199.115 126.409 198.715 126.481 198.223 126.481ZM204.868 122.175L204.573 121.1H204.91C205.055 120.557 205.299 120.131 205.641 119.822C205.983 119.508 206.449 119.351 207.039 119.351C207.179 119.351 207.303 119.363 207.411 119.386C207.524 119.405 207.624 119.428 207.713 119.456L207.797 120.798C207.685 120.761 207.559 120.733 207.418 120.714C207.278 120.69 207.125 120.679 206.962 120.679C206.46 120.679 206.027 120.808 205.662 121.065C205.297 121.323 205.032 121.693 204.868 122.175ZM203.547 126.327V119.456H204.889L204.826 121.459L204.924 121.557V126.327H203.547ZM210.961 126.481C210.142 126.481 209.517 126.224 209.086 125.709C208.659 125.193 208.446 124.442 208.446 123.454V122.365C208.446 121.367 208.662 120.609 209.093 120.089C209.528 119.564 210.17 119.302 211.018 119.302C211.425 119.302 211.774 119.367 212.064 119.499C212.359 119.625 212.598 119.805 212.781 120.04C212.968 120.274 213.102 120.55 213.181 120.868H213.638L213.251 122.14C213.237 121.765 213.155 121.452 213.006 121.199C212.856 120.941 212.65 120.747 212.387 120.616C212.125 120.484 211.818 120.419 211.467 120.419C210.938 120.419 210.533 120.571 210.252 120.875C209.971 121.18 209.83 121.632 209.83 122.231V123.545C209.83 124.13 209.968 124.575 210.245 124.88C210.526 125.184 210.933 125.336 211.467 125.336C211.79 125.336 212.074 125.275 212.317 125.154C212.565 125.032 212.771 124.866 212.935 124.655C213.099 124.444 213.212 124.208 213.272 123.945L213.596 124.915H213.195C213.12 125.2 212.994 125.463 212.816 125.702C212.643 125.94 212.406 126.13 212.106 126.271C211.807 126.411 211.425 126.481 210.961 126.481ZM213.216 126.327L213.272 124.718L213.251 124.283V121.43L213.258 121.164L213.223 119.218V117.026H214.593V126.327H213.216Z" fill="white"/>
<g clip-path="url(#clip0_64_4320)">
<path d="M118.684 67.3026V58.3031C118.684 56.5701 117.447 56.2356 116.832 56.2356C116.216 56.2356 114.979 56.5701 114.979 58.3031V67.3026H110.374V58.3031C110.374 56.5701 109.137 56.2356 108.521 56.2356C107.905 56.2356 106.669 56.5701 106.669 58.3031V67.3026H102.063V52.2632H106.557V53.4944C107.485 52.5745 108.857 52.0959 110.07 52.0959C111.559 52.0959 112.767 52.5698 113.747 53.6896C115.068 52.542 116.276 52.0959 118.017 52.0959C119.449 52.0959 120.826 52.5698 121.638 53.3829C122.93 54.6699 123.294 56.0916 123.294 57.6898V67.3072H118.689L118.684 67.3026Z" fill="#1A468F"/>
<path d="M81.6908 53.4665C80.8229 52.5698 79.5025 52.0959 78.042 52.0959C76.4695 52.0959 75.485 52.5698 74.5611 53.4944V52.2632H70.0957V58.0662L72.0181 59.46L70.0957 60.8538V72.1623H74.7011V66.2061C75.541 67.047 76.5815 67.4652 78.07 67.4652C79.5584 67.4652 80.8229 66.9913 81.6955 66.0946C83.1 64.6404 83.128 62.3777 83.128 59.7759C83.128 57.1741 83.1 54.9115 81.6955 53.4572L81.6908 53.4665ZM76.6095 63.3348C74.8971 63.3348 74.7011 61.9642 74.7011 59.7852C74.7011 57.6062 74.8971 56.2356 76.6095 56.2356C78.3219 56.2356 78.5179 57.6062 78.5179 59.7852C78.5179 61.9642 78.3219 63.3348 76.6095 63.3348Z" fill="#1A468F"/>
<path d="M96.6455 59.4646L98.5772 58.0615V52.2632H94.1118V53.4944C93.1832 52.5698 92.2034 52.0959 90.6262 52.0959C89.1658 52.0959 87.8499 52.5698 86.9774 53.4665C85.5729 54.9208 85.5449 57.1834 85.5449 59.7852C85.5449 62.387 85.5729 64.6496 86.9774 66.1039C87.8499 67.0006 89.1378 67.4745 90.6029 67.4745C92.0681 67.4745 93.1272 67.0563 93.9718 66.2154V72.1716H98.5772V60.8677L96.6455 59.4646ZM92.0587 63.3348C90.3463 63.3348 90.1503 61.9642 90.1503 59.7852C90.1503 57.6062 90.3463 56.2356 92.0587 56.2356C93.7712 56.2356 93.9671 57.6062 93.9671 59.7852C93.9671 61.9642 93.7712 63.3348 92.0587 63.3348Z" fill="#1A468F"/>
</g>
<rect x="147" y="52" width="918" height="20" rx="10" fill="#CEE1F2"/>
<rect x="1089" y="52.0959" width="20.071" height="20.071" rx="10.0355" fill="#CEE1F2"/>
<rect x="1123.07" y="52.0959" width="20.071" height="20.071" rx="10.0355" fill="#CEE1F2"/>
<rect x="1157.24" y="52.0959" width="20.071" height="20.071" rx="10.0355" fill="#CEE1F2"/>
<rect x="1176.92" y="123.761" width="55.6657" height="2.42025" rx="1.21012" transform="rotate(-180 1176.92 123.761)" fill="#CEE1F2"/>
<rect x="1104.67" y="123.761" width="55.6657" height="2.42025" rx="1.21012" transform="rotate(-180 1104.67 123.761)" fill="#CEE1F2"/>
<path d="M70 177.84C70 175.167 72.1672 173 74.8405 173H402.962C405.636 173 407.803 175.167 407.803 177.84V192.16C407.803 194.833 405.636 197 402.962 197H74.8405C72.1672 197 70 194.833 70 192.16V177.84Z" fill="#CEE1F2"/>
<rect x="422.353" y="173.5" width="23" height="23" rx="11.5" fill="#CEE1F2"/>
<rect x="422.353" y="173.5" width="23" height="23" rx="11.5" stroke="white"/>
<rect x="442.155" y="173.303" width="23.3949" height="23.3949" rx="11.6975" fill="#CEE1F2"/>
<rect x="442.155" y="173.303" width="23.3949" height="23.3949" rx="11.6975" stroke="white" stroke-width="0.605062"/>
<rect x="462.155" y="173.303" width="23.3949" height="23.3949" rx="11.6975" fill="#CEE1F2"/>
<rect x="462.155" y="173.303" width="23.3949" height="23.3949" rx="11.6975" stroke="white" stroke-width="0.605062"/>
<rect x="482.155" y="173.303" width="23.3949" height="23.3949" rx="11.6975" fill="#CEE1F2"/>
<rect x="482.155" y="173.303" width="23.3949" height="23.3949" rx="11.6975" stroke="white" stroke-width="0.605062"/>
<rect x="1106.9" y="173" width="71" height="24" rx="12" fill="#5682F7"/>
<path d="M70.0957 225.84C70.0957 223.167 72.2629 221 74.9362 221H306.16C308.833 221 311 223.167 311 225.84V473.631C311 476.305 308.833 478.472 306.16 478.472H74.9362C72.2629 478.472 70.0957 476.305 70.0957 473.631V225.84Z" fill="#F5F6F6"/>
<path d="M86.7828 243.05V235.565H87.9931V243.05H86.7828ZM84.5188 236.366V235.355H90.2511V236.366H84.5188ZM93.9629 243.206C92.9593 243.206 92.1966 242.933 91.6748 242.387C91.157 241.841 90.898 241.061 90.898 240.045V238.353C90.898 237.342 91.157 236.563 91.6748 236.017C92.1966 235.471 92.9593 235.198 93.9629 235.198C94.9664 235.198 95.7271 235.471 96.245 236.017C96.7668 236.563 97.0277 237.342 97.0277 238.353V240.045C97.0277 241.061 96.7668 241.841 96.245 242.387C95.7271 242.933 94.9664 243.206 93.9629 243.206ZM93.9629 242.201C94.573 242.201 95.0307 242.018 95.3357 241.653C95.6448 241.283 95.7994 240.764 95.7994 240.093V238.305C95.7994 237.631 95.6448 237.113 95.3357 236.751C95.0307 236.386 94.573 236.204 93.9629 236.204C93.3527 236.204 92.8931 236.386 92.584 236.751C92.2789 237.113 92.1264 237.631 92.1264 238.305V240.093C92.1264 240.764 92.2789 241.283 92.584 241.653C92.8931 242.018 93.3527 242.201 93.9629 242.201ZM101.408 243.05V242.032H103.232C103.867 242.032 104.342 241.86 104.659 241.514C104.981 241.169 105.141 240.675 105.141 240.033V238.359C105.141 237.713 104.981 237.219 104.659 236.878C104.342 236.533 103.867 236.36 103.232 236.36H101.402V235.355H103.275C104.294 235.355 105.063 235.613 105.581 236.131C106.099 236.645 106.357 237.386 106.357 238.353V240.039C106.357 241.007 106.099 241.751 105.581 242.273C105.063 242.791 104.294 243.05 103.275 243.05H101.408ZM100.583 243.05V235.355H101.775V243.05H100.583ZM110.58 243.206C109.577 243.206 108.814 242.933 108.292 242.387C107.774 241.841 107.515 241.061 107.515 240.045V238.353C107.515 237.342 107.774 236.563 108.292 236.017C108.814 235.471 109.577 235.198 110.58 235.198C111.584 235.198 112.345 235.471 112.862 236.017C113.384 236.563 113.645 237.342 113.645 238.353V240.045C113.645 241.061 113.384 241.841 112.862 242.387C112.345 242.933 111.584 243.206 110.58 243.206ZM110.58 242.201C111.19 242.201 111.648 242.018 111.953 241.653C112.262 241.283 112.417 240.764 112.417 240.093V238.305C112.417 237.631 112.262 237.113 111.953 236.751C111.648 236.386 111.19 236.204 110.58 236.204C109.97 236.204 109.511 236.386 109.201 236.751C108.896 237.113 108.744 237.631 108.744 238.305V240.093C108.744 240.764 108.896 241.283 109.201 241.653C109.511 242.018 109.97 242.201 110.58 242.201ZM118.429 243.05V236.601H118.345L116.616 237.57L116.646 236.402L118.477 235.355H119.633V243.05H118.429Z" fill="#171A1F"/>
<path d="M84.1455 261.94C84.1455 259.267 86.3127 257.1 88.986 257.1H292.11C294.783 257.1 296.95 259.267 296.95 261.94V297.3C296.95 299.974 294.783 302.141 292.11 302.141H88.986C86.3127 302.141 84.1455 299.974 84.1455 297.3V261.94Z" fill="#CEE1F2"/>
<rect x="98.1953" y="271.149" width="184.705" height="2.42025" rx="1.21012" fill="white"/>
<rect x="98.1953" y="278.41" width="184.705" height="2.42025" rx="1.21012" fill="white"/>
<rect x="98.1953" y="285.671" width="184.705" height="2.42025" rx="1.21012" fill="white"/>
<path d="M85.7953 321.722V320.722H87.9209C88.4026 320.722 88.7518 320.604 88.9686 320.367C89.1894 320.126 89.2998 319.793 89.2998 319.367V318.844C89.2998 318.406 89.1914 318.071 88.9746 317.838C88.7578 317.605 88.4106 317.489 87.9329 317.489H85.7893V316.495H87.957C88.8401 316.495 89.4844 316.7 89.8898 317.109C90.2993 317.515 90.504 318.083 90.504 318.813V319.398C90.504 320.128 90.2993 320.698 89.8898 321.108C89.4804 321.517 88.8341 321.722 87.951 321.722H85.7953ZM85.0005 324.19V316.495H86.1867V321.017L86.1928 321.559V324.19H85.0005ZM93.4863 324.19V316.706H94.6965V324.19H93.4863ZM91.2222 317.507V316.495H96.9545V317.507H91.2222ZM97.4508 321.529V320.566H100.883V321.529H97.4508ZM103.68 324.19L101.392 316.495H102.657L104.553 323.281H104.692L106.589 316.495H107.853L105.571 324.19H103.68ZM110.244 324.19V317.742H110.159L108.431 318.711L108.461 317.543L110.292 316.495H111.448V324.19H110.244ZM115.75 324.347C114.807 324.347 114.094 324.086 113.613 323.564C113.131 323.038 112.89 322.28 112.89 321.288V319.398C112.89 318.406 113.129 317.649 113.607 317.127C114.088 316.602 114.803 316.339 115.75 316.339C116.698 316.339 117.412 316.602 117.894 317.127C118.376 317.649 118.616 318.406 118.616 319.398V321.288C118.616 322.28 118.376 323.038 117.894 323.564C117.412 324.086 116.698 324.347 115.75 324.347ZM115.75 323.341C116.308 323.341 116.72 323.171 116.985 322.83C117.254 322.484 117.388 321.989 117.388 321.342V319.349C117.388 318.699 117.254 318.203 116.985 317.862C116.72 317.517 116.308 317.344 115.75 317.344C115.192 317.344 114.781 317.517 114.516 317.862C114.251 318.203 114.119 318.699 114.119 319.349V321.342C114.119 321.989 114.251 322.484 114.516 322.83C114.785 323.171 115.196 323.341 115.75 323.341ZM120.261 324.317C120.02 324.317 119.841 324.253 119.725 324.124C119.612 323.992 119.556 323.809 119.556 323.576V323.516C119.556 323.283 119.612 323.103 119.725 322.974C119.841 322.846 120.02 322.782 120.261 322.782C120.497 322.782 120.674 322.846 120.79 322.974C120.907 323.103 120.965 323.283 120.965 323.516V323.576C120.965 323.809 120.907 323.992 120.79 324.124C120.674 324.253 120.497 324.317 120.261 324.317ZM124.705 324.347C124.106 324.347 123.595 324.231 123.169 323.998C122.748 323.761 122.425 323.412 122.2 322.95C121.979 322.484 121.869 321.906 121.869 321.216V319.566C121.869 318.547 122.121 317.758 122.627 317.2C123.137 316.638 123.884 316.357 124.867 316.357C125.341 316.357 125.746 316.405 126.083 316.501C126.421 316.598 126.706 316.704 126.939 316.82L127.059 317.904C126.886 317.808 126.704 317.722 126.511 317.645C126.318 317.569 126.104 317.509 125.867 317.465C125.634 317.421 125.367 317.398 125.066 317.398C124.4 317.398 123.9 317.583 123.567 317.952C123.233 318.322 123.067 318.872 123.067 319.602V321.354C123.067 321.796 123.131 322.165 123.259 322.462C123.392 322.755 123.581 322.976 123.825 323.125C124.074 323.269 124.375 323.341 124.729 323.341C125.226 323.341 125.594 323.209 125.831 322.944C126.071 322.679 126.192 322.34 126.192 321.926V321.613C126.192 321.324 126.148 321.075 126.059 320.867C125.971 320.654 125.827 320.491 125.626 320.379C125.429 320.263 125.164 320.204 124.831 320.204C124.534 320.204 124.263 320.261 124.018 320.373C123.777 320.481 123.571 320.64 123.398 320.849C123.225 321.053 123.097 321.298 123.013 321.583L122.928 320.548H123.127C123.211 320.299 123.34 320.076 123.512 319.879C123.685 319.683 123.91 319.528 124.187 319.416C124.464 319.299 124.797 319.241 125.186 319.241C125.917 319.241 126.465 319.448 126.83 319.861C127.199 320.271 127.384 320.849 127.384 321.595V321.945C127.384 322.671 127.157 323.253 126.704 323.691C126.254 324.128 125.588 324.347 124.705 324.347ZM131.254 324.353C130.744 324.353 130.309 324.301 129.948 324.197C129.586 324.096 129.291 323.952 129.063 323.763C128.834 323.57 128.665 323.343 128.557 323.083C128.452 322.822 128.4 322.533 128.4 322.215V322.059C128.4 321.706 128.458 321.403 128.575 321.15C128.691 320.897 128.858 320.69 129.075 320.53C129.295 320.369 129.556 320.253 129.857 320.18V320.12C129.556 320.064 129.303 319.964 129.099 319.819C128.894 319.675 128.739 319.49 128.635 319.265C128.531 319.036 128.478 318.773 128.478 318.476V318.326C128.478 317.716 128.701 317.232 129.147 316.875C129.596 316.517 130.299 316.339 131.254 316.339C132.222 316.339 132.928 316.517 133.374 316.875C133.823 317.232 134.048 317.716 134.048 318.326V318.476C134.048 318.773 133.996 319.036 133.892 319.265C133.787 319.49 133.633 319.675 133.428 319.819C133.223 319.964 132.97 320.064 132.669 320.12V320.18C132.974 320.257 133.235 320.375 133.452 320.536C133.669 320.696 133.835 320.903 133.952 321.156C134.068 321.405 134.126 321.706 134.126 322.059V322.215C134.126 322.525 134.074 322.81 133.97 323.071C133.87 323.331 133.705 323.558 133.476 323.751C133.251 323.94 132.956 324.086 132.591 324.19C132.226 324.299 131.78 324.353 131.254 324.353ZM131.272 323.348C131.846 323.348 132.262 323.231 132.519 322.998C132.776 322.761 132.904 322.46 132.904 322.095V321.957C132.904 321.595 132.762 321.302 132.477 321.077C132.196 320.849 131.78 320.704 131.23 320.644C130.704 320.708 130.305 320.855 130.032 321.083C129.759 321.308 129.623 321.599 129.623 321.957V322.095C129.623 322.46 129.753 322.761 130.014 322.998C130.279 323.231 130.698 323.348 131.272 323.348ZM131.29 319.795C131.732 319.767 132.101 319.65 132.398 319.446C132.699 319.241 132.85 318.942 132.85 318.549V318.458C132.85 318.117 132.723 317.844 132.471 317.639C132.218 317.431 131.812 317.326 131.254 317.326C130.708 317.326 130.309 317.431 130.056 317.639C129.803 317.844 129.677 318.117 129.677 318.458V318.549C129.677 318.809 129.745 319.03 129.881 319.211C130.022 319.387 130.213 319.524 130.453 319.62C130.694 319.717 130.973 319.775 131.29 319.795ZM138.028 324.353C137.518 324.353 137.083 324.301 136.722 324.197C136.36 324.096 136.065 323.952 135.837 323.763C135.608 323.57 135.439 323.343 135.331 323.083C135.226 322.822 135.174 322.533 135.174 322.215V322.059C135.174 321.706 135.232 321.403 135.349 321.15C135.465 320.897 135.632 320.69 135.849 320.53C136.069 320.369 136.33 320.253 136.631 320.18V320.12C136.33 320.064 136.077 319.964 135.873 319.819C135.668 319.675 135.513 319.49 135.409 319.265C135.305 319.036 135.252 318.773 135.252 318.476V318.326C135.252 317.716 135.475 317.232 135.921 316.875C136.37 316.517 137.073 316.339 138.028 316.339C138.996 316.339 139.702 316.517 140.148 316.875C140.597 317.232 140.822 317.716 140.822 318.326V318.476C140.822 318.773 140.77 319.036 140.666 319.265C140.561 319.49 140.407 319.675 140.202 319.819C139.997 319.964 139.744 320.064 139.443 320.12V320.18C139.748 320.257 140.009 320.375 140.226 320.536C140.443 320.696 140.609 320.903 140.726 321.156C140.842 321.405 140.9 321.706 140.9 322.059V322.215C140.9 322.525 140.848 322.81 140.744 323.071C140.644 323.331 140.479 323.558 140.25 323.751C140.025 323.94 139.73 324.086 139.365 324.19C139 324.299 138.554 324.353 138.028 324.353ZM138.046 323.348C138.62 323.348 139.036 323.231 139.293 322.998C139.55 322.761 139.678 322.46 139.678 322.095V321.957C139.678 321.595 139.536 321.302 139.251 321.077C138.97 320.849 138.554 320.704 138.004 320.644C137.478 320.708 137.079 320.855 136.806 321.083C136.533 321.308 136.397 321.599 136.397 321.957V322.095C136.397 322.46 136.527 322.761 136.788 322.998C137.053 323.231 137.472 323.348 138.046 323.348ZM138.064 319.795C138.506 319.767 138.875 319.65 139.172 319.446C139.473 319.241 139.624 318.942 139.624 318.549V318.458C139.624 318.117 139.497 317.844 139.245 317.639C138.992 317.431 138.586 317.326 138.028 317.326C137.482 317.326 137.083 317.431 136.83 317.639C136.577 317.844 136.451 318.117 136.451 318.458V318.549C136.451 318.809 136.519 319.03 136.655 319.211C136.796 319.387 136.987 319.524 137.227 319.62C137.468 319.717 137.747 319.775 138.064 319.795Z" fill="#171A1F"/>
<path d="M84.1455 343.081C84.1455 340.407 86.3127 338.24 88.986 338.24H292.11C294.783 338.24 296.95 340.407 296.95 343.081V378.441C296.95 381.114 294.783 383.281 292.11 383.281H88.986C86.3127 383.281 84.1455 381.114 84.1455 378.441V343.081Z" fill="#CEE1F2"/>
<rect x="98.1953" y="352.29" width="184.705" height="2.42025" rx="1.21012" fill="white"/>
<rect x="98.1953" y="359.551" width="184.705" height="2.42025" rx="1.21012" fill="white"/>
<rect x="98.1953" y="366.812" width="184.705" height="2.42025" rx="1.21012" fill="white"/>
<path d="M89.9561 404.314V405.331H84.6272V404.38L88.511 398.641H84.6633V397.636H89.9079V398.575L86.0242 404.314H89.9561ZM93.0746 405.331V397.847H94.2849V405.331H93.0746ZM90.8106 398.648V397.636H96.5429V398.648H90.8106ZM97.0392 402.67V401.706H100.471V402.67H97.0392ZM103.269 405.331L100.981 397.636H102.245L104.142 404.422H104.28L106.177 397.636H107.441L105.159 405.331H103.269ZM110.921 405.488C110.323 405.488 109.812 405.371 109.386 405.138C108.965 404.902 108.641 404.552 108.417 404.091C108.196 403.625 108.085 403.047 108.085 402.357V400.707C108.085 399.687 108.338 398.898 108.844 398.34C109.354 397.778 110.101 397.497 111.084 397.497C111.558 397.497 111.963 397.546 112.3 397.642C112.638 397.738 112.923 397.845 113.155 397.961L113.276 399.045C113.103 398.949 112.921 398.862 112.728 398.786C112.535 398.71 112.32 398.65 112.084 398.605C111.851 398.561 111.584 398.539 111.283 398.539C110.616 398.539 110.117 398.724 109.783 399.093C109.45 399.462 109.284 400.012 109.284 400.743V402.495C109.284 402.937 109.348 403.306 109.476 403.603C109.609 403.896 109.797 404.117 110.042 404.265C110.291 404.41 110.592 404.482 110.946 404.482C111.443 404.482 111.811 404.35 112.047 404.085C112.288 403.82 112.409 403.481 112.409 403.067V402.754C112.409 402.465 112.365 402.216 112.276 402.007C112.188 401.795 112.043 401.632 111.843 401.52C111.646 401.403 111.381 401.345 111.048 401.345C110.751 401.345 110.48 401.401 110.235 401.514C109.994 401.622 109.787 401.781 109.615 401.989C109.442 402.194 109.314 402.439 109.229 402.724L109.145 401.688H109.344C109.428 401.439 109.557 401.217 109.729 401.02C109.902 400.823 110.127 400.669 110.404 400.556C110.681 400.44 111.014 400.382 111.403 400.382C112.134 400.382 112.682 400.588 113.047 401.002C113.416 401.411 113.601 401.989 113.601 402.736V403.085C113.601 403.812 113.374 404.394 112.921 404.831C112.471 405.269 111.805 405.488 110.921 405.488ZM115.345 405.458C115.104 405.458 114.925 405.393 114.809 405.265C114.696 405.132 114.64 404.95 114.64 404.717V404.657C114.64 404.424 114.696 404.243 114.809 404.115C114.925 403.986 115.104 403.922 115.345 403.922C115.582 403.922 115.758 403.986 115.875 404.115C115.991 404.243 116.049 404.424 116.049 404.657V404.717C116.049 404.95 115.991 405.132 115.875 405.265C115.758 405.393 115.582 405.458 115.345 405.458ZM119.485 405.47C118.98 405.47 118.54 405.417 118.167 405.313C117.797 405.205 117.508 405.096 117.3 404.988L117.179 403.838C117.356 403.934 117.557 404.027 117.781 404.115C118.01 404.199 118.257 404.269 118.522 404.326C118.791 404.378 119.076 404.404 119.377 404.404C119.791 404.404 120.124 404.35 120.377 404.241C120.629 404.129 120.812 403.968 120.925 403.76C121.041 403.547 121.099 403.292 121.099 402.995V402.664C121.099 402.25 120.997 401.929 120.792 401.7C120.587 401.472 120.264 401.357 119.823 401.357C119.461 401.357 119.154 401.435 118.901 401.592C118.653 401.744 118.444 401.951 118.275 402.212L117.215 402.031V397.636H122.069V398.66H118.384V400.34L118.365 401.351H118.414C118.566 401.066 118.789 400.831 119.082 400.647C119.379 400.458 119.766 400.364 120.244 400.364C120.939 400.364 121.454 400.564 121.792 400.966C122.133 401.367 122.303 401.921 122.303 402.628V403.007C122.303 403.509 122.205 403.944 122.008 404.314C121.812 404.683 121.505 404.968 121.087 405.169C120.674 405.369 120.14 405.47 119.485 405.47ZM126.252 405.488C125.309 405.488 124.597 405.227 124.115 404.705C123.633 404.179 123.392 403.42 123.392 402.429V400.538C123.392 399.547 123.631 398.79 124.109 398.268C124.59 397.742 125.305 397.479 126.252 397.479C127.2 397.479 127.914 397.742 128.396 398.268C128.878 398.79 129.119 399.547 129.119 400.538V402.429C129.119 403.42 128.878 404.179 128.396 404.705C127.914 405.227 127.2 405.488 126.252 405.488ZM126.252 404.482C126.81 404.482 127.222 404.312 127.487 403.97C127.756 403.625 127.89 403.129 127.89 402.483V400.49C127.89 399.84 127.756 399.344 127.487 399.003C127.222 398.658 126.81 398.485 126.252 398.485C125.694 398.485 125.283 398.658 125.018 399.003C124.753 399.344 124.621 399.84 124.621 400.49V402.483C124.621 403.129 124.753 403.625 125.018 403.97C125.287 404.312 125.698 404.482 126.252 404.482ZM133.823 405.331V400.225L133.865 398.473H133.709L131.252 402.796V403.326L130.788 402.887H135.955V403.898H130.054V402.718L132.986 397.636H134.973V405.331H133.823Z" fill="#171A1F"/>
<path d="M84.1455 424.221C84.1455 421.548 86.3127 419.381 88.986 419.381H292.11C294.783 419.381 296.95 421.548 296.95 424.221V459.582C296.95 462.255 294.783 464.422 292.11 464.422H88.986C86.3127 464.422 84.1455 462.255 84.1455 459.582V424.221Z" fill="#CEE1F2"/>
<rect x="98.1953" y="433.431" width="184.705" height="2.42025" rx="1.21012" fill="white"/>
<rect x="98.1953" y="440.691" width="184.705" height="2.42025" rx="1.21012" fill="white"/>
<rect x="98.1953" y="447.952" width="184.705" height="2.42025" rx="1.21012" fill="white"/>
<path d="M70 225.84C70 223.167 72.1672 221 74.8405 221H323.91C326.583 221 328.75 223.167 328.75 225.84V533.248C328.75 535.921 326.583 538.089 323.91 538.089H74.8405C72.1672 538.089 70 535.921 70 533.248V225.84Z" fill="#F5F6F6"/>
<path d="M86.8848 244.05V235.524H89.0758V244.05H86.8848ZM84.4138 236.931V235.104H91.5398V236.931H84.4138ZM96.0143 244.267C94.7123 244.267 93.7347 243.94 93.0813 243.287C92.4327 242.633 92.1083 241.693 92.1083 240.466V238.765C92.1083 237.533 92.435 236.583 93.0883 235.916C93.7463 235.244 94.7217 234.908 96.0143 234.908C97.307 234.908 98.28 235.244 98.9333 235.916C99.5913 236.583 99.9203 237.533 99.9203 238.765V240.466C99.9203 241.693 99.5937 242.633 98.9403 243.287C98.287 243.94 97.3117 244.267 96.0143 244.267ZM96.0143 242.461C96.579 242.461 96.999 242.295 97.2743 241.964C97.5497 241.632 97.6873 241.168 97.6873 240.571V238.653C97.6873 238.027 97.5497 237.547 97.2743 237.211C96.999 236.875 96.579 236.707 96.0143 236.707C95.4497 236.707 95.0297 236.875 94.7543 237.211C94.479 237.547 94.3413 238.027 94.3413 238.653V240.571C94.3413 241.168 94.479 241.632 94.7543 241.964C95.0297 242.295 95.4497 242.461 96.0143 242.461ZM105.098 244.05V242.216H107.051C107.611 242.216 108.031 242.064 108.311 241.761C108.591 241.457 108.731 241.023 108.731 240.459V238.667C108.731 238.102 108.591 237.67 108.311 237.372C108.031 237.068 107.611 236.917 107.051 236.917H105.091V235.104H107.128C108.402 235.104 109.354 235.412 109.984 236.028C110.619 236.639 110.936 237.519 110.936 238.667V240.466C110.936 241.618 110.621 242.505 109.991 243.126C109.361 243.742 108.407 244.05 107.128 244.05H105.098ZM103.565 244.05V235.104H105.721V244.05H103.565ZM115.907 244.267C114.605 244.267 113.627 243.94 112.974 243.287C112.325 242.633 112.001 241.693 112.001 240.466V238.765C112.001 237.533 112.328 236.583 112.981 235.916C113.639 235.244 114.614 234.908 115.907 234.908C117.2 234.908 118.173 235.244 118.826 235.916C119.484 236.583 119.813 237.533 119.813 238.765V240.466C119.813 241.693 119.486 242.633 118.833 243.287C118.18 243.94 117.204 244.267 115.907 244.267ZM115.907 242.461C116.472 242.461 116.892 242.295 117.167 241.964C117.442 241.632 117.58 241.168 117.58 240.571V238.653C117.58 238.027 117.442 237.547 117.167 237.211C116.892 236.875 116.472 236.707 115.907 236.707C115.342 236.707 114.922 236.875 114.647 237.211C114.372 237.547 114.234 238.027 114.234 238.653V240.571C114.234 241.168 114.372 241.632 114.647 241.964C114.922 242.295 115.342 242.461 115.907 242.461ZM124.816 244.05V237.309H124.725L122.891 238.149L122.947 236.091L125.075 235.104H126.993V244.05H124.816ZM128.171 244.05V242.076L130.362 240.172C130.731 239.85 131.034 239.567 131.272 239.325C131.515 239.082 131.697 238.851 131.818 238.632C131.939 238.412 132 238.181 132 237.939V237.876C132 237.656 131.953 237.467 131.86 237.309C131.767 237.145 131.61 237.019 131.391 236.931C131.176 236.842 130.889 236.798 130.53 236.798C130.087 236.798 129.669 236.863 129.277 236.994C128.885 237.12 128.537 237.26 128.234 237.414L128.423 235.524C128.624 235.416 128.855 235.318 129.116 235.23C129.382 235.136 129.678 235.062 130.005 235.006C130.336 234.95 130.696 234.922 131.083 234.922C132.128 234.922 132.915 235.155 133.442 235.622C133.969 236.088 134.233 236.742 134.233 237.582V237.68C134.233 238.118 134.165 238.513 134.03 238.863C133.895 239.213 133.685 239.553 133.4 239.885C133.12 240.211 132.758 240.568 132.315 240.956L130.992 242.132V242.531L130.054 242.209H134.324V244.05H128.171Z" fill="#171A1F"/>
<path d="M84.0498 261.94C84.0498 259.267 86.217 257.1 88.8903 257.1H309.86C312.533 257.1 314.7 259.267 314.7 261.94V331.872C314.7 334.546 312.533 336.713 309.86 336.713H88.8903C86.217 336.713 84.0498 334.546 84.0498 331.872V261.94Z" fill="#CEE1F2"/>
<rect x="98.0996" y="271.149" width="202.551" height="2.42025" rx="1.21012" fill="white"/>
<rect x="98.0996" y="278.41" width="202.551" height="2.42025" rx="1.21012" fill="white"/>
<rect x="98.0996" y="285.671" width="202.551" height="2.42025" rx="1.21012" fill="white"/>
<rect x="98.0996" y="302.091" width="20.5721" height="20.5721" rx="3.04772" fill="#2CB30A"/>
<rect x="127.143" y="303.906" width="115.426" height="2.42025" rx="1.21012" fill="white"/>
<rect x="127.143" y="311.167" width="115.426" height="2.42025" rx="1.21012" fill="white"/>
<rect x="127.143" y="318.428" width="115.426" height="2.42025" rx="1.21012" fill="white"/>
<rect x="251.04" y="302.092" width="20.57" height="20.57" rx="10.285" fill="#7696EA"/>
<rect x="280.081" y="302.092" width="20.57" height="20.57" rx="10.285" fill="#7696EA"/>
<path d="M84.0498 355.603C84.0498 352.93 86.217 350.763 88.8903 350.763H309.86C312.533 350.763 314.7 352.93 314.7 355.603V425.535C314.7 428.209 312.533 430.376 309.86 430.376H88.8903C86.217 430.376 84.0498 428.209 84.0498 425.535V355.603Z" fill="#CEE1F2"/>
<rect x="98.0996" y="364.812" width="202.551" height="2.42025" rx="1.21012" fill="white"/>
<rect x="98.0996" y="372.073" width="202.551" height="2.42025" rx="1.21012" fill="white"/>
<rect x="98.0996" y="379.334" width="202.551" height="2.42025" rx="1.21012" fill="white"/>
<rect x="98.0996" y="395.754" width="20.5721" height="20.5721" rx="3.04772" fill="#7696EA"/>
<rect x="127.143" y="397.569" width="115.426" height="2.42025" rx="1.21012" fill="white"/>
<rect x="127.143" y="404.83" width="115.426" height="2.42025" rx="1.21012" fill="white"/>
<rect x="127.143" y="412.091" width="115.426" height="2.42025" rx="1.21012" fill="white"/>
<rect x="251.04" y="395.755" width="20.57" height="20.57" rx="10.285" fill="#7696EA"/>
<rect x="280.081" y="395.755" width="20.57" height="20.57" rx="10.285" fill="#7696EA"/>
<path d="M84.0498 449.266C84.0498 446.593 86.217 444.426 88.8903 444.426H309.86C312.533 444.426 314.7 446.593 314.7 449.266V519.198C314.7 521.872 312.533 524.039 309.86 524.039H88.8903C86.217 524.039 84.0498 521.872 84.0498 519.198V449.266Z" fill="#CEE1F2"/>
<rect x="98.0996" y="458.475" width="202.551" height="2.42025" rx="1.21012" fill="white"/>
<rect x="98.0996" y="465.736" width="202.551" height="2.42025" rx="1.21012" fill="white"/>
<rect x="98.0996" y="472.997" width="202.551" height="2.42025" rx="1.21012" fill="white"/>
<rect x="98.0996" y="489.417" width="20.5721" height="20.5721" rx="3.04772" fill="#1A468F"/>
<rect x="127.143" y="491.232" width="115.426" height="2.42025" rx="1.21012" fill="white"/>
<rect x="127.143" y="498.493" width="115.426" height="2.42025" rx="1.21012" fill="white"/>
<rect x="127.143" y="505.754" width="115.426" height="2.42025" rx="1.21012" fill="white"/>
<rect x="251.04" y="489.418" width="20.57" height="20.57" rx="10.285" fill="#7696EA"/>
<rect x="280.081" y="489.418" width="20.57" height="20.57" rx="10.285" fill="#7696EA"/>
<path d="M352.75 225.84C352.75 223.167 354.917 221 357.59 221H606.66C609.333 221 611.5 223.167 611.5 225.84V532.911C611.5 535.584 609.333 537.752 606.66 537.752H357.59C354.917 537.752 352.75 535.584 352.75 532.911V225.84Z" fill="#F5F6F6"/>
<path d="M369.81 244.05H367.612V235.104H369.81V244.05ZM374.457 235.097L376.879 241.663H376.977L376.879 237.883V235.097H378.965V244.05H376.032L373.519 237.337H373.428L373.526 241.201V244.05H371.44V235.097H374.457ZM384.353 241.509V239.738H386.474C386.932 239.738 387.261 239.637 387.461 239.437C387.667 239.231 387.769 238.926 387.769 238.52V238.086C387.769 237.675 387.669 237.369 387.468 237.169C387.268 236.968 386.939 236.868 386.481 236.868H384.346V235.104H386.642C387.781 235.104 388.614 235.356 389.141 235.86C389.673 236.364 389.939 237.085 389.939 238.023V238.59C389.939 239.532 389.673 240.256 389.141 240.76C388.614 241.259 387.783 241.509 386.649 241.509H384.353ZM382.883 244.05V235.104H385.025V240.235L385.039 241.229V244.05H382.883ZM396.181 244.05L396.006 242.363C395.978 242.064 395.919 241.821 395.831 241.635C395.742 241.443 395.607 241.303 395.425 241.215C395.243 241.121 395 241.075 394.697 241.075L392.674 241.068V239.395L394.781 239.388C395.238 239.388 395.567 239.287 395.768 239.087C395.968 238.886 396.069 238.585 396.069 238.184V238.044C396.069 237.647 395.968 237.351 395.768 237.155C395.572 236.954 395.24 236.854 394.774 236.854H392.66V235.104H395.089C396.185 235.104 396.986 235.316 397.49 235.741C397.998 236.165 398.253 236.777 398.253 237.575V237.757C398.253 238.359 398.099 238.828 397.791 239.164C397.483 239.5 397.014 239.691 396.384 239.738V240.046L395.936 239.745C396.477 239.782 396.897 239.894 397.196 240.081C397.494 240.267 397.714 240.529 397.854 240.865C397.998 241.196 398.103 241.609 398.169 242.104L398.428 244.05H396.181ZM391.155 244.05V235.104H393.283V239.997L393.297 240.809V244.05H391.155ZM403.182 244.267C401.88 244.267 400.903 243.94 400.249 243.287C399.601 242.633 399.276 241.693 399.276 240.466V238.765C399.276 237.533 399.603 236.583 400.256 235.916C400.914 235.244 401.89 234.908 403.182 234.908C404.475 234.908 405.448 235.244 406.101 235.916C406.759 236.583 407.088 237.533 407.088 238.765V240.466C407.088 241.693 406.762 242.633 406.108 243.287C405.455 243.94 404.48 244.267 403.182 244.267ZM403.182 242.461C403.747 242.461 404.167 242.295 404.442 241.964C404.718 241.632 404.855 241.168 404.855 240.571V238.653C404.855 238.027 404.718 237.547 404.442 237.211C404.167 236.875 403.747 236.707 403.182 236.707C402.618 236.707 402.198 236.875 401.922 237.211C401.647 237.547 401.509 238.027 401.509 238.653V240.571C401.509 241.168 401.647 241.632 401.922 241.964C402.198 242.295 402.618 242.461 403.182 242.461ZM411.25 244.246C410.569 244.246 409.997 244.099 409.535 243.805C409.078 243.511 408.735 243.086 408.506 242.531C408.277 241.971 408.163 241.299 408.163 240.515V238.94C408.163 237.624 408.518 236.623 409.227 235.937C409.941 235.251 410.982 234.908 412.349 234.908C412.769 234.908 413.159 234.938 413.518 234.999C413.877 235.055 414.204 235.129 414.498 235.223C414.797 235.316 415.056 235.419 415.275 235.531L415.464 237.379C415.109 237.22 414.713 237.08 414.274 236.959C413.84 236.833 413.341 236.77 412.776 236.77C411.955 236.77 411.353 236.956 410.97 237.33C410.587 237.698 410.396 238.277 410.396 239.066V240.536C410.396 241.124 410.534 241.579 410.809 241.901C411.089 242.223 411.523 242.384 412.111 242.384C412.372 242.384 412.599 242.346 412.79 242.272C412.986 242.192 413.147 242.09 413.273 241.964C413.404 241.838 413.506 241.698 413.581 241.544V239.836L413.868 240.48L412.146 240.487V238.8H415.681V242.559H413.539C413.469 242.881 413.35 243.17 413.182 243.427C413.019 243.679 412.781 243.879 412.468 244.029C412.16 244.173 411.754 244.246 411.25 244.246ZM413.63 242.209H415.681V244.05H413.56L413.63 242.209ZM422.253 244.05L422.078 242.363C422.05 242.064 421.992 241.821 421.903 241.635C421.814 241.443 421.679 241.303 421.497 241.215C421.315 241.121 421.072 241.075 420.769 241.075L418.746 241.068V239.395L420.853 239.388C421.31 239.388 421.639 239.287 421.84 239.087C422.041 238.886 422.141 238.585 422.141 238.184V238.044C422.141 237.647 422.041 237.351 421.84 237.155C421.644 236.954 421.313 236.854 420.846 236.854H418.732V235.104H421.161C422.258 235.104 423.058 235.316 423.562 235.741C424.071 236.165 424.325 236.777 424.325 237.575V237.757C424.325 238.359 424.171 238.828 423.863 239.164C423.555 239.5 423.086 239.691 422.456 239.738V240.046L422.008 239.745C422.549 239.782 422.969 239.894 423.268 240.081C423.567 240.267 423.786 240.529 423.926 240.865C424.071 241.196 424.176 241.609 424.241 242.104L424.5 244.05H422.253ZM417.227 244.05V235.104H419.355V239.997L419.369 240.809V244.05H417.227ZM425.704 244.05V235.104H427.846V244.05H425.704ZM426.341 244.05V242.223L431.969 242.223V244.05L426.341 244.05ZM426.957 240.389V238.632H431.801V240.389H426.957ZM426.334 236.91V235.104H431.906V236.91H426.334ZM436.125 244.239C435.71 244.239 435.32 244.211 434.956 244.155C434.597 244.103 434.268 244.036 433.969 243.952C433.675 243.863 433.416 243.772 433.192 243.679L433.003 241.663C433.372 241.835 433.808 241.996 434.312 242.146C434.816 242.29 435.351 242.363 435.915 242.363C436.461 242.363 436.849 242.295 437.077 242.16C437.311 242.02 437.427 241.803 437.427 241.509V241.46C437.427 241.264 437.374 241.105 437.266 240.984C437.164 240.858 436.989 240.743 436.741 240.641C436.499 240.533 436.17 240.419 435.754 240.298C435.129 240.111 434.606 239.903 434.186 239.675C433.771 239.446 433.461 239.161 433.255 238.821C433.05 238.475 432.947 238.039 432.947 237.512V237.421C432.947 236.609 433.223 235.988 433.773 235.559C434.329 235.129 435.143 234.915 436.216 234.915C436.86 234.915 437.416 234.971 437.882 235.083C438.354 235.195 438.753 235.328 439.079 235.482L439.268 237.358C438.909 237.185 438.501 237.04 438.043 236.924C437.591 236.802 437.105 236.742 436.587 236.742C436.223 236.742 435.936 236.772 435.726 236.833C435.521 236.893 435.376 236.982 435.292 237.099C435.208 237.211 435.166 237.348 435.166 237.512V237.54C435.166 237.708 435.213 237.855 435.306 237.981C435.404 238.107 435.577 238.228 435.824 238.345C436.076 238.461 436.433 238.587 436.895 238.723C437.516 238.905 438.029 239.101 438.435 239.311C438.846 239.516 439.152 239.784 439.352 240.116C439.558 240.442 439.66 240.879 439.66 241.425V241.537C439.66 242.437 439.369 243.114 438.785 243.567C438.202 244.015 437.315 244.239 436.125 244.239ZM443.645 244.239C443.229 244.239 442.84 244.211 442.476 244.155C442.116 244.103 441.787 244.036 441.489 243.952C441.195 243.863 440.936 243.772 440.712 243.679L440.523 241.663C440.891 241.835 441.328 241.996 441.832 242.146C442.336 242.29 442.87 242.363 443.435 242.363C443.981 242.363 444.368 242.295 444.597 242.16C444.83 242.02 444.947 241.803 444.947 241.509V241.46C444.947 241.264 444.893 241.105 444.786 240.984C444.683 240.858 444.508 240.743 444.261 240.641C444.018 240.533 443.689 240.419 443.274 240.298C442.648 240.111 442.126 239.903 441.706 239.675C441.29 239.446 440.98 239.161 440.775 238.821C440.569 238.475 440.467 238.039 440.467 237.512V237.421C440.467 236.609 440.742 235.988 441.293 235.559C441.848 235.129 442.662 234.915 443.736 234.915C444.38 234.915 444.935 234.971 445.402 235.083C445.873 235.195 446.272 235.328 446.599 235.482L446.788 237.358C446.428 237.185 446.02 237.04 445.563 236.924C445.11 236.802 444.625 236.742 444.107 236.742C443.743 236.742 443.456 236.772 443.246 236.833C443.04 236.893 442.896 236.982 442.812 237.099C442.728 237.211 442.686 237.348 442.686 237.512V237.54C442.686 237.708 442.732 237.855 442.826 237.981C442.924 238.107 443.096 238.228 443.344 238.345C443.596 238.461 443.953 238.587 444.415 238.723C445.035 238.905 445.549 239.101 445.955 239.311C446.365 239.516 446.671 239.784 446.872 240.116C447.077 240.442 447.18 240.879 447.18 241.425V241.537C447.18 242.437 446.888 243.114 446.305 243.567C445.721 244.015 444.835 244.239 443.645 244.239ZM454.594 244.05V238.926L454.678 236.602H454.51L452.382 240.662V241.53L451.549 240.781H457.674V242.559H450.268V240.536L453.222 235.104H456.673V244.05H454.594Z" fill="#171A1F"/>
<path d="M367.049 261.603C367.049 258.93 369.216 256.763 371.89 256.763H592.61C595.283 256.763 597.45 258.93 597.45 261.603V331.535C597.45 334.209 595.283 336.376 592.61 336.376H371.89C369.216 336.376 367.049 334.209 367.049 331.535V261.603Z" fill="#CEE1F2"/>
<rect x="381.099" y="270.812" width="202.301" height="2.42025" rx="1.21012" fill="white"/>
<rect x="381.099" y="278.073" width="202.301" height="2.42025" rx="1.21012" fill="white"/>
<rect x="381.099" y="285.334" width="202.301" height="2.42025" rx="1.21012" fill="white"/>
<rect x="381.099" y="301.754" width="20.5721" height="20.5721" rx="3.04772" fill="#7696EA"/>
<rect x="410.142" y="303.569" width="115.177" height="2.42025" rx="1.21012" fill="white"/>
<rect x="410.142" y="310.83" width="115.177" height="2.42025" rx="1.21012" fill="white"/>
<rect x="410.142" y="318.091" width="115.177" height="2.42025" rx="1.21012" fill="white"/>
<rect x="533.79" y="301.755" width="20.57" height="20.57" rx="10.285" fill="#7696EA"/>
<rect x="562.831" y="301.755" width="20.57" height="20.57" rx="10.285" fill="#7696EA"/>
<path d="M366.8 355.266C366.8 352.593 368.967 350.426 371.64 350.426H592.61C595.283 350.426 597.45 352.593 597.45 355.266V425.198C597.45 427.872 595.283 430.039 592.61 430.039H371.64C368.967 430.039 366.8 427.872 366.8 425.198V355.266Z" fill="#CEE1F2"/>
<rect x="380.85" y="364.475" width="202.551" height="2.42025" rx="1.21012" fill="white"/>
<rect x="380.85" y="371.736" width="202.551" height="2.42025" rx="1.21012" fill="white"/>
<rect x="380.85" y="378.997" width="202.551" height="2.42025" rx="1.21012" fill="white"/>
<rect x="380.85" y="395.417" width="20.5721" height="20.5721" rx="3.04772" fill="#2CB30A"/>
<rect x="409.893" y="397.232" width="115.426" height="2.42025" rx="1.21012" fill="white"/>
<rect x="409.893" y="404.493" width="115.426" height="2.42025" rx="1.21012" fill="white"/>
<rect x="409.893" y="411.754" width="115.426" height="2.42025" rx="1.21012" fill="white"/>
<rect x="533.79" y="395.418" width="20.57" height="20.57" rx="10.285" fill="#7696EA"/>
<rect x="562.831" y="395.418" width="20.57" height="20.57" rx="10.285" fill="#7696EA"/>
<path d="M366.8 448.929C366.8 446.256 368.967 444.089 371.64 444.089H592.61C595.283 444.089 597.45 446.256 597.45 448.929V518.861C597.45 521.535 595.283 523.702 592.61 523.702H371.64C368.967 523.702 366.8 521.535 366.8 518.861V448.929Z" fill="#CEE1F2"/>
<rect x="380.85" y="458.138" width="202.551" height="2.42025" rx="1.21012" fill="white"/>
<rect x="380.85" y="465.399" width="202.551" height="2.42025" rx="1.21012" fill="white"/>
<rect x="380.85" y="472.66" width="202.551" height="2.42025" rx="1.21012" fill="white"/>
<rect x="380.85" y="489.08" width="20.5721" height="20.5721" rx="3.04772" fill="#7696EA"/>
<rect x="409.893" y="490.895" width="115.426" height="2.42025" rx="1.21012" fill="white"/>
<rect x="409.893" y="498.156" width="115.426" height="2.42025" rx="1.21012" fill="white"/>
<rect x="409.893" y="505.417" width="115.426" height="2.42025" rx="1.21012" fill="white"/>
<rect x="533.79" y="489.081" width="20.57" height="20.57" rx="10.285" fill="#7696EA"/>
<rect x="562.831" y="489.081" width="20.57" height="20.57" rx="10.285" fill="#7696EA"/>
<path d="M635.5 225.84C635.5 223.167 637.667 221 640.34 221H889.41C892.083 221 894.25 223.167 894.25 225.84V533.248C894.25 535.921 892.083 538.089 889.41 538.089H640.34C637.667 538.089 635.5 535.921 635.5 533.248V225.84Z" fill="#F5F6F6"/>
<path d="M652.56 244.05H650.362V235.104H652.56V244.05ZM657.207 235.097L659.629 241.663H659.727L659.629 237.883V235.097H661.715V244.05H658.782L656.269 237.337H656.178L656.276 241.201V244.05H654.19V235.097H657.207ZM670.659 244.05L670.484 242.363C670.456 242.064 670.398 241.821 670.309 241.635C670.221 241.443 670.085 241.303 669.903 241.215C669.721 241.121 669.479 241.075 669.175 241.075L667.152 241.068V239.395L669.259 239.388C669.717 239.388 670.046 239.287 670.246 239.087C670.447 238.886 670.547 238.585 670.547 238.184V238.044C670.547 237.647 670.447 237.351 670.246 237.155C670.05 236.954 669.719 236.854 669.252 236.854H667.138V235.104H669.567C670.664 235.104 671.464 235.316 671.968 235.741C672.477 236.165 672.731 236.777 672.731 237.575V237.757C672.731 238.359 672.577 238.828 672.269 239.164C671.961 239.5 671.492 239.691 670.862 239.738V240.046L670.414 239.745C670.956 239.782 671.376 239.894 671.674 240.081C671.973 240.267 672.192 240.529 672.332 240.865C672.477 241.196 672.582 241.609 672.647 242.104L672.906 244.05H670.659ZM665.633 244.05V235.104H667.761V239.997L667.775 240.809V244.05H665.633ZM674.11 244.05V235.104H676.252V244.05H674.11ZM674.747 244.05V242.223H680.375V244.05H674.747ZM675.363 240.389V238.632H680.207V240.389H675.363ZM674.74 236.91V235.104H680.312V236.91H674.74ZM683.51 244.05L681.06 235.104H683.328L685.085 242.419H685.246L687.01 235.104H689.271L686.828 244.05H683.51ZM692.441 244.05H690.243V235.104H692.441V244.05ZM694.071 244.05V235.104H696.213V244.05H694.071ZM694.708 244.05V242.223H700.336V244.05H694.708ZM695.324 240.389V238.632H700.168V240.389H695.324ZM694.701 236.91V235.104H700.273V236.91H694.701ZM702.715 244.05L701.14 235.104H703.366L704.213 241.243L704.36 242.223H704.479L704.64 241.243L705.557 235.307L708.238 235.307L709.148 241.243L709.302 242.223L709.428 242.223L709.582 241.243L710.443 235.104H712.641L711.087 244.05H707.972L707.195 238.681L706.95 237.106H706.838L706.593 238.681L705.83 244.05H702.715ZM719.899 244.05V238.926L719.983 236.602H719.815L717.687 240.662V241.53L716.854 240.781H722.979V242.559H715.573V240.536L718.527 235.104H721.978V244.05H719.899Z" fill="#171A1F"/>
<path d="M650.049 262.266C650.049 259.593 652.216 257.426 654.889 257.426H875.36C878.033 257.426 880.2 259.593 880.2 262.266V332.198C880.2 334.872 878.033 337.039 875.36 337.039H654.889C652.216 337.039 650.049 334.872 650.049 332.198V262.266Z" fill="#CEE1F2"/>
<rect x="664.099" y="271.475" width="202.052" height="2.42025" rx="1.21012" fill="white"/>
<rect x="664.099" y="278.736" width="202.052" height="2.42025" rx="1.21012" fill="white"/>
<rect x="664.099" y="285.997" width="202.052" height="2.42025" rx="1.21012" fill="white"/>
<rect x="664.099" y="302.417" width="20.5721" height="20.5721" rx="3.04772" fill="#F32828"/>
<rect x="693.142" y="304.232" width="114.927" height="2.42025" rx="1.21012" fill="white"/>
<rect x="693.142" y="311.493" width="114.927" height="2.42025" rx="1.21012" fill="white"/>
<rect x="693.142" y="318.754" width="114.927" height="2.42025" rx="1.21012" fill="white"/>
<rect x="816.54" y="302.418" width="20.57" height="20.57" rx="10.285" fill="#7696EA"/>
<rect x="845.581" y="302.418" width="20.57" height="20.57" rx="10.285" fill="#7696EA"/>
<path d="M649.55 355.929C649.55 353.256 651.717 351.089 654.39 351.089H875.36C878.033 351.089 880.2 353.256 880.2 355.929V425.861C880.2 428.535 878.033 430.702 875.36 430.702H654.39C651.717 430.702 649.55 428.535 649.55 425.861V355.929Z" fill="#CEE1F2"/>
<rect x="663.6" y="365.138" width="202.551" height="2.42025" rx="1.21012" fill="white"/>
<rect x="663.6" y="372.399" width="202.551" height="2.42025" rx="1.21012" fill="white"/>
<rect x="663.6" y="379.66" width="202.551" height="2.42025" rx="1.21012" fill="white"/>
<rect x="663.6" y="396.08" width="20.5721" height="20.5721" rx="3.04772" fill="#7696EA"/>
<rect x="692.643" y="397.895" width="115.426" height="2.42025" rx="1.21012" fill="white"/>
<rect x="692.643" y="405.156" width="115.426" height="2.42025" rx="1.21012" fill="white"/>
<rect x="692.643" y="412.417" width="115.426" height="2.42025" rx="1.21012" fill="white"/>
<rect x="816.54" y="396.081" width="20.57" height="20.57" rx="10.285" fill="#7696EA"/>
<rect x="845.581" y="396.081" width="20.57" height="20.57" rx="10.285" fill="#7696EA"/>
<path d="M649.55 449.592C649.55 446.919 651.717 444.752 654.39 444.752H875.36C878.033 444.752 880.2 446.919 880.2 449.592V519.524C880.2 522.198 878.033 524.365 875.36 524.365H654.39C651.717 524.365 649.55 522.198 649.55 519.524V449.592Z" fill="#CEE1F2"/>
<rect x="663.6" y="458.801" width="202.551" height="2.42025" rx="1.21012" fill="white"/>
<rect x="663.6" y="466.062" width="202.551" height="2.42025" rx="1.21012" fill="white"/>
<rect x="663.6" y="473.323" width="202.551" height="2.42025" rx="1.21012" fill="white"/>
<rect x="663.6" y="489.743" width="20.5721" height="20.5721" rx="3.04772" fill="#7696EA"/>
<rect x="692.643" y="491.558" width="115.426" height="2.42025" rx="1.21012" fill="white"/>
<rect x="692.643" y="498.819" width="115.426" height="2.42025" rx="1.21012" fill="white"/>
<rect x="692.643" y="506.08" width="115.426" height="2.42025" rx="1.21012" fill="white"/>
<rect x="816.54" y="489.744" width="20.57" height="20.57" rx="10.285" fill="#7696EA"/>
<rect x="845.581" y="489.744" width="20.57" height="20.57" rx="10.285" fill="#7696EA"/>
<path d="M918.25 225.84C918.25 223.167 920.417 221 923.09 221H1172.16C1174.83 221 1177 223.167 1177 225.84V532.911C1177 535.584 1174.83 537.752 1172.16 537.752H923.09C920.417 537.752 918.25 535.584 918.25 532.911V225.84Z" fill="#F5F6F6"/>
<path d="M934.645 244.05V242.216H936.598C937.158 242.216 937.578 242.064 937.858 241.761C938.138 241.457 938.278 241.023 938.278 240.459V238.667C938.278 238.102 938.138 237.67 937.858 237.372C937.578 237.068 937.158 236.917 936.598 236.917H934.638V235.104H936.675C937.949 235.104 938.901 235.412 939.531 236.028C940.165 236.639 940.483 237.519 940.483 238.667V240.466C940.483 241.618 940.168 242.505 939.538 243.126C938.908 243.742 937.953 244.05 936.675 244.05H934.645ZM933.112 244.05V235.104H935.268V244.05H933.112ZM945.454 244.267C944.152 244.267 943.174 243.94 942.521 243.287C941.872 242.633 941.548 241.693 941.548 240.466V238.765C941.548 237.533 941.874 236.583 942.528 235.916C943.186 235.244 944.161 234.908 945.454 234.908C946.746 234.908 947.719 235.244 948.373 235.916C949.031 236.583 949.36 237.533 949.36 238.765V240.466C949.36 241.693 949.033 242.633 948.38 243.287C947.726 243.94 946.751 244.267 945.454 244.267ZM945.454 242.461C946.018 242.461 946.438 242.295 946.714 241.964C946.989 241.632 947.127 241.168 947.127 240.571V238.653C947.127 238.027 946.989 237.547 946.714 237.211C946.438 236.875 946.018 236.707 945.454 236.707C944.889 236.707 944.469 236.875 944.194 237.211C943.918 237.547 943.781 238.027 943.781 238.653V240.571C943.781 241.168 943.918 241.632 944.194 241.964C944.469 242.295 944.889 242.461 945.454 242.461ZM953.725 235.097L956.147 241.663H956.245L956.147 237.883V235.097H958.233V244.05H955.3L952.787 237.337H952.696L952.794 241.201V244.05H950.708V235.097H953.725ZM959.854 244.05V235.104H961.996V244.05H959.854ZM960.491 244.05V242.223H966.119V244.05H960.491ZM961.107 240.389V238.632H965.951V240.389H961.107ZM960.484 236.91V235.104H966.056V236.91H960.484ZM973.664 244.05V238.926L973.748 236.602H973.58L971.452 240.662V241.53L970.619 240.781H976.744V242.559H969.338V240.536L972.292 235.104H975.743V244.05H973.664Z" fill="#171A1F"/>
<path d="M932.549 261.603C932.549 258.93 934.716 256.763 937.39 256.763H1158.11C1160.78 256.763 1162.95 258.93 1162.95 261.603V331.535C1162.95 334.209 1160.78 336.376 1158.11 336.376H937.39C934.716 336.376 932.549 334.209 932.549 331.535V261.603Z" fill="#CEE1F2"/>
<rect x="946.599" y="270.812" width="202.301" height="2.42025" rx="1.21012" fill="white"/>
<rect x="946.599" y="278.073" width="202.301" height="2.42025" rx="1.21012" fill="white"/>
<rect x="946.599" y="285.334" width="202.301" height="2.42025" rx="1.21012" fill="white"/>
<rect x="946.599" y="301.754" width="20.5721" height="20.5721" rx="3.04772" fill="#2CB30A"/>
<rect x="975.642" y="303.569" width="115.177" height="2.42025" rx="1.21012" fill="white"/>
<rect x="975.642" y="310.83" width="115.177" height="2.42025" rx="1.21012" fill="white"/>
<rect x="975.642" y="318.091" width="115.177" height="2.42025" rx="1.21012" fill="white"/>
<rect x="1099.29" y="301.755" width="20.57" height="20.57" rx="10.285" fill="#7696EA"/>
<rect x="1128.33" y="301.755" width="20.57" height="20.57" rx="10.285" fill="#7696EA"/>
<path d="M932.3 355.266C932.3 352.593 934.467 350.426 937.14 350.426H1158.11C1160.78 350.426 1162.95 352.593 1162.95 355.266V425.198C1162.95 427.872 1160.78 430.039 1158.11 430.039H937.14C934.467 430.039 932.3 427.872 932.3 425.198V355.266Z" fill="#CEE1F2"/>
<rect x="946.35" y="364.475" width="202.551" height="2.42025" rx="1.21012" fill="white"/>
<rect x="946.35" y="371.736" width="202.551" height="2.42025" rx="1.21012" fill="white"/>
<rect x="946.35" y="378.997" width="202.551" height="2.42025" rx="1.21012" fill="white"/>
<rect x="946.35" y="395.417" width="20.5721" height="20.5721" rx="3.04772" fill="#2CB30A"/>
<rect x="975.393" y="397.232" width="115.426" height="2.42025" rx="1.21012" fill="white"/>
<rect x="975.393" y="404.493" width="115.426" height="2.42025" rx="1.21012" fill="white"/>
<rect x="975.393" y="411.754" width="115.426" height="2.42025" rx="1.21012" fill="white"/>
<rect x="1099.29" y="395.418" width="20.57" height="20.57" rx="10.285" fill="#7696EA"/>
<rect x="1128.33" y="395.418" width="20.57" height="20.57" rx="10.285" fill="#7696EA"/>
<path d="M932.3 448.929C932.3 446.256 934.467 444.089 937.14 444.089H1158.11C1160.78 444.089 1162.95 446.256 1162.95 448.929V518.861C1162.95 521.535 1160.78 523.702 1158.11 523.702H937.14C934.467 523.702 932.3 521.535 932.3 518.861V448.929Z" fill="#CEE1F2"/>
<rect x="946.35" y="458.138" width="202.551" height="2.42025" rx="1.21012" fill="white"/>
<rect x="946.35" y="465.399" width="202.551" height="2.42025" rx="1.21012" fill="white"/>
<rect x="946.35" y="472.66" width="202.551" height="2.42025" rx="1.21012" fill="white"/>
<rect x="946.35" y="489.08" width="20.5721" height="20.5721" rx="3.04772" fill="#2CB30A"/>
<rect x="975.393" y="490.895" width="115.426" height="2.42025" rx="1.21012" fill="white"/>
<rect x="975.393" y="498.156" width="115.426" height="2.42025" rx="1.21012" fill="white"/>
<rect x="975.393" y="505.417" width="115.426" height="2.42025" rx="1.21012" fill="white"/>
<rect x="1099.29" y="489.081" width="20.57" height="20.57" rx="10.285" fill="#7696EA"/>
<rect x="1128.33" y="489.081" width="20.57" height="20.57" rx="10.285" fill="#7696EA"/>
<defs>
<filter id="filter0_d_64_4320" x="0.645693" y="0.797539" width="1245.71" height="625.709" filterUnits="userSpaceOnUse" color-interpolation-filters="sRGB">
<feFlood flood-opacity="0" result="BackgroundImageFix"/>
<feColorMatrix in="SourceAlpha" type="matrix" values="0 0 0 0 0 0 0 0 0 0 0 0 0 0 0 0 0 0 127 0" result="hardAlpha"/>
<feMorphology radius="6.05062" operator="dilate" in="SourceAlpha" result="effect1_dropShadow_64_4320"/>
<feOffset dy="18.1518"/>
<feGaussianBlur stdDeviation="18.1518"/>
<feComposite in2="hardAlpha" operator="out"/>
<feColorMatrix type="matrix" values="0 0 0 0 0.179053 0 0 0 0 0.161346 0 0 0 0 0.161346 0 0 0 0.1 0"/>
<feBlend mode="normal" in2="BackgroundImageFix" result="effect1_dropShadow_64_4320"/>
<feBlend mode="normal" in="SourceGraphic" in2="effect1_dropShadow_64_4320" result="shape"/>
</filter>
<clipPath id="clip0_64_4320">
<rect width="53.1883" height="20.071" fill="white" transform="translate(70.0957 52.0959)"/>
</clipPath>
</defs>
</svg>
