<svg width="200" height="200" viewBox="0 0 200 200" fill="none" xmlns="http://www.w3.org/2000/svg">
<path d="M24.3648 113.333C21.5604 108.476 20.1582 106.047 19.6093 103.465C19.1237 101.181 19.1237 98.8194 19.6093 96.5348C20.1582 93.9527 21.5604 91.524 24.3648 86.6666L50.6354 41.1645C53.4399 36.3071 54.8421 33.8784 56.8038 32.1121C58.5395 30.5492 60.5843 29.3687 62.8057 28.6469C65.3162 27.8312 68.1206 27.8312 73.7295 27.8312H126.271C131.88 27.8312 134.684 27.8312 137.195 28.6469C139.416 29.3687 141.461 30.5492 143.196 32.1121C145.158 33.8784 146.56 36.3071 149.365 41.1645L175.635 86.6666C178.44 91.524 179.842 93.9527 180.391 96.5348C180.877 98.8194 180.877 101.181 180.391 103.465C179.842 106.047 178.44 108.476 175.635 113.333L149.365 158.835C146.56 163.693 145.158 166.121 143.196 167.888C141.461 169.451 139.416 170.631 137.195 171.353C134.684 172.169 131.88 172.169 126.271 172.169H73.7295C68.1206 172.169 65.3162 172.169 62.8057 171.353C60.5843 170.631 58.5395 169.451 56.8038 167.888C54.8421 166.121 53.4399 163.693 50.6354 158.835L24.3648 113.333Z" stroke="#1A468F" stroke-width="4" stroke-linecap="round" stroke-linejoin="round"/>
<path d="M100 66.6666V108.333M100 133.333H100.083" stroke="#A8C0FF" stroke-width="4" stroke-linecap="round" stroke-linejoin="round"/>
</svg>
