<svg width="651" height="516" viewBox="0 0 651 516" fill="none" xmlns="http://www.w3.org/2000/svg">
<g filter="url(#filter0_d_64_7987)">
<rect x="43" y="25" width="565" height="430" rx="14.5215" fill="#F5F6F6"/>
</g>
<path d="M43 49.0853C43 35.7833 53.7833 25 67.0853 25H583.915C597.217 25 608 35.7833 608 49.0853V94.811H43V49.0853Z" fill="white"/>
<rect x="43" y="94.8112" width="565" height="43.396" fill="#1A468F"/>
<path d="M73.6573 120.961C73.2311 120.961 72.8377 120.928 72.4771 120.862C72.1165 120.797 71.7934 120.715 71.5077 120.616C71.2267 120.518 70.9879 120.42 70.7912 120.321L70.6577 118.938C71.0183 119.144 71.4445 119.326 71.9362 119.485C72.4326 119.645 72.9689 119.724 73.5449 119.724C74.2006 119.724 74.6829 119.617 74.992 119.401C75.3011 119.181 75.4557 118.851 75.4557 118.411V118.305C75.4557 118.02 75.3925 117.785 75.266 117.603C75.1442 117.415 74.9358 117.256 74.6408 117.125C74.3457 116.989 73.9453 116.861 73.4395 116.739C72.7745 116.575 72.2359 116.383 71.8238 116.163C71.4164 115.938 71.119 115.659 70.9317 115.327C70.7443 114.99 70.6507 114.57 70.6507 114.069V113.999C70.6507 113.245 70.9012 112.664 71.4023 112.257C71.9034 111.849 72.6551 111.646 73.6573 111.646C74.2989 111.646 74.8469 111.709 75.3011 111.835C75.7601 111.957 76.1371 112.095 76.4321 112.25L76.5586 113.535C76.2167 113.339 75.8233 113.175 75.3784 113.044C74.9335 112.908 74.4324 112.84 73.8751 112.84C73.4395 112.84 73.0906 112.889 72.8284 112.987C72.5661 113.081 72.3764 113.219 72.2594 113.402C72.1423 113.58 72.0837 113.795 72.0837 114.048V114.076C72.0837 114.339 72.1423 114.563 72.2594 114.751C72.3764 114.938 72.5825 115.104 72.8776 115.249C73.1773 115.39 73.6011 115.53 74.1491 115.671C74.8 115.835 75.3245 116.02 75.7226 116.226C76.1254 116.427 76.4204 116.692 76.6078 117.02C76.7951 117.343 76.8888 117.769 76.8888 118.298V118.439C76.8888 119.268 76.6195 119.895 76.0809 120.321C75.5423 120.748 74.7345 120.961 73.6573 120.961ZM81.5527 120.968C80.4053 120.968 79.5459 120.649 78.9746 120.012C78.4079 119.375 78.1246 118.469 78.1246 117.294V115.299C78.1246 114.128 78.4079 113.226 78.9746 112.594C79.5459 111.957 80.4053 111.639 81.5527 111.639C81.904 111.639 82.2248 111.669 82.5151 111.73C82.8055 111.791 83.0654 111.871 83.2949 111.969C83.5244 112.067 83.7211 112.17 83.885 112.278L83.9974 113.571C83.7211 113.383 83.4003 113.219 83.035 113.079C82.6697 112.938 82.2388 112.868 81.7424 112.868C81.0212 112.868 80.4756 113.081 80.1056 113.507C79.7403 113.934 79.5577 114.538 79.5577 115.32V117.245C79.5577 118.022 79.7426 118.626 80.1126 119.057C80.4873 119.488 81.0446 119.703 81.7845 119.703C82.2716 119.703 82.7024 119.635 83.0771 119.5C83.4565 119.359 83.7866 119.188 84.0676 118.987L83.9552 120.314C83.7913 120.422 83.5899 120.528 83.3511 120.631C83.1169 120.729 82.8476 120.809 82.5432 120.869C82.2435 120.935 81.9133 120.968 81.5527 120.968ZM84.8933 120.792L87.647 111.814H89.8317L92.5855 120.792H91.1594L88.8272 112.756H88.6516L86.3193 120.792H84.8933ZM86.6916 118.284V117.118H90.7731V118.284H86.6916ZM99.0602 120.792L98.8214 118.973C98.7792 118.64 98.7043 118.357 98.5966 118.123C98.4935 117.884 98.332 117.699 98.1119 117.568C97.8917 117.437 97.585 117.371 97.1916 117.371L94.8523 117.364V116.254L97.3391 116.247C97.9152 116.247 98.3273 116.109 98.5755 115.833C98.8237 115.556 98.9478 115.172 98.9478 114.68V114.484C98.9478 114.001 98.8214 113.629 98.5685 113.367C98.3156 113.105 97.8964 112.973 97.311 112.973H94.8242V111.814H97.5077C98.5053 111.814 99.2312 112.027 99.6854 112.454C100.144 112.88 100.374 113.475 100.374 114.238V114.463C100.374 115.029 100.243 115.493 99.9805 115.854C99.7229 116.214 99.2897 116.441 98.6809 116.535V116.718L98.0908 116.514C98.6106 116.551 99.011 116.664 99.292 116.851C99.5777 117.038 99.7861 117.296 99.9173 117.624C100.048 117.952 100.149 118.35 100.219 118.818L100.521 120.792H99.0602ZM93.8829 120.792V111.814H95.2668V116.64L95.2738 117.167V120.792H93.8829Z" fill="white"/>
<g clip-path="url(#clip0_64_7987)">
<path d="M118.684 67.3026V58.3031C118.684 56.5701 117.447 56.2356 116.832 56.2356C116.216 56.2356 114.979 56.5701 114.979 58.3031V67.3026H110.374V58.3031C110.374 56.5701 109.137 56.2356 108.521 56.2356C107.905 56.2356 106.669 56.5701 106.669 58.3031V67.3026H102.063V52.2632H106.557V53.4944C107.485 52.5745 108.857 52.0959 110.07 52.0959C111.559 52.0959 112.767 52.5698 113.747 53.6896C115.068 52.542 116.276 52.0959 118.017 52.0959C119.449 52.0959 120.826 52.5698 121.638 53.3829C122.93 54.6699 123.294 56.0916 123.294 57.6898V67.3072H118.689L118.684 67.3026Z" fill="#1A468F"/>
<path d="M81.6908 53.4665C80.8229 52.5698 79.5025 52.0959 78.042 52.0959C76.4695 52.0959 75.485 52.5698 74.5611 53.4944V52.2632H70.0957V58.0662L72.0181 59.46L70.0957 60.8538V72.1623H74.7011V66.2061C75.541 67.047 76.5815 67.4652 78.07 67.4652C79.5584 67.4652 80.8229 66.9913 81.6955 66.0946C83.1 64.6404 83.128 62.3777 83.128 59.7759C83.128 57.1741 83.1 54.9115 81.6955 53.4572L81.6908 53.4665ZM76.6095 63.3348C74.8971 63.3348 74.7011 61.9642 74.7011 59.7852C74.7011 57.6062 74.8971 56.2356 76.6095 56.2356C78.3219 56.2356 78.5179 57.6062 78.5179 59.7852C78.5179 61.9642 78.3219 63.3348 76.6095 63.3348Z" fill="#1A468F"/>
<path d="M96.6455 59.4646L98.5772 58.0615V52.2632H94.1118V53.4944C93.1832 52.5698 92.2034 52.0959 90.6262 52.0959C89.1658 52.0959 87.8499 52.5698 86.9774 53.4665C85.5729 54.9208 85.5449 57.1834 85.5449 59.7852C85.5449 62.387 85.5729 64.6496 86.9774 66.1039C87.8499 67.0006 89.1378 67.4745 90.6029 67.4745C92.0681 67.4745 93.1272 67.0563 93.9718 66.2154V72.1716H98.5772V60.8677L96.6455 59.4646ZM92.0587 63.3348C90.3463 63.3348 90.1503 61.9642 90.1503 59.7852C90.1503 57.6062 90.3463 56.2356 92.0587 56.2356C93.7712 56.2356 93.9671 57.6062 93.9671 59.7852C93.9671 61.9642 93.7712 63.3348 92.0587 63.3348Z" fill="#1A468F"/>
</g>
<rect x="147.369" y="50.4717" width="204.725" height="18.8678" rx="9.43391" fill="#CEE1F2"/>
<rect x="560.833" y="50.4717" width="20.071" height="18.8678" rx="9.43391" fill="#CEE1F2"/>
<rect x="526.712" y="50.4717" width="20.071" height="18.8678" rx="9.43391" fill="#CEE1F2"/>
<rect x="492.592" y="50.4717" width="20.071" height="18.8678" rx="9.43391" fill="#CEE1F2"/>
<rect x="581.374" y="117.841" width="55.6657" height="2.27516" rx="1.13758" transform="rotate(-180 581.374 117.841)" fill="#CEE1F2"/>
<rect x="509.119" y="117.841" width="55.6657" height="2.27516" rx="1.13758" transform="rotate(-180 509.119 117.841)" fill="#CEE1F2"/>
<g clip-path="url(#clip1_64_7987)">
<rect x="70.0957" y="171.678" width="511" height="6" rx="3" fill="#7696EA"/>
<rect x="70.0957" y="171.678" width="178.32" height="6" fill="#1A468F"/>
</g>
<rect x="177.596" y="173.178" width="3" height="3" rx="1.5" fill="#7696EA"/>
<rect x="250.596" y="173.178" width="3" height="3" rx="1.5" fill="#8CB0F8"/>
<rect x="323.596" y="173.178" width="3" height="3" rx="1.5" fill="#CEE1F2"/>
<rect x="396.596" y="173.178" width="3" height="3" rx="1.5" fill="#CEE1F2"/>
<rect x="469.596" y="173.178" width="3" height="3" rx="1.5" fill="#CEE1F2"/>
<circle cx="252.081" cy="174.678" r="10.5" fill="white" stroke="#1A468F"/>
<circle cx="179.096" cy="174.678" r="6.5" fill="#1A468F" stroke="white"/>
<circle cx="325.096" cy="174.678" r="6.5" fill="white" stroke="#A8C0FF"/>
<circle cx="471.096" cy="174.678" r="6.5" fill="white" stroke="#A8C0FF"/>
<circle cx="398.096" cy="174.678" r="6.5" fill="white" stroke="#A8C0FF"/>
<path d="M70.0957 214.604C70.0957 211.931 72.2629 209.764 74.9362 209.764H576.063C578.737 209.764 580.904 211.931 580.904 214.604V422.205C580.904 424.878 578.737 427.045 576.063 427.045H74.9362C72.2629 427.045 70.0957 424.878 70.0957 422.205V214.604Z" fill="white"/>
<rect x="84.1455" y="227.343" width="99.2301" height="2.42025" rx="1.21012" fill="#7696EA"/>
<rect x="84.1455" y="234.603" width="55.6657" height="2.42025" rx="1.21012" fill="#7696EA"/>
<rect x="84.1455" y="241.864" width="99.2301" height="2.42025" rx="1.21012" fill="#7696EA"/>
<rect x="477.913" y="223.813" width="24" height="24" rx="4.03183" fill="#F5F6F6"/>
<mask id="mask0_64_7987" style="mask-type:luminance" maskUnits="userSpaceOnUse" x="482" y="228" width="15" height="15">
<path fill-rule="evenodd" clip-rule="evenodd" d="M482.854 228.755H496.943V242.837H482.854V228.755Z" fill="white"/>
</mask>
<g mask="url(#mask0_64_7987)">
<path fill-rule="evenodd" clip-rule="evenodd" d="M486.842 229.813C485.062 229.813 483.912 231.032 483.912 232.918V238.673C483.912 240.56 485.062 241.778 486.842 241.778H492.948C494.731 241.778 495.884 240.56 495.884 238.673V232.918C495.884 231.032 494.731 229.813 492.948 229.813H486.842ZM492.948 242.837H486.842C484.456 242.837 482.854 241.163 482.854 238.673V232.918C482.854 230.428 484.456 228.754 486.842 228.754H492.948C495.337 228.754 496.943 230.428 496.943 232.918V238.673C496.943 241.163 495.337 242.837 492.948 242.837Z" fill="#7696EA"/>
</g>
<path fill-rule="evenodd" clip-rule="evenodd" d="M485.17 239.47C485.038 239.47 484.908 239.422 484.805 239.325C484.593 239.124 484.584 238.788 484.786 238.577L485.864 237.438C486.435 236.832 487.399 236.802 488.008 237.374L488.684 238.06C488.873 238.251 489.179 238.254 489.368 238.068C489.439 237.984 490.977 236.117 490.977 236.117C491.269 235.763 491.681 235.544 492.139 235.499C492.598 235.458 493.044 235.592 493.399 235.883C493.429 235.908 493.457 235.932 495.007 237.524C495.211 237.733 495.207 238.068 494.998 238.272C494.789 238.478 494.453 238.471 494.249 238.262C494.249 238.262 492.802 236.778 492.699 236.678C492.59 236.588 492.414 236.536 492.241 236.553C492.065 236.57 491.907 236.654 491.795 236.79C490.154 238.78 490.135 238.799 490.108 238.826C489.502 239.42 488.525 239.41 487.93 238.803C487.93 238.803 487.273 238.137 487.262 238.123C487.099 237.972 486.808 237.982 486.634 238.166L485.554 239.305C485.449 239.415 485.309 239.47 485.17 239.47Z" fill="#7696EA"/>
<path fill-rule="evenodd" clip-rule="evenodd" d="M487.482 233.081C487.092 233.081 486.774 233.398 486.774 233.789C486.774 234.18 487.092 234.499 487.483 234.499C487.874 234.499 488.192 234.18 488.192 233.789C488.192 233.399 487.874 233.081 487.482 233.081ZM487.483 235.558C486.508 235.558 485.715 234.764 485.715 233.789C485.715 232.815 486.508 232.022 487.483 232.022C488.458 232.023 489.251 232.816 489.251 233.789C489.251 234.764 488.458 235.558 487.483 235.558Z" fill="#7696EA"/>
<rect x="510.383" y="223.813" width="24" height="24" rx="4.03183" fill="#F5F6F6"/>
<mask id="mask1_64_7987" style="mask-type:luminance" maskUnits="userSpaceOnUse" x="515" y="228" width="15" height="15">
<path fill-rule="evenodd" clip-rule="evenodd" d="M515.324 228.755H529.413V242.837H515.324V228.755Z" fill="white"/>
</mask>
<g mask="url(#mask1_64_7987)">
<path fill-rule="evenodd" clip-rule="evenodd" d="M519.312 229.813C517.533 229.813 516.383 231.032 516.383 232.918V238.673C516.383 240.56 517.533 241.778 519.312 241.778H525.418C527.202 241.778 528.355 240.56 528.355 238.673V232.918C528.355 231.032 527.202 229.813 525.418 229.813H519.312ZM525.418 242.837H519.312C516.927 242.837 515.324 241.163 515.324 238.673V232.918C515.324 230.428 516.927 228.754 519.312 228.754H525.418C527.808 228.754 529.414 230.428 529.414 232.918V238.673C529.414 241.163 527.808 242.837 525.418 242.837Z" fill="#7696EA"/>
</g>
<path fill-rule="evenodd" clip-rule="evenodd" d="M517.64 239.47C517.509 239.47 517.378 239.422 517.276 239.325C517.064 239.124 517.055 238.788 517.256 238.577L518.335 237.438C518.906 236.832 519.869 236.802 520.479 237.374L521.155 238.06C521.343 238.251 521.65 238.254 521.839 238.068C521.91 237.984 523.448 236.117 523.448 236.117C523.74 235.763 524.152 235.544 524.61 235.499C525.069 235.458 525.514 235.592 525.869 235.883C525.9 235.908 525.927 235.932 527.477 237.524C527.681 237.733 527.678 238.068 527.468 238.272C527.259 238.478 526.923 238.471 526.719 238.262C526.719 238.262 525.273 236.778 525.17 236.678C525.06 236.588 524.885 236.536 524.712 236.553C524.536 236.57 524.378 236.654 524.266 236.79C522.625 238.78 522.605 238.799 522.579 238.826C521.973 239.42 520.995 239.41 520.4 238.803C520.4 238.803 519.744 238.137 519.732 238.123C519.569 237.972 519.279 237.982 519.104 238.166L518.024 239.305C517.92 239.415 517.78 239.47 517.64 239.47Z" fill="#7696EA"/>
<path fill-rule="evenodd" clip-rule="evenodd" d="M519.953 233.081C519.562 233.081 519.245 233.398 519.245 233.789C519.245 234.18 519.562 234.499 519.953 234.499C520.345 234.499 520.663 234.18 520.663 233.789C520.663 233.399 520.345 233.081 519.953 233.081ZM519.954 235.558C518.979 235.558 518.186 234.764 518.186 233.789C518.186 232.815 518.979 232.022 519.954 232.022C520.929 232.023 521.722 232.816 521.722 233.789C521.722 234.764 520.928 235.558 519.954 235.558Z" fill="#7696EA"/>
<rect x="542.854" y="223.813" width="24" height="24" rx="4.03183" fill="#F5F6F6"/>
<mask id="mask2_64_7987" style="mask-type:luminance" maskUnits="userSpaceOnUse" x="547" y="228" width="15" height="15">
<path fill-rule="evenodd" clip-rule="evenodd" d="M547.795 228.755H561.884V242.837H547.795V228.755Z" fill="white"/>
</mask>
<g mask="url(#mask2_64_7987)">
<path fill-rule="evenodd" clip-rule="evenodd" d="M551.783 229.813C550.004 229.813 548.854 231.032 548.854 232.918V238.673C548.854 240.56 550.004 241.778 551.783 241.778H557.889C559.673 241.778 560.826 240.56 560.826 238.673V232.918C560.826 231.032 559.673 229.813 557.889 229.813H551.783ZM557.889 242.837H551.783C549.398 242.837 547.795 241.163 547.795 238.673V232.918C547.795 230.428 549.398 228.754 551.783 228.754H557.889C560.279 228.754 561.885 230.428 561.885 232.918V238.673C561.885 241.163 560.279 242.837 557.889 242.837Z" fill="#7696EA"/>
</g>
<path fill-rule="evenodd" clip-rule="evenodd" d="M550.111 239.47C549.98 239.47 549.849 239.422 549.747 239.325C549.534 239.124 549.526 238.788 549.727 238.577L550.806 237.438C551.377 236.832 552.34 236.802 552.95 237.374L553.626 238.06C553.814 238.251 554.121 238.254 554.31 238.068C554.381 237.984 555.918 236.117 555.918 236.117C556.211 235.763 556.623 235.544 557.081 235.499C557.54 235.458 557.985 235.592 558.34 235.883C558.371 235.908 558.398 235.932 559.948 237.524C560.152 237.733 560.149 238.068 559.939 238.272C559.73 238.478 559.394 238.471 559.19 238.262C559.19 238.262 557.744 236.778 557.641 236.678C557.531 236.588 557.356 236.536 557.183 236.553C557.007 236.57 556.849 236.654 556.737 236.79C555.096 238.78 555.076 238.799 555.05 238.826C554.444 239.42 553.466 239.41 552.871 238.803C552.871 238.803 552.215 238.137 552.203 238.123C552.04 237.972 551.75 237.982 551.575 238.166L550.495 239.305C550.391 239.415 550.251 239.47 550.111 239.47Z" fill="#7696EA"/>
<path fill-rule="evenodd" clip-rule="evenodd" d="M552.424 233.081C552.033 233.081 551.716 233.398 551.716 233.789C551.716 234.18 552.033 234.499 552.424 234.499C552.815 234.499 553.134 234.18 553.134 233.789C553.134 233.399 552.815 233.081 552.424 233.081ZM552.425 235.558C551.45 235.558 550.657 234.764 550.657 233.789C550.657 232.815 551.45 232.022 552.425 232.022C553.4 232.023 554.193 232.816 554.193 233.789C554.193 234.764 553.399 235.558 552.425 235.558Z" fill="#7696EA"/>
<path d="M84.1455 265.863C84.1455 263.654 85.9364 261.863 88.1455 261.863H179.146C181.355 261.863 183.146 263.654 183.146 265.863C183.146 268.072 181.355 269.863 179.146 269.863H88.1455C85.9364 269.863 84.1455 268.072 84.1455 265.863Z" fill="#CEE1F2"/>
<rect x="84.1455" y="283.913" width="99.2301" height="2.42025" rx="1.21012" fill="#7696EA"/>
<rect x="84.1455" y="291.174" width="55.6657" height="2.42025" rx="1.21012" fill="#7696EA"/>
<rect x="84.1455" y="298.434" width="99.2301" height="2.42025" rx="1.21012" fill="#7696EA"/>
<path d="M84.1455 318.904C84.1455 316.695 85.9364 314.904 88.1455 314.904H179.146C181.355 314.904 183.146 316.695 183.146 318.904C183.146 321.113 181.355 322.904 179.146 322.904H88.1455C85.9364 322.904 84.1455 321.113 84.1455 318.904Z" fill="#CEE1F2"/>
<rect x="84.1455" y="336.954" width="99.2301" height="2.42025" rx="1.21012" fill="#7696EA"/>
<rect x="84.1455" y="344.215" width="55.6657" height="2.42025" rx="1.21012" fill="#7696EA"/>
<rect x="84.1455" y="351.476" width="99.2301" height="2.42025" rx="1.21012" fill="#7696EA"/>
<path d="M84.1455 371.945C84.1455 369.736 85.9364 367.945 88.1455 367.945H307.146C309.355 367.945 311.146 369.736 311.146 371.945C311.146 374.155 309.355 375.945 307.146 375.945H88.1455C85.9364 375.945 84.1455 374.155 84.1455 371.945Z" fill="#CEE1F2"/>
<path d="M84.1455 394.836C84.1455 392.162 86.3127 389.995 88.986 389.995H416.979C419.653 389.995 421.82 392.162 421.82 394.836V408.155C421.82 410.828 419.653 412.995 416.979 412.995H88.986C86.3127 412.995 84.1455 410.828 84.1455 408.155V394.836Z" fill="#CEE1F2"/>
<path d="M435.82 394.027C435.82 391.8 437.625 389.995 439.852 389.995H494.533C496.76 389.995 498.565 391.8 498.565 394.027V409.107C498.565 411.333 496.76 413.138 494.533 413.138H439.852C437.625 413.138 435.82 411.333 435.82 409.107V394.027Z" fill="#7696EA"/>
<path d="M458.523 404.16C457.886 404.16 457.407 403.981 457.087 403.623C456.77 403.266 456.612 402.758 456.612 402.099V400.878C456.612 400.219 456.77 399.713 457.087 399.358C457.405 399 457.88 398.821 458.515 398.821C458.719 398.821 458.904 398.84 459.071 398.878C459.24 398.916 459.391 398.964 459.523 399.023C459.654 399.082 459.766 399.144 459.857 399.209L459.914 399.829C459.755 399.717 459.568 399.618 459.353 399.535C459.141 399.449 458.891 399.406 458.603 399.406C458.171 399.406 457.844 399.535 457.624 399.793C457.403 400.049 457.293 400.413 457.293 400.886V402.075C457.293 402.546 457.405 402.911 457.628 403.172C457.851 403.43 458.184 403.559 458.628 403.559C458.913 403.559 459.164 403.517 459.382 403.434C459.602 403.351 459.793 403.248 459.954 403.127L459.898 403.765C459.806 403.829 459.693 403.892 459.559 403.954C459.425 404.016 459.27 404.066 459.095 404.103C458.923 404.141 458.732 404.16 458.523 404.16ZM463.107 404.067L463.135 403.111L463.111 403.011V401.757L463.115 401.527C463.115 401.207 463.033 400.97 462.869 400.817C462.707 400.664 462.451 400.587 462.099 400.587C461.816 400.587 461.557 400.628 461.32 400.708C461.087 400.789 460.878 400.883 460.696 400.991L460.756 400.434C460.858 400.372 460.979 400.312 461.119 400.253C461.261 400.191 461.423 400.14 461.603 400.1C461.785 400.059 461.986 400.039 462.203 400.039C462.486 400.039 462.725 400.074 462.921 400.144C463.12 400.211 463.28 400.309 463.401 400.438C463.525 400.567 463.615 400.723 463.671 400.906C463.727 401.089 463.756 401.293 463.756 401.519V404.067H463.107ZM461.752 404.152C461.362 404.152 461.062 404.057 460.853 403.869C460.646 403.678 460.542 403.407 460.542 403.055V402.938C460.542 402.575 460.654 402.305 460.877 402.128C461.103 401.947 461.46 401.823 461.949 401.753L463.195 401.575L463.232 402.051L462.03 402.224C461.729 402.267 461.514 402.341 461.385 402.446C461.256 402.548 461.191 402.7 461.191 402.902V402.966C461.191 403.173 461.255 403.332 461.381 403.442C461.51 403.552 461.702 403.607 461.958 403.607C462.183 403.607 462.377 403.568 462.538 403.49C462.699 403.412 462.83 403.308 462.929 403.176C463.029 403.044 463.096 402.898 463.131 402.736L463.232 403.18H463.107C463.069 403.352 462.998 403.512 462.893 403.66C462.791 403.808 462.647 403.927 462.462 404.019C462.276 404.107 462.04 404.152 461.752 404.152ZM467.39 404.067V401.62C467.39 401.407 467.36 401.224 467.301 401.071C467.244 400.918 467.15 400.8 467.019 400.716C466.89 400.63 466.712 400.587 466.486 400.587C466.279 400.587 466.099 400.626 465.946 400.704C465.796 400.782 465.673 400.888 465.579 401.023C465.485 401.155 465.419 401.305 465.382 401.474L465.265 401.011H465.406C465.449 400.833 465.524 400.672 465.632 400.527C465.739 400.379 465.883 400.262 466.063 400.176C466.246 400.087 466.469 400.043 466.732 400.043C467.044 400.043 467.295 400.102 467.486 400.221C467.68 400.339 467.821 400.509 467.91 400.733C467.998 400.953 468.043 401.224 468.043 401.547V404.067H467.39ZM464.757 404.067V400.132H465.41L465.382 401.075L465.41 401.112V404.067H464.757ZM470.572 404.156C470.008 404.156 469.587 404.004 469.31 403.7C469.036 403.394 468.899 402.961 468.899 402.402V401.789C468.899 401.227 469.037 400.796 469.314 400.495C469.591 400.191 470.011 400.039 470.572 400.039C470.739 400.039 470.891 400.055 471.028 400.087C471.165 400.117 471.287 400.157 471.395 400.208C471.505 400.257 471.598 400.308 471.673 400.362L471.729 400.93C471.603 400.833 471.453 400.751 471.278 400.684C471.106 400.617 470.903 400.583 470.669 400.583C470.293 400.583 470.012 400.688 469.826 400.898C469.644 401.105 469.552 401.407 469.552 401.805V402.386C469.552 402.775 469.644 403.075 469.826 403.285C470.012 403.494 470.293 403.599 470.669 403.599C470.911 403.599 471.119 403.566 471.294 403.498C471.471 403.431 471.629 403.349 471.766 403.252L471.705 403.829C471.587 403.91 471.432 403.985 471.242 404.055C471.051 404.122 470.828 404.156 470.572 404.156ZM474.135 404.156C473.535 404.156 473.084 404.009 472.78 403.716C472.476 403.423 472.325 403.004 472.325 402.458V401.757C472.325 401.203 472.466 400.777 472.748 400.479C473.03 400.178 473.443 400.027 473.986 400.027C474.351 400.027 474.656 400.096 474.901 400.233C475.145 400.367 475.33 400.559 475.453 400.809C475.577 401.059 475.639 401.358 475.639 401.704V401.849C475.639 401.935 475.635 402.021 475.627 402.107C475.621 402.193 475.613 402.278 475.602 402.361H475.002C475.007 402.232 475.01 402.11 475.01 401.995C475.012 401.879 475.014 401.773 475.014 401.676C475.014 401.437 474.975 401.235 474.897 401.071C474.822 400.905 474.707 400.778 474.554 400.692C474.404 400.604 474.214 400.559 473.986 400.559C473.647 400.559 473.393 400.657 473.224 400.854C473.054 401.05 472.97 401.331 472.97 401.696V402.071L472.974 402.152V402.527C472.974 402.691 472.998 402.839 473.046 402.97C473.095 403.102 473.17 403.216 473.272 403.313C473.377 403.407 473.509 403.48 473.667 403.531C473.828 403.579 474.019 403.603 474.24 403.603C474.495 403.603 474.733 403.57 474.953 403.502C475.174 403.435 475.381 403.344 475.574 403.228L475.514 403.793C475.339 403.903 475.136 403.992 474.905 404.059C474.674 404.123 474.417 404.156 474.135 404.156ZM472.667 402.361V401.87H475.465V402.361H472.667ZM476.526 404.067V398.725H477.175V404.067H476.526Z" fill="white"/>
<path d="M504.109 394.027C504.109 391.8 505.914 389.995 508.141 389.995H562.822C565.049 389.995 566.854 391.8 566.854 394.027V409.107C566.854 411.333 565.049 413.138 562.822 413.138H508.141C505.914 413.138 504.109 411.333 504.109 409.107V394.027Z" fill="#1A468F"/>
<path d="M525.026 404.16C524.778 404.16 524.551 404.139 524.344 404.099C524.14 404.059 523.957 404.009 523.796 403.95C523.635 403.891 523.5 403.832 523.393 403.773L523.324 403.107C523.531 403.231 523.774 403.34 524.054 403.434C524.336 403.525 524.643 403.571 524.973 403.571C525.371 403.571 525.665 403.501 525.856 403.361C526.047 403.219 526.142 403.007 526.142 402.724V402.66C526.142 402.474 526.105 402.322 526.03 402.204C525.954 402.086 525.827 401.986 525.646 401.906C525.469 401.825 525.227 401.75 524.921 401.68C524.534 401.589 524.223 401.481 523.989 401.358C523.758 401.231 523.59 401.074 523.485 400.886C523.383 400.698 523.332 400.464 523.332 400.184V400.148C523.332 399.726 523.471 399.401 523.747 399.172C524.024 398.941 524.444 398.826 525.005 398.826C525.374 398.826 525.687 398.863 525.945 398.938C526.206 399.014 526.418 399.097 526.582 399.188L526.642 399.801C526.452 399.688 526.228 399.593 525.973 399.515C525.72 399.434 525.43 399.394 525.102 399.394C524.841 399.394 524.63 399.425 524.469 399.487C524.308 399.549 524.191 399.637 524.118 399.753C524.046 399.868 524.01 400.008 524.01 400.172V400.188C524.01 400.355 524.045 400.497 524.114 400.616C524.187 400.734 524.312 400.836 524.489 400.922C524.669 401.008 524.925 401.091 525.255 401.172C525.634 401.261 525.938 401.363 526.167 401.478C526.395 401.594 526.56 401.745 526.663 401.93C526.767 402.115 526.82 402.357 526.82 402.656V402.74C526.82 403.205 526.669 403.559 526.368 403.801C526.07 404.04 525.622 404.16 525.026 404.16ZM528.304 400.132V402.579C528.304 402.786 528.332 402.968 528.388 403.123C528.448 403.277 528.543 403.396 528.675 403.482C528.806 403.566 528.984 403.607 529.207 403.607C529.416 403.607 529.597 403.57 529.747 403.494C529.898 403.416 530.02 403.31 530.114 403.176C530.211 403.041 530.277 402.89 530.312 402.72L530.428 403.184H530.287C530.247 403.361 530.173 403.524 530.066 403.672C529.958 403.817 529.813 403.934 529.63 404.023C529.45 404.109 529.227 404.152 528.961 404.152C528.652 404.152 528.4 404.094 528.207 403.978C528.016 403.86 527.876 403.689 527.788 403.466C527.699 403.24 527.655 402.969 527.655 402.652V400.132H528.304ZM530.936 400.132V404.067H530.283L530.312 403.123L530.283 403.083V400.132H530.936ZM533.942 404.152C533.7 404.152 533.489 404.111 533.309 404.031C533.131 403.95 532.988 403.834 532.877 403.684C532.767 403.533 532.693 403.359 532.656 403.16H532.438L532.636 402.547C532.649 402.783 532.704 402.981 532.801 403.14C532.9 403.295 533.032 403.412 533.196 403.49C533.36 403.568 533.545 403.607 533.752 403.607C534.08 403.607 534.33 403.511 534.502 403.317C534.677 403.123 534.764 402.836 534.764 402.454V401.716C534.764 401.343 534.677 401.059 534.502 400.866C534.328 400.672 534.074 400.575 533.74 400.575C533.541 400.575 533.365 400.614 533.212 400.692C533.059 400.77 532.931 400.876 532.829 401.011C532.73 401.145 532.661 401.298 532.623 401.47L532.474 401.015H532.66C532.7 400.835 532.771 400.672 532.873 400.527C532.978 400.379 533.121 400.262 533.301 400.176C533.481 400.087 533.704 400.043 533.97 400.043C534.443 400.043 534.803 400.191 535.051 400.487C535.298 400.78 535.422 401.206 535.422 401.765V402.418C535.422 402.982 535.295 403.412 535.043 403.708C534.793 404.004 534.426 404.152 533.942 404.152ZM532.003 404.067V398.725H532.652V400.007L532.632 401.136L532.636 401.261V402.906L532.627 403.115L532.656 404.067H532.003ZM541.248 404.067V401.603C541.248 401.396 541.222 401.218 541.168 401.067C541.117 400.914 541.031 400.796 540.91 400.712C540.791 400.629 540.632 400.587 540.43 400.587C540.239 400.587 540.074 400.626 539.934 400.704C539.794 400.782 539.681 400.887 539.595 401.019C539.509 401.148 539.449 401.296 539.414 401.462L539.313 400.999H539.394C539.437 400.829 539.509 400.672 539.611 400.527C539.714 400.382 539.852 400.265 540.027 400.176C540.201 400.087 540.418 400.043 540.676 400.043C540.969 400.043 541.204 400.101 541.381 400.216C541.562 400.332 541.693 400.501 541.777 400.725C541.86 400.945 541.902 401.214 541.902 401.531V404.067H541.248ZM536.334 404.067V400.132H536.987L536.959 401.075L536.987 401.116V404.067H536.334ZM538.793 404.067V401.603C538.793 401.396 538.766 401.218 538.712 401.067C538.661 400.914 538.577 400.796 538.458 400.712C538.34 400.629 538.18 400.587 537.979 400.587C537.785 400.587 537.618 400.626 537.479 400.704C537.339 400.782 537.226 400.888 537.14 401.023C537.054 401.155 536.993 401.305 536.959 401.474L536.838 401.011H536.983C537.023 400.833 537.093 400.672 537.192 400.527C537.292 400.379 537.426 400.262 537.596 400.176C537.768 400.087 537.976 400.043 538.221 400.043C538.583 400.043 538.859 400.137 539.047 400.325C539.238 400.514 539.357 400.788 539.406 401.148C539.419 401.202 539.429 401.261 539.434 401.325C539.439 401.387 539.442 401.449 539.442 401.511V404.067H538.793ZM542.929 404.067V400.132H543.582V404.067H542.929ZM543.256 399.487C543.121 399.487 543.02 399.452 542.953 399.382C542.889 399.309 542.856 399.211 542.856 399.088V399.067C542.856 398.941 542.889 398.843 542.953 398.773C543.02 398.703 543.121 398.668 543.256 398.668C543.39 398.668 543.491 398.703 543.558 398.773C543.625 398.843 543.659 398.941 543.659 399.067V399.088C543.659 399.214 543.625 399.312 543.558 399.382C543.491 399.452 543.39 399.487 543.256 399.487ZM546.096 404.148C545.793 404.148 545.548 404.102 545.363 404.01C545.177 403.919 545.043 403.781 544.959 403.595C544.876 403.41 544.834 403.179 544.834 402.902V400.418H545.479V402.825C545.479 403.083 545.539 403.274 545.657 403.398C545.775 403.519 545.974 403.579 546.254 403.579C546.412 403.579 546.564 403.562 546.709 403.527C546.857 403.492 546.995 403.442 547.124 403.377L547.064 403.938C546.938 404.002 546.79 404.053 546.62 404.091C546.451 404.129 546.276 404.148 546.096 404.148ZM544.189 400.712V400.188H547.084L547.024 400.712H544.189ZM544.838 400.253L544.834 399.148L545.492 399.063L545.463 400.253H544.838Z" fill="white"/>
<defs>
<filter id="filter0_d_64_7987" x="0.645693" y="0.797539" width="649.709" height="514.709" filterUnits="userSpaceOnUse" color-interpolation-filters="sRGB">
<feFlood flood-opacity="0" result="BackgroundImageFix"/>
<feColorMatrix in="SourceAlpha" type="matrix" values="0 0 0 0 0 0 0 0 0 0 0 0 0 0 0 0 0 0 127 0" result="hardAlpha"/>
<feMorphology radius="6.05062" operator="dilate" in="SourceAlpha" result="effect1_dropShadow_64_7987"/>
<feOffset dy="18.1518"/>
<feGaussianBlur stdDeviation="18.1518"/>
<feComposite in2="hardAlpha" operator="out"/>
<feColorMatrix type="matrix" values="0 0 0 0 0.179053 0 0 0 0 0.161346 0 0 0 0 0.161346 0 0 0 0.1 0"/>
<feBlend mode="normal" in2="BackgroundImageFix" result="effect1_dropShadow_64_7987"/>
<feBlend mode="normal" in="SourceGraphic" in2="effect1_dropShadow_64_7987" result="shape"/>
</filter>
<clipPath id="clip0_64_7987">
<rect width="53" height="25" fill="white" transform="translate(70 50)"/>
</clipPath>
<clipPath id="clip1_64_7987">
<rect x="70.0957" y="171.678" width="511" height="6" rx="3" fill="white"/>
</clipPath>
</defs>
</svg>
