<svg width="72" height="72" viewBox="0 0 72 72" fill="none" xmlns="http://www.w3.org/2000/svg">
<path d="M57 48V19.5C57 16.2 54.3 13.5 51 13.5H34.5" stroke="#A8C0FF" stroke-width="2" stroke-linecap="round" stroke-linejoin="round"/>
<path d="M42 6L33 13.5L42 21" stroke="#A8C0FF" stroke-width="2" stroke-linecap="round" stroke-linejoin="round"/>
<path d="M15 24V52.5C15 55.8 17.7 58.5 21 58.5H37.5" stroke="#A8C0FF" stroke-width="2" stroke-linecap="round" stroke-linejoin="round"/>
<path d="M30 66L39 58.5L30 51" stroke="#A8C0FF" stroke-width="2" stroke-linecap="round" stroke-linejoin="round"/>
<path d="M57 66C61.9706 66 66 61.9706 66 57C66 52.0294 61.9706 48 57 48C52.0294 48 48 52.0294 48 57C48 61.9706 52.0294 66 57 66Z" stroke="#1A468F" stroke-width="2" stroke-linecap="round" stroke-linejoin="round"/>
<path d="M15 24C19.9706 24 24 19.9706 24 15C24 10.0294 19.9706 6 15 6C10.0294 6 6 10.0294 6 15C6 19.9706 10.0294 24 15 24Z" stroke="#1A468F" stroke-width="2" stroke-linecap="round" stroke-linejoin="round"/>
</svg>
