<svg width="72" height="72" viewBox="0 0 72 72" fill="none" xmlns="http://www.w3.org/2000/svg">
<path d="M38.76 6.78002L58.29 17.31C60.57 18.54 60.57 22.05 58.29 23.28L38.76 33.81C37.02 34.74 34.98 34.74 33.24 33.81L13.71 23.28C11.43 22.05 11.43 18.54 13.71 17.31L33.24 6.78002C34.98 5.85002 37.02 5.85002 38.76 6.78002Z" stroke="#A8C0FF" stroke-width="2" stroke-linecap="round" stroke-linejoin="round"/>
<path d="M10.83 30.39L28.98 39.48C31.23 40.62 32.67 42.93 32.67 45.45V62.61C32.67 65.1 30.06 66.69 27.84 65.58L9.69 56.49C7.44 55.35 6 53.04 6 50.52V33.36C6 30.87 8.61 29.28 10.83 30.39Z" stroke="#1A468F" stroke-width="2" stroke-linecap="round" stroke-linejoin="round"/>
<path d="M61.1701 30.39L43.0201 39.48C40.7701 40.62 39.3301 42.93 39.3301 45.45V62.61C39.3301 65.1 41.9401 66.69 44.1601 65.58L62.3101 56.49C64.5601 55.35 66.0001 53.04 66.0001 50.52V33.36C66.0001 30.87 63.3901 29.28 61.1701 30.39Z" stroke="#1A468F" stroke-width="2" stroke-linecap="round" stroke-linejoin="round"/>
</svg>
