<svg width="72" height="72" viewBox="0 0 72 72" fill="none" xmlns="http://www.w3.org/2000/svg">
<path d="M27 30C30.3137 30 33 27.3137 33 24C33 20.6863 30.3137 18 27 18C23.6863 18 21 20.6863 21 24C21 27.3137 23.6863 30 27 30Z" stroke="#A8C0FF" stroke-width="2" stroke-linecap="round" stroke-linejoin="round"/>
<path d="M8.01001 56.85L22.8 46.92C25.17 45.33 28.59 45.51 30.72 47.34L31.71 48.21C34.05 50.22 37.83 50.22 40.17 48.21L52.65 37.5C54.99 35.49 58.77 35.49 61.11 37.5L66 41.7" stroke="#A8C0FF" stroke-width="2" stroke-linecap="round" stroke-linejoin="round"/>
<path d="M27 66H45C60 66 66 60 66 45V27C66 12 60 6 45 6H27C12 6 6 12 6 27V45C6 60 12 66 27 66Z" stroke="#1A468F" stroke-width="2" stroke-linecap="round" stroke-linejoin="round"/>
</svg>
