<svg width="72" height="72" viewBox="0 0 72 72" fill="none" xmlns="http://www.w3.org/2000/svg">
<path d="M36 19.32V29.31" stroke="#A8C0FF" stroke-width="2" stroke-miterlimit="10" stroke-linecap="round"/>
<path d="M45.9898 57C45.9898 62.49 41.4898 66.99 35.9998 66.99C33.2698 66.99 30.7498 65.85 28.9498 64.05C27.1498 62.25 26.0098 59.73 26.0098 57" stroke="#A8C0FF" stroke-width="2" stroke-miterlimit="10"/>
<path d="M36.0597 6C25.0197 6 16.0797 14.94 16.0797 25.98V32.28C16.0797 34.32 15.2397 37.38 14.1897 39.12L10.3797 45.48C8.03969 49.41 9.65969 53.79 13.9797 55.23C28.3197 60 43.8297 60 58.1697 55.23C62.2197 53.88 63.9597 49.14 61.7697 45.48L57.9597 39.12C56.9097 37.38 56.0697 34.29 56.0697 32.28V25.98C56.0397 15 47.0397 6 36.0597 6Z" stroke="#1A468F" stroke-width="2" stroke-miterlimit="10" stroke-linecap="round"/>
</svg>
