<svg width="651" height="562" viewBox="0 0 651 562" fill="none" xmlns="http://www.w3.org/2000/svg">
<g filter="url(#filter0_d_64_7827)">
<rect x="43" y="25" width="565" height="476" rx="14.5215" fill="#F5F6F6"/>
</g>
<path d="M43 49.0853C43 35.7833 53.7833 25 67.0853 25H583.915C597.217 25 608 35.7833 608 49.0853V94.811H43V49.0853Z" fill="white"/>
<rect x="43" y="94.811" width="565" height="43.396" fill="#1A468F"/>
<path d="M73.6573 120.961C73.2311 120.961 72.8377 120.928 72.4771 120.862C72.1165 120.797 71.7934 120.715 71.5077 120.617C71.2267 120.518 70.9879 120.42 70.7912 120.322L70.6577 118.938C71.0183 119.144 71.4445 119.326 71.9362 119.486C72.4326 119.645 72.9689 119.724 73.5449 119.724C74.2006 119.724 74.6829 119.617 74.992 119.401C75.3011 119.181 75.4557 118.851 75.4557 118.411V118.305C75.4557 118.02 75.3925 117.786 75.266 117.603C75.1442 117.416 74.9358 117.256 74.6408 117.125C74.3457 116.989 73.9453 116.861 73.4395 116.739C72.7745 116.575 72.2359 116.383 71.8238 116.163C71.4164 115.938 71.119 115.659 70.9317 115.327C70.7443 114.99 70.6507 114.571 70.6507 114.069V113.999C70.6507 113.245 70.9012 112.664 71.4023 112.257C71.9034 111.85 72.6551 111.646 73.6573 111.646C74.2989 111.646 74.8469 111.709 75.3011 111.836C75.7601 111.957 76.1371 112.095 76.4321 112.25L76.5586 113.536C76.2167 113.339 75.8233 113.175 75.3784 113.044C74.9335 112.908 74.4324 112.84 73.8751 112.84C73.4395 112.84 73.0906 112.889 72.8284 112.988C72.5661 113.081 72.3764 113.219 72.2594 113.402C72.1423 113.58 72.0837 113.795 72.0837 114.048V114.076C72.0837 114.339 72.1423 114.564 72.2594 114.751C72.3764 114.938 72.5825 115.104 72.8776 115.25C73.1773 115.39 73.6011 115.531 74.1491 115.671C74.8 115.835 75.3245 116.02 75.7226 116.226C76.1254 116.427 76.4204 116.692 76.6078 117.02C76.7951 117.343 76.8888 117.769 76.8888 118.298V118.439C76.8888 119.268 76.6195 119.895 76.0809 120.322C75.5423 120.748 74.7345 120.961 73.6573 120.961ZM79.6135 113.922V118.165C79.6135 118.493 79.658 118.781 79.747 119.029C79.8407 119.273 79.9929 119.462 80.2036 119.598C80.4144 119.734 80.6977 119.802 81.0536 119.802C81.3908 119.802 81.6788 119.741 81.9177 119.619C82.1612 119.497 82.3602 119.333 82.5148 119.127C82.6693 118.917 82.7771 118.682 82.8379 118.425L83.0627 119.38H82.7677C82.6881 119.666 82.5569 119.928 82.3743 120.167C82.1916 120.406 81.9481 120.596 81.6437 120.736C81.3393 120.877 80.9623 120.947 80.5127 120.947C79.9788 120.947 79.5433 120.846 79.2061 120.645C78.8736 120.439 78.6277 120.141 78.4685 119.753C78.3139 119.359 78.2366 118.881 78.2366 118.319V113.922H79.6135ZM84.1656 113.922V120.792H82.7888L82.845 119.184L82.7888 119.099V113.922H84.1656ZM89.484 120.947C89.0766 120.947 88.7253 120.884 88.4303 120.757C88.1399 120.626 87.9034 120.443 87.7208 120.209C87.5381 119.97 87.4046 119.694 87.3203 119.38H86.8637L87.2501 118.081C87.2641 118.465 87.3461 118.785 87.496 119.043C87.6458 119.296 87.8519 119.486 88.1142 119.612C88.3811 119.739 88.6879 119.802 89.0344 119.802C89.5636 119.802 89.9687 119.65 90.2497 119.345C90.5307 119.036 90.6712 118.584 90.6712 117.989V116.676C90.6712 116.09 90.5307 115.645 90.2497 115.341C89.9734 115.037 89.5683 114.884 89.0344 114.884C88.716 114.884 88.4326 114.945 88.1844 115.067C87.9362 115.189 87.7301 115.355 87.5662 115.566C87.407 115.772 87.2946 116.008 87.229 116.275L86.9059 115.334H87.3063C87.3859 115.044 87.5124 114.781 87.6856 114.547C87.8589 114.308 88.0954 114.119 88.3952 113.978C88.6996 113.838 89.0812 113.767 89.5402 113.767C90.3598 113.767 90.9826 114.025 91.4088 114.54C91.8397 115.055 92.0551 115.807 92.0551 116.795V117.884C92.0551 118.881 91.8397 119.642 91.4088 120.167C90.978 120.687 90.3364 120.947 89.484 120.947ZM85.9083 123.209V113.922H87.2852L87.229 115.531L87.2501 115.938V118.818L87.2431 119.085L87.2782 121.031V123.209H85.9083ZM97.1126 120.947C96.7051 120.947 96.3539 120.884 96.0588 120.757C95.7685 120.626 95.532 120.443 95.3493 120.209C95.1667 119.97 95.0332 119.694 94.9489 119.38H94.4923L94.8787 118.081C94.8927 118.465 94.9747 118.785 95.1245 119.043C95.2744 119.296 95.4805 119.486 95.7427 119.612C96.0097 119.739 96.3164 119.802 96.663 119.802C97.1922 119.802 97.5973 119.65 97.8783 119.345C98.1593 119.036 98.2998 118.584 98.2998 117.989V116.676C98.2998 116.09 98.1593 115.645 97.8783 115.341C97.602 115.037 97.1969 114.884 96.663 114.884C96.3445 114.884 96.0612 114.945 95.813 115.067C95.5648 115.189 95.3587 115.355 95.1948 115.566C95.0356 115.772 94.9232 116.008 94.8576 116.275L94.5344 115.334H94.9349C95.0145 115.044 95.1409 114.781 95.3142 114.547C95.4875 114.308 95.724 114.119 96.0237 113.978C96.3281 113.838 96.7098 113.767 97.1688 113.767C97.9883 113.767 98.6112 114.025 99.0374 114.54C99.4682 115.055 99.6837 115.807 99.6837 116.795V117.884C99.6837 118.881 99.4682 119.642 99.0374 120.167C98.6065 120.687 97.9649 120.947 97.1126 120.947ZM93.5369 123.209V113.922H94.9138L94.8576 115.531L94.8787 115.938V118.818L94.8716 119.085L94.9068 121.031V123.209H93.5369ZM101.194 120.792V111.491H102.57V120.792H101.194ZM104.37 120.792V113.922H105.747V120.792L104.37 120.792ZM105.058 112.91C104.787 112.91 104.583 112.842 104.447 112.707C104.316 112.566 104.25 112.374 104.25 112.131V112.102C104.25 111.859 104.316 111.669 104.447 111.533C104.583 111.393 104.787 111.323 105.058 111.323C105.33 111.323 105.531 111.393 105.662 111.533C105.798 111.669 105.866 111.859 105.866 112.102V112.131C105.866 112.379 105.798 112.571 105.662 112.707C105.531 112.842 105.33 112.91 105.058 112.91ZM110.518 120.954C109.422 120.954 108.6 120.694 108.052 120.174C107.509 119.65 107.237 118.896 107.237 117.912V116.788C107.237 115.819 107.49 115.069 107.996 114.54C108.507 114.006 109.249 113.739 110.223 113.739C110.883 113.739 111.434 113.861 111.874 114.105C112.314 114.343 112.644 114.683 112.864 115.123C113.084 115.563 113.194 116.086 113.194 116.69V116.95C113.194 117.109 113.187 117.27 113.173 117.434C113.159 117.598 113.141 117.755 113.117 117.905H111.853C111.862 117.661 111.867 117.432 111.867 117.217C111.871 117.001 111.874 116.804 111.874 116.626C111.874 116.247 111.813 115.926 111.691 115.664C111.569 115.402 111.387 115.203 111.143 115.067C110.9 114.926 110.593 114.856 110.223 114.856C109.675 114.856 109.268 115.013 109.001 115.327C108.734 115.636 108.6 116.079 108.6 116.655V117.301L108.607 117.462V118.074C108.607 118.331 108.645 118.565 108.72 118.776C108.799 118.987 108.923 119.169 109.092 119.324C109.265 119.474 109.488 119.591 109.759 119.675C110.031 119.755 110.361 119.795 110.75 119.795C111.19 119.795 111.602 119.739 111.986 119.626C112.375 119.514 112.74 119.364 113.082 119.177L112.956 120.35C112.647 120.532 112.286 120.68 111.874 120.792C111.466 120.9 111.014 120.954 110.518 120.954ZM107.968 117.905V116.872H112.836V117.905H107.968ZM115.932 116.641L115.637 115.566H115.974C116.12 115.022 116.363 114.596 116.705 114.287C117.047 113.973 117.513 113.817 118.103 113.817C118.243 113.817 118.367 113.828 118.475 113.852C118.588 113.87 118.688 113.894 118.777 113.922L118.862 115.264C118.749 115.226 118.623 115.198 118.482 115.179C118.342 115.156 118.19 115.144 118.026 115.144C117.524 115.144 117.091 115.273 116.726 115.531C116.361 115.788 116.096 116.158 115.932 116.641ZM114.612 120.792V113.922H115.953L115.89 115.924L115.988 116.022V120.792H114.612ZM123.466 120.792V119.633H126.157C126.728 119.633 127.133 119.516 127.372 119.282C127.611 119.048 127.731 118.72 127.731 118.298V118.081C127.731 117.65 127.609 117.32 127.365 117.09C127.122 116.856 126.7 116.739 126.101 116.739H123.459V115.629H126.087C126.625 115.629 127.007 115.517 127.232 115.292C127.461 115.062 127.576 114.744 127.576 114.336V114.224C127.576 113.826 127.466 113.517 127.246 113.297C127.026 113.077 126.637 112.967 126.08 112.967H123.438V111.814H126.213C127.201 111.814 127.911 112.004 128.342 112.383C128.773 112.758 128.988 113.297 128.988 113.999V114.126C128.988 114.664 128.864 115.083 128.616 115.383C128.367 115.678 127.983 115.861 127.464 115.931V116.001C128.058 116.118 128.489 116.345 128.756 116.683C129.028 117.02 129.164 117.495 129.164 118.109V118.376C129.164 119.144 128.939 119.739 128.489 120.16C128.04 120.581 127.311 120.792 126.305 120.792H123.466ZM122.49 120.792V111.814H123.881V120.792H122.49ZM134.69 120.792L134.746 119.162L134.697 118.952V116.788L134.704 116.444C134.704 115.915 134.568 115.526 134.297 115.278C134.03 115.03 133.599 114.905 133.004 114.905C132.522 114.905 132.074 114.973 131.662 115.109C131.25 115.245 130.878 115.402 130.545 115.58L130.672 114.428C130.859 114.32 131.079 114.215 131.332 114.112C131.585 114.009 131.871 113.924 132.189 113.859C132.508 113.793 132.857 113.76 133.236 113.76C133.756 113.76 134.196 113.824 134.557 113.95C134.917 114.072 135.208 114.25 135.428 114.484C135.648 114.718 135.807 114.999 135.905 115.327C136.008 115.655 136.06 116.02 136.06 116.423V120.792H134.69ZM132.365 120.947C131.686 120.947 131.166 120.781 130.805 120.448C130.445 120.111 130.264 119.633 130.264 119.015V118.804C130.264 118.149 130.466 117.664 130.868 117.35C131.276 117.032 131.915 116.811 132.786 116.69L134.852 116.395L134.929 117.392L132.948 117.673C132.475 117.739 132.138 117.854 131.936 118.017C131.735 118.177 131.634 118.413 131.634 118.727V118.825C131.634 119.139 131.73 119.38 131.922 119.549C132.119 119.717 132.416 119.802 132.814 119.802C133.18 119.802 133.493 119.741 133.756 119.619C134.018 119.497 134.231 119.336 134.395 119.134C134.559 118.928 134.671 118.701 134.732 118.453L134.922 119.373H134.669C134.594 119.654 134.47 119.914 134.297 120.153C134.123 120.392 133.88 120.584 133.566 120.729C133.257 120.874 132.857 120.947 132.365 120.947ZM139.895 120.954C139.343 120.954 138.858 120.898 138.441 120.785C138.024 120.668 137.676 120.542 137.395 120.406L137.268 119.148C137.615 119.322 137.996 119.474 138.413 119.605C138.83 119.731 139.298 119.795 139.818 119.795C140.319 119.795 140.689 119.722 140.928 119.577C141.172 119.427 141.293 119.207 141.293 118.917V118.86C141.293 118.673 141.244 118.519 141.146 118.397C141.048 118.27 140.872 118.158 140.619 118.06C140.371 117.961 140.017 117.861 139.558 117.757C138.982 117.626 138.528 117.472 138.195 117.294C137.863 117.116 137.624 116.898 137.479 116.641C137.338 116.378 137.268 116.065 137.268 115.699V115.636C137.268 115.018 137.484 114.549 137.914 114.231C138.345 113.913 138.992 113.753 139.853 113.753C140.397 113.753 140.87 113.812 141.272 113.929C141.675 114.046 142.008 114.179 142.27 114.329L142.396 115.474C142.083 115.306 141.724 115.165 141.321 115.053C140.923 114.936 140.481 114.877 139.994 114.877C139.661 114.877 139.394 114.91 139.193 114.976C138.992 115.037 138.846 115.126 138.757 115.243C138.668 115.355 138.624 115.491 138.624 115.65V115.699C138.624 115.872 138.671 116.025 138.764 116.156C138.858 116.282 139.024 116.397 139.263 116.5C139.507 116.598 139.844 116.694 140.275 116.788C140.856 116.91 141.319 117.053 141.666 117.217C142.012 117.38 142.263 117.591 142.417 117.849C142.572 118.102 142.649 118.43 142.649 118.832V118.938C142.649 119.607 142.42 120.111 141.961 120.448C141.502 120.785 140.813 120.954 139.895 120.954ZM146.946 120.954C145.85 120.954 145.028 120.694 144.48 120.174C143.937 119.65 143.665 118.896 143.665 117.912V116.788C143.665 115.819 143.918 115.069 144.424 114.54C144.934 114.006 145.677 113.739 146.651 113.739C147.311 113.739 147.861 113.861 148.302 114.105C148.742 114.343 149.072 114.683 149.292 115.123C149.512 115.563 149.622 116.086 149.622 116.69V116.95C149.622 117.109 149.615 117.27 149.601 117.434C149.587 117.598 149.568 117.755 149.545 117.905H148.28C148.29 117.661 148.295 117.432 148.295 117.217C148.299 117.001 148.302 116.804 148.302 116.626C148.302 116.247 148.241 115.926 148.119 115.664C147.997 115.402 147.815 115.203 147.571 115.067C147.327 114.926 147.021 114.856 146.651 114.856C146.103 114.856 145.695 115.013 145.428 115.327C145.161 115.636 145.028 116.079 145.028 116.655V117.301L145.035 117.462V118.074C145.035 118.331 145.072 118.565 145.147 118.776C145.227 118.987 145.351 119.169 145.52 119.324C145.693 119.474 145.915 119.591 146.187 119.675C146.459 119.755 146.789 119.795 147.178 119.795C147.618 119.795 148.03 119.739 148.414 119.626C148.803 119.514 149.168 119.364 149.51 119.177L149.383 120.35C149.074 120.532 148.714 120.68 148.302 120.792C147.894 120.9 147.442 120.954 146.946 120.954ZM144.396 117.905V116.872H149.264V117.905H144.396Z" fill="white"/>
<g clip-path="url(#clip0_64_7827)">
<path d="M118.684 67.3026V58.3031C118.684 56.5701 117.447 56.2356 116.832 56.2356C116.216 56.2356 114.979 56.5701 114.979 58.3031V67.3026H110.374V58.3031C110.374 56.5701 109.137 56.2356 108.521 56.2356C107.905 56.2356 106.669 56.5701 106.669 58.3031V67.3026H102.063V52.2632H106.557V53.4944C107.485 52.5745 108.857 52.0959 110.07 52.0959C111.559 52.0959 112.767 52.5698 113.747 53.6896C115.068 52.542 116.276 52.0959 118.017 52.0959C119.449 52.0959 120.826 52.5698 121.638 53.3829C122.93 54.6699 123.294 56.0916 123.294 57.6898V67.3072H118.689L118.684 67.3026Z" fill="#1A468F"/>
<path d="M81.6908 53.4665C80.8229 52.5698 79.5025 52.0959 78.042 52.0959C76.4695 52.0959 75.485 52.5698 74.5611 53.4944V52.2632H70.0957V58.0662L72.0181 59.46L70.0957 60.8538V72.1623H74.7011V66.2061C75.541 67.047 76.5815 67.4652 78.07 67.4652C79.5584 67.4652 80.8229 66.9913 81.6955 66.0946C83.1 64.6404 83.128 62.3777 83.128 59.7759C83.128 57.1741 83.1 54.9115 81.6955 53.4572L81.6908 53.4665ZM76.6095 63.3348C74.8971 63.3348 74.7011 61.9642 74.7011 59.7852C74.7011 57.6062 74.8971 56.2356 76.6095 56.2356C78.3219 56.2356 78.5179 57.6062 78.5179 59.7852C78.5179 61.9642 78.3219 63.3348 76.6095 63.3348Z" fill="#1A468F"/>
<path d="M96.6455 59.4646L98.5772 58.0615V52.2632H94.1118V53.4944C93.1832 52.5698 92.2034 52.0959 90.6262 52.0959C89.1658 52.0959 87.8499 52.5698 86.9774 53.4665C85.5729 54.9208 85.5449 57.1834 85.5449 59.7852C85.5449 62.387 85.5729 64.6496 86.9774 66.1039C87.8499 67.0006 89.1378 67.4745 90.6029 67.4745C92.0681 67.4745 93.1272 67.0563 93.9718 66.2154V72.1716H98.5772V60.8677L96.6455 59.4646ZM92.0587 63.3348C90.3463 63.3348 90.1503 61.9642 90.1503 59.7852C90.1503 57.6062 90.3463 56.2356 92.0587 56.2356C93.7712 56.2356 93.9671 57.6062 93.9671 59.7852C93.9671 61.9642 93.7712 63.3348 92.0587 63.3348Z" fill="#1A468F"/>
</g>
<rect x="147.369" y="50.4717" width="204.725" height="18.8678" rx="9.43391" fill="#CEE1F2"/>
<rect x="560.833" y="50.4717" width="20.071" height="18.8678" rx="9.43391" fill="#CEE1F2"/>
<rect x="526.712" y="50.4717" width="20.071" height="18.8678" rx="9.43391" fill="#CEE1F2"/>
<rect x="492.592" y="50.4717" width="20.071" height="18.8678" rx="9.43391" fill="#CEE1F2"/>
<rect x="581.374" y="117.841" width="55.6657" height="2.27516" rx="1.13758" transform="rotate(-180 581.374 117.841)" fill="#CEE1F2"/>
<rect x="509.119" y="117.841" width="55.6657" height="2.27516" rx="1.13758" transform="rotate(-180 509.119 117.841)" fill="#CEE1F2"/>
<path d="M70.0957 168.519C70.0957 165.846 72.2629 163.678 74.9362 163.678H248.255C250.929 163.678 253.096 165.846 253.096 168.519V469.484C253.096 472.158 250.929 474.325 248.255 474.325H74.9362C72.2629 474.325 70.0957 472.158 70.0957 469.484V168.519Z" fill="white"/>
<path d="M84.1455 182.569C84.1455 179.895 86.3127 177.728 88.986 177.728H234.206C236.879 177.728 239.046 179.895 239.046 182.569V232.987C239.046 235.661 236.879 237.828 234.206 237.828H88.986C86.3127 237.828 84.1455 235.661 84.1455 232.987V182.569Z" fill="#CEE1F2"/>
<rect x="91.7454" y="199.307" width="99.2301" height="2.42025" rx="1.21012" fill="white"/>
<rect x="91.7454" y="206.568" width="55.6657" height="2.42025" rx="1.21012" fill="white"/>
<rect x="91.7454" y="213.829" width="99.2301" height="2.42025" rx="1.21012" fill="white"/>
<rect x="199.446" y="191.778" width="32" height="32" rx="3.04772" fill="white"/>
<rect x="205.946" y="198.278" width="17.67" height="17.67" rx="8.835" fill="white"/>
<rect x="205.946" y="198.278" width="17.67" height="17.67" rx="8.835" stroke="#117B34"/>
<path d="M218.465 207.396L214.781 202.862L211.097 207.396H213.364V211.364H216.198V207.396H218.465Z" stroke="#117B34" stroke-width="0.85" stroke-miterlimit="10" stroke-linecap="round" stroke-linejoin="round"/>
<path d="M84.1455 256.718C84.1455 254.045 86.3127 251.877 88.986 251.877H234.206C236.879 251.877 239.046 254.045 239.046 256.718V307.136C239.046 309.81 236.879 311.977 234.206 311.977H88.986C86.3127 311.977 84.1455 309.81 84.1455 307.136V256.718Z" fill="#CEE1F2"/>
<rect x="91.7454" y="273.456" width="99.2301" height="2.42025" rx="1.21012" fill="white"/>
<rect x="91.7454" y="280.717" width="55.6657" height="2.42025" rx="1.21012" fill="white"/>
<rect x="91.7454" y="287.978" width="99.2301" height="2.42025" rx="1.21012" fill="white"/>
<rect x="199.446" y="265.927" width="32" height="32" rx="3.04772" fill="white"/>
<rect x="205.946" y="272.427" width="17.67" height="17.67" rx="8.835" fill="white"/>
<rect x="205.946" y="272.427" width="17.67" height="17.67" rx="8.835" stroke="#117B34"/>
<path d="M218.465 281.546L214.781 277.012L211.097 281.546H213.364V285.513H216.198V281.546H218.465Z" stroke="#117B34" stroke-width="0.85" stroke-miterlimit="10" stroke-linecap="round" stroke-linejoin="round"/>
<path d="M84.1455 330.867C84.1455 328.194 86.3127 326.027 88.986 326.027H234.206C236.879 326.027 239.046 328.194 239.046 330.867V381.286C239.046 383.959 236.879 386.126 234.206 386.126H88.986C86.3127 386.126 84.1455 383.959 84.1455 381.286V330.867Z" fill="#CEE1F2"/>
<rect x="91.7454" y="347.605" width="99.2301" height="2.42025" rx="1.21012" fill="white"/>
<rect x="91.7454" y="354.866" width="55.6657" height="2.42025" rx="1.21012" fill="white"/>
<rect x="91.7454" y="362.127" width="99.2301" height="2.42025" rx="1.21012" fill="white"/>
<rect x="199.446" y="340.076" width="32" height="32" rx="3.04772" fill="white"/>
<rect x="205.946" y="346.576" width="17.67" height="17.67" rx="8.835" fill="white"/>
<rect x="205.946" y="346.576" width="17.67" height="17.67" rx="8.835" stroke="#DE3B40"/>
<path d="M218.465 355.128L214.781 359.662L211.097 355.128H213.364V351.161H216.198V355.128H218.465Z" stroke="#DE3B40" stroke-width="0.85" stroke-miterlimit="10" stroke-linecap="round" stroke-linejoin="round"/>
<path d="M84.1455 405.016C84.1455 402.343 86.3127 400.176 88.986 400.176H234.206C236.879 400.176 239.046 402.343 239.046 405.016V455.435C239.046 458.108 236.879 460.275 234.206 460.275H88.986C86.3127 460.275 84.1455 458.108 84.1455 455.435V405.016Z" fill="#CEE1F2"/>
<rect x="91.7454" y="421.755" width="99.2301" height="2.42025" rx="1.21012" fill="white"/>
<rect x="91.7454" y="429.016" width="55.6657" height="2.42025" rx="1.21012" fill="white"/>
<rect x="91.7454" y="436.276" width="99.2301" height="2.42025" rx="1.21012" fill="white"/>
<rect x="199.446" y="414.226" width="32" height="32" rx="3.04772" fill="white"/>
<rect x="205.946" y="420.726" width="17.67" height="17.67" rx="8.835" fill="white"/>
<rect x="205.946" y="420.726" width="17.67" height="17.67" rx="8.835" stroke="#117B34"/>
<path d="M218.465 429.844L214.781 425.31L211.097 429.844H213.364V433.811H216.198V429.844H218.465Z" stroke="#117B34" stroke-width="0.85" stroke-miterlimit="10" stroke-linecap="round" stroke-linejoin="round"/>
<path d="M277.096 168.519C277.096 165.846 279.263 163.678 281.936 163.678H576.063C578.737 163.678 580.904 165.846 580.904 168.519V469.484C580.904 472.158 578.737 474.325 576.063 474.325H281.936C279.263 474.325 277.096 472.158 277.096 469.484V168.519Z" fill="white"/>
<path d="M381.264 213.335C378.446 207.078 374.204 201.567 368.877 197.242C363.549 192.917 357.284 189.899 350.581 188.427L341.146 231.403L381.264 213.335Z" fill="#A8C0FF"/>
<path d="M383.59 231.403C383.59 226.178 382.659 220.994 380.841 216.095L339.59 231.403H383.59Z" fill="#CEE1F2"/>
<path d="M375.813 252.234C379.361 246.329 381.342 239.617 381.568 232.732L341.146 231.403L375.813 252.234Z" fill="#FF5959"/>
<path d="M331.987 278.521C341.342 280.34 351.027 279.332 359.808 275.627C368.588 271.922 376.067 265.686 381.291 257.715L341.146 231.403L331.987 278.521Z" fill="#FF71C6"/>
<path d="M307.938 260.27C314.105 267.363 322.38 272.296 331.553 274.345L341.146 231.403L307.938 260.27Z" fill="#52EB61"/>
<path d="M349.828 182.163C339.792 180.393 329.454 181.733 320.2 186.002C310.946 190.271 303.218 197.266 298.05 206.05C292.883 214.834 290.523 224.987 291.286 235.149C292.05 245.312 295.9 254.998 302.322 262.911L341.146 231.403L349.828 182.163Z" fill="#1A468F"/>
<g filter="url(#filter1_d_64_7827)">
<circle cx="341.146" cy="231.403" r="30" fill="white"/>
</g>
<circle opacity="0.05" cx="341.145" cy="231.403" r="25.6667" stroke="#454459" stroke-width="2"/>
<rect x="417.124" y="178.228" width="147.125" height="106.35" stroke="#BDBDBD" stroke-dasharray="1 1"/>
<path d="M416.624 199.778H564.749" stroke="#BDBDBD" stroke-dasharray="2 2"/>
<path d="M416.624 221.248H564.749" stroke="#BDBDBD" stroke-dasharray="2 2"/>
<path d="M416.624 242.718H564.749" stroke="#BDBDBD" stroke-dasharray="2 2"/>
<path d="M416.624 264.189H564.749" stroke="#BDBDBD" stroke-dasharray="2 2"/>
<path d="M454.095 177.728L454.095 285.078" stroke="#BDBDBD" stroke-dasharray="2 2"/>
<path d="M490.531 177.728L490.531 285.078" stroke="#BDBDBD" stroke-dasharray="2 2"/>
<path d="M527.853 177.728L527.853 285.078" stroke="#BDBDBD" stroke-dasharray="2 2"/>
<path d="M416.923 182.08C436.639 198.038 479.661 228.966 494.019 225.02C511.965 220.088 528.648 211.094 541.287 222.409C551.398 231.461 561.003 239.721 564.542 242.719" stroke="#1F48DA" stroke-width="2"/>
<ellipse cx="417.168" cy="182.37" rx="2.02218" ry="2.32108" fill="#1F48DA"/>
<ellipse cx="454.047" cy="208.483" rx="2.02218" ry="2.32108" fill="#1F48DA"/>
<ellipse cx="490.926" cy="225.31" rx="2.02218" ry="2.32108" fill="#1F48DA"/>
<ellipse cx="527.805" cy="217.187" rx="2.02218" ry="2.32108" fill="#1F48DA"/>
<ellipse cx="564.832" cy="242.719" rx="2.02218" ry="2.32108" fill="#1F48DA"/>
<path d="M417.364 270.309C427.728 275.532 451.792 284.062 465.138 276.402C481.821 266.828 503.054 246.228 510.385 238.685C517.715 231.141 526.057 220.696 539.959 234.333C553.862 247.969 560.181 261.315 564.984 262.476" stroke="#A8C0FF" stroke-width="2"/>
<ellipse cx="417.314" cy="270.31" rx="2.02218" ry="2.32108" fill="#A8C0FF"/>
<ellipse cx="454.193" cy="279.594" rx="2.02218" ry="2.32108" fill="#A8C0FF"/>
<ellipse cx="490.627" cy="257.544" rx="2.02218" ry="2.32108" fill="#A8C0FF"/>
<ellipse cx="528.1" cy="227.95" rx="2.02218" ry="2.32108" fill="#A8C0FF"/>
<ellipse cx="564.535" cy="262.186" rx="2.02218" ry="2.32108" fill="#A8C0FF"/>
<path d="M417.069 266.58C429.118 259.036 462.417 242.963 499.221 239.017C536.024 235.071 558.369 226.734 564.941 223.059" stroke="#7696EA" stroke-width="2"/>
<ellipse cx="417.314" cy="266.87" rx="2.02218" ry="2.32108" fill="#7696EA"/>
<ellipse cx="454.193" cy="249.461" rx="2.02218" ry="2.32108" fill="#7696EA"/>
<ellipse cx="490.627" cy="240.177" rx="2.02218" ry="2.32108" fill="#7696EA"/>
<ellipse cx="528.1" cy="234.955" rx="2.02218" ry="2.32108" fill="#7696EA"/>
<ellipse cx="564.535" cy="223.35" rx="2.02218" ry="2.32108" fill="#7696EA"/>
<rect x="346.811" y="311.499" width="55.6657" height="2.42025" rx="1.21012" transform="rotate(-180 346.811 311.499)" fill="#CEE1F2"/>
<rect x="410.477" y="311.499" width="55.6657" height="2.42025" rx="1.21012" transform="rotate(-180 410.477 311.499)" fill="#CEE1F2"/>
<rect x="474.143" y="311.499" width="55.6657" height="2.42025" rx="1.21012" transform="rotate(-180 474.143 311.499)" fill="#CEE1F2"/>
<path d="M291.146 331.499C291.146 329.289 292.936 327.499 295.146 327.499H562.854C565.063 327.499 566.854 329.289 566.854 331.499C566.854 333.708 565.063 335.499 562.854 335.499H295.146C292.936 335.499 291.146 333.708 291.146 331.499Z" fill="#CEE1F2"/>
<rect x="291.146" y="351.499" width="82.5364" height="2.42025" rx="1.21012" fill="#7696EA"/>
<rect x="291.146" y="358.759" width="82.5364" height="2.42025" rx="1.21012" fill="#7696EA"/>
<rect x="291.146" y="366.02" width="82.5364" height="2.42025" rx="1.21012" fill="#7696EA"/>
<rect x="387.732" y="351.499" width="82.5364" height="2.42025" rx="1.21012" fill="#7696EA"/>
<rect x="387.732" y="358.759" width="82.5364" height="2.42025" rx="1.21012" fill="#7696EA"/>
<rect x="387.732" y="366.02" width="82.5364" height="2.42025" rx="1.21012" fill="#7696EA"/>
<rect x="484.318" y="351.499" width="82.5364" height="2.42025" rx="1.21012" fill="#7696EA"/>
<rect x="484.318" y="358.759" width="82.5364" height="2.42025" rx="1.21012" fill="#7696EA"/>
<rect x="484.318" y="366.02" width="82.5364" height="2.42025" rx="1.21012" fill="#7696EA"/>
<rect x="291.146" y="384.44" width="82.5364" height="2.42025" rx="1.21012" fill="#CEE1F2"/>
<rect x="291.146" y="391.701" width="82.5364" height="2.42025" rx="1.21012" fill="#CEE1F2"/>
<rect x="291.146" y="398.962" width="82.5364" height="2.42025" rx="1.21012" fill="#CEE1F2"/>
<rect x="387.732" y="384.44" width="82.5364" height="2.42025" rx="1.21012" fill="#CEE1F2"/>
<rect x="387.732" y="391.701" width="82.5364" height="2.42025" rx="1.21012" fill="#CEE1F2"/>
<rect x="387.732" y="398.962" width="82.5364" height="2.42025" rx="1.21012" fill="#CEE1F2"/>
<rect x="484.318" y="384.44" width="82.5364" height="2.42025" rx="1.21012" fill="#CEE1F2"/>
<rect x="484.318" y="391.701" width="82.5364" height="2.42025" rx="1.21012" fill="#CEE1F2"/>
<rect x="484.318" y="398.962" width="82.5364" height="2.42025" rx="1.21012" fill="#CEE1F2"/>
<path d="M291.146 421.382C291.146 419.173 292.936 417.382 295.146 417.382H562.854C565.063 417.382 566.854 419.173 566.854 421.382C566.854 423.591 565.063 425.382 562.854 425.382H295.146C292.936 425.382 291.146 423.591 291.146 421.382Z" fill="#CEE1F2"/>
<rect x="291.146" y="441.382" width="82.5364" height="2.42025" rx="1.21012" fill="#7696EA"/>
<rect x="291.146" y="448.643" width="82.5364" height="2.42025" rx="1.21012" fill="#7696EA"/>
<rect x="291.146" y="455.903" width="82.5364" height="2.42025" rx="1.21012" fill="#7696EA"/>
<rect x="387.732" y="441.382" width="82.5364" height="2.42025" rx="1.21012" fill="#7696EA"/>
<rect x="387.732" y="448.643" width="82.5364" height="2.42025" rx="1.21012" fill="#7696EA"/>
<rect x="387.732" y="455.903" width="82.5364" height="2.42025" rx="1.21012" fill="#7696EA"/>
<rect x="484.318" y="441.382" width="82.5364" height="2.42025" rx="1.21012" fill="#7696EA"/>
<rect x="484.318" y="448.643" width="82.5364" height="2.42025" rx="1.21012" fill="#7696EA"/>
<rect x="484.318" y="455.903" width="82.5364" height="2.42025" rx="1.21012" fill="#7696EA"/>
<defs>
<filter id="filter0_d_64_7827" x="0.645693" y="0.797539" width="649.709" height="560.709" filterUnits="userSpaceOnUse" color-interpolation-filters="sRGB">
<feFlood flood-opacity="0" result="BackgroundImageFix"/>
<feColorMatrix in="SourceAlpha" type="matrix" values="0 0 0 0 0 0 0 0 0 0 0 0 0 0 0 0 0 0 127 0" result="hardAlpha"/>
<feMorphology radius="6.05062" operator="dilate" in="SourceAlpha" result="effect1_dropShadow_64_7827"/>
<feOffset dy="18.1518"/>
<feGaussianBlur stdDeviation="18.1518"/>
<feComposite in2="hardAlpha" operator="out"/>
<feColorMatrix type="matrix" values="0 0 0 0 0.179053 0 0 0 0 0.161346 0 0 0 0 0.161346 0 0 0 0.1 0"/>
<feBlend mode="normal" in2="BackgroundImageFix" result="effect1_dropShadow_64_7827"/>
<feBlend mode="normal" in="SourceGraphic" in2="effect1_dropShadow_64_7827" result="shape"/>
</filter>
<filter id="filter1_d_64_7827" x="286.146" y="181.403" width="110" height="110" filterUnits="userSpaceOnUse" color-interpolation-filters="sRGB">
<feFlood flood-opacity="0" result="BackgroundImageFix"/>
<feColorMatrix in="SourceAlpha" type="matrix" values="0 0 0 0 0 0 0 0 0 0 0 0 0 0 0 0 0 0 127 0" result="hardAlpha"/>
<feOffset dy="5"/>
<feGaussianBlur stdDeviation="12.5"/>
<feColorMatrix type="matrix" values="0 0 0 0 0 0 0 0 0 0 0 0 0 0 0 0 0 0 0.1 0"/>
<feBlend mode="normal" in2="BackgroundImageFix" result="effect1_dropShadow_64_7827"/>
<feBlend mode="normal" in="SourceGraphic" in2="effect1_dropShadow_64_7827" result="shape"/>
</filter>
<clipPath id="clip0_64_7827">
<rect width="53" height="25" fill="white" transform="translate(70 50)"/>
</clipPath>
</defs>
</svg>
