<svg width="517" height="825" viewBox="0 0 517 825" fill="none" xmlns="http://www.w3.org/2000/svg">
<g filter="url(#filter0_d_3_1144)">
<rect x="70" y="40" width="377" height="685" rx="24" fill="#F5F6F6"/>
</g>
<path d="M70 64C70 50.7452 80.7452 40 94 40H423C436.255 40 447 50.7452 447 64V191H70V64Z" fill="white"/>
<path d="M402 646C395.373 646 390 640.627 390 634L390 211C390 204.373 395.373 199 402 199L447 199L447 646L402 646Z" fill="white"/>
<g filter="url(#filter1_d_3_1144)">
<rect x="406" y="221" width="24" height="24" rx="12" fill="#1A468F"/>
</g>
<g filter="url(#filter2_d_3_1144)">
<rect x="406" y="263" width="24" height="24" rx="12" fill="#91A6D7"/>
</g>
<g filter="url(#filter3_d_3_1144)">
<rect x="406" y="305" width="24" height="24" rx="12" fill="#91A6D7"/>
</g>
<g filter="url(#filter4_d_3_1144)">
<rect x="406" y="347" width="24" height="24" rx="12" fill="#91A6D7"/>
</g>
<g filter="url(#filter5_d_3_1144)">
<rect x="406" y="389" width="24" height="24" rx="12" fill="#91A6D7"/>
</g>
<g filter="url(#filter6_d_3_1144)">
<rect x="406" y="431" width="24" height="24" rx="12" fill="#91A6D7"/>
</g>
<g filter="url(#filter7_d_3_1144)">
<rect x="406" y="473" width="24" height="24" rx="12" fill="#91A6D7"/>
</g>
<g filter="url(#filter8_d_3_1144)">
<rect x="406" y="515" width="24" height="24" rx="12" fill="#91A6D7"/>
</g>
<g filter="url(#filter9_d_3_1144)">
<rect x="406" y="557" width="24" height="24" rx="12" fill="#91A6D7"/>
</g>
<g filter="url(#filter10_d_3_1144)">
<rect x="406" y="599" width="24" height="24" rx="12" fill="#91A6D7"/>
</g>
<g clip-path="url(#clip0_3_1144)">
<path d="M261.753 70.1667C259.895 70.1667 258.036 70.1667 256.177 70.1667C256.179 71.0325 256.183 71.8984 256.185 72.7642C255.072 70.9777 253.135 69.8964 251.02 70.0996C249.186 70.2744 247.421 71.3415 246.541 72.9817C246.362 73.3151 246.222 73.6687 246.125 74.0325C245.68 75.7033 245.871 77.4756 245.83 79.185C245.761 82.1545 245.948 86.5244 249.371 87.5732C253.646 88.8842 256.175 86.1586 256.175 86.1586V94.0041H261.749V80.5163L259.385 79.0163L261.749 77.5163V70.1626L261.753 70.1667ZM255.72 81.3923C255.72 82.5671 254.77 83.5183 253.596 83.5183C252.422 83.5183 251.471 82.5671 251.471 81.3923V76.7907C251.471 75.6159 252.422 74.6647 253.596 74.6647C254.77 74.6647 255.72 75.6159 255.72 76.7907V81.3923Z" fill="#1A468F"/>
<path d="M264.69 87.6747V70.1605H269.484V72.7845C270.008 72.0243 270.715 71.3698 271.604 70.8231C272.492 70.2763 273.613 70.002 274.964 70.002C275.557 70.002 276.159 70.1076 276.774 70.3211C277.387 70.5345 277.966 70.8434 278.509 71.252C279.051 71.6605 279.49 72.1707 279.825 72.7865C280.384 71.9938 281.119 71.3312 282.029 70.7987C282.939 70.2682 283.953 70.002 285.07 70.002C285.718 70.002 286.374 70.1076 287.038 70.3211C287.702 70.5345 288.314 70.88 288.872 71.3597C289.431 71.8414 289.88 72.4796 290.221 73.2804C290.562 74.0792 290.733 75.067 290.733 76.2398V87.9515H285.84V76.8434C285.84 76.1503 285.704 75.5934 285.429 75.1747C285.155 74.756 284.81 74.4532 284.389 74.2682C283.971 74.0833 283.526 73.9918 283.057 73.9918C282.62 73.9918 282.179 74.0792 281.732 74.252C281.285 74.4247 280.906 74.7011 280.593 75.0812C280.28 75.4613 280.124 75.9593 280.124 76.5731V87.9495H275.247V76.4064C275.247 75.882 275.106 75.4389 274.828 75.0812C274.548 74.7235 274.2 74.4532 273.78 74.2682C273.362 74.0833 272.933 73.9918 272.498 73.9918C272.064 73.9918 271.604 74.0833 271.158 74.2682C270.711 74.4532 270.337 74.7377 270.034 75.1239C269.732 75.5101 269.581 75.9938 269.581 76.5751V87.9515H264.688L264.69 87.6747Z" fill="#1A468F"/>
<path d="M227 77.5184L229.364 79.0184L227 80.5163V94.0001H232.574V86.1546C232.574 86.1546 235.103 88.8781 239.379 87.5692C243.281 86.3741 242.895 80.3924 242.895 78.0367C242.895 74.3944 243.086 71.5184 239.22 70.4269C234.686 69.1464 232.574 72.7684 232.574 72.7684V70.1667H227V77.5204V77.5184ZM233.033 76.7907C233.033 75.6159 233.984 74.6647 235.158 74.6647C236.332 74.6647 237.282 75.6159 237.282 76.7907V81.3924C237.282 82.5672 236.332 83.5184 235.158 83.5184C233.984 83.5184 233.033 82.5672 233.033 81.3924V76.7907Z" fill="#1A468F"/>
</g>
<path d="M401 92H421" stroke="#1A468F" stroke-width="1.5" stroke-miterlimit="10" stroke-linecap="round" stroke-linejoin="round"/>
<path d="M408.75 74V92H413.25V74C413.25 72.9 412.8 72 411.45 72H410.55C409.2 72 408.75 72.9 408.75 74Z" stroke="#1A468F" stroke-width="1.5" stroke-linecap="round" stroke-linejoin="round"/>
<path opacity="0.4" d="M402 80V92H406V80C406 78.9 405.6 78 404.4 78H403.6C402.4 78 402 78.9 402 80Z" stroke="#A8C0FF" stroke-width="1.5" stroke-linecap="round" stroke-linejoin="round"/>
<path opacity="0.4" d="M416 85V92H420V85C420 83.9 419.6 83 418.4 83H417.6C416.4 83 416 83.9 416 85Z" stroke="#A8C0FF" stroke-width="1.5" stroke-linecap="round" stroke-linejoin="round"/>
<path d="M101 77H119" stroke="#1A468F" stroke-width="1.5" stroke-linecap="round"/>
<path opacity="0.34" d="M101 82H119" stroke="#A8C0FF" stroke-width="1.5" stroke-linecap="round"/>
<path d="M101 87H119" stroke="#1A468F" stroke-width="1.5" stroke-linecap="round"/>
<rect x="119.167" y="113" width="34" height="34" rx="8" fill="#CEE1F2"/>
<path d="M111.581 167H110.585V159.332H111.581V167ZM117.212 167V163.358C117.212 163.042 117.168 162.77 117.08 162.542C116.996 162.314 116.856 162.138 116.66 162.014C116.468 161.886 116.204 161.822 115.868 161.822C115.56 161.822 115.292 161.88 115.064 161.996C114.84 162.112 114.658 162.27 114.518 162.47C114.378 162.666 114.28 162.89 114.224 163.142L114.05 162.452H114.26C114.324 162.188 114.436 161.948 114.596 161.732C114.756 161.512 114.97 161.338 115.238 161.21C115.51 161.078 115.842 161.012 116.234 161.012C116.698 161.012 117.072 161.1 117.356 161.276C117.644 161.452 117.854 161.706 117.986 162.038C118.118 162.366 118.184 162.77 118.184 163.25V167H117.212ZM113.294 167V161.144H114.266L114.224 162.548L114.266 162.602V167H113.294ZM121.523 167.132C121.051 167.132 120.639 167.082 120.287 166.982C119.935 166.878 119.643 166.766 119.411 166.646L119.321 165.746C119.613 165.898 119.933 166.03 120.281 166.142C120.633 166.254 121.031 166.31 121.475 166.31C121.927 166.31 122.267 166.238 122.495 166.094C122.723 165.95 122.837 165.736 122.837 165.452V165.386C122.837 165.202 122.793 165.05 122.705 164.93C122.621 164.81 122.467 164.704 122.243 164.612C122.019 164.52 121.701 164.428 121.289 164.336C120.797 164.228 120.409 164.102 120.125 163.958C119.841 163.81 119.637 163.628 119.513 163.412C119.393 163.196 119.333 162.932 119.333 162.62V162.566C119.333 162.054 119.511 161.666 119.867 161.402C120.223 161.138 120.759 161.006 121.475 161.006C121.935 161.006 122.333 161.058 122.669 161.162C123.009 161.266 123.287 161.382 123.503 161.51L123.593 162.332C123.333 162.18 123.035 162.054 122.699 161.954C122.363 161.854 121.985 161.804 121.565 161.804C121.261 161.804 121.015 161.836 120.827 161.9C120.639 161.96 120.503 162.048 120.419 162.164C120.335 162.276 120.293 162.412 120.293 162.572V162.62C120.293 162.796 120.335 162.946 120.419 163.07C120.503 163.19 120.653 163.296 120.869 163.388C121.089 163.476 121.393 163.562 121.781 163.646C122.281 163.746 122.677 163.866 122.969 164.006C123.265 164.146 123.477 164.324 123.605 164.54C123.733 164.752 123.797 165.026 123.797 165.362V165.464C123.797 166.016 123.605 166.432 123.221 166.712C122.837 166.992 122.271 167.132 121.523 167.132ZM127.876 167.126C127.516 167.126 127.204 167.066 126.94 166.946C126.676 166.826 126.462 166.654 126.298 166.43C126.134 166.206 126.024 165.946 125.968 165.65H125.65L125.932 164.738C125.948 165.09 126.026 165.384 126.166 165.62C126.31 165.852 126.504 166.026 126.748 166.142C126.992 166.258 127.268 166.316 127.576 166.316C128.068 166.316 128.444 166.172 128.704 165.884C128.968 165.596 129.1 165.174 129.1 164.618V163.496C129.1 162.944 128.97 162.524 128.71 162.236C128.45 161.948 128.072 161.804 127.576 161.804C127.28 161.804 127.018 161.862 126.79 161.978C126.562 162.094 126.372 162.252 126.22 162.452C126.072 162.652 125.97 162.88 125.914 163.136L125.674 162.458H125.956C126.02 162.19 126.128 161.948 126.28 161.732C126.436 161.512 126.648 161.338 126.916 161.21C127.188 161.078 127.522 161.012 127.918 161.012C128.622 161.012 129.158 161.232 129.526 161.672C129.894 162.108 130.078 162.742 130.078 163.574V164.546C130.078 165.386 129.892 166.026 129.52 166.466C129.152 166.906 128.604 167.126 127.876 167.126ZM124.99 169.064V161.144H125.962L125.92 162.554L125.932 162.854V165.32L125.926 165.518L125.956 167.162V169.064H124.99ZM133.895 167.132C133.003 167.132 132.331 166.914 131.879 166.478C131.427 166.042 131.201 165.418 131.201 164.606V163.562C131.201 162.738 131.411 162.104 131.831 161.66C132.251 161.212 132.865 160.988 133.673 160.988C134.217 160.988 134.671 161.09 135.035 161.294C135.399 161.494 135.673 161.78 135.857 162.152C136.041 162.524 136.133 162.968 136.133 163.484V163.7C136.133 163.828 136.127 163.956 136.115 164.084C136.107 164.212 136.095 164.338 136.079 164.462H135.185C135.193 164.27 135.197 164.088 135.197 163.916C135.201 163.744 135.203 163.586 135.203 163.442C135.203 163.086 135.145 162.786 135.029 162.542C134.917 162.294 134.747 162.106 134.519 161.978C134.295 161.846 134.013 161.78 133.673 161.78C133.169 161.78 132.791 161.926 132.539 162.218C132.287 162.51 132.161 162.928 132.161 163.472V164.03L132.167 164.15V164.708C132.167 164.952 132.203 165.172 132.275 165.368C132.347 165.564 132.459 165.734 132.611 165.878C132.767 166.018 132.963 166.126 133.199 166.202C133.439 166.274 133.723 166.31 134.051 166.31C134.431 166.31 134.785 166.26 135.113 166.16C135.441 166.06 135.749 165.924 136.037 165.752L135.947 166.592C135.687 166.756 135.385 166.888 135.041 166.988C134.697 167.084 134.315 167.132 133.895 167.132ZM131.711 164.462V163.73H135.875V164.462H131.711ZM139.668 167.132C138.828 167.132 138.202 166.906 137.79 166.454C137.382 165.998 137.178 165.354 137.178 164.522V163.61C137.178 162.774 137.384 162.132 137.796 161.684C138.208 161.232 138.832 161.006 139.668 161.006C139.916 161.006 140.142 161.03 140.346 161.078C140.55 161.122 140.732 161.182 140.892 161.258C141.056 161.33 141.194 161.406 141.306 161.486L141.39 162.332C141.202 162.188 140.978 162.066 140.718 161.966C140.462 161.866 140.16 161.816 139.812 161.816C139.252 161.816 138.834 161.972 138.558 162.284C138.286 162.592 138.15 163.042 138.15 163.634V164.498C138.15 165.078 138.286 165.524 138.558 165.836C138.834 166.148 139.252 166.304 139.812 166.304C140.172 166.304 140.482 166.254 140.742 166.154C141.006 166.054 141.24 165.932 141.444 165.788L141.354 166.646C141.178 166.766 140.948 166.878 140.664 166.982C140.38 167.082 140.048 167.132 139.668 167.132ZM144.792 167.12C144.34 167.12 143.976 167.052 143.7 166.916C143.424 166.78 143.224 166.574 143.1 166.298C142.976 166.022 142.914 165.678 142.914 165.266V161.57H143.874V165.152C143.874 165.536 143.962 165.82 144.138 166.004C144.314 166.184 144.61 166.274 145.026 166.274C145.262 166.274 145.488 166.248 145.704 166.196C145.924 166.144 146.13 166.07 146.322 165.974L146.232 166.808C146.044 166.904 145.824 166.98 145.572 167.036C145.32 167.092 145.06 167.12 144.792 167.12ZM141.954 162.008V161.228H146.262L146.172 162.008H141.954ZM142.92 161.324L142.914 159.68L143.892 159.554L143.85 161.324H142.92ZM147.426 167V161.144H148.398V167H147.426ZM147.912 160.184C147.712 160.184 147.562 160.132 147.462 160.028C147.366 159.92 147.318 159.774 147.318 159.59V159.56C147.318 159.372 147.366 159.226 147.462 159.122C147.562 159.018 147.712 158.966 147.912 158.966C148.112 158.966 148.262 159.018 148.362 159.122C148.462 159.226 148.512 159.372 148.512 159.56V159.59C148.512 159.778 148.462 159.924 148.362 160.028C148.262 160.132 148.112 160.184 147.912 160.184ZM152.337 167.15C151.497 167.15 150.859 166.924 150.423 166.472C149.991 166.016 149.775 165.362 149.775 164.51V163.616C149.775 162.768 149.993 162.118 150.429 161.666C150.865 161.214 151.501 160.988 152.337 160.988C153.177 160.988 153.813 161.214 154.245 161.666C154.681 162.118 154.899 162.768 154.899 163.616V164.51C154.899 165.362 154.681 166.016 154.245 166.472C153.813 166.924 153.177 167.15 152.337 167.15ZM152.337 166.358C152.857 166.358 153.251 166.204 153.519 165.896C153.791 165.588 153.927 165.144 153.927 164.564V163.562C153.927 162.986 153.791 162.546 153.519 162.242C153.251 161.934 152.857 161.78 152.337 161.78C151.821 161.78 151.427 161.934 151.155 162.242C150.883 162.546 150.747 162.986 150.747 163.562V164.564C150.747 165.144 150.883 165.588 151.155 165.896C151.427 166.204 151.821 166.358 152.337 166.358ZM160.162 167V163.358C160.162 163.042 160.118 162.77 160.03 162.542C159.946 162.314 159.806 162.138 159.61 162.014C159.418 161.886 159.154 161.822 158.818 161.822C158.51 161.822 158.242 161.88 158.014 161.996C157.79 162.112 157.608 162.27 157.468 162.47C157.328 162.666 157.23 162.89 157.174 163.142L157 162.452H157.21C157.274 162.188 157.386 161.948 157.546 161.732C157.706 161.512 157.92 161.338 158.188 161.21C158.46 161.078 158.792 161.012 159.184 161.012C159.648 161.012 160.022 161.1 160.306 161.276C160.594 161.452 160.804 161.706 160.936 162.038C161.068 162.366 161.134 162.77 161.134 163.25V167H160.162ZM156.244 167V161.144H157.216L157.174 162.548L157.216 162.602V167H156.244Z" fill="#171A1F"/>
<rect x="243.5" y="113" width="34" height="34" rx="8" fill="#7696EA"/>
<path d="M252.418 159.332L255.532 165.932H255.604L255.562 162.584V159.332H256.534V167H255.058L251.908 160.346H251.836L251.878 163.85V167H250.906V159.332H252.418ZM260.909 167.138C259.961 167.138 259.249 166.872 258.773 166.34C258.301 165.808 258.065 165.052 258.065 164.072V162.254C258.065 161.274 258.301 160.52 258.773 159.992C259.245 159.46 259.953 159.194 260.897 159.194C261.201 159.194 261.477 159.222 261.725 159.278C261.977 159.334 262.201 159.406 262.397 159.494C262.593 159.582 262.759 159.674 262.895 159.77L262.979 160.694C262.743 160.526 262.465 160.38 262.145 160.256C261.829 160.128 261.457 160.064 261.029 160.064C260.385 160.064 259.899 160.256 259.571 160.64C259.243 161.02 259.079 161.562 259.079 162.266V164.036C259.079 164.736 259.245 165.28 259.577 165.668C259.909 166.052 260.405 166.244 261.065 166.244C261.489 166.244 261.863 166.182 262.187 166.058C262.515 165.934 262.799 165.782 263.039 165.602L262.955 166.55C262.819 166.646 262.651 166.74 262.451 166.832C262.251 166.924 262.021 166.998 261.761 167.054C261.505 167.11 261.221 167.138 260.909 167.138ZM268.911 167L268.695 165.428C268.655 165.132 268.587 164.876 268.491 164.66C268.395 164.44 268.247 164.268 268.047 164.144C267.851 164.02 267.571 163.958 267.207 163.958L265.125 163.952V163.166L267.351 163.16C267.875 163.16 268.249 163.032 268.473 162.776C268.697 162.516 268.809 162.164 268.809 161.72V161.54C268.809 161.1 268.695 160.76 268.467 160.52C268.239 160.276 267.859 160.154 267.327 160.154H265.095V159.332H267.459C268.283 159.332 268.881 159.514 269.253 159.878C269.629 160.238 269.817 160.736 269.817 161.372V161.576C269.817 162.076 269.699 162.486 269.463 162.806C269.227 163.122 268.835 163.314 268.287 163.382V163.502L267.861 163.352C268.305 163.384 268.647 163.482 268.887 163.646C269.131 163.806 269.309 164.026 269.421 164.306C269.533 164.586 269.619 164.922 269.679 165.314L269.937 167H268.911ZM264.441 167V159.332H265.419V163.43L265.425 163.808V167H264.441Z" fill="#171A1F"/>
<rect x="367.833" y="113" width="34" height="34" rx="8" fill="#A8C0FF"/>
<path d="M357.251 159.332L360.365 165.932H360.437L360.395 162.584V159.332H361.367V167H359.891L356.741 160.346H356.669L356.711 163.85V167H355.739V159.332H357.251ZM365.383 167.15C364.543 167.15 363.905 166.924 363.469 166.472C363.037 166.016 362.821 165.362 362.821 164.51V163.616C362.821 162.768 363.039 162.118 363.475 161.666C363.911 161.214 364.547 160.988 365.383 160.988C366.223 160.988 366.859 161.214 367.291 161.666C367.727 162.118 367.945 162.768 367.945 163.616V164.51C367.945 165.362 367.727 166.016 367.291 166.472C366.859 166.924 366.223 167.15 365.383 167.15ZM365.383 166.358C365.903 166.358 366.297 166.204 366.565 165.896C366.837 165.588 366.973 165.144 366.973 164.564V163.562C366.973 162.986 366.837 162.546 366.565 162.242C366.297 161.934 365.903 161.78 365.383 161.78C364.867 161.78 364.473 161.934 364.201 162.242C363.929 162.546 363.793 162.986 363.793 163.562V164.564C363.793 165.144 363.929 165.588 364.201 165.896C364.473 166.204 364.867 166.358 365.383 166.358ZM371.372 167.12C370.92 167.12 370.556 167.052 370.28 166.916C370.004 166.78 369.804 166.574 369.68 166.298C369.556 166.022 369.494 165.678 369.494 165.266V161.57H370.454V165.152C370.454 165.536 370.542 165.82 370.718 166.004C370.894 166.184 371.19 166.274 371.606 166.274C371.842 166.274 372.068 166.248 372.284 166.196C372.504 166.144 372.71 166.07 372.902 165.974L372.812 166.808C372.624 166.904 372.404 166.98 372.152 167.036C371.9 167.092 371.64 167.12 371.372 167.12ZM368.534 162.008V161.228H372.842L372.752 162.008H368.534ZM369.5 161.324L369.494 159.68L370.472 159.554L370.43 161.324H369.5ZM374.006 167V161.144H374.978V167H374.006ZM374.492 160.184C374.292 160.184 374.142 160.132 374.042 160.028C373.946 159.92 373.898 159.774 373.898 159.59V159.56C373.898 159.372 373.946 159.226 374.042 159.122C374.142 159.018 374.292 158.966 374.492 158.966C374.692 158.966 374.842 159.018 374.942 159.122C375.042 159.226 375.092 159.372 375.092 159.56V159.59C375.092 159.778 375.042 159.924 374.942 160.028C374.842 160.132 374.692 160.184 374.492 160.184ZM378.558 158.888C378.858 158.888 379.126 158.916 379.362 158.972C379.602 159.024 379.822 159.09 380.022 159.17L380.118 159.932C379.922 159.86 379.724 159.804 379.524 159.764C379.328 159.72 379.106 159.698 378.858 159.698C378.558 159.698 378.316 159.738 378.132 159.818C377.952 159.894 377.822 160.004 377.742 160.148C377.666 160.288 377.628 160.458 377.628 160.658V160.688C377.628 160.828 377.646 160.962 377.682 161.09C377.718 161.214 377.758 161.328 377.802 161.432L377.148 161.456V161.336C377.024 161.24 376.914 161.106 376.818 160.934C376.726 160.762 376.68 160.562 376.68 160.334V160.304C376.68 159.876 376.832 159.534 377.136 159.278C377.44 159.018 377.914 158.888 378.558 158.888ZM376.878 167V161.666H377.844V167H376.878ZM375.912 162.14V161.366L377.25 161.372L377.646 161.366H380.094L380.004 162.14H375.912ZM381.096 167V161.144H382.068V167H381.096ZM381.582 160.184C381.382 160.184 381.232 160.132 381.132 160.028C381.036 159.92 380.988 159.774 380.988 159.59V159.56C380.988 159.372 381.036 159.226 381.132 159.122C381.232 159.018 381.382 158.966 381.582 158.966C381.782 158.966 381.932 159.018 382.032 159.122C382.132 159.226 382.182 159.372 382.182 159.56V159.59C382.182 159.778 382.132 159.924 382.032 160.028C381.932 160.132 381.782 160.184 381.582 160.184ZM385.936 167.132C385.096 167.132 384.47 166.906 384.058 166.454C383.65 165.998 383.446 165.354 383.446 164.522V163.61C383.446 162.774 383.652 162.132 384.064 161.684C384.476 161.232 385.1 161.006 385.936 161.006C386.184 161.006 386.41 161.03 386.614 161.078C386.818 161.122 387 161.182 387.16 161.258C387.324 161.33 387.462 161.406 387.574 161.486L387.658 162.332C387.47 162.188 387.246 162.066 386.986 161.966C386.73 161.866 386.428 161.816 386.08 161.816C385.52 161.816 385.102 161.972 384.826 162.284C384.554 162.592 384.418 163.042 384.418 163.634V164.498C384.418 165.078 384.554 165.524 384.826 165.836C385.102 166.148 385.52 166.304 386.08 166.304C386.44 166.304 386.75 166.254 387.01 166.154C387.274 166.054 387.508 165.932 387.712 165.788L387.622 166.646C387.446 166.766 387.216 166.878 386.932 166.982C386.648 167.082 386.316 167.132 385.936 167.132ZM392.357 167L392.399 165.578L392.363 165.428V163.562L392.369 163.22C392.369 162.744 392.247 162.392 392.003 162.164C391.763 161.936 391.381 161.822 390.857 161.822C390.437 161.822 390.051 161.882 389.699 162.002C389.351 162.122 389.041 162.262 388.769 162.422L388.859 161.594C389.011 161.502 389.191 161.412 389.399 161.324C389.611 161.232 389.851 161.156 390.119 161.096C390.391 161.036 390.689 161.006 391.013 161.006C391.433 161.006 391.789 161.058 392.081 161.162C392.377 161.262 392.615 161.408 392.795 161.6C392.979 161.792 393.113 162.024 393.197 162.296C393.281 162.568 393.323 162.872 393.323 163.208V167H392.357ZM390.341 167.126C389.761 167.126 389.315 166.986 389.003 166.706C388.695 166.422 388.541 166.018 388.541 165.494V165.32C388.541 164.78 388.707 164.378 389.039 164.114C389.375 163.846 389.907 163.66 390.635 163.556L392.489 163.292L392.543 164L390.755 164.258C390.307 164.322 389.987 164.432 389.795 164.588C389.603 164.74 389.507 164.966 389.507 165.266V165.362C389.507 165.67 389.601 165.906 389.789 166.07C389.981 166.234 390.267 166.316 390.647 166.316C390.983 166.316 391.271 166.258 391.511 166.142C391.751 166.026 391.945 165.87 392.093 165.674C392.241 165.478 392.341 165.26 392.393 165.02L392.543 165.68H392.357C392.301 165.936 392.195 166.174 392.039 166.394C391.887 166.614 391.673 166.792 391.397 166.928C391.121 167.06 390.769 167.126 390.341 167.126ZM396.884 167.12C396.432 167.12 396.068 167.052 395.792 166.916C395.516 166.78 395.316 166.574 395.192 166.298C395.068 166.022 395.006 165.678 395.006 165.266V161.57H395.966V165.152C395.966 165.536 396.054 165.82 396.23 166.004C396.406 166.184 396.702 166.274 397.118 166.274C397.354 166.274 397.58 166.248 397.796 166.196C398.016 166.144 398.222 166.07 398.414 165.974L398.324 166.808C398.136 166.904 397.916 166.98 397.664 167.036C397.412 167.092 397.152 167.12 396.884 167.12ZM394.046 162.008V161.228H398.354L398.264 162.008H394.046ZM395.012 161.324L395.006 159.68L395.984 159.554L395.942 161.324H395.012ZM399.518 167V161.144H400.49V167H399.518ZM400.004 160.184C399.804 160.184 399.654 160.132 399.554 160.028C399.458 159.92 399.41 159.774 399.41 159.59V159.56C399.41 159.372 399.458 159.226 399.554 159.122C399.654 159.018 399.804 158.966 400.004 158.966C400.204 158.966 400.354 159.018 400.454 159.122C400.554 159.226 400.604 159.372 400.604 159.56V159.59C400.604 159.778 400.554 159.924 400.454 160.028C400.354 160.132 400.204 160.184 400.004 160.184ZM404.43 167.15C403.59 167.15 402.952 166.924 402.516 166.472C402.084 166.016 401.868 165.362 401.868 164.51V163.616C401.868 162.768 402.086 162.118 402.522 161.666C402.958 161.214 403.594 160.988 404.43 160.988C405.27 160.988 405.906 161.214 406.338 161.666C406.774 162.118 406.992 162.768 406.992 163.616V164.51C406.992 165.362 406.774 166.016 406.338 166.472C405.906 166.924 405.27 167.15 404.43 167.15ZM404.43 166.358C404.95 166.358 405.344 166.204 405.612 165.896C405.884 165.588 406.02 165.144 406.02 164.564V163.562C406.02 162.986 405.884 162.546 405.612 162.242C405.344 161.934 404.95 161.78 404.43 161.78C403.914 161.78 403.52 161.934 403.248 162.242C402.976 162.546 402.84 162.986 402.84 163.562V164.564C402.84 165.144 402.976 165.588 403.248 165.896C403.52 166.204 403.914 166.358 404.43 166.358ZM412.254 167V163.358C412.254 163.042 412.21 162.77 412.122 162.542C412.038 162.314 411.898 162.138 411.702 162.014C411.51 161.886 411.246 161.822 410.91 161.822C410.602 161.822 410.334 161.88 410.106 161.996C409.882 162.112 409.7 162.27 409.56 162.47C409.42 162.666 409.322 162.89 409.266 163.142L409.092 162.452H409.302C409.366 162.188 409.478 161.948 409.638 161.732C409.798 161.512 410.012 161.338 410.28 161.21C410.552 161.078 410.884 161.012 411.276 161.012C411.74 161.012 412.114 161.1 412.398 161.276C412.686 161.452 412.896 161.706 413.028 162.038C413.16 162.366 413.226 162.77 413.226 163.25V167H412.254ZM408.336 167V161.144H409.308L409.266 162.548L409.308 162.602V167H408.336Z" fill="#171A1F"/>
<path d="M98 227C98 222.582 101.582 219 106 219H350C354.418 219 358 222.582 358 227V281C358 285.418 354.418 289 350 289H106C101.582 289 98 285.418 98 281V227Z" fill="#1A468F"/>
<rect width="205" height="34" transform="translate(122 237)" fill="#1A468F"/>
<rect x="122" y="237" width="34" height="34" rx="8" fill="white"/>
<path d="M170.632 259L168.52 248.776H169.88L171.368 256.416L171.648 257.888H171.792L172.064 256.416L173.56 249.04H175.52L177.016 256.416L177.288 257.888H177.432L177.72 256.416L179.208 248.776H180.552L178.448 259H176.352L175.168 253.12L174.608 250.136H174.48L173.912 253.12L172.744 259H170.632ZM184.644 259.2C183.524 259.2 182.674 258.899 182.092 258.296C181.516 257.688 181.228 256.816 181.228 255.68V254.488C181.228 253.357 181.519 252.491 182.1 251.888C182.682 251.285 183.53 250.984 184.644 250.984C185.764 250.984 186.612 251.285 187.188 251.888C187.77 252.491 188.06 253.357 188.06 254.488V255.68C188.06 256.816 187.77 257.688 187.188 258.296C186.612 258.899 185.764 259.2 184.644 259.2ZM184.644 258.144C185.338 258.144 185.863 257.939 186.22 257.528C186.583 257.117 186.764 256.525 186.764 255.752V254.416C186.764 253.648 186.583 253.061 186.22 252.656C185.863 252.245 185.338 252.04 184.644 252.04C183.956 252.04 183.431 252.245 183.068 252.656C182.706 253.061 182.524 253.648 182.524 254.416V255.752C182.524 256.525 182.706 257.117 183.068 257.528C183.431 257.939 183.956 258.144 184.644 258.144ZM191.085 254.224L190.789 253.224L191.109 253.208C191.28 252.547 191.573 252.027 191.989 251.648C192.405 251.264 192.957 251.072 193.645 251.072C193.816 251.072 193.968 251.085 194.101 251.112C194.24 251.139 194.362 251.171 194.469 251.208L194.549 252.464C194.416 252.421 194.266 252.387 194.101 252.36C193.941 252.333 193.762 252.32 193.565 252.32C192.978 252.32 192.466 252.483 192.029 252.808C191.597 253.133 191.282 253.605 191.085 254.224ZM189.853 259V251.192H191.117L191.053 253.496L191.149 253.592V259H189.853ZM200.894 259L197.806 255.36H196.982V254.352H197.806L200.766 251.192H202.302L198.758 254.96V254.648L202.446 259H200.894ZM195.822 259V248.4H197.11V259H195.822ZM210.315 259.192C209.025 259.192 208.043 258.837 207.371 258.128C206.699 257.413 206.363 256.392 206.363 255.064V252.704C206.363 251.381 206.699 250.365 207.371 249.656C208.043 248.941 209.025 248.584 210.315 248.584C211.606 248.584 212.587 248.941 213.259 249.656C213.931 250.365 214.267 251.381 214.267 252.704V255.064C214.267 256.392 213.931 257.413 213.259 258.128C212.587 258.837 211.606 259.192 210.315 259.192ZM210.315 258.08C211.179 258.08 211.83 257.824 212.267 257.312C212.705 256.795 212.923 256.064 212.923 255.12V252.648C212.923 251.704 212.705 250.976 212.267 250.464C211.83 249.952 211.179 249.696 210.315 249.696C209.457 249.696 208.809 249.952 208.371 250.464C207.934 250.976 207.715 251.704 207.715 252.648V255.12C207.715 256.064 207.934 256.795 208.371 257.312C208.809 257.824 209.457 258.08 210.315 258.08ZM217.397 254.224L217.101 253.224L217.421 253.208C217.592 252.547 217.885 252.027 218.301 251.648C218.717 251.264 219.269 251.072 219.957 251.072C220.128 251.072 220.28 251.085 220.413 251.112C220.552 251.139 220.675 251.171 220.781 251.208L220.861 252.464C220.728 252.421 220.579 252.387 220.413 252.36C220.253 252.333 220.075 252.32 219.877 252.32C219.291 252.32 218.779 252.483 218.341 252.808C217.909 253.133 217.595 253.605 217.397 254.224ZM216.165 259V251.192H217.429L217.365 253.496L217.461 253.592V259H216.165ZM224.523 259.168C223.584 259.168 222.869 258.877 222.379 258.296C221.888 257.715 221.643 256.867 221.643 255.752V254.464C221.643 253.344 221.891 252.491 222.387 251.904C222.883 251.312 223.613 251.016 224.579 251.016C225.059 251.016 225.475 251.099 225.827 251.264C226.179 251.424 226.464 251.651 226.683 251.944C226.901 252.237 227.048 252.584 227.123 252.984H227.547L227.163 254.176C227.147 253.717 227.043 253.333 226.851 253.024C226.664 252.709 226.408 252.472 226.083 252.312C225.763 252.152 225.395 252.072 224.979 252.072C224.317 252.072 223.811 252.264 223.459 252.648C223.112 253.032 222.939 253.597 222.939 254.344V255.832C222.939 256.568 223.112 257.128 223.459 257.512C223.811 257.896 224.317 258.088 224.979 258.088C225.373 258.088 225.723 258.013 226.027 257.864C226.331 257.709 226.581 257.499 226.779 257.232C226.981 256.96 227.12 256.653 227.195 256.312L227.515 257.24H227.131C227.056 257.592 226.912 257.915 226.699 258.208C226.491 258.501 226.208 258.736 225.851 258.912C225.499 259.083 225.056 259.168 224.523 259.168ZM227.131 259L227.187 257.112L227.163 256.696V253.432L227.171 253.16L227.139 250.944V248.4H228.427V259H227.131ZM233.82 259.176C232.631 259.176 231.735 258.885 231.132 258.304C230.53 257.723 230.228 256.891 230.228 255.808V254.416C230.228 253.317 230.508 252.472 231.068 251.88C231.628 251.283 232.447 250.984 233.524 250.984C234.25 250.984 234.855 251.12 235.34 251.392C235.826 251.659 236.191 252.04 236.436 252.536C236.682 253.032 236.804 253.624 236.804 254.312V254.6C236.804 254.771 236.796 254.941 236.78 255.112C236.77 255.283 236.754 255.451 236.732 255.616H235.54C235.551 255.36 235.556 255.117 235.556 254.888C235.562 254.659 235.564 254.448 235.564 254.256C235.564 253.781 235.487 253.381 235.332 253.056C235.183 252.725 234.956 252.475 234.652 252.304C234.354 252.128 233.978 252.04 233.524 252.04C232.852 252.04 232.348 252.235 232.012 252.624C231.676 253.013 231.508 253.571 231.508 254.296V255.04L231.516 255.2V255.944C231.516 256.269 231.564 256.563 231.66 256.824C231.756 257.085 231.906 257.312 232.108 257.504C232.316 257.691 232.578 257.835 232.892 257.936C233.212 258.032 233.591 258.08 234.028 258.08C234.535 258.08 235.007 258.013 235.444 257.88C235.882 257.747 236.292 257.565 236.676 257.336L236.556 258.456C236.21 258.675 235.807 258.851 235.348 258.984C234.89 259.112 234.38 259.176 233.82 259.176ZM230.908 255.616V254.64H236.46V255.616H230.908ZM239.757 254.224L239.461 253.224L239.781 253.208C239.951 252.547 240.245 252.027 240.661 251.648C241.077 251.264 241.629 251.072 242.317 251.072C242.487 251.072 242.639 251.085 242.773 251.112C242.911 251.139 243.034 251.171 243.141 251.208L243.221 252.464C243.087 252.421 242.938 252.387 242.773 252.36C242.613 252.333 242.434 252.32 242.237 252.32C241.65 252.32 241.138 252.483 240.701 252.808C240.269 253.133 239.954 253.605 239.757 254.224ZM238.525 259V251.192H239.789L239.725 253.496L239.821 253.592V259H238.525ZM247.012 259.176C246.382 259.176 245.833 259.109 245.364 258.976C244.894 258.837 244.505 258.688 244.196 258.528L244.076 257.328C244.465 257.531 244.892 257.707 245.356 257.856C245.825 258.005 246.356 258.08 246.948 258.08C247.55 258.08 248.004 257.984 248.308 257.792C248.612 257.6 248.764 257.315 248.764 256.936V256.848C248.764 256.603 248.705 256.4 248.588 256.24C248.476 256.08 248.27 255.939 247.972 255.816C247.673 255.693 247.249 255.571 246.7 255.448C246.044 255.304 245.526 255.136 245.148 254.944C244.769 254.747 244.497 254.504 244.332 254.216C244.172 253.928 244.092 253.576 244.092 253.16V253.088C244.092 252.405 244.329 251.888 244.804 251.536C245.278 251.184 245.993 251.008 246.948 251.008C247.561 251.008 248.092 251.077 248.54 251.216C248.993 251.355 249.364 251.509 249.652 251.68L249.772 252.776C249.425 252.573 249.028 252.405 248.58 252.272C248.132 252.139 247.628 252.072 247.068 252.072C246.662 252.072 246.334 252.115 246.084 252.2C245.833 252.28 245.652 252.397 245.54 252.552C245.428 252.701 245.372 252.883 245.372 253.096V253.16C245.372 253.395 245.428 253.595 245.54 253.76C245.652 253.92 245.852 254.061 246.14 254.184C246.433 254.301 246.838 254.416 247.356 254.528C248.022 254.661 248.55 254.821 248.94 255.008C249.334 255.195 249.617 255.432 249.788 255.72C249.958 256.003 250.044 256.368 250.044 256.816V256.952C250.044 257.688 249.788 258.243 249.276 258.616C248.764 258.989 248.009 259.176 247.012 259.176ZM262.054 259C261.958 258.904 261.827 258.776 261.661 258.616C261.496 258.456 261.323 258.285 261.142 258.104C260.96 257.923 260.79 257.757 260.63 257.608C260.47 257.453 260.35 257.333 260.27 257.248L260.094 257.064L256.222 253.424L256.03 253.192C255.683 252.84 255.424 252.504 255.254 252.184C255.088 251.859 255.006 251.48 255.006 251.048V250.992C255.006 250.251 255.24 249.667 255.71 249.24C256.179 248.813 256.904 248.6 257.886 248.6C258.52 248.6 259.059 248.664 259.502 248.792C259.95 248.92 260.318 249.064 260.606 249.224L260.734 250.424C260.392 250.243 260.003 250.085 259.566 249.952C259.128 249.819 258.646 249.752 258.118 249.752C257.494 249.752 257.046 249.867 256.774 250.096C256.502 250.325 256.366 250.637 256.366 251.032V251.072C256.366 251.376 256.443 251.656 256.598 251.912C256.758 252.168 256.992 252.445 257.302 252.744L260.902 256.168L261.214 256.512C261.368 256.656 261.523 256.805 261.678 256.96C261.832 257.115 261.99 257.272 262.15 257.432C262.31 257.592 262.47 257.755 262.63 257.92C262.795 258.08 262.958 258.243 263.118 258.408C263.278 258.573 263.435 258.736 263.59 258.896V259H262.054ZM257.558 259.184C256.432 259.184 255.587 258.92 255.022 258.392C254.456 257.864 254.174 257.112 254.174 256.136V255.84C254.174 255.109 254.315 254.504 254.598 254.024C254.886 253.539 255.374 253.117 256.062 252.76L256.758 253.68C256.32 253.883 256.006 254.147 255.814 254.472C255.627 254.792 255.534 255.213 255.534 255.736V256.016C255.534 256.693 255.715 257.205 256.078 257.552C256.44 257.899 256.971 258.072 257.67 258.072C258.256 258.072 258.752 257.949 259.158 257.704C259.568 257.459 259.92 257.107 260.214 256.648L260.55 256.216C260.816 255.736 261.024 255.197 261.174 254.6C261.328 254.003 261.438 253.355 261.502 252.656H262.782C262.686 253.547 262.528 254.363 262.31 255.104C262.096 255.845 261.806 256.496 261.438 257.056L261.086 257.424C260.814 257.792 260.51 258.109 260.174 258.376C259.838 258.637 259.456 258.837 259.03 258.976C258.603 259.115 258.112 259.184 257.558 259.184ZM270.4 259.184C269.909 259.184 269.458 259.144 269.048 259.064C268.642 258.984 268.28 258.885 267.96 258.768C267.64 258.651 267.373 258.533 267.16 258.416L267.024 257.096C267.434 257.341 267.917 257.557 268.472 257.744C269.032 257.925 269.64 258.016 270.296 258.016C271.085 258.016 271.669 257.877 272.048 257.6C272.426 257.317 272.616 256.896 272.616 256.336V256.208C272.616 255.84 272.541 255.539 272.392 255.304C272.242 255.069 271.989 254.872 271.632 254.712C271.28 254.552 270.8 254.403 270.192 254.264C269.424 254.083 268.808 253.869 268.344 253.624C267.885 253.373 267.552 253.061 267.344 252.688C267.141 252.315 267.04 251.851 267.04 251.296V251.224C267.04 250.387 267.314 249.741 267.864 249.288C268.413 248.829 269.245 248.6 270.36 248.6C271.09 248.6 271.712 248.675 272.224 248.824C272.741 248.973 273.162 249.139 273.488 249.32L273.608 250.536C273.229 250.312 272.786 250.123 272.28 249.968C271.778 249.808 271.202 249.728 270.552 249.728C270.034 249.728 269.616 249.789 269.296 249.912C268.976 250.035 268.744 250.211 268.6 250.44C268.456 250.669 268.384 250.947 268.384 251.272V251.304C268.384 251.635 268.453 251.917 268.592 252.152C268.736 252.387 268.984 252.589 269.336 252.76C269.693 252.931 270.2 253.096 270.856 253.256C271.608 253.432 272.21 253.635 272.664 253.864C273.117 254.093 273.445 254.392 273.648 254.76C273.856 255.128 273.96 255.608 273.96 256.2V256.368C273.96 257.291 273.661 257.992 273.064 258.472C272.472 258.947 271.584 259.184 270.4 259.184ZM278.752 259.176C277.632 259.176 276.797 258.875 276.248 258.272C275.704 257.664 275.432 256.805 275.432 255.696V254.48C275.432 253.365 275.706 252.509 276.256 251.912C276.805 251.309 277.637 251.008 278.752 251.008C279.082 251.008 279.384 251.04 279.656 251.104C279.928 251.163 280.17 251.243 280.384 251.344C280.602 251.44 280.786 251.541 280.936 251.648L281.048 252.776C280.797 252.584 280.498 252.421 280.152 252.288C279.81 252.155 279.408 252.088 278.944 252.088C278.197 252.088 277.64 252.296 277.272 252.712C276.909 253.123 276.728 253.723 276.728 254.512V255.664C276.728 256.437 276.909 257.032 277.272 257.448C277.64 257.864 278.197 258.072 278.944 258.072C279.424 258.072 279.837 258.005 280.184 257.872C280.536 257.739 280.848 257.576 281.12 257.384L281 258.528C280.765 258.688 280.458 258.837 280.08 258.976C279.701 259.109 279.258 259.176 278.752 259.176ZM287.905 259V254.144C287.905 253.723 287.846 253.36 287.729 253.056C287.617 252.752 287.43 252.517 287.169 252.352C286.913 252.181 286.561 252.096 286.113 252.096C285.702 252.096 285.348 252.173 285.049 252.328C284.75 252.483 284.508 252.693 284.321 252.96C284.14 253.221 284.012 253.52 283.937 253.856L283.649 252.936H283.985C284.065 252.584 284.212 252.264 284.425 251.976C284.638 251.683 284.924 251.451 285.281 251.28C285.644 251.104 286.084 251.016 286.601 251.016C287.22 251.016 287.718 251.133 288.097 251.368C288.481 251.603 288.761 251.941 288.937 252.384C289.113 252.821 289.201 253.36 289.201 254V259H287.905ZM282.681 259V248.4H283.969V250.944L283.929 253.184L283.977 253.288V259H282.681ZM294.492 259.176C293.303 259.176 292.407 258.885 291.804 258.304C291.202 257.723 290.9 256.891 290.9 255.808V254.416C290.9 253.317 291.18 252.472 291.74 251.88C292.3 251.283 293.119 250.984 294.196 250.984C294.922 250.984 295.527 251.12 296.012 251.392C296.498 251.659 296.863 252.04 297.108 252.536C297.354 253.032 297.476 253.624 297.476 254.312V254.6C297.476 254.771 297.468 254.941 297.452 255.112C297.442 255.283 297.426 255.451 297.404 255.616H296.212C296.223 255.36 296.228 255.117 296.228 254.888C296.234 254.659 296.236 254.448 296.236 254.256C296.236 253.781 296.159 253.381 296.004 253.056C295.855 252.725 295.628 252.475 295.324 252.304C295.026 252.128 294.65 252.04 294.196 252.04C293.524 252.04 293.02 252.235 292.684 252.624C292.348 253.013 292.18 253.571 292.18 254.296V255.04L292.188 255.2V255.944C292.188 256.269 292.236 256.563 292.332 256.824C292.428 257.085 292.578 257.312 292.78 257.504C292.988 257.691 293.25 257.835 293.564 257.936C293.884 258.032 294.263 258.08 294.7 258.08C295.207 258.08 295.679 258.013 296.116 257.88C296.554 257.747 296.964 257.565 297.348 257.336L297.228 258.456C296.882 258.675 296.479 258.851 296.02 258.984C295.562 259.112 295.052 259.176 294.492 259.176ZM291.58 255.616V254.64H297.132V255.616H291.58ZM301.788 259.168C300.85 259.168 300.135 258.877 299.644 258.296C299.154 257.715 298.908 256.867 298.908 255.752V254.464C298.908 253.344 299.156 252.491 299.652 251.904C300.148 251.312 300.879 251.016 301.844 251.016C302.324 251.016 302.74 251.099 303.092 251.264C303.444 251.424 303.73 251.651 303.948 251.944C304.167 252.237 304.314 252.584 304.388 252.984H304.812L304.428 254.176C304.412 253.717 304.308 253.333 304.116 253.024C303.93 252.709 303.674 252.472 303.348 252.312C303.028 252.152 302.66 252.072 302.244 252.072C301.583 252.072 301.076 252.264 300.724 252.648C300.378 253.032 300.204 253.597 300.204 254.344V255.832C300.204 256.568 300.378 257.128 300.724 257.512C301.076 257.896 301.583 258.088 302.244 258.088C302.639 258.088 302.988 258.013 303.292 257.864C303.596 257.709 303.847 257.499 304.044 257.232C304.247 256.96 304.386 256.653 304.46 256.312L304.78 257.24H304.396C304.322 257.592 304.178 257.915 303.964 258.208C303.756 258.501 303.474 258.736 303.116 258.912C302.764 259.083 302.322 259.168 301.788 259.168ZM304.396 259L304.452 257.112L304.428 256.696V253.432L304.436 253.16L304.404 250.944V248.4H305.692V259H304.396ZM308.998 251.192V256.048C308.998 256.459 309.054 256.819 309.166 257.128C309.283 257.432 309.473 257.669 309.734 257.84C309.995 258.005 310.347 258.088 310.79 258.088C311.206 258.088 311.563 258.013 311.862 257.864C312.161 257.709 312.403 257.499 312.59 257.232C312.782 256.965 312.913 256.664 312.982 256.328L313.214 257.248H312.934C312.854 257.6 312.707 257.923 312.494 258.216C312.281 258.504 311.993 258.736 311.63 258.912C311.273 259.083 310.83 259.168 310.302 259.168C309.689 259.168 309.19 259.053 308.806 258.824C308.427 258.589 308.15 258.251 307.974 257.808C307.798 257.36 307.71 256.821 307.71 256.192V251.192H308.998ZM314.222 251.192V259H312.926L312.982 257.128L312.926 257.048V251.192H314.222ZM316.377 259V248.4H317.665V259H316.377ZM323.102 259.176C321.912 259.176 321.016 258.885 320.414 258.304C319.811 257.723 319.51 256.891 319.51 255.808V254.416C319.51 253.317 319.79 252.472 320.35 251.88C320.91 251.283 321.728 250.984 322.806 250.984C323.531 250.984 324.136 251.12 324.622 251.392C325.107 251.659 325.472 252.04 325.718 252.536C325.963 253.032 326.086 253.624 326.086 254.312V254.6C326.086 254.771 326.078 254.941 326.062 255.112C326.051 255.283 326.035 255.451 326.014 255.616H324.822C324.832 255.36 324.838 255.117 324.838 254.888C324.843 254.659 324.846 254.448 324.846 254.256C324.846 253.781 324.768 253.381 324.614 253.056C324.464 252.725 324.238 252.475 323.934 252.304C323.635 252.128 323.259 252.04 322.806 252.04C322.134 252.04 321.63 252.235 321.294 252.624C320.958 253.013 320.79 253.571 320.79 254.296V255.04L320.798 255.2V255.944C320.798 256.269 320.846 256.563 320.942 256.824C321.038 257.085 321.187 257.312 321.39 257.504C321.598 257.691 321.859 257.835 322.174 257.936C322.494 258.032 322.872 258.08 323.31 258.08C323.816 258.08 324.288 258.013 324.726 257.88C325.163 257.747 325.574 257.565 325.958 257.336L325.838 258.456C325.491 258.675 325.088 258.851 324.63 258.984C324.171 259.112 323.662 259.176 323.102 259.176ZM320.19 255.616V254.64H325.742V255.616H320.19Z" fill="white"/>
<path d="M98 311C98 306.582 101.582 303 106 303H350C354.418 303 358 306.582 358 311V377C358 381.418 354.418 385 350 385H106C101.582 385 98 381.418 98 377V311Z" fill="white"/>
<rect x="122" y="327" width="34" height="34" rx="5.03704" fill="#CEE1F2"/>
<path d="M139.384 350.704V339.914H139.243L136.352 341.536L136.402 339.582L139.465 337.829H141.399V350.704H139.384Z" fill="#7696EA"/>
<rect x="170" y="330" width="164" height="4" rx="2" fill="#CEE1F2"/>
<rect x="170" y="342" width="92" height="4" rx="2" fill="#CEE1F2"/>
<rect x="170" y="354" width="164" height="4" rx="2" fill="#CEE1F2"/>
<path d="M98 407C98 402.582 101.582 399 106 399H213C217.418 399 221 402.582 221 407V437C221 441.418 217.418 445 213 445H106C101.582 445 98 441.418 98 437V407Z" fill="#F32828"/>
<path d="M149.208 427V416.776H150.536V427H149.208ZM149.96 422.72V421.608H155.232V422.72H149.96ZM149.592 417.888V416.776H155.352V417.888H149.592ZM161.485 427L161.541 425.104L161.493 424.904V422.416L161.501 421.96C161.501 421.325 161.338 420.856 161.013 420.552C160.693 420.248 160.184 420.096 159.485 420.096C158.925 420.096 158.41 420.176 157.941 420.336C157.477 420.496 157.064 420.683 156.701 420.896L156.821 419.792C157.024 419.669 157.264 419.549 157.541 419.432C157.824 419.309 158.144 419.208 158.501 419.128C158.864 419.048 159.261 419.008 159.693 419.008C160.253 419.008 160.728 419.077 161.117 419.216C161.512 419.349 161.829 419.544 162.069 419.8C162.314 420.056 162.493 420.365 162.605 420.728C162.717 421.091 162.773 421.496 162.773 421.944V427H161.485ZM158.797 427.168C158.024 427.168 157.429 426.981 157.013 426.608C156.602 426.229 156.397 425.691 156.397 424.992V424.76C156.397 424.04 156.618 423.504 157.061 423.152C157.509 422.795 158.218 422.547 159.189 422.408L161.661 422.056L161.733 423L159.349 423.344C158.752 423.429 158.325 423.576 158.069 423.784C157.813 423.987 157.685 424.288 157.685 424.688V424.816C157.685 425.227 157.81 425.541 158.061 425.76C158.317 425.979 158.698 426.088 159.205 426.088C159.653 426.088 160.037 426.011 160.357 425.856C160.677 425.701 160.936 425.493 161.133 425.232C161.33 424.971 161.464 424.68 161.533 424.36L161.733 425.24H161.485C161.41 425.581 161.269 425.899 161.061 426.192C160.858 426.485 160.573 426.723 160.205 426.904C159.837 427.08 159.368 427.168 158.797 427.168ZM164.783 427V419.192H166.079V427H164.783ZM165.431 417.912C165.164 417.912 164.964 417.843 164.831 417.704C164.703 417.56 164.639 417.365 164.639 417.12V417.08C164.639 416.829 164.703 416.635 164.831 416.496C164.964 416.357 165.164 416.288 165.431 416.288C165.698 416.288 165.898 416.357 166.031 416.496C166.164 416.635 166.231 416.829 166.231 417.08V417.12C166.231 417.371 166.164 417.565 166.031 417.704C165.898 417.843 165.698 417.912 165.431 417.912ZM168.284 427V416.4H169.572V427H168.284Z" fill="white"/>
<path d="M235 407C235 402.582 238.582 399 243 399H350C354.418 399 358 402.582 358 407V437C358 441.418 354.418 445 350 445H243C238.582 445 235 441.418 235 437V407Z" fill="#2CB30A"/>
<path d="M283.072 423.6V422.496H285.976C286.675 422.496 287.181 422.323 287.496 421.976C287.811 421.624 287.968 421.141 287.968 420.528V419.832C287.968 419.208 287.811 418.725 287.496 418.384C287.187 418.043 286.685 417.872 285.992 417.872H283.064V416.776H286.016C287.157 416.776 287.987 417.045 288.504 417.584C289.027 418.117 289.288 418.853 289.288 419.792V420.56C289.288 421.509 289.024 422.253 288.496 422.792C287.973 423.331 287.144 423.6 286.008 423.6H283.072ZM282.208 427V416.776H283.512V422.824L283.52 423.416V427H282.208ZM295.438 427L295.494 425.104L295.446 424.904V422.416L295.454 421.96C295.454 421.325 295.291 420.856 294.966 420.552C294.646 420.248 294.137 420.096 293.438 420.096C292.878 420.096 292.363 420.176 291.894 420.336C291.43 420.496 291.017 420.683 290.654 420.896L290.774 419.792C290.977 419.669 291.217 419.549 291.494 419.432C291.777 419.309 292.097 419.208 292.454 419.128C292.817 419.048 293.214 419.008 293.646 419.008C294.206 419.008 294.681 419.077 295.07 419.216C295.465 419.349 295.782 419.544 296.022 419.8C296.267 420.056 296.446 420.365 296.558 420.728C296.67 421.091 296.726 421.496 296.726 421.944V427H295.438ZM292.75 427.168C291.977 427.168 291.382 426.981 290.966 426.608C290.555 426.229 290.35 425.691 290.35 424.992V424.76C290.35 424.04 290.571 423.504 291.014 423.152C291.462 422.795 292.171 422.547 293.142 422.408L295.614 422.056L295.686 423L293.302 423.344C292.705 423.429 292.278 423.576 292.022 423.784C291.766 423.987 291.638 424.288 291.638 424.688V424.816C291.638 425.227 291.763 425.541 292.014 425.76C292.27 425.979 292.651 426.088 293.158 426.088C293.606 426.088 293.99 426.011 294.31 425.856C294.63 425.701 294.889 425.493 295.086 425.232C295.283 424.971 295.417 424.68 295.486 424.36L295.686 425.24H295.438C295.363 425.581 295.222 425.899 295.014 426.192C294.811 426.485 294.526 426.723 294.158 426.904C293.79 427.08 293.321 427.168 292.75 427.168ZM301.137 427.176C300.507 427.176 299.958 427.109 299.489 426.976C299.019 426.837 298.63 426.688 298.321 426.528L298.201 425.328C298.59 425.531 299.017 425.707 299.481 425.856C299.95 426.005 300.481 426.08 301.073 426.08C301.675 426.08 302.129 425.984 302.433 425.792C302.737 425.6 302.889 425.315 302.889 424.936V424.848C302.889 424.603 302.83 424.4 302.713 424.24C302.601 424.08 302.395 423.939 302.097 423.816C301.798 423.693 301.374 423.571 300.825 423.448C300.169 423.304 299.651 423.136 299.273 422.944C298.894 422.747 298.622 422.504 298.457 422.216C298.297 421.928 298.217 421.576 298.217 421.16V421.088C298.217 420.405 298.454 419.888 298.929 419.536C299.403 419.184 300.118 419.008 301.073 419.008C301.686 419.008 302.217 419.077 302.665 419.216C303.118 419.355 303.489 419.509 303.777 419.68L303.897 420.776C303.55 420.573 303.153 420.405 302.705 420.272C302.257 420.139 301.753 420.072 301.193 420.072C300.787 420.072 300.459 420.115 300.209 420.2C299.958 420.28 299.777 420.397 299.665 420.552C299.553 420.701 299.497 420.883 299.497 421.096V421.16C299.497 421.395 299.553 421.595 299.665 421.76C299.777 421.92 299.977 422.061 300.265 422.184C300.558 422.301 300.963 422.416 301.481 422.528C302.147 422.661 302.675 422.821 303.065 423.008C303.459 423.195 303.742 423.432 303.913 423.72C304.083 424.003 304.169 424.368 304.169 424.816V424.952C304.169 425.688 303.913 426.243 303.401 426.616C302.889 426.989 302.134 427.176 301.137 427.176ZM308.152 427.176C307.523 427.176 306.974 427.109 306.504 426.976C306.035 426.837 305.646 426.688 305.336 426.528L305.216 425.328C305.606 425.531 306.032 425.707 306.496 425.856C306.966 426.005 307.496 426.08 308.088 426.08C308.691 426.08 309.144 425.984 309.448 425.792C309.752 425.6 309.904 425.315 309.904 424.936V424.848C309.904 424.603 309.846 424.4 309.728 424.24C309.616 424.08 309.411 423.939 309.112 423.816C308.814 423.693 308.39 423.571 307.84 423.448C307.184 423.304 306.667 423.136 306.288 422.944C305.91 422.747 305.638 422.504 305.472 422.216C305.312 421.928 305.232 421.576 305.232 421.16V421.088C305.232 420.405 305.47 419.888 305.944 419.536C306.419 419.184 307.134 419.008 308.088 419.008C308.702 419.008 309.232 419.077 309.68 419.216C310.134 419.355 310.504 419.509 310.792 419.68L310.912 420.776C310.566 420.573 310.168 420.405 309.72 420.272C309.272 420.139 308.768 420.072 308.208 420.072C307.803 420.072 307.475 420.115 307.224 420.2C306.974 420.28 306.792 420.397 306.68 420.552C306.568 420.701 306.512 420.883 306.512 421.096V421.16C306.512 421.395 306.568 421.595 306.68 421.76C306.792 421.92 306.992 422.061 307.28 422.184C307.574 422.301 307.979 422.416 308.496 422.528C309.163 422.661 309.691 422.821 310.08 423.008C310.475 423.195 310.758 423.432 310.928 423.72C311.099 424.003 311.184 424.368 311.184 424.816V424.952C311.184 425.688 310.928 426.243 310.416 426.616C309.904 426.989 309.15 427.176 308.152 427.176Z" fill="white"/>
<path d="M98 467C98 462.582 101.582 459 106 459H350C354.418 459 358 462.582 358 467V533C358 537.418 354.418 541 350 541H106C101.582 541 98 537.418 98 533V467Z" fill="white"/>
<rect x="121" y="483" width="34" height="34" rx="8" fill="#F5F6F6"/>
<mask id="mask0_3_1144" style="mask-type:luminance" maskUnits="userSpaceOnUse" x="128" y="490" width="20" height="20">
<path fill-rule="evenodd" clip-rule="evenodd" d="M128 490H147.96V509.95H128V490Z" fill="white"/>
</mask>
<g mask="url(#mask0_3_1144)">
<path fill-rule="evenodd" clip-rule="evenodd" d="M133.65 491.5C131.129 491.5 129.5 493.227 129.5 495.899V504.051C129.5 506.724 131.129 508.45 133.65 508.45H142.3C144.827 508.45 146.46 506.724 146.46 504.051V495.899C146.46 493.227 144.827 491.5 142.3 491.5H133.65ZM142.3 509.95H133.65C130.27 509.95 128 507.579 128 504.051V495.899C128 492.371 130.27 490 133.65 490H142.3C145.685 490 147.96 492.371 147.96 495.899V504.051C147.96 507.579 145.685 509.95 142.3 509.95Z" fill="#7696EA"/>
</g>
<path fill-rule="evenodd" clip-rule="evenodd" d="M131.281 505.18C131.095 505.18 130.91 505.112 130.765 504.974C130.464 504.69 130.452 504.214 130.737 503.915L132.265 502.302C133.074 501.443 134.439 501.401 135.302 502.211L136.26 503.183C136.527 503.453 136.961 503.458 137.229 503.194C137.33 503.075 139.508 500.43 139.508 500.43C139.922 499.928 140.506 499.618 141.155 499.554C141.805 499.497 142.436 499.686 142.939 500.099C142.982 500.134 143.021 500.168 145.217 502.423C145.506 502.719 145.501 503.194 145.204 503.483C144.908 503.774 144.432 503.765 144.143 503.469C144.143 503.469 142.094 501.366 141.948 501.224C141.793 501.097 141.544 501.023 141.299 501.047C141.05 501.072 140.826 501.191 140.667 501.384C138.343 504.203 138.315 504.23 138.277 504.267C137.419 505.109 136.034 505.095 135.191 504.235C135.191 504.235 134.261 503.291 134.245 503.272C134.014 503.058 133.602 503.072 133.355 503.333L131.825 504.946C131.677 505.102 131.479 505.18 131.281 505.18Z" fill="#7696EA"/>
<path fill-rule="evenodd" clip-rule="evenodd" d="M134.558 496.129C134.005 496.129 133.555 496.579 133.555 497.133C133.555 497.687 134.005 498.138 134.559 498.138C135.113 498.138 135.564 497.687 135.564 497.133C135.564 496.58 135.113 496.13 134.558 496.129ZM134.559 499.638C133.178 499.638 132.055 498.514 132.055 497.133C132.055 495.752 133.178 494.629 134.559 494.629C135.941 494.63 137.064 495.754 137.064 497.133C137.064 498.514 135.94 499.638 134.559 499.638Z" fill="#7696EA"/>
<rect x="166" y="483" width="34" height="34" rx="8" fill="#F5F6F6"/>
<mask id="mask1_3_1144" style="mask-type:luminance" maskUnits="userSpaceOnUse" x="173" y="490" width="20" height="20">
<path fill-rule="evenodd" clip-rule="evenodd" d="M173 490H192.96V509.95H173V490Z" fill="white"/>
</mask>
<g mask="url(#mask1_3_1144)">
<path fill-rule="evenodd" clip-rule="evenodd" d="M178.65 491.5C176.129 491.5 174.5 493.227 174.5 495.899V504.051C174.5 506.724 176.129 508.45 178.65 508.45H187.3C189.827 508.45 191.46 506.724 191.46 504.051V495.899C191.46 493.227 189.827 491.5 187.3 491.5H178.65ZM187.3 509.95H178.65C175.27 509.95 173 507.579 173 504.051V495.899C173 492.371 175.27 490 178.65 490H187.3C190.685 490 192.96 492.371 192.96 495.899V504.051C192.96 507.579 190.685 509.95 187.3 509.95Z" fill="#7696EA"/>
</g>
<path fill-rule="evenodd" clip-rule="evenodd" d="M176.281 505.18C176.095 505.18 175.91 505.112 175.765 504.974C175.464 504.69 175.452 504.214 175.737 503.915L177.265 502.302C178.074 501.443 179.439 501.401 180.302 502.211L181.26 503.183C181.527 503.453 181.961 503.458 182.229 503.194C182.33 503.075 184.508 500.43 184.508 500.43C184.922 499.928 185.506 499.618 186.155 499.554C186.805 499.497 187.436 499.686 187.939 500.099C187.982 500.134 188.021 500.168 190.217 502.423C190.506 502.719 190.501 503.194 190.204 503.483C189.908 503.774 189.432 503.765 189.143 503.469C189.143 503.469 187.094 501.366 186.948 501.224C186.793 501.097 186.544 501.023 186.299 501.047C186.05 501.072 185.826 501.191 185.667 501.384C183.343 504.203 183.315 504.23 183.277 504.267C182.419 505.109 181.034 505.095 180.191 504.235C180.191 504.235 179.261 503.291 179.245 503.272C179.014 503.058 178.602 503.072 178.355 503.333L176.825 504.946C176.677 505.102 176.479 505.18 176.281 505.18Z" fill="#7696EA"/>
<path fill-rule="evenodd" clip-rule="evenodd" d="M179.558 496.129C179.005 496.129 178.555 496.579 178.555 497.133C178.555 497.687 179.005 498.138 179.559 498.138C180.113 498.138 180.564 497.687 180.564 497.133C180.564 496.58 180.113 496.13 179.558 496.129ZM179.559 499.638C178.178 499.638 177.055 498.514 177.055 497.133C177.055 495.752 178.178 494.629 179.559 494.629C180.941 494.63 182.064 495.754 182.064 497.133C182.064 498.514 180.94 499.638 179.559 499.638Z" fill="#7696EA"/>
<rect x="211" y="483" width="34" height="34" rx="8" fill="#F5F6F6"/>
<mask id="mask2_3_1144" style="mask-type:luminance" maskUnits="userSpaceOnUse" x="218" y="490" width="20" height="20">
<path fill-rule="evenodd" clip-rule="evenodd" d="M218 490H237.96V509.95H218V490Z" fill="white"/>
</mask>
<g mask="url(#mask2_3_1144)">
<path fill-rule="evenodd" clip-rule="evenodd" d="M223.65 491.5C221.129 491.5 219.5 493.227 219.5 495.899V504.051C219.5 506.724 221.129 508.45 223.65 508.45H232.3C234.827 508.45 236.46 506.724 236.46 504.051V495.899C236.46 493.227 234.827 491.5 232.3 491.5H223.65ZM232.3 509.95H223.65C220.27 509.95 218 507.579 218 504.051V495.899C218 492.371 220.27 490 223.65 490H232.3C235.685 490 237.96 492.371 237.96 495.899V504.051C237.96 507.579 235.685 509.95 232.3 509.95Z" fill="#7696EA"/>
</g>
<path fill-rule="evenodd" clip-rule="evenodd" d="M221.281 505.18C221.095 505.18 220.91 505.112 220.765 504.974C220.464 504.69 220.452 504.214 220.737 503.915L222.265 502.302C223.074 501.443 224.439 501.401 225.302 502.211L226.26 503.183C226.527 503.453 226.961 503.458 227.229 503.194C227.33 503.075 229.508 500.43 229.508 500.43C229.922 499.928 230.506 499.618 231.155 499.554C231.805 499.497 232.436 499.686 232.939 500.099C232.982 500.134 233.021 500.168 235.217 502.423C235.506 502.719 235.501 503.194 235.204 503.483C234.908 503.774 234.432 503.765 234.143 503.469C234.143 503.469 232.094 501.366 231.948 501.224C231.793 501.097 231.544 501.023 231.299 501.047C231.05 501.072 230.826 501.191 230.667 501.384C228.343 504.203 228.315 504.23 228.277 504.267C227.419 505.109 226.034 505.095 225.191 504.235C225.191 504.235 224.261 503.291 224.245 503.272C224.014 503.058 223.602 503.072 223.355 503.333L221.825 504.946C221.677 505.102 221.479 505.18 221.281 505.18Z" fill="#7696EA"/>
<path fill-rule="evenodd" clip-rule="evenodd" d="M224.558 496.129C224.005 496.129 223.555 496.579 223.555 497.133C223.555 497.687 224.005 498.138 224.559 498.138C225.113 498.138 225.564 497.687 225.564 497.133C225.564 496.58 225.113 496.13 224.558 496.129ZM224.559 499.638C223.178 499.638 222.055 498.514 222.055 497.133C222.055 495.752 223.178 494.629 224.559 494.629C225.941 494.63 227.064 495.754 227.064 497.133C227.064 498.514 225.94 499.638 224.559 499.638Z" fill="#7696EA"/>
<rect x="256" y="483" width="34" height="34" rx="8" fill="#F5F6F6"/>
<mask id="mask3_3_1144" style="mask-type:luminance" maskUnits="userSpaceOnUse" x="263" y="490" width="20" height="20">
<path fill-rule="evenodd" clip-rule="evenodd" d="M263 490H282.96V509.95H263V490Z" fill="white"/>
</mask>
<g mask="url(#mask3_3_1144)">
<path fill-rule="evenodd" clip-rule="evenodd" d="M268.65 491.5C266.129 491.5 264.5 493.227 264.5 495.899V504.051C264.5 506.724 266.129 508.45 268.65 508.45H277.3C279.827 508.45 281.46 506.724 281.46 504.051V495.899C281.46 493.227 279.827 491.5 277.3 491.5H268.65ZM277.3 509.95H268.65C265.27 509.95 263 507.579 263 504.051V495.899C263 492.371 265.27 490 268.65 490H277.3C280.685 490 282.96 492.371 282.96 495.899V504.051C282.96 507.579 280.685 509.95 277.3 509.95Z" fill="#7696EA"/>
</g>
<path fill-rule="evenodd" clip-rule="evenodd" d="M266.281 505.18C266.095 505.18 265.91 505.112 265.765 504.974C265.464 504.69 265.452 504.214 265.737 503.915L267.265 502.302C268.074 501.443 269.439 501.401 270.302 502.211L271.26 503.183C271.527 503.453 271.961 503.458 272.229 503.194C272.33 503.075 274.508 500.43 274.508 500.43C274.922 499.928 275.506 499.618 276.155 499.554C276.805 499.497 277.436 499.686 277.939 500.099C277.982 500.134 278.021 500.168 280.217 502.423C280.506 502.719 280.501 503.194 280.204 503.483C279.908 503.774 279.432 503.765 279.143 503.469C279.143 503.469 277.094 501.366 276.948 501.224C276.793 501.097 276.544 501.023 276.299 501.047C276.05 501.072 275.826 501.191 275.667 501.384C273.343 504.203 273.315 504.23 273.277 504.267C272.419 505.109 271.034 505.095 270.191 504.235C270.191 504.235 269.261 503.291 269.245 503.272C269.014 503.058 268.602 503.072 268.355 503.333L266.825 504.946C266.677 505.102 266.479 505.18 266.281 505.18Z" fill="#7696EA"/>
<path fill-rule="evenodd" clip-rule="evenodd" d="M269.558 496.129C269.005 496.129 268.555 496.579 268.555 497.133C268.555 497.687 269.005 498.138 269.559 498.138C270.113 498.138 270.564 497.687 270.564 497.133C270.564 496.58 270.113 496.13 269.558 496.129ZM269.559 499.638C268.178 499.638 267.055 498.514 267.055 497.133C267.055 495.752 268.178 494.629 269.559 494.629C270.941 494.63 272.064 495.754 272.064 497.133C272.064 498.514 270.94 499.638 269.559 499.638Z" fill="#7696EA"/>
<path opacity="0.4" d="M312 500H324" stroke="#A8C0FF" stroke-width="1.5" stroke-linecap="round" stroke-linejoin="round"/>
<path d="M318 506V494" stroke="#1A468F" stroke-width="1.5" stroke-linecap="round" stroke-linejoin="round"/>
<rect x="301.5" y="483.5" width="33" height="33" rx="7.5" stroke="#91A6D7"/>
<path d="M98 563C98 558.582 101.582 555 106 555H350C354.418 555 358 558.582 358 563V629C358 633.418 354.418 637 350 637H106C101.582 637 98 633.418 98 629V563Z" fill="white"/>
<rect x="122" y="579" width="34" height="34" rx="5.03704" fill="#CEE1F2"/>
<path d="M134.725 602.704V600.82L137.929 597.757C138.52 597.193 139.017 596.689 139.42 596.246C139.829 595.796 140.142 595.36 140.357 594.937C140.571 594.513 140.679 594.063 140.679 593.587V593.486C140.679 593.036 140.592 592.653 140.417 592.337C140.242 592.015 139.97 591.77 139.601 591.602C139.238 591.427 138.765 591.34 138.181 591.34C137.522 591.34 136.904 591.444 136.327 591.652C135.749 591.861 135.239 592.099 134.796 592.368L134.977 590.564C135.239 590.403 135.548 590.249 135.904 590.101C136.26 589.953 136.659 589.832 137.103 589.738C137.553 589.644 138.05 589.597 138.594 589.597C139.977 589.597 141.011 589.913 141.696 590.544C142.388 591.176 142.734 592.072 142.734 593.234V593.375C142.734 594.04 142.616 594.644 142.381 595.188C142.153 595.726 141.814 596.26 141.364 596.79C140.921 597.321 140.373 597.898 139.722 598.523L137.254 600.9V601.334L136.428 600.991H142.915V602.704H134.725Z" fill="#7696EA"/>
<rect x="170" y="582" width="164" height="4" rx="2" fill="#CEE1F2"/>
<rect x="170" y="594" width="92" height="4" rx="2" fill="#CEE1F2"/>
<rect x="170" y="606" width="164" height="4" rx="2" fill="#CEE1F2"/>
<path d="M98 659C98 654.582 101.582 651 106 651H214.5C218.918 651 222.5 654.582 222.5 659V689C222.5 693.418 218.918 697 214.5 697H106C101.582 697 98 693.418 98 689V659Z" fill="#7696EA"/>
<path d="M143.374 679.184C142.11 679.184 141.161 678.829 140.526 678.12C139.897 677.411 139.582 676.403 139.582 675.096V672.672C139.582 671.365 139.897 670.36 140.526 669.656C141.155 668.947 142.099 668.592 143.358 668.592C143.763 668.592 144.131 668.629 144.462 668.704C144.798 668.779 145.097 668.875 145.358 668.992C145.619 669.109 145.841 669.232 146.022 669.36L146.134 670.592C145.819 670.368 145.449 670.173 145.022 670.008C144.601 669.837 144.105 669.752 143.534 669.752C142.675 669.752 142.027 670.008 141.59 670.52C141.153 671.027 140.934 671.749 140.934 672.688V675.048C140.934 675.981 141.155 676.707 141.598 677.224C142.041 677.736 142.702 677.992 143.582 677.992C144.147 677.992 144.646 677.909 145.078 677.744C145.515 677.579 145.894 677.376 146.214 677.136L146.102 678.4C145.921 678.528 145.697 678.653 145.43 678.776C145.163 678.899 144.857 678.997 144.51 679.072C144.169 679.147 143.79 679.184 143.374 679.184ZM152.469 679L152.525 677.104L152.477 676.904V674.416L152.485 673.96C152.485 673.325 152.323 672.856 151.997 672.552C151.677 672.248 151.168 672.096 150.469 672.096C149.909 672.096 149.395 672.176 148.925 672.336C148.461 672.496 148.048 672.683 147.685 672.896L147.805 671.792C148.008 671.669 148.248 671.549 148.525 671.432C148.808 671.309 149.128 671.208 149.485 671.128C149.848 671.048 150.245 671.008 150.677 671.008C151.237 671.008 151.712 671.077 152.101 671.216C152.496 671.349 152.813 671.544 153.053 671.8C153.299 672.056 153.477 672.365 153.589 672.728C153.701 673.091 153.757 673.496 153.757 673.944V679H152.469ZM149.781 679.168C149.008 679.168 148.413 678.981 147.997 678.608C147.587 678.229 147.381 677.691 147.381 676.992V676.76C147.381 676.04 147.603 675.504 148.045 675.152C148.493 674.795 149.203 674.547 150.173 674.408L152.645 674.056L152.717 675L150.333 675.344C149.736 675.429 149.309 675.576 149.053 675.784C148.797 675.987 148.669 676.288 148.669 676.688V676.816C148.669 677.227 148.795 677.541 149.045 677.76C149.301 677.979 149.683 678.088 150.189 678.088C150.637 678.088 151.021 678.011 151.341 677.856C151.661 677.701 151.92 677.493 152.117 677.232C152.315 676.971 152.448 676.68 152.517 676.36L152.717 677.24H152.469C152.395 677.581 152.253 677.899 152.045 678.192C151.843 678.485 151.557 678.723 151.189 678.904C150.821 679.08 150.352 679.168 149.781 679.168ZM160.968 679V674.144C160.968 673.723 160.909 673.36 160.792 673.056C160.68 672.752 160.493 672.517 160.232 672.352C159.976 672.181 159.624 672.096 159.176 672.096C158.765 672.096 158.408 672.173 158.104 672.328C157.805 672.483 157.562 672.693 157.376 672.96C157.189 673.221 157.058 673.52 156.984 673.856L156.752 672.936H157.032C157.117 672.584 157.266 672.264 157.48 671.976C157.693 671.683 157.978 671.451 158.336 671.28C158.698 671.104 159.141 671.016 159.664 671.016C160.282 671.016 160.781 671.133 161.16 671.368C161.544 671.603 161.824 671.941 162 672.384C162.176 672.821 162.264 673.36 162.264 674V679H160.968ZM155.743 679V671.192H157.039L156.984 673.064L157.039 673.136V679H155.743ZM167.283 679.176C166.163 679.176 165.328 678.875 164.779 678.272C164.235 677.664 163.963 676.805 163.963 675.696V674.48C163.963 673.365 164.237 672.509 164.787 671.912C165.336 671.309 166.168 671.008 167.283 671.008C167.613 671.008 167.915 671.04 168.187 671.104C168.459 671.163 168.701 671.243 168.915 671.344C169.133 671.44 169.317 671.541 169.467 671.648L169.579 672.776C169.328 672.584 169.029 672.421 168.683 672.288C168.341 672.155 167.939 672.088 167.475 672.088C166.728 672.088 166.171 672.296 165.803 672.712C165.44 673.123 165.259 673.723 165.259 674.512V675.664C165.259 676.437 165.44 677.032 165.803 677.448C166.171 677.864 166.728 678.072 167.475 678.072C167.955 678.072 168.368 678.005 168.715 677.872C169.067 677.739 169.379 677.576 169.651 677.384L169.531 678.528C169.296 678.688 168.989 678.837 168.611 678.976C168.232 679.109 167.789 679.176 167.283 679.176ZM174.352 679.176C173.162 679.176 172.266 678.885 171.664 678.304C171.061 677.723 170.76 676.891 170.76 675.808V674.416C170.76 673.317 171.04 672.472 171.6 671.88C172.16 671.283 172.978 670.984 174.056 670.984C174.781 670.984 175.386 671.12 175.872 671.392C176.357 671.659 176.722 672.04 176.968 672.536C177.213 673.032 177.336 673.624 177.336 674.312V674.6C177.336 674.771 177.328 674.941 177.312 675.112C177.301 675.283 177.285 675.451 177.264 675.616H176.072C176.082 675.36 176.088 675.117 176.088 674.888C176.093 674.659 176.096 674.448 176.096 674.256C176.096 673.781 176.018 673.381 175.864 673.056C175.714 672.725 175.488 672.475 175.184 672.304C174.885 672.128 174.509 672.04 174.056 672.04C173.384 672.04 172.88 672.235 172.544 672.624C172.208 673.013 172.04 673.571 172.04 674.296V675.04L172.048 675.2V675.944C172.048 676.269 172.096 676.563 172.192 676.824C172.288 677.085 172.437 677.312 172.64 677.504C172.848 677.691 173.109 677.835 173.424 677.936C173.744 678.032 174.122 678.08 174.56 678.08C175.066 678.08 175.538 678.013 175.976 677.88C176.413 677.747 176.824 677.565 177.208 677.336L177.088 678.456C176.741 678.675 176.338 678.851 175.88 678.984C175.421 679.112 174.912 679.176 174.352 679.176ZM171.44 675.616V674.64H176.992V675.616H171.44ZM179.096 679V668.4H180.384V679H179.096Z" fill="white"/>
<path d="M233.5 659C233.5 654.582 237.082 651 241.5 651H350C354.418 651 358 654.582 358 659V689C358 693.418 354.418 697 350 697H241.5C237.082 697 233.5 693.418 233.5 689V659Z" fill="#1A468F"/>
<path d="M275.306 679.184C274.815 679.184 274.365 679.144 273.954 679.064C273.549 678.984 273.186 678.885 272.866 678.768C272.546 678.651 272.279 678.533 272.066 678.416L271.93 677.096C272.341 677.341 272.823 677.557 273.378 677.744C273.938 677.925 274.546 678.016 275.202 678.016C275.991 678.016 276.575 677.877 276.954 677.6C277.333 677.317 277.522 676.896 277.522 676.336V676.208C277.522 675.84 277.447 675.539 277.298 675.304C277.149 675.069 276.895 674.872 276.538 674.712C276.186 674.552 275.706 674.403 275.098 674.264C274.33 674.083 273.714 673.869 273.25 673.624C272.791 673.373 272.458 673.061 272.25 672.688C272.047 672.315 271.946 671.851 271.946 671.296V671.224C271.946 670.387 272.221 669.741 272.77 669.288C273.319 668.829 274.151 668.6 275.266 668.6C275.997 668.6 276.618 668.675 277.13 668.824C277.647 668.973 278.069 669.139 278.394 669.32L278.514 670.536C278.135 670.312 277.693 670.123 277.186 669.968C276.685 669.808 276.109 669.728 275.458 669.728C274.941 669.728 274.522 669.789 274.202 669.912C273.882 670.035 273.65 670.211 273.506 670.44C273.362 670.669 273.29 670.947 273.29 671.272V671.304C273.29 671.635 273.359 671.917 273.498 672.152C273.642 672.387 273.89 672.589 274.242 672.76C274.599 672.931 275.106 673.096 275.762 673.256C276.514 673.432 277.117 673.635 277.57 673.864C278.023 674.093 278.351 674.392 278.554 674.76C278.762 675.128 278.866 675.608 278.866 676.2V676.368C278.866 677.291 278.567 677.992 277.97 678.472C277.378 678.947 276.49 679.184 275.306 679.184ZM281.811 671.192V676.048C281.811 676.459 281.867 676.819 281.979 677.128C282.096 677.432 282.285 677.669 282.547 677.84C282.808 678.005 283.16 678.088 283.602 678.088C284.019 678.088 284.376 678.013 284.675 677.864C284.973 677.709 285.216 677.499 285.403 677.232C285.595 676.965 285.725 676.664 285.795 676.328L286.027 677.248H285.747C285.667 677.6 285.52 677.923 285.307 678.216C285.093 678.504 284.805 678.736 284.443 678.912C284.085 679.083 283.643 679.168 283.115 679.168C282.501 679.168 282.003 679.053 281.618 678.824C281.24 678.589 280.963 678.251 280.787 677.808C280.611 677.36 280.523 676.821 280.523 676.192V671.192H281.811ZM287.035 671.192V679H285.739L285.795 677.128L285.739 677.048V671.192H287.035ZM292.998 679.168C292.518 679.168 292.099 679.088 291.742 678.928C291.39 678.768 291.104 678.539 290.886 678.24C290.667 677.941 290.52 677.595 290.446 677.2H290.014L290.406 675.984C290.432 676.453 290.542 676.845 290.734 677.16C290.931 677.469 291.192 677.701 291.518 677.856C291.843 678.011 292.211 678.088 292.622 678.088C293.272 678.088 293.768 677.896 294.11 677.512C294.456 677.128 294.63 676.557 294.63 675.8V674.336C294.63 673.595 294.456 673.032 294.11 672.648C293.763 672.264 293.259 672.072 292.598 672.072C292.203 672.072 291.854 672.149 291.55 672.304C291.246 672.459 290.992 672.669 290.79 672.936C290.592 673.203 290.456 673.507 290.382 673.848L290.086 672.944H290.454C290.534 672.587 290.675 672.264 290.878 671.976C291.086 671.683 291.368 671.451 291.726 671.28C292.083 671.104 292.526 671.016 293.054 671.016C293.992 671.016 294.707 671.309 295.198 671.896C295.688 672.477 295.934 673.323 295.934 674.432V675.728C295.934 676.848 295.683 677.701 295.182 678.288C294.686 678.875 293.958 679.168 292.998 679.168ZM289.15 679V668.4H290.438V670.944L290.398 673.184L290.406 673.432V676.696L290.39 677.112L290.446 679H289.15ZM307.496 679V674.112C307.496 673.701 307.442 673.347 307.336 673.048C307.234 672.744 307.064 672.509 306.824 672.344C306.589 672.179 306.272 672.096 305.872 672.096C305.493 672.096 305.165 672.173 304.888 672.328C304.61 672.483 304.386 672.691 304.216 672.952C304.045 673.208 303.925 673.501 303.856 673.832L303.656 672.912H303.816C303.901 672.576 304.045 672.264 304.248 671.976C304.45 671.688 304.725 671.456 305.072 671.28C305.418 671.104 305.848 671.016 306.36 671.016C306.941 671.016 307.408 671.131 307.76 671.36C308.117 671.589 308.378 671.925 308.544 672.368C308.709 672.805 308.792 673.339 308.792 673.968V679H307.496ZM297.743 679V671.192H299.039L298.984 673.064L299.039 673.144V679H297.743ZM302.624 679V674.112C302.624 673.701 302.57 673.347 302.464 673.048C302.362 672.744 302.194 672.509 301.96 672.344C301.725 672.179 301.408 672.096 301.008 672.096C300.624 672.096 300.293 672.173 300.016 672.328C299.738 672.483 299.514 672.693 299.344 672.96C299.173 673.221 299.053 673.52 298.984 673.856L298.743 672.936H299.032C299.112 672.584 299.25 672.264 299.448 671.976C299.645 671.683 299.912 671.451 300.248 671.28C300.589 671.104 301.002 671.016 301.488 671.016C302.208 671.016 302.754 671.203 303.128 671.576C303.506 671.949 303.744 672.493 303.84 673.208C303.866 673.315 303.885 673.432 303.896 673.56C303.906 673.683 303.912 673.805 303.912 673.928V679H302.624ZM310.83 679V671.192H312.126V679H310.83ZM311.478 669.912C311.211 669.912 311.011 669.843 310.878 669.704C310.75 669.56 310.686 669.365 310.686 669.12V669.08C310.686 668.829 310.75 668.635 310.878 668.496C311.011 668.357 311.211 668.288 311.478 668.288C311.745 668.288 311.945 668.357 312.078 668.496C312.211 668.635 312.278 668.829 312.278 669.08V669.12C312.278 669.371 312.211 669.565 312.078 669.704C311.945 669.843 311.745 669.912 311.478 669.912ZM317.115 679.16C316.512 679.16 316.027 679.069 315.659 678.888C315.291 678.707 315.024 678.432 314.859 678.064C314.693 677.696 314.611 677.237 314.611 676.688V671.76H315.891V676.536C315.891 677.048 316.008 677.427 316.243 677.672C316.477 677.912 316.872 678.032 317.427 678.032C317.741 678.032 318.043 677.997 318.331 677.928C318.624 677.859 318.899 677.76 319.155 677.632L319.035 678.744C318.784 678.872 318.491 678.973 318.155 679.048C317.819 679.123 317.472 679.16 317.115 679.16ZM313.331 672.344V671.304H319.075L318.955 672.344H313.331ZM314.619 671.432L314.611 669.24L315.915 669.072L315.859 671.432H314.619Z" fill="white"/>
<defs>
<filter id="filter0_d_3_1144" x="0" y="0" width="517" height="825" filterUnits="userSpaceOnUse" color-interpolation-filters="sRGB">
<feFlood flood-opacity="0" result="BackgroundImageFix"/>
<feColorMatrix in="SourceAlpha" type="matrix" values="0 0 0 0 0 0 0 0 0 0 0 0 0 0 0 0 0 0 127 0" result="hardAlpha"/>
<feMorphology radius="10" operator="dilate" in="SourceAlpha" result="effect1_dropShadow_3_1144"/>
<feOffset dy="30"/>
<feGaussianBlur stdDeviation="30"/>
<feComposite in2="hardAlpha" operator="out"/>
<feColorMatrix type="matrix" values="0 0 0 0 0.179053 0 0 0 0 0.161346 0 0 0 0 0.161346 0 0 0 0.2 0"/>
<feBlend mode="normal" in2="BackgroundImageFix" result="effect1_dropShadow_3_1144"/>
<feBlend mode="normal" in="SourceGraphic" in2="effect1_dropShadow_3_1144" result="shape"/>
</filter>
<filter id="filter1_d_3_1144" x="356" y="175" width="124" height="124" filterUnits="userSpaceOnUse" color-interpolation-filters="sRGB">
<feFlood flood-opacity="0" result="BackgroundImageFix"/>
<feColorMatrix in="SourceAlpha" type="matrix" values="0 0 0 0 0 0 0 0 0 0 0 0 0 0 0 0 0 0 127 0" result="hardAlpha"/>
<feMorphology radius="10" operator="dilate" in="SourceAlpha" result="effect1_dropShadow_3_1144"/>
<feOffset dy="4"/>
<feGaussianBlur stdDeviation="20"/>
<feComposite in2="hardAlpha" operator="out"/>
<feColorMatrix type="matrix" values="0 0 0 0 0 0 0 0 0 0 0 0 0 0 0 0 0 0 0.05 0"/>
<feBlend mode="normal" in2="BackgroundImageFix" result="effect1_dropShadow_3_1144"/>
<feBlend mode="normal" in="SourceGraphic" in2="effect1_dropShadow_3_1144" result="shape"/>
</filter>
<filter id="filter2_d_3_1144" x="356" y="217" width="124" height="124" filterUnits="userSpaceOnUse" color-interpolation-filters="sRGB">
<feFlood flood-opacity="0" result="BackgroundImageFix"/>
<feColorMatrix in="SourceAlpha" type="matrix" values="0 0 0 0 0 0 0 0 0 0 0 0 0 0 0 0 0 0 127 0" result="hardAlpha"/>
<feMorphology radius="10" operator="dilate" in="SourceAlpha" result="effect1_dropShadow_3_1144"/>
<feOffset dy="4"/>
<feGaussianBlur stdDeviation="20"/>
<feComposite in2="hardAlpha" operator="out"/>
<feColorMatrix type="matrix" values="0 0 0 0 0 0 0 0 0 0 0 0 0 0 0 0 0 0 0.05 0"/>
<feBlend mode="normal" in2="BackgroundImageFix" result="effect1_dropShadow_3_1144"/>
<feBlend mode="normal" in="SourceGraphic" in2="effect1_dropShadow_3_1144" result="shape"/>
</filter>
<filter id="filter3_d_3_1144" x="356" y="259" width="124" height="124" filterUnits="userSpaceOnUse" color-interpolation-filters="sRGB">
<feFlood flood-opacity="0" result="BackgroundImageFix"/>
<feColorMatrix in="SourceAlpha" type="matrix" values="0 0 0 0 0 0 0 0 0 0 0 0 0 0 0 0 0 0 127 0" result="hardAlpha"/>
<feMorphology radius="10" operator="dilate" in="SourceAlpha" result="effect1_dropShadow_3_1144"/>
<feOffset dy="4"/>
<feGaussianBlur stdDeviation="20"/>
<feComposite in2="hardAlpha" operator="out"/>
<feColorMatrix type="matrix" values="0 0 0 0 0 0 0 0 0 0 0 0 0 0 0 0 0 0 0.05 0"/>
<feBlend mode="normal" in2="BackgroundImageFix" result="effect1_dropShadow_3_1144"/>
<feBlend mode="normal" in="SourceGraphic" in2="effect1_dropShadow_3_1144" result="shape"/>
</filter>
<filter id="filter4_d_3_1144" x="356" y="301" width="124" height="124" filterUnits="userSpaceOnUse" color-interpolation-filters="sRGB">
<feFlood flood-opacity="0" result="BackgroundImageFix"/>
<feColorMatrix in="SourceAlpha" type="matrix" values="0 0 0 0 0 0 0 0 0 0 0 0 0 0 0 0 0 0 127 0" result="hardAlpha"/>
<feMorphology radius="10" operator="dilate" in="SourceAlpha" result="effect1_dropShadow_3_1144"/>
<feOffset dy="4"/>
<feGaussianBlur stdDeviation="20"/>
<feComposite in2="hardAlpha" operator="out"/>
<feColorMatrix type="matrix" values="0 0 0 0 0 0 0 0 0 0 0 0 0 0 0 0 0 0 0.05 0"/>
<feBlend mode="normal" in2="BackgroundImageFix" result="effect1_dropShadow_3_1144"/>
<feBlend mode="normal" in="SourceGraphic" in2="effect1_dropShadow_3_1144" result="shape"/>
</filter>
<filter id="filter5_d_3_1144" x="356" y="343" width="124" height="124" filterUnits="userSpaceOnUse" color-interpolation-filters="sRGB">
<feFlood flood-opacity="0" result="BackgroundImageFix"/>
<feColorMatrix in="SourceAlpha" type="matrix" values="0 0 0 0 0 0 0 0 0 0 0 0 0 0 0 0 0 0 127 0" result="hardAlpha"/>
<feMorphology radius="10" operator="dilate" in="SourceAlpha" result="effect1_dropShadow_3_1144"/>
<feOffset dy="4"/>
<feGaussianBlur stdDeviation="20"/>
<feComposite in2="hardAlpha" operator="out"/>
<feColorMatrix type="matrix" values="0 0 0 0 0 0 0 0 0 0 0 0 0 0 0 0 0 0 0.05 0"/>
<feBlend mode="normal" in2="BackgroundImageFix" result="effect1_dropShadow_3_1144"/>
<feBlend mode="normal" in="SourceGraphic" in2="effect1_dropShadow_3_1144" result="shape"/>
</filter>
<filter id="filter6_d_3_1144" x="356" y="385" width="124" height="124" filterUnits="userSpaceOnUse" color-interpolation-filters="sRGB">
<feFlood flood-opacity="0" result="BackgroundImageFix"/>
<feColorMatrix in="SourceAlpha" type="matrix" values="0 0 0 0 0 0 0 0 0 0 0 0 0 0 0 0 0 0 127 0" result="hardAlpha"/>
<feMorphology radius="10" operator="dilate" in="SourceAlpha" result="effect1_dropShadow_3_1144"/>
<feOffset dy="4"/>
<feGaussianBlur stdDeviation="20"/>
<feComposite in2="hardAlpha" operator="out"/>
<feColorMatrix type="matrix" values="0 0 0 0 0 0 0 0 0 0 0 0 0 0 0 0 0 0 0.05 0"/>
<feBlend mode="normal" in2="BackgroundImageFix" result="effect1_dropShadow_3_1144"/>
<feBlend mode="normal" in="SourceGraphic" in2="effect1_dropShadow_3_1144" result="shape"/>
</filter>
<filter id="filter7_d_3_1144" x="356" y="427" width="124" height="124" filterUnits="userSpaceOnUse" color-interpolation-filters="sRGB">
<feFlood flood-opacity="0" result="BackgroundImageFix"/>
<feColorMatrix in="SourceAlpha" type="matrix" values="0 0 0 0 0 0 0 0 0 0 0 0 0 0 0 0 0 0 127 0" result="hardAlpha"/>
<feMorphology radius="10" operator="dilate" in="SourceAlpha" result="effect1_dropShadow_3_1144"/>
<feOffset dy="4"/>
<feGaussianBlur stdDeviation="20"/>
<feComposite in2="hardAlpha" operator="out"/>
<feColorMatrix type="matrix" values="0 0 0 0 0 0 0 0 0 0 0 0 0 0 0 0 0 0 0.05 0"/>
<feBlend mode="normal" in2="BackgroundImageFix" result="effect1_dropShadow_3_1144"/>
<feBlend mode="normal" in="SourceGraphic" in2="effect1_dropShadow_3_1144" result="shape"/>
</filter>
<filter id="filter8_d_3_1144" x="356" y="469" width="124" height="124" filterUnits="userSpaceOnUse" color-interpolation-filters="sRGB">
<feFlood flood-opacity="0" result="BackgroundImageFix"/>
<feColorMatrix in="SourceAlpha" type="matrix" values="0 0 0 0 0 0 0 0 0 0 0 0 0 0 0 0 0 0 127 0" result="hardAlpha"/>
<feMorphology radius="10" operator="dilate" in="SourceAlpha" result="effect1_dropShadow_3_1144"/>
<feOffset dy="4"/>
<feGaussianBlur stdDeviation="20"/>
<feComposite in2="hardAlpha" operator="out"/>
<feColorMatrix type="matrix" values="0 0 0 0 0 0 0 0 0 0 0 0 0 0 0 0 0 0 0.05 0"/>
<feBlend mode="normal" in2="BackgroundImageFix" result="effect1_dropShadow_3_1144"/>
<feBlend mode="normal" in="SourceGraphic" in2="effect1_dropShadow_3_1144" result="shape"/>
</filter>
<filter id="filter9_d_3_1144" x="356" y="511" width="124" height="124" filterUnits="userSpaceOnUse" color-interpolation-filters="sRGB">
<feFlood flood-opacity="0" result="BackgroundImageFix"/>
<feColorMatrix in="SourceAlpha" type="matrix" values="0 0 0 0 0 0 0 0 0 0 0 0 0 0 0 0 0 0 127 0" result="hardAlpha"/>
<feMorphology radius="10" operator="dilate" in="SourceAlpha" result="effect1_dropShadow_3_1144"/>
<feOffset dy="4"/>
<feGaussianBlur stdDeviation="20"/>
<feComposite in2="hardAlpha" operator="out"/>
<feColorMatrix type="matrix" values="0 0 0 0 0 0 0 0 0 0 0 0 0 0 0 0 0 0 0.05 0"/>
<feBlend mode="normal" in2="BackgroundImageFix" result="effect1_dropShadow_3_1144"/>
<feBlend mode="normal" in="SourceGraphic" in2="effect1_dropShadow_3_1144" result="shape"/>
</filter>
<filter id="filter10_d_3_1144" x="356" y="553" width="124" height="124" filterUnits="userSpaceOnUse" color-interpolation-filters="sRGB">
<feFlood flood-opacity="0" result="BackgroundImageFix"/>
<feColorMatrix in="SourceAlpha" type="matrix" values="0 0 0 0 0 0 0 0 0 0 0 0 0 0 0 0 0 0 127 0" result="hardAlpha"/>
<feMorphology radius="10" operator="dilate" in="SourceAlpha" result="effect1_dropShadow_3_1144"/>
<feOffset dy="4"/>
<feGaussianBlur stdDeviation="20"/>
<feComposite in2="hardAlpha" operator="out"/>
<feColorMatrix type="matrix" values="0 0 0 0 0 0 0 0 0 0 0 0 0 0 0 0 0 0 0.05 0"/>
<feBlend mode="normal" in2="BackgroundImageFix" result="effect1_dropShadow_3_1144"/>
<feBlend mode="normal" in="SourceGraphic" in2="effect1_dropShadow_3_1144" result="shape"/>
</filter>
<clipPath id="clip0_3_1144">
<rect width="63.7311" height="24" fill="white" transform="translate(227 70)"/>
</clipPath>
</defs>
</svg>
