<svg width="423" height="445" viewBox="0 0 423 445" fill="none" xmlns="http://www.w3.org/2000/svg">
<g clip-path="url(#clip0_89_14123)">
<path d="M256.026 268.901C255.493 268.901 255.055 268.472 255.044 267.937C255.035 267.394 255.466 266.947 256.008 266.936C256.978 266.918 257.961 266.889 258.925 266.848C259.466 266.828 259.925 267.246 259.949 267.789C259.972 268.331 259.551 268.789 259.008 268.813C258.027 268.854 257.03 268.885 256.044 268.903C256.039 268.903 256.032 268.903 256.026 268.903V268.901ZM250.297 268.869C250.288 268.869 250.278 268.869 250.268 268.869C249.281 268.84 248.282 268.798 247.299 268.746C246.757 268.717 246.342 268.254 246.371 267.713C246.4 267.171 246.865 266.756 247.404 266.785C248.37 266.837 249.353 266.877 250.324 266.906C250.867 266.922 251.294 267.374 251.278 267.917C251.262 268.449 250.826 268.87 250.297 268.87V268.869ZM264.681 268.434C264.178 268.434 263.749 268.05 263.704 267.54C263.655 266.999 264.054 266.522 264.594 266.473C265.561 266.386 266.54 266.285 267.502 266.175C268.041 266.114 268.528 266.5 268.591 267.039C268.652 267.578 268.266 268.065 267.727 268.128C266.749 268.24 265.755 268.342 264.771 268.431C264.74 268.434 264.712 268.434 264.681 268.434ZM241.643 268.304C241.61 268.304 241.576 268.304 241.542 268.299C240.561 268.2 239.568 268.086 238.589 267.962C238.05 267.893 237.67 267.401 237.738 266.864C237.807 266.325 238.297 265.945 238.836 266.013C239.797 266.134 240.774 266.246 241.74 266.345C242.279 266.399 242.674 266.882 242.618 267.421C242.567 267.928 242.14 268.304 241.641 268.304H241.643ZM273.285 267.342C272.813 267.342 272.396 266.999 272.317 266.518C272.229 265.983 272.593 265.478 273.128 265.389C274.087 265.233 275.055 265.061 276.005 264.881C276.539 264.78 277.053 265.13 277.154 265.663C277.255 266.197 276.905 266.711 276.371 266.812C275.405 266.996 274.421 267.169 273.446 267.329C273.392 267.338 273.337 267.342 273.285 267.342ZM233.051 267.115C232.995 267.115 232.937 267.109 232.88 267.1C231.906 266.929 230.924 266.743 229.959 266.549C229.428 266.442 229.083 265.923 229.19 265.391C229.296 264.859 229.817 264.515 230.347 264.622C231.295 264.813 232.261 264.995 233.219 265.164C233.752 265.258 234.111 265.768 234.015 266.302C233.931 266.778 233.516 267.115 233.049 267.115H233.051ZM281.788 265.626C281.345 265.626 280.943 265.323 280.833 264.872C280.707 264.344 281.031 263.814 281.559 263.688C282.502 263.461 283.456 263.219 284.391 262.97C284.916 262.83 285.453 263.142 285.594 263.666C285.735 264.191 285.423 264.728 284.898 264.868C283.946 265.123 282.976 265.368 282.017 265.599C281.94 265.617 281.862 265.626 281.787 265.626H281.788ZM224.569 265.301C224.49 265.301 224.409 265.292 224.328 265.27C223.372 265.029 222.406 264.773 221.456 264.508C220.933 264.362 220.629 263.821 220.775 263.298C220.921 262.776 221.463 262.471 221.984 262.615C222.92 262.877 223.87 263.129 224.809 263.365C225.336 263.498 225.655 264.032 225.521 264.558C225.409 265.004 225.009 265.301 224.569 265.301ZM290.144 263.293C289.727 263.293 289.342 263.026 289.208 262.61C289.042 262.092 289.329 261.541 289.845 261.375C290.766 261.081 291.7 260.769 292.617 260.452C293.129 260.275 293.69 260.546 293.868 261.058C294.047 261.57 293.774 262.13 293.263 262.309C292.329 262.633 291.381 262.949 290.443 263.248C290.344 263.28 290.243 263.295 290.144 263.295V263.293ZM216.241 262.871C216.138 262.871 216.034 262.855 215.931 262.821C214.99 262.509 214.042 262.181 213.113 261.845C212.603 261.661 212.338 261.099 212.522 260.589C212.706 260.079 213.268 259.814 213.779 259.998C214.692 260.328 215.624 260.648 216.549 260.957C217.065 261.128 217.342 261.683 217.173 262.199C217.036 262.612 216.652 262.871 216.241 262.871ZM298.305 260.353C297.915 260.353 297.548 260.12 297.392 259.736C297.191 259.233 297.434 258.66 297.937 258.458C298.833 258.098 299.736 257.721 300.625 257.339C301.122 257.124 301.701 257.353 301.915 257.852C302.13 258.35 301.901 258.929 301.402 259.143C300.498 259.533 299.579 259.915 298.669 260.282C298.548 260.331 298.425 260.353 298.303 260.353H298.305ZM208.093 259.83C207.967 259.83 207.839 259.807 207.716 259.754C206.804 259.376 205.885 258.979 204.98 258.577C204.484 258.357 204.26 257.775 204.482 257.279C204.702 256.783 205.282 256.56 205.78 256.782C206.669 257.178 207.575 257.568 208.471 257.941C208.973 258.15 209.211 258.725 209.001 259.224C208.845 259.601 208.479 259.83 208.095 259.83H208.093ZM306.209 256.834C305.845 256.834 305.497 256.632 305.326 256.284C305.088 255.797 305.288 255.208 305.777 254.97C306.647 254.543 307.522 254.101 308.378 253.656C308.859 253.405 309.452 253.593 309.703 254.074C309.954 254.555 309.766 255.148 309.285 255.399C308.414 255.851 307.525 256.302 306.64 256.735C306.501 256.803 306.354 256.836 306.209 256.836V256.834ZM200.194 256.201C200.044 256.201 199.894 256.167 199.752 256.095C198.87 255.65 197.982 255.188 197.111 254.721C196.633 254.465 196.453 253.868 196.709 253.391C196.965 252.913 197.562 252.733 198.039 252.989C198.896 253.448 199.77 253.903 200.637 254.341C201.122 254.586 201.317 255.175 201.071 255.66C200.898 256.003 200.552 256.201 200.194 256.201ZM313.842 252.747C313.505 252.747 313.175 252.572 312.993 252.26C312.719 251.792 312.878 251.19 313.346 250.917C314.183 250.429 315.025 249.924 315.847 249.416C316.308 249.131 316.914 249.275 317.199 249.737C317.483 250.198 317.341 250.804 316.878 251.089C316.041 251.604 315.185 252.118 314.336 252.614C314.181 252.704 314.01 252.747 313.842 252.747ZM192.586 252.008C192.415 252.008 192.24 251.963 192.081 251.868C191.234 251.359 190.381 250.833 189.549 250.306C189.091 250.016 188.954 249.409 189.244 248.951C189.534 248.493 190.142 248.356 190.6 248.648C191.418 249.167 192.256 249.684 193.091 250.184C193.556 250.463 193.707 251.067 193.428 251.532C193.244 251.839 192.918 252.01 192.584 252.01L192.586 252.008ZM321.161 248.113C320.847 248.113 320.541 247.963 320.35 247.685C320.043 247.238 320.157 246.625 320.604 246.319C321.402 245.773 322.205 245.207 322.991 244.639C323.43 244.321 324.045 244.421 324.362 244.86C324.68 245.3 324.581 245.915 324.141 246.232C323.342 246.809 322.525 247.384 321.714 247.939C321.545 248.057 321.352 248.111 321.159 248.111L321.161 248.113ZM185.307 247.272C185.112 247.272 184.914 247.215 184.743 247.094C183.937 246.526 183.126 245.94 182.332 245.353C181.896 245.03 181.804 244.413 182.129 243.979C182.451 243.543 183.068 243.451 183.502 243.775C184.283 244.354 185.08 244.929 185.875 245.488C186.318 245.8 186.425 246.413 186.113 246.856C185.922 247.128 185.617 247.272 185.309 247.272H185.307ZM328.128 242.957C327.84 242.957 327.553 242.831 327.36 242.587C327.021 242.164 327.092 241.545 327.515 241.206C328.274 240.601 329.035 239.979 329.776 239.359C330.192 239.011 330.811 239.065 331.16 239.479C331.508 239.896 331.454 240.514 331.04 240.864C330.286 241.495 329.513 242.128 328.741 242.742C328.561 242.887 328.345 242.957 328.13 242.957H328.128ZM178.394 242.023C178.175 242.023 177.956 241.951 177.772 241.801C177.007 241.176 176.241 240.532 175.495 239.89C175.084 239.537 175.037 238.917 175.39 238.504C175.744 238.093 176.364 238.046 176.777 238.4C177.51 239.031 178.264 239.663 179.017 240.278C179.437 240.622 179.499 241.241 179.156 241.661C178.961 241.899 178.68 242.021 178.395 242.021L178.394 242.023ZM334.706 237.311C334.441 237.311 334.178 237.204 333.983 236.995C333.616 236.597 333.641 235.975 334.039 235.607C334.753 234.949 335.467 234.273 336.161 233.599C336.55 233.222 337.172 233.231 337.551 233.621C337.929 234.01 337.919 234.632 337.529 235.011C336.823 235.696 336.096 236.382 335.371 237.051C335.182 237.226 334.944 237.313 334.704 237.313L334.706 237.311ZM171.881 236.291C171.639 236.291 171.396 236.202 171.205 236.022C170.489 235.346 169.771 234.648 169.072 233.952C168.688 233.57 168.686 232.948 169.068 232.563C169.451 232.179 170.072 232.177 170.458 232.559C171.147 233.244 171.852 233.929 172.557 234.594C172.951 234.967 172.968 235.589 172.594 235.982C172.402 236.186 172.142 236.289 171.881 236.289V236.291ZM340.862 231.2C340.621 231.2 340.381 231.111 340.19 230.935C339.793 230.563 339.774 229.941 340.145 229.547C340.81 228.838 341.474 228.112 342.117 227.389C342.478 226.983 343.1 226.949 343.503 227.31C343.909 227.67 343.943 228.292 343.583 228.696C342.928 229.429 342.254 230.167 341.578 230.888C341.385 231.093 341.124 231.198 340.861 231.198L340.862 231.2ZM165.8 230.104C165.533 230.104 165.268 229.996 165.075 229.785C164.412 229.058 163.747 228.312 163.1 227.569C162.743 227.16 162.786 226.54 163.195 226.183C163.604 225.826 164.225 225.869 164.581 226.278C165.218 227.01 165.872 227.744 166.527 228.458C166.893 228.858 166.865 229.48 166.463 229.846C166.274 230.019 166.038 230.104 165.8 230.104ZM346.563 224.658C346.344 224.658 346.126 224.586 345.944 224.44C345.522 224.099 345.457 223.479 345.798 223.057C346.409 222.303 347.019 221.53 347.61 220.762C347.942 220.333 348.558 220.252 348.987 220.584C349.418 220.915 349.497 221.532 349.166 221.961C348.563 222.743 347.945 223.527 347.323 224.294C347.129 224.533 346.846 224.658 346.559 224.658H346.563ZM160.187 223.497C159.896 223.497 159.608 223.369 159.415 223.124C158.806 222.35 158.196 221.559 157.605 220.771C157.279 220.337 157.367 219.722 157.802 219.396C158.236 219.069 158.851 219.158 159.177 219.592C159.757 220.367 160.358 221.146 160.958 221.907C161.295 222.332 161.221 222.951 160.796 223.286C160.616 223.428 160.401 223.497 160.188 223.497H160.187ZM351.776 217.719C351.583 217.719 351.387 217.662 351.215 217.543C350.77 217.233 350.66 216.62 350.97 216.174C351.523 215.378 352.077 214.563 352.612 213.752C352.912 213.299 353.521 213.175 353.973 213.472C354.426 213.771 354.55 214.381 354.253 214.833C353.708 215.657 353.148 216.486 352.583 217.296C352.392 217.57 352.088 217.717 351.776 217.717V217.719ZM155.067 216.504C154.751 216.504 154.443 216.353 154.252 216.073C153.7 215.26 153.151 214.428 152.619 213.598C152.325 213.142 152.458 212.535 152.914 212.241C153.371 211.947 153.978 212.08 154.272 212.537C154.796 213.353 155.337 214.172 155.88 214.972C156.185 215.421 156.067 216.032 155.619 216.337C155.449 216.452 155.258 216.506 155.069 216.506L155.067 216.504ZM356.475 210.417C356.304 210.417 356.133 210.372 355.976 210.28C355.509 210.002 355.356 209.4 355.632 208.933C356.128 208.097 356.62 207.242 357.094 206.397C357.359 205.922 357.957 205.755 358.431 206.02C358.905 206.285 359.073 206.883 358.808 207.357C358.327 208.217 357.827 209.084 357.321 209.935C357.137 210.245 356.811 210.417 356.475 210.417ZM150.47 209.162C150.131 209.162 149.799 208.985 149.617 208.67C149.125 207.817 148.639 206.946 148.168 206.083C147.908 205.607 148.085 205.01 148.561 204.751C149.037 204.491 149.634 204.668 149.893 205.144C150.355 205.993 150.834 206.849 151.319 207.687C151.59 208.158 151.429 208.758 150.959 209.029C150.804 209.117 150.636 209.16 150.468 209.16L150.47 209.162ZM360.631 202.788C360.483 202.788 360.333 202.755 360.193 202.685C359.708 202.443 359.509 201.852 359.751 201.367C360.184 200.498 360.613 199.611 361.025 198.73C361.256 198.238 361.84 198.027 362.332 198.256C362.825 198.485 363.035 199.07 362.806 199.563C362.386 200.46 361.952 201.362 361.512 202.245C361.341 202.589 360.993 202.789 360.632 202.789L360.631 202.788ZM146.419 201.509C146.053 201.509 145.704 201.306 145.534 200.954C145.105 200.069 144.683 199.166 144.278 198.272C144.054 197.778 144.272 197.196 144.766 196.972C145.26 196.749 145.843 196.967 146.066 197.461C146.464 198.34 146.881 199.227 147.301 200.1C147.537 200.588 147.333 201.176 146.843 201.412C146.706 201.479 146.56 201.509 146.416 201.509H146.419ZM364.22 194.87C364.095 194.87 363.969 194.847 363.847 194.796C363.345 194.591 363.104 194.016 363.309 193.515C363.679 192.615 364.041 191.697 364.387 190.789C364.58 190.282 365.148 190.028 365.655 190.221C366.161 190.414 366.415 190.982 366.223 191.488C365.871 192.413 365.502 193.345 365.127 194.259C364.972 194.639 364.604 194.868 364.218 194.868L364.22 194.87ZM142.94 193.587C142.549 193.587 142.179 193.352 142.026 192.967C141.664 192.051 141.307 191.117 140.966 190.19C140.779 189.68 141.04 189.116 141.549 188.929C142.059 188.741 142.623 189.002 142.81 189.511C143.146 190.421 143.495 191.341 143.852 192.24C144.052 192.745 143.806 193.316 143.301 193.516C143.182 193.563 143.059 193.585 142.938 193.585L142.94 193.587ZM367.221 186.708C367.12 186.708 367.018 186.691 366.917 186.659C366.401 186.491 366.12 185.936 366.287 185.421C366.589 184.501 366.881 183.562 367.16 182.632C367.315 182.113 367.863 181.817 368.382 181.972C368.901 182.127 369.197 182.675 369.042 183.194C368.759 184.141 368.46 185.094 368.155 186.03C368.02 186.444 367.634 186.708 367.221 186.708ZM140.042 185.412C139.623 185.412 139.236 185.143 139.104 184.723C138.808 183.784 138.522 182.825 138.25 181.876C138.1 181.355 138.401 180.811 138.924 180.661C139.445 180.512 139.989 180.813 140.139 181.336C140.406 182.269 140.689 183.21 140.979 184.135C141.141 184.653 140.853 185.204 140.335 185.366C140.238 185.397 140.139 185.412 140.042 185.412ZM369.61 178.368C369.532 178.368 369.453 178.359 369.374 178.34C368.847 178.21 368.525 177.676 368.656 177.15C368.889 176.209 369.112 175.252 369.321 174.305C369.439 173.775 369.963 173.44 370.493 173.557C371.023 173.674 371.358 174.199 371.241 174.729C371.029 175.691 370.801 176.665 370.565 177.622C370.455 178.069 370.053 178.368 369.612 178.368H369.61ZM137.748 177.045C137.303 177.045 136.899 176.741 136.793 176.286C136.568 175.326 136.351 174.35 136.15 173.386C136.038 172.854 136.378 172.335 136.91 172.223C137.44 172.111 137.961 172.452 138.073 172.984C138.271 173.932 138.484 174.893 138.706 175.837C138.83 176.366 138.502 176.894 137.974 177.018C137.898 177.036 137.822 177.045 137.748 177.045ZM371.38 169.878C371.326 169.878 371.27 169.872 371.214 169.863C370.679 169.771 370.32 169.265 370.41 168.729C370.572 167.776 370.726 166.804 370.866 165.843C370.944 165.306 371.443 164.933 371.98 165.012C372.518 165.09 372.889 165.589 372.811 166.126C372.669 167.105 372.514 168.091 372.348 169.061C372.267 169.541 371.851 169.878 371.38 169.878ZM136.076 168.535C135.601 168.535 135.183 168.19 135.106 167.706C134.951 166.734 134.807 165.746 134.677 164.765C134.605 164.228 134.983 163.732 135.52 163.662C136.059 163.59 136.553 163.969 136.624 164.506C136.753 165.47 136.894 166.442 137.047 167.397C137.132 167.933 136.768 168.437 136.231 168.522C136.178 168.531 136.126 168.535 136.076 168.535ZM372.527 161.279C372.494 161.279 372.463 161.279 372.431 161.274C371.89 161.221 371.495 160.742 371.548 160.201C371.641 159.235 371.724 158.256 371.793 157.29C371.833 156.749 372.303 156.343 372.844 156.379C373.385 156.419 373.792 156.888 373.754 157.43C373.684 158.413 373.599 159.41 373.505 160.39C373.457 160.899 373.03 161.279 372.528 161.279H372.527ZM135.026 159.925C134.522 159.925 134.093 159.538 134.049 159.026C133.966 158.047 133.894 157.05 133.833 156.062C133.801 155.521 134.213 155.054 134.754 155.022C135.3 154.989 135.762 155.402 135.794 155.943C135.854 156.915 135.924 157.895 136.007 158.858C136.054 159.399 135.652 159.875 135.111 159.92C135.082 159.922 135.055 159.923 135.026 159.923V159.925ZM373.048 152.622C373.048 152.622 373.031 152.622 373.024 152.622C372.482 152.61 372.052 152.159 372.065 151.617C372.089 150.647 372.101 149.664 372.101 148.694C372.101 148.658 372.103 148.622 372.107 148.588C372.103 148.554 372.101 148.518 372.101 148.482C372.099 147.508 372.085 146.526 372.06 145.56C372.045 145.017 372.474 144.566 373.017 144.552C373.56 144.536 374.01 144.966 374.025 145.509C374.05 146.492 374.064 147.49 374.066 148.48C374.066 148.516 374.064 148.552 374.061 148.588C374.064 148.624 374.066 148.658 374.066 148.694C374.066 149.681 374.053 150.679 374.03 151.665C374.017 152.199 373.579 152.624 373.048 152.624V152.622ZM134.605 151.26C134.067 151.26 133.629 150.829 133.622 150.29C133.615 149.758 133.611 149.221 133.611 148.693C133.611 148.235 133.613 147.777 133.619 147.319C133.624 146.78 134.064 146.347 134.601 146.347C134.605 146.347 134.608 146.347 134.612 146.347C135.154 146.353 135.589 146.798 135.583 147.341C135.578 147.791 135.576 148.24 135.576 148.693C135.576 149.212 135.58 149.742 135.587 150.265C135.594 150.807 135.16 151.252 134.617 151.26C134.614 151.26 134.608 151.26 134.605 151.26ZM134.801 142.589C134.781 142.589 134.761 142.589 134.743 142.589C134.203 142.556 133.788 142.091 133.82 141.55C133.878 140.566 133.948 139.567 134.031 138.587C134.076 138.046 134.551 137.644 135.091 137.689C135.632 137.734 136.034 138.208 135.989 138.749C135.908 139.713 135.839 140.696 135.782 141.664C135.751 142.187 135.318 142.589 134.801 142.589ZM372.757 140.793C372.247 140.793 371.816 140.4 371.778 139.883C371.706 138.913 371.623 137.934 371.528 136.972C371.476 136.431 371.87 135.951 372.409 135.897C372.952 135.845 373.43 136.24 373.484 136.779C373.579 137.758 373.666 138.753 373.738 139.739C373.778 140.28 373.372 140.75 372.831 140.791C372.806 140.793 372.783 140.793 372.757 140.793ZM135.621 133.954C135.578 133.954 135.535 133.95 135.492 133.945C134.954 133.875 134.576 133.381 134.646 132.843C134.774 131.866 134.918 130.877 135.07 129.903C135.154 129.368 135.657 129 136.193 129.085C136.728 129.17 137.096 129.673 137.011 130.208C136.86 131.167 136.721 132.14 136.593 133.101C136.528 133.595 136.106 133.956 135.62 133.956L135.621 133.954ZM371.807 132.173C371.328 132.173 370.908 131.821 370.836 131.333C370.695 130.374 370.54 129.404 370.374 128.447C370.282 127.911 370.641 127.403 371.175 127.311C371.708 127.219 372.218 127.578 372.31 128.111C372.478 129.083 372.637 130.071 372.779 131.046C372.858 131.583 372.487 132.083 371.95 132.162C371.901 132.169 371.852 132.173 371.806 132.173H371.807ZM137.067 125.402C137 125.402 136.934 125.395 136.867 125.382C136.335 125.272 135.994 124.753 136.104 124.221C136.305 123.253 136.519 122.276 136.743 121.319C136.865 120.791 137.395 120.463 137.923 120.585C138.452 120.708 138.78 121.236 138.657 121.764C138.437 122.705 138.226 123.666 138.03 124.618C137.934 125.083 137.525 125.402 137.069 125.402H137.067ZM370.234 123.643C369.783 123.643 369.377 123.331 369.275 122.873C369.064 121.925 368.838 120.967 368.604 120.028C368.472 119.502 368.793 118.968 369.32 118.837C369.846 118.705 370.38 119.026 370.511 119.552C370.749 120.506 370.978 121.479 371.193 122.444C371.31 122.974 370.976 123.498 370.448 123.617C370.376 123.634 370.304 123.641 370.234 123.641V123.643ZM139.133 116.976C139.045 116.976 138.953 116.964 138.864 116.938C138.342 116.791 138.041 116.246 138.188 115.725C138.459 114.777 138.744 113.818 139.037 112.877C139.2 112.36 139.751 112.071 140.267 112.232C140.784 112.394 141.074 112.944 140.912 113.463C140.624 114.388 140.343 115.33 140.078 116.264C139.955 116.697 139.56 116.978 139.133 116.978V116.976ZM368.04 115.251C367.618 115.251 367.227 114.977 367.099 114.552C366.819 113.625 366.525 112.688 366.221 111.765C366.051 111.249 366.333 110.694 366.848 110.524C367.364 110.355 367.919 110.636 368.088 111.152C368.397 112.091 368.698 113.045 368.981 113.986C369.138 114.505 368.842 115.053 368.323 115.21C368.229 115.238 368.133 115.251 368.04 115.251ZM141.815 108.713C141.704 108.713 141.59 108.693 141.478 108.653C140.968 108.468 140.707 107.903 140.892 107.393C141.231 106.467 141.588 105.529 141.951 104.606C142.149 104.101 142.72 103.854 143.225 104.053C143.73 104.251 143.979 104.823 143.778 105.327C143.422 106.234 143.07 107.155 142.737 108.067C142.591 108.466 142.214 108.713 141.814 108.713H141.815ZM365.236 107.042C364.842 107.042 364.469 106.802 364.319 106.411C363.973 105.506 363.609 104.592 363.239 103.694C363.032 103.193 363.272 102.618 363.773 102.41C364.274 102.203 364.849 102.443 365.056 102.944C365.431 103.856 365.801 104.785 366.154 105.706C366.349 106.212 366.095 106.78 365.588 106.975C365.473 107.02 365.354 107.04 365.236 107.04V107.042ZM145.1 100.662C144.965 100.662 144.828 100.633 144.696 100.575C144.202 100.352 143.982 99.7696 144.206 99.2756C144.613 98.3743 145.037 97.4657 145.466 96.577C145.702 96.0885 146.288 95.883 146.778 96.1191C147.267 96.3553 147.472 96.9412 147.236 97.4315C146.814 98.3058 146.398 99.1999 145.998 100.087C145.834 100.451 145.477 100.666 145.102 100.666L145.1 100.662ZM361.846 99.0719C361.476 99.0719 361.123 98.8628 360.955 98.5059C360.544 97.628 360.115 96.7465 359.684 95.883C359.441 95.3981 359.639 94.8068 360.124 94.5652C360.609 94.3219 361.2 94.5202 361.442 95.0051C361.88 95.883 362.314 96.7789 362.734 97.6712C362.965 98.1616 362.754 98.7475 362.262 98.9782C362.127 99.0413 361.984 99.0719 361.846 99.0719ZM148.963 92.8779C148.804 92.8779 148.644 92.84 148.496 92.7589C148.018 92.4993 147.842 91.9045 148.101 91.4267C148.572 90.5597 149.06 89.6854 149.554 88.8291C149.825 88.3586 150.425 88.1963 150.895 88.4667C151.366 88.7371 151.528 89.3374 151.258 89.8079C150.773 90.6498 150.293 91.5097 149.83 92.3641C149.652 92.6922 149.315 92.8779 148.965 92.8779H148.963ZM357.885 91.3745C357.541 91.3745 357.207 91.1942 357.027 90.8733C356.553 90.0297 356.063 89.1788 355.569 88.3478C355.291 87.8809 355.444 87.2788 355.911 87.0012C356.378 86.7235 356.98 86.8768 357.258 87.3437C357.761 88.1891 358.26 89.0526 358.741 89.9107C359.006 90.383 358.839 90.9833 358.366 91.2483C358.215 91.333 358.049 91.3745 357.887 91.3745H357.885ZM153.381 85.4004C153.199 85.4004 153.015 85.3499 152.851 85.2453C152.395 84.9533 152.262 84.344 152.554 83.8879C153.086 83.0569 153.637 82.2222 154.191 81.4038C154.495 80.955 155.107 80.836 155.555 81.1406C156.004 81.4453 156.123 82.0546 155.819 82.5053C155.274 83.3093 154.733 84.1313 154.209 84.9497C154.021 85.2417 153.704 85.4022 153.381 85.4022V85.4004ZM353.371 83.9817C353.052 83.9817 352.74 83.8266 352.551 83.5418C352.017 82.736 351.466 81.923 350.911 81.128C350.601 80.6827 350.709 80.0698 351.154 79.7598C351.599 79.4497 352.212 79.5579 352.522 80.0031C353.086 80.8125 353.647 81.6382 354.19 82.4566C354.489 82.9091 354.365 83.5184 353.912 83.8176C353.744 83.9276 353.557 83.9817 353.371 83.9817ZM158.33 78.2653C158.124 78.2653 157.919 78.2023 157.742 78.0689C157.308 77.7444 157.219 77.1278 157.544 76.6934C158.135 75.9038 158.744 75.1088 159.355 74.3355C159.691 73.91 160.309 73.8361 160.735 74.1714C161.16 74.5067 161.234 75.1251 160.899 75.5505C160.298 76.3112 159.7 77.0918 159.118 77.8705C158.925 78.1283 158.629 78.2635 158.33 78.2635V78.2653ZM348.333 76.9314C348.039 76.9314 347.747 76.7998 347.554 76.5492C346.963 75.7831 346.353 75.0133 345.742 74.258C345.4 73.8361 345.465 73.2178 345.887 72.8753C346.308 72.5328 346.927 72.5977 347.269 73.0195C347.891 73.7857 348.509 74.5698 349.11 75.3486C349.441 75.7776 349.36 76.396 348.931 76.7258C348.753 76.8629 348.542 76.9296 348.333 76.9296V76.9314ZM163.781 71.5125C163.552 71.5125 163.323 71.4332 163.138 71.2709C162.728 70.9158 162.685 70.2939 163.04 69.8847C163.687 69.1402 164.353 68.3938 165.016 67.6656C165.382 67.2654 166.004 67.2365 166.404 67.6025C166.804 67.9684 166.833 68.5903 166.467 68.9905C165.813 69.7062 165.158 70.4417 164.522 71.1736C164.327 71.3971 164.055 71.5125 163.779 71.5125H163.781ZM342.793 70.2614C342.523 70.2614 342.254 70.1515 342.059 69.9333C341.416 69.2123 340.751 68.4876 340.087 67.7791C339.716 67.3843 339.736 66.7624 340.131 66.3911C340.525 66.0197 341.147 66.0395 341.519 66.4343C342.195 67.1536 342.869 67.8909 343.525 68.6246C343.886 69.0284 343.851 69.6503 343.447 70.0126C343.26 70.1803 343.026 70.2632 342.793 70.2632V70.2614ZM169.705 65.1724C169.452 65.1724 169.2 65.0751 169.009 64.8822C168.627 64.4982 168.627 63.8763 169.012 63.4923C169.71 62.7983 170.428 62.1007 171.143 61.4229C171.536 61.0497 172.158 61.0659 172.531 61.4607C172.904 61.8537 172.888 62.4756 172.493 62.8488C171.789 63.5158 171.084 64.2008 170.397 64.8858C170.206 65.0769 169.955 65.1724 169.703 65.1724H169.705ZM336.785 64.0061C336.538 64.0061 336.293 63.9142 336.102 63.7285C335.406 63.0543 334.692 62.3801 333.978 61.7203C333.58 61.3526 333.554 60.7306 333.922 60.3322C334.29 59.9338 334.912 59.9086 335.31 60.2763C336.037 60.9451 336.763 61.632 337.47 62.317C337.859 62.6937 337.87 63.3157 337.491 63.7069C337.299 63.9052 337.043 64.0061 336.785 64.0061ZM176.068 59.2795C175.792 59.2795 175.518 59.1641 175.324 58.9388C174.97 58.5277 175.015 57.9076 175.426 57.5525C176.171 56.9107 176.937 56.269 177.7 55.6434C178.12 55.2991 178.738 55.3604 179.082 55.7804C179.427 56.2005 179.365 56.8188 178.945 57.1631C178.195 57.7778 177.442 58.4106 176.708 59.0415C176.522 59.2019 176.295 59.2795 176.068 59.2795ZM330.338 58.1997C330.117 58.1997 329.893 58.1239 329.707 57.9707C328.965 57.3488 328.202 56.7269 327.443 56.1212C327.018 55.7841 326.949 55.1657 327.286 54.7403C327.624 54.3167 328.242 54.2464 328.667 54.5835C329.439 55.1982 330.214 55.8309 330.969 56.4637C331.386 56.8116 331.44 57.4317 331.092 57.8481C330.897 58.0807 330.62 58.1997 330.338 58.1997ZM182.837 53.8642C182.536 53.8642 182.241 53.7272 182.048 53.4676C181.725 53.0314 181.815 52.4166 182.251 52.094C183.041 51.5081 183.85 50.9222 184.656 50.3544C185.1 50.0425 185.713 50.1471 186.024 50.5923C186.336 51.0358 186.23 51.6487 185.786 51.9624C184.995 52.5212 184.198 53.0963 183.421 53.6731C183.245 53.8029 183.039 53.866 182.837 53.866V53.8642ZM323.485 52.8727C323.286 52.8727 323.084 52.8132 322.911 52.687C322.122 52.1192 321.316 51.5532 320.517 51.0051C320.07 50.6987 319.955 50.0876 320.261 49.6387C320.568 49.1916 321.179 49.0763 321.628 49.3827C322.441 49.938 323.259 50.513 324.061 51.0917C324.501 51.4089 324.602 52.0237 324.285 52.4635C324.094 52.7303 323.793 52.8709 323.486 52.8709L323.485 52.8727ZM189.978 48.9555C189.653 48.9555 189.334 48.795 189.147 48.4994C188.856 48.0415 188.992 47.434 189.45 47.1438C190.281 46.6156 191.13 46.091 191.971 45.5845C192.437 45.305 193.04 45.4547 193.32 45.9198C193.599 46.3849 193.45 46.9888 192.985 47.2682C192.155 47.7657 191.321 48.2831 190.504 48.8023C190.34 48.9068 190.158 48.9555 189.978 48.9555ZM316.261 48.0541C316.086 48.0541 315.908 48.0073 315.747 47.9081C314.922 47.3998 314.076 46.8932 313.236 46.4047C312.768 46.1325 312.609 45.5304 312.881 45.0617C313.153 44.593 313.755 44.4344 314.224 44.7066C315.079 45.2041 315.937 45.7179 316.777 46.2352C317.238 46.5201 317.382 47.1258 317.098 47.5872C316.912 47.8883 316.589 48.0541 316.259 48.0541H316.261ZM197.452 44.5786C197.102 44.5786 196.763 44.3911 196.585 44.0612C196.327 43.5835 196.507 42.9868 196.985 42.7308C197.852 42.2657 198.735 41.8042 199.613 41.359C200.098 41.1138 200.689 41.3085 200.933 41.7916C201.178 42.2765 200.983 42.866 200.5 43.1112C199.638 43.5474 198.768 44.0017 197.915 44.4596C197.767 44.5389 197.608 44.5768 197.45 44.5768L197.452 44.5786ZM308.703 43.7746C308.549 43.7746 308.396 43.7385 308.25 43.6646C307.387 43.2175 306.507 42.7741 305.634 42.3468C305.148 42.1089 304.944 41.5212 305.182 41.0327C305.42 40.5442 306.007 40.3423 306.496 40.5802C307.383 41.0129 308.279 41.4635 309.155 41.9196C309.636 42.1702 309.824 42.7633 309.575 43.2446C309.4 43.5817 309.058 43.7746 308.703 43.7746ZM205.219 40.7605C204.844 40.7605 204.486 40.5442 204.322 40.1782C204.1 39.6825 204.322 39.102 204.817 38.8803C205.713 38.4801 206.629 38.0835 207.536 37.7049C208.037 37.4958 208.612 37.732 208.821 38.2331C209.03 38.7343 208.794 39.3093 208.293 39.5184C207.401 39.8916 206.501 40.2792 205.62 40.674C205.49 40.7316 205.353 40.7605 205.219 40.7605ZM300.848 40.0556C300.718 40.0556 300.587 40.0304 300.461 39.9763C299.566 39.5923 298.654 39.2138 297.753 38.8532C297.25 38.6513 297.005 38.0799 297.207 37.5751C297.409 37.0722 297.98 36.827 298.483 37.0271C299.401 37.3949 300.325 37.7788 301.236 38.1682C301.735 38.3827 301.966 38.9596 301.751 39.4589C301.591 39.8303 301.229 40.0538 300.848 40.0538V40.0556ZM213.24 37.5211C212.838 37.5211 212.461 37.2723 212.315 36.8721C212.131 36.3619 212.394 35.7977 212.904 35.6138C213.831 35.2785 214.775 34.9504 215.711 34.6368C216.227 34.4655 216.782 34.7431 216.955 35.2569C217.126 35.7725 216.848 36.3277 216.335 36.5007C215.415 36.809 214.485 37.1317 213.575 37.4616C213.465 37.5012 213.351 37.5211 213.241 37.5211H213.24ZM292.738 36.919C292.632 36.919 292.523 36.9009 292.417 36.8649C291.498 36.5476 290.56 36.2375 289.632 35.9437C289.115 35.7797 288.828 35.228 288.992 34.7107C289.156 34.1933 289.708 33.9067 290.225 34.0707C291.168 34.37 292.121 34.6854 293.055 35.0081C293.569 35.1848 293.841 35.7436 293.665 36.2574C293.524 36.6648 293.144 36.919 292.736 36.919H292.738ZM221.498 34.8675C221.069 34.8675 220.674 34.5845 220.553 34.15C220.407 33.6273 220.71 33.0846 221.233 32.9386C222.181 32.6718 223.147 32.414 224.103 32.1707C224.629 32.0373 225.162 32.3546 225.298 32.8809C225.431 33.4073 225.114 33.9409 224.587 34.0761C223.648 34.3159 222.698 34.5701 221.764 34.8314C221.676 34.8567 221.586 34.8675 221.498 34.8675ZM284.429 34.3916C284.346 34.3916 284.262 34.3808 284.177 34.3591C283.24 34.1104 282.286 33.8706 281.343 33.6471C280.815 33.5209 280.489 32.9909 280.615 32.4645C280.741 31.9363 281.269 31.6101 281.797 31.7362C282.756 31.9652 283.726 32.2085 284.68 32.4609C285.205 32.5997 285.516 33.1369 285.378 33.6615C285.26 34.1014 284.864 34.3934 284.428 34.3934L284.429 34.3916ZM229.929 32.8287C229.471 32.8287 229.062 32.5078 228.968 32.0427C228.86 31.5109 229.202 30.9917 229.734 30.8836C230.7 30.6871 231.683 30.4996 232.653 30.3265C233.186 30.231 233.696 30.5879 233.792 31.1215C233.887 31.6551 233.531 32.1653 232.997 32.2608C232.043 32.4303 231.077 32.6141 230.127 32.8088C230.06 32.8215 229.995 32.8287 229.931 32.8287H229.929ZM275.969 32.4807C275.91 32.4807 275.849 32.4753 275.787 32.4645C274.834 32.2861 273.864 32.1166 272.908 31.9616C272.373 31.875 272.009 31.3703 272.095 30.8349C272.182 30.2995 272.687 29.9354 273.222 30.0219C274.194 30.1787 275.178 30.3518 276.15 30.5338C276.683 30.6348 277.035 31.1468 276.934 31.6804C276.845 32.1527 276.433 32.4826 275.969 32.4826V32.4807ZM238.484 31.41C237.998 31.41 237.574 31.0476 237.511 30.5519C237.442 30.0129 237.823 29.5207 238.36 29.4522C239.337 29.326 240.328 29.2107 241.311 29.1097C241.85 29.0538 242.333 29.4468 242.389 29.9858C242.445 30.5248 242.052 31.008 241.513 31.0638C240.547 31.1648 239.57 31.2766 238.611 31.4009C238.567 31.4063 238.526 31.41 238.484 31.41ZM267.392 31.1918C267.356 31.1918 267.318 31.19 267.28 31.1864C266.316 31.0783 265.337 30.9791 264.373 30.8944C263.832 30.8475 263.433 30.3698 263.48 29.829C263.527 29.2882 264.005 28.888 264.546 28.9367C265.526 29.0232 266.521 29.1241 267.502 29.2341C268.041 29.2954 268.429 29.7821 268.367 30.3211C268.312 30.8223 267.886 31.1936 267.392 31.1936V31.1918ZM247.123 30.6168C246.605 30.6168 246.171 30.2112 246.142 29.6884C246.111 29.1458 246.526 28.6825 247.069 28.6536C248.051 28.5996 249.05 28.5563 250.038 28.5257C250.58 28.5076 251.033 28.9349 251.051 29.4775C251.067 30.0201 250.642 30.4726 250.099 30.4906C249.129 30.5212 248.147 30.5627 247.179 30.6168C247.161 30.6168 247.141 30.6168 247.123 30.6168ZM258.743 30.5284C258.73 30.5284 258.716 30.5284 258.703 30.5284C257.735 30.4888 256.751 30.4617 255.781 30.4455C255.238 30.4365 254.806 29.9894 254.815 29.4468C254.824 28.9096 255.262 28.4806 255.797 28.4806C255.803 28.4806 255.808 28.4806 255.814 28.4806C256.8 28.4968 257.798 28.5239 258.783 28.5653C259.325 28.5869 259.747 29.0448 259.725 29.5874C259.704 30.1156 259.269 30.5302 258.745 30.5302L258.743 30.5284Z" fill="#1A468F"/>
<path d="M306.119 0H263.293V53.4568H306.119V0Z" fill="#296ACC"/>
<path d="M311.674 5.51984H268.847V58.9767H311.674V5.51984Z" fill="white" stroke="#A8C0FF" stroke-width="7.92" stroke-miterlimit="10"/>
<path d="M318.727 10.9405H275.901V64.3973H318.727V10.9405Z" fill="white" stroke="#A8C0FF" stroke-width="7.92" stroke-miterlimit="10"/>
<path d="M323.858 16.4603H281.031V69.9171H323.858V16.4603Z" fill="#A8C0FF"/>
<path d="M317.197 25.2358H295.043V28.7132H317.197V25.2358Z" fill="#1A468F"/>
<path d="M317.195 33.4037H288.491V36.8811H317.195V33.4037Z" fill="#1A468F"/>
<path d="M317.195 41.5735H288.491V45.0509H317.195V41.5735Z" fill="#1A468F"/>
<path d="M317.195 49.7415H288.491V53.2188H317.195V49.7415Z" fill="#1A468F"/>
<path d="M317.195 57.9094H288.491V61.3868H317.195V57.9094Z" fill="#1A468F"/>
<path d="M180.036 68.8813C185.943 62.9741 185.943 53.3967 180.036 47.4895C174.128 41.5823 164.551 41.5823 158.644 47.4895C152.736 53.3967 152.736 62.9742 158.644 68.8814C164.551 74.7886 174.128 74.7885 180.036 68.8813Z" fill="#7696EA"/>
<path d="M193.204 72.5689C195.166 69.3168 196.392 65.8016 196.911 62.2539L198.037 62.4198L200.262 62.7478H200.291C200.891 58.6918 200.687 54.5871 199.707 50.6644L196.397 51.4847C195.508 47.937 193.945 44.5552 191.715 41.5753L194.459 39.5365C192.112 36.3493 189.098 33.5642 185.501 31.3956L183.735 34.3267C180.47 32.3582 176.968 31.1396 173.42 30.6204L173.914 27.2404C169.856 26.6401 165.744 26.8546 161.829 27.8244L162.649 31.1342C159.101 32.0229 155.719 33.5858 152.739 35.8157L150.701 33.0721C147.514 35.4191 144.728 38.4314 142.56 42.0296L145.491 43.7962C143.522 47.0609 142.304 50.5635 141.785 54.1112L139.392 53.7597L138.415 53.6245L138.405 53.6172C137.804 57.6751 138.019 61.787 138.989 65.7024L142.298 64.8822C143.187 68.4299 144.761 71.8172 146.991 74.797L144.247 76.8358C146.594 80.023 149.596 82.8009 153.194 84.9713L154.96 82.0402C158.225 84.0087 161.739 85.2345 165.286 85.7537L164.899 88.3802L164.792 89.1338C168.85 89.734 172.951 89.5123 176.867 88.5425L176.046 85.2327C179.594 84.344 182.981 82.7703 185.972 80.5458L188.011 83.2894C191.187 80.9351 193.965 77.9337 196.136 74.3373L193.204 72.5707V72.5689ZM161.535 71.1375C154.375 66.8201 152.074 57.5291 156.392 50.3688C160.704 43.2194 169.993 40.9191 177.153 45.2366C184.303 49.5486 186.603 58.8378 182.291 65.9873C177.973 73.1475 168.682 75.4478 161.535 71.1375Z" fill="#1A468F"/>
<path d="M136.597 70.5625C135.493 68.895 134.098 67.5177 132.53 66.4686L132.863 65.9692L133.521 64.985L133.529 64.9723C131.735 63.7699 129.736 62.9389 127.65 62.5189L127.291 64.2783C125.404 63.8997 123.442 63.8781 121.521 64.2657L121.171 62.5009C119.125 62.8974 117.12 63.6996 115.275 64.9201L116.27 66.4235C114.597 67.5303 113.225 68.922 112.176 70.4904L110.679 69.4917C109.477 71.2853 108.65 73.2899 108.226 75.3702L109.985 75.729C109.605 77.6164 109.585 79.5777 109.973 81.4994L108.208 81.8491C108.605 83.8951 109.407 85.8997 110.627 87.7457L112.131 86.7506C113.238 88.4235 114.629 89.7953 116.198 90.8445L115.489 91.9026L115.204 92.3371L115.199 92.3407C116.992 93.5431 118.997 94.3705 121.077 94.7942L121.436 93.0347C123.324 93.4151 125.29 93.4313 127.212 93.0438L127.562 94.8086C129.608 94.412 131.607 93.6134 133.451 92.393L132.456 90.8895C134.129 89.7827 135.506 88.3874 136.555 86.8191L137.716 87.5978L138.05 87.8178C139.252 86.0241 140.072 84.0231 140.496 81.9428L138.736 81.5841C139.115 79.6967 139.133 77.7299 138.751 75.8047L140.516 75.455C140.114 73.4125 139.315 71.4133 138.095 69.5692L136.591 70.5643L136.597 70.5625ZM128.759 85.2994C125.087 87.7294 120.149 86.7235 117.721 83.0515C115.294 79.3866 116.3 74.4491 119.972 72.019C123.637 69.5926 128.575 70.5985 131.001 74.2634C133.431 77.9354 132.425 82.873 128.76 85.2976L128.759 85.2994Z" fill="#1251B3"/>
<path d="M383.979 77.6326H347.208C346.434 77.6326 345.806 78.2605 345.806 79.0351V99.8976C345.806 100.672 346.434 101.3 347.208 101.3H383.979C384.754 101.3 385.382 100.672 385.382 99.8976V79.0351C385.382 78.2605 384.754 77.6326 383.979 77.6326Z" fill="#1A468F"/>
<path d="M385.382 82.1015H345.806V86.1864H385.382V82.1015Z" fill="#A8C0FF"/>
<path d="M354.872 96.7591H349.052C348.683 96.7591 348.382 97.0583 348.382 97.4297C348.382 97.7992 348.681 98.1003 349.052 98.1003H354.872C355.241 98.1003 355.542 97.801 355.542 97.4297C355.542 97.0601 355.243 96.7591 354.872 96.7591Z" fill="#D1F5FF"/>
<path d="M363.818 96.7591H357.999C357.63 96.7591 357.329 97.0583 357.329 97.4297C357.329 97.7992 357.628 98.1003 357.999 98.1003H363.818C364.188 98.1003 364.489 97.801 364.489 97.4297C364.489 97.0601 364.19 96.7591 363.818 96.7591Z" fill="#D1F5FF"/>
<path d="M372.767 96.7591H366.947C366.578 96.7591 366.277 97.0583 366.277 97.4297C366.277 97.7992 366.576 98.1003 366.947 98.1003H372.767C373.136 98.1003 373.437 97.801 373.437 97.4297C373.437 97.0601 373.138 96.7591 372.767 96.7591Z" fill="#D1F5FF"/>
<path d="M381.715 96.7591H375.896C375.527 96.7591 375.226 97.0583 375.226 97.4297C375.226 97.7992 375.525 98.1003 375.896 98.1003H381.715C382.085 98.1003 382.386 97.801 382.386 97.4297C382.386 97.0601 382.087 96.7591 381.715 96.7591Z" fill="#D1F5FF"/>
<path d="M348.784 78.8332C348.376 78.8332 348.044 79.1649 348.044 79.5723V79.8319C348.044 80.2393 348.376 80.571 348.784 80.571C349.191 80.571 349.523 80.2393 349.523 79.8319V79.5723C349.523 79.1649 349.191 78.8332 348.784 78.8332Z" fill="#D1F5FF"/>
<path d="M350.375 79.7021C350.375 80.1816 350.765 80.571 351.244 80.571H354.325C354.805 80.571 355.194 80.1816 355.194 79.7021C355.194 79.2226 354.805 78.8332 354.325 78.8332H351.244C350.765 78.8332 350.375 79.2226 350.375 79.7021Z" fill="#D1F5FF"/>
<path d="M353.952 88.3839H349.972C349.334 88.3839 348.818 88.9004 348.818 89.5376V92.9681C348.818 93.6053 349.334 94.1218 349.972 94.1218H353.952C354.589 94.1218 355.106 93.6053 355.106 92.9681V89.5376C355.106 88.9004 354.589 88.3839 353.952 88.3839Z" fill="#A8C0FF"/>
<path d="M366.572 165.654V162.871C366.572 161.607 365.548 160.581 364.283 160.581H339.912C338.649 160.581 337.623 161.607 337.623 162.871V212.088H400.661V165.654H366.572Z" fill="#1251B3"/>
<path d="M403.282 167.347H341.468L337.625 212.088H400.355L403.282 167.347Z" fill="white"/>
<path d="M400.661 212.088H337.623L344.313 167.902C344.509 166.61 345.62 165.654 346.927 165.654H404.616C406.233 165.654 407.472 167.095 407.23 168.693L400.661 212.088Z" fill="#3383FF"/>
<path d="M407.261 181.79C415.238 181.79 421.704 175.324 421.704 167.347C421.704 159.37 415.238 152.904 407.261 152.904C399.284 152.904 392.818 159.37 392.818 167.347C392.818 175.324 399.284 181.79 407.261 181.79Z" fill="#1A468F"/>
<path d="M407.261 182.318C399.004 182.318 392.286 175.601 392.286 167.345C392.286 159.089 399.004 152.374 407.261 152.374C415.517 152.374 422.235 159.091 422.235 167.345C422.235 175.6 415.517 182.318 407.261 182.318ZM407.261 153.43C399.586 153.43 393.346 159.673 393.346 167.345C393.346 175.017 399.586 181.262 407.261 181.262C414.935 181.262 421.175 175.019 421.175 167.345C421.175 159.671 414.935 153.43 407.261 153.43Z" fill="white"/>
<path d="M400.31 164.733V174.96C400.31 176.099 414.214 176.099 414.214 174.96V164.733H400.31ZM407.966 170.164V173.063C407.966 173.449 407.652 173.77 407.266 173.77C406.88 173.77 406.56 173.449 406.56 173.063V170.157C405.965 169.889 405.545 169.287 405.545 168.593C405.545 167.644 406.316 166.878 407.266 166.878C408.216 166.878 408.981 167.644 408.981 168.593C408.981 169.292 408.568 169.894 407.966 170.163V170.164Z" fill="white"/>
<path d="M412.997 164.005H411.589V163.316C411.589 160.929 409.647 158.988 407.263 158.988C404.878 158.988 402.934 160.929 402.934 163.316V164.005H401.526V163.316C401.526 160.154 404.099 157.582 407.261 157.582C410.423 157.582 412.995 160.154 412.995 163.316V164.005H412.997Z" fill="white"/>
<path d="M139.861 149.625C139.845 149.607 139.825 149.589 139.809 149.571C132.734 157.151 121.442 163.363 109.36 166.009C109.356 166.817 109.337 171.288 109.245 191.894C109.122 219.383 135.283 232.817 139.344 234.877C127.412 186.576 136.759 157.362 139.861 149.627V149.625Z" fill="#1A468F"/>
<path d="M139.861 149.625C136.759 157.362 127.412 186.576 139.344 234.875C143.279 233.064 169.77 219.652 169.892 192.163C169.984 171.556 170.004 167.085 170.008 166.278C157.978 163.531 146.87 157.241 139.859 149.623L139.861 149.625Z" fill="#1A468F"/>
<path d="M139.861 149.623C139.845 149.605 139.825 149.587 139.809 149.569C132.734 157.149 121.443 163.361 109.36 166.007C109.356 166.815 109.337 171.286 109.245 191.892C109.122 219.381 135.283 232.815 139.344 234.875C143.279 233.064 169.77 219.652 169.892 192.163C169.984 171.556 170.004 167.085 170.008 166.278C157.978 163.531 146.87 157.241 139.86 149.623H139.861Z" stroke="white" stroke-width="11.86" stroke-miterlimit="10"/>
<path d="M139.768 229.776L138.917 229.727C136.076 228.251 130.52 224.984 125.215 219.709C117.092 211.623 112.996 202.285 113.043 191.95L113.146 169.189L113.91 168.991C123.686 166.471 132.604 161.84 139.021 155.954L139.742 155.291L140.436 155.985L139.769 156.76L140.467 156.01C146.831 161.933 155.687 166.624 165.405 169.222L166.168 169.424L166.065 192.184C166.018 202.519 161.842 211.821 153.648 219.832C148.469 224.896 143.027 228.083 140.242 229.532L139.769 229.774L139.768 229.776ZM115.184 170.774L115.089 191.957C115.046 201.724 118.938 210.572 126.657 218.257C131.492 223.07 136.546 226.141 139.395 227.667C142.082 226.26 147.274 223.199 152.213 218.372C160.001 210.756 163.972 201.942 164.016 192.177L164.111 170.99C154.692 168.358 146.086 163.81 139.706 158.09C133.28 163.745 124.636 168.219 115.184 170.774Z" fill="#4D94FF"/>
<path d="M127.513 188.162V206.206C127.513 208.214 152.044 208.214 152.044 206.206V188.162H127.513ZM141.019 197.744V202.858C141.019 203.539 140.465 204.105 139.784 204.105C139.103 204.105 138.537 203.539 138.537 202.858V197.733C137.486 197.259 136.747 196.197 136.747 194.973C136.747 193.298 138.109 191.948 139.782 191.948C141.455 191.948 142.807 193.298 142.807 194.973C142.807 196.208 142.079 197.27 141.017 197.744H141.019Z" fill="white"/>
<path d="M149.897 186.875H147.415V185.66C147.415 181.451 143.99 178.026 139.78 178.026C135.571 178.026 132.146 181.451 132.146 185.66V186.875H129.664V185.66C129.664 180.081 134.203 175.542 139.782 175.542C145.361 175.542 149.899 180.081 149.899 185.66V186.875H149.897Z" fill="white"/>
<path d="M291.485 126.59C291.615 125.634 291.705 124.668 291.705 123.679C291.705 111.772 282.052 102.118 270.145 102.118C261.213 102.118 253.549 107.552 250.278 115.292C247.615 112.922 244.118 111.471 240.273 111.471C231.952 111.471 225.208 118.216 225.208 126.536H222.395C214.395 126.536 207.85 133.081 207.85 141.082C207.85 149.082 214.395 155.628 222.395 155.628H290.411C298.411 155.628 304.957 149.082 304.957 141.082C304.957 133.444 298.986 127.147 291.483 126.59H291.485Z" fill="white"/>
<path d="M256.254 153.953L248.664 145.453L241.073 153.953H245.111V163.23H252.217V153.953H256.254Z" fill="#66B8FF"/>
<path d="M255.1 156.213L262.689 164.715L270.28 156.213H266.242V146.937H259.136V156.213H255.1Z" fill="#66B8FF"/>
<path d="M407.204 107.09C407.561 105.58 406.626 104.068 405.116 103.711C403.606 103.355 402.094 104.29 401.737 105.8C401.381 107.309 402.316 108.822 403.826 109.178C405.335 109.535 406.848 108.6 407.204 107.09Z" fill="white"/>
<path d="M171.34 110.959C171.694 109.449 170.756 107.937 169.246 107.583C167.736 107.229 166.225 108.167 165.871 109.677C165.517 111.187 166.454 112.698 167.964 113.052C169.475 113.406 170.986 112.469 171.34 110.959Z" fill="white"/>
<path d="M150.302 260.254C150.656 258.744 149.718 257.233 148.208 256.879C146.698 256.525 145.187 257.462 144.833 258.973C144.479 260.483 145.416 261.994 146.926 262.348C148.437 262.702 149.948 261.765 150.302 260.254Z" fill="white"/>
<path d="M336.289 140.483C335.775 140.483 335.359 140.067 335.359 139.553V129.593C335.359 129.079 335.775 128.663 336.289 128.663C336.803 128.663 337.219 129.079 337.219 129.593V139.553C337.219 140.067 336.803 140.483 336.289 140.483Z" fill="white"/>
<path d="M330.38 134.574C330.38 134.06 330.796 133.644 331.31 133.644H341.27C341.784 133.644 342.2 134.06 342.2 134.574C342.2 135.088 341.784 135.504 341.27 135.504H331.31C330.796 135.504 330.38 135.088 330.38 134.574Z" fill="white"/>
<path d="M342.364 260.623C341.85 260.623 341.434 260.207 341.434 259.693V249.733C341.434 249.219 341.85 248.803 342.364 248.803C342.878 248.803 343.294 249.219 343.294 249.733V259.693C343.294 260.207 342.878 260.623 342.364 260.623Z" fill="white"/>
<path d="M336.453 254.712C336.453 254.198 336.87 253.782 337.383 253.782H347.343C347.857 253.782 348.273 254.198 348.273 254.712C348.273 255.226 347.857 255.642 347.343 255.642H337.383C336.87 255.642 336.453 255.226 336.453 254.712Z" fill="white"/>
<path d="M86.5148 164.946C85.9109 164.946 85.4224 164.457 85.4224 163.853V152.157C85.4224 151.554 85.9109 151.065 86.5148 151.065C87.1187 151.065 87.6072 151.554 87.6072 152.157V163.853C87.6072 164.457 87.1187 164.946 86.5148 164.946Z" fill="white"/>
<path d="M79.5742 158.005C79.5742 157.401 80.0627 156.913 80.6666 156.913H92.3625C92.9664 156.913 93.4549 157.401 93.4549 158.005C93.4549 158.609 92.9664 159.098 92.3625 159.098H80.6666C80.0627 159.098 79.5742 158.609 79.5742 158.005Z" fill="white"/>
<path d="M207.012 16.4639C206.491 16.4639 206.069 16.0421 206.069 15.5211V5.42065C206.069 4.89967 206.491 4.47784 207.012 4.47784C207.533 4.47784 207.954 4.89967 207.954 5.42065V15.5211C207.954 16.0421 207.533 16.4639 207.012 16.4639Z" fill="#2E76E6"/>
<path d="M201.018 10.4718C201.018 9.95082 201.439 9.52899 201.96 9.52899H212.061C212.582 9.52899 213.004 9.95082 213.004 10.4718C213.004 10.9928 212.582 11.4146 212.061 11.4146H201.96C201.439 11.4146 201.018 10.9928 201.018 10.4718Z" fill="#2E76E6"/>
<path d="M234.01 12.5918C233.497 12.5918 233.08 12.1753 233.08 11.6616V1.70173C233.08 1.18797 233.497 0.771545 234.01 0.771545C234.524 0.771545 234.94 1.18797 234.94 1.70173V11.6616C234.94 12.1753 234.524 12.5918 234.01 12.5918Z" fill="#7696EA"/>
<path d="M228.099 6.68257C228.099 6.1688 228.516 5.75238 229.029 5.75238H238.989C239.503 5.75238 239.919 6.1688 239.919 6.68257C239.919 7.19633 239.503 7.61275 238.989 7.61275H229.029C228.516 7.61275 228.099 7.19633 228.099 6.68257Z" fill="#7696EA"/>
<path d="M360.223 51.2269C363.188 51.2269 365.592 48.8234 365.592 45.8585C365.592 42.8936 363.188 40.4901 360.223 40.4901C357.258 40.4901 354.855 42.8936 354.855 45.8585C354.855 48.8234 357.258 51.2269 360.223 51.2269Z" fill="#7696EA"/>
<path d="M219.232 71.2619C222.197 71.2619 224.6 68.8584 224.6 65.8935C224.6 62.9287 222.197 60.5251 219.232 60.5251C216.267 60.5251 213.863 62.9287 213.863 65.8935C213.863 68.8584 216.267 71.2619 219.232 71.2619Z" fill="#7696EA"/>
<path d="M147.849 250.382C150.814 250.382 153.217 247.979 153.217 245.014C153.217 242.049 150.814 239.645 147.849 239.645C144.884 239.645 142.48 242.049 142.48 245.014C142.48 247.979 144.884 250.382 147.849 250.382Z" fill="#7696EA"/>
<path d="M209.772 268.816L175.975 313.251C171.782 330.562 181.273 346.13 199.146 350.229L277.729 314.208L209.772 268.816Z" fill="#F8A6B3"/>
<path d="M184.09 296.516L2.05697 390.963C-10.3076 396.874 35.1957 459.449 82.3359 439.46L201.573 348.971C224.993 341.165 207.513 288.713 184.092 296.518L184.09 296.516Z" fill="#F8A6B3"/>
<path d="M213.22 276.835C213.22 276.835 311.08 202.973 319.726 217.346C329.628 233.808 226.277 297.366 226.277 297.366L213.22 276.835Z" fill="#F8A6B3"/>
<path d="M218.006 354.347L288.493 353.921C292.891 353.894 296.45 350.145 296.441 345.548L296.176 193.158C296.168 188.725 292.666 185.125 288.354 185.112L219.237 184.901C214.889 184.889 211.334 188.483 211.298 192.936L210.045 346.029C210.007 350.647 213.573 354.372 218.008 354.345L218.006 354.347Z" fill="white"/>
<path d="M217.032 353.238C217.325 353.274 217.626 353.292 217.923 353.29L288.388 352.791C292.168 352.764 295.256 349.476 295.251 345.465L295.008 193.242C295.002 189.374 291.961 186.216 288.253 186.201L219.14 185.92C219.032 185.92 218.922 185.92 218.815 185.927C217.076 186.003 215.452 186.746 214.237 188.015C212.994 189.313 212.304 191.032 212.29 192.86L211.053 346.108C211.024 349.741 213.586 352.805 217.032 353.238Z" fill="#33201B"/>
<path d="M214.725 193.969L213.537 346.683L292.92 346.238L292.716 193.969H214.725Z" fill="white"/>
<path d="M268.799 286.272H279.211V275.859H268.799V286.272Z" stroke="#CEE1F2" stroke-width="4.94" stroke-miterlimit="10"/>
<path d="M255.073 286.272H265.485V275.859H255.073V286.272Z" stroke="#CEE1F2" stroke-width="4.94" stroke-miterlimit="10"/>
<path d="M241.349 286.272H251.761V275.859H241.349V286.272Z" stroke="#CEE1F2" stroke-width="4.94" stroke-miterlimit="10"/>
<path d="M227.625 286.272H238.038V275.859H227.625V286.272Z" stroke="#CEE1F2" stroke-width="4.94" stroke-miterlimit="10"/>
<path d="M274.113 283.431C275.303 283.431 276.269 282.466 276.269 281.275C276.269 280.084 275.303 279.119 274.113 279.119C272.922 279.119 271.957 280.084 271.957 281.275C271.957 282.466 272.922 283.431 274.113 283.431Z" fill="#4D4D4D"/>
<path d="M260.36 283.431C261.551 283.431 262.516 282.466 262.516 281.275C262.516 280.084 261.551 279.119 260.36 279.119C259.169 279.119 258.204 280.084 258.204 281.275C258.204 282.466 259.169 283.431 260.36 283.431Z" fill="#4D4D4D"/>
<path d="M246.607 283.431C247.798 283.431 248.763 282.466 248.763 281.275C248.763 280.084 247.798 279.119 246.607 279.119C245.416 279.119 244.451 280.084 244.451 281.275C244.451 282.466 245.416 283.431 246.607 283.431Z" fill="#4D4D4D"/>
<path d="M232.608 283.431C233.798 283.431 234.764 282.466 234.764 281.275C234.764 280.084 233.798 279.119 232.608 279.119C231.417 279.119 230.452 280.084 230.452 281.275C230.452 282.466 231.417 283.431 232.608 283.431Z" fill="#4D4D4D"/>
<path d="M249.034 230.261V228.175C249.034 227.228 248.266 226.461 247.32 226.461H229.067C228.121 226.461 227.353 227.228 227.353 228.175V265.036H274.565V230.261H249.034Z" fill="white"/>
<path d="M249.185 230.261V228.175C249.185 227.228 248.417 226.461 247.471 226.461H229.219C228.272 226.461 227.504 227.228 227.504 228.175V265.036H274.717V230.261H249.185Z" fill="#BFE1FF"/>
<path d="M249.613 230.246V228.16C249.613 227.214 248.845 226.446 247.898 226.446H229.646C228.7 226.446 227.932 227.214 227.932 228.16V265.022H275.144V230.246H249.613Z" fill="#1A5280"/>
<path d="M229.087 231.701V265.036H272.822V231.537L229.087 231.701Z" fill="white"/>
<path d="M231.113 231.701V265.036H275.223V231.537L231.113 231.701Z" fill="#1480CC"/>
<path d="M276.972 230.261H233.48C232.588 230.261 231.93 230.861 231.802 231.69V265.036H279.27V232.537C279.281 231.34 278.192 230.261 276.973 230.261H276.972Z" fill="#BFE1FF"/>
<path d="M271.079 221.102L238.98 221.192L239.049 245.586L271.147 245.496L271.079 221.102Z" fill="#CCE7FF"/>
<path d="M270.245 221.901L239.787 221.986L239.849 244.412L270.307 244.327L270.245 221.901Z" fill="#3397FF"/>
<path d="M242.418 242.604L261.992 242.548L251.289 232.281L242.418 242.604Z" fill="#E3EEFF"/>
<path d="M251.318 242.578L267.764 242.531L258.84 234.046L251.318 242.578Z" fill="#E3EEFF"/>
<path d="M259.006 231.599C259.891 230.714 259.891 229.28 259.006 228.395C258.121 227.51 256.686 227.51 255.802 228.395C254.917 229.28 254.917 230.714 255.801 231.599C256.686 232.484 258.121 232.484 259.006 231.599Z" fill="#E3EEFF"/>
<path d="M276.051 215.51L246.292 215.603L246.373 241.482L276.132 241.389L276.051 215.51Z" fill="#CCE7FF"/>
<path d="M275.188 216.363L247.118 216.451L247.193 240.243L275.262 240.155L275.188 216.363Z" fill="#198AFF"/>
<path d="M261.071 219.715H249.892V220.697H261.071V219.715Z" fill="#CCE5FF"/>
<path d="M272.635 222.367H249.892V223.349H272.635V222.367Z" fill="#CCE5FF"/>
<path d="M272.635 225.067H249.892V226.05H272.635V225.067Z" fill="#CCE5FF"/>
<path d="M272.635 227.941H249.892V228.923H272.635V227.941Z" fill="#CCE5FF"/>
<path d="M279.481 232.541V265.038H232.317V231.687C232.451 230.861 233.105 230.262 233.988 230.262H277.192C278.408 230.262 279.49 231.337 279.481 232.543V232.541Z" fill="#66B8FF"/>
<path d="M232.258 264.589H227.501V265.036H232.258V264.589Z" fill="#BFE1FF"/>
<path d="M261.857 246.17C262.485 242.298 259.856 238.65 255.984 238.021C252.112 237.393 248.464 240.022 247.835 243.894C247.207 247.766 249.836 251.415 253.708 252.043C257.58 252.672 261.228 250.042 261.857 246.17Z" fill="white"/>
<path d="M254.846 244.763C255.468 244.763 256.043 244.46 256.411 243.997C256.681 243.662 256.841 243.231 256.841 242.751C256.841 241.65 255.947 240.74 254.846 240.74C253.744 240.74 252.834 241.65 252.834 242.751C252.834 243.231 252.993 243.662 253.265 243.997C253.633 244.46 254.206 244.763 254.844 244.763H254.846Z" fill="#275880"/>
<path d="M258.379 248.347C258.379 249.616 251.292 249.616 251.292 248.347V246.869C251.576 244.848 257.804 244.761 258.381 246.869V248.347H258.379Z" fill="#275880"/>
<path d="M266.498 255.801H243.173V257.097H266.498V255.801Z" fill="white"/>
<path d="M263.763 258.491H245.91V259.787H263.763V258.491Z" fill="white"/>
<path d="M263.01 305.771H279.115V296.096H263.01V305.771Z" fill="#7696EA"/>
<path d="M244.752 305.771H260.857V296.096H244.752V305.771Z" fill="#7696EA"/>
<path d="M226.497 305.771H242.602V296.096H226.497V305.771Z" fill="#7696EA"/>
<path d="M263.01 317.157H279.115V307.482H263.01V317.157Z" fill="#7696EA"/>
<path d="M244.752 317.157H260.857V307.482H244.752V317.157Z" fill="#7696EA"/>
<path d="M226.497 317.157H242.602V307.482H226.497V317.157Z" fill="#7696EA"/>
<path d="M263.01 328.419H279.115V318.744H263.01V328.419Z" fill="#7696EA"/>
<path d="M244.752 328.419H260.857V318.744H244.752V328.419Z" fill="#7696EA"/>
<path d="M244.752 339.804H260.857V330.129H244.752V339.804Z" fill="#7696EA"/>
<path d="M226.497 328.419H242.602V318.744H226.497V328.419Z" fill="#7696EA"/>
<path d="M296.441 247.783C296.441 247.783 317.323 256.12 304.106 272.905C290.89 289.692 284.075 272.905 291.801 259.322C294.654 254.305 296.441 247.783 296.441 247.783Z" fill="#F8A6B3"/>
<path d="M296.441 266.705C296.441 266.705 317.323 275.043 304.106 291.828C290.89 308.614 284.075 291.828 291.801 278.244C294.654 273.228 296.441 266.705 296.441 266.705Z" fill="#F8A6B3"/>
<path d="M296.899 299.987C296.899 299.987 313.19 306.491 302.878 319.587C292.567 332.684 287.251 319.587 293.279 308.989C295.505 305.076 296.899 299.987 296.899 299.987Z" fill="#F8A6B3"/>
<path d="M177.723 310.967C188.979 283.494 213.537 231.605 213.537 231.605C213.537 231.605 220.027 229.282 222.244 241.426C224.461 253.571 213.863 277.329 213.863 277.329C213.863 277.329 228.065 335.591 197.621 340.082C176.47 343.202 170.817 322.401 177.725 310.965L177.723 310.967Z" fill="#F8A6B3"/>
<path d="M292.181 377.747C292.181 377.747 247.79 307.7 254.235 299.094C260.679 290.488 312.42 368.941 312.42 368.941L292.181 377.747Z" fill="#F8A6B3"/>
<path d="M275.443 389.614C279.611 396.183 322.315 425.446 322.315 425.446C356.998 407.623 297.057 375.319 297.057 375.319C297.057 375.319 309.774 350.229 296.861 347.783C287.436 345.995 281.794 352.849 279.438 356.679C279.113 357.202 278.854 357.669 278.652 358.049C278.309 358.696 278.144 359.095 278.144 359.095C278.144 359.095 271.274 383.042 275.443 389.613V389.614Z" fill="#F8A6B3"/>
<path d="M287.669 381.131L292.134 377.673L322.681 425.919L364.256 400.065C364.256 400.065 351.545 343.859 344.969 336.767C338.393 329.675 329.708 326.261 329.708 326.261C321.819 323.029 319.036 326.881 315.51 326.356C307.459 325.161 303.83 332.348 301.523 331.824C298.891 331.225 295.496 331.892 292.626 333.289C291.386 333.892 290.249 334.631 289.308 335.467L289.3 335.476C288.336 336.327 287.582 337.284 287.155 338.288L274.563 342.746L278.562 354.458L278.149 354.568L279.182 356.276L287.669 381.129V381.131Z" fill="#F8A6B3"/>
<path d="M285.576 377.673C289.27 388.336 297.277 386.164 294.308 379.901L279.317 356.878C278.993 357.4 278.854 357.669 278.652 358.049C283.079 364.901 285.576 377.672 285.576 377.672V377.673Z" fill="#E399A5"/>
<path d="M324.84 427.372C373.533 465.524 401.709 431.648 398.94 419.681L359.903 389.973L313.246 419.166L324.839 427.372H324.84Z" fill="#F8A6B3"/>
</g>
<defs>
<clipPath id="clip0_89_14123">
<rect width="422.236" height="445" fill="white"/>
</clipPath>
</defs>
</svg>
