<svg width="540" height="445" viewBox="0 0 540 445" fill="none" xmlns="http://www.w3.org/2000/svg">
<g clip-path="url(#clip0_89_13926)">
<path d="M152.243 44.5145H150.644C150.186 42.4384 149.43 40.4778 148.409 38.6859L149.734 37.3612C151.713 35.3814 151.713 32.1684 149.734 30.1838C147.754 28.204 144.541 28.204 142.556 30.1838L141.424 31.3158C139.68 30.1982 137.768 29.336 135.726 28.7724V26.8985C135.726 24.095 133.452 21.8262 130.653 21.8262C127.855 21.8262 125.581 24.0998 125.581 26.8985V28.4978C123.51 28.9554 121.544 29.7165 119.752 30.7329L118.428 29.4082C116.448 27.4284 113.235 27.4284 111.25 29.4082C109.27 31.388 109.27 34.601 111.25 36.5856L112.382 37.7177C111.265 39.4614 110.402 41.3786 109.839 43.4162H107.965C105.161 43.4162 102.893 45.6899 102.893 48.4886C102.893 51.2873 105.166 53.561 107.965 53.561H109.564C110.022 55.6371 110.778 57.5977 111.799 59.3896L110.475 60.7143C108.495 62.6941 108.495 65.9071 110.475 67.8917C112.454 69.8715 115.667 69.8715 117.652 67.8917L118.779 66.7645C120.523 67.8773 122.44 68.7395 124.483 69.3079V71.1769C124.483 73.9805 126.756 76.2493 129.555 76.2493C132.354 76.2493 134.627 73.9757 134.627 71.1769V69.5777C136.704 69.1201 138.664 68.3638 140.456 67.3426L141.781 68.6673C143.761 70.6471 146.973 70.6471 148.958 68.6673C150.938 66.6875 150.938 63.4745 148.958 61.4898L147.831 60.3627C148.944 58.6189 149.806 56.6969 150.374 54.6593H152.248C155.052 54.6593 157.321 52.3856 157.321 49.5869C157.321 46.7834 155.047 44.5145 152.248 44.5145H152.243ZM145.21 49.0377C145.21 57.3809 138.442 64.144 130.104 64.144C121.766 64.144 114.998 57.3761 114.998 49.0377C114.998 40.6994 121.766 33.9314 130.104 33.9314C138.442 33.9314 145.21 40.6946 145.21 49.0377Z" fill="url(#paint0_linear_89_13926)"/>
<path d="M120.557 49.0376C120.557 54.3123 124.834 58.585 130.104 58.585C135.374 58.585 139.656 54.3074 139.656 49.0376C139.656 43.7677 135.374 39.4854 130.104 39.4854C124.829 39.4854 120.557 43.7629 120.557 49.0376Z" fill="#1A468F"/>
<path d="M201.309 30.7279L200.298 30.2655C200.606 28.8204 200.688 27.356 200.563 25.9301L201.786 25.4725C203.612 24.7885 204.537 22.7509 203.853 20.9252C203.169 19.0995 201.131 18.1747 199.305 18.8587L198.26 19.2489C197.48 18.0398 196.511 16.9415 195.384 15.9974L195.924 14.8075C196.733 13.0301 195.948 10.9394 194.17 10.1302C192.393 9.32092 190.302 10.1061 189.493 11.8836L189.031 12.8952C187.585 12.5869 186.121 12.505 184.695 12.6302L184.238 11.4067C183.554 9.58104 181.516 8.65616 179.69 9.34018C177.865 10.0242 176.94 12.0618 177.624 13.8875L178.014 14.9328C176.8 15.7132 175.702 16.6814 174.758 17.8086L173.568 17.2691C171.79 16.4598 169.7 17.245 168.89 19.0225C168.081 20.8 168.866 22.8906 170.644 23.6998L171.655 24.1623C171.347 25.6074 171.265 27.0718 171.39 28.5024L170.167 28.9601C168.341 29.6441 167.416 31.6817 168.1 33.5074C168.784 35.333 170.822 36.2579 172.648 35.5739L173.688 35.1837C174.473 36.3928 175.442 37.4911 176.569 38.44L176.029 39.625C175.22 41.4025 176.005 43.4931 177.783 44.3024C179.56 45.1117 181.651 44.3265 182.46 42.549L182.923 41.5374C184.368 41.8457 185.832 41.9276 187.263 41.8024L187.72 43.0259C188.404 44.8516 190.442 45.7764 192.268 45.0924C194.093 44.4084 195.018 42.3708 194.334 40.5451L193.944 39.5046C195.153 38.7194 196.251 37.7512 197.2 36.624L198.385 37.1635C200.163 37.9728 202.253 37.1876 203.063 35.4101C203.872 33.6326 203.087 31.5372 201.309 30.7327V30.7279ZM195.548 31.5661C193.144 36.8504 186.906 39.1915 181.622 36.7878C176.338 34.3841 173.997 28.146 176.4 22.8617C178.804 17.5725 185.042 15.2363 190.326 17.64C195.615 20.0437 197.952 26.277 195.548 31.5661Z" fill="#FE6B8F"/>
<path d="M179.927 24.4659C178.41 27.8089 179.884 31.7493 183.227 33.2666C186.57 34.784 190.51 33.31 192.032 29.9669C193.55 26.6239 192.071 22.6787 188.733 21.1614C185.39 19.644 181.449 21.1228 179.932 24.4659H179.927Z" fill="#FE6B8F"/>
<path d="M104.492 272.703C104.752 272.703 104.969 272.544 104.993 272.332C105.017 272.111 104.81 271.913 104.535 271.894C103.013 271.793 101.457 271.663 99.9063 271.509C99.6317 271.48 99.3812 271.639 99.3475 271.865C99.3138 272.087 99.5113 272.289 99.7858 272.318C101.347 272.472 102.917 272.602 104.454 272.703C104.468 272.703 104.482 272.703 104.497 272.703H104.492Z" fill="#1A468F"/>
<path d="M90.5566 271.143C87.5556 270.675 84.492 270.117 81.4476 269.481C81.1826 269.423 81.0189 269.201 81.0863 268.985C81.1537 268.768 81.4235 268.638 81.6981 268.691C84.7232 269.322 87.7675 269.876 90.7493 270.343C91.0191 270.386 91.1973 270.598 91.1491 270.82C91.101 271.013 90.8938 271.147 90.6578 271.147C90.6241 271.147 90.5952 271.147 90.5614 271.138L90.5566 271.143ZM72.4782 267.376C69.5302 266.61 66.5677 265.762 63.6726 264.856C63.4125 264.775 63.2873 264.538 63.3836 264.331C63.4799 264.124 63.7738 264.018 64.0291 264.1C66.9049 265.001 69.8529 265.839 72.7817 266.605C73.0466 266.672 73.1911 266.904 73.1044 267.116C73.037 267.289 72.8395 267.4 72.6275 267.4C72.5745 267.4 72.5264 267.395 72.4734 267.381L72.4782 267.376ZM55.0597 261.932C52.208 260.887 49.3852 259.77 46.6684 258.609C46.4227 258.503 46.3312 258.257 46.4564 258.06C46.5865 257.862 46.89 257.785 47.1308 257.891C49.8284 259.042 52.6319 260.155 55.4692 261.191C55.7197 261.282 55.8353 261.523 55.7196 261.73C55.6378 261.879 55.4547 261.971 55.262 261.971C55.1946 261.971 55.1223 261.961 55.0549 261.932H55.0597ZM38.542 254.875C35.8396 253.536 33.2192 252.135 30.7432 250.704C30.5168 250.574 30.4638 250.319 30.6276 250.135C30.7865 249.952 31.0997 249.909 31.3261 250.039C33.7779 251.46 36.384 252.852 39.0623 254.182C39.2983 254.297 39.3705 254.548 39.2309 254.741C39.1345 254.866 38.9707 254.933 38.8021 254.933C38.7106 254.933 38.6239 254.914 38.542 254.875ZM23.3586 246.055C20.9116 244.379 18.609 242.64 16.5136 240.887C16.3209 240.728 16.3257 240.468 16.5232 240.313C16.7207 240.159 17.0387 240.159 17.2313 240.323C19.3027 242.052 21.5811 243.772 24.0041 245.434C24.2161 245.579 24.2402 245.834 24.0619 246.007C23.9608 246.104 23.8211 246.152 23.6814 246.152C23.5658 246.152 23.455 246.118 23.3586 246.055ZM10.4007 235.14C8.4402 233.045 6.73015 230.896 5.30911 228.757C5.17905 228.56 5.27058 228.314 5.51143 228.208C5.75228 228.102 6.06057 228.174 6.19063 228.372C7.58277 230.472 9.26874 232.582 11.1956 234.649C11.3642 234.827 11.3208 235.082 11.0992 235.217C11.0077 235.27 10.9017 235.299 10.7957 235.299C10.6464 235.299 10.4971 235.241 10.3959 235.14H10.4007ZM1.67223 221.744C0.737722 219.253 0.174126 216.734 0.000712116 214.253C-0.0137391 214.032 0.193395 213.839 0.472784 213.824C0.756991 213.805 0.983392 213.983 1.00266 214.21C1.17126 216.628 1.7204 219.085 2.63083 221.512C2.71272 221.729 2.56339 221.956 2.29845 222.018C2.25028 222.028 2.20211 222.038 2.15394 222.038C1.93717 222.038 1.73967 221.922 1.67705 221.749L1.67223 221.744ZM1.0701 207.119C0.800344 207.076 0.622113 206.859 0.679918 206.642C1.28687 204.214 2.284 201.777 3.64241 199.407C3.75802 199.205 4.05668 199.113 4.30716 199.21C4.55765 199.306 4.66844 199.547 4.54802 199.749C3.22333 202.066 2.25028 204.441 1.6626 206.806C1.61443 206.999 1.40729 207.129 1.17126 207.129C1.13754 207.129 1.10382 207.129 1.0701 207.124V207.119ZM8.51727 193.415C8.29087 193.285 8.2427 193.029 8.40167 192.846C8.97008 192.201 9.57703 191.555 10.1984 190.924C11.4749 189.628 12.9249 188.347 14.5145 187.128C14.7168 186.974 15.0299 186.979 15.2226 187.143C15.4153 187.307 15.4057 187.562 15.2034 187.716C13.6474 188.911 12.2264 190.163 10.9788 191.43C10.367 192.051 9.76971 192.687 9.21093 193.323C9.11459 193.434 8.96044 193.492 8.80148 193.492C8.70032 193.492 8.59916 193.468 8.51246 193.415H8.51727ZM21.6582 182.952C21.4993 182.769 21.5571 182.514 21.7883 182.388C24.2064 181.035 26.8944 179.715 29.775 178.462C30.0206 178.356 30.3193 178.429 30.4542 178.631C30.5842 178.829 30.4927 179.074 30.247 179.18C27.4002 180.418 24.746 181.719 22.3567 183.058C22.27 183.106 22.1688 183.13 22.0725 183.13C21.9135 183.13 21.7546 183.068 21.6582 182.957V182.952ZM37.9302 175.717C37.8195 175.51 37.9351 175.274 38.1904 175.182C40.912 174.228 43.836 173.294 46.8803 172.403C47.1405 172.325 47.4295 172.436 47.521 172.648C47.6174 172.86 47.4777 173.091 47.2175 173.168C44.1924 174.05 41.2877 174.98 38.5902 175.929C38.5276 175.953 38.4601 175.962 38.3927 175.962C38.2 175.962 38.017 175.871 37.9351 175.717H37.9302ZM55.4065 170.529C55.3246 170.312 55.474 170.086 55.7389 170.023C58.6003 169.315 61.6206 168.621 64.7179 167.956C64.9829 167.899 65.2574 168.029 65.3297 168.245C65.4019 168.462 65.2382 168.684 64.9732 168.742C61.8855 169.402 58.8748 170.09 56.0279 170.798C55.9798 170.808 55.9316 170.818 55.8834 170.818C55.6715 170.818 55.4692 170.707 55.4065 170.529ZM73.4079 166.641C73.3453 166.425 73.5139 166.203 73.7836 166.155C76.722 165.611 79.7905 165.076 82.9071 164.57C83.1769 164.527 83.4418 164.666 83.4948 164.888C83.5478 165.11 83.3744 165.321 83.0998 165.365C79.9928 165.871 76.934 166.401 74.0052 166.945C73.9667 166.95 73.9281 166.954 73.8944 166.954C73.668 166.954 73.4609 166.829 73.4079 166.637V166.641ZM91.6646 163.636C91.6164 163.414 91.7994 163.202 92.0692 163.163C95.022 162.74 98.1194 162.316 101.265 161.911C101.54 161.877 101.795 162.027 101.838 162.248C101.882 162.47 101.694 162.677 101.424 162.711C98.2832 163.115 95.1955 163.534 92.2474 163.958C92.2185 163.958 92.1896 163.963 92.1607 163.963C91.9247 163.963 91.7127 163.823 91.6694 163.626L91.6646 163.636ZM110.066 161.256C110.027 161.034 110.22 160.827 110.49 160.798C113.491 160.456 116.598 160.119 119.729 159.796C120.003 159.772 120.254 159.926 120.288 160.148C120.321 160.37 120.129 160.577 119.854 160.601C116.728 160.924 113.626 161.261 110.629 161.603C110.605 161.603 110.581 161.603 110.557 161.603C110.311 161.603 110.099 161.458 110.061 161.251L110.066 161.256ZM128.549 159.344C128.515 159.122 128.713 158.92 128.992 158.896C132.027 158.616 135.143 158.342 138.26 158.081C138.53 158.057 138.78 158.221 138.809 158.443C138.838 158.664 138.636 158.867 138.361 158.891C135.249 159.151 132.133 159.425 129.108 159.705C129.088 159.705 129.069 159.705 129.05 159.705C128.799 159.705 128.582 159.551 128.554 159.344H128.549ZM147.08 157.783C147.056 157.561 147.258 157.364 147.533 157.34C150.601 157.108 153.699 156.882 156.815 156.67C157.095 156.651 157.336 156.815 157.355 157.041C157.379 157.263 157.172 157.46 156.897 157.479C153.781 157.696 150.688 157.918 147.624 158.149C147.61 158.149 147.591 158.149 147.576 158.149C147.321 158.149 147.104 157.99 147.08 157.778V157.783ZM165.645 156.492C165.626 156.27 165.828 156.073 166.107 156.053C169.185 155.861 172.283 155.673 175.4 155.495C175.669 155.485 175.915 155.649 175.934 155.87C175.953 156.092 175.746 156.29 175.472 156.304C172.355 156.482 169.263 156.67 166.184 156.863C166.17 156.863 166.16 156.863 166.146 156.863C165.886 156.863 165.669 156.699 165.645 156.487V156.492ZM184.224 155.418C184.205 155.191 184.417 154.999 184.692 154.984C187.775 154.82 190.877 154.666 193.993 154.512C194.258 154.493 194.509 154.671 194.523 154.893C194.538 155.114 194.331 155.307 194.056 155.321C190.944 155.475 187.842 155.63 184.759 155.793C184.749 155.793 184.735 155.793 184.725 155.793C184.465 155.793 184.244 155.63 184.224 155.413V155.418ZM202.823 154.512C202.809 154.286 203.021 154.098 203.295 154.083C206.383 153.944 209.485 153.809 212.597 153.679C212.876 153.659 213.107 153.838 213.122 154.064C213.136 154.29 212.924 154.478 212.65 154.493C209.538 154.623 206.441 154.758 203.353 154.897C203.343 154.897 203.334 154.897 203.324 154.897C203.059 154.897 202.837 154.729 202.823 154.517V154.512ZM221.427 153.727C221.412 153.505 221.624 153.313 221.903 153.303C224.996 153.182 228.098 153.062 231.21 152.946C231.485 152.922 231.721 153.11 231.735 153.332C231.749 153.553 231.533 153.746 231.258 153.756C228.151 153.871 225.049 153.992 221.956 154.112C221.947 154.112 221.942 154.112 221.932 154.112C221.667 154.112 221.446 153.944 221.431 153.727H221.427ZM240.016 153.028C240.001 152.802 240.218 152.614 240.492 152.604C243.59 152.494 246.692 152.388 249.799 152.282C250.069 152.267 250.31 152.445 250.319 152.672C250.329 152.893 250.117 153.086 249.842 153.096C246.735 153.202 243.638 153.308 240.541 153.419C240.531 153.419 240.526 153.419 240.517 153.419C240.252 153.419 240.03 153.25 240.016 153.028ZM258.643 152.392C258.633 152.171 258.845 151.978 259.125 151.969C262.227 151.867 265.329 151.766 268.431 151.665C268.716 151.646 268.942 151.829 268.952 152.055C268.961 152.282 268.749 152.47 268.47 152.479C265.368 152.58 262.266 152.682 259.163 152.783C259.154 152.783 259.149 152.783 259.144 152.783C258.879 152.783 258.658 152.609 258.643 152.392ZM277.256 151.786C277.247 151.564 277.459 151.371 277.738 151.362L287.045 151.063C287.314 151.039 287.555 151.227 287.565 151.453C287.574 151.675 287.362 151.867 287.083 151.877L277.776 152.176C277.776 152.176 277.762 152.176 277.757 152.176C277.492 152.176 277.266 152.002 277.256 151.786ZM295.869 151.183C295.86 150.957 296.072 150.769 296.351 150.76C299.458 150.658 302.565 150.552 305.658 150.451C305.947 150.422 306.168 150.615 306.178 150.841C306.188 151.068 305.976 151.256 305.701 151.265C302.608 151.371 299.501 151.472 296.394 151.574C296.39 151.574 296.38 151.574 296.375 151.574C296.105 151.574 295.884 151.4 295.874 151.183H295.869ZM314.482 150.557C314.473 150.336 314.685 150.143 314.959 150.133C318.071 150.023 321.173 149.912 324.266 149.801C324.536 149.786 324.777 149.965 324.791 150.186C324.805 150.408 324.589 150.601 324.314 150.61C321.222 150.721 318.119 150.832 315.008 150.943C314.998 150.943 314.993 150.943 314.988 150.943C314.723 150.943 314.502 150.769 314.487 150.552L314.482 150.557ZM333.096 149.873C333.081 149.652 333.293 149.459 333.572 149.449C336.689 149.329 339.791 149.204 342.874 149.074C343.158 149.054 343.385 149.232 343.399 149.459C343.414 149.68 343.202 149.873 342.927 149.888C339.84 150.018 336.737 150.138 333.621 150.263C333.611 150.263 333.606 150.263 333.597 150.263C333.332 150.263 333.11 150.095 333.096 149.878V149.873ZM351.699 149.102C351.685 148.881 351.897 148.688 352.171 148.674C355.293 148.534 358.39 148.39 361.468 148.24C361.747 148.231 361.984 148.399 361.998 148.621C362.012 148.847 361.805 149.035 361.531 149.049C358.448 149.199 355.35 149.343 352.229 149.483C352.219 149.483 352.21 149.483 352.2 149.483C351.935 149.483 351.714 149.314 351.699 149.098V149.102ZM370.298 148.202C370.278 147.98 370.49 147.783 370.765 147.768C373.886 147.604 376.984 147.431 380.057 147.253C380.332 147.243 380.573 147.407 380.592 147.628C380.611 147.85 380.404 148.048 380.129 148.062C377.056 148.24 373.959 148.414 370.832 148.577C370.823 148.577 370.808 148.577 370.799 148.577C370.539 148.577 370.317 148.414 370.298 148.197V148.202ZM388.882 147.123C388.858 146.901 389.065 146.704 389.34 146.684C392.466 146.482 395.558 146.275 398.617 146.058C398.897 146.039 399.138 146.203 399.162 146.429C399.186 146.651 398.983 146.848 398.704 146.867C395.64 147.084 392.543 147.296 389.417 147.494C389.402 147.494 389.388 147.494 389.378 147.494C389.118 147.494 388.901 147.335 388.882 147.118V147.123ZM407.442 145.808C407.413 145.586 407.616 145.384 407.89 145.364C411.05 145.114 414.167 144.854 417.153 144.589C417.428 144.56 417.674 144.724 417.707 144.95C417.736 145.172 417.539 145.374 417.264 145.398C414.277 145.663 411.156 145.923 407.991 146.174C407.977 146.174 407.958 146.174 407.943 146.174C407.688 146.174 407.471 146.015 407.447 145.808H407.442ZM425.964 144.17C425.93 143.948 426.123 143.746 426.397 143.717C429.548 143.404 432.655 143.071 435.627 142.734C435.896 142.705 436.152 142.86 436.19 143.081C436.229 143.303 436.036 143.51 435.762 143.539C432.785 143.876 429.673 144.203 426.518 144.521C426.498 144.521 426.474 144.521 426.455 144.521C426.205 144.521 425.988 144.372 425.959 144.165L425.964 144.17ZM444.423 142.089C444.379 141.867 444.567 141.66 444.837 141.626C447.973 141.222 451.056 140.798 454.009 140.359C454.283 140.321 454.543 140.465 454.592 140.687C454.64 140.909 454.461 141.121 454.187 141.159C451.224 141.597 448.132 142.026 444.991 142.431C444.962 142.431 444.938 142.436 444.909 142.436C444.668 142.436 444.456 142.291 444.418 142.094L444.423 142.089ZM462.752 139.382C462.694 139.16 462.867 138.948 463.137 138.9C466.273 138.36 469.322 137.792 472.198 137.214C472.468 137.161 472.737 137.291 472.805 137.508C472.872 137.725 472.708 137.946 472.439 137.999C469.548 138.582 466.49 139.15 463.344 139.695C463.31 139.7 463.272 139.704 463.238 139.704C463.007 139.704 462.8 139.574 462.747 139.382H462.752ZM480.82 135.74C480.743 135.523 480.893 135.297 481.158 135.234C484.25 134.487 487.217 133.697 489.968 132.883C490.228 132.811 490.517 132.917 490.609 133.124C490.7 133.331 490.57 133.567 490.31 133.645C487.54 134.463 484.558 135.258 481.442 136.01C481.394 136.019 481.345 136.029 481.297 136.029C481.081 136.029 480.883 135.913 480.816 135.74H480.82ZM498.282 130.586C498.167 130.383 498.277 130.143 498.528 130.046C501.49 128.938 504.222 127.763 506.645 126.544C506.881 126.429 507.189 126.486 507.333 126.679C507.478 126.872 507.406 127.122 507.17 127.238C504.708 128.466 501.943 129.661 498.942 130.783C498.875 130.807 498.802 130.822 498.735 130.822C498.547 130.822 498.364 130.735 498.277 130.586H498.282ZM513.914 122.734C513.726 122.565 513.745 122.31 513.947 122.161C516.312 120.422 518.263 118.562 519.737 116.631C519.882 116.443 520.19 116.38 520.426 116.501C520.662 116.621 520.735 116.871 520.585 117.059C519.058 119.054 517.054 120.971 514.617 122.763C514.521 122.835 514.4 122.869 514.28 122.869C514.145 122.869 514.005 122.825 513.909 122.734H513.914ZM523.519 110.296C523.249 110.238 523.09 110.017 523.162 109.8C523.957 107.377 524.492 104.906 524.752 102.444C524.776 102.223 525.017 102.054 525.292 102.073C525.566 102.093 525.768 102.29 525.749 102.512C525.484 105.017 524.935 107.541 524.131 110.007C524.073 110.19 523.87 110.311 523.649 110.311C523.605 110.311 523.562 110.311 523.519 110.296ZM524.737 94.9924C524.468 92.555 523.938 90.0838 523.153 87.6464C523.081 87.4296 523.244 87.208 523.509 87.1502C523.779 87.0924 524.049 87.2225 524.121 87.4393C524.916 89.9201 525.46 92.4394 525.735 94.9202C525.759 95.1417 525.556 95.3392 525.282 95.3585C525.267 95.3585 525.253 95.3585 525.239 95.3585C524.983 95.3585 524.762 95.1995 524.742 94.9876L524.737 94.9924ZM520.166 80.5798C518.991 78.3495 517.589 76.1047 515.99 73.9081C515.85 73.7155 515.927 73.465 516.168 73.3542C516.404 73.2386 516.712 73.306 516.852 73.4987C518.471 75.7242 519.892 78.0026 521.086 80.2667C521.192 80.4738 521.077 80.7098 520.821 80.8014C520.759 80.8254 520.691 80.8351 520.624 80.8351C520.431 80.8351 520.243 80.7436 520.161 80.5894L520.166 80.5798ZM510.855 67.6797C509.053 65.7336 507.064 63.7923 504.944 61.9089C504.756 61.7451 504.771 61.485 504.978 61.3356C505.18 61.1863 505.498 61.1959 505.686 61.3597C507.83 63.2624 509.838 65.223 511.659 67.1883C511.823 67.3666 511.78 67.6219 511.558 67.7568C511.467 67.8097 511.361 67.8386 511.259 67.8386C511.105 67.8386 510.956 67.7808 510.86 67.6749L510.855 67.6797ZM498.412 56.5908C496.206 54.9289 493.841 53.2815 491.384 51.6919C491.167 51.5522 491.134 51.2969 491.307 51.1235C491.481 50.95 491.794 50.9211 492.01 51.0608C494.482 52.6649 496.866 54.322 499.091 55.9983C499.294 56.1525 499.308 56.4078 499.12 56.5715C499.024 56.6583 498.889 56.7016 498.754 56.7016C498.634 56.7016 498.509 56.6679 498.412 56.5956V56.5908ZM483.956 47.1976C481.475 45.791 478.865 44.4037 476.201 43.0741C475.965 42.9585 475.893 42.708 476.037 42.5154C476.182 42.3227 476.49 42.2649 476.726 42.3805C479.409 43.7196 482.034 45.1118 484.534 46.528C484.761 46.658 484.819 46.9085 484.66 47.0964C484.563 47.2072 484.404 47.2698 484.25 47.2698C484.149 47.2698 484.053 47.2457 483.966 47.1976H483.956ZM468.171 39.3072C465.497 38.127 462.718 36.9709 459.914 35.8726C459.664 35.7763 459.563 35.5306 459.683 35.3283C459.804 35.126 460.102 35.0393 460.353 35.1404C463.171 36.2436 465.965 37.4093 468.652 38.5943C468.898 38.7003 468.985 38.9507 468.855 39.1434C468.763 39.2783 468.59 39.3554 468.416 39.3554C468.335 39.3554 468.253 39.3409 468.176 39.3072H468.171ZM451.47 32.7464C448.671 31.7685 445.776 30.8195 442.867 29.9236C442.607 29.8417 442.477 29.6105 442.578 29.3985C442.674 29.1866 442.968 29.0854 443.223 29.1625C446.147 30.0633 449.052 31.0219 451.865 31.9997C452.12 32.0864 452.236 32.3273 452.13 32.5344C452.048 32.6886 451.865 32.7801 451.672 32.7801C451.605 32.7801 451.537 32.7705 451.475 32.7464H451.47ZM434.124 27.3802C431.224 26.5902 428.247 25.8243 425.27 25.1113C425.005 25.0487 424.856 24.8223 424.933 24.6055C425.01 24.3888 425.289 24.2635 425.554 24.331C428.541 25.0487 431.532 25.8146 434.442 26.6094C434.702 26.6817 434.846 26.9129 434.755 27.1249C434.683 27.2935 434.49 27.3994 434.283 27.3994C434.23 27.3994 434.177 27.3946 434.124 27.3802ZM416.32 23.1026C413.348 22.4812 410.313 21.8887 407.288 21.3444C407.018 21.2962 406.85 21.0794 406.907 20.8579C406.965 20.6363 407.235 20.5014 407.505 20.5496C410.535 21.0987 413.584 21.6912 416.57 22.3126C416.835 22.3704 416.999 22.592 416.932 22.8088C416.874 22.9918 416.672 23.1122 416.445 23.1122C416.402 23.1122 416.363 23.1122 416.32 23.0978V23.1026ZM398.189 19.827C395.173 19.3646 392.095 18.9359 389.036 18.5457C388.762 18.512 388.574 18.3048 388.617 18.0832C388.66 17.8617 388.916 17.7123 389.19 17.746C392.259 18.1362 395.351 18.5698 398.376 19.0322C398.646 19.0756 398.824 19.2875 398.776 19.5091C398.733 19.7018 398.521 19.8415 398.285 19.8415C398.256 19.8415 398.222 19.8415 398.193 19.8366L398.189 19.827ZM379.84 17.4956C376.796 17.1824 373.694 16.9031 370.606 16.6622C370.331 16.6429 370.129 16.4406 370.158 16.219C370.187 15.9974 370.437 15.8289 370.707 15.8529C373.8 16.0938 376.916 16.378 379.966 16.6911C380.24 16.72 380.433 16.9223 380.399 17.1439C380.365 17.351 380.153 17.5004 379.903 17.5004C379.884 17.5004 379.86 17.5004 379.84 17.5004V17.4956ZM361.348 16.0408C358.294 15.8722 355.172 15.7325 352.07 15.6314C351.795 15.6217 351.579 15.4339 351.588 15.2075C351.598 14.9811 351.839 14.7932 352.109 14.8173C355.216 14.9184 358.347 15.0581 361.415 15.2267C361.69 15.2412 361.902 15.4339 361.882 15.6603C361.863 15.877 361.646 16.0408 361.381 16.0408C361.372 16.0408 361.357 16.0408 361.348 16.0408Z" fill="#1A468F"/>
<path d="M342.686 15.4291C342.961 15.4291 343.182 15.2508 343.187 15.0292C343.187 14.8028 342.97 14.6198 342.691 14.6198C341.14 14.6005 339.579 14.5957 338.009 14.5957C337.734 14.5957 337.508 14.7788 337.508 15.0003C337.508 15.2219 337.734 15.405 338.009 15.405C339.57 15.405 341.125 15.4146 342.677 15.4291C342.677 15.4291 342.677 15.4291 342.681 15.4291H342.686Z" fill="#1A468F"/>
<path d="M344.763 15.8386L329.377 16.7586L333.977 9.4126L344.763 15.8386Z" fill="#1A468F"/>
<path d="M330.585 19.0708L310.521 13.5842L335.368 12.4521L330.585 19.0708Z" fill="#517BC2"/>
<path d="M310.502 13.5648L341.336 0L336.957 6.72943L310.502 13.5648Z" fill="#517BC2"/>
<path d="M310.521 13.5842L335.421 12.5148L344.761 15.8386L336.958 6.62354L310.521 13.5842Z" fill="#2B4C85"/>
<path d="M535.772 357.089H68.5605C66.7782 357.089 65.3379 358.534 65.3379 360.311V371.969C65.3379 376 68.6087 379.271 72.6406 379.271H532.371C536.403 379.271 539.674 376 539.674 371.969V360.986C539.674 358.832 537.93 357.089 535.777 357.089H535.772Z" fill="#1A468F"/>
<path d="M532.661 363.741H72.3471C68.556 363.741 64.1581 360.682 65.6225 359.015L130.513 285.233C131.134 284.524 132.194 284.134 133.485 284.134H471.489C472.78 284.134 473.839 284.524 474.461 285.233L539.38 359.015C540.845 360.677 536.447 363.741 532.661 363.741Z" fill="#7696EA"/>
<path d="M171.8 296.986H155.312C153.597 296.986 151.776 297.617 151.246 298.398L146.992 304.665C146.429 305.498 147.416 306.172 149.199 306.172H166.347C168.13 306.172 169.97 305.493 170.456 304.665L174.088 298.398C174.541 297.617 173.515 296.986 171.8 296.986Z" fill="#D0E0F2"/>
<path d="M146.714 339.261H127.186C125.153 339.261 122.903 340.147 122.157 341.245L116.15 350.099C115.345 351.279 116.42 352.243 118.549 352.243H139.012C141.141 352.243 143.429 351.279 144.113 350.099L149.243 341.245C149.879 340.147 148.747 339.261 146.714 339.261Z" fill="#D0E0F2"/>
<path d="M179.3 339.261H159.771C157.739 339.261 155.595 340.147 154.983 341.245L150.036 350.099C149.376 351.279 150.561 352.243 152.695 352.243H173.158C175.287 352.243 177.46 351.279 177.999 350.099L182.07 341.245C182.575 340.147 181.332 339.261 179.3 339.261Z" fill="#D0E0F2"/>
<path d="M363.433 339.261H343.905C341.872 339.261 340.331 340.147 340.461 341.245L341.516 350.099C341.655 351.279 343.496 352.243 345.625 352.243H366.088C368.217 352.243 369.734 351.279 369.474 350.099L367.547 341.245C367.306 340.147 365.466 339.261 363.433 339.261Z" fill="#D0E0F2"/>
<path d="M396.912 339.261H377.383C375.351 339.261 373.915 340.147 374.185 341.245L376.329 350.099C376.613 351.279 378.573 352.243 380.702 352.243H401.165C403.294 352.243 404.691 351.279 404.287 350.099L401.266 341.245C400.891 340.147 398.945 339.261 396.912 339.261Z" fill="#D0E0F2"/>
<path d="M430.39 339.261H410.862C408.829 339.261 407.504 340.147 407.909 341.245L411.141 350.099C411.574 351.279 413.651 352.243 415.785 352.243H436.247C438.377 352.243 439.653 351.279 439.109 350.099L435 341.245C434.489 340.147 432.432 339.261 430.4 339.261H430.39Z" fill="#D0E0F2"/>
<path d="M484.962 339.261H446.97C443.015 339.261 440.24 340.147 440.775 341.245L445.072 350.099C445.645 351.279 449.47 352.243 453.612 352.243H493.421C497.563 352.243 500.27 351.279 499.466 350.099L493.464 341.245C492.717 340.147 488.912 339.261 484.957 339.261H484.962Z" fill="#D0E0F2"/>
<path d="M201.873 296.986H185.384C183.669 296.986 181.93 297.617 181.502 298.398L178.072 304.665C177.614 305.498 178.693 306.172 180.476 306.172H197.624C199.412 306.172 201.16 305.493 201.536 304.665L204.349 298.398C204.701 297.617 203.593 296.986 201.878 296.986H201.873Z" fill="#D0E0F2"/>
<path d="M204.711 308.499H187.211C185.39 308.499 183.555 309.207 183.107 310.089L179.518 317.16C179.041 318.099 180.192 318.87 182.09 318.87H200.332C202.23 318.87 204.08 318.104 204.465 317.16L207.356 310.089C207.717 309.207 206.532 308.499 204.711 308.499Z" fill="#D0E0F2"/>
<path d="M236.947 308.499H219.446C217.626 308.499 215.882 309.207 215.549 310.089L212.895 317.16C212.544 318.099 213.791 318.87 215.694 318.87H233.936C235.834 318.87 237.588 318.104 237.848 317.16L239.803 310.089C240.049 309.207 238.768 308.499 236.947 308.499Z" fill="#D0E0F2"/>
<path d="M269.183 308.499H251.682C249.862 308.499 248.214 309.207 247.997 310.089L246.273 317.16C246.046 318.099 247.395 318.87 249.293 318.87H267.535C269.433 318.87 271.086 318.104 271.22 317.16L272.246 310.089C272.376 309.207 271.004 308.499 269.178 308.499H269.183Z" fill="#D0E0F2"/>
<path d="M301.413 308.499H283.913C282.092 308.499 280.536 309.207 280.44 310.089L279.65 317.16C279.544 318.099 280.999 318.87 282.897 318.87H301.139C303.037 318.87 304.588 318.104 304.598 317.16L304.689 310.089C304.699 309.207 303.234 308.499 301.413 308.499Z" fill="#D0E0F2"/>
<path d="M333.649 308.499H316.149C314.328 308.499 312.864 309.207 312.883 310.089L313.023 317.16C313.042 318.099 314.598 318.87 316.496 318.87H334.738C336.636 318.87 338.086 318.104 337.97 317.16L337.132 310.089C337.026 309.207 335.47 308.499 333.645 308.499H333.649Z" fill="#D0E0F2"/>
<path d="M365.884 308.499H348.383C346.563 308.499 345.195 309.207 345.329 310.089L346.404 317.16C346.548 318.099 348.205 318.87 350.098 318.87H368.341C370.238 318.87 371.587 318.104 371.351 317.16L369.579 310.089C369.357 309.207 367.705 308.499 365.884 308.499Z" fill="#D0E0F2"/>
<path d="M398.115 308.499H380.615C378.794 308.499 377.517 309.207 377.768 310.089L379.776 317.16C380.041 318.099 381.8 318.87 383.698 318.87H401.94C403.838 318.87 405.085 318.104 404.724 317.16L402.017 310.089C401.68 309.207 399.931 308.499 398.11 308.499H398.115Z" fill="#D0E0F2"/>
<path d="M430.352 308.499H412.852C411.031 308.499 409.851 309.207 410.217 310.089L413.155 317.16C413.546 318.099 415.405 318.87 417.303 318.87H435.545C437.443 318.87 438.589 318.104 438.108 317.16L434.471 310.089C434.018 309.207 432.173 308.499 430.352 308.499Z" fill="#D0E0F2"/>
<path d="M210.535 323.417H192.148C190.235 323.417 188.318 324.203 187.861 325.176L184.214 333.003C183.728 334.044 184.951 334.897 186.95 334.897H206.165C208.165 334.897 210.101 334.044 210.482 333.003L213.357 325.176C213.714 324.203 212.452 323.417 210.539 323.417H210.535Z" fill="#D0E0F2"/>
<path d="M241.889 323.417H223.498C221.585 323.417 219.765 324.203 219.427 325.176L216.739 333.003C216.383 334.044 217.712 334.897 219.712 334.897H238.927C240.926 334.897 242.756 334.044 243.012 333.003L244.924 325.176C245.165 324.203 243.802 323.417 241.889 323.417Z" fill="#D0E0F2"/>
<path d="M273.248 323.417H254.861C252.949 323.417 251.224 324.203 251.008 325.176L249.278 333.003C249.047 334.044 250.483 334.897 252.482 334.897H271.697C273.696 334.897 275.421 334.044 275.551 333.003L276.504 325.176C276.625 324.203 275.165 323.417 273.253 323.417H273.248Z" fill="#D0E0F2"/>
<path d="M304.608 323.417H286.221C284.309 323.417 282.676 324.203 282.584 325.176L281.813 333.003C281.712 334.044 283.249 334.897 285.248 334.897H304.463C306.462 334.897 308.086 334.044 308.086 333.003V325.176C308.081 324.203 306.53 323.417 304.612 323.417H304.608Z" fill="#D0E0F2"/>
<path d="M335.96 323.417H317.574C315.661 323.417 314.125 324.203 314.149 325.176L314.341 333.003C314.365 334.044 316.008 334.897 318.007 334.897H337.222C339.222 334.897 340.739 334.044 340.609 333.003L339.645 325.176C339.525 324.203 337.878 323.417 335.96 323.417Z" fill="#D0E0F2"/>
<path d="M367.321 323.417H348.929C347.017 323.417 345.576 324.203 345.721 325.176L346.867 333.003C347.022 334.044 348.765 334.897 350.764 334.897H369.98C371.979 334.897 373.39 334.044 373.135 333.003L371.213 325.176C370.972 324.203 369.228 323.417 367.316 323.417H367.321Z" fill="#D0E0F2"/>
<path d="M398.675 323.417H380.288C378.376 323.417 377.032 324.203 377.297 325.176L379.407 333.003C379.686 334.044 381.536 334.897 383.535 334.897H402.75C404.749 334.897 406.06 334.044 405.674 333.003L402.789 325.176C402.432 324.203 400.592 323.417 398.675 323.417Z" fill="#D0E0F2"/>
<path d="M430.034 323.417H411.642C409.73 323.417 408.487 324.203 408.867 325.176L411.936 333.003C412.345 334.044 414.301 334.897 416.3 334.897H435.515C437.514 334.897 438.719 334.044 438.208 333.003L434.364 325.176C433.887 324.203 431.951 323.417 430.034 323.417Z" fill="#D0E0F2"/>
<path d="M231.947 296.986H215.458C213.744 296.986 212.086 297.617 211.764 298.398L209.153 304.665C208.806 305.498 209.972 306.172 211.754 306.172H228.903C230.685 306.172 232.352 305.493 232.617 304.665L234.606 298.398C234.857 297.617 233.662 296.986 231.947 296.986Z" fill="#D0E0F2"/>
<path d="M262.019 296.986H245.53C243.816 296.986 242.245 297.617 242.019 298.398L240.232 304.665C239.996 305.498 241.248 306.172 243.035 306.172H260.184C261.971 306.172 263.541 305.493 263.696 304.665L264.861 298.398C265.006 297.617 263.734 296.986 262.019 296.986Z" fill="#D0E0F2"/>
<path d="M292.092 296.986H275.603C273.889 296.986 272.4 297.617 272.28 298.398L271.311 304.665C271.181 305.498 272.525 306.172 274.312 306.172H291.461C293.248 306.172 294.732 305.493 294.775 304.665L295.122 298.398C295.166 297.617 293.807 296.986 292.092 296.986Z" fill="#D0E0F2"/>
<path d="M322.161 296.986H305.672C303.952 296.986 302.551 297.617 302.531 298.398L302.387 304.665C302.368 305.498 303.798 306.172 305.585 306.172H322.734C324.521 306.172 325.913 305.493 325.851 304.665L325.379 298.398C325.321 297.617 323.881 296.986 322.166 296.986H322.161Z" fill="#D0E0F2"/>
<path d="M352.233 296.986H335.744C334.03 296.986 332.705 297.617 332.787 298.398L333.461 304.665C333.553 305.498 335.07 306.172 336.857 306.172H354.006C355.793 306.172 357.099 305.493 356.925 304.665L355.629 298.398C355.466 297.617 353.948 296.986 352.228 296.986H352.233Z" fill="#D0E0F2"/>
<path d="M382.307 296.986H365.818C364.103 296.986 362.86 297.617 363.048 298.398L364.546 304.665C364.744 305.498 366.353 306.172 368.14 306.172H385.288C387.076 306.172 388.289 305.493 388.01 304.665L385.895 298.398C385.63 297.617 384.026 296.986 382.311 296.986H382.307Z" fill="#D0E0F2"/>
<path d="M412.379 296.986H395.891C394.176 296.986 393.015 297.617 393.304 298.398L395.621 304.665C395.929 305.498 397.625 306.172 399.412 306.172H416.561C418.348 306.172 419.475 305.493 419.085 304.665L416.146 298.398C415.78 297.617 414.09 296.986 412.375 296.986H412.379Z" fill="#D0E0F2"/>
<path d="M457.577 296.986H426.401C423.154 296.986 420.832 297.617 421.218 298.398L424.296 304.665C424.705 305.498 427.774 306.172 431.146 306.172H463.574C466.951 306.172 469.224 305.493 468.661 304.665L464.412 298.398C463.882 297.617 460.823 296.986 457.577 296.986Z" fill="#D0E0F2"/>
<path d="M475.718 323.417H445.698C442.572 323.417 440.447 324.203 440.948 325.176L444.99 333.003C445.529 334.044 448.617 334.897 451.878 334.897H483.247C486.513 334.897 488.579 334.044 487.876 333.003L482.568 325.176C481.908 324.203 478.844 323.417 475.718 323.417Z" fill="#D0E0F2"/>
<path d="M468.526 308.499H444.884C442.423 308.499 440.814 309.207 441.291 310.089L445.125 317.16C445.636 318.099 448.131 318.87 450.694 318.87H475.338C477.9 318.87 479.466 318.104 478.83 317.16L474.056 310.089C473.459 309.207 470.983 308.499 468.526 308.499Z" fill="#D0E0F2"/>
<path d="M176.368 308.552H145.447C143.891 308.552 142.08 309.371 141.386 310.392L137.022 316.847C136.29 317.931 137.003 318.817 138.621 318.817H170.843C172.461 318.817 174.239 317.931 174.812 316.847L178.208 310.392C178.747 309.371 177.919 308.552 176.363 308.552H176.368Z" fill="#D0E0F2"/>
<path d="M179.947 323.056H138.299C136.203 323.056 133.896 323.962 133.13 325.084L128.298 332.204C127.484 333.403 128.592 334.381 130.779 334.381H174.277C176.464 334.381 178.709 333.403 179.292 332.204L182.751 325.084C183.295 323.962 182.038 323.056 179.947 323.056Z" fill="#D0E0F2"/>
<path d="M326.452 339.261H199.426C196.835 339.261 194.267 340.388 193.679 341.795L190.467 349.516C189.84 351.014 191.526 352.243 194.243 352.243H327.338C330.05 352.243 332.146 351.014 332.021 349.516L331.361 341.795C331.24 340.388 329.044 339.261 326.457 339.261H326.452Z" fill="#D0E0F2"/>
<path d="M169.464 293.311H152.879C151.155 293.311 149.324 293.947 148.794 294.741L144.541 301.081C143.977 301.919 144.969 302.608 146.766 302.608H164.016C165.813 302.608 167.663 301.924 168.144 301.081L171.776 294.741C172.229 293.951 171.194 293.311 169.469 293.311H169.464Z" fill="white"/>
<path d="M144.402 336.072H124.767C122.725 336.072 120.466 336.968 119.719 338.076L113.717 347.026C112.917 348.22 113.996 349.193 116.14 349.193H136.713C138.857 349.193 141.15 348.216 141.834 347.026L146.959 338.076C147.595 336.963 146.454 336.072 144.406 336.072H144.402Z" fill="white"/>
<path d="M177.166 336.072H157.532C155.489 336.072 153.336 336.968 152.724 338.076L147.787 347.026C147.127 348.22 148.326 349.193 150.465 349.193H171.039C173.182 349.193 175.36 348.216 175.899 347.026L179.96 338.076C180.466 336.963 179.213 336.072 177.171 336.072H177.166Z" fill="white"/>
<path d="M362.321 336.072H342.682C340.639 336.072 339.088 336.968 339.223 338.076L340.302 347.026C340.447 348.22 342.301 349.193 344.44 349.193H365.014C367.157 349.193 368.675 348.216 368.414 347.026L366.459 338.076C366.213 336.963 364.363 336.072 362.321 336.072Z" fill="white"/>
<path d="M395.981 336.072H376.347C374.305 336.072 372.864 336.968 373.134 338.076L375.307 347.026C375.596 348.22 377.571 349.193 379.709 349.193H400.283C402.427 349.193 403.828 348.216 403.419 347.026L400.37 338.076C399.989 336.963 398.029 336.072 395.981 336.072Z" fill="white"/>
<path d="M429.644 336.072H410.005C407.962 336.072 406.633 336.968 407.037 338.076L410.303 347.026C410.742 348.22 412.832 349.193 414.971 349.193H435.545C437.683 349.193 438.97 348.216 438.416 347.026L434.273 338.076C433.758 336.963 431.686 336.072 429.644 336.072Z" fill="white"/>
<path d="M484.52 336.072H446.321C442.346 336.072 439.553 336.968 440.092 338.076L444.423 347.026C445.001 348.22 448.849 349.193 453.016 349.193H493.036C497.203 349.193 499.92 348.216 499.116 347.026L493.075 338.076C492.323 336.963 488.499 336.072 484.52 336.072Z" fill="white"/>
<path d="M199.715 293.311H183.125C181.4 293.311 179.657 293.947 179.228 294.741L175.798 301.081C175.341 301.919 176.424 302.608 178.221 302.608H195.471C197.268 302.608 199.026 301.924 199.397 301.081L202.205 294.741C202.557 293.951 201.439 293.311 199.715 293.311Z" fill="white"/>
<path d="M204.214 305.117H186.617C184.787 305.117 182.937 305.835 182.489 306.726L178.891 313.875C178.414 314.824 179.57 315.599 181.477 315.599H199.821C201.728 315.599 203.592 314.824 203.978 313.875L206.878 306.726C207.239 305.835 206.044 305.117 204.214 305.117Z" fill="white"/>
<path d="M236.628 305.117H219.032C217.201 305.117 215.448 305.835 215.115 306.726L212.452 313.875C212.1 314.824 213.357 315.599 215.265 315.599H233.608C235.516 315.599 237.279 314.824 237.539 313.875L239.504 306.726C239.75 305.835 238.464 305.117 236.628 305.117Z" fill="white"/>
<path d="M269.042 305.117H251.446C249.615 305.117 247.953 305.835 247.741 306.726L246.012 313.875C245.781 314.824 247.144 315.599 249.051 315.599H267.395C269.302 315.599 270.964 314.824 271.099 313.875L272.13 306.726C272.26 305.835 270.878 305.117 269.047 305.117H269.042Z" fill="white"/>
<path d="M301.451 305.117H283.854C282.024 305.117 280.458 305.835 280.357 306.726L279.562 313.875C279.456 314.824 280.92 315.599 282.828 315.599H301.171C303.079 315.599 304.64 314.824 304.649 313.875L304.741 306.726C304.755 305.835 303.276 305.117 301.446 305.117H301.451Z" fill="white"/>
<path d="M333.87 305.117H316.274C314.443 305.117 312.974 305.835 312.988 306.726L313.133 313.875C313.152 314.824 314.713 315.599 316.625 315.599H334.969C336.876 315.599 338.336 314.824 338.225 313.875L337.382 306.726C337.276 305.835 335.706 305.117 333.875 305.117H333.87Z" fill="white"/>
<path d="M366.279 305.117H348.682C346.852 305.117 345.474 305.835 345.609 306.726L346.688 313.875C346.832 314.824 348.494 315.599 350.407 315.599H368.75C370.657 315.599 372.016 314.824 371.775 313.875L369.998 306.726C369.776 305.835 368.114 305.117 366.284 305.117H366.279Z" fill="white"/>
<path d="M398.694 305.117H381.098C379.267 305.117 377.986 305.835 378.236 306.726L380.25 313.875C380.52 314.824 382.283 315.599 384.195 315.599H402.538C404.446 315.599 405.703 314.824 405.342 313.875L402.63 306.726C402.293 305.835 400.535 305.117 398.704 305.117H398.694Z" fill="white"/>
<path d="M431.108 305.117H413.511C411.681 305.117 410.491 305.835 410.857 306.726L413.805 313.875C414.195 314.824 416.064 315.599 417.972 315.599H436.315C438.223 315.599 439.374 314.824 438.892 313.875L435.246 306.726C434.788 305.835 432.939 305.117 431.108 305.117Z" fill="white"/>
<path d="M208.52 320.045H190.028C188.101 320.045 186.179 320.84 185.726 321.823L182.084 329.737C181.598 330.792 182.836 331.65 184.844 331.65H204.166C206.174 331.65 208.121 330.792 208.501 329.737L211.362 321.823C211.719 320.835 210.447 320.045 208.52 320.045Z" fill="white"/>
<path d="M240.054 320.045H221.561C219.639 320.045 217.808 320.84 217.476 321.823L214.798 329.737C214.441 330.792 215.78 331.65 217.794 331.65H237.115C239.124 331.65 240.964 330.792 241.214 329.737L243.117 321.823C243.353 320.835 241.985 320.045 240.058 320.045H240.054Z" fill="white"/>
<path d="M271.591 320.045H253.099C251.172 320.045 249.442 320.84 249.23 321.823L247.516 329.737C247.289 330.792 248.73 331.65 250.743 331.65H270.064C272.073 331.65 273.807 330.792 273.932 329.737L274.872 321.823C274.987 320.835 273.523 320.045 271.596 320.045H271.591Z" fill="white"/>
<path d="M303.124 320.045H284.631C282.709 320.045 281.071 320.84 280.975 321.823L280.223 329.737C280.122 330.792 281.673 331.65 283.682 331.65H303.003C305.012 331.65 306.64 330.792 306.64 329.737L306.616 321.823C306.616 320.835 305.051 320.045 303.124 320.045Z" fill="white"/>
<path d="M334.661 320.045H316.168C314.246 320.045 312.705 320.84 312.729 321.823L312.936 329.737C312.965 330.792 314.617 331.65 316.626 331.65H335.947C337.956 331.65 339.483 330.792 339.348 329.737L338.36 321.823C338.24 320.835 336.578 320.045 334.651 320.045H334.661Z" fill="white"/>
<path d="M366.198 320.045H347.705C345.778 320.045 344.338 320.84 344.483 321.823L345.653 329.737C345.807 330.792 347.566 331.65 349.579 331.65H368.9C370.909 331.65 372.33 330.792 372.07 329.737L370.119 321.823C369.878 320.835 368.12 320.045 366.198 320.045Z" fill="white"/>
<path d="M397.735 320.045H379.242C377.315 320.045 375.972 320.84 376.236 321.823L378.37 329.737C378.655 330.792 380.519 331.65 382.528 331.65H401.849C403.857 331.65 405.173 330.792 404.787 329.737L401.878 321.823C401.516 320.835 399.662 320.045 397.74 320.045H397.735Z" fill="white"/>
<path d="M429.267 320.045H410.775C408.853 320.045 407.6 320.84 407.986 321.823L411.083 329.737C411.497 330.792 413.463 331.65 415.471 331.65H434.793C436.801 331.65 438.01 330.792 437.495 329.737L433.622 321.823C433.14 320.835 431.189 320.045 429.267 320.045Z" fill="white"/>
<path d="M229.967 293.311H213.382C211.652 293.311 209.995 293.947 209.668 294.741L207.067 301.081C206.72 301.919 207.895 302.608 209.692 302.608H226.942C228.738 302.608 230.405 301.924 230.67 301.081L232.65 294.741C232.896 293.951 231.696 293.311 229.972 293.311H229.967Z" fill="white"/>
<path d="M260.217 293.311H243.632C241.907 293.311 240.327 293.947 240.106 294.741L238.323 301.081C238.087 301.919 239.349 302.608 241.146 302.608H258.396C260.193 302.608 261.773 301.924 261.927 301.081L263.083 294.741C263.228 293.951 261.946 293.311 260.217 293.311Z" fill="white"/>
<path d="M290.469 293.311H273.879C272.155 293.311 270.656 293.947 270.536 294.741L269.582 301.081C269.457 301.919 270.806 302.608 272.603 302.608H289.852C291.644 302.608 293.138 301.924 293.181 301.081L293.513 294.741C293.557 293.951 292.189 293.311 290.464 293.311H290.469Z" fill="white"/>
<path d="M320.72 293.311H304.135C302.406 293.311 300.994 293.947 300.98 294.741L300.85 301.081C300.835 301.919 302.276 302.608 304.068 302.608H321.317C323.114 302.608 324.516 301.924 324.448 301.081L323.957 294.741C323.895 293.951 322.445 293.311 320.72 293.311Z" fill="white"/>
<path d="M350.971 293.311H334.381C332.657 293.311 331.327 293.947 331.414 294.741L332.108 301.081C332.199 301.919 333.731 302.608 335.528 302.608H352.778C354.575 302.608 355.885 301.924 355.711 301.081L354.396 294.741C354.233 293.951 352.701 293.311 350.976 293.311H350.971Z" fill="white"/>
<path d="M381.223 293.311H364.633C362.909 293.311 361.661 293.947 361.849 294.741L363.366 301.081C363.568 301.919 365.187 302.608 366.984 302.608H384.234C386.03 302.608 387.254 301.924 386.97 301.081L384.831 294.741C384.566 293.951 382.948 293.311 381.223 293.311Z" fill="white"/>
<path d="M411.473 293.311H394.888C393.159 293.311 391.998 293.947 392.292 294.741L394.633 301.081C394.946 301.919 396.651 302.608 398.448 302.608H415.698C417.494 302.608 418.626 301.924 418.236 301.081L415.269 294.741C414.898 293.951 413.202 293.311 411.473 293.311Z" fill="white"/>
<path d="M456.942 293.311H425.578C422.312 293.311 419.981 293.947 420.366 294.741L423.468 301.081C423.878 301.919 426.965 302.608 430.361 302.608H462.978C466.374 302.608 468.662 301.924 468.093 301.081L463.811 294.741C463.276 293.951 460.203 293.311 456.937 293.311H456.942Z" fill="white"/>
<path d="M475.212 320.045H445.024C441.883 320.045 439.744 320.84 440.25 321.823L444.325 329.737C444.869 330.792 447.972 331.65 451.257 331.65H482.799C486.084 331.65 488.16 330.792 487.452 329.737L482.11 321.823C481.445 320.835 478.362 320.045 475.222 320.045H475.212Z" fill="white"/>
<path d="M466.624 305.117H445.313C443.097 305.117 441.657 305.835 442.105 306.726L445.689 313.875C446.166 314.824 448.43 315.599 450.737 315.599H472.949C475.261 315.599 476.653 314.824 476.065 313.875L471.639 306.726C471.085 305.835 468.845 305.117 466.624 305.117Z" fill="white"/>
<path d="M175.708 305.17H144.614C143.053 305.17 141.227 305.999 140.534 307.035L136.16 313.557C135.423 314.655 136.145 315.546 137.774 315.546H170.173C171.801 315.546 173.588 314.65 174.162 313.557L177.572 307.035C178.112 306.004 177.278 305.17 175.718 305.17H175.708Z" fill="white"/>
<path d="M177.758 319.684H135.869C133.764 319.684 131.442 320.599 130.681 321.736L125.85 328.938C125.036 330.152 126.153 331.139 128.355 331.139H172.094C174.29 331.139 176.549 330.152 177.127 328.938L180.581 321.736C181.126 320.599 179.859 319.684 177.754 319.684H177.758Z" fill="white"/>
<path d="M325.132 336.072H197.403C194.797 336.072 192.22 337.213 191.637 338.634L188.429 346.438C187.807 347.955 189.508 349.198 192.234 349.198H326.052C328.779 349.198 330.884 347.955 330.754 346.438L330.074 338.634C329.949 337.213 327.738 336.072 325.137 336.072H325.132Z" fill="white"/>
<path d="M465.554 72.7088V267.361C465.554 270.314 463.213 272.703 460.318 272.703H144.641C141.746 272.703 139.4 270.309 139.4 267.361V72.7088C139.4 69.7559 141.746 67.3618 144.641 67.3618H460.323C463.218 67.3618 465.559 69.7559 465.559 72.7088H465.554Z" fill="#A8C0FF"/>
<path d="M296.701 58.6043C296.701 55.189 299.471 52.4192 302.881 52.4192C306.292 52.4192 309.067 55.189 309.067 58.6043C309.067 62.0196 306.297 64.7894 302.881 64.7894C299.466 64.7894 296.701 62.0196 296.701 58.6043Z" fill="#1F48DA"/>
<path d="M472.26 286.899H133.51C131.396 286.899 129.686 285.184 129.686 283.075C129.686 280.96 131.4 279.25 133.51 279.25H472.26C474.375 279.25 476.085 280.965 476.085 283.075C476.085 285.189 474.37 286.899 472.26 286.899Z" fill="#A8C0FF"/>
<path d="M469.624 49.0376H134.294C131.534 49.0376 129.299 51.2775 129.299 54.0329V274.254C129.299 275.242 129.583 276.162 130.084 276.938C130.195 277.116 130.32 277.289 130.455 277.448C131.202 278.349 132.266 278.985 133.475 279.182C133.74 279.226 134.015 279.255 134.294 279.255H469.624C472.384 279.255 474.615 277.015 474.615 274.259V54.0329C474.615 51.2727 472.384 49.0376 469.624 49.0376ZM465.559 267.356C465.559 270.309 463.217 272.703 460.322 272.703H144.554C142.146 272.665 140.132 270.969 139.564 268.691C139.453 268.267 139.4 267.819 139.4 267.361V72.7086C139.4 69.7606 141.746 67.3665 144.641 67.3665H460.322C463.217 67.3665 465.559 69.7606 465.559 72.7086V267.356Z" fill="#7696EA"/>
<path d="M316.549 58.6043C316.549 62.1111 313.702 64.958 310.191 64.958C306.679 64.958 303.832 62.1111 303.832 58.5995C303.832 55.0879 306.679 52.241 310.191 52.241C313.702 52.241 316.549 55.0879 316.549 58.5995V58.6043Z" fill="white"/>
<path d="M305.676 58.5995C305.676 56.1042 307.699 54.0811 310.194 54.0811C312.689 54.0811 314.713 56.1042 314.713 58.5995C314.713 61.0947 312.689 63.1179 310.194 63.1179C307.699 63.1179 305.676 61.0947 305.676 58.5995Z" fill="#7696EA"/>
<path d="M308.041 56.8364C308.041 56.2439 308.523 55.7622 309.115 55.7622C309.708 55.7622 310.189 56.2439 310.189 56.8364C310.189 57.4289 309.708 57.9106 309.115 57.9106C308.523 57.9106 308.041 57.4289 308.041 56.8364Z" fill="white"/>
<path d="M468.334 72.7473V268.729C468.334 271.697 465.944 274.105 463.006 274.105H141.684C138.746 274.105 136.352 271.697 136.352 268.729V72.7473C136.352 69.78 138.746 67.3618 141.684 67.3618H463.006C465.944 67.3618 468.334 69.7752 468.334 72.7425V72.7473Z" fill="white"/>
<path d="M468.334 72.7473V88.7688H136.352V72.7473C136.352 69.78 138.746 67.3618 141.684 67.3618H463.006C465.944 67.3618 468.334 69.7752 468.334 72.7473Z" fill="#CEE1F2"/>
<path d="M407.712 71.9861H157.995C152.514 71.9861 148.072 74.6355 148.072 77.9014C148.072 81.1674 152.514 83.8168 157.995 83.8168H407.707C413.189 83.8168 417.63 81.1674 417.63 77.9014C417.63 74.6355 413.189 71.9861 407.707 71.9861H407.712Z" fill="white"/>
<path d="M445.052 83.8168H428.804C425.5 83.8168 422.826 81.1674 422.826 77.9014C422.826 74.6355 425.504 71.9861 428.804 71.9861H445.052C448.357 71.9861 451.035 74.6355 451.035 77.9014C451.035 81.1674 448.357 83.8168 445.052 83.8168Z" fill="white"/>
<path d="M440.824 80.7532L438.189 78.9276C438.155 78.9083 438.122 78.8938 438.088 78.8794C438.338 78.4073 438.478 77.8774 438.478 77.3187C438.478 75.4544 436.946 73.9419 435.063 73.9419C433.179 73.9419 431.652 75.4593 431.652 77.3187C431.652 79.178 433.179 80.6906 435.063 80.6906C435.925 80.6906 436.705 80.3775 437.308 79.8524C437.346 79.9006 437.389 79.9488 437.442 79.9825L440.077 81.8082C440.222 81.9093 440.4 81.943 440.564 81.9141C440.728 81.8852 440.882 81.7937 440.983 81.6492C441.19 81.3602 441.118 80.9604 440.824 80.7532ZM435.068 79.7272C433.728 79.7272 432.63 78.6385 432.63 77.3138C432.63 75.9891 433.728 74.9005 435.068 74.9005C436.407 74.9005 437.51 75.9795 437.51 77.3138C437.51 78.6482 436.412 79.7272 435.068 79.7272Z" fill="#1A468F"/>
<path d="M458.252 73.9949C458.252 73.2531 458.859 72.6558 459.606 72.6558C460.352 72.6558 460.959 73.2531 460.959 73.9949C460.959 74.7367 460.352 75.334 459.606 75.334C458.859 75.334 458.252 74.7319 458.252 73.9949Z" fill="white"/>
<path d="M458.252 77.3428C458.252 76.601 458.859 76.0037 459.606 76.0037C460.352 76.0037 460.959 76.601 460.959 77.3428C460.959 78.0846 460.352 78.6819 459.606 78.6819C458.859 78.6819 458.252 78.0798 458.252 77.3428Z" fill="white"/>
<path d="M458.252 80.6905C458.252 79.9486 458.859 79.3513 459.606 79.3513C460.352 79.3513 460.959 79.9486 460.959 80.6905C460.959 81.4323 460.352 82.0296 459.606 82.0296C458.859 82.0296 458.252 81.4275 458.252 80.6905Z" fill="white"/>
<path d="M205.091 190.096C221.344 190.096 234.519 176.92 234.519 160.668C234.519 144.416 221.344 131.241 205.091 131.241C188.839 131.241 175.664 144.416 175.664 160.668C175.664 176.92 188.839 190.096 205.091 190.096Z" fill="#1A468F"/>
<path d="M204.639 163.785C210.949 163.785 216.065 158.669 216.065 152.359C216.065 146.048 210.949 140.933 204.639 140.933C198.329 140.933 193.213 146.048 193.213 152.359C193.213 158.669 198.329 163.785 204.639 163.785Z" fill="white"/>
<path d="M215.121 163.872C214.201 163.154 212.915 163.178 212.014 163.915C210.049 165.519 207.534 166.487 204.793 166.487C202.052 166.487 199.702 165.582 197.765 164.064C196.845 163.342 195.54 163.356 194.649 164.117C192.346 166.092 190.939 168.944 190.939 172.648V172.981C190.939 174.898 192.491 176.449 194.408 176.449H215.757C217.674 176.449 219.225 174.898 219.225 172.981V172.648C219.225 168.785 217.655 165.851 215.121 163.872Z" fill="white"/>
<path d="M175.091 198.049H183.439C184.282 198.049 184.966 198.733 184.966 199.576V207.924C184.966 208.767 184.282 209.451 183.439 209.451H175.091C174.248 209.451 173.564 208.767 173.564 207.924V199.576C173.564 198.733 174.248 198.049 175.091 198.049Z" fill="#1A468F"/>
<path d="M192.466 198.049H200.819C201.662 198.049 202.341 198.733 202.341 199.576V207.924C202.341 208.767 201.657 209.451 200.819 209.451H192.466C191.623 209.451 190.939 208.767 190.939 207.924V199.576C190.939 198.733 191.623 198.049 192.466 198.049Z" fill="#1A468F"/>
<path d="M209.837 198.049H218.189C219.032 198.049 219.712 198.733 219.712 199.576V207.924C219.712 208.767 219.028 209.451 218.189 209.451H209.837C208.994 209.451 208.314 208.767 208.314 207.924V199.576C208.314 198.733 208.998 198.049 209.837 198.049Z" fill="#1A468F"/>
<path d="M227.212 198.049H235.564C236.407 198.049 237.087 198.733 237.087 199.576V207.924C237.087 208.767 236.403 209.451 235.564 209.451H227.212C226.369 209.451 225.689 208.767 225.689 207.924V199.576C225.689 198.733 226.373 198.049 227.212 198.049Z" fill="#1A468F"/>
<path d="M175.091 219.648H183.439C184.282 219.648 184.966 220.332 184.966 221.175V229.528C184.966 230.371 184.282 231.05 183.439 231.05H175.091C174.248 231.05 173.564 230.366 173.564 229.528V221.18C173.564 220.337 174.248 219.653 175.091 219.653V219.648Z" fill="#1A468F"/>
<path d="M191.55 219.648H199.898C200.741 219.648 201.421 220.332 201.421 221.175V229.528C201.421 230.371 200.737 231.05 199.898 231.05H191.55C190.707 231.05 190.023 230.366 190.023 229.528V221.18C190.023 220.337 190.707 219.653 191.55 219.653V219.648Z" fill="#1A468F"/>
<path d="M208.921 219.648H217.273C218.116 219.648 218.796 220.332 218.796 221.175V229.528C218.796 230.371 218.112 231.05 217.273 231.05H208.921C208.078 231.05 207.398 230.366 207.398 229.528V221.18C207.398 220.337 208.082 219.653 208.921 219.653V219.648Z" fill="#1A468F"/>
<path d="M226.296 219.648H234.648C235.491 219.648 236.171 220.332 236.171 221.175V229.528C236.171 230.371 235.487 231.05 234.648 231.05H226.296C225.453 231.05 224.773 230.366 224.773 229.528V221.18C224.773 220.337 225.457 219.653 226.296 219.653V219.648Z" fill="#1A468F"/>
<path d="M298.788 142.199H267.733C267.265 142.199 266.885 141.819 266.885 141.352V139.955C266.885 139.487 267.265 139.107 267.733 139.107H298.788C299.255 139.107 299.636 139.487 299.636 139.955V141.352C299.636 141.819 299.255 142.199 298.788 142.199Z" fill="#1A468F"/>
<path d="M448.431 142.199H417.375C416.908 142.199 416.527 141.819 416.527 141.352V139.955C416.527 139.487 416.908 139.107 417.375 139.107H448.431C448.898 139.107 449.279 139.487 449.279 139.955V141.352C449.279 141.819 448.898 142.199 448.431 142.199Z" fill="#1A468F"/>
<path d="M448.43 155.976H372.402C371.935 155.976 371.555 155.596 371.555 155.129V153.732C371.555 153.264 371.935 152.884 372.402 152.884H448.43C448.897 152.884 449.278 153.264 449.278 153.732V155.129C449.278 155.596 448.897 155.976 448.43 155.976Z" fill="#1A468F"/>
<path d="M409.162 142.199H309.473C309.006 142.199 308.625 141.819 308.625 141.352V139.955C308.625 139.487 309.006 139.107 309.473 139.107H409.162C409.629 139.107 410.01 139.487 410.01 139.955V141.352C410.01 141.819 409.629 142.199 409.162 142.199Z" fill="#1A468F"/>
<path d="M365.408 155.976H268.094C267.627 155.976 267.246 155.596 267.246 155.129V153.732C267.246 153.264 267.627 152.884 268.094 152.884H365.408C365.875 152.884 366.256 153.264 366.256 153.732V155.129C366.256 155.596 365.875 155.976 365.408 155.976Z" fill="#1A468F"/>
<path d="M298.788 171.107H267.733C267.265 171.107 266.885 170.726 266.885 170.259V168.862C266.885 168.395 267.265 168.014 267.733 168.014H298.788C299.255 168.014 299.636 168.395 299.636 168.862V170.259C299.636 170.726 299.255 171.107 298.788 171.107Z" fill="#1A468F"/>
<path d="M448.431 171.107H417.375C416.908 171.107 416.527 170.726 416.527 170.259V168.862C416.527 168.395 416.908 168.014 417.375 168.014H448.431C448.898 168.014 449.279 168.395 449.279 168.862V170.259C449.279 170.726 448.898 171.107 448.431 171.107Z" fill="#1A468F"/>
<path d="M448.43 184.884H372.402C371.935 184.884 371.555 184.503 371.555 184.036V182.639C371.555 182.172 371.935 181.791 372.402 181.791H448.43C448.897 181.791 449.278 182.172 449.278 182.639V184.036C449.278 184.503 448.897 184.884 448.43 184.884Z" fill="#1A468F"/>
<path d="M409.162 171.107H309.473C309.006 171.107 308.625 170.726 308.625 170.259V168.862C308.625 168.395 309.006 168.014 309.473 168.014H409.162C409.629 168.014 410.01 168.395 410.01 168.862V170.259C410.01 170.726 409.629 171.107 409.162 171.107Z" fill="#1A468F"/>
<path d="M365.408 184.884H268.094C267.627 184.884 267.246 184.503 267.246 184.036V182.639C267.246 182.172 267.627 181.791 268.094 181.791H365.408C365.875 181.791 366.256 182.172 366.256 182.639V184.036C366.256 184.503 365.875 184.884 365.408 184.884Z" fill="#1A468F"/>
<path d="M298.788 200.014H267.733C267.265 200.014 266.885 199.633 266.885 199.166V197.769C266.885 197.302 267.265 196.921 267.733 196.921H298.788C299.255 196.921 299.636 197.302 299.636 197.769V199.166C299.636 199.633 299.255 200.014 298.788 200.014Z" fill="#1A468F"/>
<path d="M448.431 200.014H417.375C416.908 200.014 416.527 199.633 416.527 199.166V197.769C416.527 197.302 416.908 196.921 417.375 196.921H448.431C448.898 196.921 449.279 197.302 449.279 197.769V199.166C449.279 199.633 448.898 200.014 448.431 200.014Z" fill="#1A468F"/>
<path d="M448.43 213.786H372.402C371.935 213.786 371.555 213.405 371.555 212.938V211.541C371.555 211.074 371.935 210.693 372.402 210.693H448.43C448.897 210.693 449.278 211.074 449.278 211.541V212.938C449.278 213.405 448.897 213.786 448.43 213.786Z" fill="#1A468F"/>
<path d="M409.162 200.014H309.473C309.006 200.014 308.625 199.633 308.625 199.166V197.769C308.625 197.302 309.006 196.921 309.473 196.921H409.162C409.629 196.921 410.01 197.302 410.01 197.769V199.166C410.01 199.633 409.629 200.014 409.162 200.014Z" fill="#1A468F"/>
<path d="M365.408 213.786H268.094C267.627 213.786 267.246 213.405 267.246 212.938V211.541C267.246 211.074 267.627 210.693 268.094 210.693H365.408C365.875 210.693 366.256 211.074 366.256 211.541V212.938C366.256 213.405 365.875 213.786 365.408 213.786Z" fill="#1A468F"/>
<path d="M298.788 228.921H267.733C267.265 228.921 266.885 228.541 266.885 228.073V226.676C266.885 226.209 267.265 225.829 267.733 225.829H298.788C299.255 225.829 299.636 226.209 299.636 226.676V228.073C299.636 228.541 299.255 228.921 298.788 228.921Z" fill="#1A468F"/>
<path d="M448.431 228.921H417.375C416.908 228.921 416.527 228.541 416.527 228.073V226.676C416.527 226.209 416.908 225.829 417.375 225.829H448.431C448.898 225.829 449.279 226.209 449.279 226.676V228.073C449.279 228.541 448.898 228.921 448.431 228.921Z" fill="#1A468F"/>
<path d="M448.43 242.693H372.402C371.935 242.693 371.555 242.313 371.555 241.845V240.448C371.555 239.981 371.935 239.601 372.402 239.601H448.43C448.897 239.601 449.278 239.981 449.278 240.448V241.845C449.278 242.313 448.897 242.693 448.43 242.693Z" fill="#1A468F"/>
<path d="M409.162 228.921H309.473C309.006 228.921 308.625 228.541 308.625 228.073V226.676C308.625 226.209 309.006 225.829 309.473 225.829H409.162C409.629 225.829 410.01 226.209 410.01 226.676V228.073C410.01 228.541 409.629 228.921 409.162 228.921Z" fill="#1A468F"/>
<path d="M365.408 242.693H268.094C267.627 242.693 267.246 242.313 267.246 241.845V240.448C267.246 239.981 267.627 239.601 268.094 239.601H365.408C365.875 239.601 366.256 239.981 366.256 240.448V241.845C366.256 242.313 365.875 242.693 365.408 242.693Z" fill="#1A468F"/>
<path d="M256.336 243.623V111.544C256.336 109.333 258.128 107.541 260.339 107.541H390.477C392.688 107.541 394.48 109.333 394.48 111.544V243.628C394.48 245.839 392.688 247.631 390.477 247.631H260.339C258.128 247.631 256.336 245.839 256.336 243.628V243.623Z" fill="#7696EA"/>
<path d="M385.64 243.401H265.17C262.627 243.401 260.561 241.339 260.561 238.791V116.375C260.561 113.827 262.622 111.765 265.17 111.765H385.64C388.184 111.765 390.25 113.832 390.25 116.375V238.791C390.25 241.339 388.189 243.401 385.64 243.401Z" fill="#CEE1F2"/>
<path d="M278.074 212.928C281.858 212.928 284.924 209.862 284.924 206.079C284.924 202.296 281.858 199.229 278.074 199.229C274.291 199.229 271.225 202.296 271.225 206.079C271.225 209.862 274.291 212.928 278.074 212.928Z" fill="#1A468F"/>
<path d="M301.323 212.928C305.106 212.928 308.172 209.862 308.172 206.079C308.172 202.296 305.106 199.229 301.323 199.229C297.539 199.229 294.473 202.296 294.473 206.079C294.473 209.862 297.539 212.928 301.323 212.928Z" fill="#1A468F"/>
<path d="M317.719 206.079C317.719 202.297 320.787 199.229 324.569 199.229C328.35 199.229 331.418 202.297 331.418 206.079C331.418 209.86 328.35 212.928 324.569 212.928C320.787 212.928 317.719 209.86 317.719 206.079Z" fill="#1A468F"/>
<path d="M347.811 212.928C351.594 212.928 354.661 209.862 354.661 206.079C354.661 202.296 351.594 199.229 347.811 199.229C344.028 199.229 340.961 202.296 340.961 206.079C340.961 209.862 344.028 212.928 347.811 212.928Z" fill="url(#paint1_linear_89_13926)"/>
<path d="M364.209 206.079C364.209 202.297 367.277 199.229 371.059 199.229C374.84 199.229 377.909 202.297 377.909 206.079C377.909 209.86 374.84 212.928 371.059 212.928C367.277 212.928 364.209 209.86 364.209 206.079Z" fill="#1A468F"/>
<path d="M278.297 202.74L278.61 204.927C278.624 205.038 278.74 205.106 278.841 205.067L280.912 204.306C281.1 204.239 281.235 204.484 281.081 204.605L279.342 205.968C279.255 206.035 279.255 206.165 279.342 206.238L281.037 207.649C281.192 207.774 281.047 208.02 280.864 207.943L278.817 207.119C278.716 207.076 278.6 207.143 278.581 207.249L278.205 209.426C278.171 209.619 277.892 209.619 277.863 209.422L277.55 207.235C277.535 207.124 277.42 207.056 277.319 207.095L275.247 207.856C275.06 207.924 274.925 207.678 275.079 207.557L276.818 206.194C276.904 206.127 276.904 205.997 276.818 205.924L275.122 204.513C274.968 204.388 275.113 204.142 275.296 204.219L277.343 205.043C277.444 205.086 277.56 205.019 277.579 204.913L277.955 202.736C277.988 202.538 278.268 202.543 278.297 202.74Z" fill="white"/>
<path d="M301.658 202.74L301.971 204.927C301.985 205.038 302.101 205.106 302.202 205.067L304.274 204.306C304.461 204.239 304.596 204.484 304.442 204.605L302.703 205.968C302.617 206.035 302.617 206.165 302.703 206.238L304.399 207.649C304.553 207.774 304.408 208.02 304.225 207.943L302.178 207.119C302.077 207.076 301.961 207.143 301.942 207.249L301.566 209.426C301.533 209.619 301.248 209.619 301.224 209.422L300.911 207.235C300.897 207.124 300.781 207.056 300.68 207.095L298.609 207.856C298.421 207.924 298.286 207.678 298.44 207.557L300.179 206.194C300.266 206.127 300.266 205.997 300.179 205.924L298.483 204.513C298.329 204.388 298.474 204.142 298.657 204.219L300.704 205.043C300.805 205.086 300.921 205.019 300.94 204.913L301.316 202.736C301.35 202.538 301.634 202.543 301.658 202.74Z" fill="white"/>
<path d="M325.017 202.74L325.33 204.927C325.345 205.038 325.46 205.106 325.562 205.067L327.633 204.306C327.821 204.239 327.956 204.484 327.802 204.605L326.063 205.968C325.976 206.035 325.976 206.165 326.063 206.238L327.758 207.649C327.912 207.774 327.768 208.02 327.585 207.943L325.538 207.119C325.436 207.076 325.321 207.143 325.302 207.249L324.926 209.426C324.892 209.619 324.608 209.619 324.584 209.422L324.271 207.235C324.256 207.124 324.141 207.056 324.039 207.095L321.968 207.856C321.78 207.924 321.645 207.678 321.799 207.557L323.538 206.194C323.625 206.127 323.625 205.997 323.538 205.924L321.843 204.513C321.689 204.388 321.833 204.142 322.021 204.219L324.068 205.043C324.17 205.086 324.285 205.019 324.304 204.913L324.68 202.736C324.714 202.538 324.993 202.543 325.022 202.74H325.017Z" fill="white"/>
<path d="M348.375 202.74L348.688 204.927C348.702 205.038 348.818 205.106 348.919 205.067L350.99 204.306C351.178 204.239 351.313 204.484 351.159 204.605L349.42 205.968C349.333 206.035 349.333 206.165 349.42 206.238L351.116 207.649C351.27 207.774 351.125 208.02 350.942 207.943L348.895 207.119C348.794 207.076 348.678 207.143 348.659 207.249L348.283 209.426C348.249 209.619 347.97 209.619 347.941 209.422L347.628 207.235C347.614 207.124 347.498 207.056 347.397 207.095L345.326 207.856C345.138 207.924 345.003 207.678 345.157 207.557L346.896 206.194C346.983 206.127 346.983 205.997 346.896 205.924L345.2 204.513C345.046 204.388 345.191 204.142 345.374 204.219L347.421 205.043C347.522 205.086 347.638 205.019 347.657 204.913L348.033 202.736C348.066 202.538 348.346 202.543 348.375 202.74Z" fill="white"/>
<path d="M371.732 202.74L372.045 204.927C372.06 205.038 372.175 205.106 372.276 205.067L374.348 204.306C374.536 204.239 374.671 204.484 374.516 204.605L372.777 205.968C372.691 206.035 372.691 206.165 372.777 206.238L374.473 207.649C374.627 207.774 374.483 208.02 374.3 207.943L372.252 207.119C372.151 207.076 372.036 207.143 372.016 207.249L371.641 209.426C371.607 209.619 371.323 209.619 371.299 209.422L370.986 207.235C370.971 207.124 370.855 207.056 370.754 207.095L368.683 207.856C368.495 207.924 368.36 207.678 368.514 207.557L370.253 206.194C370.34 206.127 370.34 205.997 370.253 205.924L368.558 204.513C368.404 204.388 368.548 204.142 368.736 204.219L370.783 205.043C370.884 205.086 371 205.019 371.019 204.913L371.395 202.736C371.429 202.538 371.708 202.543 371.737 202.74H371.732Z" fill="white"/>
<path d="M386.689 135.986C396.905 135.986 405.186 127.704 405.186 117.488C405.186 107.272 396.905 98.9907 386.689 98.9907C376.473 98.9907 368.191 107.272 368.191 117.488C368.191 127.704 376.473 135.986 386.689 135.986Z" fill="url(#paint2_linear_89_13926)"/>
<path d="M394.257 107.396C390.986 111.963 387.72 116.53 384.449 121.096C382.176 118.962 379.897 116.823 377.624 114.69C376.255 116.433 374.883 118.177 373.51 119.921C377.368 122.474 381.227 125.022 385.085 127.575C390.008 122.281 394.936 116.987 399.864 111.698C397.995 110.267 396.126 108.832 394.257 107.401V107.396Z" fill="white"/>
<path d="M157.724 279.25C157.715 280.122 158.009 281.832 158.558 284.139C158.76 284.987 158.991 285.912 159.256 286.904C159.916 289.375 160.769 292.275 161.771 295.411C162.272 296.981 162.806 298.614 163.38 300.281C163.389 300.305 163.394 300.329 163.404 300.358C163.529 300.72 163.649 301.081 163.775 301.447C163.914 301.837 164.049 302.227 164.184 302.617C164.598 303.793 165.027 304.983 165.465 306.182C165.499 306.278 165.542 306.375 165.571 306.471C165.938 307.449 166.308 308.432 166.684 309.414C167.484 311.5 168.317 313.581 169.17 315.609C169.281 315.874 169.391 316.134 169.502 316.394C169.733 316.934 169.965 317.464 170.191 317.998C170.321 318.292 170.451 318.591 170.581 318.88C170.788 319.347 170.991 319.805 171.203 320.262C171.28 320.431 171.357 320.604 171.439 320.773C171.679 321.303 171.925 321.828 172.176 322.348C172.402 322.825 172.624 323.292 172.85 323.759C173.664 325.421 174.493 326.997 175.311 328.461L177.903 325.585C178.298 325.147 178.703 324.694 179.117 324.241L179.849 323.432L182.879 320.065L183.211 319.699L183.539 319.337H183.544C183.602 319.265 183.674 319.193 183.737 319.116L183.905 318.923L183.973 318.841L184.604 318.148L185.437 317.223L187.913 314.467L187.923 314.477C188.048 314.607 188.178 314.737 188.313 314.877C188.674 315.243 189.055 315.643 189.445 316.067C190.471 317.175 191.588 318.475 192.634 319.93C192.711 320.026 192.778 320.127 192.846 320.224C193.294 320.85 193.727 321.51 194.137 322.194C194.324 322.502 194.503 322.82 194.676 323.143C194.724 323.287 194.772 323.427 194.816 323.572C195.167 324.689 195.418 325.84 195.582 327.016C195.779 328.471 195.847 329.973 195.803 331.496C195.76 332.999 195.601 334.53 195.355 336.072C195.191 337.127 194.975 338.196 194.724 339.261C193.954 342.589 192.817 345.942 191.516 349.198C191.107 350.224 190.683 351.246 190.244 352.248C189.517 353.905 188.766 355.528 188.009 357.094C187.253 358.654 186.497 360.162 185.769 361.597C185.384 362.267 184.999 362.937 184.608 363.597C184.58 363.645 184.551 363.698 184.522 363.746C184.315 364.093 184.112 364.435 183.905 364.777C183.674 365.162 183.443 365.547 183.211 365.933C181.193 369.242 179.098 372.45 176.896 375.572C176.877 375.605 176.853 375.644 176.829 375.673C175.971 376.892 175.104 378.091 174.218 379.276C173.968 379.613 173.717 379.946 173.462 380.283C173.192 380.644 172.917 381.005 172.638 381.357C160.046 397.697 144.352 411.661 123.74 424.792C121.433 426.218 119.299 427.904 117.41 429.807C117.218 430 117.03 430.192 116.847 430.39C116.673 430.573 116.495 430.761 116.331 430.944C115.985 431.32 115.657 431.7 115.334 432.086C115.195 432.249 115.06 432.423 114.925 432.591C114.828 432.707 114.737 432.827 114.645 432.948C114.515 433.107 114.39 433.275 114.265 433.439C114.255 433.454 114.246 433.468 114.236 433.482C113.913 433.906 113.61 434.34 113.316 434.778C113.012 435.217 112.719 435.674 112.444 436.132C111.746 437.278 111.119 438.459 110.561 439.687C110.45 439.933 110.339 440.183 110.238 440.429C109.742 441.628 109.207 443.256 108.667 445.005H17.9141C22.6107 434.802 26.7293 425.168 29.3112 417.711C29.6099 410.553 29.0463 403.983 28.0347 397.74C26.58 388.751 24.21 380.442 22.1964 372.036C22.1868 371.988 22.1723 371.935 22.1627 371.887C21.5269 369.233 20.9295 366.569 20.4093 363.866C20.4093 363.818 20.3948 363.76 20.3804 363.712C18.4969 353.909 17.6347 343.644 19.7301 331.746C21.2378 323.143 24.2919 313.687 29.6099 302.94C29.6099 302.926 29.6195 302.916 29.6292 302.902C33.608 292.381 37.2064 283.354 37.7893 280.656C39.0899 274.558 35.4144 257.029 38.059 254.856C38.7141 254.317 40.9107 254.567 43.6757 255.863C47.775 257.761 51.0265 260.613 53.4929 264.105C54.042 264.876 54.5526 265.68 55.0247 266.514C60.7329 276.547 61.0267 290.584 57.3369 302.434C56.9274 304.453 55.622 310.161 55.0247 314.699C54.673 317.353 54.5671 319.602 55.0247 320.484C55.1499 320.73 55.3185 320.869 55.5401 320.879C55.6943 320.893 55.8821 320.84 56.0941 320.71C65.7956 310.874 76.2776 299.284 86.1622 288.513C86.3645 288.296 86.562 288.08 86.7595 287.868C88.0697 286.432 89.3751 285.016 90.6661 283.619C97.964 275.81 97.1643 275.878 100.565 273.667C101.615 272.983 103.075 272.077 105.3 270.647C106.678 269.77 108.104 268.994 109.573 268.301C110.31 267.954 111.062 267.626 111.813 267.318C111.938 267.265 112.068 267.212 112.198 267.164C114.477 266.258 116.837 265.507 119.246 264.852C120.253 264.572 121.274 264.312 122.295 264.062C123.677 263.724 125.074 263.411 126.471 263.103C129.024 262.525 131.592 261.981 134.13 261.374C136.11 260.902 138.08 260.401 140.012 259.827C143.928 258.662 147.705 257.212 151.192 255.165C155.932 252.477 170.798 248.291 183.197 246.055C183.433 246.012 183.664 245.969 183.891 245.925C184.127 245.887 184.363 245.844 184.589 245.805C193.52 244.278 200.866 243.859 201.69 245.897C204.893 253.864 196.102 260.81 184.589 266.778C184.358 266.899 184.122 267.019 183.891 267.14C183.659 267.26 183.428 267.376 183.197 267.496C179.546 269.327 175.668 271.07 171.843 272.718C170.74 273.195 169.647 273.657 168.558 274.12C164.786 275.719 161.14 277.217 157.912 278.628C157.907 278.633 157.898 278.638 157.893 278.638C157.782 278.701 157.724 278.908 157.72 279.259L157.724 279.25Z" fill="#F8A6B3"/>
<path d="M117.396 429.807C117.203 430 117.015 430.192 116.832 430.39C116.659 430.568 116.485 430.756 116.317 430.944C115.97 431.319 115.642 431.7 115.32 432.085C115.18 432.249 115.04 432.423 114.91 432.591C114.814 432.707 114.722 432.827 114.631 432.948C114.501 433.107 114.376 433.275 114.25 433.439C114.241 433.453 114.231 433.468 114.221 433.482C113.908 433.906 113.595 434.34 113.301 434.778C113.003 435.221 112.709 435.674 112.429 436.132C111.731 437.278 111.105 438.463 110.546 439.687C110.435 439.932 110.324 440.183 110.223 440.429C108.72 427.379 91.9088 425.24 84.8229 427.317C77.7466 429.393 69.1241 424.595 65.1645 423.386C61.2049 422.177 50.169 423.053 41.8355 429.046C39.74 430.554 37.2111 436.681 34.6051 445H17.9139C22.6106 434.797 26.7292 425.163 29.3111 417.706C30.6551 413.834 29.7832 406.521 28.0346 397.735C26.469 389.874 24.205 380.837 22.1963 372.031C22.1867 371.983 22.1722 371.93 22.1626 371.882C21.546 369.175 20.9535 366.487 20.4092 363.861C20.4092 363.813 20.3947 363.755 20.3803 363.707C18.4775 354.405 17.254 345.923 17.9525 340.084C18.2271 337.796 18.8533 334.949 19.73 331.741C22.0181 323.35 25.9777 312.526 29.6098 302.935C29.6098 302.921 29.6194 302.906 29.6242 302.892V302.897C30.761 304.718 31.3246 306.625 30.6984 308.398C28.4729 314.732 26.7966 328.697 23.2609 340.378C19.7155 352.055 33.6995 400.124 39.9953 407.398C46.5369 414.956 59.9621 409.778 74.6107 417.1C82.0435 420.823 95.0158 420.303 101.056 420.423C105.806 420.515 114.067 427.023 117.391 429.812L117.396 429.807Z" fill="#E399A5"/>
<path d="M173.472 380.264C165.09 385.736 117.464 386.728 110.937 388.217C88.706 393.294 50.0877 390.803 55.0251 376.728C60.242 361.862 61.4896 327.43 55.213 321.192C59.6303 316.972 79.6644 295.642 90.6666 283.614L153.943 266.422L158.789 269.423C155.047 271.832 150.827 274.206 146.096 276.504L175.312 328.456L187.913 314.463C187.913 314.463 191.772 317.276 193.52 321.794C199.6 337.507 194.493 353.187 173.472 380.268V380.264Z" fill="#E399A5"/>
<path d="M177.119 163.91H64.1396C59.7512 163.91 56.1914 167.176 56.1914 171.203V368.621C56.1914 372.648 59.7512 375.909 64.1396 375.909H177.119C181.507 375.909 185.072 372.648 185.072 368.621V171.203C185.072 167.176 181.512 163.91 177.119 163.91Z" fill="white"/>
<path d="M184.272 163.298C183.367 160.283 180.708 158.048 177.495 157.792C177.288 157.778 177.085 157.768 176.873 157.768H61.2255C60.4933 157.768 59.79 157.869 59.1253 158.062C58.6966 158.183 58.2775 158.342 57.8777 158.529C55.2861 159.791 53.4941 162.47 53.4941 165.567V373.553C53.4941 375.114 53.9518 376.574 54.7321 377.788C55.0838 378.337 55.5029 378.842 55.9797 379.281C57.3574 380.577 59.2024 381.362 61.2303 381.362H176.878C178.906 381.362 180.751 380.577 182.129 379.281C183.651 377.86 184.605 375.822 184.605 373.553V165.567C184.605 164.777 184.489 164.016 184.272 163.298ZM55.026 171.01C55.026 170.514 55.079 170.033 55.1801 169.565C55.262 169.204 55.3728 168.848 55.5077 168.506C55.6811 168.072 55.8979 167.648 56.158 167.253C56.4229 166.844 56.7408 166.458 57.0877 166.107C57.8006 165.379 58.6628 164.796 59.6359 164.392C60.4163 164.05 61.2689 163.838 62.1648 163.761C62.1938 163.751 62.2178 163.751 62.2516 163.751C62.3479 163.741 62.4442 163.737 62.5358 163.732C62.6706 163.727 62.8055 163.722 62.9404 163.722H107.407C107.985 163.722 108.447 164.146 108.471 164.681C108.596 167.455 110.027 169.951 112.204 171.666C114.069 173.135 116.487 174.026 119.117 174.026C119.16 174.026 119.208 174.026 119.252 174.021C120.312 174.011 121.333 173.857 122.301 173.573C126.473 172.369 129.565 168.843 129.753 164.686C129.777 164.151 130.24 163.727 130.813 163.727H175.289C176.103 163.727 176.898 163.843 177.639 164.05C179.253 164.512 180.64 165.432 181.628 166.651C181.782 166.839 181.922 167.032 182.052 167.234C182.187 167.436 182.307 167.638 182.418 167.855C182.529 168.067 182.63 168.284 182.717 168.51C182.808 168.732 182.88 168.958 182.948 169.194C183.112 169.772 183.198 170.384 183.198 171.015V368.433C183.198 369.064 183.112 369.676 182.948 370.258C182.88 370.49 182.808 370.721 182.717 370.938C182.625 371.164 182.529 371.376 182.418 371.593C182.307 371.805 182.187 372.007 182.052 372.214C181.719 372.715 181.329 373.173 180.881 373.587C180.52 373.924 180.13 374.218 179.711 374.478C179.398 374.681 179.065 374.849 178.723 375.003H178.718C178.372 375.157 178.015 375.287 177.649 375.393C177.456 375.446 177.259 375.499 177.057 375.538C176.999 375.552 176.941 375.562 176.883 375.572C176.469 375.654 176.04 375.702 175.602 375.716C175.501 375.721 175.399 375.721 175.298 375.721H62.9259C60.6089 375.721 58.528 374.801 57.0828 373.332C56.7938 373.043 56.5289 372.725 56.2977 372.397C55.9701 371.94 55.7052 371.458 55.5029 370.938C55.1946 370.157 55.0211 369.31 55.0211 368.428V171.01H55.026Z" fill="#1A468F"/>
<path d="M113.818 165.654C113.818 162.778 116.188 160.442 119.112 160.442C122.036 160.442 124.406 162.773 124.406 165.654C124.406 168.535 122.036 170.866 119.112 170.866C116.188 170.866 113.818 168.535 113.818 165.654Z" fill="white"/>
<path d="M114.82 165.654C114.82 163.322 116.742 161.429 119.117 161.429C121.492 161.429 123.414 163.322 123.414 165.654C123.414 167.985 121.492 169.878 119.117 169.878C116.742 169.878 114.82 167.985 114.82 165.654Z" fill="#1A468F"/>
<path d="M119.117 163.799C119.117 163.13 119.666 162.59 120.346 162.59C121.025 162.59 121.574 163.13 121.574 163.799C121.574 164.469 121.025 165.008 120.346 165.008C119.666 165.008 119.117 164.469 119.117 163.799Z" fill="white"/>
<path d="M81.2742 238.209C84.4826 238.209 87.0836 235.608 87.0836 232.399C87.0836 229.191 84.4826 226.59 81.2742 226.59C78.0658 226.59 75.4648 229.191 75.4648 232.399C75.4648 235.608 78.0658 238.209 81.2742 238.209Z" fill="#1A468F"/>
<path d="M95.1758 232.399C95.1758 229.191 97.777 226.59 100.985 226.59C104.193 226.59 106.795 229.191 106.795 232.399C106.795 235.607 104.193 238.209 100.985 238.209C97.777 238.209 95.1758 235.607 95.1758 232.399Z" fill="#1A468F"/>
<path d="M114.887 232.399C114.887 229.191 117.488 226.59 120.696 226.59C123.904 226.59 126.505 229.191 126.505 232.399C126.505 235.607 123.904 238.208 120.696 238.208C117.488 238.208 114.887 235.607 114.887 232.399Z" fill="#1A468F"/>
<path d="M140.407 238.209C143.615 238.209 146.216 235.608 146.216 232.399C146.216 229.191 143.615 226.59 140.407 226.59C137.199 226.59 134.598 229.191 134.598 232.399C134.598 235.608 137.199 238.209 140.407 238.209Z" fill="#1A468F"/>
<path d="M160.12 238.209C163.328 238.209 165.929 235.608 165.929 232.399C165.929 229.191 163.328 226.59 160.12 226.59C156.911 226.59 154.311 229.191 154.311 232.399C154.311 235.608 156.911 238.209 160.12 238.209Z" fill="#1A468F"/>
<path d="M81.4606 229.567L81.7255 231.421C81.74 231.513 81.8363 231.571 81.923 231.537L83.6813 230.891C83.8402 230.834 83.9558 231.041 83.8209 231.147L82.3469 232.303C82.2747 232.361 82.2699 232.471 82.3469 232.534L83.7872 233.733C83.9173 233.839 83.792 234.047 83.6379 233.984L81.8989 233.285C81.8122 233.252 81.7159 233.305 81.6966 233.396L81.3787 235.241C81.3498 235.405 81.1138 235.405 81.0897 235.241L80.8247 233.387C80.8103 233.295 80.7139 233.237 80.6272 233.271L78.869 233.916C78.71 233.974 78.5944 233.767 78.7293 233.661L80.2033 232.505C80.2756 232.447 80.2804 232.336 80.2033 232.274L78.763 231.074C78.633 230.968 78.7582 230.761 78.9124 230.824L80.6513 231.522C80.738 231.556 80.8344 231.503 80.8536 231.412L81.1716 229.567C81.2005 229.403 81.4365 229.403 81.4606 229.567Z" fill="white"/>
<path d="M101.269 229.567L101.534 231.421C101.549 231.513 101.645 231.571 101.732 231.537L103.49 230.891C103.649 230.834 103.764 231.041 103.63 231.147L102.156 232.303C102.083 232.361 102.078 232.471 102.156 232.534L103.596 233.733C103.726 233.839 103.601 234.047 103.446 233.984L101.708 233.285C101.621 233.252 101.524 233.305 101.505 233.396L101.187 235.241C101.158 235.405 100.922 235.405 100.898 235.241L100.633 233.387C100.619 233.295 100.523 233.237 100.436 233.271L98.6776 233.916C98.5186 233.974 98.403 233.767 98.5379 233.661L100.012 232.505C100.084 232.447 100.089 232.336 100.012 232.274L98.5716 231.074C98.4416 230.968 98.5668 230.761 98.721 230.824L100.46 231.522C100.547 231.556 100.643 231.503 100.662 231.412L100.98 229.567C101.009 229.403 101.245 229.403 101.269 229.567Z" fill="white"/>
<path d="M121.078 229.567L121.343 231.421C121.357 231.513 121.454 231.571 121.54 231.537L123.298 230.891C123.457 230.834 123.573 231.041 123.438 231.147L121.964 232.303C121.892 232.361 121.887 232.471 121.964 232.534L123.404 233.733C123.534 233.839 123.409 234.047 123.255 233.984L121.516 233.285C121.429 233.252 121.333 233.305 121.314 233.396L120.996 235.241C120.967 235.405 120.731 235.405 120.707 235.241L120.442 233.387C120.427 233.295 120.331 233.237 120.244 233.271L118.486 233.916C118.327 233.974 118.212 233.767 118.347 233.661L119.821 232.505C119.893 232.447 119.898 232.336 119.821 232.274L118.38 231.074C118.25 230.968 118.375 230.761 118.53 230.824L120.269 231.522C120.355 231.556 120.452 231.503 120.471 231.412L120.789 229.567C120.818 229.403 121.054 229.403 121.078 229.567Z" fill="white"/>
<path d="M140.884 229.567L141.149 231.421C141.164 231.513 141.26 231.571 141.347 231.537L143.105 230.891C143.264 230.834 143.38 231.041 143.245 231.147L141.771 232.303C141.699 232.361 141.694 232.471 141.771 232.534L143.211 233.733C143.341 233.839 143.216 234.047 143.062 233.984L141.323 233.285C141.236 233.252 141.14 233.305 141.12 233.396L140.803 235.241C140.774 235.405 140.538 235.405 140.514 235.241L140.249 233.387C140.234 233.295 140.138 233.237 140.051 233.271L138.293 233.916C138.134 233.974 138.018 233.767 138.153 233.661L139.627 232.505C139.699 232.447 139.704 232.336 139.627 232.274L138.187 231.074C138.057 230.968 138.182 230.761 138.336 230.824L140.075 231.522C140.162 231.556 140.258 231.503 140.277 231.412L140.595 229.567C140.624 229.403 140.865 229.403 140.884 229.567Z" fill="white"/>
<path d="M160.693 229.567L160.958 231.421C160.972 231.513 161.069 231.571 161.155 231.537L162.914 230.891C163.073 230.834 163.188 231.041 163.053 231.147L161.579 232.303C161.507 232.361 161.502 232.471 161.579 232.534L163.02 233.733C163.15 233.839 163.024 234.047 162.87 233.984L161.131 233.285C161.045 233.252 160.948 233.305 160.929 233.396L160.611 235.241C160.582 235.405 160.346 235.405 160.322 235.241L160.057 233.387C160.043 233.295 159.946 233.237 159.86 233.271L158.101 233.916C157.942 233.974 157.827 233.767 157.962 233.661L159.436 232.505C159.508 232.447 159.513 232.336 159.436 232.274L157.995 231.074C157.865 230.968 157.991 230.761 158.145 230.824L159.884 231.522C159.97 231.556 160.067 231.503 160.086 231.412L160.404 229.567C160.433 229.403 160.669 229.403 160.693 229.567Z" fill="white"/>
<path d="M121.336 290.854C133.01 290.854 142.474 281.391 142.474 269.717C142.474 258.043 133.01 248.58 121.336 248.58C109.663 248.58 100.199 258.043 100.199 269.717C100.199 281.391 109.663 290.854 121.336 290.854Z" fill="#1A468F"/>
<path d="M129.984 258.19C126.246 263.406 122.513 268.623 118.775 273.845C116.173 271.403 113.572 268.961 110.971 266.523C109.405 268.517 107.84 270.512 106.27 272.506C110.677 275.42 115.09 278.339 119.497 281.254C125.128 275.203 130.755 269.158 136.386 263.108C134.252 261.47 132.113 259.832 129.979 258.194L129.984 258.19Z" fill="white"/>
<path d="M170.302 188.164H152.146C151.356 188.164 150.711 187.523 150.711 186.728C150.711 185.938 151.352 185.293 152.146 185.293H170.302C171.092 185.293 171.737 185.934 171.737 186.728C171.737 187.518 171.097 188.164 170.302 188.164Z" fill="#1A468F"/>
<path d="M170.302 194.431H152.146C151.356 194.431 150.711 193.79 150.711 192.996C150.711 192.206 151.352 191.56 152.146 191.56H170.302C171.092 191.56 171.737 192.201 171.737 192.996C171.737 193.786 171.097 194.431 170.302 194.431Z" fill="#1A468F"/>
<path d="M170.302 200.703H152.146C151.356 200.703 150.711 200.062 150.711 199.267C150.711 198.477 151.352 197.832 152.146 197.832H170.302C171.092 197.832 171.737 198.472 171.737 199.267C171.737 200.057 171.097 200.703 170.302 200.703Z" fill="#1A468F"/>
<path d="M135.292 188.366H70.6523V199.595H135.292V188.366Z" fill="#1A468F"/>
<path d="M155.345 312.054H85.922C85.4548 312.054 85.0742 311.673 85.0742 311.206C85.0742 310.739 85.4548 310.358 85.922 310.358H155.345C155.813 310.358 156.193 310.739 156.193 311.206C156.193 311.673 155.813 312.054 155.345 312.054Z" fill="#1A468F"/>
<path d="M87.7625 318.08H71.5001C71.0329 318.08 70.6523 317.7 70.6523 317.232C70.6523 316.765 71.0329 316.385 71.5001 316.385H87.7625C88.2298 316.385 88.6103 316.765 88.6103 317.232C88.6103 317.7 88.2298 318.08 87.7625 318.08Z" fill="#1A468F"/>
<path d="M169.815 318.08H153.553C153.086 318.08 152.705 317.7 152.705 317.232C152.705 316.765 153.086 316.385 153.553 316.385H169.815C170.283 316.385 170.663 316.765 170.663 317.232C170.663 317.7 170.283 318.08 169.815 318.08Z" fill="#1A468F"/>
<path d="M169.817 325.633H128.891C128.424 325.633 128.043 325.253 128.043 324.785C128.043 324.318 128.424 323.938 128.891 323.938H169.817C170.284 323.938 170.664 324.318 170.664 324.785C170.664 325.253 170.284 325.633 169.817 325.633Z" fill="#1A468F"/>
<path d="M148.283 318.08H94.3849C93.9177 318.08 93.5371 317.7 93.5371 317.232C93.5371 316.765 93.9177 316.385 94.3849 316.385H148.283C148.75 316.385 149.131 316.765 149.131 317.232C149.131 317.7 148.75 318.08 148.283 318.08Z" fill="#1A468F"/>
<path d="M124.295 325.633H71.6974C71.2302 325.633 70.8496 325.253 70.8496 324.785C70.8496 324.318 71.2302 323.938 71.6974 323.938H124.295C124.762 323.938 125.143 324.318 125.143 324.785C125.143 325.253 124.762 325.633 124.295 325.633Z" fill="#1A468F"/>
<path d="M99.1739 366.019H71.6974C71.2302 366.019 70.8496 365.639 70.8496 365.172C70.8496 364.704 71.2302 364.324 71.6974 364.324H99.1739C99.6412 364.324 100.022 364.704 100.022 365.172C100.022 365.639 99.6412 366.019 99.1739 366.019Z" fill="#1A468F"/>
<path d="M155.716 366.019H105.301C104.834 366.019 104.453 365.639 104.453 365.172C104.453 364.704 104.834 364.324 105.301 364.324H155.716C156.184 364.324 156.564 364.704 156.564 365.172C156.564 365.639 156.184 366.019 155.716 366.019Z" fill="#1A468F"/>
<path d="M188.665 316.389C196.739 320.749 197.216 334.685 185.269 338.692C173.525 342.652 153.034 350.388 150.582 339.107C148.963 332.565 154.883 326.833 160.115 323.644C141.082 325.734 143.139 309.655 157.181 302.29C138.13 306.62 133.818 290.286 150.442 281.716C159.344 277.395 186.074 269.158 187.476 269.153C194.658 269.11 197.495 271.682 198.94 278.349C200.173 284.096 195.727 288.73 189.937 292.063C200.795 294.626 202.827 310.715 188.665 316.389Z" fill="#F8A6B3"/>
<path d="M156.362 286.023C158.072 289.159 158.712 292.872 158.346 296.163C158.221 297.285 157.455 298.157 156.492 298.321C153.235 298.87 145.832 299.679 144.984 295.84C143.804 290.512 150.49 286.596 153.679 285.059C154.656 284.587 155.793 284.987 156.362 286.027V286.023Z" fill="#FFD9DE"/>
<path d="M160.447 305.546C163.41 308.311 164.296 312.642 162.629 317.107C162.336 317.902 161.7 318.456 160.968 318.586C157.967 319.125 149.946 320.176 149.06 316.173C147.812 310.541 155.361 306.485 158.265 305.151C158.997 304.814 159.831 304.968 160.447 305.546Z" fill="#FFD9DE"/>
<path d="M165.731 326.972C168.328 330.103 168.992 334.241 167.875 338.018C167.61 338.919 166.94 339.579 166.136 339.723C163.072 340.267 155.187 341.265 154.31 337.295C153.087 331.775 160.307 327.772 163.337 326.361C164.171 325.97 165.115 326.221 165.741 326.972H165.731Z" fill="#FFD9DE"/>
<path d="M189.923 317.189C183.757 319.699 166.671 323.885 157.35 325.566C158.231 324.887 159.161 324.251 160.115 323.644L188.665 316.389C189.108 316.63 189.528 316.895 189.923 317.189Z" fill="#E18997"/>
<path d="M192.133 292.839C183.121 296.052 166.646 300.806 154.893 303.769C155.63 303.258 156.396 302.767 157.181 302.285L190.038 292.087C190.78 292.28 191.483 292.53 192.138 292.839H192.133Z" fill="#E18997"/>
<path d="M96.1381 143.423V176.011C96.1381 177.528 95.3578 178.862 94.1776 179.638C93.8211 179.874 93.4309 180.057 93.0118 180.177C92.6265 180.288 92.2219 180.351 91.8028 180.351H44.1283C43.5406 180.351 42.9819 180.235 42.4713 180.023C42.0859 179.864 41.7246 179.648 41.4067 179.392C40.424 178.597 39.793 177.379 39.793 176.016V143.428C39.793 142.653 39.9953 141.925 40.3517 141.294C40.4481 141.126 40.5541 140.962 40.6745 140.808C41.4645 139.767 42.7169 139.093 44.1283 139.093H91.8028C93.2142 139.093 94.4666 139.767 95.2566 140.808C95.4878 141.111 95.6805 141.443 95.8202 141.8C96.0225 142.301 96.1333 142.85 96.1333 143.428L96.1381 143.423Z" fill="#FE6B8F"/>
<path d="M75.3049 163.718L73.2818 162.012L72.3521 161.227L68.2528 157.768L67.9686 157.528L67.6795 157.768L63.6814 161.059L62.7565 161.824L59.6399 164.392L59.6206 164.406L56.1716 167.244L56.1619 167.253L53.4981 169.445L41.4121 179.392C41.73 179.648 42.0865 179.864 42.4767 180.023L53.4933 170.953L55.1793 169.565L62.2411 163.756L63.9463 162.345L64.9338 161.535L67.9589 159.045L71.0563 161.656L72.0438 162.494L73.4985 163.722L93.0076 180.182C93.4267 180.062 93.8169 179.879 94.1734 179.648L75.3049 163.727V163.718Z" fill="white"/>
<path d="M96.1392 143.423L94.8386 146.94L75.315 160.832C73.2292 162.316 70.7773 163.101 68.2195 163.101C65.6616 163.101 63.2049 162.316 61.124 160.832L41.6004 146.94L39.7988 143.423C39.7988 142.441 40.1264 141.53 40.6803 140.803C41.4703 139.762 42.7228 139.088 44.1342 139.088H91.8086C93.22 139.088 94.4725 139.762 95.2625 140.803C95.8164 141.53 96.144 142.436 96.144 143.423H96.1392Z" fill="white"/>
<path d="M95.8209 141.8L93.4702 146.424L74.6933 159.936C70.8156 162.73 65.6131 162.73 61.7306 159.936L42.9537 146.424L40.3477 141.289C40.444 141.121 40.55 140.957 40.6704 140.803C41.4604 139.762 42.7128 139.088 44.1242 139.088H91.7987C93.2101 139.088 94.4625 139.762 95.2525 140.803C95.4837 141.106 95.6764 141.439 95.8209 141.795V141.8Z" fill="#FE6B8F"/>
<path d="M41.4076 148.235C45.3025 148.235 48.4598 145.078 48.4598 141.183C48.4598 137.288 45.3025 134.131 41.4076 134.131C37.5128 134.131 34.3555 137.288 34.3555 141.183C34.3555 145.078 37.5128 148.235 41.4076 148.235Z" fill="url(#paint3_linear_89_13926)"/>
<path d="M334.067 116.949H319.274C313.725 116.949 309.23 121.448 309.23 126.992V148.096H314.028V127.59C314.028 124.362 316.644 121.747 319.871 121.747H333.475C336.702 121.747 339.318 124.362 339.318 127.59V148.096H344.116V126.992C344.116 121.443 339.616 116.949 334.072 116.949H334.067Z" fill="#224585"/>
<path d="M298.326 146.525V154.237C298.326 169.893 311.014 182.581 326.67 182.581C342.325 182.581 355.013 169.888 355.013 154.237V146.525C355.013 141.92 351.28 138.182 346.67 138.182H306.665C302.059 138.182 298.326 141.915 298.326 146.525Z" fill="#FE6B8F"/>
<path d="M327.619 170.972C334.15 170.972 339.445 165.677 339.445 159.146C339.445 152.615 334.15 147.32 327.619 147.32C321.088 147.32 315.793 152.615 315.793 159.146C315.793 165.677 321.088 170.972 327.619 170.972Z" fill="white"/>
<path d="M330.032 156.867C330.032 155.495 328.88 154.387 327.488 154.464C326.25 154.531 325.248 155.557 325.21 156.8C325.186 157.706 325.658 158.496 326.376 158.929L325.937 164.445C325.918 164.671 326.096 164.864 326.323 164.864H328.909C329.136 164.864 329.314 164.671 329.295 164.445L328.856 158.929C329.555 158.505 330.022 157.744 330.022 156.867H330.032Z" fill="#224585"/>
</g>
<defs>
<linearGradient id="paint0_linear_89_13926" x1="117.594" y1="37.6695" x2="150.553" y2="67.6123" gradientUnits="userSpaceOnUse">
<stop stop-color="#326AB3"/>
<stop offset="1" stop-color="#003780"/>
</linearGradient>
<linearGradient id="paint1_linear_89_13926" x1="340.961" y1="206.079" x2="354.665" y2="206.079" gradientUnits="userSpaceOnUse">
<stop stop-color="#326AB3"/>
<stop offset="1" stop-color="#003780"/>
</linearGradient>
<linearGradient id="paint2_linear_89_13926" x1="353.504" y1="76.0471" x2="432.249" y2="174.378" gradientUnits="userSpaceOnUse">
<stop stop-color="#E85467"/>
<stop offset="1" stop-color="#B01C30"/>
</linearGradient>
<linearGradient id="paint3_linear_89_13926" x1="34.3555" y1="141.183" x2="48.4598" y2="141.183" gradientUnits="userSpaceOnUse">
<stop stop-color="#E85467"/>
<stop offset="1" stop-color="#B01C30"/>
</linearGradient>
<clipPath id="clip0_89_13926">
<rect width="539.67" height="445" fill="white"/>
</clipPath>
</defs>
</svg>
