<svg width="72" height="72" viewBox="0 0 72 72" fill="none" xmlns="http://www.w3.org/2000/svg">
<path d="M48 36H27C20.4 36 15 33 15 24V48" stroke="#A8C0FF" stroke-width="2" stroke-linecap="round" stroke-linejoin="round"/>
<path d="M57 45C61.9706 45 66 40.9706 66 36C66 31.0294 61.9706 27 57 27C52.0294 27 48 31.0294 48 36C48 40.9706 52.0294 45 57 45Z" stroke="#1A468F" stroke-width="2" stroke-linecap="round" stroke-linejoin="round"/>
<path d="M15 66C19.9706 66 24 61.9706 24 57C24 52.0294 19.9706 48 15 48C10.0294 48 6 52.0294 6 57C6 61.9706 10.0294 66 15 66Z" stroke="#1A468F" stroke-width="2" stroke-linecap="round" stroke-linejoin="round"/>
<path d="M15 24C19.9706 24 24 19.9706 24 15C24 10.0294 19.9706 6 15 6C10.0294 6 6 10.0294 6 15C6 19.9706 10.0294 24 15 24Z" stroke="#1A468F" stroke-width="2" stroke-linecap="round" stroke-linejoin="round"/>
</svg>
