<svg width="72" height="72" viewBox="0 0 72 72" fill="none" xmlns="http://www.w3.org/2000/svg">
<path d="M9.50977 22.3201L35.9997 37.65L62.3097 22.41" stroke="#1A468F" stroke-width="2" stroke-linecap="round" stroke-linejoin="round"/>
<path d="M36 64.8299V37.6199" stroke="#1A468F" stroke-width="2" stroke-linecap="round" stroke-linejoin="round"/>
<path d="M64.8303 27.51V44.4901C64.8303 44.6401 64.8304 44.76 64.8004 44.91C62.7004 43.08 60.0004 42.0001 57.0004 42.0001C54.1804 42.0001 51.5704 42.9901 49.5004 44.6401C46.7404 46.8301 45.0004 50.2201 45.0004 54.0001C45.0004 56.2501 45.6303 58.38 46.7403 60.18C47.0103 60.66 47.3403 61.1101 47.7003 61.5301L42.2104 64.5601C38.7904 66.4801 33.2103 66.4801 29.7903 64.5601L13.7704 55.68C10.1404 53.67 7.17041 48.6301 7.17041 44.4901V27.51C7.17041 23.37 10.1404 18.3301 13.7704 16.3201L29.7903 7.44C33.2103 5.52 38.7904 5.52 42.2104 7.44L58.2304 16.3201C61.8604 18.3301 64.8303 23.37 64.8303 27.51Z" stroke="#1A468F" stroke-width="2" stroke-linecap="round" stroke-linejoin="round"/>
<path d="M69.0005 53.7299C69.0605 55.9799 68.4605 58.1099 67.3805 59.9399C66.7805 61.0199 65.9705 62.01 65.0705 62.82C63.0005 64.74 60.2705 65.91 57.2405 66C52.8605 66.09 48.9905 63.84 46.8605 60.39C45.7205 58.62 45.0305 56.49 45.0005 54.24C44.9105 50.46 46.5905 47.0399 49.2905 44.7899C51.3305 43.1099 53.9105 42.06 56.7305 42C63.3605 41.85 68.8505 47.0999 69.0005 53.7299Z" stroke="#A8C0FF" stroke-width="2" stroke-miterlimit="10" stroke-linecap="round" stroke-linejoin="round"/>
<path d="M52.3206 54.0901L55.3506 56.97L61.6206 50.9099" stroke="#A8C0FF" stroke-width="2" stroke-linecap="round" stroke-linejoin="round"/>
</svg>
