<svg width="397" height="339" viewBox="0 0 397 339" fill="none" xmlns="http://www.w3.org/2000/svg">
<g clip-path="url(#clip0_89_12729)">
<path d="M303.51 204.25L302.02 104.34H301.97V93.6001L244.65 97.9201V105.02L243.76 194.13H249.86L248.97 105.02H294.84L293.36 204.25H303.5H303.51Z" fill="#EAEAEA"/>
<path d="M185.55 82.1599L180.59 115.4L150.53 82.1599L145.88 113.32L117.7 82.1599L112.74 115.4L82.6802 82.1599L77.7202 115.4L47.6602 82.1599L42.7002 115.4L12.6402 82.1599L7.68018 115.4V248.13H215.63V115.4L185.57 82.1599H185.55Z" fill="#CEE1F2" fill-opacity="0.2"/>
<path d="M48.1401 248.79H303.73V210.02H273.17L267.21 229.29C266.47 231.67 264.27 233.3 261.77 233.3H88.7101C85.9501 233.3 83.4401 231.68 82.3101 229.15L73.7401 210.01H48.1401V248.78V248.79Z" fill="#CEE1F2" fill-opacity="0.2"/>
<path d="M380.94 242.19H0V248.79H380.94V242.19Z" fill="#CEE1F2" fill-opacity="0.2"/>
<path d="M171.04 82.6401L168.69 76.4501L163.89 78.2701C162.73 76.4401 161.25 74.8901 159.55 73.6701L161.68 68.9301L155.64 66.2101L153.5 70.9601C151.48 70.5101 149.35 70.4301 147.23 70.7701L145.36 65.8501L139.17 68.2001L141.04 73.1201C139.24 74.2601 137.71 75.7201 136.5 77.3901L131.66 75.2101L128.94 81.2501L133.76 83.4201C133.3 85.4301 133.21 87.5401 133.53 89.6501L128.58 91.5301L130.93 97.7201L135.83 95.8601C136.96 97.6901 138.42 99.2301 140.09 100.46L137.94 105.24L143.98 107.96L146.1 103.24C148.14 103.72 150.28 103.82 152.42 103.49L154.25 108.32L160.44 105.97L158.63 101.19C160.48 100.04 162.05 98.5601 163.29 96.8601L167.97 98.9601L170.69 92.9201L166.04 90.8301C166.51 88.7801 166.6 86.6201 166.25 84.4701L171.05 82.6501L171.04 82.6401ZM153.36 96.4301C148.2 98.3901 142.42 95.7901 140.47 90.6301C138.51 85.4701 141.11 79.6901 146.27 77.7401C151.43 75.7801 157.2 78.3801 159.16 83.5401C161.12 88.7001 158.52 94.4801 153.36 96.4301Z" fill="#7696EA"/>
<path opacity="0.25" d="M171.04 82.64L168.69 76.45L163.89 78.27C162.73 76.44 161.25 74.89 159.55 73.67L161.68 68.93L155.64 66.21L153.5 70.96C153.09 70.87 152.68 70.8 152.26 70.74C154.54 73.05 156.41 75.85 157.63 79.08C158.03 80.14 158.32 81.21 158.57 82.28C158.79 82.68 158.99 83.09 159.15 83.52C160.14 86.12 159.96 88.88 158.89 91.23C158.15 96.02 155.96 100.48 152.62 104.02L154.24 108.3L160.43 105.95L158.62 101.17C160.47 100.02 162.04 98.54 163.28 96.84L167.96 98.94L170.68 92.9L166.03 90.81C166.5 88.76 166.59 86.6 166.24 84.45L171.04 82.63V82.64Z" fill="#32438B"/>
<path d="M130.43 106.19L129.34 101.27L125.53 102.11C124.86 100.61 123.92 99.28 122.77 98.17L124.89 94.84L120.64 92.13L118.51 95.47C117.04 94.91 115.45 94.61 113.82 94.64L112.96 90.73L108.04 91.82L108.9 95.73C107.42 96.39 106.11 97.32 105.01 98.44L101.61 96.27L98.8998 100.51L102.29 102.67C101.72 104.13 101.42 105.71 101.44 107.33L97.5098 108.2L98.5998 113.12L102.49 112.26C103.14 113.76 104.07 115.08 105.19 116.19L103.05 119.55L107.29 122.26L109.4 118.95C110.88 119.54 112.48 119.84 114.13 119.83L114.98 123.66L119.9 122.57L119.06 118.78C120.58 118.12 121.92 117.18 123.04 116.03L126.33 118.13L129.04 113.88L125.77 111.8C126.35 110.31 126.65 108.69 126.62 107.04L130.43 106.2V106.19ZM115.61 114.62C111.51 115.53 107.45 112.94 106.55 108.84C105.64 104.74 108.23 100.68 112.33 99.78C116.43 98.87 120.49 101.46 121.39 105.56C122.3 109.66 119.71 113.72 115.61 114.62Z" fill="#7696EA"/>
<path d="M130.42 106.19L129.33 101.28L125.52 102.12C124.85 100.62 123.9 99.2899 122.76 98.1799L124.88 94.8499L120.63 92.1399L118.5 95.4799C118.2 95.3699 117.9 95.2699 117.59 95.1799C119.06 97.1699 120.15 99.4799 120.71 102.04C120.9 102.88 121 103.72 121.07 104.55C121.19 104.87 121.3 105.2 121.37 105.55C121.83 107.62 121.39 109.67 120.33 111.32C119.25 114.84 117.11 117.96 114.21 120.25L114.96 123.65L119.88 122.56L119.04 118.77C120.56 118.11 121.9 117.17 123.02 116.02L126.31 118.12L129.02 113.87L125.75 111.79C126.33 110.3 126.63 108.69 126.6 107.03L130.41 106.18L130.42 106.19Z" fill="#7696EA"/>
<path d="M72.59 205.93L72.18 204.09L70.76 204.4C70.51 203.84 70.16 203.34 69.73 202.93L70.52 201.69L68.94 200.68L68.14 201.93C67.59 201.72 67 201.61 66.39 201.62L66.07 200.16L64.23 200.57L64.55 202.03C64 202.28 63.51 202.62 63.1 203.04L61.83 202.23L60.82 203.81L62.08 204.62C61.87 205.17 61.76 205.76 61.76 206.36L60.29 206.68L60.7 208.52L62.15 208.2C62.39 208.76 62.74 209.25 63.16 209.67L62.36 210.92L63.94 211.93L64.73 210.69C65.28 210.91 65.88 211.02 66.5 211.02L66.82 212.45L68.66 212.04L68.35 210.62C68.92 210.37 69.42 210.02 69.84 209.59L71.07 210.37L72.08 208.78L70.86 208C71.08 207.44 71.19 206.84 71.18 206.22L72.6 205.9L72.59 205.93ZM67.05 209.08C65.52 209.42 64 208.45 63.66 206.92C63.32 205.39 64.29 203.87 65.82 203.53C67.35 203.19 68.87 204.16 69.2 205.69C69.54 207.22 68.57 208.74 67.04 209.07L67.05 209.08Z" fill="#088AFF"/>
<path d="M72.59 205.93L72.18 204.09L70.76 204.4C70.51 203.84 70.16 203.34 69.73 202.93L70.52 201.69L68.93 200.68L68.13 201.93C68.02 201.89 67.9 201.85 67.79 201.82C68.34 202.56 68.75 203.42 68.96 204.38C69.03 204.69 69.07 205.01 69.09 205.32C69.13 205.44 69.17 205.56 69.2 205.69C69.37 206.46 69.2 207.23 68.81 207.84C68.41 209.16 67.61 210.32 66.52 211.18L66.8 212.45L68.64 212.04L68.33 210.62C68.9 210.37 69.4 210.02 69.82 209.59L71.05 210.37L72.06 208.78L70.84 208C71.06 207.44 71.17 206.84 71.16 206.22L72.58 205.9L72.59 205.93Z" fill="#088AFF"/>
<path d="M295.32 110.46L294.72 107.73L292.61 108.2C292.24 107.37 291.71 106.63 291.08 106.02L292.26 104.17L289.91 102.67L288.73 104.52C287.91 104.21 287.03 104.04 286.13 104.06L285.65 101.89L282.92 102.49L283.4 104.66C282.58 105.02 281.85 105.54 281.25 106.16L279.36 104.96L277.86 107.31L279.74 108.51C279.42 109.32 279.26 110.19 279.27 111.09L277.09 111.57L277.69 114.29L279.85 113.81C280.21 114.64 280.72 115.37 281.34 115.99L280.15 117.85L282.5 119.35L283.67 117.51C284.49 117.84 285.38 118.01 286.29 118L286.76 120.12L289.48 119.52L289.02 117.42C289.86 117.05 290.61 116.53 291.23 115.9L293.05 117.06L294.55 114.71L292.74 113.55C293.06 112.72 293.23 111.83 293.21 110.91L295.32 110.44V110.46ZM287.1 115.14C284.83 115.64 282.58 114.21 282.08 111.93C281.58 109.66 283.01 107.41 285.28 106.91C287.55 106.41 289.8 107.84 290.3 110.12C290.8 112.39 289.37 114.64 287.09 115.14H287.1Z" fill="#088AFF"/>
<path d="M295.32 110.46L294.72 107.73L292.61 108.2C292.24 107.37 291.71 106.63 291.08 106.02L292.26 104.17L289.91 102.67L288.73 104.52C288.57 104.46 288.4 104.4 288.23 104.35C289.04 105.45 289.65 106.73 289.96 108.16C290.06 108.63 290.12 109.09 290.16 109.55C290.23 109.73 290.28 109.91 290.33 110.1C290.58 111.25 290.34 112.39 289.75 113.3C289.15 115.25 287.96 116.98 286.36 118.25L286.78 120.13L289.51 119.53L289.05 117.43C289.89 117.06 290.64 116.54 291.25 115.91L293.07 117.07L294.57 114.72L292.76 113.56C293.08 112.73 293.25 111.84 293.23 110.92L295.34 110.45L295.32 110.46Z" fill="#088AFF"/>
<path d="M318.24 83.3099L316.61 79.0099L313.28 80.2699C312.48 78.9999 311.45 77.9199 310.27 77.0799L311.75 73.7899L307.56 71.8999L306.08 75.1999C304.68 74.8799 303.2 74.8299 301.73 75.0699L300.43 71.6499L296.13 73.2799L297.43 76.6999C296.18 77.4899 295.12 78.4999 294.28 79.6599L290.92 78.1499L289.03 82.3399L292.37 83.8399C292.05 85.2399 291.98 86.6999 292.21 88.1599L288.77 89.4599L290.4 93.7599L293.8 92.4699C294.59 93.7399 295.6 94.8099 296.76 95.6599L295.27 98.9699L299.46 100.86L300.93 97.5899C302.34 97.9199 303.83 97.9899 305.32 97.7599L306.59 101.11L310.89 99.4799L309.63 96.1599C310.92 95.3599 312 94.3399 312.86 93.1499L316.1 94.6099L317.99 90.4199L314.76 88.9699C315.09 87.5499 315.15 86.0499 314.9 84.5599L318.23 83.2999L318.24 83.3099ZM305.97 92.8799C302.39 94.2399 298.38 92.4399 297.02 88.8499C295.66 85.2699 297.46 81.2599 301.05 79.8999C304.63 78.5399 308.64 80.3399 310 83.9299C311.36 87.5099 309.56 91.5199 305.97 92.8799Z" fill="#7696EA"/>
<path opacity="0.25" d="M318.24 83.3099L316.61 79.0099L313.28 80.2699C312.48 78.9999 311.45 77.9199 310.27 77.0799L311.75 73.7899L307.56 71.8999L306.08 75.1999C305.8 75.1399 305.51 75.0899 305.22 75.0499C306.81 76.6499 308.1 78.5899 308.95 80.8399C309.23 81.5799 309.43 82.3199 309.6 83.0599C309.75 83.3399 309.89 83.6199 310 83.9199C310.69 85.7299 310.57 87.6399 309.82 89.2699C309.3 92.5899 307.79 95.6899 305.47 98.1499L306.6 101.12L310.9 99.4899L309.64 96.1699C310.93 95.3699 312.01 94.3499 312.87 93.1599L316.11 94.6199L318 90.4299L314.77 88.9799C315.1 87.5599 315.16 86.0599 314.91 84.5699L318.24 83.2999V83.3099Z" fill="#7696EA"/>
<path d="M349.38 111.83L345.92 105.9L341.32 108.58C339.83 106.9 338.04 105.58 336.09 104.62L337.46 99.4099L330.82 97.6599L329.44 102.88C327.29 102.76 325.11 103.04 323 103.76L320.25 99.0499L314.32 102.51L317.07 107.22C315.42 108.69 314.11 110.44 313.15 112.36L307.83 110.96L306.08 117.6L311.38 118.99C311.25 121.13 311.52 123.3 312.21 125.4L307.47 128.17L310.93 134.1L315.62 131.36C317.09 133.03 318.84 134.37 320.76 135.34L319.38 140.59L326.02 142.34L327.38 137.16C329.55 137.31 331.75 137.04 333.88 136.33L336.58 140.95L342.51 137.49L339.84 132.91C341.54 131.42 342.89 129.64 343.86 127.68L349 129.03L350.75 122.39L345.64 121.05C345.77 118.87 345.49 116.65 344.77 114.51L349.37 111.83H349.38ZM333.65 128.95C328.7 131.83 322.36 130.16 319.47 125.22C316.59 120.28 318.26 113.93 323.2 111.04C328.14 108.16 334.49 109.83 337.38 114.77C340.27 119.72 338.59 126.06 333.65 128.95Z" fill="#7696EA"/>
<path d="M344.78 114.51L349.38 111.83L345.92 105.9L341.32 108.58C339.83 106.9 338.04 105.58 336.09 104.62L337.46 99.4099L330.82 97.6599L329.44 102.88C327.63 102.78 325.81 102.98 324.02 103.47C330.52 104.26 336.29 108.71 338.43 115.35C341.35 124.45 336.34 134.2 327.24 137.12C324.86 137.88 322.44 138.09 320.11 137.84L319.39 140.58L326.03 142.33L327.39 137.15C329.56 137.3 331.76 137.03 333.89 136.32L336.59 140.94L342.52 137.48L339.85 132.9C341.55 131.41 342.9 129.63 343.87 127.67L349.01 129.02L350.76 122.38L345.65 121.04C345.78 118.86 345.5 116.64 344.78 114.5V114.51Z" fill="#7696EA"/>
<path d="M171.92 270.02V320.71C171.92 323.82 169.4 326.33 166.3 326.33H90.7201C87.6101 326.33 85.1001 323.81 85.1001 320.71V270.02C85.1001 266.91 87.6201 264.4 90.7201 264.4H166.3C169.41 264.4 171.92 266.92 171.92 270.02Z" fill="#7696EA"/>
<path d="M167.61 264.39H151.14V326.33H167.61C169.99 326.33 171.92 324.4 171.92 322.02V268.71C171.92 266.33 169.99 264.4 167.61 264.4V264.39Z" fill="#7696EA"/>
<path d="M88.8301 267.75V322.98H162.78V267.75H88.8301Z" fill="white"/>
<path d="M162.78 267.75H151.13V322.98H162.78V267.75Z" fill="white"/>
<path d="M166.86 293.38C167.95 293.38 168.84 294.27 168.84 295.36C168.84 296.45 167.95 297.34 166.86 297.34C165.77 297.34 164.88 296.45 164.88 295.36C164.88 294.27 165.77 293.38 166.86 293.38Z" fill="#2E4480"/>
<path d="M164.88 295.36C164.88 295.55 164.92 295.74 164.97 295.91C165.21 295.09 165.96 294.48 166.87 294.48C167.78 294.48 168.52 295.08 168.76 295.91C168.81 295.73 168.85 295.55 168.85 295.36C168.85 294.26 167.96 293.38 166.87 293.38C165.77 293.38 164.89 294.27 164.89 295.36H164.88Z" fill="#38528E"/>
<path d="M155.47 276.25H95.7598V277.82H155.47V276.25Z" fill="#7696EA"/>
<path d="M155.47 283.15H95.7598V284.72H155.47V283.15Z" fill="#7696EA"/>
<path d="M155.47 290.05H95.7598V291.62H155.47V290.05Z" fill="#7696EA"/>
<path d="M155.47 296.96H95.7598V298.53H155.47V296.96Z" fill="#7696EA"/>
<path d="M155.47 303.09H95.7598V304.66H155.47V303.09Z" fill="#7696EA"/>
<path d="M57.8899 137.83C54.2899 135.11 49.1699 135.82 46.4399 139.42C44.8499 141.53 44.4399 144.15 45.0899 146.52L2.61988 175.25V175.27C1.63988 176.15 1.42988 177.65 2.18988 178.78C2.94988 179.91 4.42988 180.27 5.61988 179.67V179.69L48.1399 150.94C51.7299 153.57 56.7799 152.84 59.4799 149.28C62.1999 145.68 61.4899 140.55 57.8899 137.83ZM5.79988 178.38C4.78988 179.07 3.53988 179 3.00988 178.22C2.48988 177.44 2.87988 176.26 3.89988 175.57C4.91988 174.88 6.15988 174.95 6.68988 175.73C7.20988 176.51 6.81988 177.69 5.79988 178.38ZM57.6299 147.97L54.6499 150.05L51.0099 149.98L48.1099 147.79L47.0499 144.31L48.2399 140.87L51.2199 138.79L54.8599 138.86L57.7599 141.05L58.8199 144.53L57.6299 147.97Z" fill="#F4B840"/>
<path d="M58.8699 138.72C60.6799 141.52 60.6599 145.26 58.5299 148.08C55.8399 151.64 50.7899 152.37 47.1899 149.74L6.83994 177.04C6.68994 177.54 6.32994 178.03 5.80994 178.38C5.11994 178.84 4.32994 178.95 3.72994 178.74C3.09994 178.8 2.45994 178.64 1.93994 178.27C2.00994 178.44 2.08994 178.62 2.19994 178.78C2.96994 179.91 4.43994 180.27 5.62994 179.68V179.7L48.1499 150.95C51.7399 153.58 56.7899 152.85 59.4899 149.29C61.9399 146.05 61.5999 141.58 58.8799 138.73L58.8699 138.72Z" fill="#FFCE76"/>
<path d="M175.74 51.71L179.42 48.32C173.88 43.85 170.34 37.02 170.34 29.35C170.34 15.88 181.26 4.97 194.72 4.97C208.18 4.97 219.1 15.88 219.1 29.35C219.1 37.02 215.55 43.85 210.02 48.32L213.7 51.71C220.03 46.33 224.07 38.31 224.07 29.35C224.07 13.14 210.93 0 194.72 0C178.51 0 165.37 13.14 165.37 29.35C165.37 38.32 169.4 46.33 175.74 51.71Z" fill="#EABA10"/>
<path d="M195.46 16.0801C187.32 16.0801 181.77 21.8001 181.77 29.9101C181.77 31.9401 182.21 34.2101 183.22 36.4101C185.15 40.5901 187.83 47.2601 188.47 49.9901H202.53C203.62 45.8101 206.29 40.2201 208.22 35.5601C209.04 33.5801 209.47 31.3801 209.47 29.6201C209.47 22.0201 203.6 16.0901 195.46 16.0901V16.0801Z" fill="#EABA10"/>
<path d="M188.42 34.7L187.7 34.8499L192.43 57.1199L193.15 56.97L188.42 34.7Z" fill="#EABA10"/>
<path d="M201.85 35.4399L201.11 35.3799L199.12 58.0599L199.86 58.1199L201.85 35.4399Z" fill="#F4B942"/>
<path d="M188.04 35.0601C191.81 38.9501 197.78 39.2601 201.39 35.7601L188.04 35.0601Z" fill="#FFE212"/>
<path d="M201.85 60.24H189.18C189.18 62.93 191.1 65.19 193.73 65.91V66.57H194.06C194.23 66.93 194.61 67.18 195.06 67.18H196.16C196.6 67.18 196.99 66.93 197.16 66.57H197.49V65.86C200.02 65.08 201.85 62.86 201.85 60.24Z" fill="#FFE212"/>
<path d="M203.24 49.98H188.04V61.08H203.24V49.98Z" fill="#FFE212"/>
<path d="M187.9 55.28C187.32 55.31 186.88 55.77 186.91 56.31C186.94 56.85 187.43 57.26 188.01 57.23L200.02 56.64L187.9 55.28Z" fill="#EABA10"/>
<path d="M187.89 51.6599C187.31 51.6999 186.88 52.1599 186.92 52.6999C186.96 53.2399 187.46 53.6399 188.04 53.6099L200.03 52.8299L187.89 51.6599Z" fill="#EABA10"/>
<path d="M202.94 53.3301L190.84 54.7701L202.85 55.2801C203.43 55.3001 203.91 54.8901 203.94 54.3501C203.97 53.8101 203.52 53.3601 202.94 53.3301Z" fill="#EABA10"/>
<path d="M202.93 57.1299L190.85 58.7299L202.87 59.0799C203.45 59.0999 203.93 58.6699 203.95 58.1399C203.97 57.5999 203.52 57.1499 202.94 57.1299H202.93Z" fill="#EABA10"/>
<path opacity="0.5" d="M209.47 29.6101C209.47 22.0101 203.6 16.0801 195.46 16.0801C194.65 16.0801 193.88 16.1501 193.12 16.2601C200.03 17.2701 204.82 22.7501 204.82 29.6101C204.82 31.3701 204.39 33.5701 203.57 35.5501C201.64 40.2101 198.97 45.8001 197.88 49.9801H198.6V61.0801H197.14C196.82 63.2101 195.27 64.9601 193.2 65.7301C193.38 65.7901 193.55 65.8701 193.73 65.9201V66.5801H194.06C194.23 66.9401 194.61 67.1901 195.06 67.1901H196.16C196.6 67.1901 196.99 66.9401 197.16 66.5801H197.49V65.8701C199.75 65.1801 201.44 63.3401 201.78 61.0901H203.25V49.9901H202.53C203.62 45.8101 206.29 40.2201 208.22 35.5601C209.04 33.5801 209.47 31.3801 209.47 29.6201V29.6101Z" fill="#FFE212"/>
<path d="M220.92 165V122.39C220.92 115.8 227.77 110.46 236.23 110.46H273.64" stroke="#43B7FF" stroke-width="2" stroke-miterlimit="10"/>
<path d="M216.72 205.12V281.02C216.72 292.76 223.57 302.26 232.03 302.26H236.51" stroke="#43B7FF" stroke-width="2" stroke-miterlimit="10"/>
<path d="M101.45 192.03H46.7402C38.2802 192.03 31.4302 185.18 31.4302 176.72V169.57" stroke="#43B7FF" stroke-width="2" stroke-miterlimit="10"/>
<path d="M128.41 200.47V258.33" stroke="#43B7FF" stroke-width="2" stroke-miterlimit="10"/>
<path d="M195.41 73.1299V160.21" stroke="#43B7FF" stroke-width="2" stroke-miterlimit="10"/>
<path d="M138.55 114.8V174.8" stroke="#43B7FF" stroke-width="2" stroke-miterlimit="10"/>
<path d="M173.13 161.15L183.09 147.23L202.46 149.13C202.46 149.13 208.82 149.51 211.8 155.51C213.03 157.99 214.5 161.11 215.4 164.06L173.14 161.14L173.13 161.15Z" fill="#40C6EB"/>
<g opacity="0.2">
<path d="M179.36 161.58L188.58 162.22L199.66 148.86L190.64 147.98L179.36 161.59V161.58Z" fill="#E7F5FD"/>
<path d="M191.93 162.45L197.89 162.86L207.74 150.98C205.75 149.72 203.79 149.31 202.93 149.18L191.93 162.44V162.45Z" fill="#E7F5FD"/>
</g>
<path d="M165.48 166.68L172.36 161.11L230.84 163.88L236.41 170.77L165.48 166.67V166.68Z" fill="#A8C0FF"/>
<path d="M133.49 196.43L161.19 168.78L257.45 169.95L247.5 176.09L241.01 178.48V183.19L133.49 196.43Z" fill="#A8C0FF"/>
<path d="M133.49 196.43L203.76 187.78L197.8 178.66H151.3L133.5 196.43H133.49Z" fill="#00000C"/>
<g opacity="0.5">
<path d="M180.56 178.66H165.55L152.31 193.5L152.91 194.04L168.56 192.11L180.57 178.65L180.56 178.66Z" fill="#4799D4"/>
<path d="M173.69 191.48L184.2 190.19L194.49 178.66H185.13L173.69 191.48Z" fill="#4799D4"/>
</g>
<path d="M39.29 201.23L242 180.74L267.55 213.45L39.29 201.24V201.23Z" fill="#7696EA"/>
<path d="M246.48 198.95L250.61 210.65" stroke="#6B93A9" stroke-width="2" stroke-miterlimit="10" stroke-linecap="round"/>
<path d="M226.23 197.91L230.36 209.61" stroke="#6B93A9" stroke-width="2" stroke-miterlimit="10" stroke-linecap="round"/>
<path d="M205.98 196.86L210.11 208.56" stroke="#6B93A9" stroke-width="2" stroke-miterlimit="10" stroke-linecap="round"/>
<path d="M185.73 195.81L189.86 207.51" stroke="#6B93A9" stroke-width="2" stroke-miterlimit="10" stroke-linecap="round"/>
<path d="M165.48 194.77L169.61 206.47" stroke="#6B93A9" stroke-width="2" stroke-miterlimit="10" stroke-linecap="round"/>
<path d="M145.23 193.72L149.36 205.42" stroke="#6B93A9" stroke-width="2" stroke-miterlimit="10" stroke-linecap="round"/>
<path d="M124.99 192.67L129.12 204.37" stroke="#6B93A9" stroke-width="2" stroke-miterlimit="10" stroke-linecap="round"/>
<path d="M74.77 191.63L78.9 203.33" stroke="#6B93A9" stroke-width="2" stroke-miterlimit="10" stroke-linecap="round"/>
<path d="M54.52 190.58L58.65 202.28" stroke="#6B93A9" stroke-width="2" stroke-miterlimit="10" stroke-linecap="round"/>
<path d="M35.1602 189.53L39.2902 201.23" stroke="#6B93A9" stroke-width="2" stroke-miterlimit="10" stroke-linecap="round"/>
<path d="M292.42 211.79L300.3 238.64L78.9002 242.23C78.9002 242.23 71.7902 241.74 66.2202 235.05L37.2202 201.03L292.41 211.79H292.42Z" fill="#A8C0FF"/>
<path opacity="0.5" d="M298.08 231.09C266.39 234.43 131.97 245.83 95.3602 203.48L37.2202 201.03L66.2202 235.05C71.7902 241.74 78.9002 242.23 78.9002 242.23L300.3 238.64L298.08 231.09Z" fill="#7696EA"/>
<path d="M296.02 224.08L52.0898 218.44L66.2198 235.06C71.7898 241.75 78.8998 242.24 78.8998 242.24L300.3 238.65L296.03 224.09L296.02 224.08Z" fill="#005E9B"/>
<path d="M296.02 224.08L52.0898 218.44L66.2198 235.06C71.7898 241.75 78.8998 242.24 78.8998 242.24L300.3 238.65L296.03 224.09L296.02 224.08Z" fill="#005E9B"/>
<path d="M296.02 224.08L52.0898 218.44L66.2198 235.06C71.7898 241.75 78.8998 242.24 78.8998 242.24L300.3 238.65L296.03 224.09L296.02 224.08Z" fill="#7696EA"/>
<path d="M298.08 231.09C271.49 233.89 172.54 242.37 119.77 220L52.0898 218.43L66.2198 235.05C71.7898 241.74 78.8998 242.23 78.8998 242.23L300.3 238.64L298.09 231.09H298.08Z" fill="#A8C0FF"/>
<path d="M51.6802 217.95L53.9702 220.63L296.42 225.43L296.02 224.08L51.6802 217.95Z" fill="#00000C"/>
<path d="M34.2998 188.58L252.55 198.95" stroke="#CEE1F2" stroke-width="3.01" stroke-miterlimit="10" stroke-linecap="round"/>
<path d="M253.61 218.86C253.61 220.85 252.01 222.46 250.04 222.46C248.07 222.46 246.48 220.85 246.48 218.86C246.48 216.87 248.08 215.26 250.04 215.26C252 215.26 253.61 216.87 253.61 218.86Z" fill="#85ACBD"/>
<path d="M253.61 218.48C253.61 220.47 252.01 222.08 250.04 222.08C248.07 222.08 246.48 220.47 246.48 218.48C246.48 216.49 248.08 214.88 250.04 214.88C252 214.88 253.61 216.49 253.61 218.48Z" fill="#4E6F9A"/>
<path d="M252.71 218.48C252.71 219.97 251.51 221.18 250.04 221.18C248.57 221.18 247.37 219.97 247.37 218.48C247.37 216.99 248.57 215.78 250.04 215.78C251.52 215.78 252.71 216.99 252.71 218.48Z" fill="#40C6EB"/>
<path d="M251.36 216.14L247.51 219.33C247.69 219.88 248.04 220.35 248.5 220.68L252.49 217.39C252.26 216.86 251.86 216.43 251.37 216.14H251.36Z" fill="#74CFE8"/>
<path d="M247.51 218.67C247.51 217.18 248.71 215.97 250.18 215.97C251.04 215.97 251.8 216.38 252.29 217.01C251.81 216.27 250.99 215.78 250.05 215.78C248.58 215.78 247.38 216.99 247.38 218.48C247.38 219.1 247.59 219.68 247.95 220.13C247.68 219.71 247.52 219.2 247.52 218.66L247.51 218.67Z" fill="#2493AA"/>
<path d="M241.01 218.6C241.01 220.59 239.41 222.2 237.44 222.2C235.47 222.2 233.87 220.59 233.87 218.6C233.87 216.61 235.47 215 237.44 215C239.41 215 241.01 216.61 241.01 218.6Z" fill="#85ACBD"/>
<path d="M241.01 218.22C241.01 220.21 239.41 221.82 237.44 221.82C235.47 221.82 233.87 220.21 233.87 218.22C233.87 216.23 235.47 214.62 237.44 214.62C239.41 214.62 241.01 216.23 241.01 218.22Z" fill="#4E6F9A"/>
<path d="M240.11 218.22C240.11 219.71 238.91 220.92 237.44 220.92C235.97 220.92 234.77 219.71 234.77 218.22C234.77 216.73 235.96 215.52 237.44 215.52C238.92 215.52 240.11 216.73 240.11 218.22Z" fill="#40C6EB"/>
<path d="M238.76 215.88L234.9 219.07C235.08 219.62 235.43 220.09 235.89 220.42L239.87 217.13C239.64 216.6 239.24 216.17 238.75 215.88H238.76Z" fill="#74CFE8"/>
<path d="M234.91 218.41C234.91 216.92 236.11 215.71 237.58 215.71C238.44 215.71 239.2 216.12 239.68 216.75C239.2 216.01 238.38 215.52 237.44 215.52C235.96 215.52 234.77 216.73 234.77 218.22C234.77 218.85 234.98 219.42 235.34 219.88C235.07 219.46 234.91 218.95 234.91 218.41Z" fill="#2493AA"/>
<path d="M212.91 217.16C212.91 219.15 211.31 220.76 209.34 220.76C207.37 220.76 205.77 219.15 205.77 217.16C205.77 215.17 207.37 213.56 209.34 213.56C211.31 213.56 212.91 215.18 212.91 217.16Z" fill="#85ACBD"/>
<path d="M212.91 216.79C212.91 218.78 211.31 220.39 209.34 220.39C207.37 220.39 205.77 218.78 205.77 216.79C205.77 214.8 207.37 213.19 209.34 213.19C211.31 213.19 212.91 214.8 212.91 216.79Z" fill="#4E6F9A"/>
<path d="M212.01 216.79C212.01 218.28 210.81 219.49 209.34 219.49C207.87 219.49 206.67 218.28 206.67 216.79C206.67 215.3 207.87 214.09 209.34 214.09C210.81 214.09 212.01 215.3 212.01 216.79Z" fill="#40C6EB"/>
<path d="M210.66 214.44L206.81 217.63C206.99 218.18 207.34 218.65 207.8 218.98L211.79 215.69C211.56 215.16 211.16 214.73 210.67 214.44H210.66Z" fill="#74CFE8"/>
<path d="M206.8 216.98C206.8 215.49 207.99 214.28 209.47 214.28C210.33 214.28 211.09 214.69 211.58 215.32C211.1 214.58 210.28 214.09 209.34 214.09C207.87 214.09 206.67 215.3 206.67 216.79C206.67 217.42 206.88 217.99 207.23 218.45C206.96 218.03 206.8 217.52 206.8 216.98Z" fill="#2493AA"/>
<path d="M200.31 216.9C200.31 218.89 198.71 220.5 196.74 220.5C194.77 220.5 193.17 218.89 193.17 216.9C193.17 214.91 194.77 213.3 196.74 213.3C198.71 213.3 200.31 214.91 200.31 216.9Z" fill="#85ACBD"/>
<path d="M200.31 216.52C200.31 218.51 198.71 220.12 196.74 220.12C194.77 220.12 193.17 218.51 193.17 216.52C193.17 214.53 194.77 212.92 196.74 212.92C198.71 212.92 200.31 214.53 200.31 216.52Z" fill="#4E6F9A"/>
<path d="M199.41 216.52C199.41 218.01 198.21 219.22 196.74 219.22C195.27 219.22 194.07 218.01 194.07 216.52C194.07 215.03 195.27 213.82 196.74 213.82C198.21 213.82 199.41 215.03 199.41 216.52Z" fill="#40C6EB"/>
<path d="M198.06 214.18L194.2 217.37C194.38 217.92 194.73 218.39 195.19 218.72L199.17 215.43C198.94 214.9 198.54 214.47 198.05 214.18H198.06Z" fill="#74CFE8"/>
<path d="M194.21 216.71C194.21 215.22 195.41 214.01 196.88 214.01C197.74 214.01 198.5 214.42 198.98 215.05C198.5 214.31 197.68 213.82 196.74 213.82C195.27 213.82 194.07 215.03 194.07 216.52C194.07 217.14 194.28 217.72 194.64 218.18C194.37 217.76 194.21 217.25 194.21 216.71Z" fill="#2493AA"/>
<path d="M155.87 215.02C155.87 217.01 154.27 218.62 152.3 218.62C150.33 218.62 148.73 217.01 148.73 215.02C148.73 213.03 150.33 211.42 152.3 211.42C154.27 211.42 155.87 213.03 155.87 215.02Z" fill="#85ACBD"/>
<path d="M155.87 214.65C155.87 216.64 154.27 218.25 152.3 218.25C150.33 218.25 148.73 216.64 148.73 214.65C148.73 212.66 150.33 211.05 152.3 211.05C154.27 211.05 155.87 212.66 155.87 214.65Z" fill="#4E6F9A"/>
<path d="M154.97 214.65C154.97 216.14 153.77 217.35 152.3 217.35C150.83 217.35 149.63 216.14 149.63 214.65C149.63 213.16 150.83 211.95 152.3 211.95C153.77 211.95 154.97 213.16 154.97 214.65Z" fill="#40C6EB"/>
<path d="M153.62 212.3L149.76 215.49C149.94 216.04 150.29 216.51 150.75 216.84L154.73 213.55C154.5 213.02 154.11 212.59 153.61 212.3H153.62Z" fill="#74CFE8"/>
<path d="M149.77 214.84C149.77 213.35 150.96 212.14 152.44 212.14C153.3 212.14 154.06 212.55 154.55 213.18C154.07 212.44 153.25 211.95 152.31 211.95C150.83 211.95 149.64 213.16 149.64 214.65C149.64 215.28 149.85 215.85 150.21 216.31C149.94 215.89 149.78 215.38 149.78 214.84H149.77Z" fill="#2493AA"/>
<path d="M143.27 214.76C143.27 216.75 141.67 218.36 139.7 218.36C137.73 218.36 136.13 216.75 136.13 214.76C136.13 212.77 137.73 211.16 139.7 211.16C141.67 211.16 143.27 212.77 143.27 214.76Z" fill="#85ACBD"/>
<path d="M143.27 214.38C143.27 216.37 141.67 217.98 139.7 217.98C137.73 217.98 136.13 216.37 136.13 214.38C136.13 212.39 137.73 210.78 139.7 210.78C141.67 210.78 143.27 212.4 143.27 214.38Z" fill="#4E6F9A"/>
<path d="M142.38 214.38C142.38 215.87 141.18 217.08 139.71 217.08C138.24 217.08 137.04 215.87 137.04 214.38C137.04 212.89 138.24 211.68 139.71 211.68C141.18 211.68 142.38 212.89 142.38 214.38Z" fill="#40C6EB"/>
<path d="M141.02 212.04L137.17 215.23C137.35 215.78 137.7 216.25 138.16 216.58L142.14 213.29C141.91 212.76 141.51 212.33 141.02 212.04Z" fill="#74CFE8"/>
<path d="M137.17 214.57C137.17 213.08 138.37 211.87 139.84 211.87C140.7 211.87 141.46 212.28 141.94 212.91C141.46 212.17 140.64 211.68 139.7 211.68C138.23 211.68 137.03 212.89 137.03 214.38C137.03 215 137.24 215.58 137.6 216.04C137.33 215.62 137.17 215.11 137.17 214.57Z" fill="#2493AA"/>
<path d="M263.713 177.881C263.671 177.893 263.64 177.902 263.62 177.907L263.62 177.907L215.425 183.41L260.417 169.558L260.581 169.507L260.679 169.367L265.539 162.448L274.865 160.879L268.346 173.46L268.338 173.475L268.332 173.49C267.517 175.356 266.32 176.462 265.333 177.103C264.838 177.424 264.395 177.629 264.08 177.752C263.922 177.814 263.797 177.855 263.713 177.881Z" fill="#CEE1F2" stroke="#CEE1F2"/>
<path d="M165.65 166.422L262.182 167.814L262.741 170.267L163.057 168.309L165.65 166.422Z" fill="#CEE1F2" stroke="#CEE1F2"/>
<path d="M243.37 170.32C243.37 170.32 246.79 172.56 242.03 175.55C238.37 177.85 258.57 170.25 258.57 170.25V169.04L243.37 170.32Z" fill="#CEE1F2"/>
<path d="M248.13 188.58H230.84L236.91 194.76H252.96L248.13 188.58Z" fill="#00000C"/>
<path d="M223.96 188.58H206.67L212.75 194.76H228.79L223.96 188.58Z" fill="#00000C"/>
<path d="M317.9 172.45C299.73 172.45 284.66 191.87 281.9 217.27L284.91 230.58C286.01 235.48 287.5 240.25 289.59 244.63C295.87 257.78 301.71 257.35 311.21 260.31C323.52 260.31 331.86 261.56 341.56 250.38C346.6 244.56 349.98 236.85 351.64 228.55L353.9 217.28C351.14 191.88 336.07 172.46 317.9 172.46V172.45Z" fill="#E399A5"/>
<path d="M307.91 259.45C307.7 260.53 307.55 261.65 307.55 262.83V282.03C307.55 288.84 311.3 298.95 315.87 298.95H319.91C324.49 298.95 328.23 288.84 328.23 282.03V262.83C328.23 261.13 328 259.51 327.58 258.03C322.23 259.8 316.72 260.76 311.2 260.76C310.12 260.36 309.02 259.92 307.91 259.46V259.45Z" fill="#E399A5"/>
<path d="M317.9 187.77C300.39 187.77 286.2 205.42 286.2 227.2C286.2 236.46 288.79 244.96 293.08 251.69C298.89 260.78 307.83 266.63 317.89 266.63C327.95 266.63 336.99 260.71 342.8 251.54C347.04 244.83 349.59 236.4 349.59 227.21C349.59 205.43 335.4 187.78 317.89 187.78L317.9 187.77Z" fill="#F8A6B3"/>
<path d="M300.61 221.02H352.21C349.58 196.81 335.22 178.3 317.9 178.3C300.58 178.3 286.22 196.81 283.59 221.02H300.61Z" fill="#E399A5"/>
<path d="M279.35 211.82C282.24 186.26 297.98 166.72 316.98 166.72C335.98 166.72 351.72 186.26 354.61 211.82" fill="#FFE212"/>
<path d="M331.85 171.01V192.72C331.85 195.17 330.18 197.17 328.13 197.17C326.08 197.17 324.41 195.17 324.41 192.72V167.77C322.01 167.1 319.53 166.73 316.99 166.73C314.28 166.73 311.65 167.17 309.1 167.92V192.72C309.1 195.17 307.43 197.17 305.38 197.17C303.33 197.17 301.66 195.17 301.66 192.72V171.29C290.02 178.5 281.42 193.61 279.36 211.82H354.62C352.54 193.37 343.73 178.1 331.86 171.01H331.85Z" fill="#EABA10"/>
<path d="M356.93 216.27H276.56C276.09 216.27 275.7 215.88 275.7 215.41V208.21C275.7 207.74 276.09 207.35 276.56 207.35H356.93C357.4 207.35 357.79 207.74 357.79 208.21V215.41C357.79 215.88 357.4 216.27 356.93 216.27Z" fill="#FFE212"/>
<path d="M396.87 338.75L378.69 297.89C371.1 289.8 355.25 283.01 339.1 279.82L318.16 297.97L297.08 279.82C281.26 282.99 265.46 289.7 257.88 297.61L257.78 297.51L239.22 338.76H396.87V338.75Z" fill="#7696EA"/>
<path d="M335.88 305.39L339.11 279.81L331.02 274.5L318.17 297.96C318.49 297.87 335.88 305.39 335.88 305.39Z" fill="#1A468F"/>
<path d="M300.31 305.39L297.08 279.81L305.17 274.5L318.02 297.96C317.7 297.87 300.31 305.39 300.31 305.39Z" fill="#1A468F"/>
</g>
<defs>
<clipPath id="clip0_89_12729">
<rect width="396.87" height="338.75" fill="white"/>
</clipPath>
</defs>
</svg>
