<svg width="72" height="72" viewBox="0 0 72 72" fill="none" xmlns="http://www.w3.org/2000/svg">
<path d="M57 24V35.4L40.47 28.77C37.59 27.63 34.41 27.63 31.53 28.77L15 35.4V24C15 19.05 19.05 15 24 15H48C52.95 15 57 19.05 57 24Z" stroke="#A8C0FF" stroke-width="2" stroke-linecap="round" stroke-linejoin="round"/>
<path d="M43.5 15H28.5V9C28.5 7.35 29.85 6 31.5 6H40.5C42.15 6 43.5 7.35 43.5 9V15Z" stroke="#A8C0FF" stroke-width="2" stroke-linecap="round" stroke-linejoin="round"/>
<path d="M61.2593 37.11C63.8693 38.16 65.4892 41.2501 64.8892 43.9801L63.6592 49.56C61.5292 59.16 53.9992 66 43.1392 66H28.8592C17.9992 66 10.4692 59.16 8.33923 49.56L7.10922 43.9801C6.50922 41.2501 8.12919 38.16 10.7392 37.11L14.9992 35.4L31.5293 28.77C34.4093 27.63 37.5892 27.63 40.4692 28.77L56.9992 35.4L61.2593 37.11Z" stroke="#1A468F" stroke-width="2" stroke-linecap="round" stroke-linejoin="round"/>
<path d="M36 66V30" stroke="#1A468F" stroke-width="2" stroke-linecap="round" stroke-linejoin="round"/>
</svg>
