<svg width="72" height="72" viewBox="0 0 72 72" fill="none" xmlns="http://www.w3.org/2000/svg">
<path d="M17.2413 17.2386L12.2548 15.0891C11.7039 14.8515 11.0651 15.1056 10.8275 15.6565L3.08905 33.6079C2.85149 34.1588 3.10562 34.7977 3.6565 35.0352L8.64298 37.1847C9.19386 37.4223 9.83271 37.1682 10.0703 36.6173L17.8087 18.6659C18.0463 18.115 17.7922 17.4761 17.2413 17.2386Z" stroke="#1A468F" stroke-width="2" stroke-linecap="round" stroke-linejoin="round"/>
<path d="M38.9672 49.8159L40.887 51.7357C41.9472 52.796 41.9472 54.5151 40.887 55.5754C39.8268 56.6356 38.1076 56.6356 37.0474 55.5754" stroke="#1A468F" stroke-width="2" stroke-linecap="round" stroke-linejoin="round"/>
<path d="M42.0396 45.2083L45.4953 48.664C46.5555 49.7242 46.5555 51.4434 45.4953 52.5036C44.4351 53.5638 42.7159 53.5638 41.6557 52.5036L38.9678 49.8157" stroke="#1A468F" stroke-width="2" stroke-linecap="round" stroke-linejoin="round"/>
<path d="M45.1111 40.6006L50.1027 45.5922C51.163 46.6524 51.163 48.3716 50.1027 49.4319C49.0425 50.4921 47.3233 50.4921 46.2631 49.4319L42.0396 45.2083" stroke="#1A468F" stroke-width="2" stroke-linecap="round" stroke-linejoin="round"/>
<path d="M45.1112 40.6005L50.8706 46.3599C51.9308 47.4202 53.65 47.4202 54.7102 46.3599C55.7705 45.2997 55.7705 43.5805 54.7102 42.5203L48.644 36.4541L39.7427 27.5527" stroke="#1A468F" stroke-width="2" stroke-linecap="round" stroke-linejoin="round"/>
<path d="M26.2913 56.6615C25.231 55.6012 25.231 53.8821 26.2913 52.8218L30.1309 48.9822C31.1911 47.922 32.9103 47.922 33.9705 48.9822C35.0308 50.0424 35.0308 51.7616 33.9705 52.8218L30.1309 56.6615C29.0707 57.7217 27.3515 57.7217 26.2913 56.6615Z" stroke="#A8C0FF" stroke-width="2" stroke-linecap="round" stroke-linejoin="round"/>
<path d="M22.4514 52.8218C21.3912 51.7615 21.3912 50.0423 22.4514 48.9821L27.827 43.6066C28.8872 42.5463 30.6064 42.5463 31.6666 43.6066C32.7268 44.6668 32.7268 46.386 31.6666 47.4462L26.2911 52.8218C25.2308 53.882 23.5117 53.882 22.4514 52.8218Z" stroke="#A8C0FF" stroke-width="2" stroke-linecap="round" stroke-linejoin="round"/>
<path d="M27.828 39.7669C28.8876 40.8264 28.8876 42.547 27.828 43.6066L22.4525 48.9821C21.3929 50.0417 19.6724 50.0417 18.6128 48.9821C17.5533 47.9225 17.5533 46.202 18.6128 45.1424L23.9884 39.7669C25.0479 38.7073 26.7685 38.7073 27.828 39.7669Z" stroke="#A8C0FF" stroke-width="2" stroke-linecap="round" stroke-linejoin="round"/>
<path d="M14.7727 45.1423C13.7125 44.0821 13.7125 42.3629 14.7727 41.3027L18.6123 37.463C19.6726 36.4028 21.3918 36.4028 22.452 37.463C23.5122 38.5232 23.5122 40.2424 22.452 41.3027L18.6123 45.1423C17.5521 46.2025 15.8329 46.2025 14.7727 45.1423Z" stroke="#A8C0FF" stroke-width="2" stroke-linecap="round" stroke-linejoin="round"/>
<path d="M54.6182 21.8277C51.62 21.6271 48.678 20.916 45.9192 19.7252L42.3554 18.0638C41.6541 17.7369 40.8784 17.6034 40.1082 17.6767L34.0014 18.2582C33.1237 18.3419 32.317 18.7776 31.7661 19.4662L25.7433 26.9939C24.9345 27.8027 24.9345 29.1141 25.7433 29.9229C27.4793 31.6589 30.2938 31.6589 32.0298 29.9229L35.798 26.1743L36.0005 24.5077" stroke="#A8C0FF" stroke-width="2" stroke-linecap="round" stroke-linejoin="round"/>
<path d="M54.7581 19.4104L59.7445 17.2609C60.2954 17.0234 60.9343 17.2775 61.1718 17.8284L68.9106 35.7801C69.1481 36.331 68.894 36.9698 68.3431 37.2074L63.3567 39.3569C62.8058 39.5945 62.1669 39.3403 61.9293 38.7894L54.1906 20.8377C53.953 20.2869 54.2072 19.648 54.7581 19.4104Z" stroke="#A8C0FF" stroke-width="2" stroke-linecap="round" stroke-linejoin="round"/>
<path d="M17.5381 20.1636C19.6604 20.8711 21.9471 20.9208 24.0985 20.3061L26.2265 19.6982" stroke="#1A468F" stroke-width="2" stroke-linecap="round" stroke-linejoin="round"/>
<path d="M10.2803 36.1296L12.944 37.3541" stroke="#1A468F" stroke-width="2" stroke-linecap="round" stroke-linejoin="round"/>
<path d="M61.5519 38.3821L57.9971 39.9614" stroke="#A8C0FF" stroke-width="2" stroke-linecap="round" stroke-linejoin="round"/>
</svg>
