<svg width="72" height="72" viewBox="0 0 72 72" fill="none" xmlns="http://www.w3.org/2000/svg">
<path d="M27 66H21C9 66 6 63 6 51V21C6 9 9 6 21 6H25.5C30 6 30.9901 7.32004 32.7001 9.60004L37.2001 15.6C38.3401 17.1 39 18 42 18H51C63 18 66 21 66 33V39" stroke="#1A468F" stroke-width="2" stroke-miterlimit="10" stroke-linecap="round" stroke-linejoin="round"/>
<path d="M41.2802 54.9601C34.2302 55.4701 34.2302 65.67 41.2802 66.18H57.9602C59.9702 66.18 61.9502 65.43 63.4202 64.08C68.3702 59.76 65.7301 51.12 59.2201 50.31C56.8801 36.24 36.5402 41.58 41.3402 54.99" stroke="#A8C0FF" stroke-width="2" stroke-miterlimit="10" stroke-linecap="round" stroke-linejoin="round"/>
</svg>
