<svg width="72" height="72" viewBox="0 0 72 72" fill="none" xmlns="http://www.w3.org/2000/svg">
<path d="M28.5 41.25C28.5 44.16 30.75 46.5 33.51 46.5H39.15C41.55 46.5 43.5 44.46 43.5 41.91C43.5 39.18 42.3 38.19 40.53 37.56L31.5 34.41C29.73 33.78 28.53 32.82 28.53 30.06C28.53 27.54 30.48 25.47 32.88 25.47H38.52C41.28 25.47 43.53 27.81 43.53 30.72" stroke="#1A468F" stroke-width="2" stroke-linecap="round" stroke-linejoin="round"/>
<path d="M36 22.5V49.5" stroke="#1A468F" stroke-width="2" stroke-linecap="round" stroke-linejoin="round"/>
<path d="M66 36C66 52.56 52.56 66 36 66C19.44 66 6 52.56 6 36C6 19.44 19.44 6 36 6" stroke="#A8C0FF" stroke-width="2" stroke-linecap="round" stroke-linejoin="round"/>
<path d="M51 9V21H63" stroke="#1A468F" stroke-width="2" stroke-linecap="round" stroke-linejoin="round"/>
<path d="M66 6L51 21" stroke="#1A468F" stroke-width="2" stroke-linecap="round" stroke-linejoin="round"/>
</svg>
