<svg width="32" height="32" viewBox="0 0 32 32" fill="none" xmlns="http://www.w3.org/2000/svg">
<rect width="32" height="32" rx="4" fill="#2C9B43"/>
<path d="M11.497 23.7182C11.497 24.4005 11.226 25.0549 10.7435 25.5374C10.261 26.0199 9.60664 26.2909 8.9243 26.2909C8.24197 26.2909 7.58758 26.0199 7.1051 25.5374C6.62262 25.0549 6.35156 24.4005 6.35156 23.7182C6.35156 23.0358 6.62262 22.3815 7.1051 21.899C7.58758 21.4165 8.24197 21.1454 8.9243 21.1454M11.497 23.7182C11.497 23.0358 11.226 22.3815 10.7435 21.899C10.261 21.4165 9.60664 21.1454 8.9243 21.1454M11.497 23.7182H19.2153C19.8976 23.7182 20.552 23.4471 21.0345 22.9646C21.517 22.4822 21.788 21.8278 21.788 21.1454V14.7136M8.9243 21.1454V10.8545M8.9243 10.8545C8.24197 10.8545 7.58758 10.5834 7.1051 10.1009C6.62262 9.61845 6.35156 8.96406 6.35156 8.28173C6.35156 7.59939 6.62262 6.94501 7.1051 6.46252C7.58758 5.98004 8.24197 5.70898 8.9243 5.70898C9.60664 5.70898 10.261 5.98004 10.7435 6.46252C11.226 6.94501 11.497 7.59939 11.497 8.28173C11.497 8.96406 11.226 9.61845 10.7435 10.1009C10.261 10.5834 9.60664 10.8545 8.9243 10.8545ZM21.788 14.7136L17.9289 18.5727M21.788 14.7136L25.6471 18.5727M19.2153 8.28173C19.2153 8.96406 19.4863 9.61845 19.9688 10.1009C20.4513 10.5834 21.1057 10.8545 21.788 10.8545C22.4703 10.8545 23.1247 10.5834 23.6072 10.1009C24.0897 9.61845 24.3608 8.96406 24.3608 8.28173C24.3608 7.59939 24.0897 6.94501 23.6072 6.46252C23.1247 5.98004 22.4703 5.70898 21.788 5.70898C21.1057 5.70898 20.4513 5.98004 19.9688 6.46252C19.4863 6.94501 19.2153 7.59939 19.2153 8.28173Z" stroke="white" stroke-width="1.5" stroke-linecap="round" stroke-linejoin="round"/>
</svg>
