<svg width="32" height="32" viewBox="0 0 32 32" fill="none" xmlns="http://www.w3.org/2000/svg">
<rect width="32" height="32" rx="4" fill="#2C9B43"/>
<path d="M14.8889 24.7778H8.22222C6.99492 24.7778 6 23.7829 6 22.5556C6 21.3283 6.99492 20.3333 8.22222 20.3333M14.8889 24.7778C16.1162 24.7778 17.1111 23.7829 17.1111 22.5556C17.1111 21.3283 16.1162 20.3333 14.8889 20.3333M14.8889 24.7778H23.7778C25.0051 24.7778 26 23.7829 26 22.5556C26 21.3283 25.0051 20.3333 23.7778 20.3333M14.8889 20.3333H8.22222M14.8889 20.3333H23.7778M14.8889 20.3333C16.1162 20.3333 17.1111 19.3384 17.1111 18.1111C17.1111 16.8838 16.1162 15.8889 14.8889 15.8889M8.22222 20.3333C6.99492 20.3333 6 19.3384 6 18.1111C6 16.8838 6.99492 15.8889 8.22222 15.8889M23.7778 20.3333C25.0051 20.3333 26 19.3384 26 18.1111C26 16.8838 25.0051 15.8889 23.7778 15.8889M14.8889 15.8889H23.7778M14.8889 15.8889H8.22222M14.8889 15.8889C16.1162 15.8889 17.1111 14.894 17.1111 13.6667C17.1111 12.4394 16.1162 11.4444 14.8889 11.4444M23.7778 15.8889C25.0051 15.8889 26 14.894 26 13.6667C26 12.4394 25.0051 11.4444 23.7778 11.4444H14.8889M14.8889 11.4444H8.22222M14.8889 11.4444C16.1162 11.4444 17.1111 10.4495 17.1111 9.22222C17.1111 7.99492 16.1162 7 14.8889 7H8.22222C6.99492 7 6 7.99492 6 9.22222C6 10.4495 6.99492 11.4444 8.22222 11.4444M8.22222 15.8889C6.99492 15.8889 6 14.894 6 13.6667C6 12.4394 6.99492 11.4444 8.22222 11.4444" stroke="white" stroke-width="1.5" stroke-linecap="round" stroke-linejoin="round"/>
</svg>
