<svg width="32" height="32" viewBox="0 0 32 32" fill="none" xmlns="http://www.w3.org/2000/svg">
<rect width="32" height="32" rx="4" fill="#2C9B43"/>
<path d="M11.498 23.7182C11.498 24.4005 11.227 25.0549 10.7445 25.5374C10.262 26.0199 9.60761 26.2909 8.92528 26.2909C8.24295 26.2909 7.58856 26.0199 7.10608 25.5374C6.62359 25.0549 6.35254 24.4005 6.35254 23.7182C6.35254 23.0358 6.62359 22.3815 7.10608 21.899C7.58856 21.4165 8.24295 21.1454 8.92528 21.1454M11.498 23.7182C11.498 23.0358 11.227 22.3815 10.7445 21.899C10.262 21.4165 9.60761 21.1454 8.92528 21.1454M11.498 23.7182H19.2162C19.8986 23.7182 20.553 23.4471 21.0355 22.9646C21.5179 22.4822 21.789 21.8278 21.789 21.1454V14.7136M8.92528 21.1454V10.8545M8.92528 10.8545C8.24295 10.8545 7.58856 10.5834 7.10608 10.1009C6.62359 9.61845 6.35254 8.96406 6.35254 8.28173C6.35254 7.59939 6.62359 6.94501 7.10608 6.46252C7.58856 5.98004 8.24295 5.70898 8.92528 5.70898C9.60761 5.70898 10.262 5.98004 10.7445 6.46252C11.227 6.94501 11.498 7.59939 11.498 8.28173C11.498 8.96406 11.227 9.61845 10.7445 10.1009C10.262 10.5834 9.60761 10.8545 8.92528 10.8545ZM21.789 14.7136L17.9299 18.5727M21.789 14.7136L25.6481 18.5727M19.2162 8.28173C19.2162 8.96406 19.4873 9.61845 19.9698 10.1009C20.4523 10.5834 21.1067 10.8545 21.789 10.8545C22.4713 10.8545 23.1257 10.5834 23.6082 10.1009C24.0907 9.61845 24.3617 8.96406 24.3617 8.28173C24.3617 7.59939 24.0907 6.94501 23.6082 6.46252C23.1257 5.98004 22.4713 5.70898 21.789 5.70898C21.1067 5.70898 20.4523 5.98004 19.9698 6.46252C19.4873 6.94501 19.2162 7.59939 19.2162 8.28173Z" stroke="white" stroke-width="1.5" stroke-linecap="round" stroke-linejoin="round"/>
</svg>
