<svg width="140" height="61" viewBox="0 0 140 61" fill="none" xmlns="http://www.w3.org/2000/svg">
<path d="M86.6224 33.5129V18.4131C86.6224 17.5434 86.5493 16.681 86.4033 15.8259C86.2572 14.9707 85.9943 14.2179 85.6146 13.5675C85.2348 12.9097 84.709 12.3762 84.0371 11.9596C83.3652 11.543 82.5181 11.331 81.5029 11.331C80.2687 11.331 79.2755 11.5941 78.5379 12.1203C77.793 12.6466 77.2306 13.319 76.8509 14.1375C76.4711 14.9561 76.2228 15.8843 76.1132 16.9149C76.0037 17.9527 75.9526 18.9613 75.9526 19.9407V33.5129H69.4163V18.4131C69.4163 17.5069 69.3287 16.6225 69.1461 15.7674C68.9635 14.9123 68.6714 14.1595 68.2771 13.509C67.8754 12.8512 67.3276 12.325 66.6119 11.9303C65.9035 11.5283 65.0418 11.331 64.0267 11.331C62.829 11.331 61.8796 11.6014 61.1931 12.1496C60.4993 12.6977 59.9881 13.3848 59.6375 14.2179C59.2943 15.0511 59.0752 15.9793 58.9875 16.9952C58.8926 18.0112 58.8488 18.9905 58.8488 19.9407V33.5129H52.3125V6.25877H58.301V8.60486C59.2066 7.40624 60.2729 6.55843 61.4852 6.06874C62.7048 5.57906 64.0558 5.33057 65.5457 5.33057C67.1816 5.33057 68.6641 5.70331 70.0079 6.4488C71.3517 7.19428 72.4617 8.26135 73.3308 9.63539C74.3824 8.10787 75.6459 7.01157 77.1211 6.33917C78.589 5.66677 80.2541 5.33057 82.1018 5.33057C83.9495 5.33057 85.6365 5.63753 87.0314 6.25877C88.4262 6.88001 89.5801 7.72782 90.493 8.82412C91.3986 9.91312 92.0705 11.2141 92.5087 12.7197C92.9469 14.2253 93.1586 15.8697 93.1586 17.653V33.5129H86.6224Z" fill="#231F20"/>
<path d="M140 19.7797C140 21.7019 139.664 23.5583 138.992 25.3417C138.32 27.125 137.378 28.689 136.159 30.0338C134.939 31.3786 133.5 32.453 131.828 33.2497C130.155 34.0463 128.322 34.4483 126.329 34.4483C125.423 34.4483 124.598 34.3825 123.853 34.2583C123.108 34.134 122.407 33.9294 121.757 33.659C121.107 33.3885 120.479 33.0231 119.88 32.57C119.281 32.1168 118.653 31.576 118.003 30.962V42.6267H111.467V6.25865H117.455V9.47448C118.58 8.05659 119.895 7.01144 121.406 6.33904C122.911 5.66664 124.576 5.33044 126.387 5.33044C128.381 5.33044 130.221 5.72511 131.886 6.49984C133.559 7.28187 134.99 8.32701 136.188 9.63527C137.385 10.9435 138.32 12.471 138.992 14.2178C139.664 15.9646 140 17.8137 140 19.7797ZM133.464 19.8894C133.464 18.8004 133.274 17.7333 132.887 16.7028C132.507 15.6649 131.959 14.7514 131.251 13.9474C130.542 13.1507 129.71 12.5149 128.746 12.0398C127.782 11.5648 126.723 11.3309 125.562 11.3309C124.401 11.3309 123.327 11.5648 122.348 12.0398C121.37 12.5149 120.523 13.1361 119.814 13.9182C119.106 14.7002 118.551 15.6065 118.156 16.6443C117.755 17.6821 117.558 18.7638 117.558 19.8894C117.558 21.0149 117.747 22.0966 118.127 23.1344C118.507 24.1723 119.055 25.0785 119.763 25.8606C120.472 26.6426 121.319 27.2712 122.297 27.7389C123.276 28.214 124.349 28.4479 125.511 28.4479C126.672 28.4479 127.731 28.214 128.695 27.7389C129.659 27.2638 130.491 26.6426 131.2 25.8606C131.908 25.0785 132.463 24.1723 132.858 23.1344C133.259 22.0966 133.456 21.0149 133.456 19.8894H133.464Z" fill="#231F20"/>
<path d="M105.523 10.2423V6.25903H98.9863V14.4594L105.523 10.2423Z" fill="#31AA49"/>
<path d="M98.9863 16.5346V33.5127H105.523V12.3175L98.9863 16.5346Z" fill="#231F20"/>
<path d="M0 50.1619V51.0755L46.1335 28.8936V27.9873L0 50.1619Z" fill="#231F20"/>
<path opacity="0.8" d="M0 51.9817V52.8953L46.1335 30.7207V29.8071L0 51.9817Z" fill="#231F20"/>
<path opacity="0.6" d="M0 53.8093V54.7229L46.1335 32.541V31.6348L0 53.8093Z" fill="#231F20"/>
<path opacity="0.4" d="M0 55.6292V56.5428L46.1335 34.3682V33.4546L0 55.6292Z" fill="#231F20"/>
<path opacity="0.2" d="M0 57.4558V58.3621L46.1335 36.1875V35.2812L0 57.4558Z" fill="#231F20"/>
<path opacity="0.1" d="M0 59.2757V60.1892L46.1335 38.0147V37.1011L0 59.2757Z" fill="#231F20"/>
<path d="M36.939 0.930649H4.15545C1.8915 0.930649 0.0511046 2.77244 0.0511046 5.03814L0 49.2558L46.1262 27.0885L46.1774 10.1688C46.1774 5.06737 42.0438 0.92334 36.939 0.92334V0.930649ZM25.6484 30.3555L20.4705 32.9866V21.2488L25.6484 16.1327V30.3555ZM40.0647 23.0906L34.434 25.9191V18.5885C34.434 17.9014 34.2003 17.3167 33.7256 16.8417C33.2509 16.3666 32.6886 16.1254 32.0459 16.1254H11.6703V37.3791L6.10536 40.1784V11.024H32.2358C33.3093 11.024 34.3245 11.2286 35.2739 11.6379C36.2233 12.0472 37.0558 12.6099 37.7642 13.3189C38.4726 14.0351 39.0349 14.8537 39.4439 15.7819C39.8529 16.7101 40.0574 17.7187 40.0574 18.7931V23.0979L40.0647 23.0906Z" fill="#231F20"/>
</svg>
