<svg width="30" height="31" viewBox="0 0 30 31" fill="none" xmlns="http://www.w3.org/2000/svg">
<rect x="0.5" y="0.689453" width="29" height="29" rx="3.5" stroke="#DCDCE0"/>
<g clip-path="url(#clip0_1_1588)">
<path d="M7.5 18.8506C7.5 16.4095 7.5 13.9683 7.5 11.5272C7.52443 11.3739 7.53998 11.2183 7.57441 11.0672C7.95646 9.36834 8.9849 8.27834 10.663 7.81168C10.8818 7.75168 11.1117 7.72945 11.3361 7.68945C13.7761 7.68945 16.2161 7.68945 18.6562 7.68945C18.7039 7.69834 18.7506 7.71056 18.7983 7.71501C19.2081 7.76056 19.6091 7.85056 19.9811 8.02723C21.5915 8.78945 22.46 10.065 22.4845 11.8483C22.5155 14.0739 22.4933 16.3006 22.4911 18.5272C22.4911 19.3895 22.2579 20.1895 21.757 20.8928C20.9074 22.085 19.7379 22.6828 18.2741 22.6872C16.0884 22.6928 13.9016 22.6917 11.7159 22.685C11.4349 22.685 11.1462 22.6695 10.8729 22.6095C9.17592 22.235 8.08974 21.2017 7.62328 19.525C7.56219 19.305 7.53998 19.075 7.5 18.8506ZM21.1628 15.1917C21.1628 14.1083 21.1628 13.0239 21.1628 11.9406C21.1628 11.5972 21.1284 11.2583 21.0129 10.9328C20.5897 9.74056 19.5624 9.02168 18.2663 9.02056C16.0851 9.01834 13.9049 9.0139 11.7237 9.02612C11.3972 9.02834 11.0562 9.07279 10.7474 9.17612C9.54909 9.57834 8.83163 10.6183 8.83052 11.9139C8.82719 14.0961 8.82941 16.2772 8.83052 18.4595C8.83052 18.7972 8.86828 19.1306 8.98267 19.4517C9.40582 20.6328 10.4231 21.3528 11.7037 21.3561C13.8994 21.3617 16.0951 21.3606 18.2908 21.3561C19.2737 21.3539 20.0666 20.9606 20.6464 20.1617C21.0151 19.655 21.1639 19.0772 21.1628 18.455C21.1617 17.3661 21.1628 16.2783 21.1628 15.1895V15.1917Z" fill="#1F2933"/>
<path d="M18.8605 15.1909C18.8583 17.3153 17.1102 19.0609 14.9912 19.0542C12.8643 19.0476 11.1218 17.2976 11.1329 15.1798C11.144 13.0542 12.8754 11.3264 14.9945 11.3242C17.1158 11.322 18.8617 13.0698 18.8594 15.1909H18.8605ZM14.9945 17.7209C16.3872 17.7253 17.5245 16.5898 17.5278 15.192C17.5311 13.7987 16.3972 12.6609 15 12.6576C13.6073 12.6542 12.4712 13.7876 12.4667 15.1864C12.4634 16.5798 13.5962 17.7164 14.9945 17.7209Z" fill="#1F2933"/>
<path d="M19.0446 10.2007C19.581 10.2162 20.0141 10.664 19.9986 11.1851C19.9819 11.7351 19.531 12.1607 18.9868 12.1418C18.4637 12.124 18.0328 11.6718 18.0472 11.1562C18.0628 10.6129 18.5092 10.1851 19.0446 10.1996V10.2007Z" fill="#1F2933"/>
</g>
<defs>
<clipPath id="clip0_1_1588">
<rect width="15" height="15" fill="white" transform="translate(7.5 7.68945)"/>
</clipPath>
</defs>
</svg>
