<svg width="256" height="380" viewBox="0 0 256 380" fill="none" xmlns="http://www.w3.org/2000/svg">
<g filter="url(#filter0_d_1_1345)">
<rect x="45.4395" y="165.891" width="159" height="40" rx="8" fill="white"/>
<path d="M67.6064 176.141V180.474C67.6064 180.761 67.7206 181.037 67.9237 181.24C68.1269 181.443 68.4025 181.557 68.6898 181.557H73.0231M67.6064 176.141H60.0231C59.4485 176.141 58.8974 176.369 58.491 176.775C58.0847 177.182 57.8564 177.733 57.8564 178.307V193.474C57.8564 194.049 58.0847 194.6 58.491 195.006C58.8974 195.412 59.4485 195.641 60.0231 195.641H70.8564C71.4311 195.641 71.9822 195.412 72.3885 195.006C72.7948 194.6 73.0231 194.049 73.0231 193.474V181.557M67.6064 176.141L73.0231 181.557" stroke="#687076" stroke-width="1.5" stroke-linecap="round" stroke-linejoin="round"/>
<path d="M120.747 187.481H116.645V191.891H115.637V181.867H121.545V182.791H116.645V186.571H120.747V187.481ZM123.505 183.253C123.113 183.253 122.791 182.931 122.791 182.539C122.791 182.147 123.113 181.811 123.505 181.811C123.897 181.811 124.233 182.147 124.233 182.539C124.233 182.931 123.897 183.253 123.505 183.253ZM123.029 191.891V185.115H123.995V191.891H123.029ZM127.017 191.891H126.051V181.685H127.017V191.891ZM131.913 192.059C129.925 192.059 128.595 190.631 128.595 188.503C128.595 186.389 129.911 184.933 131.843 184.933C133.677 184.933 134.923 186.235 134.923 188.153V188.629H129.533C129.603 190.281 130.471 191.233 131.927 191.233C133.033 191.233 133.747 190.757 133.999 189.861H134.923C134.559 191.289 133.509 192.059 131.913 192.059ZM131.843 185.759C130.569 185.759 129.729 186.599 129.561 187.929H133.957C133.957 186.627 133.117 185.759 131.843 185.759Z" fill="#687076"/>
<rect x="45.4395" y="165.891" width="159" height="40" rx="8" stroke="#C1C8CD"/>
<circle cx="204.439" cy="185.891" r="5" fill="#C1C8CD"/>
<circle cx="45.4395" cy="185.891" r="5" fill="#C1C8CD"/>
</g>
<g filter="url(#filter1_d_1_1345)">
<circle cx="37.4395" cy="34.8906" r="30" fill="white" stroke="#C1C8CD"/>
<circle cx="67.4395" cy="34.8906" r="5" fill="#C1C8CD"/>
<path d="M33.1061 31.6408H41.7728M33.1061 35.9741H39.6061M37.4395 44.6408L34.1895 41.3908H30.9395C30.0775 41.3908 29.2508 41.0484 28.6414 40.4389C28.0319 39.8294 27.6895 39.0027 27.6895 38.1408V29.4741C27.6895 28.6122 28.0319 27.7855 28.6414 27.176C29.2508 26.5665 30.0775 26.2241 30.9395 26.2241H43.9395C44.8014 26.2241 45.6281 26.5665 46.2376 27.176C46.847 27.7855 47.1895 28.6122 47.1895 29.4741V35.9741M41.7728 45.7241L47.1895 40.3075M47.1895 40.3075V45.1825M47.1895 40.3075H42.3145" stroke="#687076" stroke-width="1.5" stroke-linecap="round" stroke-linejoin="round"/>
</g>
<g filter="url(#filter2_d_1_1345)">
<circle cx="213.439" cy="336.891" r="30" fill="white" stroke="#C1C8CD"/>
<circle cx="183.439" cy="336.891" r="5" fill="#C1C8CD"/>
<path d="M209.106 333.641H217.773M209.106 337.974H215.606M213.413 344.056L209.106 346.641V343.391H206.939C206.077 343.391 205.251 343.048 204.641 342.439C204.032 341.829 203.689 341.003 203.689 340.141V331.474C203.689 330.612 204.032 329.786 204.641 329.176C205.251 328.567 206.077 328.224 206.939 328.224H219.939C220.801 328.224 221.628 328.567 222.238 329.176C222.847 329.786 223.189 330.612 223.189 331.474V340.141M217.773 344.474H224.273" stroke="#687076" stroke-width="1.5" stroke-linecap="round" stroke-linejoin="round"/>
</g>
<path d="M67.8244 33.9741C67.3177 33.7544 66.7288 33.9872 66.5092 34.4939C66.2896 35.0007 66.5223 35.5895 67.0291 35.8091L67.8244 33.9741ZM40.8178 186.81C41.3248 186.591 41.5582 186.002 41.3391 185.495L37.7691 177.233C37.5501 176.726 36.9615 176.493 36.4545 176.712C35.9475 176.931 35.7141 177.52 35.9332 178.027L39.1065 185.37L31.7628 188.544C31.2558 188.763 31.0224 189.351 31.2415 189.858C31.4605 190.365 32.0491 190.599 32.5561 190.38L40.8178 186.81ZM67.0291 35.8091C83.4295 42.9172 92.8942 49.647 97.3627 56.0026C99.5801 59.1563 100.553 62.198 100.56 65.1531C100.567 68.1163 99.6017 71.0802 97.7962 74.0693C94.1642 80.082 87.2327 86.0343 78.5409 91.9949C69.8701 97.9411 59.5732 103.814 49.3111 109.711C39.0691 115.597 28.8611 121.508 20.4466 127.499C12.0587 133.471 5.30873 139.621 2.12809 146.033C0.525367 149.264 -0.185878 152.59 0.28239 155.996C0.750245 159.4 2.38275 162.79 5.31065 166.174C11.1367 172.907 22.2063 179.745 40.0525 186.821L40.7897 184.962C23.0147 177.914 12.3221 171.22 6.82305 164.865C4.0884 161.705 2.66763 158.662 2.26376 155.724C1.86029 152.789 2.45885 149.866 3.91975 146.921C6.86633 140.981 13.2588 135.072 21.6067 129.128C29.928 123.204 40.0491 117.341 50.3076 111.445C60.5461 105.562 70.9212 99.6454 79.672 93.6443C88.4016 87.6578 95.6413 81.5047 99.5081 75.1034C101.452 71.8855 102.568 68.5653 102.56 65.1485C102.552 61.7236 101.415 58.2892 98.9988 54.8523C94.1995 48.0263 84.3022 41.1157 67.8244 33.9741L67.0291 35.8091Z" fill="#CACACA"/>
<path d="M182.176 337.808C182.682 338.028 183.271 337.795 183.491 337.288C183.71 336.782 183.478 336.193 182.971 335.973L182.176 337.808ZM209.182 184.973C208.675 185.192 208.442 185.78 208.661 186.287L212.231 194.549C212.45 195.056 213.039 195.289 213.545 195.07C214.052 194.851 214.286 194.263 214.067 193.756L210.894 186.412L218.237 183.239C218.744 183.019 218.978 182.431 218.759 181.924C218.539 181.417 217.951 181.184 217.444 181.403L209.182 184.973ZM182.971 335.973C166.571 328.865 157.106 322.135 152.637 315.78C150.42 312.626 149.447 309.584 149.44 306.629C149.433 303.666 150.398 300.702 152.204 297.713C155.836 291.7 162.767 285.748 171.459 279.787C180.13 273.841 190.427 267.968 200.689 262.071C210.931 256.185 221.139 250.274 229.553 244.283C237.941 238.311 244.691 232.161 247.872 225.75C249.475 222.519 250.186 219.192 249.718 215.786C249.25 212.383 247.617 208.992 244.689 205.609C238.863 198.876 227.794 192.038 209.947 184.961L209.21 186.82C226.985 193.869 237.678 200.562 243.177 206.917C245.912 210.078 247.332 213.12 247.736 216.058C248.14 218.993 247.541 221.916 246.08 224.861C243.134 230.801 236.741 236.71 228.393 242.654C220.072 248.579 209.951 254.441 199.692 260.337C189.454 266.221 179.079 272.137 170.328 278.138C161.598 284.124 154.359 290.278 150.492 296.679C148.548 299.897 147.432 303.217 147.44 306.634C147.448 310.059 148.585 313.493 151.001 316.93C155.8 323.756 165.698 330.667 182.176 337.808L182.971 335.973Z" fill="#CACACA"/>
<defs>
<filter id="filter0_d_1_1345" x="36.4395" y="160.891" width="185" height="58" filterUnits="userSpaceOnUse" color-interpolation-filters="sRGB">
<feFlood flood-opacity="0" result="BackgroundImageFix"/>
<feColorMatrix in="SourceAlpha" type="matrix" values="0 0 0 0 0 0 0 0 0 0 0 0 0 0 0 0 0 0 127 0" result="hardAlpha"/>
<feOffset dx="4" dy="4"/>
<feGaussianBlur stdDeviation="4"/>
<feComposite in2="hardAlpha" operator="out"/>
<feColorMatrix type="matrix" values="0 0 0 0 0.554051 0 0 0 0 0.554051 0 0 0 0 0.554051 0 0 0 0.25 0"/>
<feBlend mode="normal" in2="BackgroundImageFix" result="effect1_dropShadow_1_1345"/>
<feBlend mode="normal" in="SourceGraphic" in2="effect1_dropShadow_1_1345" result="shape"/>
</filter>
<filter id="filter1_d_1_1345" x="2.93945" y="0.390625" width="81.5" height="77" filterUnits="userSpaceOnUse" color-interpolation-filters="sRGB">
<feFlood flood-opacity="0" result="BackgroundImageFix"/>
<feColorMatrix in="SourceAlpha" type="matrix" values="0 0 0 0 0 0 0 0 0 0 0 0 0 0 0 0 0 0 127 0" result="hardAlpha"/>
<feOffset dx="4" dy="4"/>
<feGaussianBlur stdDeviation="4"/>
<feComposite in2="hardAlpha" operator="out"/>
<feColorMatrix type="matrix" values="0 0 0 0 0.554051 0 0 0 0 0.554051 0 0 0 0 0.554051 0 0 0 0.25 0"/>
<feBlend mode="normal" in2="BackgroundImageFix" result="effect1_dropShadow_1_1345"/>
<feBlend mode="normal" in="SourceGraphic" in2="effect1_dropShadow_1_1345" result="shape"/>
</filter>
<filter id="filter2_d_1_1345" x="174.439" y="302.391" width="81.5" height="77" filterUnits="userSpaceOnUse" color-interpolation-filters="sRGB">
<feFlood flood-opacity="0" result="BackgroundImageFix"/>
<feColorMatrix in="SourceAlpha" type="matrix" values="0 0 0 0 0 0 0 0 0 0 0 0 0 0 0 0 0 0 127 0" result="hardAlpha"/>
<feOffset dx="4" dy="4"/>
<feGaussianBlur stdDeviation="4"/>
<feComposite in2="hardAlpha" operator="out"/>
<feColorMatrix type="matrix" values="0 0 0 0 0.554051 0 0 0 0 0.554051 0 0 0 0 0.554051 0 0 0 0.25 0"/>
<feBlend mode="normal" in2="BackgroundImageFix" result="effect1_dropShadow_1_1345"/>
<feBlend mode="normal" in="SourceGraphic" in2="effect1_dropShadow_1_1345" result="shape"/>
</filter>
</defs>
</svg>
