<svg width="30" height="31" viewBox="0 0 30 31" fill="none" xmlns="http://www.w3.org/2000/svg">
<rect x="0.5" y="0.689453" width="29" height="29" rx="3.5" stroke="#DCDCE0"/>
<path fill-rule="evenodd" clip-rule="evenodd" d="M8.02449 15.3234V22.1895H11.2826V12.846H8.02449V15.3234ZM21.9204 15.7069C21.706 13.9417 20.9037 12.846 18.5153 12.846C17.119 12.846 16.1758 13.3634 15.7839 14.106H15.741V12.846H13.1443V22.1895H15.8574V17.5451C15.8574 16.3277 16.1023 15.153 17.5905 15.153C19.0787 15.153 19.2012 16.5408 19.2012 17.6303V22.1895H22V17.046C22.001 16.5984 21.9744 16.1512 21.9204 15.7069ZM9.65353 8.1895C9.32866 8.18709 9.01039 8.28056 8.73901 8.45807C8.46763 8.63558 8.25535 8.88915 8.12907 9.18665C8.00279 9.48416 7.96818 9.81222 8.02962 10.1293C8.09107 10.4464 8.2458 10.7382 8.47423 10.9678C8.70266 11.1974 8.99451 11.3544 9.31282 11.419C9.63112 11.4837 9.96156 11.453 10.2623 11.3308C10.563 11.2086 10.8205 11.0005 11.0021 10.7328C11.1837 10.4651 11.2814 10.1498 11.2826 9.82688C11.285 9.61273 11.2447 9.40022 11.1639 9.20166C11.0831 9.00311 10.9635 8.82246 10.812 8.67017C10.6605 8.51788 10.4801 8.39698 10.2812 8.31447C10.0824 8.23196 9.86901 8.18948 9.65353 8.1895Z" fill="#1F2933"/>
</svg>
