<svg width="60" height="78" viewBox="0 0 60 78" fill="none" xmlns="http://www.w3.org/2000/svg">
<path d="M0 64.9222V66.1083L59.943 37.3182V36.1321L0 64.9222Z" fill="#231F20"/>
<path opacity="0.8" d="M0 67.2947V68.4808L59.943 39.6812V38.5046L0 67.2947Z" fill="#231F20"/>
<path opacity="0.6" d="M0 69.6573V70.8434L59.943 42.0533V40.8672L0 69.6573Z" fill="#231F20"/>
<path opacity="0.4" d="M0 72.0298V73.2064L59.943 44.4163V43.2396L0 72.0298Z" fill="#231F20"/>
<path opacity="0.2" d="M0 74.3924V75.5786L59.943 46.7884V45.6023L0 74.3924Z" fill="#231F20"/>
<path opacity="0.1" d="M0 76.7645V77.9412L59.943 49.151V47.9649L0 76.7645Z" fill="#231F20"/>
<path d="M47.9962 1.00326H5.39934C2.44821 1.00326 0.0664242 3.39453 0.0664242 6.33617L0 63.7456L59.9336 34.965L60 12.9976C60 6.37413 54.6291 0.993774 47.9962 0.993774V1.00326ZM33.326 39.2066L26.5981 42.6227V27.3831L33.326 20.7407V39.2066ZM52.0576 29.7744L44.7414 33.4467V23.9291C44.7414 23.0371 44.4378 22.278 43.821 21.6612C43.2042 21.0444 42.4735 20.7312 41.6385 20.7312H15.1637V48.3257L7.93294 51.9601V14.1078H41.8947C43.2896 14.1078 44.6086 14.3735 45.8422 14.9049C47.0758 15.4363 48.1575 16.1669 49.078 17.0874C49.9984 18.0173 50.7291 19.0801 51.2605 20.2852C51.7919 21.4904 52.0576 22.7999 52.0576 24.1948V29.7839V29.7744Z" fill="#231F20"/>
</svg>
