<svg width="32" height="32" viewBox="0 0 32 32" fill="none" xmlns="http://www.w3.org/2000/svg">
<rect width="32" height="32" rx="4" fill="#2C9B43"/>
<path d="M21.3327 14.6667H18.666M21.3327 21.3333H18.666M10.666 14.6667L11.9993 16L14.666 13.3333M10.666 21.3333L11.9993 22.6667L14.666 20M21.3327 6.66667C23.5418 6.66667 25.3327 8.45753 25.3327 10.6667V21.6C25.3327 23.8402 25.3327 24.9603 24.8967 25.816C24.5132 26.5686 23.9013 27.1805 23.1486 27.564C22.293 28 21.1729 28 18.9327 28H13.066C10.8258 28 9.7057 28 8.85005 27.564C8.09741 27.1805 7.48548 26.5686 7.10199 25.816C6.66602 24.9603 6.66602 23.8402 6.66602 21.6V10.6667C6.66602 8.45753 8.45688 6.66667 10.666 6.66667M10.666 9.33333H21.3327V6.27614C21.3327 5.67247 21.0929 5.09353 20.666 4.66667C20.2392 4.23981 19.6602 4 19.0565 4H12.9422C12.3385 4 11.7595 4.23981 11.3327 4.66667C10.9058 5.09353 10.666 5.67247 10.666 6.27614V9.33333Z" stroke="white" stroke-width="1.5" stroke-linecap="round" stroke-linejoin="round"/>
</svg>
