<svg width="81" height="29" viewBox="0 0 81 29" fill="none" xmlns="http://www.w3.org/2000/svg">
<g clip-path="url(#clip0_1_1308)">
<path d="M2.84067 8.02777C4.62328 8.02777 5.08796 7.59733 8.01213 7.59733C10.1878 7.59733 10.8299 7.95574 10.8299 9.06701V10.5013H6.1573C0.91474 10.5013 0.0234375 12.2219 0.0234375 16.1645C0.0234375 21.0389 1.69967 21.7929 7.6555 21.7929C13.22 21.7929 15.217 21.0389 15.217 16.308V9.56891C15.217 5.19642 13.7183 3.51067 8.19128 3.51067C1.77077 3.51067 1.09334 4.1915 1.09334 6.02073C1.09334 7.16801 1.55634 8.02777 2.84067 8.02777ZM10.8299 16.5235C10.8299 17.4913 9.97389 17.8137 7.61966 17.8137C5.05213 17.8137 4.33886 17.3832 4.33886 16.0576C4.33886 14.5519 4.8377 14.3004 7.01389 14.3004H10.8299V16.5235ZM35.689 7.70536C38.2576 7.70536 38.6495 8.20726 38.6495 11.4685V19.6767C38.6495 21.0029 39.6125 21.5408 40.8252 21.5408C42.0389 21.5408 43.0366 21.0029 43.0366 19.6767V11.0752C43.0366 4.40756 41.2535 3.51067 35.689 3.51067C33.4775 3.51067 31.6232 4.01313 30.4822 4.6225C29.269 3.97768 27.6292 3.51067 25.3461 3.51067C19.7827 3.51067 17.999 4.40756 17.999 11.0752V19.6767C17.999 21.0029 18.9983 21.5408 20.2104 21.5408C21.4231 21.5408 22.3861 21.0029 22.3861 19.6767V11.4685C22.3861 8.20726 22.778 7.70536 25.3461 7.70536C27.7367 7.70536 28.3066 8.20726 28.3066 10.6447V19.6767C28.3066 21.0029 29.3054 21.5408 30.5181 21.5408C31.7302 21.5408 32.729 21.0029 32.729 19.6767V11.0752C32.729 8.20726 33.2284 7.70479 35.689 7.70479M48.6666 8.02777C50.4492 8.02777 50.9128 7.59733 53.8381 7.59733C56.0131 7.59733 56.6542 7.95574 56.6542 9.06701V10.5013H51.9832C46.7396 10.5013 45.8471 12.2219 45.8471 16.1645C45.8471 21.0389 47.525 21.7929 53.4809 21.7929C59.0448 21.7929 61.0418 21.0389 61.0418 16.308V9.56891C61.0418 5.19642 59.5442 3.51067 54.0155 3.51067C47.5962 3.51067 46.9182 4.1915 46.9182 6.02073C46.9182 7.16801 47.3823 8.02777 48.6666 8.02777ZM56.5534 16.5235C56.5534 17.4913 55.6979 17.8137 53.3437 17.8137C50.7756 17.8137 50.0629 17.3832 50.0629 16.0576C50.0629 14.5519 50.5617 14.3004 52.7374 14.3004H56.5534V16.5235ZM75.6722 3.8342C74.7098 3.65415 73.2469 3.51067 71.8203 3.51067C66.0073 3.51067 63.8311 4.04858 63.8311 9.17448V22.6509C63.8311 27.2761 66.3633 28.0649 71.8925 28.0649C77.812 28.0649 80.0234 26.9531 80.0234 22.2216C80.0234 18.3505 78.5258 16.7373 73.426 16.7373H67.969V15.1962C69.002 15.3751 70.2868 15.3751 71.8209 15.3751C77.6698 15.3751 79.809 14.4439 79.809 9.56835V2.47198C79.809 1.21723 78.8819 0.715332 77.7767 0.715332C76.5993 0.715332 75.6716 1.21723 75.6716 2.47198L75.6722 3.8342ZM71.8147 11.4685C68.3536 11.4685 67.9617 11.3256 67.9617 9.49746V9.35398C67.9617 7.77738 68.9605 7.45385 71.8147 7.45385C73.0621 7.45385 74.5961 7.56188 75.6643 7.70536V9.17392C75.6643 11.0026 75.2366 11.4685 71.8147 11.4685ZM67.9556 20.4655H72.5577C74.9108 20.4655 75.9448 20.86 75.9448 22.4028C75.9448 23.8354 74.6616 24.1943 71.9149 24.1943C69.3468 24.1943 67.9556 23.8714 67.9556 22.6886V20.4655Z" fill="#484848"/>
</g>
<defs>
<clipPath id="clip0_1_1308">
<rect width="80" height="27.3684" fill="white" transform="translate(0.0234375 0.706055)"/>
</clipPath>
</defs>
</svg>
