<svg width="81" height="30" viewBox="0 0 81 30" fill="none" xmlns="http://www.w3.org/2000/svg">
<g clip-path="url(#clip0_1_1298)">
<path d="M27.7486 0.976074H1.28743C0.589347 0.976074 0.0234375 1.53885 0.0234375 2.23308V28.5479C0.0234375 29.2421 0.589347 29.8049 1.28743 29.8049H27.7486C28.4467 29.8049 29.0126 29.2421 29.0126 28.5479V2.23308C29.0126 1.53885 28.4467 0.976074 27.7486 0.976074Z" fill="#484848"/>
<path d="M34.9258 13.7595H44.8775V11.3843H37.8816V8.42684H43.85V6.12619H37.8816V3.34999H44.8775V0.976074H34.9258V13.7595Z" fill="#484848"/>
<path d="M68.8963 10.2352H71.2654C72.4027 10.2352 73.3914 10.0501 74.2302 9.67742C75.069 9.30597 75.7139 8.7713 76.1675 8.07082C76.6212 7.37163 76.8474 6.5529 76.8474 5.61465C76.8474 4.66483 76.6212 3.84353 76.1675 3.14948C75.7139 2.45543 75.069 1.91947 74.2302 1.54288C73.3914 1.16501 72.4027 0.976074 71.2654 0.976074H66.0879V13.7595H68.8976V10.2352H68.8963ZM68.8963 3.38726H71.3196C72.2127 3.38726 72.8925 3.57877 73.3578 3.96306C73.8231 4.34608 74.0557 4.89746 74.0557 5.61593C74.0557 6.32284 73.8231 6.86651 73.3578 7.25081C72.8925 7.63382 72.2127 7.82662 71.3196 7.82662H68.8963V3.38726Z" fill="#484848"/>
<path d="M57.2986 23.8978C57.7587 23.2102 57.9875 22.3914 57.9875 21.4416C57.9875 20.4918 57.7613 19.6692 57.3076 18.9752C56.854 18.2824 56.2091 17.7452 55.3703 17.3686C54.5315 16.992 53.5428 16.8018 52.4055 16.8018H47.2461V29.5852H50.0364V26.0249H52.5515L55.0304 29.5852H58.2266L55.3432 25.4761C56.1871 25.1098 56.8398 24.5841 57.2986 23.8965V23.8978ZM54.4992 23.0855C54.0326 23.4749 53.3541 23.6703 52.461 23.6703H50.0377V19.2142H52.461C53.3541 19.2142 54.0339 19.407 54.4992 19.79C54.9632 20.1743 55.1958 20.7244 55.1958 21.4429C55.1958 22.1485 54.9632 22.6961 54.4992 23.0868V23.0855Z" fill="#484848"/>
<path d="M79.1049 19.8065C78.4923 18.8014 77.6548 18.0135 76.5898 17.4416C75.5249 16.8696 74.3242 16.583 72.9904 16.583C71.6553 16.583 70.4534 16.8696 69.382 17.4416C68.3105 18.0135 67.4731 18.8014 66.8669 19.8065C66.2608 20.8103 65.957 21.9401 65.957 23.1945C65.957 24.4476 66.2595 25.5774 66.8669 26.5825C67.4731 27.5863 68.3105 28.3742 69.382 28.9474C70.4534 29.5194 71.6566 29.806 72.9904 29.806C74.3242 29.806 75.5249 29.5194 76.5898 28.9474C77.6548 28.3755 78.4936 27.5876 79.1049 26.5825C79.7162 25.5774 80.0238 24.4489 80.0238 23.1945C80.0238 21.9401 79.7175 20.8116 79.1049 19.8065ZM76.7036 25.3126C76.3339 25.9334 75.8234 26.418 75.1733 26.765C74.5232 27.112 73.7956 27.2855 72.9904 27.2855C72.1852 27.2855 71.4563 27.112 70.8075 26.765C70.1574 26.418 69.6469 25.9334 69.2773 25.3126C68.9064 24.6918 68.7215 23.9849 68.7215 23.1945C68.7215 22.4028 68.9064 21.6971 69.2773 21.0751C69.6482 20.4543 70.1574 19.9697 70.8075 19.6227C71.4576 19.277 72.1852 19.1034 72.9904 19.1034C73.7956 19.1034 74.5232 19.277 75.1733 19.6227C75.8234 19.9697 76.3339 20.4543 76.7036 21.0751C77.0745 21.6959 77.2593 22.4028 77.2593 23.1945C77.2593 23.9849 77.0745 24.6918 76.7036 25.3126Z" fill="#484848"/>
<path d="M34.9258 29.5853H44.8775V27.2114H37.8816V24.254H43.85V21.9521H37.8816V19.1771H44.8775V16.8032H34.9258V29.5853Z" fill="#484848"/>
<path d="M63.7363 16.8032H60.8555V29.5866H63.7363V16.8032Z" fill="#484848"/>
<path d="M60.8941 0.982422L55.4737 6.54897L50.0339 0.982422H49.7043H47.2461V13.753H50.0339V6.25464V4.92566L55.4737 10.4896L60.8941 4.90638V6.09012L60.9122 13.753H63.7013L63.6638 0.982422H60.8941Z" fill="#484848"/>
</g>
<defs>
<clipPath id="clip0_1_1298">
<rect width="80" height="28.8288" fill="white" transform="translate(0.0234375 0.976074)"/>
</clipPath>
</defs>
</svg>
