<svg width="81" height="29" viewBox="0 0 81 29" fill="none" xmlns="http://www.w3.org/2000/svg">
<g clip-path="url(#clip0_1_1310)">
<path fill-rule="evenodd" clip-rule="evenodd" d="M66.0354 0.404785C62.758 0.404785 59.7492 1.52911 57.364 3.41816C54.9788 1.52911 51.9699 0.404785 48.6926 0.404785C45.4152 0.404785 42.4064 1.52911 40.0212 3.41816C37.636 1.52911 34.6271 0.404785 31.3498 0.404785C28.0724 0.404785 25.0635 1.52911 22.6783 3.41816C20.2931 1.52911 17.2843 0.404785 14.0069 0.404785C6.28233 0.404785 0.0234375 6.66368 0.0234375 14.3883C0.0234375 22.1129 6.28233 28.3718 14.0069 28.3718C17.2843 28.3718 20.2931 27.2475 22.6783 25.3584C25.0635 27.2429 28.0724 28.3718 31.3498 28.3718C34.6271 28.3718 37.636 27.2475 40.0212 25.3584C42.4064 27.2429 45.4152 28.3718 48.6926 28.3718C51.9699 28.3718 54.9788 27.2475 57.364 25.3584C59.7492 27.2475 62.758 28.3718 66.0354 28.3718C73.76 28.3718 80.0189 22.1129 80.0189 14.3883C80.0189 6.66368 73.7645 0.404785 66.0354 0.404785ZM20.3933 23.0779C18.6135 24.3797 16.383 25.1718 14.0115 25.1718C8.05302 25.1718 3.22799 20.3513 3.22799 14.3883C3.22799 8.42527 8.04847 3.60934 14.0069 3.60934C16.383 3.60934 18.6044 4.40137 20.3887 5.70322C18.4906 8.08843 17.3617 11.1063 17.3617 14.3928C17.3617 17.6793 18.5042 20.6972 20.3887 23.0825L20.3933 23.0779ZM22.6829 20.7974C21.3537 19.0039 20.5754 16.7917 20.5754 14.3928C20.5754 11.994 21.3537 9.78174 22.6829 7.98828C24.0121 9.78174 24.795 11.9894 24.795 14.3928C24.795 16.7962 24.0121 19.0039 22.6829 20.7974ZM37.7361 23.0779C35.9472 24.3934 33.735 25.1672 31.3452 25.1672C28.9554 25.1672 26.7569 24.3934 24.968 23.0779C26.8525 20.6972 27.995 17.6611 27.995 14.3883C27.995 11.1155 26.8661 8.08843 24.968 5.69867C26.7569 4.38316 28.9509 3.60934 31.3452 3.60934C33.7395 3.60934 35.9472 4.38316 37.7361 5.69867C35.8379 8.08387 34.7091 11.1018 34.7091 14.3883C34.7091 17.6748 35.8516 20.6927 37.7361 23.0779ZM40.0257 20.7974C38.6965 19.0039 37.9182 16.7917 37.9182 14.3928C37.9182 11.994 38.6965 9.78174 40.0257 7.98828C41.3549 9.78174 42.1378 11.9894 42.1378 14.3928C42.1378 16.7962 41.3549 19.0039 40.0257 20.7974ZM55.0789 23.0779C53.29 24.3934 51.0778 25.1672 48.688 25.1672C46.2983 25.1672 44.0997 24.3934 42.3108 23.0779C44.1953 20.6972 45.3378 17.6611 45.3378 14.3883C45.3378 11.1155 44.2089 8.08843 42.3108 5.69867C44.0997 4.38316 46.2937 3.60934 48.688 3.60934C51.0823 3.60934 53.29 4.38316 55.0789 5.69867C53.1808 8.08387 52.0519 11.1018 52.0519 14.3883C52.0519 17.6748 53.1944 20.6927 55.0789 23.0779ZM57.3685 20.7974C56.0394 19.0039 55.2564 16.7917 55.2564 14.3928C55.2564 11.994 56.0348 9.78174 57.3685 7.98828C58.6977 9.78174 59.4761 11.9894 59.4761 14.3928C59.4761 16.7962 58.6931 19.0039 57.3685 20.7974ZM66.0399 25.1718C63.6638 25.1718 61.4379 24.3797 59.6581 23.0779C61.5426 20.6972 62.6852 17.6611 62.6852 14.3883C62.6852 11.1155 61.5563 8.08843 59.6581 5.69867C61.4425 4.39682 63.6684 3.60478 66.0399 3.60478C71.9984 3.60478 76.8234 8.42527 76.8234 14.3883C76.8234 20.3513 72.0029 25.1718 66.0399 25.1718Z" fill="#484848"/>
</g>
<defs>
<clipPath id="clip0_1_1310">
<rect width="80" height="27.9715" fill="white" transform="translate(0.0234375 0.404785)"/>
</clipPath>
</defs>
</svg>
