<svg width="81" height="21" viewBox="0 0 81 21" fill="none" xmlns="http://www.w3.org/2000/svg">
<g clip-path="url(#clip0_1_1312)">
<path d="M8.07896 0.567383V20.0512H6.26717V7.31284H6.23929L4.8456 20.0512H3.2568L1.89098 7.31284H1.83523V20.0512H0.0234375V0.567383H2.83869L4.00939 11.689H4.06514L5.29158 0.567383H8.07896Z" fill="#484848"/>
<path d="M11.1449 2.40705V9.48699H13.0403V11.1315H11.1449V20.0512H8.9707V0.567383H13.5699V2.40705H11.1449Z" fill="#484848"/>
<path d="M20.3988 0.567383C21.1235 0.567383 21.7412 0.809049 22.2524 1.2921C22.7633 1.77543 23.0189 2.4628 23.0189 3.35476V9.70998C23.0189 10.5649 22.7772 11.1734 22.2942 11.5357C21.8108 11.8981 21.2071 12.0793 20.4824 12.0793H19.4232V20.0512H17.249V0.567383H20.3988ZM20.8169 3.68925C20.8169 2.83464 20.6031 2.40705 20.1758 2.40705H19.4232V10.2675H20.2594C20.631 10.2675 20.8169 9.85883 20.8169 9.04101V3.68925Z" fill="#484848"/>
<path d="M29.411 8.77645C29.411 9.35344 29.3218 9.78158 29.1439 10.0609C28.9656 10.3404 28.7434 10.5253 28.4764 10.615C28.7434 10.6872 28.9656 10.8631 29.1439 11.1424C29.3218 11.422 29.411 11.8501 29.411 12.4268V16.6717C29.411 17.2846 29.4246 17.7984 29.4517 18.2128C29.4787 18.6276 29.5099 18.9657 29.5464 19.2269C29.5824 19.4883 29.6184 19.6824 29.6546 19.8081C29.6906 19.9343 29.7176 20.0154 29.7357 20.0514H27.6226C27.498 19.8351 27.4135 19.4613 27.3692 18.9295C27.3243 18.3979 27.3026 17.6451 27.3026 16.6717V12.6161C27.3026 11.8049 27.1223 11.3994 26.7619 11.3994H25.9507V20.0514H23.8418V1.15186H26.8823C27.5819 1.15186 28.1778 1.38627 28.6715 1.85483C29.1649 2.32367 29.4115 2.99041 29.4115 3.85561V8.77645H29.411ZM26.7613 9.83092C27.1217 9.83092 27.302 9.43455 27.302 8.64126V4.18006C27.302 3.3511 27.0947 2.93634 26.6802 2.93634H25.9502V9.83092H26.7613Z" fill="#484848"/>
<path d="M32.9524 20.2135C32.6458 20.2135 32.3394 20.1594 32.0331 20.0512C31.7265 19.9431 31.4519 19.7809 31.2086 19.5646C30.9653 19.3483 30.7713 19.069 30.6274 18.7264C30.483 18.3841 30.4111 17.9693 30.4111 17.4827V3.72054C30.4111 3.23386 30.483 2.81938 30.6274 2.47681C30.7715 2.13452 30.9653 1.85495 31.2086 1.63865C31.4519 1.42235 31.7265 1.26012 32.0331 1.15197C32.3394 1.04382 32.6458 0.989746 32.9524 0.989746H33.4391C33.7454 0.989746 34.0517 1.04382 34.3583 1.15197C34.6647 1.26012 34.9398 1.42235 35.1828 1.63865C35.4262 1.85495 35.6196 2.13452 35.7643 2.47681C35.9084 2.81938 35.9806 3.23386 35.9806 3.72054V17.4827C35.9806 17.9693 35.9084 18.3841 35.7643 18.7264C35.6199 19.069 35.4265 19.3483 35.1828 19.5646C34.9395 19.7809 34.6644 19.9431 34.3583 20.0512C34.0517 20.1594 33.7454 20.2135 33.4391 20.2135H32.9524ZM33.1417 2.77423C32.7269 2.77423 32.5198 3.19791 32.5198 4.04499V17.1582C32.5198 17.6271 32.5739 17.956 32.682 18.1452C32.7902 18.3345 32.9432 18.429 33.1417 18.429H33.2498C33.448 18.429 33.6013 18.3345 33.7094 18.1452C33.8176 17.956 33.8717 17.6273 33.8717 17.1582V4.04499C33.8717 3.19791 33.6643 2.77423 33.2498 2.77423H33.1417Z" fill="#484848"/>
<path d="M39.8739 1.15186C40.5769 1.15186 41.1759 1.38627 41.6717 1.85483C42.1673 2.32367 42.4151 2.99041 42.4151 3.85561V10.0202C42.4151 10.8494 42.1807 11.4395 41.7122 11.7913C41.2433 12.1428 40.6577 12.3187 39.9547 12.3187H38.9273V20.0514H36.8184V1.15186H39.8736H39.8739ZM40.2794 4.18006C40.2794 3.3511 40.0721 2.93634 39.6576 2.93634H38.9276V10.5609H39.7387C40.0991 10.5609 40.2794 10.1646 40.2794 9.37128V4.18006Z" fill="#484848"/>
<path d="M45.3355 2.93634V9.80388H47.174V11.3991H45.3355V18.2666H47.85V20.0511H43.2266V1.15186H47.6878V2.93634H45.3355Z" fill="#484848"/>
<path d="M54.0692 8.77645C54.0692 9.35344 53.98 9.78158 53.8022 10.0609C53.6238 10.3404 53.4016 10.5253 53.1346 10.615C53.4016 10.6872 53.6238 10.8631 53.8022 11.1424C53.98 11.422 54.0692 11.8501 54.0692 12.4268V16.6717C54.0692 17.2846 54.0828 17.7984 54.1099 18.2128C54.1369 18.6276 54.1681 18.9657 54.2046 19.2269C54.2406 19.4883 54.2766 19.6824 54.3128 19.8081C54.3488 19.9343 54.3758 20.0154 54.3939 20.0514H52.2808C52.1562 19.8351 52.0717 19.4613 52.0274 18.9295C51.9826 18.3979 51.9608 17.6451 51.9608 16.6717V12.6161C51.9608 11.8049 51.7805 11.3994 51.4201 11.3994H50.6089V20.0514H48.5V1.15186H51.5405C52.2401 1.15186 52.836 1.38627 53.3297 1.85483C53.8231 2.32367 54.0697 2.99041 54.0697 3.85561V8.77645H54.0692ZM51.4195 9.83092C51.7799 9.83092 51.9603 9.43455 51.9603 8.64126V4.18006C51.9603 3.3511 51.7529 2.93634 51.3384 2.93634H50.6084V9.83092H51.4195Z" fill="#484848"/>
<path d="M60.5031 2.93634H58.6916V20.0511H56.5827V2.93634H54.7441V1.15186H60.5031V2.93634Z" fill="#484848"/>
<path d="M64.8028 13.0754V20.0511H62.6938V13.0754L60.666 1.15186H62.7749L63.7087 8.26274H63.7884L64.7217 1.15186H66.8306L64.8028 13.0754Z" fill="#484848"/>
<path d="M73.94 14.4273H71.6148L71.047 20.0511H70.4521L72.3718 1.15186H73.2641L75.2108 20.0511H74.5348L73.94 14.4273ZM71.6688 13.9136H73.8859L72.8044 3.26079H72.7774L71.6688 13.9136Z" fill="#484848"/>
<path d="M77.806 20.2135C77.3553 20.2135 76.9316 20.0376 76.5353 19.6861C76.1386 19.3346 75.9404 18.7445 75.9404 17.915V3.28794C75.9404 2.45897 76.1386 1.86861 76.5353 1.51712C76.9316 1.16563 77.3553 0.989746 77.806 0.989746H78.1575C78.3738 0.989746 78.5943 1.03044 78.8201 1.11128C79.0453 1.19239 79.2435 1.32758 79.4149 1.51684C79.586 1.7061 79.7301 1.94526 79.8475 2.2332C79.9646 2.52169 80.0234 2.87318 80.0234 3.28766V8.80333H79.3474V3.36905C79.3474 2.72015 79.2164 2.26051 78.9553 1.99014C78.6938 1.71976 78.4098 1.58457 78.1037 1.58457H77.8604C77.5538 1.58457 77.2697 1.71976 77.0088 1.99014C76.7474 2.26051 76.6166 2.72935 76.6166 3.39609V17.8071C76.6166 18.4741 76.7471 18.9427 77.0088 19.2131C77.27 19.4834 77.5538 19.6186 77.8604 19.6186H78.1037C78.41 19.6186 78.6938 19.4834 78.9553 19.2131C79.2164 18.9427 79.3474 18.4741 79.3474 17.8071V12.9944H78.1037V12.3996H80.0234V20.0512H79.6449L79.5367 19.3483C79.3382 19.6368 79.1041 19.8531 78.8337 19.9972C78.5633 20.1413 78.3019 20.2135 78.0496 20.2135H77.8063H77.806Z" fill="#484848"/>
</g>
<defs>
<clipPath id="clip0_1_1312">
<rect width="80" height="19.646" fill="white" transform="translate(0.0234375 0.567383)"/>
</clipPath>
</defs>
</svg>
