<svg width="81" height="21" viewBox="0 0 81 21" fill="none" xmlns="http://www.w3.org/2000/svg">
<g clip-path="url(#clip0_1_1325)">
<path d="M4.96672 6.81839H1.72269V18.0373H0.0234375V5.00328C0.0234375 3.63229 0.44825 2.58957 1.27857 1.8558C2.12819 1.10272 3.19022 0.73584 4.52259 0.73584H4.96672V2.2613H4.52259C3.61504 2.29992 2.97782 2.51233 2.59162 2.89852C2.01233 3.49712 1.742 4.09572 1.742 4.71363V5.2543H4.96672V6.81839Z" fill="#484848"/>
<path d="M8.34574 3.72884H6.64648V0.73584H8.34574V3.72884ZM8.34574 18.0373H6.64648V5.2543H8.34574V18.0373Z" fill="#484848"/>
<path d="M22.6731 11.7232C22.7117 13.5576 22.0552 15.1603 20.7035 16.4927C19.3325 17.825 17.7491 18.4816 15.8954 18.4043C14.1189 18.3657 12.6128 17.6899 11.3769 16.3768C10.1411 15.0638 9.50391 13.5383 9.50391 11.7425C9.50391 9.86945 10.1604 8.26675 11.4928 6.93438C12.8252 5.60201 14.4086 4.96479 16.243 5.02272C18.116 5.09996 19.6994 5.85304 20.9545 7.28195V0.83252H22.6538V11.7232H22.6731ZM20.9545 11.588C20.9159 10.2363 20.4525 9.07775 19.5256 8.11227C18.5988 7.14679 17.4788 6.66404 16.1657 6.66404C14.8141 6.64473 13.6555 7.12747 12.69 8.09296C11.7245 9.05844 11.2225 10.2363 11.2225 11.6073C11.2032 12.959 11.6666 14.1369 12.5741 15.1603C13.4817 16.1837 14.6017 16.7051 15.934 16.7437C17.3436 16.8209 18.5408 16.3382 19.5449 15.2762C20.5297 14.2334 21.0125 12.9976 20.9545 11.588Z" fill="#484848"/>
<path d="M35.5342 12.5535C35.5342 14.2141 34.9936 15.6044 33.9315 16.705C32.8695 17.8057 31.5178 18.3657 29.8765 18.3657C28.2545 18.3657 26.9028 17.8057 25.8215 16.705C24.7594 15.6044 24.2188 14.2141 24.2188 12.5535V5.25439H25.918V12.7659C25.918 13.8472 26.3042 14.7741 27.0959 15.5465C27.8876 16.3188 28.8145 16.705 29.8572 16.705C30.9192 16.705 31.8268 16.3188 32.6185 15.5465C33.4102 14.7741 33.7963 13.8472 33.7963 12.7659V5.25439H35.4956V12.5535H35.5342Z" fill="#484848"/>
<path d="M50.2097 14.3108L50.0359 14.697C48.6842 17.1879 46.5988 18.4044 43.7989 18.3851C41.9452 18.3658 40.3425 17.7286 38.9908 16.4348C37.6391 15.1411 36.9633 13.577 36.9439 11.7426C36.9053 9.88886 37.5812 8.30547 38.9328 6.9731C40.2845 5.64073 41.9065 4.9649 43.7989 4.94559C45.1506 4.92628 46.4057 5.27385 47.5643 6.00762C48.6649 6.70277 49.4566 7.5717 49.9394 8.61443L50.1904 9.17441H48.2594C47.2939 7.51377 45.8264 6.66415 43.8568 6.60622C42.5438 6.5676 41.3466 7.05034 40.3038 8.05445C39.2032 9.07786 38.6625 10.2751 38.6625 11.6847C38.6625 13.075 39.1646 14.2722 40.188 15.2763C41.2114 16.2804 42.4086 16.7631 43.8182 16.7438C45.8071 16.7052 47.3132 15.9135 48.298 14.3494H50.2097V14.3108Z" fill="#484848"/>
<path d="M53.4336 3.76741H51.7344V0.774414H53.4336V3.76741ZM53.4336 18.0952H51.7344V5.29288H53.4336V18.0952Z" fill="#484848"/>
<path d="M67.9936 11.665V11.7615V18.0951H66.2944V16.0869C64.9041 17.6703 63.2048 18.4427 61.1966 18.3847C59.4395 18.3268 57.9333 17.651 56.6975 16.3379C55.4617 15.0248 54.8438 13.4801 54.8438 11.6843C54.8438 9.81122 55.5003 8.20852 56.8327 6.87615C58.165 5.54379 59.7677 4.90657 61.6214 4.9838C63.4172 5.04173 64.9427 5.73688 66.1978 7.03063C67.453 8.34369 68.0516 9.88846 67.9936 11.665ZM66.2751 11.5491C66.2365 10.1974 65.773 9.03884 64.8269 8.09266C63.9 7.12718 62.78 6.64444 61.467 6.64444C60.096 6.64444 58.9374 7.12718 57.9719 8.09266C57.0064 9.05815 56.5237 10.2167 56.5044 11.5877C56.4658 12.9394 56.9292 14.1173 57.8368 15.1407C58.7636 16.1448 59.8643 16.6855 61.1773 16.7434C62.5869 16.8013 63.7841 16.3186 64.7882 15.2759C65.831 14.1945 66.3137 12.9587 66.2751 11.5491Z" fill="#484848"/>
<path d="M74.482 15.8359V15.8745V18.2303H73.8448V17.4965C73.3234 18.0758 72.7055 18.3654 71.9525 18.3461C71.2959 18.3268 70.736 18.0758 70.2918 17.593C69.8477 17.1103 69.5967 16.531 69.5967 15.8745C69.5967 15.1793 69.8477 14.5807 70.3305 14.0787C70.8325 13.5766 71.4118 13.3449 72.1069 13.3835C72.7828 13.4028 73.3428 13.6539 73.8062 14.1366C74.2696 14.6 74.5013 15.1793 74.482 15.8359ZM73.8448 15.7779C73.8255 15.2759 73.6517 14.8511 73.3041 14.4842C72.9566 14.1366 72.5511 13.9435 72.0683 13.9435C71.5663 13.9435 71.1221 14.1173 70.7746 14.4842C70.427 14.8318 70.2339 15.2759 70.2339 15.7779C70.2146 16.28 70.3884 16.7241 70.736 17.091C71.0835 17.4579 71.489 17.6703 71.9718 17.6896C72.4931 17.7089 72.9373 17.5351 73.3041 17.1489C73.671 16.782 73.8641 16.3186 73.8448 15.7779Z" fill="#484848"/>
<path d="M80.0235 15.7972V17.9792C80.0235 18.5778 79.7725 19.0798 79.2897 19.466C78.807 19.8522 78.2277 20.0453 77.6098 20.026C77.0498 20.0067 76.5477 19.8329 76.1422 19.5046C75.756 19.1957 75.4857 18.7902 75.3505 18.3074H75.9685C76.065 18.6357 76.2774 18.9253 76.6057 19.157C76.9339 19.3888 77.2815 19.5046 77.687 19.5046C78.1504 19.5046 78.5559 19.3308 78.9035 19.0219C79.2511 18.6936 79.4056 18.3267 79.4056 17.8826V17.4385C78.9421 17.9598 78.3629 18.2495 77.6677 18.2688C76.9919 18.2881 76.3933 18.0564 75.9105 17.5543C75.4085 17.0523 75.1768 16.473 75.1768 15.7779C75.1768 15.1213 75.4085 14.542 75.8719 14.0593C76.3353 13.5765 76.8953 13.3255 77.5518 13.3062C78.2277 13.2869 78.8263 13.5379 79.3283 14.0207C79.7918 14.5227 80.0428 15.1213 80.0235 15.7972ZM79.3863 15.8358C79.4056 15.3144 79.2318 14.851 78.8649 14.4648C78.498 14.0786 78.0539 13.8855 77.5325 13.9048C77.0498 13.9241 76.625 14.1172 76.2967 14.5034C75.9491 14.8703 75.7947 15.3144 75.7947 15.8165C75.814 16.3185 75.9878 16.7626 76.3546 17.1102C76.7022 17.4578 77.1463 17.6509 77.6484 17.6509C78.1311 17.6509 78.5559 17.4771 78.9035 17.1102C79.2125 16.782 79.3863 16.3378 79.3863 15.8358Z" fill="#484848"/>
</g>
<defs>
<clipPath id="clip0_1_1325">
<rect width="80" height="19.3097" fill="white" transform="translate(0.0234375 0.73584)"/>
</clipPath>
</defs>
</svg>
