<svg width="32" height="32" viewBox="0 0 32 32" fill="none" xmlns="http://www.w3.org/2000/svg">
<rect width="32" height="32" rx="4" fill="#2C9B43"/>
<path d="M9.067 9.1005V8.067C9.067 7.5188 9.28477 6.99305 9.67241 6.60541C10.06 6.21777 10.5858 6 11.134 6H19.9188L25.603 11.6842V24.603C25.603 25.1512 25.3852 25.677 24.9976 26.0646C24.61 26.4522 24.0842 26.67 23.536 26.67H9.067M19.402 6V12.201H25.603M13.201 17.3685V15.3015C13.201 14.7533 12.9832 14.2275 12.5956 13.8399C12.208 13.4523 11.6822 13.2345 11.134 13.2345C10.5858 13.2345 10.06 13.4523 9.67241 13.8399C9.28477 14.2275 9.067 14.7533 9.067 15.3015V17.3685M8.0335 17.3685H14.2345C14.8053 17.3685 15.268 17.8312 15.268 18.402V21.5025C15.268 22.0733 14.8053 22.536 14.2345 22.536H8.0335C7.46271 22.536 7 22.0733 7 21.5025V18.402C7 17.8312 7.46271 17.3685 8.0335 17.3685Z" stroke="white" stroke-width="1.5" stroke-linecap="round" stroke-linejoin="round"/>
</svg>
