<svg width="32" height="32" viewBox="0 0 32 32" fill="none" xmlns="http://www.w3.org/2000/svg">
<rect width="32" height="32" rx="4" fill="#2C9B43"/>
<path d="M15.9993 5.5H12.266C10.3058 5.5 9.32574 5.5 8.57705 5.88148C7.91848 6.21703 7.38305 6.75247 7.04749 7.41103C6.66602 8.15972 6.66602 9.13982 6.66602 11.1V20.9C6.66602 22.8602 6.66602 23.8403 7.04749 24.589C7.38305 25.2475 7.91848 25.783 8.57705 26.1185C9.32574 26.5 10.3058 26.5 12.266 26.5H14.8327M15.9993 5.5L22.9994 12.5M15.9993 5.5V8.76667C15.9993 10.0735 15.9993 10.7269 16.2537 11.226C16.4774 11.665 16.8343 12.022 17.2734 12.2457C17.7725 12.5 18.4259 12.5 19.7327 12.5H22.9994M22.9994 12.5V13.6667M25.3327 19.745C25.2531 19.7498 25.0244 19.745 24.9438 19.745C23.7486 19.745 22.6583 19.2112 21.8327 18.3333C21.007 19.2111 19.9168 19.7449 18.7216 19.7449C18.641 19.7449 18.4125 19.7498 18.3329 19.745C18.3329 19.745 18.3327 20.6497 18.3327 21.1309C18.3327 23.7141 19.8199 25.8846 21.8327 26.5C23.8454 25.8846 25.3327 23.7141 25.3327 21.1309C25.3327 20.6497 25.3327 19.745 25.3327 19.745Z" stroke="white" stroke-width="1.5" stroke-linecap="round" stroke-linejoin="round"/>
</svg>
