<svg width="32" height="32" viewBox="0 0 32 32" fill="none" xmlns="http://www.w3.org/2000/svg">
<rect width="32" height="32" rx="4" fill="#2C9B43"/>
<path d="M25.0317 14.9964V11.9856C25.0317 11.4532 24.8203 10.9427 24.4438 10.5663C24.0674 10.1898 23.5569 9.97835 23.0245 9.97835H17.0029M17.0029 9.97835L20.0137 12.9892M17.0029 9.97835L20.0137 6.96753M6.9668 17.0036V20.0144C6.9668 20.5468 7.17827 21.0573 7.5547 21.4337C7.93112 21.8102 8.44167 22.0216 8.97401 22.0216H14.9957M14.9957 22.0216L11.9848 19.0108M14.9957 22.0216L11.9848 25.0325M6.9668 9.97835C6.9668 10.7769 7.28401 11.5427 7.84865 12.1073C8.41329 12.672 9.1791 12.9892 9.97762 12.9892C10.7761 12.9892 11.542 12.672 12.1066 12.1073C12.6712 11.5427 12.9884 10.7769 12.9884 9.97835C12.9884 9.17983 12.6712 8.41402 12.1066 7.84938C11.542 7.28474 10.7761 6.96753 9.97762 6.96753C9.1791 6.96753 8.41329 7.28474 7.84865 7.84938C7.28401 8.41402 6.9668 9.17983 6.9668 9.97835ZM19.0101 22.0216C19.0101 22.8202 19.3273 23.586 19.8919 24.1506C20.4566 24.7153 21.2224 25.0325 22.0209 25.0325C22.8194 25.0325 23.5853 24.7153 24.1499 24.1506C24.7145 23.586 25.0317 22.8202 25.0317 22.0216C25.0317 21.2231 24.7145 20.4573 24.1499 19.8927C23.5853 19.328 22.8194 19.0108 22.0209 19.0108C21.2224 19.0108 20.4566 19.328 19.8919 19.8927C19.3273 20.4573 19.0101 21.2231 19.0101 22.0216Z" stroke="white" stroke-width="1.5" stroke-linecap="round" stroke-linejoin="round"/>
</svg>
