<svg width="30" height="31" viewBox="0 0 30 31" fill="none" xmlns="http://www.w3.org/2000/svg">
<rect x="0.5" y="0.689453" width="29" height="29" rx="3.5" stroke="#DCDCE0"/>
<path d="M20.0625 22H10.6875C7.875 22 6 20.125 6 17.3125V11.6875C6 8.875 7.875 7 10.6875 7H20.0625C22.875 7 24.75 8.875 24.75 11.6875V17.3125C24.75 20.125 22.875 22 20.0625 22Z" stroke="#1F2933" stroke-width="1.5" stroke-miterlimit="10" stroke-linecap="round" stroke-linejoin="round"/>
<path d="M14.8125 12.1561L17.1562 13.5623C18 14.1248 18 14.9686 17.1562 15.5311L14.8125 16.9373C13.875 17.4998 13.125 17.0311 13.125 15.9998V13.1873C13.125 11.9686 13.875 11.5936 14.8125 12.1561Z" stroke="#1F2933" stroke-width="1.5" stroke-miterlimit="10" stroke-linecap="round" stroke-linejoin="round"/>
</svg>
