<svg width="28" height="15" viewBox="0 0 28 15" fill="none" xmlns="http://www.w3.org/2000/svg"><path d="M27.6911 6.70802L22.1431 0.874023C22.0474 0.77066 21.9314 0.688191 21.8023 0.63179C21.6733 0.575389 21.534 0.546265 21.3931 0.546265C21.2523 0.546265 21.1129 0.575389 20.9839 0.63179C20.8548 0.688191 20.7388 0.77066 20.6431 0.874023C20.443 1.08981 20.3318 1.37324 20.3318 1.66753C20.3318 1.96181 20.443 2.24522 20.6431 2.46101L24.3681 6.37802H1.8851C1.59911 6.3951 1.33044 6.52075 1.13398 6.72929C0.93753 6.93783 0.828125 7.21351 0.828125 7.50002C0.828125 7.78652 0.93753 8.06221 1.13398 8.27075C1.33044 8.47929 1.59911 8.60494 1.8851 8.62202H24.3691L20.6441 12.539C20.444 12.7548 20.3328 13.0382 20.3328 13.3325C20.3328 13.6268 20.444 13.9102 20.6441 14.126C20.7398 14.2294 20.8558 14.3119 20.9849 14.3683C21.1139 14.4247 21.2533 14.4538 21.3941 14.4538C21.535 14.4538 21.6743 14.4247 21.8033 14.3683C21.9324 14.3119 22.0484 14.2294 22.1441 14.126L27.6921 8.29202C27.891 8.07617 28.0013 7.79335 28.0011 7.49983C28.001 7.20632 27.8903 6.92363 27.6911 6.70802Z" fill="white"/></svg>