<svg width="24" height="24" viewBox="0 0 24 24" fill="none" xmlns="http://www.w3.org/2000/svg">
<path d="M19.5033 22.7442H4.50719C2.57255 22.7442 1.00392 21.1755 1.00392 19.2409V16.2291C1.00392 15.8108 0.773853 15.4344 0.397383 15.2461L0 15.0474V12.2344H24V15.0474L23.6026 15.2461C23.2261 15.4344 22.9961 15.8108 22.9961 16.2291V19.2409C22.9961 21.1755 21.4275 22.7442 19.4928 22.7442H19.5033ZM1.00392 14.4409C1.62091 14.8174 2.00784 15.4867 2.00784 16.2291V19.2409C2.00784 20.6213 3.1268 21.7403 4.50719 21.7403H19.5033C20.8837 21.7403 22.0026 20.6213 22.0026 19.2409V16.2291C22.0026 15.4867 22.3791 14.8174 23.0065 14.4409V13.2383H1.00392V14.4409V14.4409Z" fill="white"/>
<path d="M5.51173 21.9922H4.50781V23.9896H5.51173V21.9922Z" fill="white"/>
<path d="M19.5117 21.9922H18.5078V23.9896H19.5117V21.9922Z" fill="white"/>
<path d="M3.50392 12.4967H2.5V2.41569C2.5 1.07713 3.61895 0 4.99935 0C6.37974 0 7.49869 1.08759 7.49869 2.41569V3.37778H6.49477V2.41569C6.49477 1.63138 5.82549 0.993469 4.99935 0.993469C4.1732 0.993469 3.50392 1.63138 3.50392 2.41569V12.4967V12.4967Z" fill="white"/>
<path d="M8.51303 2.74023H5.51172V3.74416H8.51303V2.74023Z" fill="white"/>
<path d="M7.50783 4.74805H6.50391V5.75197H7.50783V4.74805Z" fill="white"/>
<path d="M8.51173 6.24219H7.50781V7.24611H8.51173V6.24219Z" fill="white"/>
<path d="M6.51564 6.24219H5.51172V7.24611H6.51564V6.24219Z" fill="white"/>
<path d="M5.51173 7.75H4.50781V8.75392H5.51173V7.75Z" fill="white"/>
<path d="M9.50392 7.75H8.5V8.75392H9.50392V7.75Z" fill="white"/>
<path d="M7.50783 7.75H6.50391V8.75392H7.50783V7.75Z" fill="white"/>
<path d="M23.4987 14.2422H19.5039V15.2461H23.4987V14.2422Z" fill="white"/>
<path d="M16.5117 14.2422H0.511719V15.2461H16.5117V14.2422Z" fill="white"/>
<path d="M15.0071 2.74023H13.5117V3.74416H15.0071V2.74023Z" fill="white"/>
<path d="M21.5104 9.74609H15.5078V3.74348H14.5039V3.24152C14.5039 2.41538 15.1732 1.74609 15.9993 1.74609H19.9941C20.8202 1.74609 21.4895 2.41538 21.4895 3.24152V9.74609H21.5104ZM16.5118 8.74217H20.5065V3.24152C20.5065 2.96962 20.2869 2.73955 20.0046 2.73955H16.0098C16.0098 2.73955 15.9052 2.73955 15.8634 2.76047C16.2294 2.84413 16.5118 3.17877 16.5118 3.57616V8.74217V8.74217Z" fill="white"/>
<path d="M22.5052 2.74023H20.5078V3.74416H22.5052V2.74023Z" fill="white"/>
</svg>
