<svg width="24" height="18" viewBox="0 0 24 18" fill="none" xmlns="http://www.w3.org/2000/svg">
<path d="M23.6167 0.0761719H21.3379V0.873755H23.2231V8.31096H16.0863V7.76197H15.2887V10.683H16.0863V9.09818H23.2231V12.5682H16.0863V12.0192H15.2887V14.9402H16.0863V13.3554H23.2231V17.1258H16.0863V16.2557H15.2887V17.1258H11.8809V17.9234H23.6064C23.8239 17.9234 24 17.7473 24 17.5298V0.480143C24 0.26262 23.8239 0.0865303 23.6064 0.0865303L23.6167 0.0761719Z" fill="#333232"/>
<path d="M0.00976562 0.480143V2.98683H0.807349V0.873755H8.04775V5.53496H8.84533V0.873755H10.7512V0.0761719H0.413736C0.196213 0.0761719 0.0201261 0.252262 0.0201261 0.469784L0.00976562 0.480143Z" fill="#333232"/>
<path d="M0.796993 9.10886H8.03739V10.6937H8.83497V7.76229H8.03739V8.31128H0.796993V5.95996H0.00976562V11.5327H0.796993V9.10886Z" fill="#333232"/>
<path d="M15.3297 6.22896H16.1273V0.873755H18.4994V0.0761719H13.4238V0.873755H15.3297V6.22896Z" fill="#333232"/>
<path d="M8.83556 12.9723H8.03798V17.1363H0.797583V14.1117H0V17.5299C0 17.7474 0.176091 17.9235 0.393613 17.9235H10.0164V17.1259H8.8252V12.9619L8.83556 12.9723Z" fill="#333232"/>
</svg>
