<svg width="15" height="15" viewBox="0 0 15 15" fill="none" xmlns="http://www.w3.org/2000/svg">
<g clip-path="url(#clip0_1_3823)">
<path d="M0 11.1611C0 8.72 0 6.27889 0 3.83778C0.0244336 3.68444 0.0399822 3.52889 0.0744114 3.37778C0.456464 1.67889 1.4849 0.588889 3.16304 0.122222C3.38183 0.0622222 3.61173 0.04 3.83607 0C6.2761 0 8.71613 0 11.1562 0C11.2039 0.00888889 11.2506 0.0211111 11.2983 0.0255556C11.7081 0.0711111 12.1091 0.161111 12.4811 0.337778C14.0915 1.1 14.96 2.37556 14.9845 4.15889C15.0155 6.38444 14.9933 8.61111 14.9911 10.8378C14.9911 11.7 14.7579 12.5 14.257 13.2033C13.4074 14.3956 12.2379 14.9933 10.7741 14.9978C8.58841 15.0033 6.4016 15.0022 4.2159 14.9956C3.93492 14.9956 3.64616 14.98 3.37295 14.92C1.67592 14.5456 0.589738 13.5122 0.123279 11.8356C0.0621946 11.6156 0.0399822 11.3856 0 11.1611ZM13.6628 7.50222C13.6628 6.41889 13.6628 5.33444 13.6628 4.25111C13.6628 3.90778 13.6284 3.56889 13.5129 3.24333C13.0897 2.05111 12.0624 1.33222 10.7663 1.33111C8.58507 1.32889 6.40493 1.32444 4.22368 1.33667C3.89716 1.33889 3.5562 1.38333 3.24745 1.48667C2.04909 1.88889 1.33163 2.92889 1.33052 4.22444C1.32719 6.40667 1.32941 8.58778 1.33052 10.77C1.33052 11.1078 1.36828 11.4411 1.48267 11.7622C1.90582 12.9433 2.92315 13.6633 4.20369 13.6667C6.39938 13.6722 8.59507 13.6711 10.7908 13.6667C11.7737 13.6644 12.5666 13.2711 13.1464 12.4722C13.5151 11.9656 13.6639 11.3878 13.6628 10.7656C13.6617 9.67667 13.6628 8.58889 13.6628 7.5V7.50222Z" fill="white"/>
<path d="M11.3596 7.50144C11.3573 9.62588 9.60923 11.3714 7.49017 11.3648C5.36334 11.3581 3.62078 9.6081 3.63189 7.49033C3.64299 5.36477 5.37445 3.63699 7.49351 3.63477C9.61478 3.63255 11.3607 5.38032 11.3585 7.50144H11.3596ZM7.49351 10.0314C8.88622 10.0359 10.0235 8.90033 10.0268 7.50255C10.0302 6.10921 8.89621 4.97143 7.49906 4.9681C6.10634 4.96477 4.97018 6.0981 4.96574 7.49699C4.96241 8.89033 6.09524 10.027 7.49351 10.0314Z" fill="white"/>
<path d="M11.5426 2.51123C12.079 2.52679 12.5122 2.97457 12.4966 3.49568C12.48 4.04568 12.0291 4.47123 11.4849 4.45234C10.9618 4.43456 10.5308 3.98234 10.5453 3.46679C10.5608 2.92345 11.0073 2.49568 11.5426 2.51012V2.51123Z" fill="white"/>
</g>
<defs>
<clipPath id="clip0_1_3823">
<rect width="15" height="15" fill="white"/>
</clipPath>
</defs>
</svg>
