<svg width="14" height="14" viewBox="0 0 14 14" fill="none" xmlns="http://www.w3.org/2000/svg">
<path fill-rule="evenodd" clip-rule="evenodd" d="M0.0244867 7.13393V14H3.28258V4.65655H0.0244867V7.13393ZM13.9204 7.51741C13.706 5.7522 12.9037 4.65655 10.5153 4.65655C9.11896 4.65655 8.17583 5.17394 7.78388 5.91655H7.74101V4.65655H5.14434V14H7.85737V9.35567C7.85737 8.13828 8.10234 6.9635 9.59053 6.9635C11.0787 6.9635 11.2012 8.35132 11.2012 9.44088V14H14V8.85654C14.001 8.40897 13.9744 7.96175 13.9204 7.51741ZM1.65353 4.53591e-05C1.32866 -0.00236204 1.01039 0.0911083 0.739006 0.268618C0.467627 0.446128 0.255354 0.699693 0.129072 0.997197C0.00278945 1.2947 -0.031821 1.62276 0.029624 1.93983C0.0910689 2.2569 0.245805 2.54872 0.474235 2.77832C0.702664 3.00792 0.994513 3.16497 1.31282 3.22959C1.63112 3.29422 1.96156 3.2635 2.26228 3.14133C2.56301 3.01916 2.82049 2.81104 3.00212 2.54332C3.18375 2.2756 3.28135 1.96033 3.28258 1.63743C3.28501 1.42327 3.24466 1.21076 3.16388 1.01221C3.08311 0.813656 2.9635 0.633003 2.81198 0.480714C2.66047 0.328425 2.48006 0.207525 2.28121 0.125017C2.08236 0.042509 1.86901 3.17376e-05 1.65353 4.53591e-05Z" fill="white"/>
</svg>
