<svg width="111" height="40" viewBox="0 0 111 40" fill="none" xmlns="http://www.w3.org/2000/svg">
<g clip-path="url(#clip0_1005_6977)">
<path d="M38.4687 0H1.75379C0.7852 0 0 0.780857 0 1.74409V38.2559C0 39.2191 0.7852 40 1.75379 40H38.4687C39.4373 40 40.2225 39.2191 40.2225 38.2559V1.74409C40.2225 0.780857 39.4373 0 38.4687 0Z" fill="#20534A"/>
<path d="M48.4258 17.737H62.2338V14.4414H52.5269V10.3379H60.8081V7.14579H52.5269V3.2938H62.2338V0H48.4258V17.737Z" fill="#20534A"/>
<path d="M95.5608 12.8471H98.8478C100.426 12.8471 101.798 12.5903 102.961 12.0731C104.125 11.5577 105.02 10.8159 105.65 9.84396C106.279 8.87383 106.593 7.73785 106.593 6.43602C106.593 5.11815 106.279 3.9786 105.65 3.0156C105.02 2.05261 104.125 1.30896 102.961 0.786447C101.798 0.262149 100.426 0 98.8478 0H91.6641V17.737H95.5626V12.8471H95.5608ZM95.5608 3.34552H98.9231C100.162 3.34552 101.105 3.61124 101.751 4.14445C102.397 4.67588 102.719 5.44093 102.719 6.43781C102.719 7.41864 102.397 8.17298 101.751 8.7062C101.105 9.23763 100.162 9.50513 98.9231 9.50513H95.5608V3.34552Z" fill="#20534A"/>
<path d="M79.4674 31.8038C80.1058 30.8497 80.4232 29.7137 80.4232 28.3958C80.4232 27.0779 80.1094 25.9366 79.4799 24.9736C78.8505 24.0124 77.9557 23.267 76.7919 22.7445C75.628 22.2219 74.2562 21.958 72.6782 21.958H65.5195V39.695H69.3911V34.7552H72.8808L76.3202 39.695H80.7549L76.7542 33.9937C77.9252 33.4854 78.8308 32.756 79.4674 31.802V31.8038ZM75.5832 30.6767C74.9359 31.217 73.9944 31.4881 72.7553 31.4881H69.3929V25.3053H72.7553C73.9944 25.3053 74.9376 25.5728 75.5832 26.1042C76.227 26.6375 76.5498 27.4007 76.5498 28.3976C76.5498 29.3766 76.227 30.1363 75.5832 30.6785V30.6767Z" fill="#20534A"/>
<path d="M109.723 26.1274C108.873 24.7328 107.711 23.6396 106.233 22.846C104.756 22.0525 103.09 21.6548 101.239 21.6548C99.3869 21.6548 97.7192 22.0525 96.2326 22.846C94.746 23.6396 93.5839 24.7328 92.7429 26.1274C91.9019 27.5201 91.4805 29.0877 91.4805 30.8282C91.4805 32.567 91.9001 34.1345 92.7429 35.5291C93.5839 36.9218 94.746 38.015 96.2326 38.8104C97.7192 39.604 99.3887 40.0016 101.239 40.0016C103.09 40.0016 104.756 39.604 106.233 38.8104C107.711 38.0168 108.875 36.9236 109.723 35.5291C110.571 34.1345 110.998 32.5687 110.998 30.8282C110.998 29.0877 110.573 27.5219 109.723 26.1274ZM106.391 33.7671C105.878 34.6285 105.17 35.3008 104.268 35.7823C103.366 36.2638 102.356 36.5045 101.239 36.5045C100.122 36.5045 99.1107 36.2638 98.2105 35.7823C97.3085 35.3008 96.6002 34.6285 96.0873 33.7671C95.5727 32.9058 95.3162 31.925 95.3162 30.8282C95.3162 29.7297 95.5727 28.7506 96.0873 27.8875C96.602 27.0262 97.3085 26.3538 98.2105 25.8724C99.1125 25.3926 100.122 25.1519 101.239 25.1519C102.356 25.1519 103.366 25.3926 104.268 25.8724C105.17 26.3538 105.878 27.0262 106.391 27.8875C106.906 28.7489 107.162 29.7297 107.162 30.8282C107.162 31.925 106.906 32.9058 106.391 33.7671Z" fill="#20534A"/>
<path d="M48.4258 39.6951H62.2338V36.4013H52.5269V32.2979H60.8081V29.104H52.5269V25.2538H62.2338V21.96H48.4258V39.6951Z" fill="#20534A"/>
<path d="M88.3995 21.96H84.4023V39.6969H88.3995V21.96Z" fill="#20534A"/>
<path d="M84.4562 0.00878906L76.9353 7.73237L69.3876 0.00878906H68.9303H65.5195V17.7279H69.3876V7.32399V5.48003L76.9353 13.2L84.4562 5.45328V7.09573L84.4813 17.7279H88.3511L88.2991 0.00878906H84.4562Z" fill="#20534A"/>
</g>
<defs>
<clipPath id="clip0_1005_6977">
<rect width="111" height="40" fill="white"/>
</clipPath>
</defs>
</svg>
