<svg width="786" height="520" viewBox="0 0 786 520" fill="none" xmlns="http://www.w3.org/2000/svg">
<g clip-path="url(#clip0_314_7388)">
<path d="M720.003 195.164L785.345 260V130.328H654.66V260L720.003 195.164Z" stroke="#2E7367" stroke-miterlimit="10"/>
<path d="M523.975 260V195.164L458.633 260H523.975Z" stroke="#2E7367" stroke-miterlimit="10"/>
<path d="M393.289 260H458.631L393.289 195.164V260Z" stroke="#2E7367" stroke-miterlimit="10"/>
<path d="M458.633 130.328L523.975 195.164V130.328H458.633Z" stroke="#2E7367" stroke-miterlimit="10"/>
<path d="M393.289 130.328V195.164L458.631 130.328H393.289Z" stroke="#2E7367" stroke-miterlimit="10"/>
<path d="M523.977 130.328V260H654.661V130.328H523.977ZM589.319 230.634C569.569 230.634 553.575 214.75 553.575 195.164C553.575 175.578 569.582 159.694 589.319 159.694C609.056 159.694 625.063 175.578 625.063 195.164C625.063 214.75 609.056 230.634 589.319 230.634Z" stroke="#2E7367" stroke-miterlimit="10"/>
<path d="M589.686 65.4922L524.344 130.328V0.65625H655.029V130.328L589.686 65.4922Z" stroke="#2E7367" stroke-miterlimit="10"/>
<path d="M1.58984 519.344L132.288 389.672V519.344H1.58984Z" stroke="#2E7367" stroke-miterlimit="10"/>
<path d="M262.975 519.344V454.508L197.633 519.344H262.975Z" stroke="#2E7367" stroke-miterlimit="10"/>
<path d="M132.289 519.344H197.631L132.289 454.508V519.344Z" stroke="#2E7367" stroke-miterlimit="10"/>
<path d="M197.633 389.672L262.975 454.508V389.672H197.633Z" stroke="#2E7367" stroke-miterlimit="10"/>
<path d="M132.289 389.672V454.508L197.631 389.672H132.289Z" stroke="#2E7367" stroke-miterlimit="10"/>
<path d="M653.69 389.672H654.661V519.344H523.977C523.977 447.773 582.097 389.672 653.69 389.672V389.672Z" stroke="#2E7367" stroke-miterlimit="10"/>
<path d="M785.346 519.344V454.508L720.004 519.344H785.346Z" stroke="#2E7367" stroke-miterlimit="10"/>
<path d="M654.66 519.344H720.003L654.66 454.508V519.344Z" stroke="#2E7367" stroke-miterlimit="10"/>
<path d="M720.004 389.672L785.346 454.508V389.672H720.004Z" stroke="#2E7367" stroke-miterlimit="10"/>
<path d="M654.66 389.672V454.508L720.003 389.672H654.66Z" stroke="#2E7367" stroke-miterlimit="10"/>
<path d="M393.289 389.672V519.344H523.974V389.672H393.289V389.672ZM458.631 489.978C438.882 489.978 422.888 474.094 422.888 454.508C422.888 434.922 438.895 419.038 458.631 419.038C478.368 419.038 494.375 434.922 494.375 454.508C494.375 474.094 478.368 489.978 458.631 489.978Z" stroke="#2E7367" stroke-miterlimit="10"/>
<path d="M393.29 389.672H262.973V415.1H393.29V389.672Z" stroke="#2E7367" stroke-miterlimit="10"/>
<path d="M393.29 493.549H262.973V518.976H393.29V493.549Z" stroke="#2E7367" stroke-miterlimit="10"/>
<path d="M393.29 441.249H262.973V467.399H393.29V441.249Z" stroke="#2E7367" stroke-miterlimit="10"/>
<path d="M654.66 260H785.345V389.672H784.373C712.78 389.672 654.66 331.57 654.66 260V260Z" stroke="#2E7367" stroke-miterlimit="10"/>
<path d="M589.159 324.836L523.816 389.672H654.501V260H523.816L589.159 324.836Z" stroke="#2E7367" stroke-miterlimit="10"/>
<path d="M393.474 260H262.789V389.672H393.474V260Z" stroke="#2E7367" stroke-miterlimit="10"/>
<path d="M458.792 259.921H524.134V312.562H438.687V338.79H524.134V389.593H458.792C422.706 389.593 393.449 360.568 393.449 324.757C393.449 288.945 422.706 259.921 458.792 259.921Z" stroke="#2E7367" stroke-miterlimit="10"/>
</g>
<defs>
<clipPath id="clip0_314_7388">
<rect width="786" height="520" fill="white"/>
</clipPath>
</defs>
</svg>
