<svg width="100" height="91" viewBox="0 0 100 91" fill="none" xmlns="http://www.w3.org/2000/svg">
<g clip-path="url(#clip0_81_6143)">
<path d="M88.136 5.57152L11.7142 5.73158C5.82605 5.74391 1.06273 10.5272 1.07506 16.4154L1.1793 66.1834C1.19163 72.0716 5.97495 76.8349 11.8631 76.8225L88.2849 76.6625C94.173 76.6502 98.9364 71.8668 98.924 65.9787L98.8198 16.2107C98.8075 10.3225 94.0241 5.55919 88.136 5.57152Z" fill="#3D85FD"/>
<path d="M11.8461 77.889C8.73475 77.889 5.79462 76.6687 3.57525 74.4636C1.34875 72.2442 0.121316 69.3041 0.11418 66.1856L0 16.4175C0 9.94494 5.24513 4.67127 11.7177 4.657L88.1396 4.5H88.161C94.6193 4.5 99.8787 9.74513 99.893 16.2106L100 65.9715C100.014 72.444 94.762 77.7177 88.2894 77.732L11.8676 77.889H11.839H11.8461ZM88.161 6.64087H88.1396L11.7177 6.79787C6.42974 6.81214 2.13373 11.1224 2.14801 16.4104L2.25505 66.1713C2.25505 68.7189 3.26839 71.1238 5.08813 72.9364C6.90787 74.749 9.30564 75.741 11.8461 75.741H11.8676L88.2894 75.584C90.8371 75.584 93.242 74.5706 95.0546 72.7509C96.8672 70.9312 97.8663 68.5191 97.8591 65.9715L97.7521 16.2106C97.7378 10.9297 93.4418 6.64087 88.161 6.64087Z" fill="#015048"/>
<path d="M88.136 5.57152L11.7142 5.73158C5.82605 5.74391 1.06273 10.5272 1.07506 16.4154L1.1793 66.1834C1.19163 72.0716 5.97495 76.8349 11.8631 76.8225L88.2849 76.6625C94.173 76.6502 98.9364 71.8668 98.924 65.9787L98.8198 16.2107C98.8075 10.3225 94.0241 5.55919 88.136 5.57152Z" fill="#00A887"/>
<path d="M11.8461 77.889C8.73475 77.889 5.79462 76.6687 3.57525 74.4636C1.34875 72.2442 0.121316 69.3041 0.11418 66.1856L0 16.4175C0 9.94494 5.24513 4.67127 11.7177 4.657L88.1396 4.5H88.161C94.6193 4.5 99.8787 9.74513 99.893 16.2106L100 65.9715C100.014 72.444 94.762 77.7177 88.2894 77.732L11.8676 77.889H11.839H11.8461ZM88.161 6.64087H88.1396L11.7177 6.79787C6.42974 6.81214 2.13373 11.1224 2.14801 16.4104L2.25505 66.1713C2.25505 68.7189 3.26839 71.1238 5.08813 72.9364C6.90787 74.749 9.30564 75.741 11.8461 75.741H11.8676L88.2894 75.584C90.8371 75.584 93.242 74.5706 95.0546 72.7509C96.8672 70.9312 97.8663 68.5191 97.8591 65.9715L97.7521 16.2106C97.7378 10.9297 93.4418 6.64087 88.161 6.64087Z" fill="#015048"/>
<path d="M9.026 81.9784C4.31609 81.9784 0.483931 78.1534 0.469658 73.4435L0.355479 18.0378C0.348342 13.3207 4.17336 9.4743 8.89041 9.46717L90.9571 9.2959H90.9785C95.6884 9.2959 99.5205 13.1209 99.5348 17.8308L99.649 73.2365C99.6561 77.9536 95.8311 81.8 91.1141 81.8071L9.04741 81.9784H9.026ZM91.1069 80.3799V81.0935V80.3799C95.039 80.3727 98.2289 77.1686 98.2217 73.2365L98.1076 17.8308C98.1004 13.9059 94.9034 10.716 90.9785 10.716H90.9642L8.89755 10.8873C4.96548 10.8944 1.77559 14.0986 1.78272 18.0306L1.8969 73.4363C1.90404 77.3613 5.10107 80.5512 9.026 80.5512H9.04027L91.1069 80.3799Z" fill="#015048"/>
<path d="M9.02599 86.424C4.31608 86.424 0.483921 82.599 0.469648 77.8891L0.355469 22.4763C0.355469 20.1998 1.24036 18.0518 2.85315 16.4319C4.46594 14.8048 6.61394 13.9128 8.8904 13.9056L90.957 13.7344H90.9785C95.6884 13.7344 99.5205 17.5594 99.5348 22.2693L99.649 77.675C99.6561 82.392 95.8311 86.2385 91.1141 86.2456V85.532V86.2456L9.0474 86.4169H9.02599V86.424ZM90.9785 15.1616H90.9642L8.89754 15.3329C6.9993 15.3329 5.21524 16.0822 3.86649 17.4381C2.51775 18.794 1.77558 20.578 1.78271 22.4763L1.89689 77.882C1.90403 81.8069 5.10106 84.9968 9.02599 84.9968H9.04026L91.1069 84.8255C95.039 84.8184 98.2289 81.6142 98.2217 77.6821L98.1076 22.2764C98.1004 18.3515 94.9034 15.1616 90.9785 15.1616Z" fill="#015048"/>
<path d="M91.7803 1.1172L71.078 1.16002C67.2388 1.16715 64.1059 4.31423 64.1131 8.15352L64.1345 18.0586L11.7046 18.1657C5.83862 18.1799 1.05021 22.9897 1.06448 28.8486L1.17153 78.6095C1.1858 84.4755 5.99562 89.2639 11.8545 89.2497L88.2764 89.0927C94.1423 89.0784 98.9308 84.2686 98.9165 78.4097L98.8166 29.6693V28.6488L98.7738 8.08216C98.7666 4.24287 95.6195 1.11006 91.7803 1.1172Z" fill="white"/>
<path d="M11.839 90.3273C5.38075 90.3273 0.121345 85.0822 0.107072 78.6168L2.90191e-05 28.8558C-0.0142434 22.3833 5.23802 17.1096 11.7106 17.0953L63.07 16.9883L63.0486 8.15363C63.0486 6.01276 63.8764 3.99321 65.4036 2.46606C66.9236 0.938904 68.9432 0.0968286 71.084 0.0896924L91.7862 0.046875H91.8005C93.9342 0.046875 95.9466 0.881814 97.4738 2.40183C99.001 3.92185 99.843 5.9414 99.8502 8.08227L100 78.4098C100 81.5355 98.7869 84.4756 96.5746 86.7021C94.3553 88.9286 91.4151 90.1561 88.2966 90.1632L11.8747 90.3273H11.8533H11.839ZM91.7862 2.18774L71.084 2.23056C69.514 2.23056 68.0368 2.85141 66.9165 3.97894C65.7961 5.09933 65.1895 6.58366 65.1895 8.15363L65.2109 18.0587C65.2109 18.651 64.7328 19.1292 64.1405 19.1292L11.7106 19.2362C6.42264 19.2505 2.12663 23.5608 2.1409 28.8487L2.24794 78.6096C2.25508 83.8904 6.55822 88.1793 11.839 88.1793H11.8604L88.2823 88.0152C90.83 88.0152 93.2349 87.0018 95.0475 85.1821C96.8601 83.3624 97.8592 80.9503 97.852 78.4027L97.7022 8.07513C97.7022 6.50516 97.0813 5.02796 95.9538 3.90758C94.8334 2.79432 93.3562 2.18061 91.7934 2.18061H91.7791L91.7862 2.18774Z" fill="#015048"/>
<path d="M30.9954 38.4809V62.1289H35.3474V53.7769H39.1874C42.0354 53.7769 44.1474 53.0409 45.5554 51.6009C46.9954 50.1609 47.6994 48.3369 47.6994 46.1929C47.6994 44.0489 47.0274 42.2569 45.6514 40.7529C44.2754 39.2489 42.2594 38.4809 39.5394 38.4809H30.9954ZM35.3474 49.7769V42.5449H39.6354C41.9074 42.5449 43.2514 44.1129 43.2514 46.1289C43.2514 48.1449 41.8754 49.7769 39.3154 49.7769H35.3474ZM60.3421 62.1289C63.8941 62.1289 66.7101 61.0729 68.7261 58.9609C70.7741 56.8489 71.7981 53.9689 71.7981 50.3529C71.7981 46.6729 70.8061 43.7929 68.7901 41.6809C66.7741 39.5369 64.0221 38.4809 60.5341 38.4809H51.4141V62.1289H60.3421ZM55.7661 42.6729H60.5341C62.6781 42.6729 64.3101 43.4089 65.4941 44.8489C66.6781 46.2889 67.2541 48.0809 67.2541 50.2569C67.2541 52.4649 66.6461 54.3209 65.4621 55.7609C64.2781 57.2009 62.6461 57.9369 60.5021 57.9369H55.7661V42.6729ZM80.4974 62.1289V52.4969H90.2254V48.3369H80.4974V42.6409H91.6014V38.4809H76.1454V62.1289H80.4974Z" fill="#015048"/>
</g>
<defs>
<clipPath id="clip0_81_6143">
<rect width="100" height="90.2804" fill="white" transform="translate(0 0.046875)"/>
</clipPath>
</defs>
</svg>
