<svg width="24" height="24" viewBox="0 0 24 24" fill="none" xmlns="http://www.w3.org/2000/svg">
<path d="M24 24H18.6144L18.1124 22.0026H5.88758L5.38562 24H0V14.4941H24V23.9896V24ZM19.3882 22.9961H22.9961V15.4981H1.00392V22.9961H4.61176L5.11373 20.9987H18.8967L19.3987 22.9961H19.3882Z" fill="white"/>
<path d="M5.50033 20.998H2.49902V22.002H5.50033V20.998Z" fill="white"/>
<path d="M21.5003 20.998H18.499V22.002H21.5003V20.998Z" fill="white"/>
<path d="M23.2785 15.4974H0.72168L1.41188 12.7262C1.58965 12.0046 2.23802 11.4922 2.99096 11.4922H21.0093C21.7622 11.4922 22.4106 12.0046 22.5883 12.7262L23.2785 15.4974ZM1.9975 14.4935H22.0027L21.6263 12.9667C21.5531 12.6843 21.3021 12.4961 21.0197 12.4961H2.99096C2.69815 12.4961 2.44717 12.6948 2.38442 12.9772L2.00795 14.504L1.9975 14.4935Z" fill="white"/>
<path d="M22.4948 8.50196H21.5013V1.00392H2.50002V8.50196H1.49609V0H22.4948V8.50196Z" fill="white"/>
<path d="M6.04381 9.00455C5.23858 8.97318 4.55884 8.31436 4.49609 7.53004V5.5222C4.55884 4.69606 5.23858 4.03723 6.02289 4.00586H9.94446C10.7497 4.03723 11.4294 4.69606 11.4922 5.48037V7.53004C11.4294 8.31436 10.7497 8.98364 9.96537 9.00455H6.04381V9.00455ZM9.934 5.00978H6.04381C5.78237 5.00978 5.51047 5.28168 5.48956 5.56403V7.49867C5.51047 7.74965 5.77191 8.00063 6.05426 8.01109H9.94446C10.2059 8.01109 10.4673 7.74965 10.4882 7.47775V5.5222C10.4673 5.27122 10.2059 5.02024 9.92354 5.00978H9.934Z" fill="white"/>
<path d="M14.0448 9.00455C13.2396 8.97318 12.5598 8.31436 12.4971 7.53004V5.5222C12.5598 4.69606 13.2396 4.03723 14.0239 4.00586H17.9454C18.7507 4.03723 19.4304 4.69606 19.4931 5.48037V7.53004C19.4304 8.31436 18.7507 8.98364 17.9664 9.00455H14.0448ZM17.935 5.00978H14.0448C13.7833 5.00978 13.5114 5.28168 13.4905 5.56403V7.49867C13.5114 7.74965 13.7729 8.00063 14.0552 8.01109H17.9454C18.2069 8.01109 18.4683 7.74965 18.4892 7.47775V5.5222C18.4683 5.27122 18.2069 5.02024 17.9245 5.00978H17.935Z" fill="white"/>
<path d="M12.9984 6.50391H11.001V7.50783H12.9984V6.50391Z" fill="white"/>
<path d="M3.23134 12.1203L2.25879 11.8798L3.315 7.63401C3.48232 6.96473 4.0784 6.49414 4.76859 6.49414V7.49806C4.53853 7.49806 4.33983 7.65493 4.28755 7.87453L3.23134 12.1203Z" fill="white"/>
<path d="M20.7684 12.1517L19.7017 7.87453C19.6495 7.65493 19.4508 7.49806 19.2207 7.49806V6.49414C19.9109 6.49414 20.507 6.96473 20.6743 7.63401L21.741 11.9111L20.7684 12.1517Z" fill="white"/>
</svg>
