<svg width="24" height="24" viewBox="0 0 24 24" fill="none" xmlns="http://www.w3.org/2000/svg">
<path d="M24 24H18.6144L18.1124 22.0026H5.88758L5.38562 24H0V14.4941H24V23.9896V24ZM19.3882 22.9961H22.9961V15.4981H1.00392V22.9961H4.61176L5.11373 20.9987H18.8967L19.3987 22.9961H19.3882Z" fill="#333232"/>
<path d="M5.50131 20.999H2.5V22.0029H5.50131V20.999Z" fill="#333232"/>
<path d="M21.5013 20.999H18.5V22.0029H21.5013V20.999Z" fill="#333232"/>
<path d="M23.2776 15.4984H0.720703L1.4109 12.7272C1.58868 12.0056 2.23704 11.4932 2.98998 11.4932H21.0083C21.7612 11.4932 22.4096 12.0056 22.5874 12.7272L23.2776 15.4984ZM1.99652 14.4945H22.0017L21.6253 12.9677C21.5521 12.6853 21.3011 12.4971 21.0187 12.4971H2.98998C2.69717 12.4971 2.44619 12.6958 2.38345 12.9781L2.00698 14.5049L1.99652 14.4945Z" fill="#333232"/>
<path d="M22.4948 8.50196H21.5013V1.00392H2.50002V8.50196H1.49609V0H22.4948V8.50196Z" fill="#333232"/>
<path d="M6.04381 9.00357C5.23858 8.9722 4.55884 8.31338 4.49609 7.52907V5.52122C4.55884 4.69508 5.23858 4.03626 6.02289 4.00488H9.94446C10.7497 4.03626 11.4294 4.69508 11.4922 5.47939V7.52907C11.4294 8.31338 10.7497 8.98266 9.96537 9.00357H6.04381ZM9.934 5.0088H6.04381C5.78237 5.0088 5.51047 5.2807 5.48956 5.56305V7.49769C5.51047 7.74867 5.77191 7.99965 6.05426 8.01011H9.94446C10.2059 8.01011 10.4673 7.74867 10.4882 7.47678V5.52122C10.4673 5.27024 10.2059 5.01926 9.92354 5.0088H9.934Z" fill="#333232"/>
<path d="M14.0438 9.00357C13.2386 8.9722 12.5588 8.31338 12.4961 7.52907V5.52122C12.5588 4.69508 13.2386 4.03626 14.0229 4.00488H17.9445C18.7497 4.03626 19.4294 4.69508 19.4922 5.47939V7.52907C19.4294 8.31338 18.7497 8.98266 17.9654 9.00357H14.0438ZM17.934 5.0088H14.0438C13.7824 5.0088 13.5105 5.2807 13.4896 5.56305V7.49769C13.5105 7.74867 13.7719 7.99965 14.0543 8.01011H17.9445C18.2059 8.01011 18.4673 7.74867 18.4883 7.47678V5.52122C18.4673 5.27024 18.2059 5.01926 17.9235 5.0088H17.934Z" fill="#333232"/>
<path d="M12.9993 6.50488H11.002V7.5088H12.9993V6.50488Z" fill="#333232"/>
<path d="M3.23231 12.1203L2.25977 11.8798L3.31597 7.63401C3.4833 6.96473 4.07937 6.49414 4.76957 6.49414V7.49806C4.5395 7.49806 4.34081 7.65493 4.28852 7.87453L3.23231 12.1203Z" fill="#333232"/>
<path d="M20.7684 12.1517L19.7017 7.87453C19.6495 7.65493 19.4508 7.49806 19.2207 7.49806V6.49414C19.9109 6.49414 20.507 6.96473 20.6743 7.63401L21.741 11.9111L20.7684 12.1517Z" fill="#333232"/>
</svg>
