<svg width="130" height="130" viewBox="0 0 130 130" fill="none" xmlns="http://www.w3.org/2000/svg">
<path d="M66.6763 116.809C65.7896 116.858 65.0717 117.137 64.5346 117.647C63.9982 118.169 63.7445 118.808 63.7856 119.563C63.8352 120.473 64.329 121.155 65.2544 121.598C65.4766 121.706 65.8459 121.866 66.3735 122.066C66.9018 122.277 67.2345 122.427 67.3948 122.503C67.9011 122.752 68.1723 123.097 68.1951 123.517C68.231 124.176 67.7026 124.625 66.9358 124.667C66.2048 124.707 65.5774 124.44 65.0529 123.856L64.2537 124.849C64.983 125.663 65.9045 126.033 67.0188 125.972C67.8456 125.927 68.5036 125.651 68.9934 125.156C69.4832 124.66 69.7028 124.06 69.665 123.365C69.6167 122.478 69.1343 121.783 68.2062 121.293C67.9714 121.173 67.6148 121.025 67.1603 120.845C66.6946 120.678 66.3878 120.563 66.2401 120.499C65.6361 120.219 65.3276 119.851 65.3035 119.408C65.2669 118.737 65.8367 118.165 66.7474 118.115C67.6221 118.068 68.4736 118.478 69.0138 119.35L69.8995 118.401C69.2025 117.297 67.9703 116.739 66.6763 116.809Z" fill="white"/>
<path d="M59.7542 116.582C58.4614 116.491 57.2531 117.08 56.6556 118.048L57.7003 118.76C58.0801 118.149 58.891 117.737 59.6571 117.79C60.2556 117.833 60.7441 118.071 61.1096 118.518C61.4752 118.965 61.6433 119.482 61.6003 120.093C61.5565 120.715 61.3168 121.215 60.8803 121.606C60.4439 121.996 59.9148 122.163 59.3043 122.12C58.5382 122.066 57.8631 121.574 57.5161 120.864L56.3839 121.398C56.8236 122.499 57.9384 123.239 59.2312 123.33C60.2487 123.402 61.0974 123.137 61.7885 122.548C62.4795 121.959 62.8591 121.18 62.929 120.186C62.9981 119.204 62.7314 118.38 62.1416 117.701C61.5518 117.022 60.7477 116.652 59.7542 116.582Z" fill="white"/>
<path d="M55.0566 116.007L54.3532 119.489C54.1346 120.571 53.3145 121.176 52.3382 120.979C51.4325 120.796 50.9515 120.026 51.1868 118.861L51.8925 115.368L50.5986 115.106L49.8192 118.964C49.6458 119.823 49.7503 120.518 50.1399 121.074C50.5295 121.63 51.0725 121.972 51.7665 122.112C52.6604 122.293 53.4798 122.055 53.9727 121.554L53.2907 124.93L54.5493 125.184L56.3504 116.268L55.0566 116.007Z" fill="white"/>
<path d="M43.0058 118.269C43.3302 119.131 43.9196 119.703 44.7475 119.989C45.6208 120.291 46.4599 120.251 47.2462 119.85C48.0324 119.449 48.5747 118.798 48.8923 117.88C49.2099 116.961 49.193 116.092 48.8303 115.268C48.4676 114.444 47.8362 113.883 46.963 113.581C46.135 113.295 45.3182 113.381 44.535 113.846L44.8252 113.007L43.623 112.591L41.5095 118.704L42.7117 119.12L43.0058 118.269ZM46.3968 114.668C46.9752 114.868 47.3849 115.225 47.6106 115.748C47.8363 116.27 47.8491 116.82 47.6491 117.399C47.4492 117.977 47.0991 118.402 46.5989 118.674C46.0988 118.945 45.5518 118.985 44.9734 118.785C44.395 118.585 44.0006 118.22 43.7636 117.693C43.5266 117.167 43.5137 116.617 43.7098 116.05C43.9098 115.471 44.2598 115.046 44.7713 114.779C45.2828 114.511 45.8184 114.468 46.3968 114.668Z" fill="white"/>
<path d="M40.7182 110.784C39.1283 109.993 37.7069 110.451 36.9207 112.031L35.2199 115.447L36.4123 116.04L38.1078 112.635C38.5517 111.743 39.3132 111.452 40.1726 111.88C41.0212 112.303 41.248 113.113 40.8148 113.983L39.1193 117.388L40.301 117.976L42.0018 114.56C42.7719 113.014 42.265 111.555 40.7182 110.784Z" fill="white"/>
<path d="M26.6124 107.962C26.6285 108.882 26.9727 109.604 27.6375 110.137C28.3585 110.715 29.1605 110.942 30.0508 110.81C30.9336 110.687 31.6798 110.255 32.2727 109.515C32.8731 108.766 33.1324 107.944 33.0676 107.046C32.9953 106.157 32.5893 105.417 31.8682 104.839C31.1847 104.291 30.3958 104.105 29.513 104.305L30.0758 103.602L29.0552 102.784L23.3667 109.882L24.4061 110.715L26.6124 107.962ZM27.9934 106.086C28.3761 105.608 28.8562 105.316 29.4185 105.229C29.9808 105.141 30.5016 105.297 30.9792 105.68C31.4567 106.062 31.7224 106.537 31.7594 107.105C31.7964 107.673 31.616 108.205 31.2333 108.682C30.8506 109.16 30.3856 109.433 29.8233 109.521C29.2609 109.608 28.7326 109.462 28.255 109.079C27.7775 108.696 27.5193 108.212 27.4823 107.644C27.4453 107.077 27.6107 106.563 27.9934 106.086Z" fill="white"/>
<path d="M20.8606 102.053C20.75 102.967 21.0081 103.747 21.6098 104.384C22.2445 105.055 23.007 105.408 23.8896 105.416C24.7722 105.423 25.5539 105.097 26.2603 104.43C26.9667 103.762 27.3537 102.984 27.413 102.086C27.4723 101.187 27.172 100.398 26.5373 99.7265C25.9356 99.0898 25.1716 98.7881 24.2619 98.8389L24.9073 98.2289L24.0336 97.3045L19.3328 101.747L20.2065 102.672L20.8606 102.053ZM25.5328 100.428C25.9532 100.873 26.1511 101.379 26.1096 101.947C26.0681 102.514 25.825 103.008 25.3802 103.429C24.9355 103.849 24.4286 104.064 23.8596 104.073C23.2905 104.083 22.7874 103.865 22.367 103.42C21.9466 102.975 21.7657 102.469 21.7989 101.893C21.8321 101.317 22.0753 100.823 22.5113 100.411C22.9561 99.9904 23.463 99.7755 24.0403 99.7748C24.6175 99.7741 25.1124 99.9834 25.5328 100.428Z" fill="white"/>
<path d="M22.7503 94.9993C22.3292 94.4301 21.8251 94.0717 21.2523 93.9431C20.6796 93.8146 20.1581 93.9168 19.7047 94.2523C19.1355 94.6734 18.9227 95.2936 19.0494 96.1105C19.0839 96.3387 19.1563 96.6584 19.2639 97.0863L19.4346 97.781C19.5233 98.1632 19.4374 98.4506 19.1866 98.6362C18.8683 98.8718 18.4248 98.7969 18.1036 98.3628C17.7681 97.9094 17.6827 97.3904 17.8305 96.8034L16.7177 96.6714C16.4798 97.4594 16.6308 98.2284 17.1804 98.9712C17.573 99.5018 18.0388 99.8288 18.5613 99.9498C19.0766 100.061 19.5548 99.961 19.9889 99.6399C20.5581 99.2187 20.7755 98.6249 20.6581 97.861C20.64 97.6952 20.5723 97.402 20.4718 96.9837C20.3545 96.563 20.2843 96.2865 20.2683 96.164C20.1917 95.7579 20.2872 95.4633 20.538 95.2777C20.895 95.0136 21.4485 95.1564 21.8196 95.6581C22.1836 96.15 22.2893 96.8779 22.0136 97.5746L23.1377 97.8027C23.54 96.8332 23.3427 95.7999 22.7503 94.9993Z" fill="white"/>
<path d="M15.0872 86.2963L10.2212 91.4752L10.8847 92.9135L17.3586 85.7771L16.9715 84.9381L7.35578 85.2643L7.99924 86.659L15.0872 86.2963Z" fill="white"/>
<path d="M8.56951 83.1824C8.41429 82.7156 7.92875 82.4723 7.4391 82.6351C6.97223 82.7903 6.72899 83.2759 6.88421 83.7427C7.047 84.2324 7.53633 84.487 8.0032 84.3318C8.49285 84.169 8.7323 83.6721 8.56951 83.1824ZM9.17735 82.3101L9.59379 83.5627L15.7315 81.5221L15.315 80.2695L9.17735 82.3101Z" fill="white"/>
<path d="M8.08148 73.9459C7.51138 74.6684 7.32088 75.4451 7.49823 76.2784C7.69057 77.1822 8.16734 77.8659 8.94027 78.3272C9.70147 78.7909 10.5528 78.9287 11.48 78.7313C12.419 78.5315 13.1405 78.059 13.6586 77.323C14.165 76.5895 14.3196 75.7592 14.1272 74.8554C13.9449 73.9986 13.4521 73.3551 12.6422 72.9508L13.5225 72.7634L13.2502 71.4841L4.35349 73.3775L4.63076 74.6803L8.08148 73.9459ZM10.3385 73.3675C10.9371 73.2401 11.4935 73.318 11.9842 73.6061C12.475 73.8943 12.7794 74.3448 12.9068 74.9434C13.0342 75.542 12.9396 76.0774 12.6087 76.5404C12.2778 77.0034 11.8014 77.3011 11.2028 77.4285C10.6042 77.5559 10.0713 77.473 9.58052 77.1849C9.08979 76.8967 8.77361 76.4487 8.64621 75.8501C8.51882 75.2515 8.62518 74.7136 8.95605 74.2506C9.28691 73.7876 9.73991 73.4948 10.3385 73.3675Z" fill="white"/>
<path d="M9.49636 64.5316C8.49095 64.6038 7.72248 64.9598 7.17812 65.5884C6.63376 66.217 6.40152 67.0036 6.46771 67.9253C6.53735 68.8948 6.91812 69.6735 7.59633 70.2384C8.27454 70.8032 9.09797 71.0448 10.0675 70.9752C11.7671 70.8531 13.3799 69.6906 13.2063 67.2728C13.1281 66.1836 12.6463 65.1715 12.1083 64.5485L11.1783 65.1687C11.6385 65.7131 11.9774 66.5791 12.0299 67.3092C12.1193 68.554 11.4878 69.3092 10.4961 69.5729L10.1342 64.5339C9.89221 64.5152 9.6759 64.5187 9.49636 64.5316ZM7.60479 67.8436C7.53515 66.8741 8.13929 66.0727 9.14893 65.892L9.41888 69.6503C8.39972 69.531 7.67614 68.837 7.60479 67.8436Z" fill="white"/>
<path d="M9.77027 63.6184C10.7284 63.6777 11.5509 63.404 12.249 62.81C12.9477 62.2041 13.3215 61.4096 13.3831 60.4155C13.4446 59.4215 13.1717 58.587 12.5522 57.9114C11.9335 57.2239 11.1511 56.8508 10.1929 56.7915C9.24675 56.7329 8.43624 57.0074 7.73746 57.6133C7.03942 58.2073 6.65364 59.001 6.59209 59.9951C6.53054 60.9892 6.81548 61.8244 7.43418 62.512C8.05361 63.1875 8.82408 63.5598 9.77027 63.6184ZM10.1106 58.1209C10.7095 58.158 11.2119 58.3935 11.6059 58.8267C12.0006 59.2479 12.1858 59.7523 12.1495 60.3392C12.1131 60.926 11.8671 61.4038 11.4227 61.785C10.979 62.1543 10.4514 62.326 9.85258 62.289C9.2657 62.2526 8.76329 62.0171 8.36856 61.5959C7.9626 61.162 7.77742 60.6576 7.81375 60.0707C7.85009 59.4839 8.09608 59.0062 8.55172 58.6376C8.99613 58.2563 9.52375 58.0846 10.1106 58.1209Z" fill="white"/>
<path d="M13.1809 47.2221L11.977 46.8934L10.7314 51.4544L11.9354 51.7831L13.1809 47.2221Z" fill="white"/>
<path d="M19.2434 40.6221C19.6431 39.8292 19.7583 39.0675 19.5835 38.3478C19.398 37.6227 18.9705 37.0846 18.2954 36.7444C17.481 36.3339 16.6435 36.4224 15.7991 37.0046C15.5947 37.1435 15.2719 37.3839 14.836 37.742C14.3895 38.0948 14.0936 38.3085 13.9484 38.41C13.4805 38.7251 13.0456 38.7881 12.6705 38.599C12.0812 38.302 11.9546 37.62 12.3003 36.9342C12.6297 36.2805 13.1731 35.8691 13.9411 35.7052L13.478 34.5177C12.4093 34.745 11.6292 35.3596 11.1269 36.3562C10.7542 37.0955 10.666 37.8036 10.8517 38.4751C11.0373 39.1465 11.4489 39.6362 12.0704 39.9495C12.8634 40.3492 13.7062 40.2768 14.5935 39.7162C14.814 39.572 15.1207 39.3368 15.5027 39.0322C15.8794 38.7114 16.1323 38.5029 16.2614 38.4068C16.8047 38.0221 17.2772 37.9378 17.6737 38.1377C18.2738 38.4401 18.4859 39.219 18.0754 40.0334C17.6811 40.8156 16.9012 41.3497 15.8761 41.384L16.2584 42.6249C17.5627 42.5701 18.66 41.7794 19.2434 40.6221Z" fill="white"/>
<path d="M22.8883 34.733C23.611 33.6572 23.7023 32.3162 23.16 31.3158L22.0231 31.8676C22.3637 32.5012 22.3172 33.4096 21.889 34.0472C21.5544 34.5452 21.104 34.8498 20.5345 34.9443C19.9651 35.0388 19.433 34.9271 18.9249 34.5859C18.407 34.2379 18.0924 33.7808 17.9713 33.2079C17.8501 32.6351 17.9685 32.093 18.3098 31.585C18.7381 30.9475 19.5014 30.6073 20.29 30.66L20.391 29.4123C19.2167 29.2451 18.0197 29.8433 17.2971 30.9191C16.7283 31.7658 16.5355 32.6338 16.7021 33.5263C16.8687 34.4189 17.3554 35.1361 18.1822 35.6915C18.999 36.2402 19.847 36.4196 20.7296 36.2463C21.6122 36.0731 22.3329 35.5597 22.8883 34.733Z" fill="white"/>
<path d="M25.7268 30.946L23.0578 28.6022C22.2283 27.8737 22.1115 26.8609 22.7687 26.1125C23.3784 25.4182 24.2861 25.3848 25.1788 26.1687L27.8568 28.5204L28.7278 27.5286L25.7703 24.9314C25.112 24.3534 24.4577 24.0982 23.7814 24.1591C23.1051 24.22 22.5379 24.5204 22.0707 25.0524C21.469 25.7377 21.2677 26.567 21.4561 27.2436L18.8683 24.971L18.021 25.9358L24.8558 31.9378L25.7268 30.946Z" fill="white"/>
<path d="M29.7651 19.3683C28.8567 19.2207 28.0671 19.447 27.4066 20.0224C26.7099 20.6293 26.3267 21.377 26.283 22.2585C26.2393 23.1401 26.5334 23.9343 27.1718 24.6672C27.8103 25.4001 28.5725 25.8183 29.4675 25.914C30.3625 26.0096 31.1634 25.7416 31.8601 25.1346C32.5206 24.5592 32.853 23.8081 32.8392 22.8971L33.4225 23.5666L34.3816 22.7311L30.133 17.8542L29.1739 18.6897L29.7651 19.3683ZM31.1997 24.1025C30.7383 24.5045 30.2242 24.6818 29.6588 24.6173C29.0934 24.5529 28.6097 24.2899 28.2077 23.8284C27.8057 23.367 27.6115 22.8518 27.6252 22.2829C27.6388 21.714 27.877 21.22 28.3384 20.818C28.7999 20.416 29.3128 20.2557 29.8872 20.3123C30.4617 20.3689 30.9454 20.6318 31.3395 21.0842C31.7415 21.5457 31.9357 22.0609 31.913 22.6377C31.8903 23.2145 31.6612 23.7005 31.1997 24.1025Z" fill="white"/>
<path d="M37.3955 21.1142C38.8737 20.1297 39.1838 18.6688 38.206 17.2006L36.0907 14.0246L34.982 14.763L37.0907 17.929C37.6428 18.758 37.516 19.5633 36.717 20.0955C35.928 20.621 35.1127 20.4143 34.5739 19.6053L32.4652 16.4393L31.3665 17.171L33.4819 20.347C34.4398 21.7852 35.9573 22.0721 37.3955 21.1142Z" fill="white"/>
<path d="M46.8671 10.2855C46.0611 9.84115 45.2638 9.78017 44.4707 10.0914C43.6105 10.4289 43.0139 11.011 42.6852 11.8489C42.3522 12.6757 42.3554 13.5381 42.7017 14.4206C43.0523 15.3143 43.6364 15.9488 44.4472 16.3396C45.2536 16.7193 46.0981 16.736 46.9582 16.3985C47.7737 16.0786 48.328 15.4873 48.5945 14.6222L48.9232 15.46L50.1408 14.9823L46.8185 6.5147L45.5785 7.00122L46.8671 10.2855ZM47.8068 12.4176C48.0303 12.9873 48.0444 13.5489 47.8404 14.0802C47.6363 14.6114 47.2417 14.9854 46.6719 15.2089C46.1022 15.4325 45.5585 15.4266 45.0477 15.1759C44.5368 14.9252 44.1652 14.5038 43.9417 13.9341C43.7181 13.3644 43.7128 12.8251 43.9168 12.2938C44.1209 11.7626 44.5112 11.3774 45.0809 11.1539C45.6506 10.9304 46.1987 10.9473 46.7096 11.1981C47.2204 11.4488 47.5833 11.8478 47.8068 12.4176Z" fill="white"/>
<path d="M54.8555 8.24072C54.1183 7.68976 53.3136 7.5253 52.4618 7.73005C51.5634 7.94602 50.878 8.43169 50.4316 9.19311C49.9852 9.95454 49.8786 10.7947 50.1058 11.7398C50.333 12.6849 50.8154 13.4082 51.5647 13.9068C52.314 14.4055 53.1481 14.5382 54.0465 14.3222C54.8983 14.1175 55.5403 13.6052 55.9494 12.7911L56.1569 13.6545L57.3937 13.3572L55.8819 7.06834L54.6451 7.36564L54.8555 8.24072ZM53.9383 13.1017C53.3432 13.2448 52.8055 13.1642 52.334 12.8456C51.8624 12.527 51.5551 12.0702 51.4121 11.4751C51.2691 10.8801 51.3351 10.3335 51.6103 9.83539C51.8855 9.33727 52.3251 9.00945 52.9201 8.8664C53.5152 8.72336 54.044 8.81838 54.5272 9.13419C55.0104 9.45 55.3177 9.90683 55.458 10.4902C55.601 11.0853 55.5349 11.6318 55.2481 12.1328C54.9612 12.6337 54.5333 12.9587 53.9383 13.1017Z" fill="white"/>
<path d="M60.0314 13.3924C60.7347 13.3107 61.2966 13.0521 61.6933 12.6194C62.09 12.1867 62.261 11.6835 62.1959 11.1233C62.1141 10.4201 61.6822 9.92662 60.9108 9.62972C60.6957 9.54599 60.3825 9.44952 59.9578 9.32976L59.2703 9.13182C58.8947 9.01843 58.6882 8.80082 58.6522 8.49091C58.6065 8.09756 58.8923 7.75023 59.4287 7.68787C59.9889 7.62275 60.4815 7.8071 60.9169 8.22763L61.5856 7.3284C61.0207 6.72963 60.2786 6.47763 59.3608 6.58433C58.7052 6.66054 58.1896 6.90169 57.8245 7.29448C57.4713 7.68588 57.32 8.15047 57.3823 8.68685C57.4641 9.39012 57.8707 9.8744 58.5917 10.153C58.7445 10.2198 59.0325 10.3071 59.4452 10.4283C59.8685 10.5361 60.1432 10.6129 60.2574 10.6601C60.6477 10.7959 60.8556 11.0254 60.8916 11.3353C60.9429 11.7764 60.5434 12.1852 59.9236 12.2573C59.3157 12.328 58.6319 12.0571 58.1651 11.4711L57.4075 12.3323C58.0478 13.164 59.0421 13.5074 60.0314 13.3924Z" fill="white"/>
<path d="M71.394 11.0803L69.3263 4.28151L67.7485 4.14068L70.7132 13.3086L71.6335 13.3907L76.1392 4.88963L74.6093 4.75307L71.394 11.0803Z" fill="white"/>
<path d="M77.342 6.97991C77.8242 7.0778 78.2769 6.77788 78.3795 6.2722C78.4774 5.79003 78.1775 5.33731 77.6954 5.23941C77.1897 5.13675 76.7252 5.43428 76.6273 5.91644C76.5246 6.42212 76.8363 6.87724 77.342 6.97991ZM77.7958 7.94141L76.5021 7.67878L75.2152 14.0175L76.5088 14.2801L77.7958 7.94141Z" fill="white"/>
<path d="M85.5944 11.1565C85.2518 10.3023 84.6732 9.75037 83.8622 9.48917C82.9827 9.2059 82.1523 9.27886 81.3675 9.71946C80.5863 10.1486 80.0428 10.8183 79.7522 11.7206C79.4579 12.6344 79.5084 13.4953 79.8886 14.3112C80.2725 15.1156 80.9156 15.6631 81.7951 15.9464C82.6289 16.2149 83.4323 16.1081 84.1862 15.6071L83.9103 16.4638L85.1553 16.8648L87.9439 8.20674L86.676 7.79839L85.5944 11.1565ZM84.9721 13.4018C84.7845 13.9844 84.4399 14.4281 83.9456 14.7101C83.4513 14.9922 82.9091 15.0319 82.3265 14.8442C81.744 14.6566 81.3268 14.3079 81.0901 13.7904C80.8533 13.2729 80.8324 12.7115 81.0201 12.129C81.2077 11.5464 81.5449 11.1256 82.0392 10.8435C82.5335 10.5615 83.0794 10.5104 83.662 10.698C84.2445 10.8856 84.658 11.2457 84.8948 11.7632C85.1315 12.2807 85.1597 12.8193 84.9721 13.4018Z" fill="white"/>
<path d="M93.0536 17.0707C93.4916 16.1629 93.5656 15.3192 93.2916 14.5341C93.0176 13.749 92.451 13.1558 91.6189 12.7543C90.7434 12.3319 89.8785 12.2743 89.0509 12.5811C88.2234 12.888 87.6038 13.4817 87.1814 14.3571C86.4408 15.8918 86.6458 17.8694 88.8289 18.9228C89.8124 19.3973 90.93 19.4836 91.7382 19.3273L91.6635 18.212C90.9622 18.3399 90.0425 18.2026 89.3832 17.8845C88.2592 17.3421 87.9188 16.4184 88.184 15.4271L92.734 17.6227C92.8707 17.4221 92.9754 17.2328 93.0536 17.0707ZM91.1234 13.781C91.9988 14.2034 92.3929 15.1264 92.0469 16.092L88.6533 14.4545C89.2643 13.6301 90.2264 13.3482 91.1234 13.781Z" fill="white"/>
<path d="M93.708 17.7643C93.1794 18.5656 93.0072 19.4152 93.1747 20.3163C93.3522 21.2241 93.8549 21.9438 94.6863 22.4922C95.5178 23.0407 96.3773 23.2195 97.2716 23.0188C98.176 22.8246 98.8891 22.3319 99.4177 21.5305C99.9397 20.7392 100.105 19.8997 99.9278 18.9919C99.7603 18.0908 99.2642 17.361 98.4328 16.8126C97.6014 16.2642 96.7352 16.0953 95.8309 16.2895C94.9365 16.4902 94.23 16.9729 93.708 17.7643ZM98.3058 20.7971C97.9755 21.298 97.521 21.6164 96.9492 21.7423C96.3874 21.8749 95.8577 21.7843 95.3669 21.4605C94.8761 21.1367 94.5843 20.6855 94.475 20.1103C94.3757 19.5416 94.4895 18.9986 94.8199 18.4977C95.1437 18.0069 95.5981 17.6885 96.1599 17.5559C96.7383 17.4199 97.268 17.5105 97.7588 17.8343C98.2496 18.1581 98.5414 18.6093 98.6341 19.188C98.7434 19.7632 98.6296 20.3063 98.3058 20.7971Z" fill="white"/>
<path d="M106.229 28.8857L107.113 28.0054L103.779 24.6539L102.894 25.5342L106.229 28.8857Z" fill="white"/>
<path d="M108.933 37.4296C109.421 38.1711 110.024 38.6503 110.735 38.8572C111.457 39.0574 112.136 38.9546 112.767 38.5386C113.529 38.0368 113.869 37.2665 113.785 36.2442C113.766 35.9979 113.718 35.5982 113.625 35.0419C113.541 34.479 113.503 34.116 113.488 33.9395C113.448 33.3768 113.609 32.9683 113.96 32.7372C114.511 32.3741 115.166 32.6039 115.588 33.2452C115.991 33.8564 116.077 34.5325 115.837 35.2801L117.097 35.4699C117.432 34.43 117.288 33.4474 116.674 32.5155C116.218 31.8241 115.648 31.395 114.973 31.2217C114.299 31.0483 113.669 31.1614 113.088 31.5443C112.346 32.0329 111.99 32.7998 112.034 33.8485C112.049 34.1115 112.1 34.4945 112.174 34.9775C112.265 35.4639 112.32 35.7871 112.339 35.9469C112.402 36.6096 112.24 37.0613 111.869 37.3056C111.308 37.6754 110.527 37.4715 110.025 36.71C109.543 35.9785 109.468 35.0362 109.949 34.1302L108.682 33.8438C108.08 35.0021 108.22 36.3475 108.933 37.4296Z" fill="white"/>
<path d="M112.225 43.5235C112.798 44.6859 113.915 45.4329 115.053 45.4608L115.14 44.2001C114.421 44.1799 113.657 43.6872 113.317 42.9984C113.052 42.4602 113.012 41.918 113.213 41.3771C113.415 40.8362 113.777 40.4304 114.326 40.1598C114.886 39.8839 115.439 39.8387 115.996 40.0189C116.553 40.1992 116.964 40.5718 117.235 41.1208C117.574 41.8096 117.489 42.641 117.05 43.2986L118.082 44.0074C118.812 43.0724 118.889 41.7365 118.316 40.5741C117.865 39.6592 117.209 39.0598 116.352 38.7598C115.495 38.4598 114.63 38.5247 113.737 38.965C112.854 39.4001 112.276 40.0462 111.987 40.8979C111.698 41.7495 111.784 42.6302 112.225 43.5235Z" fill="white"/>
<path d="M114.096 47.8719L117.457 46.7245C118.502 46.3679 119.439 46.7711 119.76 47.7137C120.059 48.5882 119.636 49.3919 118.511 49.7756L115.138 50.9268L115.565 52.1761L119.29 50.9047C120.119 50.6218 120.666 50.1814 120.95 49.5646C121.234 48.9479 121.256 48.3064 121.027 47.6363C120.733 46.7732 120.114 46.1856 119.433 46.0122L122.692 44.8997L122.278 43.6845L113.669 46.6226L114.096 47.8719Z" fill="white"/>
<path d="M122.123 57.1387C122.703 56.4245 122.9 55.6271 122.73 54.7678C122.551 53.8613 122.094 53.1567 121.351 52.6798C120.608 52.203 119.773 52.0624 118.819 52.2511C117.866 52.4398 117.124 52.8925 116.595 53.621C116.066 54.3495 115.9 55.1775 116.079 56.0839C116.249 56.9433 116.735 57.6056 117.532 58.0473L116.661 58.2197L116.908 59.4675L123.253 58.2118L123.006 56.964L122.123 57.1387ZM117.303 56.0252C117.184 55.4249 117.287 54.8909 117.624 54.4326C117.962 53.9744 118.431 53.6859 119.031 53.5671C119.631 53.4483 120.175 53.5365 120.661 53.8316C121.148 54.1268 121.458 54.5793 121.576 55.1796C121.695 55.78 121.579 56.3045 121.244 56.7745C120.909 57.2445 120.44 57.5331 119.851 57.6495C119.251 57.7683 118.707 57.6802 118.218 57.3732C117.729 57.0663 117.422 56.6256 117.303 56.0252Z" fill="white"/>
<path d="M116.812 62.8873C116.929 64.6594 118.042 65.6559 119.802 65.5391L123.609 65.2863L123.521 63.9573L119.725 64.2092C118.732 64.2752 118.096 63.7641 118.033 62.8062C117.97 61.8603 118.555 61.2562 119.525 61.1919L123.321 60.9399L123.233 59.6228L119.426 59.8755C117.702 59.99 116.697 61.1631 116.812 62.8873Z" fill="white"/>
<path d="M121.484 76.4922C122.271 76.0145 122.721 75.3535 122.846 74.5107C122.981 73.5967 122.774 72.7895 122.211 72.0872C121.66 71.3867 120.91 70.96 119.972 70.8208C119.023 70.6798 118.182 70.8704 117.439 71.3788C116.708 71.889 116.273 72.613 116.137 73.527C116.009 74.3935 116.246 75.1686 116.863 75.8305L115.973 75.6983L115.781 76.9922L124.778 78.3278L124.974 77.0103L121.484 76.4922ZM119.167 76.2453C118.562 76.1555 118.068 75.888 117.709 75.4465C117.35 75.005 117.222 74.4765 117.312 73.8711C117.401 73.2658 117.677 72.7972 118.149 72.479C118.621 72.1609 119.171 72.0485 119.777 72.1383C120.382 72.2282 120.853 72.4921 121.212 72.9336C121.571 73.3751 121.71 73.9054 121.62 74.5108C121.531 75.1161 121.243 75.583 120.771 75.9011C120.299 76.2193 119.772 76.3352 119.167 76.2453Z" fill="white"/>
<path d="M119.28 84.4383C120.125 84.0734 120.668 83.4575 120.915 82.6169C121.175 81.7303 121.095 80.894 120.657 80.1277C120.219 79.3614 119.543 78.8506 118.611 78.577C117.678 78.3033 116.811 78.3615 116.005 78.7629C115.199 79.1644 114.669 79.8217 114.409 80.7083C114.162 81.5489 114.287 82.3607 114.789 83.1209L113.937 82.8709L113.579 84.0915L119.785 85.9122L120.143 84.6917L119.28 84.4383ZM115.521 81.2222C115.693 80.6349 116.031 80.2088 116.542 79.9585C117.053 79.7083 117.602 79.6693 118.19 79.8416C118.777 80.0139 119.218 80.3433 119.513 80.8301C119.808 81.3168 119.873 81.8612 119.701 82.4484C119.529 83.0357 119.183 83.447 118.668 83.7087C118.154 83.9705 117.605 84.0095 117.029 83.8406C116.442 83.6683 116.001 83.3388 115.709 82.8406C115.418 82.3424 115.349 81.8094 115.521 81.2222Z" fill="white"/>
<path d="M112.234 86.3608C111.955 87.0113 111.9 87.6274 112.077 88.1869C112.255 88.7464 112.606 89.1452 113.124 89.3677C113.775 89.6471 114.418 89.5183 115.06 88.9971C115.239 88.8523 115.479 88.6287 115.794 88.3201L116.308 87.8225C116.594 87.5532 116.885 87.4825 117.172 87.6056C117.536 87.7619 117.695 88.1827 117.482 88.6789C117.259 89.1971 116.854 89.5325 116.272 89.7007L116.719 90.7283C117.52 90.5366 118.108 90.0186 118.472 89.1695C118.733 88.5631 118.78 87.9959 118.622 87.4837C118.458 86.9825 118.131 86.6199 117.634 86.4068C116.984 86.1275 116.361 86.239 115.761 86.7255C115.627 86.8247 115.407 87.0309 115.097 87.3285C114.793 87.6419 114.589 87.8419 114.491 87.9174C114.179 88.1882 113.877 88.2542 113.59 88.1311C113.182 87.956 113.026 87.406 113.273 86.8326C113.514 86.2702 114.089 85.8121 114.83 85.6991L114.46 84.6132C113.42 84.7543 112.627 85.4455 112.234 86.3608Z" fill="white"/>
<path d="M108.581 97.3671L115.507 98.9597L116.414 97.6617L106.988 95.6671L106.458 96.4243L111.587 104.565L112.467 103.306L108.581 97.3671Z" fill="white"/>
<path d="M109.175 104.566C108.85 104.936 108.885 105.478 109.272 105.819C109.641 106.144 110.183 106.109 110.508 105.74C110.849 105.352 110.823 104.801 110.453 104.476C110.066 104.135 109.516 104.179 109.175 104.566ZM108.115 104.481L108.987 103.49L104.131 99.2175L103.259 100.208L108.115 104.481Z" fill="white"/>
<path d="M101.444 109.642C102.355 109.77 103.122 109.544 103.752 108.97C104.436 108.349 104.786 107.592 104.795 106.692C104.812 105.801 104.502 104.996 103.864 104.295C103.218 103.585 102.446 103.2 101.55 103.123C100.661 103.056 99.8658 103.341 99.1821 103.962C98.534 104.552 98.2265 105.301 98.2856 106.205L97.6801 105.539L96.7124 106.419L102.832 113.149L103.817 112.252L101.444 109.642ZM99.8066 107.984C99.3948 107.532 99.1817 107.012 99.1832 106.443C99.1848 105.874 99.4204 105.384 99.8732 104.972C100.326 104.56 100.836 104.372 101.403 104.424C101.969 104.477 102.467 104.738 102.878 105.191C103.29 105.644 103.487 106.146 103.486 106.715C103.484 107.284 103.257 107.783 102.804 108.195C102.351 108.606 101.833 108.786 101.266 108.733C100.699 108.681 100.218 108.437 99.8066 107.984Z" fill="white"/>
<path d="M92.6 113.166C93.1691 113.997 93.8639 114.482 94.6812 114.635C95.4985 114.788 96.2949 114.593 97.0576 114.071C97.8598 113.522 98.3405 112.801 98.4865 111.93C98.6326 111.06 98.4263 110.227 97.8775 109.425C96.9154 108.018 95.0984 107.211 93.0977 108.58C92.1964 109.196 91.5651 110.122 91.2981 110.901L92.3025 111.392C92.5408 110.72 93.1179 109.991 93.7221 109.577C94.7521 108.873 95.7227 109.038 96.4503 109.761L92.2805 112.613C92.3863 112.832 92.4983 113.017 92.6 113.166ZM96.4139 113.13C95.6117 113.679 94.6151 113.561 93.95 112.78L97.06 110.653C97.4707 111.593 97.236 112.568 96.4139 113.13Z" fill="white"/>
<path d="M91.6736 113.387C91.2419 112.53 90.5909 111.958 89.7261 111.654C88.8505 111.356 87.9759 111.434 87.0863 111.881C86.1967 112.329 85.6136 112.986 85.3423 113.861C85.0603 114.742 85.1325 115.606 85.5641 116.463C85.9904 117.31 86.636 117.872 87.5116 118.17C88.3764 118.473 89.2564 118.407 90.146 117.959C91.0356 117.511 91.6133 116.844 91.8953 115.963C92.1666 115.087 92.0999 114.234 91.6736 113.387ZM86.7539 115.864C86.4841 115.328 86.4342 114.776 86.6098 114.217C86.7746 113.664 87.1169 113.25 87.6421 112.985C88.1673 112.721 88.7039 112.693 89.2572 112.884C89.7998 113.081 90.214 113.451 90.4838 113.986C90.7482 114.512 90.7981 115.064 90.6332 115.617C90.4631 116.187 90.1208 116.601 89.5956 116.865C89.0704 117.13 88.5338 117.158 87.9858 116.95C87.4325 116.759 87.0183 116.39 86.7539 115.864Z" fill="white"/>
<path d="M75.7923 118.707L76.1151 119.912L80.6822 118.689L80.3594 117.484L75.7923 118.707Z" fill="white"/>
</svg>
