<svg width="15" height="16" viewBox="0 0 15 16" fill="none" xmlns="http://www.w3.org/2000/svg">
<g clip-path="url(#clip0_1495_7205)">
<path d="M0 11.6611C0 9.22 0 6.77889 0 4.33778C0.0244336 4.18444 0.0399822 4.02889 0.0744114 3.87778C0.456464 2.17889 1.4849 1.08889 3.16304 0.622222C3.38183 0.562222 3.61173 0.54 3.83607 0.5C6.2761 0.5 8.71613 0.5 11.1562 0.5C11.2039 0.508889 11.2506 0.521111 11.2983 0.525556C11.7081 0.571111 12.1091 0.661111 12.4811 0.837778C14.0915 1.6 14.96 2.87556 14.9845 4.65889C15.0155 6.88444 14.9933 9.11111 14.9911 11.3378C14.9911 12.2 14.7579 13 14.257 13.7033C13.4074 14.8956 12.2379 15.4933 10.7741 15.4978C8.58841 15.5033 6.4016 15.5022 4.2159 15.4956C3.93492 15.4956 3.64616 15.48 3.37295 15.42C1.67592 15.0456 0.589738 14.0122 0.123279 12.3356C0.0621946 12.1156 0.0399822 11.8856 0 11.6611ZM13.6628 8.00222C13.6628 6.91889 13.6628 5.83444 13.6628 4.75111C13.6628 4.40778 13.6284 4.06889 13.5129 3.74333C13.0897 2.55111 12.0624 1.83222 10.7663 1.83111C8.58507 1.82889 6.40493 1.82444 4.22368 1.83667C3.89716 1.83889 3.5562 1.88333 3.24745 1.98667C2.04909 2.38889 1.33163 3.42889 1.33052 4.72444C1.32719 6.90667 1.32941 9.08778 1.33052 11.27C1.33052 11.6078 1.36828 11.9411 1.48267 12.2622C1.90582 13.4433 2.92315 14.1633 4.20369 14.1667C6.39938 14.1722 8.59507 14.1711 10.7908 14.1667C11.7737 14.1644 12.5666 13.7711 13.1464 12.9722C13.5151 12.4656 13.6639 11.8878 13.6628 11.2656C13.6617 10.1767 13.6628 9.08889 13.6628 8V8.00222Z" fill="#333232"/>
<path d="M11.3605 8.00144C11.3583 10.1259 9.61021 11.8714 7.49115 11.8648C5.36432 11.8581 3.62176 10.1081 3.63287 7.99033C3.64397 5.86477 5.37542 4.13699 7.49448 4.13477C9.61576 4.13255 11.3617 5.88032 11.3594 8.00144H11.3605ZM7.49448 10.5314C8.8872 10.5359 10.0245 9.40033 10.0278 8.00255C10.0311 6.60921 8.89719 5.47143 7.50003 5.4681C6.10732 5.46477 4.97116 6.5981 4.96672 7.99699C4.96338 9.39033 6.09621 10.527 7.49448 10.5314Z" fill="#333232"/>
<path d="M11.5446 3.01123C12.081 3.02679 12.5141 3.47457 12.4986 3.99568C12.4819 4.54568 12.031 4.97123 11.4868 4.95234C10.9637 4.93456 10.5328 4.48234 10.5472 3.96679C10.5628 3.42345 11.0092 2.99568 11.5446 3.01012V3.01123Z" fill="#333232"/>
</g>
<defs>
<clipPath id="clip0_1495_7205">
<rect width="15" height="15" fill="white" transform="translate(0 0.5)"/>
</clipPath>
</defs>
</svg>
