<svg width="684" height="435" viewBox="0 0 684 435" fill="none" xmlns="http://www.w3.org/2000/svg">
<g clip-path="url(#clip0_1825_7412)">
<path d="M539.83 67.54C539.83 67.54 539.78 67.63 539.75 67.68L539.84 67.66L539.82 67.54H539.83Z" fill="#404041"/>
<path d="M450.731 184.49C450.221 184.12 448.531 183.17 448.451 182.18C448.381 181.19 448.261 180.41 447.931 179.73C447.601 179.05 446.261 176.54 445.381 175.86C444.501 175.18 444.411 174.93 443.571 175.05C442.731 175.17 441.801 175.86 441.881 174.87C441.961 173.88 441.221 172.79 441.791 172.13C442.351 171.47 444.101 169.63 444.861 169.68C445.621 169.74 446.861 170.77 447.781 169.31C448.691 167.85 450.851 165.99 451.301 163.87C451.741 161.75 452.711 160.55 451.861 160.28C451.011 160.01 450.311 160.26 450.351 159.23C450.391 158.2 450.201 157.52 451.171 157C452.141 156.48 453.051 156.48 452.901 155C452.741 153.52 452.571 148.51 453.311 147C454.051 145.49 457.091 142.62 457.701 141.27C457.341 140.63 457.091 140.11 456.931 139.81C455.941 138 450.811 137.31 450.811 137.31C450.811 137.31 450.351 132.88 450.051 131.19C450.001 130.88 449.311 130.72 448.201 130.65C448.141 130.77 448.061 130.9 447.961 131.03C446.981 132.32 444.891 134.05 443.151 133.54C442.371 133.31 441.701 132.78 440.921 132.51C440.171 132.27 439.421 132.32 438.701 132.65C437.941 133.01 437.271 133.56 436.551 133.99C435.941 134.35 435.311 134.66 434.681 134.96C434.141 135.22 433.771 135.6 433.131 135.61C432.811 135.61 432.561 135.67 432.231 135.74C431.651 135.88 430.901 135.72 430.491 135.28C430.051 134.83 429.711 134.33 429.191 133.96C429.001 133.81 428.771 133.66 428.551 133.55C428.321 133.43 427.821 133.41 427.671 133.19C427.331 132.72 428.441 132.04 428.721 131.77C429.061 131.45 429.341 131.11 429.711 130.91C429.651 130.39 429.581 129.71 429.561 128.94L428.431 129.07C428.061 130.01 427.271 130.86 426.551 131.51C425.021 132.89 423.041 132.75 421.111 132.56C420.061 132.46 419.051 132.21 418.011 132.12C417.011 132.04 416.021 132.21 415.061 132.48C414.631 132.61 413.971 132.96 413.411 132.96C412.881 133.35 412.451 133.65 412.281 133.76C411.641 134.15 411.461 136.85 409.171 137.74C406.881 138.64 410.111 142.65 410.111 142.65C411.491 143.84 411.031 145.23 410.961 146.86C410.881 148.49 409.991 150.08 409.091 150.86C408.201 151.64 406.211 154.9 405.241 156.46C404.271 158.02 398.521 158.09 396.651 157.94C394.781 157.79 394.941 158.87 394.091 160C393.231 161.13 391.721 159.54 391.211 158.99C390.701 158.45 389.691 158.6 388.141 158.41C387.621 158.34 387.061 158.41 386.361 158.5C386.641 158.82 386.841 159.21 386.891 159.69C386.971 160.49 386.921 161.32 386.921 162.13C386.921 162.94 386.991 163.82 386.861 164.64C386.601 166.24 385.031 164.95 384.371 164.34C383.281 163.36 382.421 162.19 381.271 161.29C380.311 160.53 379.441 159.75 379.141 158.52C379.111 158.42 379.101 158.33 379.081 158.24C375.041 157.32 373.951 155.03 373.951 155.03L368.051 157.25L368.131 163.23L366.301 165.06V166.19L367.601 167.25C367.891 166.74 367.991 166.96 368.491 166.82C369.011 166.68 369.611 166.17 370.071 165.89C371.101 165.27 372.041 164.54 372.581 163.44C372.871 162.87 373.611 161.9 373.981 162.93C374.241 163.64 374.151 164.54 374.111 165.27C374.031 166.54 373.521 167.56 372.741 168.46L376.511 168.12L379.231 169.91L383.861 174.57L382.501 180.13L381.611 181.02C382.161 181.44 382.901 181.51 383.571 181.57C383.961 181.61 384.341 181.63 384.701 181.48C385.031 181.34 385.311 181.06 385.661 181C386.521 180.85 387.301 181.84 388.031 182.16C388.601 182.42 389.171 182.47 389.761 182.68C390.641 182.71 391.551 182.71 392.231 182.06C392.881 181.43 393.171 180.51 393.851 179.9C395.341 178.58 397.721 179.81 399.061 180.79C400.551 181.87 400.401 183.29 400.661 184.94C400.901 186.49 402.221 188.29 401.151 189.75C400.881 190.11 400.571 190.45 400.281 190.77C401.411 191.14 403.031 191.49 404.821 191.37C408.261 191.13 412.571 191.02 412.341 192.54C412.111 194.05 411.171 194.64 411.821 195.28C412.461 195.92 413.161 198.25 414.501 197.78C415.841 197.31 415.781 195.85 416.661 195.16C417.531 194.46 422.021 192.3 422.431 192.71C422.841 193.12 423.981 194.99 424.941 194.61C425.901 194.23 426.801 193.82 427.161 193.74C427.511 193.65 428.091 193.65 428.061 193.01C428.031 192.37 427.771 191.2 428.701 191.35C429.641 191.5 430.301 191.26 430.511 191.9C430.711 192.54 432.341 193.48 431.681 194.02C431.011 194.55 430.631 195.08 430.861 195.6C431.101 196.13 430.371 196.97 431.591 196.97C432.811 196.97 433.431 197.34 433.541 198.34C433.661 199.33 434.011 206.55 435.841 205.3C437.431 204.22 444.631 199.13 447.231 197.03C447.641 196.7 447.931 196.45 448.081 196.29C449.131 195.15 451.801 192.98 451.771 192.16C451.731 191.34 451.601 190.7 452.021 190.27C452.451 189.84 453.771 188.71 453.551 188.05C453.341 187.39 451.261 184.89 450.761 184.51L450.731 184.49ZM442.921 155.71C443.101 155.13 444.321 154.68 444.831 155.02C445.091 155.19 445.201 155.54 445.451 155.75C445.721 155.97 445.891 156.23 446.051 156.44C446.481 157.25 446.841 158.12 447.331 158.88C447.851 159.67 447.481 160.41 447.111 161.18C446.731 161.93 446.171 163.16 445.301 163.46C444.871 163.6 444.571 163.39 444.621 162.95C444.691 162.35 444.901 161.73 445.031 161.15C445.331 160.66 445.771 159.65 445.581 159.04C445.371 158.39 444.811 158.3 444.351 157.9C444.331 157.89 444.311 157.86 444.281 157.85C443.831 157.44 442.691 156.41 442.911 155.71H442.921ZM430.101 159.85C429.511 160.38 428.541 159.61 428.181 159.15C427.771 158.63 427.581 157.8 426.971 157.46C426.501 157.2 425.861 157.32 425.481 156.89C425.111 156.46 425.231 155.83 424.921 155.38C424.351 154.58 423.221 154.05 423.341 152.93C423.411 152.2 423.691 151.42 423.471 150.69C423.381 150.39 423.221 150.15 423.011 149.94C422.941 149.86 422.861 149.79 422.771 149.72C422.431 149.45 422.161 149.1 421.881 148.76C421.801 148.67 421.781 148.67 421.821 148.76C421.791 148.74 421.701 148.67 421.691 148.66C421.651 148.62 421.511 148.53 421.441 148.46C421.281 148.31 421.141 148.17 421.041 147.98C420.941 147.78 420.861 147.52 420.891 147.29C420.921 146.97 421.061 147.03 421.311 146.89C422.241 146.41 422.691 145.72 423.201 144.87C423.631 144.14 424.641 144.31 425.231 144.78C425.631 145.09 425.961 145.66 426.031 146.17C426.121 146.85 425.681 147.36 425.561 147.98C425.441 148.66 425.771 149.24 426.091 149.8C426.431 150.36 426.671 150.89 426.711 151.54C426.751 152.17 426.771 152.79 426.871 153.42C426.971 154.05 427.041 154.72 427.271 155.32C427.491 155.92 427.921 156.44 428.321 156.93C428.721 157.43 429.181 157.84 429.631 158.31C429.971 158.65 430.601 159.4 430.091 159.86L430.101 159.85Z" fill="#F5F5F5" stroke="#636362" stroke-miterlimit="10"/>
<path d="M148.121 223.16C146.871 222.84 146.191 224.15 145.351 223.8C144.501 223.45 144.131 222.95 144.131 221.73C144.131 220.51 144.041 217.79 145.111 216.57C146.191 215.35 146.981 213.46 145.051 213.66C143.121 213.87 141.761 214.21 141.321 213.19C140.881 212.17 142.371 210.94 144.091 210.94C145.811 210.94 148.491 210.07 147.681 209.16C147.121 208.54 144.471 206.21 142.841 204.73C142.501 205.08 142.151 205.41 141.801 205.75C141.761 205.78 141.611 205.93 141.561 205.96H141.541C141.421 206.09 141.261 206.24 141.231 206.27C141.041 206.48 140.841 206.74 140.641 206.93C140.301 207.25 139.911 207.51 139.581 207.86C138.781 208.73 138.071 209.62 137.201 210.44C136.361 211.23 135.281 211.64 134.391 212.37C133.511 213.08 132.751 213.8 131.761 214.35C130.791 214.88 129.931 215.63 128.961 216.12C128.031 216.58 126.981 217.23 126.521 218.22C126.061 219.19 125.781 220.27 125.281 221.23C124.741 222.27 123.871 222.78 122.851 223.34C122.721 223.41 122.591 223.47 122.461 223.53C124.421 225.93 127.381 230.87 128.071 230.34C128.821 229.76 129.501 228.62 130.231 229.06C130.961 229.49 133.111 231.03 133.961 230.45C134.801 229.87 137.111 227.86 137.111 227.86L139.901 230.63L144.501 230.37C144.501 230.37 145.901 227.39 147.041 226.61C148.181 225.82 149.341 223.46 148.091 223.14L148.121 223.16Z" fill="#F5F5F5" stroke="#636362" stroke-miterlimit="10"/>
<path d="M236.52 74.3599L237.19 77.1299L236.23 78.0599L228.45 79.3399L226.52 80.3399L223.22 77.1999L223.94 75.6699L219.18 73.4499L221.53 70.8699L229.13 73.8099L234.45 69.4199L237.34 69.7499L236.52 74.3599Z" fill="#F5F5F5" stroke="#636362" stroke-miterlimit="10"/>
<path d="M241.669 105.95L240.099 109.87C240.099 109.87 237.549 109.75 236.769 109.75C235.989 109.75 235.409 110.76 233.419 111.89C231.449 113.02 227.289 112.63 225.029 112.75C222.779 112.87 222.079 112.17 221.179 111.82C220.279 111.47 218.579 110.81 217.139 110.92C215.699 111.04 213.099 108.2 213.099 108.2C213.099 108.2 208.089 113.21 206.299 115.12C204.509 117.02 202.879 117.18 200.509 117.84C198.139 118.51 193.239 117.03 192.309 117.1C191.389 117.18 190.599 116.91 189.629 116.25C188.659 115.59 185.199 115.59 183.529 115.59C181.859 115.59 182.639 117.65 182.209 119.44C181.779 121.23 180.539 121.23 179.719 121.96C178.899 122.7 181.039 124.33 180.139 125.81C179.249 127.29 174.899 127.48 173.959 127.83C173.029 128.18 171.979 127.95 171.319 127.52C170.659 127.1 168.909 127.75 167.829 128.03C166.729 128.3 164.059 133.55 162.969 135.41C161.879 137.28 159.739 137.7 158.379 138.17C157.019 138.63 155.699 143.14 155.699 143.14C155.699 143.14 152.749 140.92 152.159 140.46C151.579 139.99 150.139 140.43 148.779 140.93C147.419 141.44 147.539 143.34 146.839 144.43C146.139 145.52 143.769 145.83 142.139 146.64C140.499 147.46 139.489 144.04 138.949 143.34C138.639 142.94 137.129 143.08 135.899 143.26L134.969 140.33L151.769 126.43V115.89L159.839 114L160.009 109.01L166.389 108.71L167.869 103.48L163.639 99.7399C163.639 99.7399 150.669 102.61 140.719 101.46L141.619 96.2099L150.149 89.6599L150.609 84.8599L157.459 80.0599L156.959 70.6399L163.509 68.1899L171.939 72.3599C171.939 72.3599 176.989 69.0899 177.139 69.0899C177.239 69.1199 186.429 72.5599 186.429 72.5599L183.949 82.5199L191.329 85.1899L192.849 89.8599L202.479 85.1899L210.019 86.9399L210.959 89.6599L212.809 89.1099L216.579 91.1799L217.959 93.3099L218.799 96.6299L223.189 96.8899L224.869 98.6399L234.059 98.8199C234.059 98.8199 237.689 101.25 238.309 102.2C238.929 103.15 238.639 104.44 239.769 105.04C240.889 105.64 241.659 105.95 241.659 105.95H241.669Z" fill="#F5F5F5" stroke="#636362" stroke-miterlimit="10"/>
<path d="M300.27 84.7998L300.12 87.0198L289.51 92.5798C289.51 92.5798 286.47 96.1598 284.46 96.6198C282.44 97.0898 279.29 99.1798 278.08 100.23C276.87 101.28 275.75 101.94 275.86 103.14C275.98 104.34 275.82 104.85 275.82 104.85L269.83 103.65C269.83 103.65 268.9 101.55 267.81 100.85C266.72 100.15 266.49 97.5798 264.93 97.8998C263.38 98.2098 253.82 99.5298 253.82 99.5298C253.82 99.5298 252.5 95.8298 251.92 95.4098C251.34 94.9798 251.61 89.6598 251.61 89.6598L258.22 89.1998C258.22 89.1998 259.77 79.4498 260.55 78.6998C261.33 77.9598 263 77.6898 262.65 76.2498C262.3 74.8098 262.15 74.1198 262.15 74.1198L257.41 72.7598L256.36 69.8498H255.51C255.51 69.8498 254.5 73.5798 252.98 73.2698C251.46 72.9598 249.53 72.0098 249.53 72.0098L248.77 76.6998L250.26 77.5098L249.18 83.3698L244.95 84.6198L243.32 88.2598L240.87 88.6998L240.14 87.7698L236.12 88.2598L235.22 92.3098L230.21 94.2098L228.98 92.2798L223.88 92.1398L223.2 96.8898L218.81 96.6298L217.97 93.3098L216.59 91.1798L212.82 89.1098L214 88.7598L215.43 89.1098L218.7 87.6598L224.29 87.1898L225.96 85.1498L221.37 81.1398L223.24 77.2098L226.55 80.3398L228.47 79.3498L236.26 78.0698L237.22 77.1398L236.55 74.3698L237.37 69.7598L234.48 69.4298L232.17 66.4098L236.34 64.5298L234.69 62.5798L228.78 62.3898L228.85 59.0198L235.09 57.1898L237.64 54.7698L245.05 54.4498L250.54 52.8298L252.6 49.2498L259.76 47.7598L261.94 51.4998L262.14 56.2598L255.16 57.9798L254.51 60.0998L263.23 61.7898L264.93 60.7598L266.4 63.1798L270.48 61.8998L275.17 64.5798L274.59 67.1998L277.21 69.8498L282.26 64.9298V63.3798L283.31 61.8898L288 63.6398V66.0698L293.53 72.4398L297.67 72.2998L298.11 75.6798L299.52 77.3098L298.01 82.0498L300.3 84.8098L300.27 84.7998Z" fill="#015048" stroke="white" stroke-miterlimit="10"/>
<path d="M390.32 186.02L387.52 195.8L380.64 198.05C380.64 198.05 378.73 199.72 378.08 201.43C377.41 203.14 378.39 204.08 378.66 204.85C378.92 205.6 377.83 211.02 377.77 211.33V211.34L370.89 211.81L367.47 208.62L362.96 208.39L361.56 210.37L363.39 216.55L367.13 223.43L372.02 225.88V230.19L363.28 227.12L356.99 219.7L357.61 208.08L358.31 197.31V196.42L354 195.48L353.68 190.57C354.16 190.68 354.65 190.77 355.11 190.69C355.46 190.61 355.74 190.33 356.04 190.16C356.4 189.95 356.72 189.74 357.01 189.42C357.54 188.81 357.85 188.14 358.5 187.61C358.99 187.21 359.44 186.72 359.66 186.1C359.85 185.53 359.7 184.6 360.11 184.11C360.32 183.86 360.75 183.81 361 183.6C361.25 183.4 361.43 183.09 361.68 182.87C362.26 182.35 362.72 181.84 362.98 181.1C363.22 180.43 363.4 179.58 364 179.12C364.26 178.92 364.53 178.76 364.83 178.63L365.18 180.08L371.36 180.49L372.6 179.32C373.12 179.61 373.65 179.83 374.28 179.64C375.27 179.34 375.99 178.51 377.12 178.83C378.09 179.11 377.47 180.49 377 180.99C376.61 181.41 376.37 181.51 375.82 181.34C375.14 181.13 374.9 181.3 374.2 181.5C373.39 181.73 372.64 182.57 372.43 183.42C372.34 183.79 372.25 184.32 372.48 184.66C372.63 184.88 372.89 184.9 373.09 185.05C373.32 185.21 373.5 185.43 373.73 185.59C374.54 186.18 375.19 185.5 376.05 185.48C377.08 185.45 377.89 185.62 378.79 186.13C379.26 186.39 379.74 186.65 380.2 186.91C380.7 187.2 381.16 187.52 381.62 187.86C382.2 188.29 382.42 188.63 383.15 188.32C383.94 187.99 384.51 187.25 385.24 186.81C385.81 186.47 386.57 186.28 387.19 186.12C388 185.91 388.84 185.96 389.68 186.01C389.97 186.03 390.16 186.05 390.36 185.99L390.32 186.02Z" fill="#F5F5F5" stroke="#636362" stroke-miterlimit="10"/>
<path d="M363.259 227.12L349.889 233.65C349.889 233.65 347.169 231.59 347.059 231.47C346.949 231.35 343.829 232.99 343.829 232.99L338.079 230.58L330.889 232.41L324.519 229.69L322.109 226.24L315.429 226.63L317.139 222.36V220.72L314.219 216.34L317.409 208.91V205.61L320.629 200.09L324.799 201.72L331.519 193.16L331.099 189.24L335.799 186.68L341.519 186.79L344.009 185.74L345.409 184.57L353.579 185.11L356.629 186.55C356.429 187.25 356.229 187.83 355.299 188.1C354.629 188.29 353.929 188.22 353.419 188.78C353.129 189.09 352.599 189.94 352.699 190.37C353.009 190.41 353.339 190.5 353.679 190.58L353.999 195.49L358.309 196.43V197.32L357.609 208.09L356.989 219.71L363.279 227.13L363.259 227.12Z" fill="#F5F5F5" stroke="#636362" stroke-miterlimit="10"/>
<path d="M368.08 163.19L368 157.21L373.9 154.99L372.97 150.6L369 151.18L360.18 146.05L357.46 138.51L352.76 124.44L350.89 117.91L343.86 115.89L344.52 119.47L341.84 119.41C341.84 119.51 341.84 119.61 341.84 119.72C341.81 120.27 341.79 120.82 341.65 121.35C341.47 121.96 341.28 122.22 341.45 122.85C341.56 123.24 341.8 124.08 341.57 124.46C341.16 125.14 340.72 123.77 340.65 123.5C340.48 122.78 340.02 122.14 339.83 121.42C339.78 121.26 339.75 121.1 339.71 120.94L339.28 121.49L338.08 128.6L334.47 129.11L331.63 128.92L330.7 127.6L330.74 126.78L333.54 125.18L332.57 124.4L331.8 123.47L327.72 123.51L326.55 124.82L322.9 123.86L322.32 122.73L322.09 120.75L317 122.23L316.03 123.04L317.19 125.1L309.77 126.07L307.82 119.89L307.51 118.29L300.71 118.02L300.86 123.03L296.27 127.27L293.67 125.28L283.32 128.78V128.86L285.43 135.35L289.31 140.13L288.61 144.87L289.31 148.02L291.18 152.45L288.93 155.6L288.23 168.35L292.78 177.25L300.94 178.22L300.4 184.9L294.53 195.82L290.6 195.54L287.96 199.43L289.86 201.29L289.62 203.66L287.1 208.01L289.28 211.35L288.85 216.32L299.77 222.97L304.13 229.5L304.78 228.41L306.06 229.03L308.05 228.88L309.33 227.14L315.43 226.59L317.14 222.32V220.68L314.22 216.3L317.41 208.87V205.57L320.63 200.05L324.8 201.68L331.52 193.12L331.1 189.2L335.8 186.64L341.52 186.75V185.49L340.43 184.38L341.52 181.93L353.88 179.29L355.33 179.53C355.36 179.38 355.42 179.24 355.5 179.13C355.93 178.54 356.65 178.69 357.28 178.72C357.9 178.75 358.54 178.93 359.05 178.49C359.59 178.02 359.9 177.22 359.91 176.52C359.93 175.82 359.44 175.3 359.34 174.63C359.07 172.99 358.86 171.38 357.62 170.2C357.25 169.85 356.95 169.47 356.58 169.12C356.31 168.88 355.52 168.58 355.68 168.12C356.26 168.12 356.83 168.12 357.4 168.16C358.1 168.22 358.58 168.06 359.06 168.68C359.44 169.15 359.79 169.65 360.17 170.13C360.52 170.59 360.9 171.24 361.45 171.47C361.91 171.67 362.64 171.81 363.15 171.91C363.77 172.04 364.24 171.69 364.74 171.37C365.18 171.08 365.49 170.75 365.8 170.33C365.97 170.1 366.22 169.89 366.37 169.65C366.54 169.39 366.52 169.1 366.62 168.82C366.82 168.26 367.24 167.74 367.54 167.22C367.55 167.2 367.55 167.19 367.57 167.18L366.27 166.12V164.99L368.1 163.16L368.08 163.19ZM336.02 151.78C335.9 152.21 335.29 152.12 335.13 152.52C335 152.84 335.26 153.2 335.24 153.53C335.18 154.08 334.63 154.27 334.18 154.1C333.57 153.87 333.18 153.33 332.78 152.86C332.29 152.29 331.79 152.11 331.17 151.75C330.8 151.53 330.38 151.43 330.01 151.21C329.1 150.68 328.55 149.74 327.85 148.99C327.08 148.17 326.36 147.44 325.85 146.42C325.27 145.25 325.33 144.34 325.58 143.1C325.67 142.69 325.75 141.97 326.21 141.8C326.68 141.62 327.22 142.11 327.52 142.4C327.93 142.79 328.26 143.24 328.65 143.64C329.07 144.05 329.56 144.38 330.04 144.72C331.02 145.41 331.87 146.19 332.71 147.05C333.47 147.82 334.3 148.54 334.99 149.36C335.33 149.75 335.64 150.17 335.78 150.67C335.86 150.93 336.1 151.51 336.02 151.78ZM347.68 139.87C347.38 139.67 347.14 139.29 346.95 139C346.56 138.43 346.27 137.82 345.93 137.23C345.93 136.59 345.63 136.03 345.27 135.54C344.94 135.09 344.35 134.54 344.25 133.98C344.15 133.39 344.27 132.97 344.31 132.39C344.33 132.02 344.34 131.11 344.74 130.89C345.33 130.57 345.86 132.32 346 132.67C346.34 133.48 346.68 134.44 347.25 135.14C347.79 135.8 347.96 136.57 348.28 137.36C348.4 137.66 348.51 137.9 348.56 138.21C348.6 138.5 348.57 138.98 348.69 139.2C348.46 139.56 348.16 140.2 347.68 139.89V139.87Z" fill="#F5F5F5" stroke="#636362" stroke-miterlimit="10"/>
<path d="M410.061 142.62C410.061 142.62 407.701 143.26 406.831 143.76C405.951 144.26 405.171 141.98 404.841 140.9C404.521 139.82 402.741 139.99 401.291 139.79C399.831 139.59 399.861 138.3 400.011 136.47C400.151 134.64 397.451 132.54 396.601 131.96C395.751 131.38 394.151 128.86 394.151 128.86C394.151 128.86 383.221 131.16 381.641 131.52C380.071 131.87 379.171 131.64 378.701 130.99C378.241 130.35 376.111 130.85 374.591 131.14C373.081 131.43 370.541 127.82 369.841 126.59C369.681 126.31 369.421 125.73 369.091 124.98C369.091 124.98 366.141 127.98 366.831 129.07C367.531 130.16 368.931 132.68 368.311 134C367.691 135.32 367.421 136.14 367.901 137.3C368.391 138.47 368.851 141.58 369.081 142.55C369.311 143.52 370.161 145.81 369.741 147.72C369.311 149.62 368.731 149.32 369.001 151.18L372.971 150.6L373.901 154.99C373.901 154.99 375.001 157.28 379.031 158.2C378.881 157.22 379.391 156.64 380.161 155.99C380.531 155.68 381.091 155.27 381.191 154.77C381.301 154.26 380.851 153.94 380.501 153.67C380.011 153.29 379.491 152.93 379.221 152.35C378.961 151.81 378.971 151.21 378.921 150.63C378.821 149.52 377.981 148.78 377.801 147.71C377.671 146.99 377.731 146.28 377.771 145.57C377.831 144.58 377.841 143.43 377.551 142.48C377.291 141.63 377.241 140.62 378.081 140.05C378.741 139.61 379.811 139.84 380.531 140.03C381.411 140.27 381.941 141.27 382.581 141.87C383.291 142.53 384.751 143.39 384.781 144.48C384.781 144.93 384.381 145.23 384.181 145.6C383.941 146.01 383.861 146.5 383.681 146.94C383.511 147.39 383.371 147.77 383.371 148.26C383.371 148.75 383.471 149.24 383.331 149.74C383.101 150.54 381.971 151.01 382.081 151.87C382.181 152.7 382.741 153.36 383.051 154.11C383.301 154.72 383.121 155.39 383.361 155.99C383.551 156.46 384.041 156.74 384.441 157.02C385.061 157.46 385.821 157.87 386.321 158.46C387.011 158.37 387.571 158.31 388.101 158.37C389.651 158.56 390.661 158.41 391.171 158.95C391.681 159.49 393.191 161.09 394.051 159.96C394.901 158.84 394.751 157.75 396.611 157.9C398.471 158.05 404.231 157.98 405.201 156.42C406.171 154.87 408.161 151.61 409.051 150.82C409.941 150.04 410.841 148.45 410.921 146.82C411.001 145.19 411.451 143.81 410.071 142.61L410.061 142.62ZM404.181 155.82C403.191 156.7 401.941 155.07 401.471 154.33C401.261 153.98 400.951 153.66 400.801 153.27C400.711 153.04 400.711 152.79 400.581 152.58C400.561 152.55 400.541 152.52 400.501 152.49C400.031 151.93 399.151 152.08 398.521 151.91C397.821 151.72 397.251 151.13 396.891 150.53C396.551 149.97 396.011 149.09 396.651 148.58C397.321 148.05 398.051 148.54 398.601 149.01C398.901 149.28 399.221 149.69 399.621 149.82C399.941 149.92 400.211 149.75 400.531 149.74C401.121 149.74 401.931 150.24 402.361 150.64C402.961 151.19 403.591 151.88 404.051 152.55C404.641 153.4 405.061 155 404.171 155.81L404.181 155.82Z" fill="#F5F5F5" stroke="#636362" stroke-miterlimit="10"/>
<path d="M372.898 107.28C372.078 109.72 371.378 113.83 370.218 114.17C369.048 114.52 365.228 114.55 365.848 116.54C366.318 118.06 368.018 122.47 369.098 124.98C369.098 124.98 366.148 127.98 366.838 129.07C367.538 130.16 368.938 132.68 368.318 134C367.698 135.32 367.428 136.14 367.908 137.3C368.398 138.47 368.858 141.58 369.088 142.55C369.318 143.52 370.168 145.81 369.748 147.72C369.318 149.62 368.738 149.32 369.008 151.18L360.188 146.05L357.468 138.51L352.768 124.44L350.898 117.91L343.868 115.89L344.528 119.47L341.848 119.41C341.848 118.54 341.688 117.88 341.198 117.09C340.618 116.17 340.218 115.06 339.938 114.02C339.648 112.9 340.098 111.56 339.428 110.58C339.118 110.12 336.928 108.58 336.928 109.93C336.938 110.47 337.258 111.04 337.378 111.57C337.498 112.1 337.478 112.6 337.398 113.14C337.248 114.16 337.038 115.44 337.678 116.34C337.968 116.73 338.358 117.04 338.648 117.44C339.048 118.02 339.288 118.69 339.438 119.39C339.548 119.9 339.608 120.42 339.698 120.93L339.268 121.48L338.068 128.59L334.458 129.1L331.618 128.91L330.688 127.59L330.728 126.77L333.528 125.17L332.558 124.39L331.788 123.46L327.708 123.5L326.538 124.81L322.888 123.85L322.308 122.72L322.078 120.74L316.988 122.22L316.018 123.03L317.178 125.09L309.758 126.06L307.808 119.88L307.498 118.28L300.698 118.01L300.848 123.02L296.258 127.26L293.658 125.27L283.308 128.77L281.868 121.11C281.868 121.11 284.288 117.03 285.338 115.28C286.388 113.53 287.308 111.51 288.918 110.93C290.508 110.35 293.038 107.2 293.118 105.22C293.118 105.22 305.318 108.02 306.448 105.34C307.578 102.66 308.158 101.03 309.008 100.05C309.868 99.0798 311.728 95.5398 310.868 94.4198C310.018 93.2898 308.038 90.2998 306.248 89.5998C304.458 88.8998 303.218 87.6998 303.218 86.7698C303.218 85.8398 302.748 84.7498 303.408 84.3198C304.068 83.8898 304.538 83.7898 303.918 82.4998C303.298 81.2098 301.818 77.1698 301.818 77.1698L299.488 77.2898L298.078 75.6598L297.638 72.2798L293.498 72.4198L287.968 66.0498V63.6198L283.278 61.8698L282.228 63.3598V64.9098L277.178 69.8298L274.558 67.1798L275.138 64.5598L270.448 61.8798L266.368 63.1598L264.898 60.7398L268.288 58.6898L274.968 57.6598L277.708 55.8398L279.438 51.8398L289.888 50.4498L293.228 53.4298L295.538 57.8998L313.068 57.3698L316.108 55.1198L320.378 54.1198L322.868 49.6598L326.178 49.7898L335.178 42.2798L338.948 42.9698L340.208 45.6898L343.548 43.4098L350.528 44.6298L352.108 48.2298L355.688 52.1998L362.928 52.5398L366.828 50.5898L369.048 52.6398L369.928 52.5698L369.628 56.5598L362.688 65.7998L360.588 66.0498L360.978 74.0198L364.888 83.5798L361.278 90.6898C361.278 90.6898 361.098 91.4498 362.358 91.4198C363.618 91.3898 365.478 91.8598 365.448 93.1398C365.418 94.4198 366.928 100.72 367.228 101.42C367.518 102.12 368.718 107.51 369.438 107.25C370.168 106.99 373.748 104.82 372.938 107.26L372.898 107.28Z" fill="#015048" stroke="white" stroke-miterlimit="10"/>
<path d="M411.6 16.73L414.21 21.32L406.31 21.45L403.95 26.07C402.29 26.22 398.53 26.99 396.45 30.78C396.24 30.82 390.5 32.96 390.5 32.96L388.84 31.14L386.83 31.41L383.72 36.41L376.38 37.07L372.5 33.3L367.31 31.95L365.82 24.7L372.76 19.44L377.26 9.65002L383.71 8.59002L388.67 4.02002L388.91 1.38002L395 0.52002L398.38 3.00002L398.31 9.34002L400.46 11.63L401.89 8.61002V3.20002L407.32 5.45002V10.18C407.32 10.18 409.48 9.15002 409.57 9.15002C409.67 9.15002 415.19 11.93 415.19 11.93L411.62 16.73H411.6Z" fill="#F5F5F5" stroke="#636362" stroke-miterlimit="10"/>
<path d="M448.862 95.4898C448.862 95.4898 447.582 91.9898 446.262 91.4698C444.952 90.9398 443.232 89.4598 443.112 87.6798C443.002 85.8998 443.172 84.2698 443.812 83.2498C444.452 82.2298 444.742 81.2598 443.222 81.0398C441.712 80.8098 439.292 78.4098 439.142 77.0198C439.002 75.6198 437.312 72.2998 438.122 71.7398C438.942 71.1898 440.682 70.1598 440.572 68.4498C440.452 66.7298 439.612 63.0598 435.442 61.1598C431.272 59.2698 428.212 57.8098 429.722 56.4398C431.242 55.0698 432.352 51.0998 426.842 50.1498C421.322 49.1898 418.092 46.9098 416.542 44.5598C414.992 42.1898 415.522 40.8198 418.342 41.0298C421.172 41.2298 421.172 41.1498 422.132 42.1098C423.092 43.0698 424.722 44.1798 425.892 42.7798C427.062 41.3798 429.422 37.6998 428.602 35.9898C427.782 34.2698 427.092 31.2698 424.322 31.4998C421.562 31.7298 422.852 34.9598 420.862 35.1898C418.882 35.4198 413.862 37.0498 410.172 35.1098C406.492 33.1698 405.742 30.2498 405.162 28.8198C404.772 27.8498 404.712 26.9398 404.712 26.4398L403.882 26.1298L403.912 26.0898C402.252 26.2398 398.492 27.0098 396.412 30.7998C396.512 30.7998 399.492 35.6298 399.492 35.6298L398.232 37.5798L395.712 34.7598L394.292 35.4598L395.382 38.3398L395.152 45.0898L392.942 47.2398L392.782 47.0198C392.802 48.4498 392.742 50.6098 392.192 50.8798C391.342 51.2898 390.522 52.2798 390.612 53.3298C390.702 54.3798 390.902 57.4098 388.602 57.0898C386.292 56.7698 386.942 52.1298 385.302 51.4298L391.232 44.8598L388.432 40.9498L384.032 39.4898L381.282 43.0898L374.532 46.2398L373.772 48.8198L378.502 49.2198L378.992 51.8998L369.852 52.5898L369.552 56.5898L362.612 65.8298L360.512 66.0798L360.902 74.0498L364.802 83.6098L361.192 90.7298C361.192 90.7298 361.022 91.4898 362.272 91.4598C363.522 91.4298 365.392 91.8998 365.362 93.1798C365.332 94.4598 366.842 100.76 367.142 101.45C367.432 102.16 368.632 107.54 369.352 107.28C370.082 107.02 373.662 104.85 372.852 107.29C372.032 109.72 371.332 113.84 370.172 114.18C369.002 114.53 365.182 114.56 365.792 116.54C366.262 118.06 367.962 122.47 369.042 124.98C369.362 125.73 369.632 126.31 369.792 126.59C370.492 127.82 373.032 131.43 374.542 131.14C376.062 130.85 378.192 130.35 378.652 130.99C379.122 131.63 380.022 131.87 381.592 131.52C383.162 131.17 394.102 128.86 394.102 128.86C394.102 128.86 395.702 131.37 396.552 131.96C397.402 132.54 400.102 134.64 399.962 136.47C399.812 138.31 399.792 139.59 401.242 139.79C402.702 139.99 404.472 139.82 404.802 140.9C405.122 141.98 405.902 144.25 406.792 143.75C407.662 143.25 410.022 142.61 410.022 142.61C410.022 142.61 406.792 138.6 409.082 137.7C411.372 136.81 411.552 134.11 412.202 133.71C412.372 133.61 412.802 133.3 413.332 132.91C413.092 132.91 412.872 132.85 412.702 132.67C412.472 132.44 412.272 132.28 411.982 132.08C411.482 131.76 411.042 131.21 410.662 130.77C410.282 130.32 409.902 129.86 409.512 129.4C409.072 128.89 408.712 128.33 408.222 127.87C407.752 127.42 407.172 127.18 406.682 126.76C406.222 126.36 405.732 126 405.252 125.62C404.712 125.19 404.282 124.65 403.762 124.2C403.282 123.79 402.692 123.81 402.102 123.73C400.802 123.58 399.652 123.54 398.522 122.77C398.072 122.47 397.522 122.35 397.082 122.06C396.682 121.8 396.292 121.41 395.922 121.1C395.192 120.49 394.412 119.83 394.172 118.89C394.042 118.38 393.962 117.79 393.922 117.28C393.862 116.62 393.612 116.33 393.222 115.82C392.582 114.96 391.822 114.19 391.202 113.31C390.552 112.4 390.502 111.51 390.472 110.43C390.442 109.52 390.142 108.36 389.662 107.57C389.182 106.79 388.512 106.13 387.992 105.37C387.112 104.06 386.502 102.83 386.532 101.23C386.532 100.73 386.522 99.5198 387.292 99.5998C388.142 99.6898 388.992 100.87 389.482 101.46C390.722 102.91 391.502 104.43 392.122 106.23C392.462 107.22 392.852 108.15 393.392 109.05C394.072 110.18 394.612 111.37 395.342 112.47C396.092 113.12 396.872 113.9 397.302 114.8C397.742 115.73 397.852 116.8 398.292 117.73C398.782 118.77 399.602 119.19 400.622 119.59C401.192 119.82 401.792 120.05 402.312 120.37C402.752 120.63 403.222 120.72 403.732 120.83V120.85C404.422 121.08 405.042 121.37 405.752 121.5C406.182 121.59 406.532 121.59 406.942 121.76C407.262 121.9 407.572 122.03 407.892 122.19C409.142 122.78 410.382 123.51 411.512 124.33C412.012 124.68 412.562 124.93 413.052 125.27C413.532 125.59 413.962 126.02 414.452 126.35C416.462 127.51 418.492 127.96 420.812 128.01C421.752 128.03 422.672 127.95 423.582 127.75C424.702 127.5 425.842 127.14 427.002 127.15C427.942 127.17 428.772 127.56 428.492 128.63C428.452 128.76 428.402 128.9 428.352 129.03L429.482 128.9C429.482 128.67 429.472 128.43 429.472 128.18C429.472 125.96 426.622 124.62 426.622 124.62C428.432 123.52 430.702 123.8 430.702 123.8L433.972 126.25L438.932 122.23L442.422 123.75L446.852 121.24L448.842 112.96C448.842 112.96 452.922 113.19 453.332 109.63C453.742 106.08 448.842 95.4698 448.842 95.4698L448.862 95.4898ZM412.332 106.8C412.122 107.05 411.872 107.53 411.492 107.47C411.012 107.4 410.882 106.62 410.722 106.27C410.552 105.91 410.282 105.67 410.152 105.29C409.932 104.7 409.712 104.29 409.302 103.82C408.782 103.22 408.222 102.71 407.672 102.14C407.182 101.63 406.692 101.06 406.252 100.49C405.832 99.9498 405.672 99.3998 405.462 98.7498C405.362 98.4298 405.302 98.0098 405.252 97.6599C405.212 97.4599 405.182 97.3498 405.282 97.1798C405.352 97.0398 405.492 96.9198 405.572 96.7898C406.682 96.2498 407.762 97.1198 408.432 97.9598C408.782 98.4098 409.012 98.9198 409.392 99.3498C409.742 99.7398 410.122 100.1 410.302 100.59C410.482 101.11 410.252 101.52 410.232 102.02C410.212 102.55 410.622 102.9 411.002 103.17C411.732 103.69 412.832 104.13 412.952 105.17C413.032 105.83 412.722 106.32 412.332 106.82V106.8ZM424.522 103.49C424.072 103.38 423.532 103.54 423.132 103.26C422.732 102.96 422.832 102.43 422.892 102C422.972 101.43 422.902 101.04 422.582 100.55C422.282 100.13 421.882 99.6698 422.012 99.0998C422.282 97.8698 423.712 98.2298 424.352 98.8698C424.932 99.4398 425.622 100.22 425.872 101C426.042 101.51 426.152 102.12 426.172 102.66C426.222 103.69 425.232 103.68 424.512 103.5L424.522 103.49Z" fill="#015048" stroke="white" stroke-miterlimit="10"/>
<path d="M522.091 66.1599L518.991 67.6999L511.711 69.1499H509.261L508.741 67.4099C508.741 67.4099 510.321 65.7599 509.671 65.1799C509.031 64.5999 507.281 65.1799 507.281 65.1799L504.951 66.0699L503.901 63.7799L505.761 62.4399L504.191 59.9899H500.691L496.321 62.8399L496.671 64.8799L499.291 63.3699L500.571 65.1799L499.051 66.0699L499.341 66.9899H501.381V68.3299L497.181 71.2399L495.501 70.0199L491.001 72.6399L489.721 71.4799C489.721 71.4799 490.011 68.3299 488.441 68.6799C486.861 69.0199 486.631 69.3799 486.631 69.3799L485.701 68.0399L483.251 69.3299L481.441 67.9899C481.441 67.9899 482.491 66.0599 481.441 65.6599C480.401 65.2499 478.411 65.8399 477.951 66.8199C477.481 67.8099 475.551 70.7299 475.551 70.7299L468.731 70.5599L467.681 68.4599L457.711 69.9699L459.411 76.0399L461.151 79.4799L459.871 81.9899H455.441L453.051 88.5099C453.051 88.5099 451.071 89.3299 450.901 90.3799C450.731 91.4199 451.831 93.1199 450.901 93.8699C449.961 94.6299 448.861 95.4999 448.861 95.4999C448.861 95.4999 447.581 91.9999 446.261 91.4799C444.951 90.9499 443.231 89.4699 443.111 87.6899C443.001 85.9099 443.171 84.2799 443.811 83.2599C444.451 82.2399 444.741 81.2699 443.221 81.0499C441.711 80.8199 439.291 78.4199 439.141 77.0299C439.001 75.6299 437.311 72.3099 438.121 71.7499C438.941 71.1999 440.681 70.1699 440.571 68.4599C440.451 66.7399 439.611 63.0699 435.441 61.1699C431.271 59.2799 428.211 57.8199 429.721 56.4499C431.241 55.0799 432.351 51.1099 426.841 50.1599C421.321 49.1999 418.091 46.9199 416.541 44.5699C414.991 42.1999 415.521 40.8299 418.341 41.0399C421.171 41.2399 421.171 41.1599 422.131 42.1199C423.091 43.0799 424.721 44.1899 425.891 42.7899C427.061 41.3899 429.421 37.7099 428.601 35.9999C427.781 34.2799 427.091 31.2799 424.321 31.5099C421.561 31.7399 422.851 34.9699 420.861 35.1999C418.881 35.4299 413.861 37.0599 410.171 35.1199C406.491 33.1799 405.741 30.2599 405.161 28.8299C404.771 27.8599 404.711 26.9499 404.711 26.4499L406.761 27.1999L409.171 25.3899L412.421 26.1399C412.421 26.1399 412.321 23.1399 412.421 23.1399C412.521 23.1399 414.471 23.1099 414.471 23.1099L415.621 25.7599L418.271 26.2899L425.801 28.9099V27.2099L431.211 30.6899C431.211 30.6899 431.171 30.7399 431.151 30.7799C431.141 30.8199 431.141 30.8899 431.141 30.9399C431.161 31.0299 431.221 31.0899 431.251 31.1799H431.271C431.271 31.2199 431.321 31.2799 431.351 31.3099C431.391 31.3699 431.431 31.4199 431.471 31.4799C431.541 31.5799 431.621 31.6799 431.701 31.7599C431.801 31.8599 431.871 31.9399 431.991 32.0099C432.091 32.0599 432.161 32.1499 432.251 32.1999C432.321 32.2399 432.401 32.2599 432.491 32.2799C432.691 32.2999 432.831 32.4699 432.991 32.5899C433.311 32.8299 433.651 32.8999 434.021 33.0499C435.221 33.5599 436.281 34.2199 437.551 34.5699C438.971 34.9499 440.281 35.1399 441.771 35.1399C442.541 35.1399 443.351 35.2999 444.091 35.0699C444.711 34.8899 445.421 34.8699 446.031 34.6199C446.031 34.6199 445.831 34.6199 445.921 34.5599C446.041 34.4799 446.241 34.3799 446.381 34.3299C446.701 34.1999 447.041 34.1199 447.371 34.0799C447.891 34.0199 448.381 33.8799 448.901 33.7499C449.681 33.5499 450.341 33.0999 450.971 32.6199C451.531 32.1999 452.161 31.8599 452.741 31.4599C453.151 31.1799 453.491 30.8099 453.891 30.4999C454.371 30.1399 454.911 29.9099 455.481 29.7099C456.241 29.4199 457.051 29.3699 457.841 29.1799C458.581 28.9899 459.171 29.0399 459.911 28.9599C460.721 28.8699 461.541 28.8199 462.321 29.1299C462.661 29.2599 462.911 29.5599 463.231 29.6899C464.051 30.0299 465.171 29.7199 466.061 29.9299C466.601 30.0699 466.981 30.2899 467.441 30.5499C467.861 30.7799 468.341 30.8699 468.771 31.0599C469.431 31.3499 470.151 31.5299 470.861 31.7099C471.491 31.8599 471.801 32.1199 472.471 32.0699C473.041 32.0299 473.721 31.9299 474.271 32.1299C474.391 32.1699 474.111 32.2699 474.181 32.2899C474.461 32.4099 474.741 32.5099 475.011 32.6299C475.361 32.7799 475.801 32.9299 476.191 32.9599C476.561 32.9899 477.051 32.8399 477.331 32.6499C477.701 32.3899 477.761 31.8599 478.081 31.5599C478.251 31.3999 478.531 31.3399 478.801 31.2999C478.981 31.2699 479.161 31.2699 479.311 31.2599C480.331 31.1799 481.521 31.0499 482.531 31.2299C483.051 31.3399 483.681 31.4899 483.541 32.1499C483.541 32.1499 483.541 32.1499 483.541 32.1599C483.421 32.6499 482.731 32.9099 482.671 33.3499C482.621 33.7399 483.341 34.4099 483.641 34.6199C483.721 34.6799 483.641 34.4599 483.651 34.4699C483.731 34.4999 483.951 34.6499 483.961 34.6599C484.171 34.7899 484.321 34.8699 484.541 34.9799C484.861 35.1299 485.291 35.2499 485.631 35.4099C486.301 35.7199 486.651 36.6199 487.361 36.8499C487.681 36.9499 488.251 36.8999 488.601 36.9199C489.061 36.9399 489.541 36.9199 489.981 36.9899C490.811 37.1099 491.791 37.8199 492.401 38.3799C493.051 38.9799 493.461 39.6099 494.391 39.7699C494.791 39.8399 495.241 39.9299 495.641 39.9599C496.091 39.9899 496.331 40.1299 496.751 40.2499C497.111 40.3599 497.471 40.3799 497.821 40.5199C498.191 40.6999 498.511 41.0099 498.851 41.2399C499.631 41.7499 500.371 42.3299 501.111 42.8799C501.831 43.4299 502.401 44.0799 502.951 44.7499C503.701 45.6499 504.581 46.4499 505.451 47.2199C506.061 47.1999 506.731 47.4799 507.221 47.8299C507.701 48.1799 508.181 48.3699 508.711 48.6399C509.191 48.8899 509.711 49.0599 510.181 49.3099C510.681 49.5699 510.991 49.9499 511.391 50.3199C512.111 50.9999 512.881 51.6899 513.121 52.6699C513.351 53.6099 513.301 54.6099 513.151 55.5399C512.951 56.8799 513.531 58.9299 514.711 59.6599C515.531 60.1699 516.381 60.6099 517.141 61.2299C518.361 62.2399 519.461 63.3699 520.541 64.4899C521.051 65.0199 521.651 65.5699 522.071 66.1499L522.091 66.1599Z" fill="#F5F5F5" stroke="#636362" stroke-miterlimit="10"/>
<path d="M553.288 82.68L553.848 76.06L545.278 71.3C544.858 71.18 544.608 70.78 544.248 70.57C543.828 70.31 543.488 70.13 543.148 69.77C542.368 68.96 541.708 66.84 540.328 67.07C539.978 67.12 539.948 67.3 539.828 67.55L539.848 67.67L539.758 67.69C539.568 68 539.308 68.28 539.088 68.56C538.708 69.05 538.158 69.43 537.688 69.83C537.278 70.17 536.868 70.66 536.378 70.88C535.968 71.05 535.488 71.18 535.058 71.33C533.968 71.71 532.818 71.98 531.658 71.96C530.658 71.95 529.488 71.77 528.558 71.38C527.898 71.1 527.048 70.75 526.538 70.26C525.698 69.49 524.978 68.66 524.098 67.93C523.358 67.31 522.688 66.96 522.098 66.17L518.998 67.71L511.718 69.16H509.268L508.748 67.42C508.748 67.42 510.328 65.77 509.678 65.19C509.038 64.61 507.288 65.19 507.288 65.19L504.958 66.08L503.908 63.79L505.768 62.45L504.198 60H500.698L496.328 62.85L496.678 64.89L499.298 63.38L500.578 65.19L499.058 66.08L499.348 67H501.388V68.34L497.188 71.25L495.508 70.03L491.008 72.65L489.728 71.49C489.728 71.49 490.018 68.34 488.448 68.69C486.868 69.03 486.638 69.39 486.638 69.39L485.708 68.05L483.258 69.34L481.448 68C481.448 68 482.498 66.07 481.448 65.67C480.408 65.26 478.418 65.85 477.958 66.83C477.488 67.82 475.558 70.74 475.558 70.74L468.738 70.57L467.688 68.47L457.718 69.98L459.418 76.05L461.158 79.49L459.878 82H455.448L453.058 88.52C453.058 88.52 451.078 89.34 450.908 90.39C450.738 91.43 451.838 93.13 450.908 93.88C449.968 94.64 448.868 95.51 448.868 95.51C448.868 95.51 453.768 106.12 453.358 109.67C452.948 113.23 448.868 113 448.868 113L446.878 121.28L442.448 123.79L438.958 122.27L433.998 126.29L430.728 123.84C430.728 123.84 428.458 123.55 426.648 124.66C426.648 124.66 429.498 126 429.498 128.22C429.498 128.47 429.498 128.71 429.508 128.94C429.538 129.71 429.598 130.4 429.658 130.92C429.838 130.81 430.038 130.75 430.278 130.73C430.618 130.71 430.898 130.85 431.208 130.94C431.578 131.04 431.958 131.07 432.338 131.11C433.218 131.21 433.738 130.93 434.478 130.53C435.108 130.19 435.698 129.89 436.408 129.89C437.648 129.89 438.908 130.06 440.148 130.11C441.138 130.17 442.108 130.19 443.058 129.88C443.958 129.6 444.778 129.1 445.698 128.9C447.058 128.6 448.888 129.24 448.148 130.67C449.248 130.74 449.948 130.9 449.998 131.21C450.298 132.9 450.758 137.34 450.758 137.34C450.758 137.34 455.888 138.04 456.878 139.84C457.048 140.14 457.288 140.65 457.648 141.3C459.328 144.32 463.398 150.2 472.038 149.82C472.018 149.68 472.088 149.5 472.318 149.31C472.718 148.96 473.248 148.78 473.648 148.41C474.048 148.06 474.448 147.89 474.968 147.78C475.448 147.68 475.958 147.57 476.458 147.69C477.058 147.84 477.618 148.1 478.238 148.22C479.438 148.47 480.588 148.64 481.808 148.77C482.658 148.85 483.678 148.9 484.498 149.17C485.098 149.36 485.628 149.7 486.258 149.83C487.688 150.21 489.098 150.52 490.578 150.37C491.768 150.24 492.928 149.88 494.138 149.94C495.308 150 496.448 150.39 497.628 150.39C498.718 150.39 499.618 149.94 500.628 149.65C501.448 149.42 501.978 149.79 502.028 150.66C502.078 151.67 501.508 152.71 500.538 153.08C499.368 153.5 498.038 153.04 496.878 152.81C495.698 152.57 494.588 152.57 493.418 152.86C491.368 153.36 489.428 153.6 487.378 153.14C487.398 153.14 487.428 153.14 487.428 153.14C487.428 153.14 487.388 153.12 487.328 153.11C487.118 153.06 486.968 153.07 486.788 153.03C486.528 152.99 486.278 152.9 486.028 152.82C485.568 152.7 485.118 152.56 484.658 152.43C484.538 152.39 484.428 152.37 484.318 152.34C485.408 153.96 485.268 155.65 485.268 155.65C485.268 155.65 487.108 163.4 484.658 164.74C482.208 166.08 477.718 167.48 478.778 169.05C479.818 170.63 481.688 172.14 485.128 171.73C488.558 171.32 489.848 170.86 490.658 172.14C491.478 173.42 494.568 175.76 494.798 179.72C495.038 183.69 495.898 186.25 494.738 187.07C493.578 187.89 492.588 189.75 493.458 190.28C494.328 190.8 495.898 191.85 495.668 192.96C495.588 193.37 495.518 194.37 495.668 195.46C495.928 197.33 496.788 199.46 499.168 199.43C502.958 199.37 512.978 199.78 514.848 200.89C516.718 201.99 525.048 206.6 526.048 205.49C527.038 204.38 528.958 203.27 529.308 199.31C529.658 195.34 530.468 192.49 531.578 191.21C532.688 189.93 535.428 184.21 537.058 183.98C538.698 183.75 539.798 182 538.808 180.07C537.858 178.23 530.998 170.48 530.448 165.73L530.338 165.75L530.078 162.64L535.048 157.68C535.048 157.68 534.848 151.46 534.578 149.61C534.308 147.76 533.718 145.38 531.668 142.2C529.618 139.02 532.058 129.43 532.598 125.33C533.118 121.23 538.978 112.66 539.968 111.14C540.968 109.62 540.868 109.48 543.178 108.29C545.488 107.1 546.018 104.35 546.948 101.25C547.868 98.14 550.688 96.16 554.758 92.91C558.828 89.68 553.238 82.72 553.238 82.72L553.288 82.68ZM544.518 81.81L542.618 83.72L543.708 85.97L542.778 86.63L539.128 89.35L537.488 89.03L531.498 90.86L530.458 93.04L531.268 100.15L532.708 104.39L530.768 113.25L524.008 120.94L514.488 125.96L507.688 123.2L504.858 124.64L497.828 118.27L495.448 119.83L486.938 117.46L486.698 116.26L490.738 112.8L487.978 110.35V106.58L490.498 104.29C490.498 104.29 485.568 101.07 485.338 101.15C485.098 101.23 489.648 93.46 489.648 93.46L490.738 89.06L496.958 88.52L500.028 90H507.768L511.728 86.93L514.638 88.99L519.298 86.39L519.768 85.5L518.948 83.71L519.218 82.94C519.218 82.94 520.888 82.35 521.008 82.35C521.128 82.35 522.828 83.4 522.828 83.4L524.968 82.97L527.838 79.43L533.668 77.72L533.978 76.2L537.248 75.46L544.088 78.18L543.808 79.64L544.508 80.08V81.82L544.518 81.81Z" fill="#F5F5F5" stroke="#636362" stroke-miterlimit="10"/>
<path d="M374.732 238.62C374.092 236.87 375.042 234.6 375.822 234.04C376.602 233.47 374.892 230.82 374.892 230.82L374.422 231L372.002 230.18L363.262 227.11L349.892 233.64C349.892 233.64 347.172 231.58 347.062 231.46C346.952 231.34 343.832 232.98 343.832 232.98L338.082 230.57L330.892 232.4L324.522 229.68L322.112 226.23L315.432 226.62L309.332 227.17L308.052 228.91L306.062 229.06L304.782 228.44L304.132 229.53L299.772 223L288.852 216.35L289.282 211.38L287.102 208.04L289.622 203.69L289.862 201.32L287.962 199.46L290.602 195.57L294.532 195.85L300.402 184.93L300.942 178.25L292.782 177.28L288.232 168.38L288.932 155.63L291.182 152.48L289.312 148.05L288.612 144.9L289.312 140.16L285.432 135.38L283.332 128.89V128.81L281.882 121.15C281.882 121.15 279.762 121.15 278.532 121.06C277.312 120.97 276.462 123.48 276.462 123.48L273.462 123.31L272.942 121.5L273.462 120.02L271.592 119.7L269.522 122.44L265.942 121.39L259.002 114.86L251.572 117.75L245.392 118.45L245.632 119.56L246.132 121.62C246.132 121.62 246.422 124.71 246.622 125.7C246.822 126.69 247.792 127.25 248.512 127.56C249.242 127.88 249.192 127.85 249.532 128.29C249.882 128.72 250.432 129.46 252.182 130.04C253.932 130.62 254.282 135.66 254.282 135.66L258.272 136.47L258.592 140.49L255.882 142.56L254.572 145.65L247.722 146.38L244.602 142.85L238.482 143.52L236.442 145.56L235.512 152.27L227.322 155.44L227.932 160.8L227.502 161.36L223.532 163.1L222.692 162.84L223.192 159.02L221.382 157.77L216.342 159.9L212.372 153.66L214.362 152.11L221.032 154.33L222.052 152.67L220.972 151.71L220.392 149.03C220.392 149.03 223.192 146.84 224.212 145.71C225.232 144.57 227.892 144.81 229.812 144.92C231.732 145.04 231.992 144.48 231.582 142C231.182 139.52 227.742 139 226.952 139C226.162 139 223.892 139.58 222.902 140.46C221.912 141.34 217.122 143.27 217.122 143.27L213.392 136.49H210.472L207.852 131.79C207.852 131.79 211.022 130.82 213.272 129.73C215.532 128.64 219.532 125.85 219.532 125.85L220.312 123.09L227.292 120.82L230.382 116.29L237.742 114.03L238.872 113L240.122 109.87C240.122 109.87 237.572 109.75 236.792 109.75C236.012 109.75 235.432 110.76 233.442 111.89C231.472 113.02 227.312 112.63 225.052 112.75C222.802 112.87 222.102 112.17 221.202 111.82C220.302 111.47 218.602 110.81 217.162 110.92C215.722 111.04 213.122 108.2 213.122 108.2C213.122 108.2 208.112 113.21 206.322 115.12C204.532 117.02 202.902 117.18 200.532 117.84C198.162 118.51 193.262 117.03 192.332 117.1C191.412 117.18 190.622 116.91 189.652 116.25C188.682 115.59 185.222 115.59 183.552 115.59C181.882 115.59 182.662 117.65 182.232 119.44C181.802 121.23 180.562 121.23 179.742 121.96C178.922 122.7 181.062 124.33 180.162 125.81C179.272 127.29 174.922 127.48 173.982 127.83C173.052 128.18 172.002 127.95 171.342 127.52C170.682 127.1 168.932 127.75 167.852 128.03C166.752 128.3 164.082 133.55 162.992 135.41C161.902 137.28 159.762 137.7 158.402 138.17C157.042 138.63 155.722 143.14 155.722 143.14C155.722 143.14 152.772 140.92 152.182 140.46C151.602 139.99 150.162 140.43 148.802 140.93C147.442 141.44 147.562 143.34 146.862 144.43C146.162 145.52 143.792 145.83 142.162 146.64C140.522 147.46 139.512 144.04 138.972 143.34C138.662 142.94 137.152 143.08 135.922 143.26L136.482 145.03L136.342 145.1C140.432 146.99 141.152 150.25 141.262 152.58C141.382 155.14 138.702 160.51 138.702 160.51L140.602 162.34L145.532 157.52L154.082 156.59L154.662 155.12L163.642 152.94L164.062 153.79L162.342 157.83L164.682 160.71L166.902 158.29L170.512 161.01L168.842 164.12L172.612 167.09C172.722 167 172.822 166.9 172.912 166.83C173.572 166.25 174.132 165.56 174.702 164.89C175.282 164.2 175.682 164.1 176.492 163.79C177.562 163.38 178.492 162.56 179.372 161.85C180.652 160.8 182.342 160.51 183.622 159.48C185.102 158.29 186.072 156.44 187.342 155.03C188.102 154.19 188.902 153.37 189.732 152.61C190.262 152.13 191.072 151.28 191.842 151.23C192.682 151.16 192.752 151.99 192.652 152.63C192.442 154.1 191.652 155.77 190.802 156.95C189.552 158.71 187.992 160.09 187.582 162.33C187.462 162.96 187.442 163.43 187.022 163.95C185.812 165.51 184.372 166.62 183.682 168.57C182.942 169.27 182.112 170.23 181.142 170.59C180.112 170.98 178.962 170.85 177.942 171.18C177.252 171.4 176.702 171.92 176.072 172.26C175.502 172.57 174.392 173.09 173.752 172.67C173.082 172.23 173.632 171.56 174.082 171.17C175.322 170.1 176.792 169.93 177.802 168.55C178.882 167.09 180.082 165.47 179.812 163.55C179.402 163.49 179.072 163.96 178.852 164.27C178.852 164.25 178.852 164.24 178.852 164.23C178.042 165.34 177.232 166.45 176.392 167.53C175.062 169.23 173.242 169.76 171.272 170.47C171.432 170.59 170.622 170.6 170.372 170.58C169.992 170.56 169.632 170.58 169.412 170.22C169.262 169.99 169.232 169.77 169.282 169.54C163.012 172.48 162.292 177.89 162.342 180.5C162.532 180.59 162.712 180.7 162.882 180.84C163.232 181.11 163.512 181.45 163.722 181.82C164.392 181.84 165.102 182.06 165.302 182.88C165.432 183.42 165.782 184.91 166.212 186.66L173.022 185.37L176.602 184.38L178.812 184.12L183.222 181.87L188.822 177.94L192.932 182.3L189.172 187.41L188.762 190.29L186.582 191.9L189.032 194.49L189.462 197.2L191.072 196.79L185.882 201.74L187.192 203.43L191.332 202.55L195.912 202.88C195.912 202.88 198.562 206.05 201.362 205.71C204.162 205.36 207.422 202.88 209.582 204.4C211.742 205.92 212.382 205.83 212.262 207.9C212.142 209.97 212.462 211.69 211.712 212.8C210.952 213.91 209.902 216.12 209.292 215.36C208.682 214.61 208.682 212.65 208.682 212.65L205.832 211.2L204.632 214.26C204.632 214.26 208.562 215.95 208.222 217.96C207.872 219.97 206.152 220.03 206.092 221.96C206.032 223.88 205.072 226.38 204.962 227.2C204.852 228.02 204.462 229.24 203.762 229.67C203.062 230.11 202.282 230.43 202.632 231.51C202.982 232.59 205.052 236 204.232 237.37C203.422 238.74 203.122 239.32 203.392 240.28C203.652 241.24 204.202 242.5 204.202 242.5C204.202 242.5 211.462 244.45 211.342 245.01C211.222 245.57 211.572 246.67 212.592 247.14C213.612 247.61 214.892 247.72 214.542 249.82C214.192 251.92 214.372 257.19 213.612 257.52C212.852 257.84 212.412 259.09 211.662 258.54C210.902 257.99 210.172 257.11 209.182 257.17C208.182 257.23 206.732 257.17 206.702 258.25C206.672 259.33 207.902 261.34 206.732 261.84C205.572 262.34 204.312 262.57 204.382 263.65C204.432 264.73 204.522 265.69 205.192 266.48C205.862 267.27 206.992 267.94 206.502 268.75C206.012 269.57 205.482 273.53 204.082 273.38C202.682 273.24 200.352 272.77 199.602 274.26C198.842 275.75 195.112 279.74 191.752 281.34L194.322 283.83C194.322 283.83 195.102 290.48 194.162 291.41C193.232 292.34 192.182 293.47 192.062 295.33C191.942 297.2 192.062 303.84 190.432 304.15C188.802 304.46 185.852 305.09 187.092 307.73C188.332 310.36 188.452 311.96 187.832 313.28C187.212 314.6 186.632 317.4 188.142 319.3C189.652 321.2 190.712 322.92 190.592 324.31C190.482 325.71 190.362 330.1 190.362 330.1L193.772 329.59L194.902 328.78L197.412 328.11L197.822 326.3L197.562 323.76L200.682 321.14H204.792L205.162 325.62C205.162 325.62 213.682 322.89 213.702 322.8C213.732 322.72 214.812 320.76 214.812 320.76C214.812 320.76 222.742 318.28 222.822 318.28C222.912 318.28 225.122 316.94 225.122 316.94H228.362L231.622 318.31L242.002 316.5V314.46H236.992L235.912 312.71L238.412 311.02L241.502 310.7L245.202 309.34L247.762 310.73L253.672 303.07L257.842 305.95L261.282 306.71L265.862 308.95L273.502 304.55L279.452 301.46C279.452 301.46 284.902 295.31 284.982 295.31H289.442L292.472 294.37C292.472 294.37 292.962 293.64 294.462 293.35C295.942 293.06 298.482 292.12 298.982 291.25C299.472 290.37 300.202 290.12 300.932 289.91C301.662 289.7 302.422 290.11 302.972 288.83C303.532 287.55 305.452 284.95 304.952 284.46C304.462 283.96 303.292 282.51 304.402 281.67C305.512 280.82 311.492 276.01 311.492 276.01C311.492 276.01 315.132 278.57 318.272 278.69C321.422 278.8 323.382 278.92 323.382 278.92L328.452 283.29C328.452 283.29 338.212 282.82 338.942 283.9C339.672 284.98 341.042 286.82 343.082 286.03C345.122 285.24 355.732 280.41 355.732 280.41C355.732 280.41 362.962 275.66 363.662 272.27C364.362 268.89 366.492 259.95 366.492 259.95L369.422 255.21L368.172 251.65L370.342 248.37L374.212 248.61L376.602 246.2C376.602 246.2 375.402 240.35 374.762 238.6L374.732 238.62ZM282.812 254.67C280.172 254.98 277.612 254.36 276.562 255.1C275.512 255.84 274.352 256.89 272.562 255.88C270.772 254.87 267.972 253.28 266.572 252.34C265.172 251.41 262.612 248.57 261.712 248.46C260.812 248.34 259.842 248.31 259.302 247.52C258.752 246.74 258.292 245.73 257.402 245.58C256.502 245.43 256.352 245.7 256.002 244.77C255.652 243.84 256.312 243.53 255.532 243.1C254.752 242.68 252.192 241.63 253.242 240.77C254.292 239.92 255.262 240.07 254.642 238.98C254.022 237.9 253.402 236.05 254.952 237.31C254.952 237.31 258.532 240.14 259.272 241.08C260.002 242.01 261.672 244.42 265.102 245.2C268.512 245.98 268.092 247.3 269.222 248.54C270.342 249.79 270.422 251.79 274.072 251.35C277.722 250.91 278.972 250.35 280.452 251.35C281.932 252.35 285.462 254.38 282.822 254.68L282.812 254.67ZM316.472 236.49C315.582 238.35 312.892 236.8 310.522 239.21C308.152 241.62 301.192 246.82 301.192 246.82C301.192 246.82 299.492 248.18 298.902 248.18C298.312 248.18 297.312 248.42 297.192 248.81C297.072 249.2 295.752 249.86 294.432 249.78C293.102 249.7 290.622 249.01 292.562 248.31C294.502 247.6 294.932 247.45 295.862 246.16C296.792 244.88 300.762 242.9 302.192 240.83C303.632 238.77 306.202 235.47 308.292 235.2C310.392 234.93 317.352 234.62 316.462 236.49H316.472Z" fill="#F5F5F5" stroke="#636362" stroke-miterlimit="10"/>
<path d="M172.61 167.09C172.45 167.24 172.26 167.37 172.08 167.42C172.04 167.43 171.52 167.46 171.52 167.42C170.92 167.92 169.47 168.69 169.28 169.55C163.01 172.49 162.29 177.9 162.34 180.51C161.66 180.19 160.89 180.15 160.13 180.12C158.97 180.08 157.87 179.97 156.75 179.66C155.79 179.39 154.63 178.86 153.62 179.18C152.56 179.52 152.06 180.73 151.63 181.64C150.33 183.06 149.3 184.7 147.21 184.5C146.69 184.46 146.16 184.47 145.64 184.47C144.71 184.49 144.03 184.77 143.34 185.38C142.59 186.03 141.62 186.13 140.9 186.79C140.18 187.43 139.72 188.09 139.63 189.05C139.59 189.46 139.62 189.97 139.45 190.36C139.24 190.83 138.77 191.17 138.51 191.61C138.51 191.68 138.54 191.7 138.61 191.67C137.28 192.73 135.96 193.29 135.68 195.04C135.56 195.76 135.62 196.63 134.81 196.87C134.21 197.06 133.52 196.77 132.9 196.87C130.64 197.2 128.94 199.38 127.77 201.26C126.72 202.51 125.35 204.48 123.61 204.72C122.75 204.84 122.41 205.22 122.1 206.11C121.77 207.03 122.1 207.78 122.05 208.69C122.03 209.1 121.91 209.48 121.74 209.85C118.65 208.92 118.53 206.95 118.61 205.48C118.7 203.74 116.92 202.46 116.35 201.77C115.78 201.07 115.98 199.77 116.62 197.96C117.26 196.16 115.98 195.59 115.3 194.95C114.62 194.31 112.56 196.21 109.4 197.47C106.23 198.74 105.75 199.07 104.33 201.34C102.91 203.61 96.9498 204.39 95.7198 205.03C94.4898 205.67 87.7898 211.7 84.6798 212.72C83.1798 213.22 80.4299 213.03 77.9799 212.7L78.4298 200.46L74.5898 194.64L81.8298 186.11L85.3699 186.74L104.95 179.37L107.4 173.81L116.85 170.14L114.08 161.64L120.69 158.6L120.92 153.31L136.33 145.08C140.42 146.97 141.14 150.23 141.25 152.56C141.37 155.12 138.69 160.49 138.69 160.49L140.59 162.32L145.52 157.5L154.07 156.57L154.65 155.1L163.63 152.92L164.05 153.77L162.33 157.81L164.67 160.69L166.89 158.27L170.5 160.99L168.83 164.1L172.6 167.07L172.61 167.09Z" fill="#F5F5F5" stroke="#636362" stroke-miterlimit="10"/>
<path d="M194.278 283.82L191.708 281.33C191.708 281.33 190.468 283.74 189.578 285.25C188.678 286.77 187.788 283.07 187.438 282.18C187.088 281.29 183.008 284.86 180.868 286.22C178.728 287.58 177.608 290.53 176.368 292.59C175.118 294.65 172.988 294.38 169.948 294.57C166.918 294.77 164.858 297.49 163.378 298.34C161.898 299.19 161.238 299.97 160.698 302.49C160.158 305.02 157.198 304.86 155.838 305.57C154.478 306.26 155.378 301.87 155.568 300.05C155.768 298.23 154.948 296.79 154.098 293.79C153.248 290.8 144.078 290.41 140.768 290.18C137.468 289.95 137.818 292.83 135.868 293.21C133.928 293.6 132.958 288.97 133.078 287.88C133.198 286.8 132.188 286.8 130.978 286.4C129.768 286.02 130.738 282.79 130.738 282.79L132.338 283.1L134.008 281.35C134.008 281.35 136.038 284.46 137.158 284.81C138.278 285.16 138.628 283.52 138.478 282.32C138.318 281.12 143.878 276.88 143.878 276.88L137.078 276.34L135.288 274.55L133.888 274.51L131.948 273.61L127.478 275.54L126.608 260.79L128.468 257.82L134.178 255.02C135.928 257.82 137.158 257.24 138.028 256.83C138.908 256.42 137.738 250.65 137.738 250.65L138.668 249.66L140.938 249.37L149.918 236.84L145.838 236.08L150.268 228.97L154.348 225.29L153.648 224.24L152.248 225.29L151.608 223.43L153.128 219.58H156.568L157.788 217.66L154.868 211.48L156.438 209.38L154.748 205.13L152.948 205.71L150.148 207.75L147.078 202.23C147.078 202.23 147.038 202.24 147.018 202.25C146.658 202.32 146.418 202.16 146.168 202.06C145.918 201.97 145.768 201.7 145.408 201.82C144.948 201.98 144.428 202.92 144.088 203.33C143.698 203.81 143.278 204.28 142.838 204.72C144.458 206.2 147.118 208.53 147.678 209.15C148.488 210.05 145.808 210.93 144.088 210.93C142.368 210.93 140.878 212.15 141.318 213.18C141.758 214.2 143.118 213.85 145.048 213.65C146.978 213.45 146.178 215.34 145.108 216.56C144.028 217.79 144.128 220.49 144.128 221.72C144.128 222.95 144.498 223.44 145.348 223.79C146.188 224.14 146.858 222.83 148.118 223.15C149.368 223.47 148.208 225.83 147.068 226.62C145.928 227.41 144.528 230.38 144.528 230.38L139.928 230.64L137.138 227.87C137.138 227.87 134.828 229.88 133.988 230.46C133.138 231.04 130.988 229.5 130.258 229.07C129.528 228.63 128.858 229.76 128.098 230.35C127.408 230.88 124.448 225.94 122.488 223.54C121.818 223.83 121.058 224 120.368 223.79C119.628 223.57 118.948 223.16 118.168 223.07C117.258 222.96 116.408 223.5 115.548 223.66C114.778 223.81 114.148 223.84 113.398 224.13C111.388 224.92 109.368 225.69 107.458 226.67C106.558 227.13 104.398 229.08 104.098 227.14C103.908 225.98 104.168 223.94 104.688 222.89C105.318 221.65 106.828 221.48 108.008 221.03C110.108 220.21 111.268 218.8 112.718 217.12C113.398 216.33 114.118 215.54 115.048 215.03C115.798 214.63 116.618 214.52 117.388 214.19C118.778 213.61 119.708 212.18 120.758 211.16C121.138 210.79 121.488 210.36 121.718 209.87C118.628 208.94 118.508 206.97 118.588 205.5C118.678 203.76 116.898 202.48 116.328 201.79C115.758 201.09 115.958 199.79 116.598 197.98C117.238 196.18 115.958 195.61 115.278 194.97C114.598 194.33 112.538 196.23 109.378 197.49C106.208 198.76 105.728 199.09 104.308 201.36C102.888 203.63 96.9284 204.41 95.6984 205.05C94.4684 205.69 87.7684 211.72 84.6584 212.74C83.1584 213.24 80.4084 213.05 77.9584 212.72L77.9384 213.19L74.1984 218.34L75.3284 228.23L68.1084 233.68L63.8184 240.73L50.3484 247.91L25.2884 273.57L31.2784 282.74L19.9884 297.23L21.5484 303.12L18.3984 308.61L30.6384 316.75L30.7984 324.23L25.4884 333.99L33.3584 335C34.2884 333.44 35.6284 332.29 36.9384 331.07C37.6184 330.44 37.6084 329.81 37.7784 328.96C37.9484 328.14 38.0784 327.45 38.1184 326.61C38.1484 325.9 38.3484 325.26 38.5484 324.59C38.7284 323.96 38.9184 323.22 39.4384 322.78C39.6984 322.57 39.9784 322.41 40.1884 322.14C40.4684 321.79 40.6084 321.36 40.8884 321C41.4184 320.3 42.2284 319.93 42.7484 319.23C43.1584 318.69 43.6284 318.17 44.0084 317.6C44.3784 317.05 44.6584 316.41 45.0884 315.89C45.5884 315.31 45.9684 314.92 46.7384 314.86C47.5784 314.79 48.3284 314.75 48.8584 314.02C49.2884 313.4 49.2584 312.64 49.7084 312.05C49.9684 311.68 50.3784 311.65 50.7184 311.39C51.0584 311.13 51.1184 310.79 51.1884 310.42C51.3584 309.64 51.0984 308.88 51.2184 308.1C51.3384 307.32 52.3284 307.18 52.9384 306.91C53.2784 306.76 53.5884 306.61 53.7484 306.25C53.8884 305.9 53.9184 305.52 54.1384 305.19C54.4784 304.66 55.3684 304.57 55.8984 304.19C56.4784 303.78 56.8084 303.24 56.6984 302.51C56.5884 301.83 56.0484 301.18 56.6784 300.66C57.2384 300.19 58.0384 300.4 58.7284 300.39C59.6684 300.39 60.5784 300.16 61.4584 299.85C62.2884 299.58 62.9684 299.2 63.8984 299.3C64.5584 299.37 65.3884 299.42 66.0084 299.67C66.6384 299.93 67.1384 299.95 67.8384 299.8C68.4584 299.67 69.0584 299.39 69.5184 298.96C70.0284 298.5 70.3284 298.24 71.0484 298.26C71.7184 298.28 72.3384 298.38 72.9984 298.39C73.6384 298.39 74.1284 298.14 74.6184 297.72C74.8584 297.51 75.0484 297.22 75.2984 297C75.8884 296.48 76.7484 296.05 77.1784 295.37C77.5384 294.78 77.5584 293.89 78.0984 293.43C78.5684 293.04 79.2784 293.12 79.8484 293.1C81.3084 293.03 81.2584 292.19 81.8884 291.12C82.3284 290.37 83.1884 289.54 83.8884 289.01C84.9184 288.2 85.7684 288.98 86.6484 289.61C87.6584 290.32 88.5084 290.03 89.6284 289.76C90.6284 289.54 91.7784 289.68 92.7084 289.21C93.6184 288.74 94.1684 287.96 95.3084 288.15C96.3784 288.34 97.2684 288.89 98.3884 288.96C99.5984 289.05 100.178 289.33 100.998 290.22C101.748 291.05 102.588 291.29 103.678 291.07C104.898 290.81 106.048 290.55 107.308 290.71C108.538 290.86 109.708 291.27 110.928 291.45C112.038 291.62 113.548 291.57 114.258 292.6C114.818 293.42 115.038 294.84 116.208 295.04C117.258 295.22 118.488 294.63 119.568 294.58C120.798 294.53 121.658 294.89 122.598 295.68C123.078 296.09 123.548 296.52 124.148 296.74C124.678 296.93 125.258 296.92 125.818 296.95C126.778 297.02 127.738 297.31 128.558 297.83C129.358 298.33 130.068 299.49 131.108 299.41C131.618 299.38 132.018 299.14 132.518 299.37C133.238 299.7 133.578 300.4 134.078 300.96C134.418 301.33 134.828 301.6 135.188 301.93C136.258 302.97 137.298 303.83 138.738 304.31C139.968 304.73 141.308 304.95 142.448 305.58C143.528 306.19 144.338 307.29 145.168 308.19C146.158 309.27 147.208 310.48 147.388 312C147.568 313.54 146.608 314.51 145.258 315.04C143.868 315.57 142.508 315.61 141.068 315.27C140.428 315.11 139.728 314.87 139.058 314.94C138.938 314.95 138.828 314.98 138.718 315.02C139.758 316.5 140.738 317.91 141.118 318.45C142.058 319.78 141.858 321.06 141.428 323.15C141.008 325.25 143.988 327.15 146.288 327.85C148.578 328.55 148.078 333.09 148.508 335.39C148.928 337.69 149.678 338.11 151.658 338.89C153.648 339.67 154.028 343.56 154.028 343.56C154.028 343.56 155.078 349.03 156.868 350.87C158.658 352.69 157.718 355.73 159.118 356.7C160.518 357.67 160.828 359.11 160.828 359.11C160.828 359.11 167.008 358.41 169.958 358.18C172.908 357.94 173.998 354.33 175.358 351.61C176.718 348.89 181.298 346.13 183.598 344.57C185.898 343.02 186.478 338.59 186.088 336.45C185.698 334.31 190.328 330.12 190.328 330.12C190.328 330.12 190.448 325.72 190.558 324.33C190.678 322.93 189.628 321.22 188.108 319.32C186.588 317.42 187.178 314.62 187.798 313.3C188.418 311.98 188.308 310.38 187.058 307.75C185.818 305.1 188.768 304.48 190.398 304.17C192.028 303.86 191.918 297.22 192.028 295.35C192.148 293.48 193.198 292.36 194.128 291.43C195.068 290.5 194.288 283.85 194.288 283.85L194.278 283.82ZM56.5784 255.15C55.6684 256.05 54.9184 257.23 54.0984 258.23C53.3184 259.19 52.3484 259.76 51.5384 260.71C50.7584 261.63 49.6084 262.04 48.5984 262.65C47.8484 263.09 47.1584 263.55 46.4784 264.08C46.2984 264.22 46.1184 264.37 45.9384 264.52C45.6384 264.77 44.5284 266.01 44.0884 265.42C43.8284 265.06 44.7684 263.76 44.9984 263.47C45.3784 262.97 45.9684 262.61 46.4284 262.16C46.8884 261.7 47.3884 261.26 47.8684 260.81C48.7084 260.03 49.3384 259.37 50.4184 258.93C51.4084 258.53 52.2684 257.76 53.1084 257.13C53.6184 256.77 54.0784 256.36 54.4484 255.85C54.8484 255.31 55.1784 254.74 55.7784 254.39C56.0684 254.22 56.6284 253.97 56.9284 254.24C57.3284 254.61 56.8284 254.91 56.5784 255.15Z" fill="#F5F5F5" stroke="#636362" stroke-miterlimit="10"/>
<path d="M380.791 283.28L377.071 291.42L369.231 293.17L368.871 302.15L367.491 303L359.011 305.13L354.301 311.28L358.871 316.39L351.771 321.15L350.481 326.11L345.181 327.94L340.171 334.49L331.241 336.17C331.241 336.17 325.531 341.83 324.191 344.51L327.211 347.09L329.501 350.77L332.771 351.56L337.341 360.64L336.351 367.09L333.771 371.35L329.991 372.04L328.601 376.06L318.091 377.95L315.211 386.48L316.651 389.36L314.421 393.47L314.721 396.85L308.911 401.81L298.501 402.06L293.881 405.83L291.991 412.78L294.371 418.14L290.851 419.53L286.281 416.8L280.771 418.64L272.641 414.23L271.051 418.74L266.781 418.44L266.931 412.59L261.421 406.54L250.661 407.59L248.021 404.71L242.521 404.65L242.171 410.4L231.061 411.84L230.521 415.41C230.521 415.41 221.241 420.57 218.111 424.73L213.851 421.16L204.121 420.07L198.161 426.42L190.871 426.76L189.381 433.11L185.711 433.07L182.491 428.65L176.091 433.51L173.261 433.61L171.681 427.86L165.231 419.68L165.871 413.87L160.711 409.56L158.431 399.44L153.671 398.3L148.711 388.72L145.131 391.7L140.921 390.31L140.821 393.73L137.551 391.6L141.911 375.43L126.141 372.85L124.901 367.04L129.171 361.83L128.681 354.68L136.271 341.44L128.981 335.98L124.121 323.68L127.201 319.51C127.581 318.77 128.131 318.12 128.591 317.43C128.721 317.24 128.831 317.06 128.981 316.89C129.061 316.77 129.181 316.59 129.301 316.51C129.411 316.43 129.371 316.46 129.481 316.46C129.601 316.48 129.721 316.49 129.851 316.49C130.241 316.49 130.631 316.75 131.011 316.73C131.371 316.7 131.711 316.62 132.081 316.65C132.741 316.72 133.391 316.77 134.051 316.82C135.421 316.91 136.591 316.58 137.651 315.71C138.001 315.43 138.321 315.14 138.731 315.01C139.771 316.49 140.751 317.9 141.131 318.44C142.071 319.77 141.871 321.05 141.441 323.14C141.021 325.24 144.001 327.14 146.301 327.84C148.591 328.54 148.091 333.08 148.521 335.38C148.941 337.68 149.691 338.1 151.671 338.88C153.661 339.66 154.041 343.55 154.041 343.55C154.041 343.55 155.091 349.02 156.881 350.86C158.671 352.68 157.731 355.72 159.131 356.69C160.531 357.66 160.841 359.1 160.841 359.1C160.841 359.1 167.021 358.4 169.971 358.17C172.921 357.93 174.011 354.32 175.371 351.6C176.731 348.88 181.311 346.12 183.611 344.56C185.911 343.01 186.491 338.58 186.101 336.44C185.711 334.3 190.341 330.11 190.341 330.11L193.751 329.6L194.881 328.79L197.391 328.12L197.801 326.31L197.541 323.77L200.661 321.15H204.771L205.141 325.63C205.141 325.63 213.661 322.9 213.681 322.81C213.711 322.73 214.791 320.77 214.791 320.77C214.791 320.77 222.721 318.29 222.801 318.29C222.891 318.29 225.101 316.95 225.101 316.95H228.341L231.601 318.32L241.981 316.51V314.47H236.971L235.891 312.72L238.391 311.03L241.481 310.71L245.181 309.35L247.741 310.74L253.651 303.08L257.821 305.96L261.261 306.72L265.841 308.96L273.481 304.56L279.431 301.47C279.431 301.47 284.881 295.32 284.961 295.32H289.421L292.451 294.38C292.451 294.38 292.941 293.65 294.441 293.36C295.921 293.07 298.461 292.13 298.961 291.26C299.451 290.38 300.181 290.13 300.911 289.92C301.641 289.71 302.401 290.12 302.951 288.84C303.511 287.56 305.431 284.96 304.931 284.47C304.441 283.97 303.271 282.52 304.381 281.68C305.491 280.83 311.471 276.02 311.471 276.02C311.471 276.02 315.111 278.58 318.251 278.7C321.401 278.81 323.361 278.93 323.361 278.93L328.431 283.3C328.431 283.3 338.191 282.83 338.921 283.91C339.651 284.99 341.021 286.83 343.061 286.04C345.101 285.25 355.711 280.42 355.711 280.42C355.711 280.42 362.941 275.67 363.641 272.28C364.341 268.9 366.471 259.96 366.471 259.96L369.401 255.22L369.701 256.08L373.311 258.97C373.311 258.97 371.911 264.8 371.381 267.27C370.861 269.74 370.901 271.14 371.771 273.47C372.651 275.8 373.811 279.36 373.811 279.36L380.791 283.27V283.28Z" fill="#F5F5F5" stroke="#636362" stroke-miterlimit="10"/>
<path d="M682.919 258.7L679.259 276.26L675.289 276.41L665.869 270.7L662.839 272.54L654.309 272.19L652.619 267.68L646.809 266.39L644.479 262.92L647.799 258.36L642.499 253.94L640.109 257.91L624.139 259.35L623.639 266.54L616.649 275.37L617.649 291.5L615.459 294.91L618.439 303.05L627.469 301.42L634.279 303.8L635.669 308.86L631.249 311.04L627.079 321.31L638.449 337.48L635.179 340.61L633.939 345.12L626.839 345.26L621.689 347.65L618.459 344.97L620.449 338.17L611.669 333.41L608.449 325.17L610.289 319.77L604.339 313.12L599.269 314.95L595.499 312.22L591.329 315.99L578.829 320.85L572.769 318.81L569.099 323.28L570.189 327.69L566.709 332.7L562.639 331.12L556.589 333.11L550.239 332.81L541.019 326.76L537.789 319.17L530.929 314.36L529.049 303.35L530.929 296.6L529.649 288.52L525.429 287.07L520.969 293.33L515.999 291.2L515.119 286.68L502.359 288.07L501.269 295.86L497.499 301.12L502.119 307.27L502.469 316.84L505.049 325.52L498.899 345.66L492.449 352.36L490.419 360.69L484.509 362.27L484.419 362.35C483.279 359.96 480.229 354.93 473.789 351.86L472.509 340.55L469.999 339.27L469.069 334.25L471.339 332.91L471.749 323.35L474.839 320.49L474.899 309.33L475.949 306.03L473.449 303.35L473.569 301.95L475.439 300.02L474.619 293.2L471.709 291.28L468.509 292.91L464.899 289.36L462.329 280.96L465.709 270.76L460.579 264.47L454.289 264.99L454.339 262.02L453.349 260.56L450.729 262.77L445.489 261.55L443.619 264.05L445.949 266.97L445.769 270.7L437.259 275.19L427.229 275.66L422.749 272.81L412.139 272.4L411.459 265.54L408.159 261.89L408.059 257.91L411.349 253.97L411.329 246.33L416.669 245.52L420.989 242L421.319 238.29L421.239 236.83L424.889 236.64L426.909 237.98L430.559 236.39L431.349 232.75L432.189 231.47L433.059 225.47L436.709 221.79L440.149 219.48L445.849 219.66L448.449 223.92C448.449 223.92 457.079 221.61 458.679 221.06C460.289 220.51 462.559 216.63 463.749 215.29C464.949 213.95 465.559 210.98 465.699 209.44C465.849 207.89 467.039 205.79 467.039 205.79L471.819 206.05L475.029 210.68C475.439 210.25 478.989 208.5 479.839 208.18C480.679 207.86 481.149 206.72 481.619 205.35C482.079 203.98 488.579 203.98 488.579 203.98L495.779 195.41C496.039 197.28 496.899 199.41 499.279 199.38C503.069 199.32 513.099 199.73 514.959 200.84C516.829 201.95 525.159 206.55 526.159 205.45C527.149 204.34 529.069 203.23 529.419 199.27C529.769 195.3 530.579 192.45 531.689 191.17C532.799 189.89 535.539 184.17 537.169 183.94C538.809 183.71 539.909 181.96 538.919 180.03C537.969 178.19 531.109 170.44 530.559 165.69L538.459 164.02L540.899 166.9L548.109 164.39L551.579 166.04L554.499 164.36L560.809 163.6L569.509 168.89L574.629 168.69L579.959 171.86L586.509 171.4L591.349 178.04L588.569 183.07L589.599 190.48L597.099 194.81L604.769 195.15L612.839 199.24L616.379 206.26L622.499 206.92L623.389 209.93L633.039 209.57L635.689 205.2L639.819 205.53L642.829 201.2L640.779 196.53L644.479 190.35L652.989 191.58L655.109 189.46L653.779 187.05L657.419 183.38L659.509 176.17L666.659 174.84L670.359 179.44L670.489 182.78L675.419 183.21L680.549 187.12C680.549 187.12 679.549 193.96 678.059 196.7C676.579 199.45 677.129 199.28 677.469 200.48C677.809 201.67 679.089 208.45 679.089 208.45C679.089 208.45 677.669 215.65 672.949 219.72L675.579 228.45L670.069 232.37L671.659 237.48L666.499 243.58L669.069 252.61L676.319 252.12L682.969 258.72L682.919 258.7Z" fill="#F5F5F5" stroke="#636362" stroke-miterlimit="10"/>
<path d="M32.0986 337.95C32.0186 338.89 32.4086 339.44 32.6886 340.25C32.9686 341.06 32.8586 341.7 32.3686 342.34C31.4686 343.47 30.8586 345.05 30.4786 346.43C30.2786 347.17 30.0486 347.96 29.9886 348.72C29.9186 349.49 30.0586 350.27 30.0586 351.03C30.0586 351.53 30.0186 352.05 30.0586 352.54C30.0886 352.95 30.2286 353.36 30.2686 353.77C30.3386 354.65 30.2486 355.18 29.8286 355.94C29.4486 356.64 29.0186 357.31 28.5386 357.94C27.5686 359.21 26.4186 360.33 25.2186 361.38C24.7086 361.82 24.2286 361.85 23.6586 362.13C23.0786 362.42 22.5586 362.5 21.8986 362.48C21.2586 362.46 20.7086 362.37 20.0786 362.3C19.3486 362.22 18.5986 362.36 17.8786 362.27C16.7586 362.13 15.6586 362.23 14.5286 362.21C13.3986 362.2 12.4886 362.56 11.4786 363.04C10.8986 363.3 10.2486 363.37 9.63859 363.63C9.05859 363.88 8.37859 364.13 7.82859 364.47C6.99859 364.98 6.34859 365.67 5.68859 366.38C5.09859 367.02 4.34859 367.44 3.78859 368.14C2.83859 369.34 1.77859 370.3 1.18859 371.71C1.17859 371.74 1.16859 371.75 1.15859 371.78L0.558594 371.62L1.25859 367.02L5.45859 362.06L2.73859 357.3L8.65859 349.76L13.5186 349.25L18.7186 345.41L25.2986 346.05L24.7986 335.26L25.4886 333.98L33.3586 334.99C33.2986 335.07 33.2586 335.16 33.2086 335.25C32.7586 336.04 32.1686 337.02 32.0886 337.94L32.0986 337.95Z" fill="#F5F5F5" stroke="#636362" stroke-miterlimit="10"/>
<path d="M53.15 344.49L50.54 351.84L33.86 358.85L32.18 365.2L24.08 368.24L10.52 369.5L3.31 372.34L3 372.25C3.1 372.03 3.2 371.79 3.32 371.57C3.74 370.75 4.37 370.17 4.98 369.5C6.33 368.05 7.83 366.35 9.67 365.48C10.24 365.22 10.78 364.97 11.39 364.87C12.17 364.73 12.89 364.35 13.66 364.12C13.58 364.15 13.54 364.18 13.7 364.15C13.89 364.12 14.06 364.04 14.25 364.01C14.57 363.95 14.88 363.88 15.2 363.81C15.65 363.7 16.18 363.65 16.63 363.61C17.8 363.52 19.11 363.34 20.27 363.64C21.32 363.9 22.34 363.53 23.38 363.25C24.33 363 25.21 362.65 26.02 362.12C26.38 361.75 27.03 361.42 27.48 361.1C28.97 360.09 29.86 358.34 30.77 356.84C30.77 356.82 30.9 356.65 31 356.54C31.19 356.32 31.41 356.09 31.55 355.85C31.86 355.31 31.79 354.73 32.05 354.18C32.63 352.99 33.77 352.25 34.71 351.4C34.96 351.17 35.22 350.89 35.45 350.62C35.64 350.41 35.9 349.85 36.14 349.78C36.41 348.85 36.71 348.05 36.82 347.09C36.9 346.29 36.95 345.53 37.02 344.72C37.14 343.31 37.79 341.9 38.89 341C39.49 340.52 40.11 340.09 40.67 339.56C41.41 338.87 42.27 338.25 42.74 337.33C42.98 336.88 42.93 336.54 43 336.07C43.03 335.87 43.64 335.04 43.51 334.91C43.98 334.86 44.69 335.64 45.05 335.92C45.28 336.09 45.8 336.29 45.89 336.59C45.98 336.89 45.15 337.98 44.96 338.28L42.38 340.72L48.17 345.98L51.31 343.13L53.16 344.49H53.15Z" fill="#F5F5F5" stroke="#636362" stroke-miterlimit="10"/>
<path d="M484.382 362.37L473.412 371.51L476.492 376.47L474.952 383.41L467.412 385.69L464.732 389.76C464.732 389.76 466.272 392.13 467.392 394.89C466.982 395.05 466.612 395.3 466.182 395.57C465.642 395.91 465.272 396.45 464.832 396.92C464.322 397.47 463.732 397.73 463.092 398.11C462.642 398.37 462.292 398.39 461.862 398.54C461.672 398.61 461.472 398.74 461.342 398.89C461.282 398.96 461.212 399.06 461.152 399.14C461.112 399.21 461.262 399.15 461.242 399.18C460.672 400 459.902 400.32 459.172 399.59C458.372 398.78 458.042 399.22 457.232 399.73C456.822 399.99 456.352 400.28 456.262 400.81C456.142 401.43 456.352 402.09 456.382 402.71C456.412 403.34 456.402 403.96 456.552 404.57C456.812 405.68 456.632 406.51 456.302 407.62C455.882 409.01 455.242 410.32 454.792 411.67C454.372 412.9 453.792 414.22 452.722 415C452.382 415.24 452.022 415.24 451.652 415.38C451.292 415.53 451.042 415.81 450.642 415.61C450.022 415.3 449.962 414.51 449.992 413.92C450.032 413.04 450.092 412.15 450.012 411.26C449.952 410.62 449.952 409.91 449.612 409.35C449.252 408.75 448.842 408.25 448.752 407.53C448.672 406.81 448.642 405.97 448.802 405.26C448.952 404.61 449.292 404.25 449.662 403.72C450.452 402.62 451.012 400.88 449.652 400C448.802 400.44 448.422 400.82 448.272 401.8C448.072 403.09 447.442 404.16 446.992 405.37C446.752 406.03 446.652 406.71 446.372 407.35C446.252 407.63 446.032 407.87 445.952 408.16C445.842 408.5 445.862 408.94 445.782 409.29C445.782 409.29 445.742 409.45 445.742 409.5C445.132 409.55 444.502 409.29 443.902 409.24L442.082 409.1L439.402 404.59L437.872 403.01L432.812 402.46L433.162 395.51L440.742 387.87L441.892 383.86L435.252 378.06L429.422 378.51C429.172 378.51 428.892 378.44 428.632 378.41C428.282 378.37 428.072 378.21 428.002 377.87C427.922 377.55 427.762 377.28 427.592 376.99C427.252 376.46 426.782 375.86 426.082 375.91C426.352 375.72 426.622 375.54 426.872 375.34C428.142 374.33 429.042 372.97 430.342 372.01C431.592 371.09 433.102 370.31 434.632 369.96C436.082 369.62 437.782 369.72 438.902 368.57C440.102 367.32 439.592 365.67 438.832 364.32C438.272 363.33 437.132 361.05 435.692 361.61C434.952 361.9 434.282 362.45 433.592 362.84C432.932 363.21 431.822 363.56 431.402 364.22C431.042 364.78 431.062 365.58 430.952 366.19C430.862 366.67 430.822 367.14 430.652 367.6C430.522 367.97 430.382 368.44 430.132 368.74C429.832 369.09 429.282 369.07 428.872 368.98C428.522 368.9 428.192 368.74 427.852 368.64C427.602 368.56 427.352 368.6 427.102 368.55C426.302 368.41 425.532 368.25 424.732 368.47C423.892 368.69 423.142 369.2 422.432 369.65C422.022 369.91 421.622 370.21 421.192 370.42C420.852 370.59 420.552 370.69 420.352 371.07C420.222 371.33 420.182 371.6 420.062 371.86C419.802 372.47 419.292 372.87 419.052 373.49C418.862 373.98 418.852 374.55 418.632 375.04C418.372 375.58 417.942 375.92 417.522 376.32C417.132 376.69 417.122 377.22 416.952 377.75C416.932 377.78 416.882 377.87 416.832 377.96H416.772V378.06C416.262 377.76 415.942 377.37 415.532 376.96C415.162 376.58 414.552 376.47 414.212 376.09L411.682 373.41L405.682 373.13L402.702 367.82L399.332 366.13L390.252 352.79L385.442 351.99L378.292 345.49L380.132 341.72L375.922 334.68L379.942 328.68L381.532 319.99L380.442 317.37L379.702 302.13L375.192 298.26L368.922 302.12L369.282 293.14L377.122 291.39L380.842 283.25L386.282 280.84L386.132 278.26L387.522 276.37L387.682 272.89L397.372 272.1C397.372 272.1 398.002 273.73 398.072 273.84C398.052 273.73 401.182 274 401.182 274L403.432 273.83L406.232 276.98L412.122 272.4L422.732 272.81L427.212 275.66L437.242 275.19L445.752 270.7L445.932 266.97L443.602 264.05L445.472 261.55L450.712 262.77L453.332 260.56L454.322 262.02L454.272 264.99L460.562 264.47L465.692 270.76L462.312 280.96L464.882 289.36L468.492 292.91L471.692 291.28L474.602 293.2L475.422 300.02L473.552 301.95L473.432 303.35L475.932 306.03L474.882 309.33L474.822 320.49L471.732 323.35L471.322 332.91L469.052 334.25L469.982 339.27L472.492 340.55L473.772 351.86C480.212 354.94 483.262 359.96 484.402 362.35L484.382 362.37Z" fill="#F5F5F5" stroke="#636362" stroke-miterlimit="10"/>
<path d="M532.708 104.39L530.768 113.25L524.008 120.94L514.488 125.96L507.688 123.2C507.688 123.2 507.178 121.57 506.798 119.12C506.418 116.67 506.018 119.16 505.518 115.62C505.008 112.08 501.398 110.92 501.398 110.92C502.408 108.24 502.178 105.79 502.178 105.79L505.008 104.66C505.628 102.72 507.378 102.91 507.378 102.91C508.698 98.6401 509.588 97.2001 509.588 97.2001C509.168 95.8001 508.458 93.2301 508.458 93.2301L512.308 92.8501L513.938 94.7101L517.748 95.2201L524.468 100.35L531.268 100.15L532.708 104.39Z" fill="#F5F5F5" stroke="#636362" stroke-miterlimit="10"/>
<path d="M386.271 214.41L384.261 218.73L382.241 219.74L381.541 223L379.751 224.67L381.351 229.53L377.111 229.94L374.901 230.82L374.431 231L372.011 230.18V225.87L367.121 223.42L363.381 216.54L361.551 210.36L362.951 208.38L367.461 208.61L370.881 211.8L377.761 211.33C377.761 211.33 377.761 211.33 377.761 211.32L381.101 211.84L386.261 214.4L386.271 214.41Z" fill="#F5F5F5" stroke="#636362" stroke-miterlimit="10"/>
<path d="M493.52 190.22C492.65 189.7 493.64 187.83 494.8 187.01C495.96 186.2 495.09 183.63 494.86 179.67C494.63 175.71 491.54 173.38 490.72 172.09C489.91 170.81 488.62 171.28 485.19 171.68C481.75 172.09 479.88 170.57 478.84 169C477.79 167.43 482.28 166.02 484.73 164.69C487.18 163.35 485.34 155.6 485.34 155.6C485.34 155.6 485.48 153.91 484.39 152.29C483.59 152.09 482.76 151.94 481.99 151.64C481.21 151.34 480.42 151.19 479.59 151.15C478.7 151.11 477.81 150.88 476.92 150.85C476.52 150.84 476.12 150.82 475.72 150.75C475.13 150.66 474.6 150.55 474 150.55C473.59 150.46 472.17 150.3 472.08 149.77C463.44 150.16 459.37 144.28 457.69 141.25C457.08 142.6 454.04 145.47 453.3 146.98C452.56 148.49 452.73 153.51 452.89 154.98C453.04 156.46 452.13 156.46 451.16 156.98C450.19 157.5 450.38 158.18 450.34 159.21C450.3 160.24 451 159.98 451.85 160.26C452.71 160.53 451.73 161.74 451.29 163.85C450.84 165.97 448.68 167.83 447.77 169.29C446.86 170.75 445.61 169.72 444.85 169.66C444.09 169.6 442.34 171.45 441.78 172.11C441.21 172.77 441.95 173.86 441.87 174.85C441.8 175.84 442.73 175.14 443.56 175.03C444.4 174.91 444.49 175.17 445.37 175.84C446.25 176.52 447.59 179.03 447.92 179.71C448.25 180.39 448.37 181.17 448.44 182.16C448.52 183.15 450.21 184.1 450.72 184.47C451.23 184.84 453.3 187.35 453.51 188.01C453.72 188.67 452.41 189.8 451.98 190.23C451.56 190.66 451.69 191.3 451.73 192.12C451.77 192.93 449.09 195.11 448.04 196.25C447.89 196.4 447.6 196.66 447.19 196.98L449.87 198.71L452.08 204.38C452.08 204.38 445.96 209.64 444.71 210.46C443.47 211.27 440.09 214.77 440.09 214.77V219.47L445.79 219.65L448.39 223.91C448.39 223.91 457.02 221.6 458.62 221.05C460.23 220.5 462.5 216.62 463.69 215.28C464.89 213.94 465.5 210.97 465.64 209.43C465.79 207.88 466.98 205.78 466.98 205.78L471.76 206.04L474.97 210.67C475.38 210.24 478.93 208.49 479.78 208.17C480.62 207.85 481.09 206.71 481.56 205.34C482.02 203.97 488.52 203.97 488.52 203.97L495.72 195.4C495.57 194.31 495.64 193.3 495.72 192.9C495.95 191.79 494.38 190.74 493.51 190.22H493.52ZM457.54 173.51C456.99 173.9 456.28 174.02 455.61 174.12C454.98 174.21 454.27 174.38 453.66 174.59C453.05 174.8 452.43 174.88 451.78 174.91C451.23 174.94 449.98 175.23 449.66 174.57C449.36 173.96 450.08 173.26 450.62 173.12C451.09 172.99 451.59 173 452.06 173.1C452.53 173.2 452.99 173.09 453.47 173.07C453.73 173.07 453.9 173 454.14 172.89C454.33 172.81 454.5 172.79 454.68 172.68C454.87 172.56 454.99 172.37 455.14 172.21C455.45 171.88 455.88 171.63 456.26 171.38C456.86 170.96 458.42 170.73 458.6 171.79C458.72 172.51 458.07 173.17 457.55 173.52L457.54 173.51Z" fill="#F5F5F5" stroke="#636362" stroke-miterlimit="10"/>
<path d="M452.092 204.39C452.092 204.39 445.972 209.65 444.722 210.47C443.482 211.28 440.102 214.78 440.102 214.78V219.48L436.662 221.79L433.012 225.47L432.142 231.47L431.302 232.75L430.512 236.39L426.862 237.98L424.842 236.64L421.192 236.83L421.272 238.29L420.942 242L416.622 245.52L411.282 246.33L411.302 253.97L408.012 257.91L408.112 261.89L411.412 265.54L412.092 272.4L406.202 276.98L403.402 273.83L401.152 274C401.152 274 398.022 273.73 398.042 273.84C397.972 273.73 397.342 272.1 397.342 272.1L387.652 272.89L387.492 276.37L386.102 278.26L386.252 280.84L380.812 283.25L373.832 279.34C373.832 279.34 372.662 275.78 371.792 273.45C370.922 271.12 370.882 269.72 371.402 267.25C371.932 264.78 373.332 258.95 373.332 258.95L369.722 256.06L369.422 255.2L368.172 251.64L370.342 248.36L374.212 248.6L376.602 246.19C376.602 246.19 375.402 240.34 374.762 238.59C374.122 236.84 375.072 234.57 375.852 234.01C376.632 233.44 374.922 230.79 374.922 230.79L377.132 229.91L381.372 229.5L379.772 224.64L381.562 222.97L382.262 219.71L384.282 218.7L386.292 214.38L381.132 211.82L377.792 211.3C377.852 211 378.952 205.58 378.682 204.82C378.402 204.04 377.432 203.11 378.102 201.4C378.752 199.69 380.662 198.02 380.662 198.02L387.542 195.77L390.342 185.99C390.432 185.96 390.522 185.91 390.632 185.84C390.982 185.62 391.292 185.32 391.642 185.1C392.302 184.7 392.902 184.29 393.212 183.58C393.542 182.86 394.072 182.39 394.912 182.33C395.412 182.29 396.342 182.26 396.702 182.69C396.962 182.98 397.042 183.67 397.122 184.06C397.242 184.66 397.182 185.24 397.392 185.83C397.642 186.52 397.652 187.04 397.422 187.74C396.992 189.07 397.582 190.55 396.992 191.85C396.762 192.17 396.532 192.49 396.332 192.83C395.332 194.54 396.512 195.5 397.532 196.82C397.972 197.41 398.222 197.97 398.052 198.71C397.892 199.47 397.622 200.14 397.762 200.93C397.992 202.17 399.352 203.97 400.552 202.6C401.572 201.45 402.052 199.83 401.722 198.34C401.352 196.62 400.292 195.41 399.482 193.92C398.722 192.52 399.442 191.62 400.262 190.7C401.392 191.07 403.012 191.42 404.802 191.3C408.242 191.06 412.552 190.95 412.322 192.47C412.092 193.98 411.152 194.57 411.802 195.21C412.442 195.85 413.142 198.18 414.482 197.71C415.822 197.24 415.762 195.78 416.642 195.09C417.512 194.39 422.002 192.23 422.412 192.64C422.822 193.05 423.962 194.92 424.922 194.54C425.882 194.16 426.782 193.75 427.142 193.67C427.492 193.58 428.072 193.58 428.042 192.94C428.012 192.3 427.752 191.13 428.682 191.28C429.622 191.43 430.282 191.19 430.492 191.83C430.692 192.47 432.322 193.41 431.662 193.95C430.992 194.48 430.612 195.01 430.842 195.53C431.082 196.06 430.352 196.9 431.572 196.9C432.792 196.9 433.412 197.27 433.522 198.27C433.642 199.26 433.992 206.48 435.822 205.23C437.412 204.15 444.612 199.06 447.212 196.96L449.892 198.68L452.102 204.35L452.092 204.39Z" fill="#F5F5F5" stroke="#636362" stroke-miterlimit="10"/>
<path d="M309.01 100.07C308.16 101.04 307.57 102.68 306.45 105.36C305.33 108.04 293.12 105.24 293.12 105.24C293.04 107.22 290.51 110.37 288.92 110.95C287.32 111.53 286.39 113.55 285.34 115.3C284.29 117.05 281.87 121.13 281.87 121.13C281.87 121.13 279.75 121.13 278.52 121.04C277.3 120.95 276.45 123.46 276.45 123.46L273.45 123.29L272.93 121.48L273.45 120L271.58 119.68L269.51 122.42L265.93 121.37L258.99 114.84L251.56 117.73L245.38 118.43L245.62 119.54L246.12 121.6C246.12 121.6 246.41 124.69 246.61 125.68C246.81 126.67 247.78 127.23 248.5 127.54C249.23 127.86 249.18 127.83 249.52 128.27C249.87 128.7 250.42 129.44 252.17 130.02C253.92 130.6 254.27 135.64 254.27 135.64L258.26 136.45L258.58 140.47L255.87 142.54L254.56 145.63L247.71 146.36L244.59 142.83L238.47 143.5L236.43 145.54L235.5 152.25L227.31 155.42L227.92 160.78L227.49 161.34L223.52 163.08L222.68 162.82L223.18 159L221.37 157.75L216.33 159.88L212.36 153.64L214.35 152.09L221.02 154.31L222.04 152.65L220.96 151.69L220.38 149.01C220.38 149.01 223.18 146.82 224.2 145.69C225.22 144.55 227.88 144.79 229.8 144.9C231.72 145.02 231.98 144.46 231.57 141.98C231.17 139.5 227.73 138.98 226.94 138.98C226.15 138.98 223.88 139.56 222.89 140.44C221.9 141.32 217.11 143.25 217.11 143.25L213.38 136.47H210.46L207.84 131.77C207.84 131.77 211.01 130.8 213.26 129.71C215.52 128.62 219.52 125.83 219.52 125.83L220.3 123.07L227.28 120.8L230.37 116.27L237.73 114.01L238.86 112.98L240.11 109.85L241.68 105.93C241.68 105.93 240.91 105.62 239.79 105.02C238.66 104.42 238.95 103.13 238.33 102.18C237.71 101.23 234.08 98.8001 234.08 98.8001L224.89 98.6201L223.21 96.8701L223.89 92.1201L228.99 92.2601L230.22 94.1901L235.23 92.2901L236.13 88.2401L240.15 87.7501L240.88 88.6801L243.33 88.2401L244.96 84.6001L249.19 83.3501L250.27 77.4901L248.78 76.6801L249.54 71.9901C249.54 71.9901 251.47 72.9401 252.99 73.2501C254.5 73.5601 255.52 69.8301 255.52 69.8301H256.37L257.42 72.7401L262.16 74.1001C262.16 74.1001 262.31 74.8001 262.66 76.2301C263.01 77.6701 261.35 77.9401 260.56 78.6801C259.78 79.4201 258.23 89.1801 258.23 89.1801L251.62 89.6401C251.62 89.6401 251.35 94.9701 251.93 95.3901C252.51 95.8101 253.83 99.5101 253.83 99.5101C253.83 99.5101 263.39 98.1801 264.94 97.8801C266.5 97.5701 266.73 100.13 267.82 100.83C268.91 101.53 269.84 103.63 269.84 103.63L275.83 104.83C275.83 104.83 275.99 104.32 275.87 103.12C275.75 101.91 276.88 101.25 278.09 100.21C279.29 99.1601 282.44 97.0601 284.47 96.6001C286.48 96.1301 289.52 92.5601 289.52 92.5601L300.13 87.0001L300.28 84.7801L297.99 82.0201L299.5 77.2801L301.83 77.1601C301.83 77.1601 303.3 81.2001 303.93 82.4901C304.55 83.7801 304.09 83.8801 303.42 84.3101C302.76 84.7301 303.23 85.8201 303.23 86.7601C303.23 87.7001 304.47 88.9001 306.26 89.5901C308.05 90.2901 310.03 93.2801 310.88 94.4101C311.74 95.5401 309.87 99.0801 309.02 100.04L309.01 100.07Z" fill="#F5F5F5" stroke="#636362" stroke-miterlimit="10"/>
<path d="M168.399 207.06L170.969 210.27L163.619 215.34L161.049 210.21L159.069 209.22C159.069 209.22 160.529 204.62 159.129 204.27C157.729 203.92 156.689 203.63 156.689 203.63L155.759 201.36C155.759 201.36 157.909 200.14 157.149 198.97C156.399 197.81 154.879 198.91 154.879 198.91L152.949 195.76C153.089 195.62 153.219 195.49 153.279 195.43C153.279 195.43 153.259 195.44 153.249 195.45C154.039 194.66 154.819 193.88 155.609 193.1C156.469 192.26 157.549 191.7 158.509 190.97C160.189 189.68 162.199 188.72 163.459 186.95C164.019 186.16 164.319 185.15 164.319 184.14C164.319 183.32 164.129 182.52 163.719 181.84C164.389 181.86 165.099 182.08 165.299 182.9C165.429 183.44 165.779 184.93 166.209 186.68C166.879 189.44 167.699 192.86 168.029 194.22C167.809 194.3 167.589 194.4 167.379 194.52C166.409 195.04 165.489 195.79 164.749 196.58C163.939 197.42 163.309 198.59 163.949 199.73C164.479 200.65 165.739 201.15 166.709 201.45C167.759 201.76 168.839 201.2 169.799 200.8C170.199 200.63 170.439 199.82 170.729 199.28L172.789 202.87L168.419 207.07L168.399 207.06Z" fill="#F5F5F5" stroke="#636362" stroke-miterlimit="10"/>
<path d="M212.569 247.15C211.549 246.68 211.199 245.58 211.319 245.02C211.439 244.46 204.179 242.51 204.179 242.51C204.179 242.51 203.619 241.26 203.369 240.29C203.109 239.33 203.399 238.75 204.209 237.38C205.029 236.01 202.959 232.6 202.609 231.52C202.259 230.44 203.049 230.12 203.739 229.68C204.439 229.25 204.819 228.02 204.939 227.21C205.059 226.39 206.019 223.89 206.069 221.97C206.129 220.04 207.849 219.98 208.199 217.97C208.549 215.96 204.609 214.27 204.609 214.27L205.809 211.21L208.659 212.66C208.659 212.66 208.659 214.62 209.269 215.37C209.879 216.13 210.929 213.91 211.689 212.81C212.439 211.7 212.129 209.98 212.239 207.91C212.359 205.84 211.719 205.93 209.559 204.41C207.399 202.9 204.139 205.37 201.339 205.72C198.539 206.07 195.889 202.89 195.889 202.89L191.309 202.56L187.169 203.44L185.859 201.75L191.049 196.8L189.439 197.21L189.009 194.5L186.559 191.91L188.739 190.3L189.149 187.42L192.909 182.31L188.799 177.95L183.199 181.88L178.789 184.13L176.579 184.39L172.999 185.38L166.189 186.67C166.859 189.43 167.679 192.85 168.009 194.21C168.899 193.87 169.849 193.73 170.779 193.45C173.059 192.77 174.779 189.77 177.409 190.49C180.039 191.2 176.709 194.18 175.959 195.29C175.079 196.58 173.709 197.33 172.379 198.09C171.919 198.35 171.329 198.56 170.949 198.91C170.859 199 170.779 199.12 170.699 199.26L172.759 202.85L168.389 207.05L170.959 210.26L163.609 215.33L161.039 210.2L159.059 209.21C159.059 209.21 160.519 204.61 159.119 204.26C157.719 203.91 156.679 203.62 156.679 203.62L155.749 201.35C155.749 201.35 157.899 200.13 157.139 198.96C156.389 197.8 154.869 198.9 154.869 198.9L152.939 195.75C152.779 195.91 152.609 196.08 152.559 196.12C152.509 196.19 152.449 196.25 152.329 196.38C152.039 196.69 151.599 197.1 151.249 197.45C150.859 197.84 150.459 198.11 150.009 198.46C149.029 199.23 148.509 200.15 148.069 201.26C147.859 201.77 147.679 202.11 147.079 202.24L150.149 207.76L152.949 205.72L154.749 205.14L156.439 209.39L154.869 211.49L157.789 217.67L156.569 219.59H153.129L151.609 223.44L152.249 225.3L153.649 224.25L154.349 225.3L150.269 228.98L145.839 236.09L149.919 236.85L140.939 249.38L138.669 249.67L137.739 250.66C137.739 250.66 138.909 256.44 138.029 256.84C137.159 257.25 135.929 257.83 134.179 255.03L128.469 257.83L126.609 260.8L127.479 275.55L131.949 273.62L133.889 274.52L135.289 274.56L137.079 276.35L143.879 276.89C143.879 276.89 138.319 281.13 138.479 282.33C138.629 283.53 138.279 285.17 137.159 284.82C136.029 284.47 134.009 281.36 134.009 281.36L132.339 283.11L130.739 282.8C130.739 282.8 129.769 286.03 130.979 286.41C132.179 286.8 133.189 286.8 133.079 287.89C132.959 288.98 133.929 293.61 135.869 293.22C137.809 292.83 137.469 289.96 140.769 290.19C144.079 290.42 153.249 290.82 154.099 293.8C154.949 296.79 155.769 298.24 155.569 300.06C155.379 301.89 154.489 306.28 155.839 305.58C157.199 304.88 160.149 305.03 160.699 302.5C161.239 299.98 161.899 299.2 163.379 298.35C164.859 297.49 166.919 294.77 169.949 294.58C172.979 294.39 175.119 294.66 176.369 292.6C177.609 290.54 178.739 287.59 180.869 286.23C183.009 284.87 187.089 281.29 187.439 282.19C187.789 283.08 188.679 286.78 189.579 285.26C190.479 283.75 191.709 281.34 191.709 281.34C195.069 279.74 198.799 275.74 199.559 274.26C200.309 272.77 202.649 273.24 204.039 273.38C205.439 273.53 205.969 269.57 206.459 268.75C206.959 267.94 205.819 267.26 205.149 266.48C204.479 265.69 204.389 264.74 204.339 263.65C204.279 262.57 205.529 262.34 206.689 261.84C207.859 261.34 206.629 259.33 206.659 258.25C206.689 257.17 208.149 257.23 209.139 257.17C210.129 257.11 210.859 257.99 211.619 258.54C212.369 259.1 212.809 257.84 213.569 257.52C214.329 257.2 214.149 251.92 214.499 249.82C214.849 247.72 213.569 247.61 212.549 247.14L212.569 247.15ZM173.249 207.03L172.799 204.62L174.439 203.69L175.249 204.16L175.639 206.06C175.639 206.06 173.309 207.03 173.249 207.03ZM179.989 203.21L178.149 203.58L176.829 203.11L176.559 200.78L178.899 198.66L179.989 198.97V203.21Z" fill="#F5F5F5" stroke="#636362" stroke-miterlimit="10"/>
<path d="M175.629 206.06C175.629 206.06 173.299 207.03 173.239 207.03L172.789 204.62L174.429 203.69L175.239 204.16L175.629 206.06Z" fill="#F5F5F5" stroke="#636362" stroke-miterlimit="10"/>
<path d="M179.981 198.96V203.2L178.141 203.57L176.821 203.1L176.551 200.77L178.901 198.65L179.981 198.96Z" fill="#F5F5F5" stroke="#636362" stroke-miterlimit="10"/>
</g>
<defs>
<clipPath id="clip0_1825_7412">
<rect width="683.46" height="434.14" fill="white"/>
</clipPath>
</defs>
</svg>
